%FSLAX24Y24*%
%MOIN*%
G70*
G01*
G75*
%ADD10C,0.0100*%
%ADD11R,0.0380X0.0380*%
%ADD12O,0.0630X0.0110*%
%ADD13R,0.0500X0.0650*%
%ADD14O,0.0189X0.0787*%
%ADD15O,0.0787X0.0189*%
%ADD16R,0.0189X0.0787*%
%ADD17R,0.0500X0.0600*%
%ADD18R,0.0600X0.0500*%
%ADD19R,0.1200X0.0900*%
%ADD20R,0.1614X0.0827*%
%ADD21R,0.0600X0.1250*%
%ADD22R,0.1250X0.0600*%
%ADD23O,0.0110X0.0669*%
%ADD24R,0.0110X0.0669*%
%ADD25O,0.0110X0.0709*%
%ADD26O,0.0157X0.0701*%
%ADD27R,0.0157X0.0701*%
%ADD28O,0.0138X0.0846*%
%ADD29R,0.0709X0.1378*%
%ADD30R,0.1378X0.0709*%
%ADD31R,0.0709X0.1575*%
%ADD32R,0.0709X0.0110*%
%ADD33O,0.0709X0.0110*%
%ADD34O,0.0709X0.0110*%
%ADD35R,0.0600X0.0600*%
%ADD36R,0.1575X0.1181*%
%ADD37R,0.0138X0.0846*%
%ADD38R,0.0551X0.0492*%
%ADD39O,0.0701X0.0157*%
%ADD40R,0.0800X0.0800*%
%ADD41R,0.0787X0.0512*%
%ADD42R,0.0945X0.0906*%
%ADD43O,0.0787X0.0177*%
%ADD44R,0.0787X0.0177*%
%ADD45O,0.0110X0.0630*%
%ADD46R,0.0110X0.0630*%
%ADD47C,0.0400*%
%ADD48R,0.0433X0.0787*%
%ADD49R,0.0787X0.0787*%
%ADD50R,0.0787X0.0394*%
%ADD51R,0.0236X0.0433*%
%ADD52R,0.0472X0.0315*%
%ADD53R,0.0492X0.0551*%
%ADD54R,0.0600X0.1000*%
%ADD55R,0.0380X0.0425*%
%ADD56R,0.0630X0.0110*%
%ADD57O,0.0630X0.0110*%
%ADD58C,0.0120*%
%ADD59C,0.0110*%
%ADD60C,0.0400*%
%ADD61C,0.0500*%
%ADD62C,0.0150*%
%ADD63C,0.0200*%
%ADD64C,0.0080*%
%ADD65C,0.0600*%
%ADD66C,0.1000*%
%ADD67C,0.0320*%
%ADD68C,0.0300*%
%ADD69C,0.0290*%
%ADD70C,0.0380*%
%ADD71C,0.0390*%
%ADD72C,0.0180*%
%ADD73C,0.0130*%
%ADD74C,0.0250*%
%ADD75C,0.0280*%
%ADD76C,0.0170*%
%ADD77C,0.0140*%
%ADD78C,0.0220*%
%ADD79C,0.0090*%
%ADD80C,0.0157*%
%ADD81C,0.0310*%
%ADD82C,0.0270*%
%ADD83C,0.0350*%
%ADD84R,0.5050X0.4500*%
%ADD85R,0.5050X0.9550*%
%ADD86R,0.1350X0.1400*%
%ADD87R,0.0300X0.1229*%
%ADD88R,0.0670X0.0700*%
%ADD89C,0.0620*%
%ADD90P,0.0620X8X0*%
%ADD91C,0.0787*%
%ADD92C,0.0906*%
%ADD93C,0.1000*%
%ADD94C,0.0650*%
%ADD95C,0.0600*%
%ADD96C,0.0500*%
%ADD97C,0.0945*%
%ADD98C,0.1181*%
%ADD99C,0.0118*%
%ADD100C,0.0060*%
%ADD101C,0.0098*%
%ADD102C,0.0079*%
%ADD103C,0.0070*%
%ADD104C,0.0160*%
%ADD105R,0.0130X0.0360*%
%ADD106R,0.0430X0.3100*%
%ADD107R,0.1500X0.0500*%
%ADD108R,0.0300X0.0500*%
%ADD109R,0.1850X3.5600*%
%ADD110R,0.1300X0.1300*%
%ADD111R,0.4580X0.0560*%
%ADD112R,0.4570X0.0560*%
%ADD113R,0.0610X1.0100*%
%ADD114R,1.0110X0.0610*%
%ADD115R,0.0600X1.0150*%
%ADD116R,0.4016X0.1063*%
%ADD117R,0.1250X0.3400*%
%ADD118R,0.0520X0.2190*%
%ADD119R,0.0530X0.2180*%
%ADD120R,0.2230X0.0510*%
%ADD121R,0.2180X0.0540*%
%ADD122R,0.6930X0.0530*%
%ADD123R,0.0520X0.6930*%
%ADD124R,0.0520X0.6940*%
%ADD125R,0.1675X3.5550*%
%ADD126R,0.0460X0.0460*%
%ADD127O,0.0710X0.0190*%
%ADD128R,0.0580X0.0730*%
%ADD129O,0.0269X0.0867*%
%ADD130O,0.0867X0.0269*%
%ADD131R,0.0269X0.0867*%
%ADD132R,0.0580X0.0680*%
%ADD133R,0.0680X0.0580*%
%ADD134R,0.1280X0.0980*%
%ADD135R,0.1694X0.0907*%
%ADD136R,0.0680X0.1330*%
%ADD137R,0.1330X0.0680*%
%ADD138O,0.0190X0.0749*%
%ADD139R,0.0190X0.0749*%
%ADD140O,0.0190X0.0789*%
%ADD141O,0.0237X0.0781*%
%ADD142R,0.0237X0.0781*%
%ADD143O,0.0218X0.0926*%
%ADD144R,0.0789X0.1458*%
%ADD145R,0.1458X0.0789*%
%ADD146R,0.0789X0.1655*%
%ADD147R,0.0789X0.0190*%
%ADD148O,0.0789X0.0190*%
%ADD149O,0.0789X0.0190*%
%ADD150R,0.0680X0.0680*%
%ADD151R,0.1655X0.1261*%
%ADD152R,0.0218X0.0926*%
%ADD153R,0.0631X0.0572*%
%ADD154O,0.0781X0.0237*%
%ADD155R,0.0880X0.0880*%
%ADD156R,0.0867X0.0592*%
%ADD157R,0.1025X0.0986*%
%ADD158O,0.0867X0.0257*%
%ADD159R,0.0867X0.0257*%
%ADD160O,0.0190X0.0710*%
%ADD161R,0.0190X0.0710*%
%ADD162C,0.0800*%
%ADD163R,0.0513X0.0867*%
%ADD164R,0.0867X0.0867*%
%ADD165R,0.0867X0.0474*%
%ADD166R,0.0316X0.0513*%
%ADD167R,0.0552X0.0395*%
%ADD168R,0.0572X0.0631*%
%ADD169R,0.0680X0.1080*%
%ADD170R,0.0460X0.0505*%
%ADD171R,0.0710X0.0190*%
%ADD172O,0.0710X0.0190*%
%ADD173C,0.0700*%
%ADD174P,0.0700X8X0*%
%ADD175C,0.0867*%
%ADD176C,0.0986*%
%ADD177C,0.1080*%
%ADD178C,0.0080*%
%ADD179C,0.0730*%
%ADD180C,0.0680*%
%ADD181C,0.0580*%
%ADD182C,0.1025*%
%ADD183C,0.1261*%
%ADD184C,0.0480*%
D10*
X31275Y44075D02*
X31280Y43977D01*
X31294Y43880D01*
X31318Y43785D01*
X31351Y43692D01*
X31393Y43604D01*
X31444Y43519D01*
X31502Y43441D01*
X31568Y43368D01*
X31641Y43302D01*
X31719Y43244D01*
X31804Y43193D01*
X31892Y43151D01*
X31985Y43118D01*
X32080Y43094D01*
X32177Y43080D01*
X32275Y43075D01*
X165475D02*
X165573Y43080D01*
X165670Y43094D01*
X165765Y43118D01*
X165858Y43151D01*
X165946Y43193D01*
X166031Y43244D01*
X166109Y43302D01*
X166182Y43368D01*
X166248Y43441D01*
X166306Y43519D01*
X166357Y43604D01*
X166399Y43692D01*
X166432Y43785D01*
X166456Y43880D01*
X166470Y43977D01*
X166475Y44075D01*
X129325Y113125D02*
X129335Y113027D01*
X129363Y112934D01*
X129409Y112847D01*
X129471Y112771D01*
X129547Y112709D01*
X129634Y112663D01*
X129727Y112635D01*
X129825Y112625D01*
X135975D02*
X136073Y112635D01*
X136166Y112663D01*
X136253Y112709D01*
X136329Y112771D01*
X136391Y112847D01*
X136437Y112934D01*
X136465Y113027D01*
X136475Y113125D01*
X166475D01*
X129825Y112625D02*
X135975D01*
X166475Y44075D02*
Y113125D01*
X31275Y44075D02*
Y113125D01*
X129325D01*
X32275Y43075D02*
X165475D01*
D109*
X32200Y82475D02*
D03*
D110*
X111225Y75275D02*
D03*
X82275Y50175D02*
D03*
D111*
X107705Y52225D02*
D03*
X115345Y65875D02*
D03*
D112*
X107703Y59945D02*
D03*
X115350Y58155D02*
D03*
D113*
X118040Y76345D02*
D03*
D114*
X124080Y70300D02*
D03*
X124070Y82390D02*
D03*
D115*
X130125Y76350D02*
D03*
D116*
X124437Y48861D02*
D03*
D117*
X159670Y86755D02*
D03*
D118*
X134315Y89500D02*
D03*
D119*
X130960Y89505D02*
D03*
D120*
X132630Y87830D02*
D03*
D121*
X132635Y91185D02*
D03*
D122*
X98010Y63460D02*
D03*
X98020Y54800D02*
D03*
D123*
X102335Y59110D02*
D03*
D124*
X93675Y59105D02*
D03*
D125*
X165637Y82500D02*
D03*
D126*
X89375Y55325D02*
D03*
X88775D02*
D03*
X104275Y80625D02*
D03*
Y79975D02*
D03*
X104375Y76425D02*
D03*
Y77075D02*
D03*
X96575Y79325D02*
D03*
Y78675D02*
D03*
X105525Y84075D02*
D03*
X104875D02*
D03*
X105525Y83475D02*
D03*
X104875D02*
D03*
X105525Y82875D02*
D03*
X104875D02*
D03*
X105525Y82275D02*
D03*
X104875D02*
D03*
X114125Y84925D02*
D03*
X114775D02*
D03*
X106925Y87025D02*
D03*
X107575D02*
D03*
X106225Y69475D02*
D03*
X105575D02*
D03*
X105625Y71525D02*
D03*
X108625D02*
D03*
X106625D02*
D03*
X107625D02*
D03*
X41275Y77725D02*
D03*
X41925D02*
D03*
X120725Y67075D02*
D03*
X131375Y83275D02*
D03*
X132025D02*
D03*
X124425Y106125D02*
D03*
Y105475D02*
D03*
X125225D02*
D03*
Y106125D02*
D03*
X89275Y67825D02*
D03*
X89925D02*
D03*
X106625Y70875D02*
D03*
X105625D02*
D03*
X108625D02*
D03*
X107625D02*
D03*
X88325Y62975D02*
D03*
Y62325D02*
D03*
X104275Y71575D02*
D03*
X103625D02*
D03*
X125225Y104175D02*
D03*
Y104825D02*
D03*
X124425D02*
D03*
Y104175D02*
D03*
X133225Y104975D02*
D03*
Y104325D02*
D03*
X132625D02*
D03*
Y104975D02*
D03*
X107511Y60761D02*
D03*
X108161D02*
D03*
X108025Y51425D02*
D03*
X107375D02*
D03*
X106125Y50825D02*
D03*
Y51475D02*
D03*
X136075Y60525D02*
D03*
Y61175D02*
D03*
X118075Y57475D02*
D03*
Y58125D02*
D03*
X131775Y79875D02*
D03*
Y79225D02*
D03*
X132725Y76625D02*
D03*
X133375D02*
D03*
X114925Y57425D02*
D03*
X115575D02*
D03*
X115075Y67125D02*
D03*
Y67775D02*
D03*
X129525Y58025D02*
D03*
X130175D02*
D03*
X136075Y62775D02*
D03*
Y62125D02*
D03*
X130175Y64275D02*
D03*
Y63625D02*
D03*
Y65575D02*
D03*
Y64925D02*
D03*
X130025Y66725D02*
D03*
X130675D02*
D03*
X130175Y62275D02*
D03*
Y62925D02*
D03*
X136075Y63875D02*
D03*
Y64525D02*
D03*
X122175Y55525D02*
D03*
Y56175D02*
D03*
X121525Y59525D02*
D03*
X122175D02*
D03*
X121775Y63075D02*
D03*
X121125D02*
D03*
X122575Y64225D02*
D03*
X123225D02*
D03*
X121625Y61225D02*
D03*
X120975D02*
D03*
X128075Y59575D02*
D03*
Y60225D02*
D03*
Y61975D02*
D03*
Y61325D02*
D03*
X136675Y61175D02*
D03*
Y60525D02*
D03*
X135925Y79225D02*
D03*
Y79875D02*
D03*
X132425D02*
D03*
Y79225D02*
D03*
X131775Y80525D02*
D03*
X132425D02*
D03*
X132725Y75325D02*
D03*
Y75975D02*
D03*
X133275Y79225D02*
D03*
Y79875D02*
D03*
X134175Y78125D02*
D03*
Y77475D02*
D03*
Y76825D02*
D03*
Y76175D02*
D03*
X133375Y75325D02*
D03*
Y75975D02*
D03*
X128375Y83575D02*
D03*
Y84225D02*
D03*
X132025Y72575D02*
D03*
X131375D02*
D03*
X116025Y76475D02*
D03*
Y75825D02*
D03*
X130775Y79675D02*
D03*
Y79025D02*
D03*
X130925Y75875D02*
D03*
X131575D02*
D03*
X116175Y80325D02*
D03*
X116825D02*
D03*
X121425Y83275D02*
D03*
X120775D02*
D03*
X124225Y68375D02*
D03*
Y69025D02*
D03*
X120275Y69475D02*
D03*
Y68825D02*
D03*
X124925Y83725D02*
D03*
Y83075D02*
D03*
X127375Y68925D02*
D03*
Y68275D02*
D03*
X116575Y73225D02*
D03*
X117225D02*
D03*
X117125Y79175D02*
D03*
Y78525D02*
D03*
X131475Y74825D02*
D03*
X130825D02*
D03*
X125325Y68975D02*
D03*
Y68325D02*
D03*
X116175Y71975D02*
D03*
X116825D02*
D03*
X127475Y83225D02*
D03*
X126825D02*
D03*
X132175Y77675D02*
D03*
X131525D02*
D03*
X132125Y78575D02*
D03*
X132775D02*
D03*
X131375Y76475D02*
D03*
X132025D02*
D03*
X115075Y81125D02*
D03*
X114425D02*
D03*
X115675Y81475D02*
D03*
X116325D02*
D03*
X115075Y81825D02*
D03*
X114425D02*
D03*
X115675Y82175D02*
D03*
X116325D02*
D03*
X115075Y79775D02*
D03*
X114425D02*
D03*
Y80375D02*
D03*
X115075D02*
D03*
Y82525D02*
D03*
X114425D02*
D03*
X123675Y85775D02*
D03*
X124325D02*
D03*
X117025Y76475D02*
D03*
Y75825D02*
D03*
X120725Y67725D02*
D03*
X121375Y68375D02*
D03*
Y69025D02*
D03*
X121425Y67725D02*
D03*
Y67075D02*
D03*
X131375Y82675D02*
D03*
X132025D02*
D03*
X135975Y83575D02*
D03*
Y82925D02*
D03*
X102425Y95075D02*
D03*
Y95725D02*
D03*
X129575Y92425D02*
D03*
X130225D02*
D03*
Y90025D02*
D03*
X129575D02*
D03*
X133725Y86725D02*
D03*
Y86075D02*
D03*
X132525D02*
D03*
Y86725D02*
D03*
X130275Y88625D02*
D03*
X129625D02*
D03*
X134975Y89825D02*
D03*
Y89175D02*
D03*
X135175Y88525D02*
D03*
Y87875D02*
D03*
X135625Y91375D02*
D03*
X134975D02*
D03*
X134675Y91975D02*
D03*
Y92625D02*
D03*
X131375D02*
D03*
Y91975D02*
D03*
X133125Y86725D02*
D03*
Y86075D02*
D03*
X134325Y86375D02*
D03*
Y87025D02*
D03*
X135625Y90725D02*
D03*
X134975D02*
D03*
X130225Y91825D02*
D03*
X129575D02*
D03*
Y91225D02*
D03*
X130225D02*
D03*
Y90625D02*
D03*
X129575D02*
D03*
X133475Y93525D02*
D03*
Y92875D02*
D03*
X131975Y92225D02*
D03*
Y92875D02*
D03*
X132875D02*
D03*
Y92225D02*
D03*
X135375Y93575D02*
D03*
X134725D02*
D03*
X130725Y93275D02*
D03*
X131375D02*
D03*
X129125Y97075D02*
D03*
Y96425D02*
D03*
X128525D02*
D03*
Y97075D02*
D03*
X130025D02*
D03*
Y96425D02*
D03*
X130625D02*
D03*
Y97075D02*
D03*
X133025Y97425D02*
D03*
Y96775D02*
D03*
X130125Y95025D02*
D03*
Y94375D02*
D03*
X134075Y92875D02*
D03*
Y93525D02*
D03*
X111975Y73125D02*
D03*
Y72475D02*
D03*
X114525Y95375D02*
D03*
X113875D02*
D03*
X112525Y94825D02*
D03*
Y95475D02*
D03*
X111925Y94325D02*
D03*
Y94975D02*
D03*
X117425Y94875D02*
D03*
X118075D02*
D03*
X117425Y95525D02*
D03*
X118075D02*
D03*
X110775Y95575D02*
D03*
X111425D02*
D03*
X108825Y68725D02*
D03*
Y69375D02*
D03*
X109975Y84175D02*
D03*
X107575Y86025D02*
D03*
X109925Y86475D02*
D03*
X111425Y85825D02*
D03*
X109325Y84175D02*
D03*
X108225Y86025D02*
D03*
X109275Y86475D02*
D03*
X107575Y83975D02*
D03*
X108225D02*
D03*
Y83325D02*
D03*
X110775Y85825D02*
D03*
X107575Y83325D02*
D03*
X110775Y86475D02*
D03*
X111425D02*
D03*
X95525Y65575D02*
D03*
Y64925D02*
D03*
X96125Y65575D02*
D03*
Y64925D02*
D03*
X96725Y65575D02*
D03*
Y64925D02*
D03*
X92475Y60175D02*
D03*
X91825D02*
D03*
X94275Y64375D02*
D03*
X92475Y59425D02*
D03*
X92825Y62525D02*
D03*
X92625Y55775D02*
D03*
X97375Y53025D02*
D03*
X101925Y53975D02*
D03*
X103575Y58825D02*
D03*
X103225Y62475D02*
D03*
X97725Y64675D02*
D03*
X98325Y65325D02*
D03*
X91825Y61025D02*
D03*
Y58025D02*
D03*
X97975Y52375D02*
D03*
X104475Y57425D02*
D03*
X104225Y59425D02*
D03*
Y60425D02*
D03*
X94925Y64375D02*
D03*
X91825Y59425D02*
D03*
X92175Y62525D02*
D03*
X91975Y55775D02*
D03*
X97375Y52375D02*
D03*
X102575Y53975D02*
D03*
X104225Y58825D02*
D03*
X103225Y63125D02*
D03*
X97725Y65325D02*
D03*
X98325Y64675D02*
D03*
X92475Y61025D02*
D03*
Y58025D02*
D03*
X97975Y53025D02*
D03*
X103825Y57425D02*
D03*
X103575Y59425D02*
D03*
Y60425D02*
D03*
X88825Y57075D02*
D03*
X88775Y54675D02*
D03*
X89375D02*
D03*
X88825Y58875D02*
D03*
X104375Y55875D02*
D03*
X101475Y52025D02*
D03*
X100425Y50775D02*
D03*
X99375Y52025D02*
D03*
X95975D02*
D03*
X94925Y50775D02*
D03*
X93875Y52025D02*
D03*
X89975Y54675D02*
D03*
X101825Y50775D02*
D03*
X100775Y52025D02*
D03*
X99725Y50775D02*
D03*
X99025D02*
D03*
X97025D02*
D03*
X96325D02*
D03*
X95275Y52025D02*
D03*
X94225Y50775D02*
D03*
X90575Y54675D02*
D03*
X89475Y58275D02*
D03*
X104075Y55275D02*
D03*
X101125Y50775D02*
D03*
X100075Y52025D02*
D03*
X96675D02*
D03*
X94575D02*
D03*
X91175Y54675D02*
D03*
X89475Y57675D02*
D03*
Y58875D02*
D03*
X88825Y58275D02*
D03*
Y57675D02*
D03*
X89475Y57075D02*
D03*
X89975Y55325D02*
D03*
X90575D02*
D03*
X91175D02*
D03*
X93875Y52675D02*
D03*
X94225Y51425D02*
D03*
X94575Y52675D02*
D03*
X94925Y51425D02*
D03*
X95275Y52675D02*
D03*
X95975D02*
D03*
X96325Y51425D02*
D03*
X96675Y52675D02*
D03*
X97025Y51425D02*
D03*
X99025D02*
D03*
X99375Y52675D02*
D03*
X99725Y51425D02*
D03*
X100075Y52675D02*
D03*
X100425Y51425D02*
D03*
X100775Y52675D02*
D03*
X101125Y51425D02*
D03*
X101475Y52675D02*
D03*
X101825Y51425D02*
D03*
X103425Y55275D02*
D03*
X103725Y55875D02*
D03*
X95625Y50775D02*
D03*
Y51425D02*
D03*
X98325D02*
D03*
Y50775D02*
D03*
X98675Y52675D02*
D03*
Y52025D02*
D03*
X107575Y65425D02*
D03*
X108225D02*
D03*
X107575Y64825D02*
D03*
X108225D02*
D03*
X107575Y64225D02*
D03*
X108225D02*
D03*
X89175Y60525D02*
D03*
X88525D02*
D03*
D127*
X93675Y58835D02*
D03*
Y58638D02*
D03*
X134316Y90584D02*
D03*
Y90388D02*
D03*
Y90191D02*
D03*
Y89994D02*
D03*
Y89797D02*
D03*
Y89600D02*
D03*
Y89403D02*
D03*
Y89206D02*
D03*
Y89010D02*
D03*
Y88813D02*
D03*
Y88616D02*
D03*
Y88419D02*
D03*
X130969D02*
D03*
Y88616D02*
D03*
Y88813D02*
D03*
Y89010D02*
D03*
Y89206D02*
D03*
Y89403D02*
D03*
Y89600D02*
D03*
Y89797D02*
D03*
Y89994D02*
D03*
Y90191D02*
D03*
Y90388D02*
D03*
Y90584D02*
D03*
X93675Y57063D02*
D03*
Y57260D02*
D03*
Y57457D02*
D03*
Y57654D02*
D03*
Y58244D02*
D03*
Y58441D02*
D03*
Y59032D02*
D03*
X102336Y60803D02*
D03*
Y60213D02*
D03*
Y61197D02*
D03*
Y57851D02*
D03*
Y61000D02*
D03*
Y61394D02*
D03*
Y60016D02*
D03*
Y58047D02*
D03*
Y55882D02*
D03*
Y56079D02*
D03*
Y56276D02*
D03*
Y56473D02*
D03*
Y56670D02*
D03*
Y56866D02*
D03*
Y57063D02*
D03*
Y57654D02*
D03*
Y58244D02*
D03*
Y59229D02*
D03*
Y59622D02*
D03*
Y59819D02*
D03*
Y58441D02*
D03*
Y61591D02*
D03*
Y62181D02*
D03*
X93675Y59819D02*
D03*
Y59229D02*
D03*
X102336Y58638D02*
D03*
X93675Y62181D02*
D03*
Y61984D02*
D03*
Y61788D02*
D03*
Y61591D02*
D03*
Y61394D02*
D03*
Y61197D02*
D03*
Y61000D02*
D03*
Y60803D02*
D03*
Y60606D02*
D03*
Y60410D02*
D03*
Y60213D02*
D03*
Y60016D02*
D03*
Y59622D02*
D03*
Y58047D02*
D03*
Y57851D02*
D03*
Y56866D02*
D03*
Y56670D02*
D03*
Y56276D02*
D03*
Y55882D02*
D03*
Y55685D02*
D03*
X102336D02*
D03*
Y57260D02*
D03*
Y57457D02*
D03*
Y58835D02*
D03*
Y59032D02*
D03*
Y59425D02*
D03*
Y60410D02*
D03*
Y60606D02*
D03*
Y61788D02*
D03*
Y61984D02*
D03*
Y62378D02*
D03*
Y62575D02*
D03*
X93675Y56473D02*
D03*
Y56079D02*
D03*
Y62378D02*
D03*
D128*
X94375Y110425D02*
D03*
Y109425D02*
D03*
X96375Y110425D02*
D03*
Y109425D02*
D03*
X95375Y110425D02*
D03*
Y109425D02*
D03*
X97325D02*
D03*
Y110425D02*
D03*
D129*
X101515Y75012D02*
D03*
X101830D02*
D03*
X102145D02*
D03*
X102460Y81075D02*
D03*
X102145D02*
D03*
X102775Y75012D02*
D03*
X102460D02*
D03*
X101200D02*
D03*
X100885D02*
D03*
X100570D02*
D03*
X100255D02*
D03*
X99940D02*
D03*
X99625D02*
D03*
X99310D02*
D03*
X98995D02*
D03*
X98681D02*
D03*
X98366D02*
D03*
X98051D02*
D03*
Y81075D02*
D03*
X98366D02*
D03*
X98681D02*
D03*
X98995D02*
D03*
X99310D02*
D03*
X99625D02*
D03*
X99940D02*
D03*
X100255D02*
D03*
X100570D02*
D03*
X100885D02*
D03*
X101200D02*
D03*
X101515D02*
D03*
X101830D02*
D03*
D130*
X103444Y80406D02*
D03*
Y80091D02*
D03*
Y79776D02*
D03*
Y79461D02*
D03*
Y79146D02*
D03*
Y78831D02*
D03*
Y78516D02*
D03*
Y78201D02*
D03*
Y77886D02*
D03*
Y77571D02*
D03*
Y77256D02*
D03*
Y76941D02*
D03*
Y76626D02*
D03*
Y76311D02*
D03*
Y75996D02*
D03*
Y75681D02*
D03*
X97381D02*
D03*
Y75996D02*
D03*
Y76311D02*
D03*
Y76626D02*
D03*
Y76941D02*
D03*
Y77256D02*
D03*
Y77571D02*
D03*
Y77886D02*
D03*
Y78201D02*
D03*
Y78516D02*
D03*
Y78831D02*
D03*
Y79146D02*
D03*
Y79461D02*
D03*
Y79776D02*
D03*
Y80091D02*
D03*
Y80406D02*
D03*
D131*
X102775Y81075D02*
D03*
D132*
X95725Y78825D02*
D03*
Y79925D02*
D03*
X105225Y76875D02*
D03*
Y75775D02*
D03*
X131325Y94075D02*
D03*
Y94975D02*
D03*
X133725Y97775D02*
D03*
Y96875D02*
D03*
X120875Y65975D02*
D03*
Y64875D02*
D03*
X128925Y67625D02*
D03*
Y66525D02*
D03*
X136625Y65325D02*
D03*
Y66425D02*
D03*
X133525Y71475D02*
D03*
Y72575D02*
D03*
X92675Y110425D02*
D03*
Y109325D02*
D03*
X114025Y89073D02*
D03*
Y88173D02*
D03*
X136675Y82925D02*
D03*
Y83825D02*
D03*
D133*
X106275Y81375D02*
D03*
X105175D02*
D03*
X129125Y95725D02*
D03*
X130025D02*
D03*
X119127Y90075D02*
D03*
X118227D02*
D03*
X106325Y70175D02*
D03*
X105225D02*
D03*
X132915Y81225D02*
D03*
X131815D02*
D03*
X128775Y55025D02*
D03*
X129875D02*
D03*
X123825Y86475D02*
D03*
X122925D02*
D03*
X108611Y61889D02*
D03*
X107511D02*
D03*
X115075Y87173D02*
D03*
X116175D02*
D03*
X117725Y87973D02*
D03*
X116825D02*
D03*
X115975D02*
D03*
X115075D02*
D03*
X103625Y73475D02*
D03*
X104725D02*
D03*
X88425Y63675D02*
D03*
X89325D02*
D03*
X88675Y68675D02*
D03*
X89575D02*
D03*
X118225Y89213D02*
D03*
X119125D02*
D03*
X115925Y77225D02*
D03*
X117025D02*
D03*
X108325Y50725D02*
D03*
X107225D02*
D03*
X110475Y81775D02*
D03*
X109575D02*
D03*
D134*
X38475Y79825D02*
D03*
X40875D02*
D03*
D135*
X43275Y62725D02*
D03*
X40558D02*
D03*
D136*
X41075Y58375D02*
D03*
X42925D02*
D03*
X41075Y49525D02*
D03*
X42925D02*
D03*
Y60025D02*
D03*
X41075D02*
D03*
X35045Y78175D02*
D03*
X36895D02*
D03*
D137*
X38825Y60025D02*
D03*
Y61875D02*
D03*
X127525Y101875D02*
D03*
Y103725D02*
D03*
X121475Y101375D02*
D03*
Y99525D02*
D03*
X106425Y101425D02*
D03*
Y99575D02*
D03*
X99475Y101425D02*
D03*
Y99575D02*
D03*
X46225Y55825D02*
D03*
X37725D02*
D03*
Y57675D02*
D03*
X46225D02*
D03*
D138*
X109165Y59942D02*
D03*
X105622Y52225D02*
D03*
X105819D02*
D03*
X106016D02*
D03*
X106212D02*
D03*
X106409D02*
D03*
X106606D02*
D03*
X106803D02*
D03*
X107000D02*
D03*
X107197D02*
D03*
X107394D02*
D03*
X107590D02*
D03*
X107787D02*
D03*
X107984D02*
D03*
X108181D02*
D03*
X108378D02*
D03*
X108575D02*
D03*
X108771D02*
D03*
X108968D02*
D03*
X109165D02*
D03*
X109362D02*
D03*
X109559D02*
D03*
X109756D02*
D03*
X109953D02*
D03*
X105425Y59942D02*
D03*
X105622D02*
D03*
X105819D02*
D03*
X106016D02*
D03*
X106212D02*
D03*
X106409D02*
D03*
X106606D02*
D03*
X106803D02*
D03*
X107000D02*
D03*
X107197D02*
D03*
X107394D02*
D03*
X107590D02*
D03*
X107787D02*
D03*
X107984D02*
D03*
X108181D02*
D03*
X108378D02*
D03*
X108575D02*
D03*
X108771D02*
D03*
X108968D02*
D03*
X109362D02*
D03*
X109559D02*
D03*
X109756D02*
D03*
X109953D02*
D03*
X113097Y58158D02*
D03*
X113294D02*
D03*
X113491D02*
D03*
X113688D02*
D03*
X114082D02*
D03*
X114279D02*
D03*
X114475D02*
D03*
X114672D02*
D03*
X114869D02*
D03*
X115066D02*
D03*
X115263D02*
D03*
X115460D02*
D03*
X115656D02*
D03*
X115853D02*
D03*
X116050D02*
D03*
X116247D02*
D03*
X116444D02*
D03*
X116641D02*
D03*
X116838D02*
D03*
X117034D02*
D03*
X117231D02*
D03*
X117428D02*
D03*
X117625D02*
D03*
X113097Y65875D02*
D03*
X113294D02*
D03*
X113491D02*
D03*
X113688D02*
D03*
X113885D02*
D03*
X114082D02*
D03*
X114279D02*
D03*
X114475D02*
D03*
X114672D02*
D03*
X114869D02*
D03*
X115066D02*
D03*
X115263D02*
D03*
X115460D02*
D03*
X115656D02*
D03*
X115853D02*
D03*
X116050D02*
D03*
X116247D02*
D03*
X116444D02*
D03*
X116641D02*
D03*
X116838D02*
D03*
X117034D02*
D03*
X117231D02*
D03*
X117428D02*
D03*
X113885Y58158D02*
D03*
D139*
X105425Y52225D02*
D03*
X117625Y65875D02*
D03*
D140*
X119259Y82388D02*
D03*
X119456D02*
D03*
X120046D02*
D03*
X120637D02*
D03*
X120243D02*
D03*
X120440D02*
D03*
X129101D02*
D03*
X128905D02*
D03*
X128708D02*
D03*
X128511D02*
D03*
X128314D02*
D03*
X128117D02*
D03*
X127920D02*
D03*
X127723D02*
D03*
X127527D02*
D03*
X127330D02*
D03*
X127133D02*
D03*
X126936D02*
D03*
X126739D02*
D03*
X126542D02*
D03*
X126345D02*
D03*
X126149D02*
D03*
X125952D02*
D03*
X125755D02*
D03*
X125558D02*
D03*
X125361D02*
D03*
X125164D02*
D03*
X124968D02*
D03*
X124771D02*
D03*
X124574D02*
D03*
X124377D02*
D03*
X124180D02*
D03*
X123983D02*
D03*
X123786D02*
D03*
X123590D02*
D03*
X123393D02*
D03*
X123196D02*
D03*
X122999D02*
D03*
X122802D02*
D03*
X122605D02*
D03*
X122408D02*
D03*
X122212D02*
D03*
X122015D02*
D03*
X121818D02*
D03*
X121621D02*
D03*
X121424D02*
D03*
X121227D02*
D03*
X121031D02*
D03*
X120834D02*
D03*
X119849D02*
D03*
X119653D02*
D03*
X119062D02*
D03*
Y70301D02*
D03*
X119259D02*
D03*
X119456D02*
D03*
X119653D02*
D03*
X119849D02*
D03*
X120046D02*
D03*
X120243D02*
D03*
X120440D02*
D03*
X120637D02*
D03*
X120834D02*
D03*
X121031D02*
D03*
X121227D02*
D03*
X121424D02*
D03*
X121621D02*
D03*
X121818D02*
D03*
X122015D02*
D03*
X122212D02*
D03*
X122408D02*
D03*
X122605D02*
D03*
X122802D02*
D03*
X122999D02*
D03*
X123196D02*
D03*
X123393D02*
D03*
X123590D02*
D03*
X123786D02*
D03*
X123983D02*
D03*
X124180D02*
D03*
X124377D02*
D03*
X124574D02*
D03*
X124771D02*
D03*
X124968D02*
D03*
X125164D02*
D03*
X125361D02*
D03*
X125558D02*
D03*
X125755D02*
D03*
X125952D02*
D03*
X126149D02*
D03*
X126345D02*
D03*
X126542D02*
D03*
X126739D02*
D03*
X126936D02*
D03*
X127133D02*
D03*
X127330D02*
D03*
X127527D02*
D03*
X127723D02*
D03*
X127920D02*
D03*
X128117D02*
D03*
X128314D02*
D03*
X128511D02*
D03*
X128708D02*
D03*
X128905D02*
D03*
X129101D02*
D03*
D141*
X107478Y68645D02*
D03*
X107222D02*
D03*
X106966D02*
D03*
X106710D02*
D03*
X106455D02*
D03*
X106199D02*
D03*
X105943D02*
D03*
X105687D02*
D03*
X105431D02*
D03*
X105175D02*
D03*
X107478Y66125D02*
D03*
X107222D02*
D03*
X106966D02*
D03*
X106710D02*
D03*
X106455D02*
D03*
X106199D02*
D03*
X105943D02*
D03*
X105687D02*
D03*
X105431D02*
D03*
D142*
X105175D02*
D03*
D143*
X124966Y87275D02*
D03*
X125222D02*
D03*
X124710D02*
D03*
X90816Y69525D02*
D03*
X91072D02*
D03*
X90560D02*
D03*
X89281D02*
D03*
X89537D02*
D03*
X89793D02*
D03*
X90049D02*
D03*
X90305D02*
D03*
X91328D02*
D03*
X89025Y72104D02*
D03*
X89281D02*
D03*
X89537D02*
D03*
X89793D02*
D03*
X90049D02*
D03*
X90305D02*
D03*
X90560D02*
D03*
X90816D02*
D03*
X91072D02*
D03*
X91328D02*
D03*
X125478Y89854D02*
D03*
X125222D02*
D03*
X124966D02*
D03*
X124710D02*
D03*
X124455D02*
D03*
X124199D02*
D03*
X123943D02*
D03*
X123687D02*
D03*
X123431D02*
D03*
X123175D02*
D03*
X125478Y87275D02*
D03*
X124455D02*
D03*
X124199D02*
D03*
X123943D02*
D03*
X123687D02*
D03*
X123431D02*
D03*
D144*
X127475Y86125D02*
D03*
Y88330D02*
D03*
X121075Y86225D02*
D03*
Y88430D02*
D03*
X86825Y70230D02*
D03*
Y68025D02*
D03*
D145*
X91075Y67575D02*
D03*
X93280D02*
D03*
D146*
X44667Y79825D02*
D03*
X42383D02*
D03*
D147*
X130125Y71325D02*
D03*
D148*
Y71522D02*
D03*
Y71719D02*
D03*
Y71916D02*
D03*
Y72112D02*
D03*
Y72309D02*
D03*
Y72506D02*
D03*
Y72703D02*
D03*
Y72900D02*
D03*
Y73097D02*
D03*
Y73293D02*
D03*
Y73490D02*
D03*
Y73687D02*
D03*
Y73884D02*
D03*
Y74081D02*
D03*
Y74475D02*
D03*
Y74671D02*
D03*
Y74868D02*
D03*
Y75065D02*
D03*
Y75262D02*
D03*
Y75459D02*
D03*
Y75656D02*
D03*
Y75853D02*
D03*
Y76049D02*
D03*
Y76246D02*
D03*
Y76443D02*
D03*
Y76837D02*
D03*
Y77034D02*
D03*
Y77231D02*
D03*
Y77427D02*
D03*
Y77624D02*
D03*
Y77821D02*
D03*
Y78018D02*
D03*
Y78215D02*
D03*
Y78412D02*
D03*
Y78608D02*
D03*
Y78805D02*
D03*
Y79002D02*
D03*
Y79199D02*
D03*
Y79396D02*
D03*
Y79593D02*
D03*
Y79790D02*
D03*
Y79986D02*
D03*
Y80183D02*
D03*
Y80380D02*
D03*
Y80577D02*
D03*
Y80774D02*
D03*
Y80971D02*
D03*
Y81167D02*
D03*
Y81364D02*
D03*
X118038D02*
D03*
Y81167D02*
D03*
Y80971D02*
D03*
Y80774D02*
D03*
Y80577D02*
D03*
Y80380D02*
D03*
Y80183D02*
D03*
Y79986D02*
D03*
Y79790D02*
D03*
Y79593D02*
D03*
Y79396D02*
D03*
Y79199D02*
D03*
Y79002D02*
D03*
Y78805D02*
D03*
Y78608D02*
D03*
Y78412D02*
D03*
Y78215D02*
D03*
Y77821D02*
D03*
Y77624D02*
D03*
Y77427D02*
D03*
Y77231D02*
D03*
Y77034D02*
D03*
Y76837D02*
D03*
Y76640D02*
D03*
Y76443D02*
D03*
Y76246D02*
D03*
Y76049D02*
D03*
Y75853D02*
D03*
Y75656D02*
D03*
Y75459D02*
D03*
Y75262D02*
D03*
Y75065D02*
D03*
Y74868D02*
D03*
Y74671D02*
D03*
Y74475D02*
D03*
Y74278D02*
D03*
Y74081D02*
D03*
Y73884D02*
D03*
Y73687D02*
D03*
Y73490D02*
D03*
Y73293D02*
D03*
Y73097D02*
D03*
Y72900D02*
D03*
Y72703D02*
D03*
Y72506D02*
D03*
Y72309D02*
D03*
Y72112D02*
D03*
Y71916D02*
D03*
Y71719D02*
D03*
Y71522D02*
D03*
Y71325D02*
D03*
X130125Y74278D02*
D03*
X118038Y78018D02*
D03*
D149*
X130125Y76640D02*
D03*
D150*
X89375Y62775D02*
D03*
Y61425D02*
D03*
X136675Y84775D02*
D03*
Y86125D02*
D03*
X131425Y95925D02*
D03*
Y97275D02*
D03*
X127725Y96125D02*
D03*
Y97475D02*
D03*
X116325Y78975D02*
D03*
X114975D02*
D03*
X132925Y73975D02*
D03*
X131575D02*
D03*
X113375Y94575D02*
D03*
X114725D02*
D03*
X45925Y77925D02*
D03*
X44575D02*
D03*
X104975Y63975D02*
D03*
X103625D02*
D03*
X91925Y53775D02*
D03*
X92975Y52425D02*
D03*
X103975Y52975D02*
D03*
X91925Y52425D02*
D03*
X92975Y53775D02*
D03*
X103975Y54325D02*
D03*
D151*
X90177Y70814D02*
D03*
X124327Y88564D02*
D03*
D152*
X89025Y69525D02*
D03*
X123175Y87275D02*
D03*
D153*
X126525Y84475D02*
D03*
X127273D02*
D03*
D154*
X117075Y90414D02*
D03*
Y88623D02*
D03*
Y88878D02*
D03*
Y89134D02*
D03*
Y89390D02*
D03*
Y89646D02*
D03*
Y89902D02*
D03*
Y90158D02*
D03*
X114736Y88623D02*
D03*
Y88878D02*
D03*
Y89134D02*
D03*
Y89390D02*
D03*
Y89646D02*
D03*
Y89902D02*
D03*
Y90158D02*
D03*
Y90414D02*
D03*
D155*
X133025Y82921D02*
D03*
X135025D02*
D03*
X133025Y84575D02*
D03*
X135025D02*
D03*
X85875Y62775D02*
D03*
Y60775D02*
D03*
X87529Y62775D02*
D03*
Y60775D02*
D03*
D156*
X135225Y79225D02*
D03*
X133965D02*
D03*
Y81390D02*
D03*
X135225D02*
D03*
D157*
X135175Y76096D02*
D03*
Y78025D02*
D03*
D158*
X130925Y62131D02*
D03*
Y58036D02*
D03*
Y65595D02*
D03*
Y63705D02*
D03*
X135358Y64650D02*
D03*
Y62760D02*
D03*
Y62131D02*
D03*
Y66225D02*
D03*
X130925Y64650D02*
D03*
Y62760D02*
D03*
X135358Y65595D02*
D03*
Y63705D02*
D03*
Y58036D02*
D03*
X130925Y59926D02*
D03*
Y60241D02*
D03*
X135358Y60556D02*
D03*
Y60241D02*
D03*
Y59926D02*
D03*
Y59611D02*
D03*
Y59296D02*
D03*
Y58981D02*
D03*
Y58666D02*
D03*
Y58351D02*
D03*
X130925D02*
D03*
Y58666D02*
D03*
Y58981D02*
D03*
X135358Y65910D02*
D03*
Y65280D02*
D03*
Y64965D02*
D03*
Y64335D02*
D03*
Y64020D02*
D03*
Y63390D02*
D03*
Y63075D02*
D03*
Y62445D02*
D03*
X130925D02*
D03*
Y63075D02*
D03*
Y63390D02*
D03*
Y64020D02*
D03*
Y64335D02*
D03*
Y64965D02*
D03*
Y65280D02*
D03*
Y65910D02*
D03*
X135358Y61501D02*
D03*
Y60871D02*
D03*
X130925D02*
D03*
Y61186D02*
D03*
Y60556D02*
D03*
Y61501D02*
D03*
Y59611D02*
D03*
Y59296D02*
D03*
Y61816D02*
D03*
X135358D02*
D03*
Y61186D02*
D03*
X122925Y59581D02*
D03*
Y55486D02*
D03*
Y63045D02*
D03*
Y61155D02*
D03*
X127358Y62100D02*
D03*
Y60210D02*
D03*
Y59581D02*
D03*
Y63675D02*
D03*
X122925Y62100D02*
D03*
Y60210D02*
D03*
X127358Y63045D02*
D03*
Y61155D02*
D03*
Y55486D02*
D03*
X122925Y57376D02*
D03*
Y57691D02*
D03*
X127358Y58006D02*
D03*
Y57691D02*
D03*
Y57376D02*
D03*
Y57061D02*
D03*
Y56746D02*
D03*
Y56431D02*
D03*
Y56116D02*
D03*
Y55801D02*
D03*
X122925D02*
D03*
Y56116D02*
D03*
Y56431D02*
D03*
X127358Y63360D02*
D03*
Y62730D02*
D03*
Y62415D02*
D03*
Y61785D02*
D03*
Y61470D02*
D03*
Y60840D02*
D03*
Y60525D02*
D03*
Y59895D02*
D03*
Y58321D02*
D03*
X122925D02*
D03*
Y58636D02*
D03*
Y58006D02*
D03*
Y58951D02*
D03*
X127358D02*
D03*
X122925Y57061D02*
D03*
Y56746D02*
D03*
Y59266D02*
D03*
Y59895D02*
D03*
Y60525D02*
D03*
Y60840D02*
D03*
Y61470D02*
D03*
Y61785D02*
D03*
Y62415D02*
D03*
Y62730D02*
D03*
Y63360D02*
D03*
X127358Y59266D02*
D03*
Y58636D02*
D03*
D159*
X130925Y66225D02*
D03*
X122925Y63675D02*
D03*
D160*
X133725Y87829D02*
D03*
X133528D02*
D03*
X133331D02*
D03*
X133134D02*
D03*
X132938D02*
D03*
X132741D02*
D03*
X132544D02*
D03*
X132347D02*
D03*
X132150D02*
D03*
X131953D02*
D03*
X131756D02*
D03*
X131560D02*
D03*
Y91175D02*
D03*
X131756D02*
D03*
X131953D02*
D03*
X132150D02*
D03*
X132347D02*
D03*
X132544D02*
D03*
X132741D02*
D03*
X132938D02*
D03*
X133134D02*
D03*
X133331D02*
D03*
X133528D02*
D03*
X100466Y54799D02*
D03*
X100269D02*
D03*
X100073D02*
D03*
X99876D02*
D03*
X99679D02*
D03*
X99482D02*
D03*
X99088D02*
D03*
X98892D02*
D03*
X98695D02*
D03*
X98498D02*
D03*
X98301D02*
D03*
X97907D02*
D03*
X97317D02*
D03*
X97120D02*
D03*
X96923D02*
D03*
X96726D02*
D03*
X96529D02*
D03*
X96332D02*
D03*
X95939D02*
D03*
X95742D02*
D03*
X95545D02*
D03*
X95348D02*
D03*
X95151D02*
D03*
X100466Y63461D02*
D03*
X100663D02*
D03*
X100860D02*
D03*
X98695D02*
D03*
X98892D02*
D03*
X99088D02*
D03*
X99285D02*
D03*
X99679D02*
D03*
X99876D02*
D03*
X100073D02*
D03*
X100269D02*
D03*
X101057D02*
D03*
X101451D02*
D03*
X94758Y54799D02*
D03*
X96136D02*
D03*
X97514D02*
D03*
X97710D02*
D03*
X98104D02*
D03*
X99285D02*
D03*
X101057D02*
D03*
X101254D02*
D03*
Y63461D02*
D03*
X99482D02*
D03*
X98498D02*
D03*
X98301D02*
D03*
X98104D02*
D03*
X97907D02*
D03*
X97710D02*
D03*
X97514D02*
D03*
X97317D02*
D03*
X97120D02*
D03*
X96923D02*
D03*
X96332D02*
D03*
X95939D02*
D03*
X95742D02*
D03*
X94758D02*
D03*
X94561D02*
D03*
X94955Y54799D02*
D03*
X94561D02*
D03*
X100860D02*
D03*
X100663D02*
D03*
X101451D02*
D03*
X94955Y63461D02*
D03*
X95151D02*
D03*
X95348D02*
D03*
X95545D02*
D03*
X96136D02*
D03*
X96529D02*
D03*
X96726D02*
D03*
D161*
X133725Y91175D02*
D03*
D162*
X35925Y106175D02*
D03*
X158225Y106275D02*
D03*
X116725Y48225D02*
D03*
D163*
X112532Y96809D02*
D03*
X111548D02*
D03*
X110564D02*
D03*
X118094D02*
D03*
X113517D02*
D03*
X114501D02*
D03*
X115485D02*
D03*
X116469D02*
D03*
X117424D02*
D03*
D164*
X119649Y99466D02*
D03*
X108231D02*
D03*
X119649Y106809D02*
D03*
X108231D02*
D03*
D165*
X119491Y104821D02*
D03*
Y101297D02*
D03*
Y105844D02*
D03*
D166*
X109325Y82525D02*
D03*
X109275Y84825D02*
D03*
X110023D02*
D03*
X110073Y82525D02*
D03*
X109275Y85849D02*
D03*
X109325Y83549D02*
D03*
X109649Y84825D02*
D03*
X110073Y83549D02*
D03*
X110023Y85849D02*
D03*
X109699Y82525D02*
D03*
D167*
X107359Y84999D02*
D03*
X108225Y85373D02*
D03*
Y84625D02*
D03*
D168*
Y82523D02*
D03*
Y81775D02*
D03*
D169*
X42575Y65375D02*
D03*
X41225D02*
D03*
D170*
X102125Y64967D02*
D03*
Y65646D02*
D03*
Y66325D02*
D03*
X101425D02*
D03*
Y65646D02*
D03*
Y64967D02*
D03*
X102825D02*
D03*
Y65646D02*
D03*
Y66325D02*
D03*
D171*
X93675Y62575D02*
D03*
D172*
Y59425D02*
D03*
D173*
X104625Y72475D02*
D03*
X105625D02*
D03*
X106625D02*
D03*
X107625D02*
D03*
X108625D02*
D03*
X101425Y83275D02*
D03*
X102425D02*
D03*
X103425D02*
D03*
X102425Y82275D02*
D03*
X103425D02*
D03*
X101425D02*
D03*
X110775Y88375D02*
D03*
X91825Y64575D02*
D03*
X110775Y87375D02*
D03*
X45925Y79075D02*
D03*
Y80075D02*
D03*
X46925Y79075D02*
D03*
Y80075D02*
D03*
D174*
X103625Y72475D02*
D03*
X90825Y64575D02*
D03*
D175*
X101411Y109926D02*
D03*
X99639D02*
D03*
X105561D02*
D03*
X103789D02*
D03*
D176*
X99147Y108942D02*
D03*
X101903D02*
D03*
X106053D02*
D03*
X103297D02*
D03*
D177*
X121875Y111875D02*
D03*
X127775D02*
D03*
X136025Y108425D02*
D03*
X129825D02*
D03*
D178*
X122575Y110675D02*
D03*
X127075D02*
D03*
X130675Y109625D02*
D03*
X135175D02*
D03*
X109806Y97675D02*
D03*
X118625D02*
D03*
X97375Y111425D02*
D03*
X94375D02*
D03*
D179*
X126575Y108175D02*
D03*
X125575D02*
D03*
X124575D02*
D03*
X123575D02*
D03*
X126075Y107175D02*
D03*
X125075D02*
D03*
X124075D02*
D03*
X123075D02*
D03*
D180*
X134675Y107125D02*
D03*
X134175Y106125D02*
D03*
X133675Y107125D02*
D03*
X133175Y106125D02*
D03*
X132675Y107125D02*
D03*
X132175Y106125D02*
D03*
X131675Y107125D02*
D03*
X131175Y106125D02*
D03*
X130435Y110955D02*
D03*
X131435Y111555D02*
D03*
X134415Y110955D02*
D03*
X135415Y111555D02*
D03*
X91375Y46125D02*
D03*
X93375D02*
D03*
X91375Y47125D02*
D03*
X93375D02*
D03*
X95375Y46125D02*
D03*
X97375D02*
D03*
X95375Y47125D02*
D03*
X97375D02*
D03*
X99375D02*
D03*
X101375D02*
D03*
X103375D02*
D03*
X99375Y46125D02*
D03*
X101375D02*
D03*
X103375D02*
D03*
X105375D02*
D03*
X107375D02*
D03*
X105375Y47125D02*
D03*
X107375D02*
D03*
X109375D02*
D03*
X111375D02*
D03*
X109375Y46125D02*
D03*
X111375D02*
D03*
X113375Y47125D02*
D03*
Y46125D02*
D03*
X87375Y47125D02*
D03*
X89375D02*
D03*
Y46125D02*
D03*
X87375D02*
D03*
X85375Y47125D02*
D03*
Y46125D02*
D03*
X83375Y47125D02*
D03*
Y46125D02*
D03*
Y45125D02*
D03*
X85375D02*
D03*
X87375D02*
D03*
X89375D02*
D03*
X91375D02*
D03*
X93375D02*
D03*
X95375D02*
D03*
X97375D02*
D03*
X99375D02*
D03*
X101375D02*
D03*
X103375D02*
D03*
X105375D02*
D03*
X107375D02*
D03*
X109375D02*
D03*
X111375D02*
D03*
X113375D02*
D03*
D181*
X33375Y44125D02*
D03*
X68375D02*
D03*
X164375D02*
D03*
X129375D02*
D03*
X81375D02*
D03*
X116375D02*
D03*
X33375Y110375D02*
D03*
X68375D02*
D03*
X164375D02*
D03*
X81375D02*
D03*
X87375Y48275D02*
D03*
X86725D02*
D03*
X108075D02*
D03*
X108725D02*
D03*
X109375D02*
D03*
X112075D02*
D03*
X105375D02*
D03*
X104725D02*
D03*
X104075D02*
D03*
X103375D02*
D03*
X102725D02*
D03*
X102075D02*
D03*
X100725D02*
D03*
X100075D02*
D03*
X99375D02*
D03*
X98725D02*
D03*
X97375D02*
D03*
X96725D02*
D03*
X96075D02*
D03*
X92075D02*
D03*
X92725D02*
D03*
X93375D02*
D03*
X94075D02*
D03*
X94725D02*
D03*
X95375D02*
D03*
X91375D02*
D03*
X90725D02*
D03*
X90075D02*
D03*
X86075D02*
D03*
X88075D02*
D03*
X88725D02*
D03*
X89375D02*
D03*
X41275Y81625D02*
D03*
X41075Y48375D02*
D03*
X127475Y83775D02*
D03*
X113175Y78525D02*
D03*
X165125Y65875D02*
D03*
Y67375D02*
D03*
Y68875D02*
D03*
Y70375D02*
D03*
Y71875D02*
D03*
Y73375D02*
D03*
Y74875D02*
D03*
Y76375D02*
D03*
Y77875D02*
D03*
Y79375D02*
D03*
Y80875D02*
D03*
Y82375D02*
D03*
Y83875D02*
D03*
Y85375D02*
D03*
Y86875D02*
D03*
Y88375D02*
D03*
Y89875D02*
D03*
Y91375D02*
D03*
Y92875D02*
D03*
Y94375D02*
D03*
Y95875D02*
D03*
Y97375D02*
D03*
Y98875D02*
D03*
X32625Y65875D02*
D03*
Y67375D02*
D03*
Y68875D02*
D03*
Y70375D02*
D03*
Y71875D02*
D03*
Y73375D02*
D03*
Y74875D02*
D03*
Y76375D02*
D03*
Y77875D02*
D03*
Y79375D02*
D03*
Y80875D02*
D03*
Y82375D02*
D03*
Y83875D02*
D03*
Y85375D02*
D03*
Y86875D02*
D03*
Y88375D02*
D03*
Y89875D02*
D03*
Y91375D02*
D03*
Y92875D02*
D03*
Y94375D02*
D03*
Y95875D02*
D03*
Y97375D02*
D03*
Y98875D02*
D03*
D182*
X43944Y56928D02*
D03*
X40006D02*
D03*
X43944Y51022D02*
D03*
X40006D02*
D03*
D183*
X41925Y75725D02*
D03*
X37925D02*
D03*
X45925D02*
D03*
X42925Y67725D02*
D03*
X40925D02*
D03*
X37925D02*
D03*
D184*
X96725Y66125D02*
D03*
X96125D02*
D03*
X95525D02*
D03*
X98625Y77025D02*
D03*
X98975Y77775D02*
D03*
X116925Y94875D02*
D03*
X115425Y95425D02*
D03*
M02*
