%FSLAX24Y24*%
%MOIN*%
G70*
G01*
G75*
%ADD10C,0.0100*%
%ADD11R,0.0380X0.0380*%
%ADD12O,0.0630X0.0110*%
%ADD13R,0.0500X0.0650*%
%ADD14O,0.0189X0.0787*%
%ADD15O,0.0787X0.0189*%
%ADD16R,0.0189X0.0787*%
%ADD17R,0.0500X0.0600*%
%ADD18R,0.0600X0.0500*%
%ADD19R,0.1200X0.0900*%
%ADD20R,0.1614X0.0827*%
%ADD21R,0.0600X0.1250*%
%ADD22R,0.1250X0.0600*%
%ADD23O,0.0110X0.0669*%
%ADD24R,0.0110X0.0669*%
%ADD25O,0.0110X0.0709*%
%ADD26O,0.0157X0.0701*%
%ADD27R,0.0157X0.0701*%
%ADD28O,0.0138X0.0846*%
%ADD29R,0.0709X0.1378*%
%ADD30R,0.1378X0.0709*%
%ADD31R,0.0709X0.1575*%
%ADD32R,0.0709X0.0110*%
%ADD33O,0.0709X0.0110*%
%ADD34O,0.0709X0.0110*%
%ADD35R,0.0600X0.0600*%
%ADD36R,0.1575X0.1181*%
%ADD37R,0.0138X0.0846*%
%ADD38R,0.0551X0.0492*%
%ADD39O,0.0701X0.0157*%
%ADD40R,0.0800X0.0800*%
%ADD41R,0.0787X0.0512*%
%ADD42R,0.0945X0.0906*%
%ADD43O,0.0787X0.0177*%
%ADD44R,0.0787X0.0177*%
%ADD45O,0.0110X0.0630*%
%ADD46R,0.0110X0.0630*%
%ADD47C,0.0400*%
%ADD48R,0.0433X0.0787*%
%ADD49R,0.0787X0.0787*%
%ADD50R,0.0787X0.0394*%
%ADD51R,0.0236X0.0433*%
%ADD52R,0.0472X0.0315*%
%ADD53R,0.0492X0.0551*%
%ADD54R,0.0600X0.1000*%
%ADD55R,0.0380X0.0425*%
%ADD56R,0.0630X0.0110*%
%ADD57O,0.0630X0.0110*%
%ADD58C,0.0120*%
%ADD59C,0.0110*%
%ADD60C,0.0400*%
%ADD61C,0.0500*%
%ADD62C,0.0150*%
%ADD63C,0.0200*%
%ADD64C,0.0080*%
%ADD65C,0.0600*%
%ADD66C,0.1000*%
%ADD67C,0.0320*%
%ADD68C,0.0300*%
%ADD69C,0.0290*%
%ADD70C,0.0380*%
%ADD71C,0.0390*%
%ADD72C,0.0180*%
%ADD73C,0.0130*%
%ADD74C,0.0250*%
%ADD75C,0.0280*%
%ADD76C,0.0170*%
%ADD77C,0.0140*%
%ADD78C,0.0220*%
%ADD79C,0.0090*%
%ADD80C,0.0157*%
%ADD81C,0.0310*%
%ADD82C,0.0270*%
%ADD83C,0.0350*%
%ADD84R,0.5050X0.4500*%
%ADD85R,0.5050X0.9550*%
%ADD86R,0.1350X0.1400*%
%ADD87R,0.0300X0.1229*%
%ADD88R,0.0670X0.0700*%
%ADD89C,0.0620*%
%ADD90P,0.0620X8X0*%
%ADD91C,0.0787*%
%ADD92C,0.0906*%
%ADD93C,0.1000*%
%ADD94C,0.0650*%
%ADD95C,0.0600*%
%ADD96C,0.0500*%
%ADD97C,0.0945*%
%ADD98C,0.1181*%
%ADD99C,0.0118*%
%ADD100C,0.0060*%
%ADD101C,0.0098*%
%ADD102C,0.0079*%
%ADD103C,0.0070*%
%ADD104C,0.0160*%
%ADD105R,0.0130X0.0360*%
%ADD106R,0.0430X0.3100*%
%ADD107R,0.1500X0.0500*%
%ADD108R,0.0300X0.0500*%
%ADD109R,0.1850X3.5600*%
%ADD110R,0.1300X0.1300*%
%ADD111R,0.4580X0.0560*%
%ADD112R,0.4570X0.0560*%
%ADD113R,0.0610X1.0100*%
%ADD114R,1.0110X0.0610*%
%ADD115R,0.0600X1.0150*%
%ADD116R,0.4016X0.1063*%
%ADD117R,0.1250X0.3400*%
%ADD118R,0.0520X0.2190*%
%ADD119R,0.0530X0.2180*%
%ADD120R,0.2230X0.0510*%
%ADD121R,0.2180X0.0540*%
%ADD122R,0.6930X0.0530*%
%ADD123R,0.0520X0.6930*%
%ADD124R,0.0520X0.6940*%
%ADD125R,0.1675X3.5550*%
%ADD126R,0.0460X0.0460*%
%ADD127O,0.0710X0.0190*%
%ADD128R,0.0580X0.0730*%
%ADD129O,0.0269X0.0867*%
%ADD130O,0.0867X0.0269*%
%ADD131R,0.0269X0.0867*%
%ADD132R,0.0580X0.0680*%
%ADD133R,0.0680X0.0580*%
%ADD134R,0.1280X0.0980*%
%ADD135R,0.1694X0.0907*%
%ADD136R,0.0680X0.1330*%
%ADD137R,0.1330X0.0680*%
%ADD138O,0.0190X0.0749*%
%ADD139R,0.0190X0.0749*%
%ADD140O,0.0190X0.0789*%
%ADD141O,0.0237X0.0781*%
%ADD142R,0.0237X0.0781*%
%ADD143O,0.0218X0.0926*%
%ADD144R,0.0789X0.1458*%
%ADD145R,0.1458X0.0789*%
%ADD146R,0.0789X0.1655*%
%ADD147R,0.0789X0.0190*%
%ADD148O,0.0789X0.0190*%
%ADD149O,0.0789X0.0190*%
%ADD150R,0.0680X0.0680*%
%ADD151R,0.1655X0.1261*%
%ADD152R,0.0218X0.0926*%
%ADD153R,0.0631X0.0572*%
%ADD154O,0.0781X0.0237*%
%ADD155R,0.0880X0.0880*%
%ADD156R,0.0867X0.0592*%
%ADD157R,0.1025X0.0986*%
%ADD158O,0.0867X0.0257*%
%ADD159R,0.0867X0.0257*%
%ADD160O,0.0190X0.0710*%
%ADD161R,0.0190X0.0710*%
%ADD162C,0.0800*%
%ADD163R,0.0513X0.0867*%
%ADD164R,0.0867X0.0867*%
%ADD165R,0.0867X0.0474*%
%ADD166R,0.0316X0.0513*%
%ADD167R,0.0552X0.0395*%
%ADD168R,0.0572X0.0631*%
%ADD169R,0.0680X0.1080*%
%ADD170R,0.0460X0.0505*%
%ADD171R,0.0710X0.0190*%
%ADD172O,0.0710X0.0190*%
%ADD173C,0.0700*%
%ADD174P,0.0700X8X0*%
%ADD175C,0.0867*%
%ADD176C,0.0986*%
%ADD177C,0.1080*%
%ADD178C,0.0080*%
%ADD179C,0.0730*%
%ADD180C,0.0680*%
%ADD181C,0.0580*%
%ADD182C,0.1025*%
%ADD183C,0.1261*%
%ADD184C,0.0480*%
%ADD185C,0.0030*%
%ADD186C,0.0045*%
%ADD187C,0.0075*%
%ADD188R,0.2000X2.1750*%
%ADD189R,0.2008X0.1063*%
%ADD190R,0.1024X0.1063*%
%ADD191R,0.0039X0.0108*%
%ADD192R,0.0129X0.0930*%
%ADD193R,0.0450X0.0150*%
%ADD194R,0.0090X0.0150*%
%ADD195R,0.2900X0.9250*%
%AMTHD196*
7,0,0,0.0950,0.0750,0.0120,45*
%
%ADD196THD196*%
%ADD197C,0.0750*%
%ADD198C,0.0794*%
%AMTHD199*
7,0,0,0.1112,0.0912,0.0120,45*
%
%ADD199THD199*%
%AMTHD200*
7,0,0,0.1240,0.1040,0.0120,45*
%
%ADD200THD200*%
%ADD201C,0.1760*%
%ADD202C,0.1680*%
%ADD203C,0.0912*%
%ADD204C,0.1500*%
%ADD205C,0.0770*%
%AMTHD206*
7,0,0,0.0970,0.0770,0.0120,45*
%
%ADD206THD206*%
%ADD207C,0.0991*%
%ADD208C,0.0872*%
%AMTHD209*
7,0,0,0.1072,0.0872,0.0120,45*
%
%ADD209THD209*%
D10*
X135325Y103675D02*
X136075Y102925D01*
X135355D02*
Y103645D01*
X135325Y103675D02*
Y107525D01*
X135275Y102925D02*
Y107575D01*
X135195Y102925D02*
Y107655D01*
X130745Y107795D02*
X135055D01*
X130665Y107715D02*
X135135D01*
X130775Y107825D02*
X135025D01*
X135325Y107525D01*
X135115Y102925D02*
Y107735D01*
X135915Y102925D02*
Y103085D01*
X135995Y102925D02*
Y103005D01*
X135835Y102925D02*
Y103165D01*
X135755Y102925D02*
Y103245D01*
X135675Y102925D02*
Y103325D01*
X135595Y102925D02*
Y103405D01*
X135515Y102925D02*
Y103485D01*
X135525Y102925D02*
X136075D01*
X135435D02*
Y103565D01*
X134955Y102925D02*
Y107825D01*
X134875Y102925D02*
Y107825D01*
X134795Y102925D02*
Y107825D01*
X134715Y102925D02*
Y107825D01*
X134635Y102925D02*
Y107825D01*
X134555Y102925D02*
Y107825D01*
X134475Y102925D02*
Y107825D01*
X134395Y102925D02*
Y107825D01*
X134315Y102925D02*
Y107825D01*
X134235Y102925D02*
Y107825D01*
X135035Y102925D02*
Y107815D01*
X134155Y102925D02*
Y107825D01*
X134075Y102925D02*
Y107825D01*
X133995Y102925D02*
Y107825D01*
X133915Y102925D02*
Y107825D01*
X133835Y102925D02*
Y107825D01*
X133755Y102925D02*
Y107825D01*
X133675Y102925D02*
Y107825D01*
X133595Y102925D02*
Y107825D01*
X133515Y102925D02*
Y107825D01*
X133435Y102925D02*
Y107825D01*
X133355Y102925D02*
Y107825D01*
X133275Y102925D02*
Y107825D01*
X133195Y102925D02*
Y107825D01*
X133115Y102925D02*
Y107825D01*
X133035Y102925D02*
Y107825D01*
X132955Y102925D02*
Y107825D01*
X132875Y102925D02*
Y107825D01*
X132795Y102925D02*
Y107825D01*
X132715Y102925D02*
Y107825D01*
X132635Y102925D02*
Y107825D01*
X132555Y102925D02*
Y107825D01*
X132475Y102925D02*
Y107825D01*
X132395Y102925D02*
Y107825D01*
X132315Y102925D02*
Y107825D01*
X132235Y102925D02*
Y107825D01*
X132155Y102925D02*
Y107825D01*
X132075Y102925D02*
Y107825D01*
X131995Y102925D02*
Y107825D01*
X131915Y102925D02*
Y107825D01*
X131835Y102925D02*
Y107825D01*
X131755Y102925D02*
Y107825D01*
X131675Y102925D02*
Y107825D01*
X131595Y102925D02*
Y107825D01*
X131515Y102925D02*
Y107825D01*
X131435Y102925D02*
Y107825D01*
X131355Y102925D02*
Y107825D01*
X131275Y102925D02*
Y107825D01*
X131195Y102925D02*
Y107825D01*
X131115Y102925D02*
Y107825D01*
X131035Y102925D02*
Y107825D01*
X130955Y102925D02*
Y107825D01*
X130875Y102925D02*
Y107825D01*
X130795Y102925D02*
Y107825D01*
X130715Y102925D02*
Y107765D01*
X130475Y107475D02*
X135325D01*
X130475Y107395D02*
X135325D01*
X130475Y107315D02*
X135325D01*
X130475Y107235D02*
X135325D01*
X130475Y107155D02*
X135325D01*
X130475Y107075D02*
X135325D01*
X130475Y106995D02*
X135325D01*
X130475Y106915D02*
X135325D01*
X130475Y106835D02*
X135325D01*
X130475Y106755D02*
X135325D01*
X130475Y106675D02*
X135325D01*
X130475Y106595D02*
X135325D01*
X130475Y106515D02*
X135325D01*
X130475Y106435D02*
X135325D01*
X130475Y106355D02*
X135325D01*
X130475Y106275D02*
X135325D01*
X130475Y106195D02*
X135325D01*
X130475Y106115D02*
X135325D01*
X130475Y106035D02*
X135325D01*
X130585Y107635D02*
X135215D01*
X130505Y107555D02*
X135295D01*
X130475Y107525D02*
X130775Y107825D01*
X130475Y105955D02*
X135325D01*
X130475Y105875D02*
X135325D01*
X130475Y105795D02*
X135325D01*
X130475Y105715D02*
X135325D01*
X130475Y105635D02*
X135325D01*
X130475Y105555D02*
X135325D01*
X130475Y105475D02*
X135325D01*
X130475Y105395D02*
X135325D01*
X130475Y105315D02*
X135325D01*
X130475Y105235D02*
X135325D01*
X130475Y105155D02*
X135325D01*
X130475Y105075D02*
X135325D01*
X130475Y104995D02*
X135325D01*
X130475Y104915D02*
X135325D01*
X130475Y104835D02*
X135325D01*
X130475Y104755D02*
X135325D01*
X130475Y104675D02*
X135325D01*
X130475Y104595D02*
X135325D01*
X130475Y104515D02*
X135325D01*
X130475Y104435D02*
X135325D01*
X130475Y104355D02*
X135325D01*
X130475Y104275D02*
X135325D01*
X130475Y104195D02*
X135325D01*
X130385Y103635D02*
X135365D01*
X130475Y104115D02*
X135325D01*
X130225Y103475D02*
X135525D01*
X130145Y103395D02*
X135605D01*
X130305Y103555D02*
X135445D01*
X129985Y103235D02*
X135765D01*
X130065Y103315D02*
X135685D01*
X129925Y103075D02*
X135925D01*
X129925Y103155D02*
X135845D01*
X129925Y102995D02*
X136005D01*
X129925Y102925D02*
X135525D01*
X130475Y103725D02*
Y107525D01*
Y104035D02*
X135325D01*
X130475Y103725D02*
Y107525D01*
X130635Y102925D02*
Y107685D01*
X130555Y102925D02*
Y107605D01*
X130475Y103955D02*
X135325D01*
X130475Y103875D02*
X135325D01*
X130475Y103795D02*
X135325D01*
X130465Y103715D02*
X135325D01*
X130475Y102925D02*
Y103725D01*
X130395Y102925D02*
Y103645D01*
X130315Y102925D02*
Y103565D01*
X130235Y102925D02*
Y103485D01*
X130155Y102925D02*
Y103405D01*
X129925Y103175D02*
X130475Y103725D01*
X130075Y102925D02*
Y103325D01*
X129995Y102925D02*
Y103245D01*
X129925Y102925D02*
Y103175D01*
X124133Y48562D02*
X123733D01*
X124133Y48962D01*
Y49062D01*
X124033Y49162D01*
X123833D01*
X123733Y49062D01*
X159345Y88205D02*
X159945D01*
X159745Y88005D01*
X159945Y87805D01*
X159345D01*
X159945Y87605D02*
X159345D01*
Y87305D01*
X159445Y87205D01*
X159545D01*
X159645Y87305D01*
Y87605D01*
Y87305D01*
X159745Y87205D01*
X159845D01*
X159945Y87305D01*
Y87605D01*
Y87005D02*
X159345D01*
X159545D01*
X159945Y86606D01*
X159645Y86905D01*
X159345Y86606D01*
X31275Y44075D02*
X31280Y43977D01*
X31294Y43880D01*
X31318Y43785D01*
X31351Y43692D01*
X31393Y43604D01*
X31444Y43519D01*
X31502Y43441D01*
X31568Y43368D01*
X31641Y43302D01*
X31719Y43244D01*
X31804Y43193D01*
X31892Y43151D01*
X31985Y43118D01*
X32080Y43094D01*
X32177Y43080D01*
X32275Y43075D01*
X165475D02*
X165573Y43080D01*
X165670Y43094D01*
X165765Y43118D01*
X165858Y43151D01*
X165946Y43193D01*
X166031Y43244D01*
X166109Y43302D01*
X166182Y43368D01*
X166248Y43441D01*
X166306Y43519D01*
X166357Y43604D01*
X166399Y43692D01*
X166432Y43785D01*
X166456Y43880D01*
X166470Y43977D01*
X166475Y44075D01*
X129325Y113125D02*
X129335Y113027D01*
X129363Y112934D01*
X129409Y112847D01*
X129471Y112771D01*
X129547Y112709D01*
X129634Y112663D01*
X129727Y112635D01*
X129825Y112625D01*
X135975D02*
X136073Y112635D01*
X136166Y112663D01*
X136253Y112709D01*
X136329Y112771D01*
X136391Y112847D01*
X136437Y112934D01*
X136465Y113027D01*
X136475Y113125D01*
X166475D01*
X129825Y112625D02*
X135975D01*
X166475Y44075D02*
Y113125D01*
X31275Y44075D02*
Y113125D01*
X129325D01*
X32275Y43075D02*
X165475D01*
D63*
X135225Y98825D02*
Y102775D01*
X135875Y90075D02*
X136225Y90425D01*
X130225Y91575D02*
Y92675D01*
Y91575D02*
X131925Y89875D01*
X134375D01*
X134575Y90075D01*
X129575Y97375D02*
Y97875D01*
Y93325D02*
Y95425D01*
X134575Y90075D02*
X135875D01*
X129575Y93325D02*
X130225Y92675D01*
X136225Y90425D02*
Y97825D01*
X135225Y98825D02*
X136225Y97825D01*
X130525Y98825D02*
Y102675D01*
X129575Y97875D02*
X130525Y98825D01*
D65*
X46525Y52425D02*
X47425Y53325D01*
Y66025D01*
X47175Y66275D02*
X47425Y66025D01*
X36175Y66275D02*
X47175D01*
X35625Y66825D02*
X36175Y66275D01*
X35625Y66825D02*
Y99875D01*
X38525Y102775D01*
X92225D01*
X94425Y100575D01*
X107475D01*
X122575D02*
X124925Y102925D01*
X161875D01*
X164475Y100325D01*
Y43075D02*
Y100325D01*
X107475Y100575D02*
X107875Y100175D01*
X120475Y100575D02*
X122575D01*
X120025Y100125D02*
X120475Y100575D01*
X120025Y98625D02*
Y100125D01*
X107875Y98625D02*
Y100175D01*
Y98625D02*
X120025D01*
X31375Y52425D02*
X46525D01*
D68*
X31275Y44075D02*
X31280Y43977D01*
X31294Y43880D01*
X31318Y43785D01*
X31351Y43692D01*
X31393Y43604D01*
X31444Y43519D01*
X31502Y43441D01*
X31568Y43368D01*
X31641Y43302D01*
X31719Y43244D01*
X31804Y43193D01*
X31892Y43151D01*
X31985Y43118D01*
X32080Y43094D01*
X32177Y43080D01*
X32275Y43075D01*
X165475D02*
X165573Y43080D01*
X165670Y43094D01*
X165765Y43118D01*
X165858Y43151D01*
X165946Y43193D01*
X166031Y43244D01*
X166109Y43302D01*
X166182Y43368D01*
X166248Y43441D01*
X166306Y43519D01*
X166357Y43604D01*
X166399Y43692D01*
X166432Y43785D01*
X166456Y43880D01*
X166470Y43977D01*
X166475Y44075D01*
X129325Y113125D02*
X129335Y113027D01*
X129363Y112934D01*
X129409Y112847D01*
X129471Y112771D01*
X129547Y112709D01*
X129634Y112663D01*
X129727Y112635D01*
X129825Y112625D01*
X135975D02*
X136073Y112635D01*
X136166Y112663D01*
X136253Y112709D01*
X136329Y112771D01*
X136391Y112847D01*
X136437Y112934D01*
X136465Y113027D01*
X136475Y113125D01*
X166475D01*
X129825Y112625D02*
X135975D01*
X166475Y44075D02*
Y113125D01*
X31275Y44075D02*
Y113125D01*
X129325D01*
X32275Y43075D02*
X165475D01*
X31275Y52325D02*
X46425D01*
X31275D02*
Y113125D01*
X35625Y66825D02*
X36175Y66275D01*
X46425Y52325D02*
X47425Y53325D01*
X47175Y66275D02*
X47425Y66025D01*
Y53325D02*
Y66025D01*
X36175Y66275D02*
X47175D01*
X35625Y66825D02*
Y99875D01*
X38525Y102775D01*
X92225D01*
X94425Y100575D02*
X107425D01*
X31275Y113125D02*
X166475D01*
X92225Y102775D02*
X94425Y100575D01*
X107825Y98625D02*
X120025D01*
X107825D02*
Y100175D01*
X120025Y98625D02*
Y100125D01*
X164475Y54625D02*
X166475D01*
X164475D02*
Y100325D01*
X166475Y54625D02*
Y113125D01*
X107425Y100575D02*
X107825Y100175D01*
X120025Y100125D02*
X120475Y100575D01*
X122575D01*
X122675Y100675D01*
X124925Y102925D01*
X161875D01*
X164475Y100325D01*
D79*
X159645Y85360D02*
X159698Y85269D01*
X159803D01*
X159855Y85360D01*
X159645Y85405D02*
X159698Y85314D01*
X159803D01*
X159855Y85405D01*
X160087Y85526D02*
X160117Y85620D01*
X160128Y85718D01*
X160118Y85816D01*
X160089Y85910D01*
X160041Y85996D01*
X159977Y86070D01*
X159898Y86130D01*
X159809Y86173D01*
X159714Y86196D01*
X159615Y86200D01*
X159518Y86183D01*
X159426Y86146D01*
X159344Y86092D01*
X159275Y86022D01*
X159221Y85940D01*
X159185Y85848D01*
X159169Y85751D01*
X159173Y85652D01*
X159197Y85557D01*
X159240Y85468D01*
X159300Y85390D01*
D95*
X89325Y56375D02*
D03*
X94825Y58275D02*
D03*
X105375Y96325D02*
D03*
X102425D02*
D03*
X96725Y66125D02*
D03*
X96125D02*
D03*
X95525D02*
D03*
X108825Y68225D02*
D03*
X108725Y65425D02*
D03*
X106123Y64223D02*
D03*
X108825Y69825D02*
D03*
X108225Y86525D02*
D03*
X108825Y84175D02*
D03*
X109275Y86975D02*
D03*
X111425Y85275D02*
D03*
X101125Y60875D02*
D03*
X100725Y60425D02*
D03*
X91925Y54475D02*
D03*
X92975D02*
D03*
X92925Y58025D02*
D03*
X106675Y61075D02*
D03*
X103125Y60425D02*
D03*
X105175Y58625D02*
D03*
X103625Y68575D02*
D03*
X104425Y68375D02*
D03*
X98625Y77025D02*
D03*
X98975Y77775D02*
D03*
X100975Y59225D02*
D03*
X107325Y67075D02*
D03*
X106325Y67275D02*
D03*
X106125Y67725D02*
D03*
X106375Y65075D02*
D03*
X105875Y65425D02*
D03*
X102875Y67125D02*
D03*
X103375Y67475D02*
D03*
X100775Y62375D02*
D03*
X95875Y61825D02*
D03*
X99375Y61075D02*
D03*
X99725Y61575D02*
D03*
X100075Y61075D02*
D03*
X98225Y61525D02*
D03*
X97875Y61125D02*
D03*
X96825Y61575D02*
D03*
X96475Y61225D02*
D03*
X98159Y79461D02*
D03*
X118175Y83075D02*
D03*
X117725Y83425D02*
D03*
X95725Y80475D02*
D03*
X118575Y83775D02*
D03*
X120125Y81325D02*
D03*
X120675Y80975D02*
D03*
X119575Y81675D02*
D03*
X131625Y78575D02*
D03*
X131025Y77675D02*
D03*
X130875Y76475D02*
D03*
X130825Y74325D02*
D03*
X125325Y69475D02*
D03*
X117325Y71975D02*
D03*
X106575Y50725D02*
D03*
X120475Y86675D02*
D03*
X121625Y85775D02*
D03*
X121075Y87175D02*
D03*
X124025Y81125D02*
D03*
X118845Y66255D02*
D03*
X124825Y57975D02*
D03*
X112725Y64025D02*
D03*
X115475Y63575D02*
D03*
X132625Y61075D02*
D03*
X113225Y64375D02*
D03*
X132125Y58525D02*
D03*
X123675Y55575D02*
D03*
X113025Y64825D02*
D03*
X124025Y55925D02*
D03*
X131625Y58675D02*
D03*
X132125Y59125D02*
D03*
X112825Y65325D02*
D03*
X124325Y56325D02*
D03*
X132175Y59725D02*
D03*
X112775Y65875D02*
D03*
X122246Y56746D02*
D03*
X120225Y67075D02*
D03*
X115425Y65225D02*
D03*
X121425Y66525D02*
D03*
X119875Y75425D02*
D03*
X116225Y63225D02*
D03*
X114871Y77821D02*
D03*
X105675Y58475D02*
D03*
X117175Y59075D02*
D03*
X106175Y58475D02*
D03*
X116675Y59575D02*
D03*
X106675Y58475D02*
D03*
X116675Y60375D02*
D03*
X107175Y58475D02*
D03*
X115656Y60107D02*
D03*
X108025Y58475D02*
D03*
X115425Y60825D02*
D03*
X108525Y58475D02*
D03*
X115625Y61525D02*
D03*
X109025Y58825D02*
D03*
X114875Y61875D02*
D03*
X109525Y59175D02*
D03*
X115375Y62625D02*
D03*
X135175Y91975D02*
D03*
X134075Y92325D02*
D03*
X132475Y95225D02*
D03*
X132075Y94875D02*
D03*
X133475Y92325D02*
D03*
X132875Y93425D02*
D03*
X131975D02*
D03*
X133125Y89375D02*
D03*
X130125Y87525D02*
D03*
X132175Y86575D02*
D03*
X129075Y92425D02*
D03*
Y90025D02*
D03*
Y91225D02*
D03*
X135475Y89175D02*
D03*
X135675Y88525D02*
D03*
X133675Y88975D02*
D03*
X130275Y88125D02*
D03*
X130625Y86425D02*
D03*
X128975Y99475D02*
D03*
X129325Y99065D02*
D03*
X130875Y91975D02*
D03*
X127725Y95475D02*
D03*
X133725Y87175D02*
D03*
X116775Y80775D02*
D03*
X113975Y81925D02*
D03*
X112575Y68325D02*
D03*
X109175Y51525D02*
D03*
X112375Y67125D02*
D03*
X111975Y67475D02*
D03*
X115575Y67125D02*
D03*
X128375Y83075D02*
D03*
X125425D02*
D03*
X120525Y63275D02*
D03*
X120875Y62125D02*
D03*
X119975Y61425D02*
D03*
X120275Y60725D02*
D03*
X119775Y60025D02*
D03*
X120425Y59675D02*
D03*
X126525Y65725D02*
D03*
X125425Y66125D02*
D03*
X126075Y66275D02*
D03*
X125875Y65575D02*
D03*
X126275Y64975D02*
D03*
X126975Y65175D02*
D03*
X126675Y64375D02*
D03*
X127475Y64675D02*
D03*
X131675Y59775D02*
D03*
X129425Y60875D02*
D03*
X131675Y60975D02*
D03*
X122275Y57925D02*
D03*
X123825Y57625D02*
D03*
X120825Y59075D02*
D03*
X125325Y59725D02*
D03*
X126075Y60025D02*
D03*
X133125Y61875D02*
D03*
X126525Y59525D02*
D03*
X121775Y63525D02*
D03*
X123225Y64725D02*
D03*
X128575Y61975D02*
D03*
Y60225D02*
D03*
X122175Y59075D02*
D03*
X121575Y55525D02*
D03*
X130175Y58525D02*
D03*
X129725Y63625D02*
D03*
Y65575D02*
D03*
X130675Y67225D02*
D03*
X136575Y62775D02*
D03*
X116125Y57425D02*
D03*
X118525Y57475D02*
D03*
X117225Y73675D02*
D03*
X116525Y76475D02*
D03*
X115525D02*
D03*
X121875Y83275D02*
D03*
X131225Y79175D02*
D03*
X131575Y72075D02*
D03*
X127375Y69425D02*
D03*
X131815Y81825D02*
D03*
X119925Y62725D02*
D03*
X124225Y69525D02*
D03*
X114725Y69575D02*
D03*
X115025Y69125D02*
D03*
X118775Y69675D02*
D03*
X115675Y68525D02*
D03*
Y69075D02*
D03*
X117625Y65225D02*
D03*
X116641Y64941D02*
D03*
X118325Y65625D02*
D03*
X118175Y64425D02*
D03*
X118775Y69075D02*
D03*
Y68525D02*
D03*
X117575Y70025D02*
D03*
X119575Y65325D02*
D03*
X123325Y65525D02*
D03*
X119475Y63925D02*
D03*
X119975Y63875D02*
D03*
X121925Y67025D02*
D03*
X122475Y66825D02*
D03*
X122725Y66375D02*
D03*
X115625Y67825D02*
D03*
X130125Y59375D02*
D03*
X124325Y57225D02*
D03*
X123685Y56865D02*
D03*
X131675Y60275D02*
D03*
X129775Y60125D02*
D03*
X124225Y59125D02*
D03*
X121925Y58375D02*
D03*
X123875Y58725D02*
D03*
X122125Y67575D02*
D03*
X119825Y69475D02*
D03*
X129725Y62275D02*
D03*
X122175Y61225D02*
D03*
X129225Y61425D02*
D03*
X129525Y67625D02*
D03*
X128325D02*
D03*
X120275Y65975D02*
D03*
X121475D02*
D03*
X118775Y68025D02*
D03*
X115075Y66625D02*
D03*
X106825Y51475D02*
D03*
X113975Y82525D02*
D03*
X130125Y85175D02*
D03*
X130925Y75375D02*
D03*
X128625Y76175D02*
D03*
X131375Y84225D02*
D03*
X86025Y62125D02*
D03*
X121125Y71375D02*
D03*
X128725Y86425D02*
D03*
X129075Y86825D02*
D03*
X129425Y87275D02*
D03*
X130175Y83625D02*
D03*
X130875Y83875D02*
D03*
X130525Y83275D02*
D03*
X130625Y85025D02*
D03*
X123575Y73175D02*
D03*
X112175Y69625D02*
D03*
Y68875D02*
D03*
X111975Y71975D02*
D03*
X126315Y101375D02*
D03*
X134125Y72575D02*
D03*
X111975Y73575D02*
D03*
X117275Y85625D02*
D03*
X117675Y86025D02*
D03*
X111425Y70225D02*
D03*
X112175Y70325D02*
D03*
X123025Y71825D02*
D03*
X122625Y72175D02*
D03*
X122175Y72825D02*
D03*
X128675Y80525D02*
D03*
X125175Y80925D02*
D03*
X115827Y89475D02*
D03*
X116177Y89975D02*
D03*
X112532Y96025D02*
D03*
X115485D02*
D03*
X118094D02*
D03*
X117424D02*
D03*
X112525Y94325D02*
D03*
X110775Y95025D02*
D03*
X116925Y94875D02*
D03*
X122825Y83825D02*
D03*
X119175Y85975D02*
D03*
X103125Y58825D02*
D03*
Y59425D02*
D03*
X103375Y57425D02*
D03*
X103675Y62475D02*
D03*
X98325Y64225D02*
D03*
X97725D02*
D03*
X94275Y64825D02*
D03*
X92825Y62075D02*
D03*
X92925Y61025D02*
D03*
Y60175D02*
D03*
Y59425D02*
D03*
X92625Y55325D02*
D03*
X97425Y53475D02*
D03*
X97925D02*
D03*
X103275Y66325D02*
D03*
X102125Y66775D02*
D03*
X101925Y53475D02*
D03*
X106075Y63675D02*
D03*
X106175Y62825D02*
D03*
X106825Y62975D02*
D03*
X106675Y62325D02*
D03*
X100975Y58325D02*
D03*
X94275Y99425D02*
D03*
D100*
X160110Y86230D02*
X160085Y86313D01*
X160018Y86368D01*
X159931Y86377D01*
D180*
X87375Y48275D02*
D03*
X86725D02*
D03*
X104325Y81375D02*
D03*
X108075Y48275D02*
D03*
X108725D02*
D03*
X109375D02*
D03*
X112075D02*
D03*
X105375D02*
D03*
X104725D02*
D03*
X104075D02*
D03*
X103375D02*
D03*
X102725D02*
D03*
X102075D02*
D03*
X100725D02*
D03*
X100075D02*
D03*
X99375D02*
D03*
X98725D02*
D03*
X97375D02*
D03*
X96725D02*
D03*
X96075D02*
D03*
X92075D02*
D03*
X92725D02*
D03*
X93375D02*
D03*
X94075D02*
D03*
X94725D02*
D03*
X95375D02*
D03*
X91375D02*
D03*
X90725D02*
D03*
X90075D02*
D03*
X86075D02*
D03*
X88075D02*
D03*
X88725D02*
D03*
X89375D02*
D03*
X40475Y81625D02*
D03*
X41275D02*
D03*
Y80825D02*
D03*
X40475D02*
D03*
X103275Y54325D02*
D03*
X103625Y64625D02*
D03*
X40525Y48375D02*
D03*
X41075D02*
D03*
X41625D02*
D03*
X106025Y75775D02*
D03*
X127475Y85175D02*
D03*
Y83775D02*
D03*
X115775Y78975D02*
D03*
X86825Y67075D02*
D03*
X113175Y78525D02*
D03*
X133125Y96125D02*
D03*
X134225Y91375D02*
D03*
X130675Y95675D02*
D03*
X136625Y64525D02*
D03*
X114375Y87173D02*
D03*
X87525Y67575D02*
D03*
X86125D02*
D03*
X90025Y62775D02*
D03*
X113425Y88173D02*
D03*
X118775Y79925D02*
D03*
X136025Y84775D02*
D03*
X130675Y95025D02*
D03*
X107511Y61261D02*
D03*
X115425Y94575D02*
D03*
X127075Y96125D02*
D03*
X104525Y70175D02*
D03*
X130625Y55025D02*
D03*
X114501Y96025D02*
D03*
D185*
X160193Y86230D02*
X160171Y86318D01*
X160109Y86384D01*
X160022Y86412D01*
X159933Y86395D01*
D186*
X160161Y86221D02*
X160130Y86319D01*
X160048Y86382D01*
X159944Y86385D01*
D187*
X160142Y85660D02*
X160131Y85760D01*
X160100Y85856D01*
X160050Y85943D01*
X159983Y86017D01*
X159902Y86077D01*
X159810Y86117D01*
X159711Y86138D01*
X159611D01*
X159512Y86117D01*
X159420Y86077D01*
X159339Y86017D01*
X159272Y85943D01*
X159222Y85856D01*
X159191Y85760D01*
X159180Y85660D01*
D188*
X165475Y53950D02*
D03*
D189*
X125441Y48861D02*
D03*
D190*
X122941D02*
D03*
D191*
X160061Y85486D02*
D03*
D192*
X160145Y85765D02*
D03*
D193*
X159675Y85585D02*
D03*
X159675Y85825D02*
D03*
D194*
X159645Y85435D02*
D03*
X159855D02*
D03*
D195*
X32725Y47700D02*
D03*
D196*
X104625Y72475D02*
D03*
X101425Y82275D02*
D03*
X133175Y106125D02*
D03*
X132675Y107125D02*
D03*
D197*
X103625Y72475D02*
D03*
X105625D02*
D03*
X106625D02*
D03*
X107625D02*
D03*
X108625D02*
D03*
X101425Y83275D02*
D03*
X102425D02*
D03*
X103425D02*
D03*
X102425Y82275D02*
D03*
X103425D02*
D03*
X110775Y88375D02*
D03*
X91825Y64575D02*
D03*
X90825D02*
D03*
X126575Y108175D02*
D03*
X125575D02*
D03*
X124575D02*
D03*
X123575D02*
D03*
X126075Y107175D02*
D03*
X125075D02*
D03*
X124075D02*
D03*
X123075D02*
D03*
X134675Y107125D02*
D03*
X134175Y106125D02*
D03*
X133675Y107125D02*
D03*
X132175Y106125D02*
D03*
X131675Y107125D02*
D03*
X131175Y106125D02*
D03*
X130435Y110955D02*
D03*
X131435Y111555D02*
D03*
X134415Y110955D02*
D03*
X135415Y111555D02*
D03*
X110775Y87375D02*
D03*
X45925Y79075D02*
D03*
Y80075D02*
D03*
X46925Y79075D02*
D03*
Y80075D02*
D03*
D198*
X101411Y109926D02*
D03*
X99639D02*
D03*
X105561D02*
D03*
X103789D02*
D03*
D199*
X99147Y108942D02*
D03*
X101903D02*
D03*
X106053D02*
D03*
X103297D02*
D03*
D200*
X121875Y111875D02*
D03*
X127775D02*
D03*
D201*
X122575Y110675D02*
D03*
X127075D02*
D03*
D202*
X130675Y109625D02*
D03*
X135175D02*
D03*
D203*
X109806Y97675D02*
D03*
X118625D02*
D03*
D204*
X33375Y44125D02*
D03*
X68375D02*
D03*
X164375D02*
D03*
X129375D02*
D03*
X81375D02*
D03*
X116375D02*
D03*
X33375Y110375D02*
D03*
X68375D02*
D03*
X164375D02*
D03*
X81375D02*
D03*
D205*
X91375Y46125D02*
D03*
X93375D02*
D03*
X91375Y47125D02*
D03*
X93375D02*
D03*
X95375Y46125D02*
D03*
X97375D02*
D03*
X95375Y47125D02*
D03*
X97375D02*
D03*
X99375D02*
D03*
X101375D02*
D03*
X103375D02*
D03*
X99375Y46125D02*
D03*
X101375D02*
D03*
X103375D02*
D03*
X105375D02*
D03*
X107375D02*
D03*
X105375Y47125D02*
D03*
X107375D02*
D03*
X109375D02*
D03*
Y46125D02*
D03*
X87375Y47125D02*
D03*
X89375D02*
D03*
Y46125D02*
D03*
X87375D02*
D03*
X85375Y47125D02*
D03*
Y46125D02*
D03*
X83375Y47125D02*
D03*
Y46125D02*
D03*
X87375Y45125D02*
D03*
X89375D02*
D03*
X91375D02*
D03*
X93375D02*
D03*
X95375D02*
D03*
X97375D02*
D03*
X99375D02*
D03*
X101375D02*
D03*
X103375D02*
D03*
X105375D02*
D03*
X107375D02*
D03*
X109375D02*
D03*
X111375D02*
D03*
X113375D02*
D03*
D206*
X111375Y47125D02*
D03*
Y46125D02*
D03*
X113375Y47125D02*
D03*
Y46125D02*
D03*
X83375Y45125D02*
D03*
X85375D02*
D03*
D207*
X97375Y111425D02*
D03*
X94375D02*
D03*
D208*
X43944Y56928D02*
D03*
X40006D02*
D03*
Y51022D02*
D03*
X41925Y75725D02*
D03*
X45925D02*
D03*
X42925Y67725D02*
D03*
X40925D02*
D03*
X37925D02*
D03*
D209*
X43944Y51022D02*
D03*
X37925Y75725D02*
D03*
M02*
