M72
M48
T1F00S00C0.0200
T2F00S00C0.0280
T3F00S00C0.0350
T4F00S00C0.0370
T5F00S00C0.0394
T6F00S00C0.0472
T7F00S00C0.0512
T8F00S00C0.0640
T9F00S00C0.1100
T10F00S00C0.0512
T11F00S00C0.0591
T12F00S00C0.1280
T13F00S00C0.1360
%
T01
X3700Y1450
X12300Y6050
Y6500
X50600Y6700
X51400
X46960Y1650
X87520Y1150
X131300Y1040
X131360Y7150
Y10450
X105400Y12750
X105750Y14100
X104800Y14950
X104100Y14450
X104350Y11800
X103200
X102700Y12900
X101350Y12000
X100050Y11950
X100300Y10750
X98550Y10850
X96150Y10800
X96100Y11950
X94850Y11400
X93900Y10300
X92300Y10100
X92400Y12500
X92750Y12850
X93050Y13250
Y14150
X92550Y14550
X92410Y13790
X90971Y13671
X91000Y14850
X90650Y15300
X90900Y16000
Y17150
Y18150
X90850Y19050
X90800Y21250
X91300Y21650
X91950
X92050Y22450
X95000Y21900
X95700Y22100
X96200Y21600
Y21000
X95400Y21300
X98450Y21200
Y20550
Y19850
Y19200
X97950Y18350
X98150Y17800
X98500Y17050
X98850Y16300
X98900Y15450
X98250
X96800Y16000
X97300Y17150
X96800Y17700
X97300Y18200
Y18900
X96800Y19450
X98450Y21850
X100750Y19250
X101850Y18800
X101950Y18050
X101350Y18000
X100950Y17400
X100400Y17200
Y16700
X100900Y16650
X100850Y16050
Y15450
X100350Y15600
X100400Y17900
X102200Y17000
X102170Y19800
X105300Y19700
Y19050
X105400Y18600
X105300Y20800
X105800Y16100
X95250Y16450
X94800Y16950
X94400Y17330
X94050Y16650
X93500Y16900
X92570Y17200
X92950Y16050
X92600Y15650
X93550Y14900
X90250Y16000
X89550
X89150Y16600
X88500Y16950
X89000Y17650
X89700Y17700
X89600Y19050
X90250
X90500Y20450
X89850
X89250Y20200
X88650Y19650
X88700Y20800
X88200Y20850
X88300Y22250
X88950Y21800
X90250Y22150
X86350
X85366Y21866
X84150Y22150
X84200Y20500
X84100Y19550
X83600Y18800
X84350Y18450
X84150Y17750
X84382Y17032
X85400Y17300
Y16500
X85900Y16000
X85950Y14450
X84850Y14350
X83150
X82216Y14366
X82650Y12100
X84750
X86700
X87550Y11250
X88650Y10150
X90600Y10100
X90300Y12450
X89850Y12750
X89150Y12950
X88650Y13400
X87800Y14250
X87250Y14400
X88700Y18350
X86900Y21350
X84950Y20150
X81950Y21300
X81750Y21750
X81550Y22250
X81450Y20950
X79600
X78100Y19650
X75550Y19900
X75400Y19250
Y18000
Y15400
X75900
X76300Y15750
X76750Y15400
X77250
X77750Y15750
X78250Y16100
X78300Y13650
X77150Y12350
X75800Y11100
X76500Y9750
X75000Y9800
X75550Y8400
X75300Y7650
X77900
Y8450
X77300Y8350
X78050Y10250
X79300Y11200
X80450Y12100
X79750Y7750
X81700Y7000
X87700Y6880
X77450Y22350
X75100Y22000
X74600Y22350
X74848Y21148
X74800Y20600
X74900Y19750
X72450Y20050
X72400Y19400
X71850Y17350
Y16350
Y15750
X73400
X73450Y16350
Y17350
X73900Y15550
X74400Y15400
X74900
X73700Y14350
X72100
X70385Y14185
X69150Y14100
X69700Y15250
Y16150
X69250Y15750
X69450Y17350
X69850Y17800
X70400Y17700
X69500Y18350
Y19300
X69979Y19729
X70720Y20500
X70850Y21400
X70150
X71550
X67050Y21150
X66450
X66435Y19685
X65057
X64600Y18750
X64700Y18250
X65200Y18150
X65550Y18500
X66950Y18450
X66600Y18050
X67500Y17450
X68100Y18000
X68800
X68450Y18500
X67650Y18550
X68207Y19707
X63250Y19650
X63078Y18122
X61650Y17950
Y17100
Y16350
Y14950
X63074Y14776
X63550Y15200
X63950Y16400
X63100Y16350
X60050Y16350
Y17100
Y17950
X60900Y18950
X61550Y19000
X60700Y20300
X62250Y21000
X63000Y21750
X63650Y21800
X61801Y13201
X61350Y12250
X60700Y12200
X60650Y11400
X61700
X62750Y11500
X64861Y12389
X66239Y12411
X68010Y12390
X70400Y12700
X70850Y11850
X70650Y10400
X71300
X71350Y7950
X72800
X74400Y10950
X74350Y12750
X66650Y10400
X66150
X66100Y8850
X66650
X66400Y7450
X61200Y7750
Y10000
X60050Y14950
X58050Y13300
X53200Y12650
Y14350
Y16100
Y17900
Y19700
Y21450
X54900Y20950
X55450Y19550
X54750Y19050
X54200Y18750
X55350Y16750
X57100Y18450
X57550Y19100
X58250Y21550
X55800Y22350
X53200Y10900
Y9100
Y7300
X51400Y7500
X50600
X47050Y7040
X17440Y9230
Y11870
X17400Y14650
Y17600
Y21050
X13900Y12750
X11500
X10600
X9750
X7500
X3700Y8150
X12300Y6950
X5340Y24580
Y27220
X5300Y30000
Y32950
X6320Y34600
Y35100
Y35600
X9450Y34650
X12240Y36850
X12600Y34850
X13300Y34150
X17350Y32930
Y29980
X17390Y27200
Y24560
X17300Y36480
X53000Y30500
Y29800
Y29100
Y28400
Y27700
Y27000
Y26300
Y25600
Y24900
X53700
Y24200
X53000
X53200Y23150
X53700Y25600
Y26300
Y27000
Y27700
Y28400
X54400
Y29100
Y29800
X55100
X55800
X56500
X57200
X57900
X58600
X59300
Y30500
X58600
X57900
X57200
X56500
X55800
X55100
X54400
X53700
Y29800
Y29100
X55100
X55800
X56500
Y28400
X57200
Y27700
Y27000
Y26300
Y29100
X58600Y23700
X60400Y23600
X60700Y26300
Y27000
Y27700
Y28400
Y29100
Y29800
X60000
Y30500
X60700
X61400
Y29800
X62100
X62800
Y30500
X62100
Y29100
Y28400
Y27700
Y27000
Y26300
X62800
Y27000
Y27700
Y28400
Y29100
X61400
Y28400
Y27700
Y27000
Y26300
X64050Y27100
X64000Y28700
X63950Y30700
X66450Y30450
Y28200
Y26150
Y23850
Y22750
X67050
X65450Y23050
X64850
X64250
X64050Y25350
X71400Y25850
X72350Y25500
X73150Y25300
X73400Y25950
X73550Y28500
X74850Y28200
Y24650
X72100Y24400
X71600Y24050
X70850Y23700
X72000Y23250
X71400Y28000
X72400Y31650
X73450Y31000
X74800Y33850
X73100Y36150
X66884Y36386
X67700Y34700
X67350Y33950
X64200Y33700
X64450Y35200
Y37400
X61900Y35500
X62300Y32150
X75000Y31050
X76960Y32150
X77800Y32480
X79550Y32600
Y31800
X80350
Y32600
X80700Y30500
X81400Y30850
X80700Y28900
X79550Y29550
X78450Y28250
X76850Y28200
X75850
X75700Y27100
X75450Y26400
X76203Y26203
X76203Y24936
X76050Y24000
X75050Y24200
X77550Y25150
X78240Y25300
X77550Y26750
X79550Y26720
X80150Y27150
X80900Y27250
Y26550
Y25800
X81300Y25250
X81100Y24050
X80700Y24400
X79300Y24050
X81500Y22800
X83800Y23550
X84300Y24050
X84350Y24750
X84400Y25450
Y26000
X83750Y26050
X83450Y26500
X83800Y25200
X87500Y25450
Y24950
X87530Y24400
X88150Y24900
X88550Y25750
Y26400
X87500Y26600
Y26000
X86300Y26950
X86050Y28900
X87400
X87450Y30050
X87600Y31950
X87550Y33100
Y33650
X88650Y33000
X88600Y32350
X89700Y30300
X88950Y29350
X90350Y29150
X89850Y28300
X89350Y27900
X88400
X84900Y28400
X85300Y30600
X85950
X85250Y32750
Y33400
X84250
Y32750
X83450Y32200
X84000Y34150
X83596Y34746
X85350Y35200
X85500Y37700
X84900
X82600Y37270
Y36700
X81450Y36100
X81500Y34250
X79150Y36350
X77300Y36300
X77450Y37900
X78700Y37950
X76300Y34050
X77850Y30350
X87500Y35950
X89650Y35900
X90300Y36850
X89400Y37900
X88950Y24000
X89000Y22900
X90200
X90150Y23450
X87570Y23180
X87050Y22550
X90850Y23300
X91450
X91200Y23750
X90650Y23950
X90850Y24500
X92950Y24800
X94050Y24750
Y26400
X92950Y26450
X93150Y27900
X94100
X96250
X96100Y26350
X96550Y25200
X96100Y24700
X96450Y24130
X97050Y24550
Y23450
X98250Y23650
Y24550
X98750Y24150
X99400
X98750Y23150
X98450Y22500
X95250Y22650
X94600Y22500
X94800Y23200
X94150Y23050
X93650Y30550
X92300Y30100
X91250Y30400
X90900Y29750
X91350Y29100
X91750Y28750
X95800Y29650
X98200Y29600
X98000Y31850
X98200Y33350
Y33950
Y34750
X98150Y35900
X96800Y36000
X96900Y34800
X96850Y33400
X97350Y33100
X99600Y33400
X99650Y32300
X100300
X100810Y32900
X101450Y31730
X102100
X103200Y31750
X102900Y32550
X104810Y32900
X104650Y31750
X105750Y32450
Y31050
Y29650
Y28250
Y26850
Y25450
X105350Y24000
X104800Y23150
Y22520
X104100Y23600
X103550Y24900
X102550Y26000
X101850Y27000
X100800Y27050
X100900Y29000
X100300
X98800Y27600
X99550Y31250
X99750Y34600
X100350Y35500
X99950Y36100
Y36600
X101700Y37450
X102150
X103350Y37410
X105750Y38050
Y36650
Y35250
X104700Y35570
X103900Y34000
X105750Y33850
X102150Y34600
X101400
X102000Y35600
X97400Y37450
X96800Y37650
X95400Y36900
X94850Y35950
X93900Y37850
X92750Y38050
X92700Y36850
X91950Y35950
X102850Y29500
Y28400
X104300Y29100
Y26750
X105000Y38700
X103610Y39000
X102800Y39800
Y40700
X103600
X101750Y40850
Y42150
X100800Y43000
X100900Y43500
X99350Y43350
X99500Y44000
X98850Y44450
X99000Y45050
X98350
X98150Y44200
X97800Y43750
X97450Y43350
X96950Y42550
X97100Y41650
Y40000
X97150Y38650
X95650
X94400Y38250
X93299Y38651
X91800Y38550
X91550Y40750
X91400Y41950
X92450Y41850
X93150Y40650
X94150Y40000
X93800Y42550
X95250Y42000
X95500Y44050
Y44750
Y45450
X94800
Y44750
Y44050
X96200
X96900Y45450
Y46850
X97800Y46950
Y48150
X96900Y48250
X96200Y48950
X96800Y49650
X95500
X94100
X92700
X92000Y48950
X93400
X94800
X94100Y48250
X92700
X91300
Y46850
Y46150
Y45450
Y44750
Y44050
X90950Y43400
X92000Y47550
X93400
X94800
Y46850
Y46150
X95500
X96200
Y47550
X95500Y48250
Y46850
X96200Y50350
X94900Y51280
X94800Y53250
X93550Y52550
X93400Y50480
X91050Y51100
X96450Y52400
X97850Y51910
X99400Y51250
Y50700
X98850
X100700Y50350
Y51150
X100800Y51800
X101200Y52150
X101650Y52450
X101600Y50350
X102200Y49250
X102800
X103900Y49550
Y48900
X104470Y48800
X104100Y50050
Y51400
X102800
X103450Y52050
X104100Y52700
X105800Y53200
X105850Y51400
Y49350
Y47300
X105400Y45900
X105950Y45250
X105900Y43850
X104400Y44800
Y45450
X104200Y46100
Y46650
X104650Y46400
X102400Y45900
X101850Y46300
X101150Y46350
X100300Y46550
X100950Y47250
X101600Y47450
X101850Y45450
X102450Y44100
X99350Y41950
X98850Y42100
X99700Y41500
X100100Y41150
X100450Y40800
X99600
X98900Y40550
X99250Y40200
X100540Y38750
X101650
X99600Y48900
X97800Y49350
X100510Y53550
X89800Y52450
X88100Y52100
X86819Y52950
X86149
X85650Y51800
X84150Y52350
X84210Y52950
X81257
X81250Y51250
X82100Y50850
X82550Y49150
X83400Y49900
X84800Y48550
X84850Y47500
X84902Y46900
X84552Y46400
X84152Y45800
X83200Y43450
X82350Y44098
X80850Y42900
X80150Y42200
X79200Y41100
X77550
Y41840
X77520Y40350
X75300Y40950
Y39450
X76300Y43450
X76950
X78000Y43900
X78650Y43850
X78750Y45300
X79450Y47000
X80650Y47500
X82050Y47750
X80750Y49200
X79000
X77350Y48950
X77150Y51150
X75500Y51000
X75700Y52450
X79500Y51950
X76200Y46550
Y44700
X75150Y44600
X81300Y40250
X81250Y38500
X82700Y38850
Y39450
X84650Y40700
X85950Y40800
X86450Y40350
X86900Y40000
X87350Y39400
X87300Y40700
X86400Y41400
X86000Y42550
X86400Y42950
X86550Y43450
X85100Y43300
X84700Y42100
X87900Y42900
X88550Y43400
X89200Y43600
X89000Y44150
X89800Y44100
X90600Y44050
Y44750
Y45450
Y46150
Y47550
X89850Y46850
X89100Y47550
Y46150
X89050Y45200
X90350Y42700
X90050Y41950
X90600Y40200
X89050
X88850Y38250
X88300Y38600
X89750
X89400Y48750
X89100Y50500
X87400Y49050
X85650Y49250
X74200Y48900
X73000Y48550
X71900Y48600
X72900Y46900
X74450Y46750
X72900Y44700
Y42050
X74200Y41950
X65800Y43500
X63600
Y46950
X65800
Y50700
X63600
X71150Y51450
X71850Y52250
X73000Y52150
X74150Y52200
X74100Y53250
X71150
X66600Y39450
X64300Y38650
X61900Y38350
X62650Y40850
X15650Y38900
X5500Y39120
X5400Y47120
X5520Y55950
X8000Y58350
X24400Y58400
X42800Y58450
X60800Y58700
X62050Y57040
X63000Y56350
X63600Y56640
X65760Y56700
X65750Y54350
X67700Y55850
X68630Y55830
X70500Y56800
X70600Y54350
X71850
X72950
X74200
X74750Y55850
X74650Y59000
X68700
X67700
X75650
X75550Y55850
X77600Y56400
X77150Y57050
X77400Y54550
X81250Y54600
X84200
X82800Y56550
X85450Y57550
X88200Y57050
X87700Y56350
X89800Y55800
X90550
X89700Y58950
X87150Y62160
X87700Y63750
X88200Y64400
X85300Y64000
X82800Y62150
X82850Y66300
X80010Y64100
X77600Y63700
X77150Y63050
X77600Y61960
X80090Y57700
X79050Y68750
X86750Y68840
X90700Y58950
X93550Y58880
X95040Y58300
X95850Y58000
X96650
X97700Y56400
X98050Y55990
X99600Y55270
X101150Y55300
X102800
X104100Y54750
Y53750
X105800Y55200
X104720Y56350
X104830Y58840
X102800Y59280
X101650
X99680Y59250
X98750Y59120
X96650Y61250
X95850
X95700Y54400
X94600Y55350
X93550Y55650
X91950Y56880
X117850Y58880
X130190Y58690
X132350Y56540
T02
X9250Y5300
X9800
X10350
X54800Y5200
X55450
X56100
X56800
X57450
X58100
X58800
X59450
X60100
X60800
X61450
X62100
X62800
X63450
X64100
X64800
X65450
X66100
X67450
X68100
X68800
X69450
X70800
X71450
X72100
X72800
X73450
X74100
X76800
X77450
X78100
X80800
X96750Y11950
X99350
X105350Y21450
X76886Y18186
X76236
X73700Y21550
X72350
X70350Y15900
X72000Y11250
Y9900
X61700Y8650
X60650
X58750Y18350
Y19700
X56500Y18850
X55350Y18200
X1350Y22800
Y24300
Y25800
Y27300
Y28800
Y30300
Y31800
Y33300
Y34800
Y36300
Y37800
X7200Y37750
X9200
X10000
X6200Y36750
X7200Y35750
X55550Y28200
X56264Y27155
X54836Y27155
X54850Y24500
X55550Y24000
X56250Y24500
X61650Y23800
X62550
Y25200
X61650
X73250Y27100
X74750Y32700
X73070Y34650
X70950Y33750
X69070Y33100
Y35000
X69100Y36750
X67550Y35900
X71350Y37200
X73790Y37050
X74910Y37500
X81900Y35450
X83000Y35900
X84500
X87500Y36850
X100750Y31750
X102400Y30900
X133850Y30300
Y28800
Y27300
Y25800
Y24300
Y22800
Y31800
Y33300
Y34800
Y36300
Y37800
Y39300
Y40800
Y42300
Y43800
Y45300
Y46800
Y48300
Y49800
Y51300
Y52800
X102500Y53100
X101850Y53050
X99400Y52600
Y51950
X99550Y49550
X102950Y48300
X102350Y47300
X104750Y43050
Y41700
X104700Y41050
X96200Y40700
Y42100
X95000Y40150
X95800Y53050
X85194Y52950
X83226
X82242
X84150Y51500
X82827Y46827
X82150Y45998
Y45098
X83100Y44098
X85600
X88500Y47000
X79350Y39450
X73050Y38300
X10000Y38550
X9200
X1350Y39300
Y40800
Y42300
Y43800
Y45300
Y46800
Y48300
Y49800
Y51300
Y52800
Y54300
Y55800
X97850Y54600
X98750
X99350
X101750Y54930
X133850Y54300
Y55800
T03
X59550Y21500
X60550
X15650Y36000
Y37000
X14650
Y36000
X72350Y29400
X73350
X74350
X75350
X76350
X77350
X79500Y44300
Y45300
X72150Y40200
X71150
X70150
Y39200
X71150
X72150
X91800Y64100
X92800
X93800
X94800
X95300Y65100
X94300
X93300
X92300
X100400Y64050
X101400
X102400
X103400
X102900Y63050
X101900
X100900
X99900
X99160Y67880
X100160Y68480
X103140Y67880
X104140Y68480
T04
X52100Y2050
Y3050
Y4050
X54100
Y3050
Y2050
X56100
Y3050
Y4050
X58100
Y3050
Y2050
X60100
Y3050
Y4050
X62100
Y3050
Y2050
X64100
Y3050
Y4050
X66100
Y3050
Y2050
X68100
Y3050
Y4050
X70100
Y3050
Y2050
X72100
Y3050
Y4050
X74100
Y3050
Y2050
X76100
Y3050
Y4050
X78100
Y3050
Y2050
X80100
Y3050
Y4050
X82100
Y3050
Y2050
T05
X68364Y66851
X70136
X72514
X74286
T06
X12668Y7947
Y13853
X8731
Y7947
X9650Y24650
X11650
X6650
Y32650
X10650
X14650
T07
X67872Y65867
X70628
X72022
X74778
T08
X90600Y68800
X96500
X98550Y65350
X104750
T09
X2100Y1050
X37100
X50100
X85100
X98100
X133100
X2100Y67300
X37100
X50100
X133100
T10
X78531Y54600
X87350
T11
X63100Y68350
X66100
T12
X99400Y66550
X103900
T13
X91300Y67600
X95800
M30
