%FSLAX24Y24*%
%MOIN*%
G70*
G01*
G75*
%ADD10C,0.0100*%
%ADD11R,0.0380X0.0380*%
%ADD12O,0.0630X0.0110*%
%ADD13R,0.0500X0.0650*%
%ADD14O,0.0189X0.0787*%
%ADD15O,0.0787X0.0189*%
%ADD16R,0.0189X0.0787*%
%ADD17R,0.0500X0.0600*%
%ADD18R,0.0600X0.0500*%
%ADD19R,0.1200X0.0900*%
%ADD20R,0.1614X0.0827*%
%ADD21R,0.0600X0.1250*%
%ADD22R,0.1250X0.0600*%
%ADD23O,0.0110X0.0669*%
%ADD24R,0.0110X0.0669*%
%ADD25O,0.0110X0.0709*%
%ADD26O,0.0157X0.0701*%
%ADD27R,0.0157X0.0701*%
%ADD28O,0.0138X0.0846*%
%ADD29R,0.0709X0.1378*%
%ADD30R,0.1378X0.0709*%
%ADD31R,0.0709X0.1575*%
%ADD32R,0.0709X0.0110*%
%ADD33O,0.0709X0.0110*%
%ADD34O,0.0709X0.0110*%
%ADD35R,0.0600X0.0600*%
%ADD36R,0.1575X0.1181*%
%ADD37R,0.0138X0.0846*%
%ADD38R,0.0551X0.0492*%
%ADD39O,0.0701X0.0157*%
%ADD40R,0.0800X0.0800*%
%ADD41R,0.0787X0.0512*%
%ADD42R,0.0945X0.0906*%
%ADD43O,0.0787X0.0177*%
%ADD44R,0.0787X0.0177*%
%ADD45O,0.0110X0.0630*%
%ADD46R,0.0110X0.0630*%
%ADD47C,0.0400*%
%ADD48R,0.0433X0.0787*%
%ADD49R,0.0787X0.0787*%
%ADD50R,0.0787X0.0394*%
%ADD51R,0.0236X0.0433*%
%ADD52R,0.0472X0.0315*%
%ADD53R,0.0492X0.0551*%
%ADD54R,0.0600X0.1000*%
%ADD55R,0.0380X0.0425*%
%ADD56R,0.0630X0.0110*%
%ADD57O,0.0630X0.0110*%
%ADD58C,0.0120*%
%ADD59C,0.0110*%
%ADD60C,0.0400*%
%ADD61C,0.0500*%
%ADD62C,0.0150*%
%ADD63C,0.0200*%
%ADD64C,0.0080*%
%ADD65C,0.0600*%
%ADD66C,0.1000*%
%ADD67C,0.0320*%
%ADD68C,0.0300*%
%ADD69C,0.0290*%
%ADD70C,0.0380*%
%ADD71C,0.0390*%
%ADD72C,0.0180*%
%ADD73C,0.0130*%
%ADD74C,0.0250*%
%ADD75C,0.0280*%
%ADD76C,0.0170*%
%ADD77C,0.0140*%
%ADD78C,0.0220*%
%ADD79C,0.0090*%
%ADD80C,0.0157*%
%ADD81C,0.0310*%
%ADD82C,0.0270*%
%ADD83C,0.0350*%
%ADD84R,0.5050X0.4500*%
%ADD85R,0.5050X0.9550*%
%ADD86R,0.1350X0.1400*%
%ADD87R,0.0300X0.1229*%
%ADD88R,0.0670X0.0700*%
%ADD89C,0.0620*%
%ADD90P,0.0620X8X0*%
%ADD91C,0.0787*%
%ADD92C,0.0906*%
%ADD93C,0.1000*%
%ADD94C,0.0650*%
%ADD95C,0.0600*%
%ADD96C,0.0500*%
%ADD97C,0.0945*%
%ADD98C,0.1181*%
%ADD99C,0.0118*%
%ADD100C,0.0060*%
%ADD101C,0.0098*%
%ADD102C,0.0079*%
%ADD103C,0.0070*%
%ADD104C,0.0160*%
%ADD105R,0.0130X0.0360*%
%ADD106R,0.0430X0.3100*%
%ADD107R,0.1500X0.0500*%
%ADD108R,0.0300X0.0500*%
%ADD109R,0.1850X3.5600*%
%ADD110R,0.1300X0.1300*%
%ADD111R,0.4580X0.0560*%
%ADD112R,0.4570X0.0560*%
%ADD113R,0.0610X1.0100*%
%ADD114R,1.0110X0.0610*%
%ADD115R,0.0600X1.0150*%
%ADD116R,0.4016X0.1063*%
%ADD117R,0.1250X0.3400*%
%ADD118R,0.0520X0.2190*%
%ADD119R,0.0530X0.2180*%
%ADD120R,0.2230X0.0510*%
%ADD121R,0.2180X0.0540*%
%ADD122R,0.6930X0.0530*%
%ADD123R,0.0520X0.6930*%
%ADD124R,0.0520X0.6940*%
%ADD125R,0.1675X3.5550*%
%ADD126R,0.0460X0.0460*%
%ADD127O,0.0710X0.0190*%
%ADD128R,0.0580X0.0730*%
%ADD129O,0.0269X0.0867*%
%ADD130O,0.0867X0.0269*%
%ADD131R,0.0269X0.0867*%
%ADD132R,0.0580X0.0680*%
%ADD133R,0.0680X0.0580*%
%ADD134R,0.1280X0.0980*%
%ADD135R,0.1694X0.0907*%
%ADD136R,0.0680X0.1330*%
%ADD137R,0.1330X0.0680*%
%ADD138O,0.0190X0.0749*%
%ADD139R,0.0190X0.0749*%
%ADD140O,0.0190X0.0789*%
%ADD141O,0.0237X0.0781*%
%ADD142R,0.0237X0.0781*%
%ADD143O,0.0218X0.0926*%
%ADD144R,0.0789X0.1458*%
%ADD145R,0.1458X0.0789*%
%ADD146R,0.0789X0.1655*%
%ADD147R,0.0789X0.0190*%
%ADD148O,0.0789X0.0190*%
%ADD149O,0.0789X0.0190*%
%ADD150R,0.0680X0.0680*%
%ADD151R,0.1655X0.1261*%
%ADD152R,0.0218X0.0926*%
%ADD153R,0.0631X0.0572*%
%ADD154O,0.0781X0.0237*%
%ADD155R,0.0880X0.0880*%
%ADD156R,0.0867X0.0592*%
%ADD157R,0.1025X0.0986*%
%ADD158O,0.0867X0.0257*%
%ADD159R,0.0867X0.0257*%
%ADD160O,0.0190X0.0710*%
%ADD161R,0.0190X0.0710*%
%ADD162C,0.0800*%
%ADD163R,0.0513X0.0867*%
%ADD164R,0.0867X0.0867*%
%ADD165R,0.0867X0.0474*%
%ADD166R,0.0316X0.0513*%
%ADD167R,0.0552X0.0395*%
%ADD168R,0.0572X0.0631*%
%ADD169R,0.0680X0.1080*%
%ADD170R,0.0460X0.0505*%
%ADD171R,0.0710X0.0190*%
%ADD172O,0.0710X0.0190*%
%ADD173C,0.0700*%
%ADD174P,0.0700X8X0*%
%ADD175C,0.0867*%
%ADD176C,0.0986*%
%ADD177C,0.1080*%
%ADD178C,0.0080*%
%ADD179C,0.0730*%
%ADD180C,0.0680*%
%ADD181C,0.0580*%
%ADD182C,0.1025*%
%ADD183C,0.1261*%
%ADD184C,0.0480*%
D10*
X31275Y44075D02*
X31280Y43977D01*
X31294Y43880D01*
X31318Y43785D01*
X31351Y43692D01*
X31393Y43604D01*
X31444Y43519D01*
X31502Y43441D01*
X31568Y43368D01*
X31641Y43302D01*
X31719Y43244D01*
X31804Y43193D01*
X31892Y43151D01*
X31985Y43118D01*
X32080Y43094D01*
X32177Y43080D01*
X32275Y43075D01*
X165475D02*
X165573Y43080D01*
X165670Y43094D01*
X165765Y43118D01*
X165858Y43151D01*
X165946Y43193D01*
X166031Y43244D01*
X166109Y43302D01*
X166182Y43368D01*
X166248Y43441D01*
X166306Y43519D01*
X166357Y43604D01*
X166399Y43692D01*
X166432Y43785D01*
X166456Y43880D01*
X166470Y43977D01*
X166475Y44075D01*
X129325Y113125D02*
X129335Y113027D01*
X129363Y112934D01*
X129409Y112847D01*
X129471Y112771D01*
X129547Y112709D01*
X129634Y112663D01*
X129727Y112635D01*
X129825Y112625D01*
X135975D02*
X136073Y112635D01*
X136166Y112663D01*
X136253Y112709D01*
X136329Y112771D01*
X136391Y112847D01*
X136437Y112934D01*
X136465Y113027D01*
X136475Y113125D01*
X166475D01*
X129825Y112625D02*
X135975D01*
X166475Y44075D02*
Y113125D01*
X31275Y44075D02*
Y113125D01*
X129325D01*
X32275Y43075D02*
X165475D01*
D109*
X32200Y82475D02*
D03*
D116*
X124437Y48861D02*
D03*
D117*
X159670Y86755D02*
D03*
D125*
X165637Y82500D02*
D03*
D173*
X104625Y72475D02*
D03*
X105625D02*
D03*
X106625D02*
D03*
X107625D02*
D03*
X108625D02*
D03*
X101425Y83275D02*
D03*
X102425D02*
D03*
X103425D02*
D03*
X102425Y82275D02*
D03*
X103425D02*
D03*
X101425D02*
D03*
X110775Y88375D02*
D03*
X91825Y64575D02*
D03*
X110775Y87375D02*
D03*
X45925Y79075D02*
D03*
Y80075D02*
D03*
X46925Y79075D02*
D03*
Y80075D02*
D03*
D174*
X103625Y72475D02*
D03*
X90825Y64575D02*
D03*
D175*
X101411Y109926D02*
D03*
X99639D02*
D03*
X105561D02*
D03*
X103789D02*
D03*
D176*
X99147Y108942D02*
D03*
X101903D02*
D03*
X106053D02*
D03*
X103297D02*
D03*
D177*
X121875Y111875D02*
D03*
X127775D02*
D03*
X136025Y108425D02*
D03*
X129825D02*
D03*
D178*
X122575Y110675D02*
D03*
X127075D02*
D03*
X130675Y109625D02*
D03*
X135175D02*
D03*
X109806Y97675D02*
D03*
X118625D02*
D03*
X97375Y111425D02*
D03*
X94375D02*
D03*
D179*
X126575Y108175D02*
D03*
X125575D02*
D03*
X124575D02*
D03*
X123575D02*
D03*
X126075Y107175D02*
D03*
X125075D02*
D03*
X124075D02*
D03*
X123075D02*
D03*
D180*
X134675Y107125D02*
D03*
X134175Y106125D02*
D03*
X133675Y107125D02*
D03*
X133175Y106125D02*
D03*
X132675Y107125D02*
D03*
X132175Y106125D02*
D03*
X131675Y107125D02*
D03*
X131175Y106125D02*
D03*
X130435Y110955D02*
D03*
X131435Y111555D02*
D03*
X134415Y110955D02*
D03*
X135415Y111555D02*
D03*
X91375Y46125D02*
D03*
X93375D02*
D03*
X91375Y47125D02*
D03*
X93375D02*
D03*
X95375Y46125D02*
D03*
X97375D02*
D03*
X95375Y47125D02*
D03*
X97375D02*
D03*
X99375D02*
D03*
X101375D02*
D03*
X103375D02*
D03*
X99375Y46125D02*
D03*
X101375D02*
D03*
X103375D02*
D03*
X105375D02*
D03*
X107375D02*
D03*
X105375Y47125D02*
D03*
X107375D02*
D03*
X109375D02*
D03*
X111375D02*
D03*
X109375Y46125D02*
D03*
X111375D02*
D03*
X113375Y47125D02*
D03*
Y46125D02*
D03*
X87375Y47125D02*
D03*
X89375D02*
D03*
Y46125D02*
D03*
X87375D02*
D03*
X85375Y47125D02*
D03*
Y46125D02*
D03*
X83375Y47125D02*
D03*
Y46125D02*
D03*
Y45125D02*
D03*
X85375D02*
D03*
X87375D02*
D03*
X89375D02*
D03*
X91375D02*
D03*
X93375D02*
D03*
X95375D02*
D03*
X97375D02*
D03*
X99375D02*
D03*
X101375D02*
D03*
X103375D02*
D03*
X105375D02*
D03*
X107375D02*
D03*
X109375D02*
D03*
X111375D02*
D03*
X113375D02*
D03*
D181*
X33375Y44125D02*
D03*
X68375D02*
D03*
X164375D02*
D03*
X129375D02*
D03*
X81375D02*
D03*
X116375D02*
D03*
X33375Y110375D02*
D03*
X68375D02*
D03*
X164375D02*
D03*
X81375D02*
D03*
X87375Y48275D02*
D03*
X86725D02*
D03*
X108075D02*
D03*
X108725D02*
D03*
X109375D02*
D03*
X112075D02*
D03*
X105375D02*
D03*
X104725D02*
D03*
X104075D02*
D03*
X103375D02*
D03*
X102725D02*
D03*
X102075D02*
D03*
X100725D02*
D03*
X100075D02*
D03*
X99375D02*
D03*
X98725D02*
D03*
X97375D02*
D03*
X96725D02*
D03*
X96075D02*
D03*
X92075D02*
D03*
X92725D02*
D03*
X93375D02*
D03*
X94075D02*
D03*
X94725D02*
D03*
X95375D02*
D03*
X91375D02*
D03*
X90725D02*
D03*
X90075D02*
D03*
X86075D02*
D03*
X88075D02*
D03*
X88725D02*
D03*
X89375D02*
D03*
X41275Y81625D02*
D03*
X41075Y48375D02*
D03*
X127475Y83775D02*
D03*
X113175Y78525D02*
D03*
X165125Y65875D02*
D03*
Y67375D02*
D03*
Y68875D02*
D03*
Y70375D02*
D03*
Y71875D02*
D03*
Y73375D02*
D03*
Y74875D02*
D03*
Y76375D02*
D03*
Y77875D02*
D03*
Y79375D02*
D03*
Y80875D02*
D03*
Y82375D02*
D03*
Y83875D02*
D03*
Y85375D02*
D03*
Y86875D02*
D03*
Y88375D02*
D03*
Y89875D02*
D03*
Y91375D02*
D03*
Y92875D02*
D03*
Y94375D02*
D03*
Y95875D02*
D03*
Y97375D02*
D03*
Y98875D02*
D03*
X32625Y65875D02*
D03*
Y67375D02*
D03*
Y68875D02*
D03*
Y70375D02*
D03*
Y71875D02*
D03*
Y73375D02*
D03*
Y74875D02*
D03*
Y76375D02*
D03*
Y77875D02*
D03*
Y79375D02*
D03*
Y80875D02*
D03*
Y82375D02*
D03*
Y83875D02*
D03*
Y85375D02*
D03*
Y86875D02*
D03*
Y88375D02*
D03*
Y89875D02*
D03*
Y91375D02*
D03*
Y92875D02*
D03*
Y94375D02*
D03*
Y95875D02*
D03*
Y97375D02*
D03*
Y98875D02*
D03*
D182*
X43944Y56928D02*
D03*
X40006D02*
D03*
X43944Y51022D02*
D03*
X40006D02*
D03*
D183*
X41925Y75725D02*
D03*
X37925D02*
D03*
X45925D02*
D03*
X42925Y67725D02*
D03*
X40925D02*
D03*
X37925D02*
D03*
D184*
X96725Y66125D02*
D03*
X96125D02*
D03*
X95525D02*
D03*
X98625Y77025D02*
D03*
X98975Y77775D02*
D03*
X116925Y94875D02*
D03*
X115425Y95425D02*
D03*
M02*
