%FSLAX24Y24*%
%MOIN*%
G70*
G01*
G75*
%ADD10C,0.0100*%
%ADD11R,0.0380X0.0380*%
%ADD12O,0.0630X0.0110*%
%ADD13R,0.0500X0.0650*%
%ADD14O,0.0189X0.0787*%
%ADD15O,0.0787X0.0189*%
%ADD16R,0.0189X0.0787*%
%ADD17R,0.0500X0.0600*%
%ADD18R,0.0600X0.0500*%
%ADD19R,0.1200X0.0900*%
%ADD20R,0.1614X0.0827*%
%ADD21R,0.0600X0.1250*%
%ADD22R,0.1250X0.0600*%
%ADD23O,0.0110X0.0669*%
%ADD24R,0.0110X0.0669*%
%ADD25O,0.0110X0.0709*%
%ADD26O,0.0157X0.0701*%
%ADD27R,0.0157X0.0701*%
%ADD28O,0.0138X0.0846*%
%ADD29R,0.0709X0.1378*%
%ADD30R,0.1378X0.0709*%
%ADD31R,0.0709X0.1575*%
%ADD32R,0.0709X0.0110*%
%ADD33O,0.0709X0.0110*%
%ADD34O,0.0709X0.0110*%
%ADD35R,0.0600X0.0600*%
%ADD36R,0.1575X0.1181*%
%ADD37R,0.0138X0.0846*%
%ADD38R,0.0551X0.0492*%
%ADD39O,0.0701X0.0157*%
%ADD40R,0.0800X0.0800*%
%ADD41R,0.0787X0.0512*%
%ADD42R,0.0945X0.0906*%
%ADD43O,0.0787X0.0177*%
%ADD44R,0.0787X0.0177*%
%ADD45O,0.0110X0.0630*%
%ADD46R,0.0110X0.0630*%
%ADD47C,0.0400*%
%ADD48R,0.0433X0.0787*%
%ADD49R,0.0787X0.0787*%
%ADD50R,0.0787X0.0394*%
%ADD51R,0.0236X0.0433*%
%ADD52R,0.0472X0.0315*%
%ADD53R,0.0492X0.0551*%
%ADD54R,0.0600X0.1000*%
%ADD55R,0.0380X0.0425*%
%ADD56R,0.0630X0.0110*%
%ADD57O,0.0630X0.0110*%
%ADD58C,0.0120*%
%ADD59C,0.0110*%
%ADD60C,0.0400*%
%ADD61C,0.0500*%
%ADD62C,0.0150*%
%ADD63C,0.0200*%
%ADD64C,0.0080*%
%ADD65C,0.0600*%
%ADD66C,0.1000*%
%ADD67C,0.0320*%
%ADD68C,0.0300*%
%ADD69C,0.0290*%
%ADD70C,0.0380*%
%ADD71C,0.0390*%
%ADD72C,0.0180*%
%ADD73C,0.0130*%
%ADD74C,0.0250*%
%ADD75C,0.0280*%
%ADD76C,0.0170*%
%ADD77C,0.0140*%
%ADD78C,0.0220*%
%ADD79C,0.0090*%
%ADD80C,0.0157*%
%ADD81C,0.0310*%
%ADD82C,0.0270*%
%ADD83C,0.0350*%
%ADD84R,0.5050X0.4500*%
%ADD85R,0.5050X0.9550*%
%ADD86R,0.1350X0.1400*%
%ADD87R,0.0300X0.1229*%
%ADD88R,0.0670X0.0700*%
%ADD89C,0.0620*%
%ADD90P,0.0620X8X0*%
%ADD91C,0.0787*%
%ADD92C,0.0906*%
%ADD93C,0.1000*%
%ADD94C,0.0650*%
%ADD95C,0.0600*%
%ADD96C,0.0500*%
%ADD97C,0.0945*%
%ADD98C,0.1181*%
%ADD99C,0.0118*%
%ADD100C,0.0060*%
%ADD101C,0.0098*%
%ADD102C,0.0079*%
%ADD103C,0.0070*%
%ADD104C,0.0160*%
%ADD105R,0.0130X0.0360*%
%ADD106R,0.0430X0.3100*%
%ADD107R,0.1500X0.0500*%
%ADD108R,0.0300X0.0500*%
D10*
X161039Y97186D02*
X161030Y97288D01*
X161005Y97386D01*
X160964Y97479D01*
X160907Y97564D01*
X160838Y97638D01*
X160756Y97700D01*
X160666Y97747D01*
X160569Y97778D01*
X160469Y97793D01*
X160367Y97791D01*
X160267Y97772D01*
X160172Y97736D01*
X133578Y90388D02*
X133503Y90431D01*
Y90344D01*
X133578Y90388D01*
X161653Y76315D02*
X161597D01*
X161653D01*
X161095Y76425D02*
X161025Y76355D01*
X161375Y76325D02*
X161435Y76385D01*
X45281Y53245D02*
X45301Y53341D01*
X45318Y53437D01*
X45332Y53535D01*
X45343Y53632D01*
X45352Y53730D01*
X45358Y53828D01*
X45360Y53926D01*
Y54024D01*
X45358Y54122D01*
X45352Y54220D01*
X45343Y54318D01*
X45332Y54415D01*
X45318Y54513D01*
X45301Y54609D01*
X45281Y54705D01*
X44930Y53975D02*
X44928Y54075D01*
X44923Y54174D01*
X44915Y54274D01*
X44903Y54373D01*
X44888Y54472D01*
X44870Y54570D01*
X44848Y54667D01*
X44823Y54764D01*
X44795Y54860D01*
X44763Y54954D01*
X44728Y55048D01*
X44691Y55140D01*
X44650Y55231D01*
X44606Y55321D01*
X44559Y55409D01*
X44509Y55496D01*
X44456Y55580D01*
X44400Y55663D01*
X44342Y55744D01*
X44281Y55823D01*
X44217Y55900D01*
X44151Y55975D01*
X44082Y56047D01*
X44011Y56117D01*
X43937Y56184D01*
X43862Y56249D01*
X43784Y56312D01*
X43704Y56372D01*
X43622Y56429D01*
X43538Y56483D01*
X43453Y56534D01*
X43365Y56583D01*
X43276Y56628D01*
X43186Y56671D01*
X43094Y56710D01*
X43001Y56746D01*
X42907Y56779D01*
X42812Y56809D01*
X42716Y56836D01*
X42619Y56859D01*
X42521Y56879D01*
X42422Y56896D01*
X42324Y56909D01*
X42224Y56920D01*
X42125Y56926D01*
X42025Y56930D01*
X41925D01*
X41825Y56926D01*
X41726Y56920D01*
X41626Y56909D01*
X41528Y56896D01*
X41429Y56879D01*
X41331Y56859D01*
X41234Y56836D01*
X41138Y56809D01*
X41043Y56779D01*
X40949Y56746D01*
X40856Y56710D01*
X40764Y56671D01*
X40674Y56628D01*
X40585Y56583D01*
X40497Y56534D01*
X40412Y56483D01*
X40328Y56429D01*
X40246Y56372D01*
X40166Y56312D01*
X40088Y56249D01*
X40013Y56184D01*
X39939Y56117D01*
X39868Y56047D01*
X39799Y55975D01*
X39733Y55900D01*
X39669Y55823D01*
X39608Y55744D01*
X39550Y55663D01*
X39494Y55580D01*
X39441Y55496D01*
X39391Y55409D01*
X39344Y55321D01*
X39300Y55231D01*
X39259Y55140D01*
X39222Y55048D01*
X39187Y54954D01*
X39155Y54860D01*
X39127Y54764D01*
X39102Y54667D01*
X39080Y54570D01*
X39062Y54472D01*
X39047Y54373D01*
X39035Y54274D01*
X39027Y54174D01*
X39022Y54075D01*
X39020Y53975D01*
X39022Y53875D01*
X39027Y53776D01*
X39035Y53676D01*
X39047Y53577D01*
X39062Y53478D01*
X39080Y53380D01*
X39102Y53283D01*
X39127Y53186D01*
X39155Y53090D01*
X39187Y52996D01*
X39222Y52902D01*
X39259Y52810D01*
X39300Y52719D01*
X39344Y52629D01*
X39391Y52541D01*
X39441Y52454D01*
X39494Y52370D01*
X39550Y52287D01*
X39608Y52206D01*
X39669Y52127D01*
X39733Y52050D01*
X39799Y51975D01*
X39868Y51903D01*
X39939Y51833D01*
X40013Y51766D01*
X40088Y51701D01*
X40166Y51638D01*
X40246Y51578D01*
X40328Y51521D01*
X40412Y51467D01*
X40497Y51416D01*
X40585Y51367D01*
X40674Y51322D01*
X40764Y51279D01*
X40856Y51240D01*
X40949Y51204D01*
X41043Y51171D01*
X41138Y51141D01*
X41234Y51114D01*
X41331Y51091D01*
X41429Y51071D01*
X41528Y51054D01*
X41626Y51041D01*
X41726Y51030D01*
X41825Y51024D01*
X41925Y51020D01*
X42025Y51020D01*
X42125Y51024D01*
X42224Y51030D01*
X42324Y51041D01*
X42422Y51054D01*
X42521Y51071D01*
X42619Y51091D01*
X42716Y51114D01*
X42812Y51141D01*
X42907Y51171D01*
X43001Y51204D01*
X43094Y51240D01*
X43186Y51279D01*
X43276Y51322D01*
X43365Y51367D01*
X43453Y51416D01*
X43538Y51467D01*
X43622Y51521D01*
X43704Y51578D01*
X43784Y51638D01*
X43862Y51701D01*
X43937Y51766D01*
X44011Y51833D01*
X44082Y51903D01*
X44151Y51975D01*
X44217Y52050D01*
X44281Y52127D01*
X44342Y52206D01*
X44400Y52287D01*
X44456Y52370D01*
X44509Y52454D01*
X44559Y52541D01*
X44606Y52629D01*
X44650Y52719D01*
X44691Y52810D01*
X44728Y52902D01*
X44763Y52996D01*
X44795Y53090D01*
X44823Y53186D01*
X44848Y53283D01*
X44870Y53380D01*
X44888Y53478D01*
X44903Y53577D01*
X44915Y53676D01*
X44923Y53776D01*
X44928Y53875D01*
X44930Y53975D01*
X38669Y54705D02*
X38649Y54609D01*
X38632Y54513D01*
X38618Y54415D01*
X38607Y54318D01*
X38598Y54220D01*
X38592Y54122D01*
X38590Y54024D01*
Y53926D01*
X38592Y53828D01*
X38598Y53730D01*
X38607Y53632D01*
X38618Y53535D01*
X38632Y53437D01*
X38649Y53341D01*
X38669Y53245D01*
X104275Y74925D02*
X110075D01*
X92275Y74825D02*
X94525D01*
X135575Y98975D02*
X138875D01*
X92275D02*
X98175D01*
X35625Y44125D02*
Y77025D01*
Y44125D02*
X49375D01*
X35675Y79425D02*
Y82825D01*
X110075Y60925D02*
Y80275D01*
X49375Y44125D02*
Y82825D01*
X35675D02*
X49375D01*
X92275Y74825D02*
Y98975D01*
X83375Y74825D02*
X92275D01*
X83375Y49625D02*
Y74825D01*
X110575Y51725D02*
X138875D01*
Y98975D01*
X42987Y61482D02*
Y61882D01*
X42787Y61682D02*
X43187D01*
X40205Y63325D02*
Y64425D01*
X43605Y63325D02*
Y63925D01*
X40205Y64425D02*
X43105D01*
X40205Y61025D02*
Y62125D01*
X43605Y61525D02*
Y62125D01*
X40205Y61025D02*
X43105D01*
X43605Y61525D01*
X43105Y64425D02*
X43605Y63925D01*
X40675Y59125D02*
X41325D01*
X40675Y57625D02*
X41325D01*
X42675D02*
X43325D01*
X42675Y59125D02*
X43325D01*
X40675Y57625D02*
Y59125D01*
X43325Y57625D02*
Y59125D01*
X40675Y50275D02*
X41325D01*
X40675Y48775D02*
X41325D01*
X42675D02*
X43325D01*
X42675Y50275D02*
X43325D01*
X40675Y48775D02*
Y50275D01*
X43325Y48775D02*
Y50275D01*
X42675Y59275D02*
X43325D01*
X42675Y60775D02*
X43325D01*
X40675D02*
X41325D01*
X40675Y59275D02*
X41325D01*
X43325D02*
Y60775D01*
X40675Y59275D02*
Y60775D01*
X38075Y59625D02*
Y60275D01*
X39575Y59625D02*
Y60275D01*
Y61625D02*
Y62275D01*
X38075Y61625D02*
Y62275D01*
Y59625D02*
X39575D01*
X38075Y62275D02*
X39575D01*
X100525Y109080D02*
Y109651D01*
X99738Y109375D02*
X101312D01*
X99147Y108312D02*
Y108391D01*
X101903Y108312D02*
Y108391D01*
X99147Y109493D02*
Y110281D01*
X101903Y109493D02*
Y110281D01*
Y110950D01*
X99147D02*
X101903D01*
X99147Y110281D02*
Y110950D01*
X101214D02*
Y113214D01*
X99836Y110950D02*
Y113214D01*
X101214D01*
X99147Y108312D02*
X101903D01*
X101056Y112032D02*
X101214D01*
X99836D02*
X99993D01*
X102625Y73175D02*
X102725D01*
X102825D01*
X102725Y73275D02*
X102925D01*
X102525D02*
X102725D01*
X102425Y73375D02*
X102725Y73075D01*
X102425Y73375D02*
X103025D01*
X102725Y73075D02*
X103025Y73375D01*
X103325Y84025D02*
X103425D01*
X103525D01*
X103425Y84125D02*
X103625D01*
X103225D02*
X103425D01*
X103125Y84225D02*
X103425Y83925D01*
X103125Y84225D02*
X103725D01*
X103425Y83925D02*
X103725Y84225D01*
X151625Y78225D02*
X152325D01*
X151625Y77525D02*
Y78225D01*
Y77525D02*
X152325D01*
Y78225D01*
X152625D02*
X153325D01*
X152625Y77525D02*
Y78225D01*
Y77525D02*
X153325D01*
Y78225D01*
X153625D02*
X154325D01*
X153625Y77525D02*
Y78225D01*
Y77525D02*
X154325D01*
Y78225D01*
X154625D02*
X155325D01*
X154625Y77525D02*
Y78225D01*
Y77525D02*
X155325D01*
Y78225D01*
X155625D02*
X156325D01*
X155625Y77525D02*
Y78225D01*
Y77525D02*
X156325D01*
Y78225D01*
X156625D02*
X157325D01*
X156625Y77525D02*
Y78225D01*
Y77525D02*
X157325D01*
Y78225D01*
X157625D02*
X158325D01*
X157625Y77525D02*
Y78225D01*
Y77525D02*
X158325D01*
Y78225D01*
X158625D02*
X159325D01*
X158625Y77525D02*
Y78225D01*
Y77525D02*
X159325D01*
Y78225D01*
X159625D02*
X160325D01*
X159625Y77525D02*
Y78225D01*
Y77525D02*
X160325D01*
Y78225D01*
X89825Y62525D02*
Y63225D01*
X88925Y62525D02*
Y63225D01*
Y60975D02*
Y61675D01*
X89825Y60975D02*
Y61675D01*
X88925Y63225D02*
X89825D01*
X88925Y60975D02*
X89825D01*
X126775Y101475D02*
Y102125D01*
X128275Y101475D02*
Y102125D01*
Y103475D02*
Y104125D01*
X126775Y103475D02*
Y104125D01*
Y101475D02*
X128275D01*
X126775Y104125D02*
X128275D01*
X136225Y84325D02*
Y85025D01*
X137125Y84325D02*
Y85025D01*
Y85875D02*
Y86575D01*
X136225Y85875D02*
Y86575D01*
Y84325D02*
X137125D01*
X136225Y86575D02*
X137125D01*
X130975Y95475D02*
Y96175D01*
X131875Y95475D02*
Y96175D01*
Y97025D02*
Y97725D01*
X130975Y97025D02*
Y97725D01*
Y95475D02*
X131875D01*
X130975Y97725D02*
X131875D01*
X127275Y95675D02*
Y96375D01*
X128175Y95675D02*
Y96375D01*
Y97225D02*
Y97925D01*
X127275Y97225D02*
Y97925D01*
Y95675D02*
X128175D01*
X127275Y97925D02*
X128175D01*
X121925Y112475D02*
Y113875D01*
X127725Y112475D02*
Y113875D01*
X121925Y106525D02*
Y110275D01*
X127725Y106525D02*
Y110275D01*
X121925Y113875D02*
X127725D01*
X121925Y106525D02*
X127725D01*
X127490Y112693D02*
X127725D01*
X121925D02*
X122160D01*
X124625Y110675D02*
X125025D01*
X124825Y110475D02*
Y110875D01*
X127725Y111075D02*
Y111275D01*
X121925Y111075D02*
Y111275D01*
X129775Y113875D02*
X136075D01*
X129775Y105375D02*
X129775Y107814D01*
X129775Y105375D02*
X136075D01*
X129775Y112686D02*
X129962D01*
X135888D02*
X136075D01*
X132925Y109225D02*
Y110025D01*
X132525Y109625D02*
X133325D01*
X129775Y113875D02*
X129775Y109034D01*
X136075Y105375D02*
X136075Y107814D01*
X136075Y113875D02*
X136075Y109034D01*
X135225Y83725D02*
X135625D01*
X135225Y83775D02*
X135625D01*
Y82775D02*
Y84775D01*
X132425Y82775D02*
Y84775D01*
X135225Y83875D02*
X135625D01*
X135225Y83625D02*
Y83875D01*
Y83625D02*
X135625D01*
X126648Y86174D02*
Y86574D01*
X126176Y86322D02*
Y88527D01*
X126569Y85928D02*
X127042D01*
X126176Y88527D02*
X127042D01*
X126448Y86374D02*
X126848D01*
X126176Y86322D02*
X126569Y85928D01*
X128774Y86322D02*
Y88527D01*
X127908Y85928D02*
X128381D01*
X127908Y88527D02*
X128774D01*
X128381Y85928D02*
X128774Y86322D01*
X121981Y86028D02*
X122374Y86422D01*
X121508Y88627D02*
X122374D01*
X121508Y86028D02*
X121981D01*
X122374Y86422D02*
Y88627D01*
X119776Y86422D02*
X120169Y86028D01*
X120048Y86474D02*
X120448D01*
X119776Y88627D02*
X120642D01*
X120169Y86028D02*
X120642D01*
X119776Y86422D02*
Y88627D01*
X120248Y86274D02*
Y86674D01*
X135825Y75879D02*
Y78242D01*
X134525Y75879D02*
Y78242D01*
X116075Y78525D02*
X116775D01*
X116075Y79425D02*
X116775D01*
X114525D02*
X115225D01*
X114525Y78525D02*
X115225D01*
X116775D02*
Y79425D01*
X114525Y78525D02*
Y79425D01*
X132675Y73525D02*
X133375D01*
X132675Y74425D02*
X133375D01*
X131125D02*
X131825D01*
X131125Y73525D02*
X131825D01*
X133375D02*
Y74425D01*
X131125Y73525D02*
Y74425D01*
X86825Y62975D02*
Y63375D01*
X86575Y62975D02*
X86825D01*
X86575D02*
Y63375D01*
X85675Y60175D02*
X87675D01*
X85675Y63375D02*
X87675D01*
X86675Y62975D02*
Y63375D01*
X86725Y62975D02*
Y63375D01*
X90878Y66669D02*
X91272Y66276D01*
X93477D02*
Y67142D01*
X90878Y66669D02*
Y67142D01*
X91272Y66276D02*
X93477D01*
X90878Y68481D02*
X91272Y68874D01*
X91324Y68202D02*
Y68602D01*
X93477Y68008D02*
Y68874D01*
X90878Y68008D02*
Y68481D01*
X91272Y68874D02*
X93477D01*
X91124Y68402D02*
X91524D01*
X85998Y68074D02*
Y68474D01*
X85526Y68222D02*
Y70427D01*
X85919Y67828D02*
X86392D01*
X85526Y70427D02*
X86392D01*
X85798Y68274D02*
X86198D01*
X85526Y68222D02*
X85919Y67828D01*
X88124Y68222D02*
Y70427D01*
X87258Y67828D02*
X87731D01*
X87258Y70427D02*
X88124D01*
X87731Y67828D02*
X88124Y68222D01*
X120725Y101775D02*
X122225D01*
X120725Y99125D02*
X122225D01*
X120725Y101125D02*
Y101775D01*
X122225Y101125D02*
Y101775D01*
Y99125D02*
Y99775D01*
X120725Y99125D02*
Y99775D01*
X105675Y101825D02*
X107175D01*
X105675Y99175D02*
X107175D01*
X105675Y101175D02*
Y101825D01*
X107175Y101175D02*
Y101825D01*
Y99175D02*
Y99825D01*
X105675Y99175D02*
Y99825D01*
X112925Y94125D02*
Y95025D01*
X115175Y94125D02*
Y95025D01*
X112925Y94125D02*
X113625D01*
X112925Y95025D02*
X113625D01*
X114475D02*
X115175D01*
X114475Y94125D02*
X115175D01*
X108231Y108699D02*
X119649D01*
X108231Y107321D02*
Y108699D01*
X119649Y107321D02*
Y108699D01*
Y96691D02*
Y98974D01*
X118625Y96691D02*
X119649D01*
X108231D02*
Y98935D01*
Y96691D02*
X109806D01*
X108231Y99978D02*
Y106297D01*
X119649Y102203D02*
Y103974D01*
X109542Y111179D02*
X119188D01*
Y108699D02*
Y111179D01*
X109542Y108699D02*
Y111179D01*
X34645Y78925D02*
X35295D01*
X34645Y77425D02*
X35295D01*
X36645D02*
X37295D01*
X36645Y78925D02*
X37295D01*
X34645Y77425D02*
Y78925D01*
X37295Y77425D02*
Y78925D01*
X98725Y101825D02*
X100225D01*
X98725Y99175D02*
X100225D01*
X98725Y101175D02*
Y101825D01*
X100225Y101175D02*
Y101825D01*
Y99175D02*
Y99825D01*
X98725Y99175D02*
Y99825D01*
X80375Y45125D02*
X82875D01*
X80375Y42125D02*
X81375D01*
Y40125D02*
X116375D01*
Y42125D02*
X117375D01*
X114875Y45125D02*
X117375D01*
X82875Y44625D02*
X114875D01*
X80375Y42125D02*
Y45125D01*
X81375Y40125D02*
Y42125D01*
X116375Y40125D02*
Y42125D01*
X117375D02*
Y45125D01*
X82875Y44625D02*
Y45125D01*
X114875Y44625D02*
Y45125D01*
X46975Y57425D02*
Y58075D01*
X45475Y57425D02*
Y58075D01*
Y55425D02*
Y56075D01*
X46975Y55425D02*
Y56075D01*
X45475Y58075D02*
X46975D01*
X45475Y55425D02*
X46975D01*
X36975D02*
Y56075D01*
X38475Y55425D02*
Y56075D01*
Y57425D02*
Y58075D01*
X36975Y57425D02*
Y58075D01*
Y55425D02*
X38475D01*
X36975Y58075D02*
X38475D01*
X45675Y77475D02*
X46375D01*
X45675Y78375D02*
X46375D01*
X44125D02*
X44825D01*
X44125Y77475D02*
X44825D01*
X46375D02*
Y78375D01*
X44125Y77475D02*
Y78375D01*
X103986Y112032D02*
X104143D01*
X105206D02*
X105364D01*
X103297Y108312D02*
X106053D01*
X103986Y113214D02*
X105364D01*
X103986Y110950D02*
Y113214D01*
X105364Y110950D02*
Y113214D01*
X103297Y110281D02*
Y110950D01*
X106053D01*
Y110281D02*
Y110950D01*
Y109493D02*
Y110281D01*
X103297Y109493D02*
Y110281D01*
X106053Y108312D02*
Y108391D01*
X103297Y108312D02*
Y108391D01*
X103888Y109375D02*
X105462D01*
X104675Y109080D02*
Y109651D01*
X40775Y64725D02*
Y66025D01*
X43025Y64725D02*
Y66025D01*
X40775Y64725D02*
X41475D01*
X40775Y66025D02*
X41475D01*
X42325D02*
X43025D01*
X42325Y64725D02*
X43025D01*
X161025Y76285D02*
Y76355D01*
X161095Y76425D02*
X161375Y76325D01*
X161435Y76385D02*
Y76435D01*
X160725Y72625D02*
Y78375D01*
X158525Y82825D02*
Y92225D01*
X105425Y63525D02*
Y64425D01*
X103175Y63525D02*
Y64425D01*
X104725D02*
X105425D01*
X104725Y63525D02*
X105425D01*
X103175D02*
X103875D01*
X103175Y64425D02*
X103875D01*
X91475Y51975D02*
X92375D01*
X91475Y54225D02*
X92375D01*
Y51975D02*
Y52675D01*
X91475Y51975D02*
Y52675D01*
Y53525D02*
Y54225D01*
X92375Y53525D02*
Y54225D01*
X92525Y51975D02*
X93425D01*
X92525Y54225D02*
X93425D01*
Y51975D02*
Y52675D01*
X92525Y51975D02*
Y52675D01*
Y53525D02*
Y54225D01*
X93425Y53525D02*
Y54225D01*
X103525Y52525D02*
X104425D01*
X103525Y54775D02*
X104425D01*
Y52525D02*
Y53225D01*
X103525Y52525D02*
Y53225D01*
Y54075D02*
Y54775D01*
X104425Y54075D02*
Y54775D01*
X44495Y56810D02*
X45281Y54705D01*
X40164Y57479D02*
X43786D01*
X38669Y54705D02*
X39455Y56810D01*
X44495Y51140D02*
X45281Y53245D01*
X40164Y50471D02*
X43786D01*
X38669Y53245D02*
X39455Y51140D01*
X84777Y48125D02*
X85065D01*
X84908Y47915D01*
X84987D01*
X85039Y47889D01*
X85065Y47863D01*
X85092Y47784D01*
Y47732D01*
X85065Y47654D01*
X85013Y47601D01*
X84934Y47575D01*
X84856D01*
X84777Y47601D01*
X84751Y47627D01*
X84725Y47680D01*
X85372Y48125D02*
X85293Y48099D01*
X85241Y48020D01*
X85215Y47889D01*
Y47811D01*
X85241Y47680D01*
X85293Y47601D01*
X85372Y47575D01*
X85424D01*
X85503Y47601D01*
X85555Y47680D01*
X85581Y47811D01*
Y47889D01*
X85555Y48020D01*
X85503Y48099D01*
X85424Y48125D01*
X85372D01*
X106956Y48025D02*
X106877Y47999D01*
X106851Y47946D01*
Y47894D01*
X106877Y47842D01*
X106930Y47815D01*
X107034Y47789D01*
X107113Y47763D01*
X107165Y47711D01*
X107192Y47658D01*
Y47580D01*
X107165Y47527D01*
X107139Y47501D01*
X107061Y47475D01*
X106956D01*
X106877Y47501D01*
X106851Y47527D01*
X106825Y47580D01*
Y47658D01*
X106851Y47711D01*
X106904Y47763D01*
X106982Y47789D01*
X107087Y47815D01*
X107139Y47842D01*
X107165Y47894D01*
Y47946D01*
X107139Y47999D01*
X107061Y48025D01*
X106956D01*
X110937D02*
X110675Y47658D01*
X111068D01*
X110937Y48025D02*
Y47475D01*
X99225Y107875D02*
X99625D01*
X99825Y107675D01*
X99625Y107475D01*
X99225D01*
X99525D01*
Y107875D01*
X99825Y107275D02*
X99425D01*
X99225Y107075D01*
X99425Y106875D01*
X99825D01*
X99225Y106675D02*
X99825D01*
Y106375D01*
X99725Y106276D01*
X99525D01*
X99425Y106375D01*
Y106675D01*
Y106475D02*
X99225Y106276D01*
X153275Y76675D02*
Y76475D01*
Y76575D01*
X152675D01*
Y76675D01*
Y76475D01*
X153175Y75775D02*
X153275Y75875D01*
Y76075D01*
X153175Y76175D01*
X152775D01*
X152675Y76075D01*
Y75875D01*
X152775Y75775D01*
X152975Y75575D02*
Y75175D01*
X153175Y74576D02*
X153275Y74676D01*
Y74876D01*
X153175Y74976D01*
X152775D01*
X152675Y74876D01*
Y74676D01*
X152775Y74576D01*
X153275Y74376D02*
X152775D01*
X152675Y74276D01*
Y74076D01*
X152775Y73976D01*
X153275D01*
X152675Y73376D02*
Y73776D01*
X153075Y73376D01*
X153175D01*
X153275Y73476D01*
Y73676D01*
X153175Y73776D01*
X152275Y76675D02*
Y76475D01*
Y76575D01*
X151675D01*
Y76675D01*
Y76475D01*
Y76175D02*
X152275D01*
Y75875D01*
X152175Y75775D01*
X151975D01*
X151875Y75875D01*
Y76175D01*
X152275Y75575D02*
X151775D01*
X151675Y75475D01*
Y75275D01*
X151775Y75175D01*
X152275D01*
X130975Y104975D02*
X130375D01*
Y104575D01*
Y104375D02*
X130775D01*
X130975Y104175D01*
X130775Y103975D01*
X130375D01*
X130675D01*
Y104375D01*
X130375Y103775D02*
X130975D01*
X130375Y103376D01*
X130975D01*
X115725Y111855D02*
X115825Y111755D01*
X116025D01*
X116125Y111855D01*
Y111955D01*
X116025Y112055D01*
X115825D01*
X115725Y112155D01*
Y112255D01*
X115825Y112355D01*
X116025D01*
X116125Y112255D01*
X115525Y111755D02*
Y112355D01*
X115225D01*
X115125Y112255D01*
Y111855D01*
X115225Y111755D01*
X115525D01*
X114925Y112355D02*
X114526Y111955D01*
X114326Y112355D02*
Y111755D01*
X114126Y111955D01*
X113926Y111755D01*
Y112355D01*
X113726D02*
Y111755D01*
X113526Y111955D01*
X113326Y111755D01*
Y112355D01*
X112726Y111855D02*
X112826Y111755D01*
X113026D01*
X113126Y111855D01*
Y112255D01*
X113026Y112355D01*
X112826D01*
X112726Y112255D01*
X159945Y92855D02*
Y92655D01*
Y92755D01*
X159345D01*
Y92855D01*
Y92655D01*
Y92355D02*
X159945D01*
Y92055D01*
X159845Y91955D01*
X159645D01*
X159545Y92055D01*
Y92355D01*
X159945Y91755D02*
Y91355D01*
Y91555D01*
X159345D01*
X159845Y90756D02*
X159945Y90856D01*
Y91056D01*
X159845Y91156D01*
X159445D01*
X159345Y91056D01*
Y90856D01*
X159445Y90756D01*
X159345Y89956D02*
X159745D01*
X159945Y89756D01*
X159745Y89556D01*
X159345D01*
X159645D01*
Y89956D01*
X159945Y89356D02*
X159345D01*
Y89056D01*
X159445Y88956D01*
X159545D01*
X159645Y89056D01*
Y89356D01*
Y89056D01*
X159745Y88956D01*
X159845D01*
X159945Y89056D01*
Y89356D01*
X102625Y72225D02*
X102792D01*
X102708D01*
Y72725D01*
X102625Y72642D01*
X122925Y105975D02*
X123025Y106075D01*
Y106275D01*
X122925Y106375D01*
X122525D01*
X122425Y106275D01*
Y106075D01*
X122525Y105975D01*
X122425Y105675D02*
Y105475D01*
X122525Y105375D01*
X122725D01*
X122825Y105475D01*
Y105675D01*
X122725Y105775D01*
X122525D01*
X122425Y105675D01*
Y105175D02*
X122825D01*
Y104875D01*
X122725Y104776D01*
X122425D01*
Y104576D02*
Y104276D01*
X122525Y104176D01*
X122625Y104276D01*
Y104476D01*
X122725Y104576D01*
X122825Y104476D01*
Y104176D01*
X122425Y103876D02*
Y103676D01*
X122525Y103576D01*
X122725D01*
X122825Y103676D01*
Y103876D01*
X122725Y103976D01*
X122525D01*
X122425Y103876D01*
Y103376D02*
Y103176D01*
Y103276D01*
X123025D01*
Y103376D01*
X122425Y102576D02*
Y102776D01*
X122525Y102876D01*
X122725D01*
X122825Y102776D01*
Y102576D01*
X122725Y102476D01*
X122625D01*
Y102876D01*
X103425Y108025D02*
X104025D01*
Y107725D01*
X103925Y107625D01*
X103725D01*
X103625Y107725D01*
Y108025D01*
Y107825D02*
X103425Y107625D01*
X104025Y107025D02*
Y107425D01*
X103425D01*
Y107025D01*
X103725Y107425D02*
Y107225D01*
X103925Y106426D02*
X104025Y106525D01*
Y106725D01*
X103925Y106825D01*
X103825D01*
X103725Y106725D01*
Y106525D01*
X103625Y106426D01*
X103525D01*
X103425Y106525D01*
Y106725D01*
X103525Y106825D01*
X104025Y105826D02*
Y106226D01*
X103425D01*
Y105826D01*
X103725Y106226D02*
Y106026D01*
X104025Y105626D02*
Y105226D01*
Y105426D01*
X103425D01*
X109608Y72775D02*
X109442Y72692D01*
X109275Y72525D01*
Y72358D01*
X109358Y72275D01*
X109525D01*
X109608Y72358D01*
Y72442D01*
X109525Y72525D01*
X109275D01*
X106075Y73775D02*
X105875D01*
X105975D01*
Y73275D01*
X105875Y73175D01*
X105775D01*
X105675Y73275D01*
X106275Y73775D02*
X106675D01*
X106475D01*
Y73175D01*
X106875D02*
Y73575D01*
X107075Y73775D01*
X107274Y73575D01*
Y73175D01*
Y73475D01*
X106875D01*
X107874Y73675D02*
X107774Y73775D01*
X107574D01*
X107474Y73675D01*
Y73275D01*
X107574Y73175D01*
X107774D01*
X107874Y73275D01*
Y73475D01*
X107674D01*
X82990Y48223D02*
X83251D01*
X83109Y48033D01*
X83180D01*
X83228Y48009D01*
X83251Y47985D01*
X83275Y47914D01*
Y47866D01*
X83251Y47795D01*
X83204Y47747D01*
X83132Y47723D01*
X83061D01*
X82990Y47747D01*
X82966Y47771D01*
X82942Y47819D01*
X83411Y48104D02*
Y48128D01*
X83435Y48176D01*
X83458Y48200D01*
X83506Y48223D01*
X83601D01*
X83649Y48200D01*
X83673Y48176D01*
X83697Y48128D01*
Y48080D01*
X83673Y48033D01*
X83625Y47961D01*
X83387Y47723D01*
X83720D01*
X113163Y48104D02*
Y48128D01*
X113186Y48176D01*
X113210Y48200D01*
X113258Y48223D01*
X113353D01*
X113401Y48200D01*
X113424Y48176D01*
X113448Y48128D01*
Y48080D01*
X113424Y48033D01*
X113377Y47961D01*
X113139Y47723D01*
X113472D01*
X114371Y47089D02*
X114071D01*
X113971Y46989D01*
Y46789D01*
X114071Y46689D01*
X114371D01*
X114021Y46389D02*
Y45789D01*
X114321D01*
X114421Y45889D01*
Y45989D01*
Y46089D01*
X114321Y46189D01*
X114021D01*
X114071Y45439D02*
X114271D01*
X114371Y45339D01*
Y45039D01*
X114071D01*
X113971Y45139D01*
X114071Y45239D01*
X114371D01*
X161625Y78325D02*
X161025Y77925D01*
X161625D02*
X161025Y78325D01*
Y77725D02*
X161625D01*
Y77425D01*
X161525Y77325D01*
X161325D01*
X161225Y77425D01*
Y77725D01*
X161625Y77125D02*
X161125D01*
X161025Y77025D01*
Y76825D01*
X161125Y76726D01*
X161625D01*
X161025Y75326D02*
X161425D01*
X161625Y75126D01*
X161425Y74926D01*
X161025D01*
X161325D01*
Y75326D01*
X161025Y74726D02*
Y74526D01*
Y74626D01*
X161625D01*
Y74726D01*
X161025Y74226D02*
Y74026D01*
Y74126D01*
X161425D01*
Y74226D01*
Y73627D02*
Y73427D01*
X161325Y73327D01*
X161025D01*
Y73627D01*
X161125Y73726D01*
X161225Y73627D01*
Y73327D01*
X161025Y73127D02*
Y72827D01*
X161125Y72727D01*
X161225Y72827D01*
Y73027D01*
X161325Y73127D01*
X161425Y73027D01*
Y72727D01*
X154275Y76725D02*
X153675D01*
Y76425D01*
X153775Y76325D01*
X153875D01*
X153975Y76425D01*
Y76725D01*
Y76425D01*
X154075Y76325D01*
X154175D01*
X154275Y76425D01*
Y76725D01*
Y76125D02*
Y75725D01*
Y75925D01*
X153675D01*
X154275Y75525D02*
X153775D01*
X153675Y75425D01*
Y75225D01*
X153775Y75126D01*
X154275D01*
X153975Y74926D02*
Y74526D01*
X154275Y74326D02*
X153675D01*
Y74026D01*
X153775Y73926D01*
X154175D01*
X154275Y74026D01*
Y74326D01*
X155275Y76725D02*
X154675D01*
Y76425D01*
X154775Y76325D01*
X154875D01*
X154975Y76425D01*
Y76725D01*
Y76425D01*
X155075Y76325D01*
X155175D01*
X155275Y76425D01*
Y76725D01*
Y76125D02*
Y75725D01*
Y75925D01*
X154675D01*
X155275Y75525D02*
X154775D01*
X154675Y75425D01*
Y75225D01*
X154775Y75126D01*
X155275D01*
X154975Y74926D02*
Y74526D01*
X155175Y73926D02*
X155275Y74026D01*
Y74226D01*
X155175Y74326D01*
X154775D01*
X154675Y74226D01*
Y74026D01*
X154775Y73926D01*
X156275Y76725D02*
X155675D01*
Y76425D01*
X155775Y76325D01*
X155875D01*
X155975Y76425D01*
Y76725D01*
Y76425D01*
X156075Y76325D01*
X156175D01*
X156275Y76425D01*
Y76725D01*
Y76125D02*
Y75725D01*
Y75925D01*
X155675D01*
X156275Y75525D02*
X155775D01*
X155675Y75425D01*
Y75225D01*
X155775Y75126D01*
X156275D01*
X155975Y74926D02*
Y74526D01*
X156275Y74326D02*
X155675D01*
Y74026D01*
X155775Y73926D01*
X155875D01*
X155975Y74026D01*
Y74326D01*
Y74026D01*
X156075Y73926D01*
X156175D01*
X156275Y74026D01*
Y74326D01*
X157275Y76725D02*
X156675D01*
Y76425D01*
X156775Y76325D01*
X156875D01*
X156975Y76425D01*
Y76725D01*
Y76425D01*
X157075Y76325D01*
X157175D01*
X157275Y76425D01*
Y76725D01*
Y76125D02*
Y75725D01*
Y75925D01*
X156675D01*
X157275Y75525D02*
X156775D01*
X156675Y75425D01*
Y75225D01*
X156775Y75126D01*
X157275D01*
X156975Y74926D02*
Y74526D01*
X156675Y74326D02*
X157075D01*
X157275Y74126D01*
X157075Y73926D01*
X156675D01*
X156975D01*
Y74326D01*
X158275Y76325D02*
Y76725D01*
X157675D01*
Y76325D01*
X157975Y76725D02*
Y76525D01*
X158275Y76125D02*
X157675D01*
Y75725D01*
X158275Y75525D02*
X157775D01*
X157675Y75425D01*
Y75225D01*
X157775Y75126D01*
X158275D01*
X157975Y74926D02*
Y74526D01*
X158275Y74326D02*
X157675D01*
Y74026D01*
X157775Y73926D01*
X158175D01*
X158275Y74026D01*
Y74326D01*
X159275Y76325D02*
Y76725D01*
X158675D01*
Y76325D01*
X158975Y76725D02*
Y76525D01*
X159275Y76125D02*
X158675D01*
Y75725D01*
X159275Y75525D02*
X158775D01*
X158675Y75425D01*
Y75225D01*
X158775Y75126D01*
X159275D01*
X158975Y74926D02*
Y74526D01*
X158675Y74326D02*
X159075D01*
X159275Y74126D01*
X159075Y73926D01*
X158675D01*
X158975D01*
Y74326D01*
X160175Y76325D02*
X160275Y76425D01*
Y76625D01*
X160175Y76725D01*
X159775D01*
X159675Y76625D01*
Y76425D01*
X159775Y76325D01*
X159675Y76125D02*
X160275D01*
Y75825D01*
X160175Y75725D01*
X159975D01*
X159875Y75825D01*
Y76125D01*
X160275Y75525D02*
X159775D01*
X159675Y75425D01*
Y75225D01*
X159775Y75126D01*
X160275D01*
X159975Y74926D02*
Y74526D01*
X160275Y74326D02*
X159675D01*
Y74026D01*
X159775Y73926D01*
X160175D01*
X160275Y74026D01*
Y74326D01*
X122525Y47025D02*
X122125D01*
X122525Y47425D01*
Y47525D01*
X122425Y47625D01*
X122225D01*
X122125Y47525D01*
X122725D02*
X122825Y47625D01*
X123025D01*
X123125Y47525D01*
Y47125D01*
X123025Y47025D01*
X122825D01*
X122725Y47125D01*
Y47525D01*
X123325D02*
X123425Y47625D01*
X123625D01*
X123724Y47525D01*
Y47125D01*
X123625Y47025D01*
X123425D01*
X123325Y47125D01*
Y47525D01*
X124324Y47625D02*
X124124Y47525D01*
X123924Y47325D01*
Y47125D01*
X124024Y47025D01*
X124224D01*
X124324Y47125D01*
Y47225D01*
X124224Y47325D01*
X123924D01*
X124524Y47025D02*
X124724D01*
X124624D01*
Y47625D01*
X124524Y47525D01*
X125024D02*
X125124Y47625D01*
X125324D01*
X125424Y47525D01*
Y47125D01*
X125324Y47025D01*
X125124D01*
X125024Y47125D01*
Y47525D01*
X126024Y47025D02*
X125624D01*
X126024Y47425D01*
Y47525D01*
X125924Y47625D01*
X125724D01*
X125624Y47525D01*
X126624Y47025D02*
X126224D01*
X126624Y47425D01*
Y47525D01*
X126524Y47625D01*
X126324D01*
X126224Y47525D01*
X94525Y107375D02*
X94625Y107475D01*
Y107675D01*
X94525Y107775D01*
X94425D01*
X94325Y107675D01*
Y107475D01*
X94225Y107375D01*
X94125D01*
X94025Y107475D01*
Y107675D01*
X94125Y107775D01*
X94525Y107075D02*
X94425D01*
Y107175D01*
Y106975D01*
Y107075D01*
X94125D01*
X94025Y106975D01*
X94425Y106575D02*
Y106375D01*
X94325Y106275D01*
X94025D01*
Y106575D01*
X94125Y106675D01*
X94225Y106575D01*
Y106275D01*
X94525Y105976D02*
X94425D01*
Y106076D01*
Y105876D01*
Y105976D01*
X94125D01*
X94025Y105876D01*
X94425Y105576D02*
X94125D01*
X94025Y105476D01*
Y105176D01*
X94425D01*
X94025Y104976D02*
Y104676D01*
X94125Y104576D01*
X94225Y104676D01*
Y104876D01*
X94325Y104976D01*
X94425Y104876D01*
Y104576D01*
X31275Y44075D02*
X31280Y43977D01*
X31294Y43880D01*
X31318Y43785D01*
X31351Y43692D01*
X31393Y43604D01*
X31444Y43519D01*
X31502Y43441D01*
X31568Y43368D01*
X31641Y43302D01*
X31719Y43244D01*
X31804Y43193D01*
X31892Y43151D01*
X31985Y43118D01*
X32080Y43094D01*
X32177Y43080D01*
X32275Y43075D01*
X165475D02*
X165573Y43080D01*
X165670Y43094D01*
X165765Y43118D01*
X165858Y43151D01*
X165946Y43193D01*
X166031Y43244D01*
X166109Y43302D01*
X166182Y43368D01*
X166248Y43441D01*
X166306Y43519D01*
X166357Y43604D01*
X166399Y43692D01*
X166432Y43785D01*
X166456Y43880D01*
X166470Y43977D01*
X166475Y44075D01*
X129325Y113125D02*
X129335Y113027D01*
X129363Y112934D01*
X129409Y112847D01*
X129471Y112771D01*
X129547Y112709D01*
X129634Y112663D01*
X129727Y112635D01*
X129825Y112625D01*
X135975D02*
X136073Y112635D01*
X136166Y112663D01*
X136253Y112709D01*
X136329Y112771D01*
X136391Y112847D01*
X136437Y112934D01*
X136465Y113027D01*
X136475Y113125D01*
X166475D01*
X129825Y112625D02*
X135975D01*
X166475Y44075D02*
Y113125D01*
X31275Y44075D02*
Y113125D01*
X129325D01*
X32275Y43075D02*
X165475D01*
D58*
X95275Y80275D02*
X95425Y80425D01*
X96025D02*
X96175Y80275D01*
X95425Y80425D02*
X96025D01*
X95275Y78325D02*
X96175D01*
Y79675D02*
Y80275D01*
X95275Y79675D02*
Y80275D01*
X96175Y78325D02*
Y79075D01*
X95275Y78325D02*
Y79075D01*
X104675Y81075D02*
X104825Y80925D01*
X104675Y81675D02*
X104825Y81825D01*
X104675Y81075D02*
Y81675D01*
X106775Y80925D02*
Y81825D01*
X104825D02*
X105425D01*
X104825Y80925D02*
X105425D01*
X106025Y81825D02*
X106775D01*
X106025Y80925D02*
X106775D01*
X105525Y75275D02*
X105675Y75425D01*
X104775D02*
X104925Y75275D01*
X105525D01*
X104775Y77375D02*
X105675D01*
X104775Y75425D02*
Y76025D01*
X105675Y75425D02*
Y76025D01*
X104775Y76625D02*
Y77375D01*
X105675Y76625D02*
Y77375D01*
X37675Y80475D02*
X39025D01*
X37675Y79175D02*
X39025D01*
X40325Y80475D02*
X41525D01*
X40325Y79175D02*
X41525D01*
X37675D02*
Y80475D01*
X41725Y79375D02*
Y80275D01*
X41525Y79175D02*
X41725Y79375D01*
X41525Y80475D02*
X41725Y80275D01*
X161575Y91725D02*
X160775D01*
Y91325D01*
X160908Y91192D01*
X161441D01*
X161575Y91325D01*
Y91725D01*
Y90392D02*
Y90925D01*
X160775D01*
Y90392D01*
X161175Y90925D02*
Y90659D01*
X161575Y90126D02*
X160775Y89592D01*
X161575D02*
X160775Y90126D01*
Y88793D02*
Y89326D01*
X161308Y88793D01*
X161441D01*
X161575Y88926D01*
Y89192D01*
X161441Y89326D01*
Y88526D02*
X161575Y88393D01*
Y88126D01*
X161441Y87993D01*
X161308D01*
X161175Y88126D01*
X161042Y87993D01*
X160908D01*
X160775Y88126D01*
Y88393D01*
X160908Y88526D01*
X161042D01*
X161175Y88393D01*
X161308Y88526D01*
X161441D01*
X161175Y88393D02*
Y88126D01*
X161575Y86927D02*
X160775Y86393D01*
X161575D02*
X160775Y86927D01*
Y86127D02*
X161575D01*
Y85727D01*
X161441Y85594D01*
X161175D01*
X161042Y85727D01*
Y86127D01*
X161575Y85327D02*
X160908D01*
X160775Y85194D01*
Y84927D01*
X160908Y84794D01*
X161575D01*
X161175Y84527D02*
Y83994D01*
X161575Y83728D02*
X160775D01*
Y83328D01*
X160908Y83194D01*
X161441D01*
X161575Y83328D01*
Y83728D01*
X157975Y91475D02*
X157175D01*
Y91075D01*
X157308Y90942D01*
X157442D01*
X157575Y91075D01*
Y91475D01*
Y91075D01*
X157708Y90942D01*
X157841D01*
X157975Y91075D01*
Y91475D01*
X157175Y90675D02*
X157975D01*
Y90275D01*
X157841Y90142D01*
X157575D01*
X157442Y90275D01*
Y90675D01*
X157975Y89076D02*
X157175D01*
X157442Y88809D01*
X157175Y88543D01*
X157975D01*
X157175Y88276D02*
Y88009D01*
Y88143D01*
X157708D01*
Y88276D01*
X157175Y87610D02*
Y87343D01*
Y87476D01*
X157975D01*
Y87610D01*
Y86410D02*
X157175D01*
Y86810D01*
X157308Y86943D01*
X157575D01*
X157708Y86810D01*
Y86410D01*
Y85610D02*
Y86010D01*
X157575Y86143D01*
X157308D01*
X157175Y86010D01*
Y85610D01*
X157708Y85210D02*
Y84944D01*
X157575Y84810D01*
X157175D01*
Y85210D01*
X157308Y85344D01*
X157442Y85210D01*
Y84810D01*
X157708Y84544D02*
X157175D01*
X157442D01*
X157575Y84411D01*
X157708Y84277D01*
Y84144D01*
X157975Y83211D02*
X157175D01*
Y83611D01*
X157308Y83744D01*
X157575D01*
X157708Y83611D01*
Y83211D01*
D62*
X89095Y70316D02*
X89025Y70386D01*
X88955Y70316D01*
X89025Y70246D01*
X89095Y70316D01*
X123245Y88066D02*
X123175Y88136D01*
X123105Y88066D01*
X123175Y87996D01*
X123245Y88066D01*
X160931Y97156D02*
X160921Y97260D01*
X160892Y97361D01*
X160846Y97455D01*
X160783Y97538D01*
X160706Y97609D01*
X160617Y97664D01*
X160519Y97702D01*
X160416Y97722D01*
X160312Y97722D01*
X160209Y97703D01*
D63*
X102125Y79675D02*
X102075Y79762D01*
X101975D01*
X101925Y79675D01*
X101975Y79588D01*
X102075D01*
X102125Y79675D01*
X129023Y71522D02*
X128973Y71607D01*
X128875D01*
X128826Y71522D01*
X128875Y71437D01*
X128973D01*
X129023Y71522D01*
X160761Y97186D02*
X160751Y97283D01*
X160723Y97377D01*
X160677Y97464D01*
X160615Y97539D01*
X160539Y97601D01*
X160453Y97648D01*
X160359Y97676D01*
X160262Y97686D01*
X160164Y97677D01*
D64*
X105037Y67181D02*
X105139Y67209D01*
X105213Y67283D01*
X105241Y67385D01*
X105213Y67487D01*
X105139Y67561D01*
X105037Y67588D01*
X36375Y106175D02*
X36364Y106275D01*
X36330Y106370D01*
X36277Y106456D01*
X36206Y106527D01*
X36120Y106580D01*
X36025Y106614D01*
X35925Y106625D01*
X35825Y106614D01*
X35730Y106580D01*
X35644Y106527D01*
X35573Y106456D01*
X35520Y106370D01*
X35486Y106275D01*
X35475Y106175D01*
X35486Y106075D01*
X35520Y105980D01*
X35573Y105894D01*
X35644Y105823D01*
X35730Y105770D01*
X35825Y105736D01*
X35925Y105725D01*
X36025Y105736D01*
X36120Y105770D01*
X36206Y105823D01*
X36277Y105894D01*
X36330Y105980D01*
X36364Y106075D01*
X36375Y106175D01*
X158675Y106275D02*
X158664Y106375D01*
X158630Y106470D01*
X158577Y106556D01*
X158506Y106627D01*
X158420Y106680D01*
X158325Y106714D01*
X158225Y106725D01*
X158125Y106714D01*
X158030Y106680D01*
X157944Y106627D01*
X157873Y106556D01*
X157820Y106470D01*
X157786Y106375D01*
X157775Y106275D01*
X157786Y106175D01*
X157820Y106080D01*
X157873Y105994D01*
X157944Y105923D01*
X158030Y105870D01*
X158125Y105836D01*
X158225Y105825D01*
X158325Y105836D01*
X158420Y105870D01*
X158506Y105923D01*
X158577Y105994D01*
X158630Y106080D01*
X158664Y106175D01*
X158675Y106275D01*
X117175Y48225D02*
X117164Y48325D01*
X117130Y48420D01*
X117077Y48506D01*
X117006Y48577D01*
X116920Y48630D01*
X116825Y48664D01*
X116725Y48675D01*
X116625Y48664D01*
X116530Y48630D01*
X116444Y48577D01*
X116373Y48506D01*
X116320Y48420D01*
X116286Y48325D01*
X116275Y48225D01*
X116286Y48125D01*
X116320Y48030D01*
X116373Y47944D01*
X116444Y47873D01*
X116530Y47820D01*
X116625Y47786D01*
X116725Y47775D01*
X116825Y47786D01*
X116920Y47820D01*
X117006Y47873D01*
X117077Y47944D01*
X117130Y48030D01*
X117164Y48125D01*
X117175Y48225D01*
X43675Y66225D02*
X43665Y66323D01*
X43637Y66416D01*
X43591Y66503D01*
X43529Y66579D01*
X43453Y66641D01*
X43366Y66687D01*
X43273Y66715D01*
X43175Y66725D01*
X43077Y66715D01*
X42984Y66687D01*
X42897Y66641D01*
X42821Y66579D01*
X42759Y66503D01*
X42713Y66416D01*
X42685Y66323D01*
X42675Y66225D01*
X93975Y110875D02*
X94775D01*
X93975Y110475D02*
Y110875D01*
X94775Y110475D02*
Y110875D01*
Y109125D02*
Y109675D01*
X94625Y108975D02*
X94775Y109125D01*
X94125Y108975D02*
X94625D01*
X93975Y109125D02*
X94125Y108975D01*
X93975Y109125D02*
Y109675D01*
X109125Y71975D02*
Y72975D01*
X103125Y71975D02*
X109125D01*
X103125D02*
Y72975D01*
X109125D01*
X100925Y81775D02*
Y83775D01*
X103925Y81775D02*
Y83775D01*
X100925Y81775D02*
X103925D01*
X100925Y83775D02*
X103925D01*
X100925D02*
X102842D01*
X95975Y110875D02*
X96775D01*
X95975Y110475D02*
Y110875D01*
X96775Y110475D02*
Y110875D01*
Y109125D02*
Y109675D01*
X96625Y108975D02*
X96775Y109125D01*
X96125Y108975D02*
X96625D01*
X95975Y109125D02*
X96125Y108975D01*
X95975Y109125D02*
Y109675D01*
X94975Y110875D02*
X95775D01*
X94975Y110475D02*
Y110875D01*
X95775Y110475D02*
Y110875D01*
Y109125D02*
Y109675D01*
X95625Y108975D02*
X95775Y109125D01*
X95125Y108975D02*
X95625D01*
X94975Y109125D02*
X95125Y108975D01*
X94975Y109125D02*
Y109675D01*
X107616Y66558D02*
Y68212D01*
X105037Y66558D02*
Y67181D01*
Y67588D02*
Y68212D01*
Y66558D02*
X107616D01*
X105037Y68212D02*
X107616D01*
X92325Y64075D02*
Y65075D01*
X90325Y64075D02*
X92325D01*
X90325Y65075D02*
X92325D01*
X90325Y64075D02*
Y65075D01*
X126099Y84875D02*
X126399D01*
X126099Y84075D02*
Y84875D01*
Y84075D02*
X126399D01*
X127699Y84225D02*
Y84725D01*
X127549Y84875D02*
X127699Y84725D01*
X127299Y84875D02*
X127549D01*
X127299Y84075D02*
X127549D01*
X127699Y84225D01*
X104805Y69905D02*
X104895Y69815D01*
X104805Y70445D02*
X104895Y70535D01*
X104805Y69905D02*
Y70445D01*
X106735Y69815D02*
Y70535D01*
X104895D02*
X105475D01*
X104895Y69815D02*
X105475D01*
X106075Y70535D02*
X106735D01*
X106075Y69815D02*
X106735D01*
X120515Y64465D02*
Y65125D01*
X121235Y64465D02*
Y65125D01*
X120515Y65725D02*
Y66305D01*
X121235Y65725D02*
Y66305D01*
X120515Y64465D02*
X121235D01*
X120605Y66395D02*
X121145D01*
X121235Y66305D01*
X120515D02*
X120605Y66395D01*
X131395Y80955D02*
X131485Y80865D01*
X131395Y81495D02*
X131485Y81585D01*
X131395Y80955D02*
Y81495D01*
X133325Y80865D02*
Y81585D01*
X131485D02*
X132065D01*
X131485Y80865D02*
X132065D01*
X132665Y81585D02*
X133325D01*
X132665Y80865D02*
X133325D01*
X128565Y66115D02*
Y66775D01*
X129285Y66115D02*
Y66775D01*
X128565Y67375D02*
Y67955D01*
X129285Y67375D02*
Y67955D01*
X128565Y66115D02*
X129285D01*
X128655Y68045D02*
X129195D01*
X129285Y67955D01*
X128565D02*
X128655Y68045D01*
X136985Y66175D02*
Y66835D01*
X136265Y66175D02*
Y66835D01*
X136985Y64995D02*
Y65575D01*
X136265Y64995D02*
Y65575D01*
Y66835D02*
X136985D01*
X136355Y64905D02*
X136895D01*
X136265Y64995D02*
X136355Y64905D01*
X136895D02*
X136985Y64995D01*
X130205Y55385D02*
X130295Y55295D01*
X130205Y54665D02*
X130295Y54755D01*
Y55295D01*
X128365Y54665D02*
Y55385D01*
X129625Y54665D02*
X130205D01*
X129625Y55385D02*
X130205D01*
X128365Y54665D02*
X129025D01*
X128365Y55385D02*
X129025D01*
X133165Y72905D02*
X133255Y72995D01*
X133795D02*
X133885Y72905D01*
X133255Y72995D02*
X133795D01*
X133165Y71065D02*
X133885D01*
Y72325D02*
Y72905D01*
X133165Y72325D02*
Y72905D01*
X133885Y71065D02*
Y71725D01*
X133165Y71065D02*
Y71725D01*
X107091Y61619D02*
X107181Y61529D01*
X107091Y62159D02*
X107181Y62249D01*
X107091Y61619D02*
Y62159D01*
X109021Y61529D02*
Y62249D01*
X107181D02*
X107761D01*
X107181Y61529D02*
X107761D01*
X108361Y62249D02*
X109021D01*
X108361Y61529D02*
X109021D01*
X96925Y109125D02*
Y109675D01*
Y109125D02*
X97075Y108975D01*
X97575D01*
X97725Y109125D01*
Y109675D01*
Y110475D02*
Y110875D01*
X96925Y110475D02*
Y110875D01*
X97725D01*
X115925Y86813D02*
X116585D01*
X115925Y87533D02*
X116585D01*
X114745Y86813D02*
X115325D01*
X114745Y87533D02*
X115325D01*
X116585Y86813D02*
Y87533D01*
X114655Y86903D02*
Y87443D01*
X114745Y87533D01*
X114655Y86903D02*
X114745Y86813D01*
X92315Y108915D02*
Y109575D01*
X93035Y108915D02*
Y109575D01*
X92315Y110175D02*
Y110755D01*
X93035Y110175D02*
Y110755D01*
X92315Y108915D02*
X93035D01*
X92405Y110845D02*
X92945D01*
X93035Y110755D01*
X92315D02*
X92405Y110845D01*
X104475Y73115D02*
X105135D01*
X104475Y73835D02*
X105135D01*
X103295Y73115D02*
X103875D01*
X103295Y73835D02*
X103875D01*
X105135Y73115D02*
Y73835D01*
X103205Y73205D02*
Y73745D01*
X103295Y73835D01*
X103205Y73205D02*
X103295Y73115D01*
X117355Y77585D02*
X117445Y77495D01*
X117355Y76865D02*
X117445Y76955D01*
Y77495D01*
X115515Y76865D02*
Y77585D01*
X116775Y76865D02*
X117355D01*
X116775Y77585D02*
X117355D01*
X115515Y76865D02*
X116175D01*
X115515Y77585D02*
X116175D01*
X122433Y48362D02*
X126433D01*
X122433Y49362D02*
X126433D01*
X123433Y48362D02*
Y49362D01*
X122433Y48362D02*
Y49362D01*
X124433Y48362D02*
Y49362D01*
X125433Y48362D02*
Y49362D01*
X126433Y48362D02*
Y49362D01*
X106805Y50455D02*
X106895Y50365D01*
X106805Y50995D02*
X106895Y51085D01*
X106805Y50455D02*
Y50995D01*
X108735Y50365D02*
Y51085D01*
X106895D02*
X107475D01*
X106895Y50365D02*
X107475D01*
X108075Y51085D02*
X108735D01*
X108075Y50365D02*
X108735D01*
X80375Y43038D02*
X117375D01*
X42344Y78801D02*
Y78929D01*
Y78801D02*
X42541Y78605D01*
X44706Y78801D02*
Y78929D01*
X44509Y78605D02*
X44706Y78801D01*
X42344Y81045D02*
X44706D01*
X42541Y78605D02*
X44509D01*
X42344Y80809D02*
Y81045D01*
X44706Y80809D02*
Y81045D01*
X107425Y85475D02*
Y85655D01*
Y84345D02*
Y84525D01*
Y84345D02*
X108225D01*
X107425Y85655D02*
X108225D01*
X110275Y86875D02*
X111275D01*
X110275D02*
Y88875D01*
X111275Y86875D02*
Y88875D01*
X110275D02*
X111275D01*
X107825Y81349D02*
Y81649D01*
Y81349D02*
X108625D01*
Y81649D01*
X107975Y82949D02*
X108475D01*
X107825Y82799D02*
X107975Y82949D01*
X107825Y82549D02*
Y82799D01*
X108625Y82549D02*
Y82799D01*
X108475Y82949D02*
X108625Y82799D01*
X109154Y82975D02*
Y83075D01*
X109089Y82525D02*
Y83545D01*
X109104Y82975D02*
X109204D01*
Y83075D01*
X109104D02*
X109204D01*
X110309Y82529D02*
Y83549D01*
X109104Y85275D02*
Y85375D01*
X109039Y84825D02*
Y85845D01*
X109054Y85275D02*
X109154D01*
Y85375D01*
X109054D02*
X109154D01*
X110259Y84829D02*
Y85849D01*
X93875Y113125D02*
X97875D01*
Y108075D02*
Y113125D01*
X93875Y108075D02*
Y113125D01*
Y108075D02*
X97875D01*
X45425Y78575D02*
X46425D01*
X45425D02*
Y80575D01*
X46425Y78575D02*
Y80575D01*
X45425D02*
X46425D01*
X37225Y66225D02*
X42675D01*
X37225Y77225D02*
X46625D01*
X43675Y66225D02*
X46625D01*
Y77225D01*
X37225Y66225D02*
Y77225D01*
X104175Y83025D02*
X104342D01*
X104258D01*
Y83525D01*
X104175Y83442D01*
X99025Y82825D02*
Y83158D01*
X99192Y83325D01*
X99358Y83158D01*
Y82825D01*
Y83075D01*
X99025D01*
X99525Y83325D02*
Y82992D01*
X99691Y82825D01*
X99858Y82992D01*
Y83325D01*
X100025Y82825D02*
Y83325D01*
X100275D01*
X100358Y83242D01*
Y83075D01*
X100275Y82992D01*
X100025D01*
X100191D02*
X100358Y82825D01*
X98825Y82475D02*
X98992D01*
X98908D01*
Y81975D01*
X98825D01*
X98992D01*
X99575Y82392D02*
X99491Y82475D01*
X99325D01*
X99242Y82392D01*
Y82058D01*
X99325Y81975D01*
X99491D01*
X99575Y82058D01*
X100075Y82392D02*
X99991Y82475D01*
X99825D01*
X99741Y82392D01*
Y82308D01*
X99825Y82225D01*
X99991D01*
X100075Y82142D01*
Y82058D01*
X99991Y81975D01*
X99825D01*
X99741Y82058D01*
X100241Y81975D02*
Y82475D01*
X100491D01*
X100574Y82392D01*
Y82225D01*
X100491Y82142D01*
X100241D01*
X95425Y67725D02*
Y67225D01*
X95758D01*
X96258Y67725D02*
X95925D01*
Y67225D01*
X96258D01*
X95925Y67475D02*
X96091D01*
X96425Y67725D02*
Y67225D01*
X96675D01*
X96758Y67308D01*
Y67642D01*
X96675Y67725D01*
X96425D01*
X96675Y66525D02*
X96842D01*
X96758D01*
Y67025D01*
X96675Y66942D01*
X96258Y66525D02*
X95925D01*
X96258Y66858D01*
Y66942D01*
X96175Y67025D01*
X96008D01*
X95925Y66942D01*
X95325D02*
X95408Y67025D01*
X95575D01*
X95658Y66942D01*
Y66858D01*
X95575Y66775D01*
X95492D01*
X95575D01*
X95658Y66692D01*
Y66608D01*
X95575Y66525D01*
X95408D01*
X95325Y66608D01*
X111825Y49625D02*
X112158D01*
X112325Y49458D01*
X112158Y49292D01*
X111825D01*
X112075D01*
Y49625D01*
X111825Y48792D02*
Y49125D01*
X112158Y48792D01*
X112242D01*
X112325Y48875D01*
Y49042D01*
X112242Y49125D01*
X109542Y49292D02*
X109625Y49375D01*
Y49542D01*
X109542Y49625D01*
X109208D01*
X109125Y49542D01*
Y49375D01*
X109208Y49292D01*
X109625Y48792D02*
X109542Y48959D01*
X109375Y49125D01*
X109208D01*
X109125Y49042D01*
Y48875D01*
X109208Y48792D01*
X109292D01*
X109375Y48875D01*
Y49125D01*
X108975Y49625D02*
X108475D01*
Y49375D01*
X108558Y49292D01*
X108642D01*
X108725Y49375D01*
Y49625D01*
Y49375D01*
X108808Y49292D01*
X108892D01*
X108975Y49375D01*
Y49625D01*
Y48792D02*
X108892Y48959D01*
X108725Y49125D01*
X108558D01*
X108475Y49042D01*
Y48875D01*
X108558Y48792D01*
X108642D01*
X108725Y48875D01*
Y49125D01*
X108325Y49625D02*
X107825D01*
Y49375D01*
X107908Y49292D01*
X108242D01*
X108325Y49375D01*
Y49625D01*
Y48792D02*
X108242Y48959D01*
X108075Y49125D01*
X107908D01*
X107825Y49042D01*
Y48875D01*
X107908Y48792D01*
X107992D01*
X108075Y48875D01*
Y49125D01*
X105542Y49742D02*
X105625Y49825D01*
Y49992D01*
X105542Y50075D01*
X105208D01*
X105125Y49992D01*
Y49825D01*
X105208Y49742D01*
X105125Y49575D02*
Y49409D01*
Y49492D01*
X105625D01*
X105542Y49575D01*
Y49159D02*
X105625Y49075D01*
Y48909D01*
X105542Y48825D01*
X105208D01*
X105125Y48909D01*
Y49075D01*
X105208Y49159D01*
X105542D01*
X104975Y50075D02*
X104475D01*
Y49825D01*
X104558Y49742D01*
X104642D01*
X104725Y49825D01*
Y50075D01*
Y49825D01*
X104808Y49742D01*
X104892D01*
X104975Y49825D01*
Y50075D01*
X104475Y49575D02*
Y49409D01*
Y49492D01*
X104975D01*
X104892Y49575D01*
Y49159D02*
X104975Y49075D01*
Y48909D01*
X104892Y48825D01*
X104558D01*
X104475Y48909D01*
Y49075D01*
X104558Y49159D01*
X104892D01*
X103825Y50075D02*
X104158D01*
X104325Y49908D01*
X104158Y49742D01*
X103825D01*
X104075D01*
Y50075D01*
X103825Y49575D02*
Y49409D01*
Y49492D01*
X104325D01*
X104242Y49575D01*
Y49159D02*
X104325Y49075D01*
Y48909D01*
X104242Y48825D01*
X103908D01*
X103825Y48909D01*
Y49075D01*
X103908Y49159D01*
X104242D01*
X103542Y49742D02*
X103625Y49825D01*
Y49992D01*
X103542Y50075D01*
X103208D01*
X103125Y49992D01*
Y49825D01*
X103208Y49742D01*
X103125Y49575D02*
Y49409D01*
Y49492D01*
X103625D01*
X103542Y49575D01*
X103125Y48825D02*
Y49159D01*
X103458Y48825D01*
X103542D01*
X103625Y48909D01*
Y49075D01*
X103542Y49159D01*
X102975Y50075D02*
X102475D01*
Y49825D01*
X102558Y49742D01*
X102642D01*
X102725Y49825D01*
Y50075D01*
Y49825D01*
X102808Y49742D01*
X102892D01*
X102975Y49825D01*
Y50075D01*
X102475Y49575D02*
Y49409D01*
Y49492D01*
X102975D01*
X102892Y49575D01*
X102475Y48825D02*
Y49159D01*
X102808Y48825D01*
X102892D01*
X102975Y48909D01*
Y49075D01*
X102892Y49159D01*
X101825Y50075D02*
X102158D01*
X102325Y49908D01*
X102158Y49742D01*
X101825D01*
X102075D01*
Y50075D01*
X101825Y49575D02*
Y49409D01*
Y49492D01*
X102325D01*
X102242Y49575D01*
X101825Y48825D02*
Y49159D01*
X102158Y48825D01*
X102242D01*
X102325Y48909D01*
Y49075D01*
X102242Y49159D01*
X100975Y50075D02*
X100475D01*
Y49825D01*
X100558Y49742D01*
X100642D01*
X100725Y49825D01*
Y50075D01*
Y49825D01*
X100808Y49742D01*
X100892D01*
X100975Y49825D01*
Y50075D01*
X100475Y49575D02*
Y49409D01*
Y49492D01*
X100975D01*
X100892Y49575D01*
X100475Y48909D02*
X100975D01*
X100725Y49159D01*
Y48825D01*
X99825Y50075D02*
X100158D01*
X100325Y49908D01*
X100158Y49742D01*
X99825D01*
X100075D01*
Y50075D01*
X99825Y49575D02*
Y49409D01*
Y49492D01*
X100325D01*
X100242Y49575D01*
X99825Y48909D02*
X100325D01*
X100075Y49159D01*
Y48825D01*
X99542Y49742D02*
X99625Y49825D01*
Y49992D01*
X99542Y50075D01*
X99208D01*
X99125Y49992D01*
Y49825D01*
X99208Y49742D01*
X99125Y49575D02*
Y49409D01*
Y49492D01*
X99625D01*
X99542Y49575D01*
X99625Y48825D02*
X99542Y48992D01*
X99375Y49159D01*
X99208D01*
X99125Y49075D01*
Y48909D01*
X99208Y48825D01*
X99292D01*
X99375Y48909D01*
Y49159D01*
X98975Y50075D02*
X98475D01*
Y49825D01*
X98558Y49742D01*
X98642D01*
X98725Y49825D01*
Y50075D01*
Y49825D01*
X98808Y49742D01*
X98892D01*
X98975Y49825D01*
Y50075D01*
X98475Y49575D02*
Y49409D01*
Y49492D01*
X98975D01*
X98892Y49575D01*
X98975Y48825D02*
X98892Y48992D01*
X98725Y49159D01*
X98558D01*
X98475Y49075D01*
Y48909D01*
X98558Y48825D01*
X98642D01*
X98725Y48909D01*
Y49159D01*
X97542Y49742D02*
X97625Y49825D01*
Y49992D01*
X97542Y50075D01*
X97208D01*
X97125Y49992D01*
Y49825D01*
X97208Y49742D01*
X97125Y49575D02*
Y49409D01*
Y49492D01*
X97625D01*
X97542Y49575D01*
Y49159D02*
X97625Y49075D01*
Y48909D01*
X97542Y48825D01*
X97458D01*
X97375Y48909D01*
X97292Y48825D01*
X97208D01*
X97125Y48909D01*
Y49075D01*
X97208Y49159D01*
X97292D01*
X97375Y49075D01*
X97458Y49159D01*
X97542D01*
X97375Y49075D02*
Y48909D01*
X96975Y50075D02*
X96475D01*
Y49825D01*
X96558Y49742D01*
X96642D01*
X96725Y49825D01*
Y50075D01*
Y49825D01*
X96808Y49742D01*
X96892D01*
X96975Y49825D01*
Y50075D01*
X96475Y49575D02*
Y49409D01*
Y49492D01*
X96975D01*
X96892Y49575D01*
Y49159D02*
X96975Y49075D01*
Y48909D01*
X96892Y48825D01*
X96808D01*
X96725Y48909D01*
X96642Y48825D01*
X96558D01*
X96475Y48909D01*
Y49075D01*
X96558Y49159D01*
X96642D01*
X96725Y49075D01*
X96808Y49159D01*
X96892D01*
X96725Y49075D02*
Y48909D01*
X95825Y50075D02*
X96158D01*
X96325Y49908D01*
X96158Y49742D01*
X95825D01*
X96075D01*
Y50075D01*
X95825Y49575D02*
Y49409D01*
Y49492D01*
X96325D01*
X96242Y49575D01*
Y49159D02*
X96325Y49075D01*
Y48909D01*
X96242Y48825D01*
X96158D01*
X96075Y48909D01*
X95992Y48825D01*
X95908D01*
X95825Y48909D01*
Y49075D01*
X95908Y49159D01*
X95992D01*
X96075Y49075D01*
X96158Y49159D01*
X96242D01*
X96075Y49075D02*
Y48909D01*
X95542Y49792D02*
X95625Y49875D01*
Y50042D01*
X95542Y50125D01*
X95208D01*
X95125Y50042D01*
Y49875D01*
X95208Y49792D01*
X95125Y49292D02*
Y49625D01*
X95458Y49292D01*
X95542D01*
X95625Y49375D01*
Y49542D01*
X95542Y49625D01*
Y49125D02*
X95625Y49042D01*
Y48875D01*
X95542Y48792D01*
X95208D01*
X95125Y48875D01*
Y49042D01*
X95208Y49125D01*
X95542D01*
X94975Y50125D02*
X94475D01*
Y49875D01*
X94558Y49792D01*
X94642D01*
X94725Y49875D01*
Y50125D01*
Y49875D01*
X94808Y49792D01*
X94892D01*
X94975Y49875D01*
Y50125D01*
X94475Y49292D02*
Y49625D01*
X94808Y49292D01*
X94892D01*
X94975Y49375D01*
Y49542D01*
X94892Y49625D01*
Y49125D02*
X94975Y49042D01*
Y48875D01*
X94892Y48792D01*
X94558D01*
X94475Y48875D01*
Y49042D01*
X94558Y49125D01*
X94892D01*
X93825Y50125D02*
X94158D01*
X94325Y49958D01*
X94158Y49792D01*
X93825D01*
X94075D01*
Y50125D01*
X93825Y49292D02*
Y49625D01*
X94158Y49292D01*
X94242D01*
X94325Y49375D01*
Y49542D01*
X94242Y49625D01*
Y49125D02*
X94325Y49042D01*
Y48875D01*
X94242Y48792D01*
X93908D01*
X93825Y48875D01*
Y49042D01*
X93908Y49125D01*
X94242D01*
X93542Y49792D02*
X93625Y49875D01*
Y50042D01*
X93542Y50125D01*
X93208D01*
X93125Y50042D01*
Y49875D01*
X93208Y49792D01*
X93125Y49292D02*
Y49625D01*
X93458Y49292D01*
X93542D01*
X93625Y49375D01*
Y49542D01*
X93542Y49625D01*
X93125Y48792D02*
Y49125D01*
X93458Y48792D01*
X93542D01*
X93625Y48875D01*
Y49042D01*
X93542Y49125D01*
X92975Y50125D02*
X92475D01*
Y49875D01*
X92558Y49792D01*
X92642D01*
X92725Y49875D01*
Y50125D01*
Y49875D01*
X92808Y49792D01*
X92892D01*
X92975Y49875D01*
Y50125D01*
X92475Y49292D02*
Y49625D01*
X92808Y49292D01*
X92892D01*
X92975Y49375D01*
Y49542D01*
X92892Y49625D01*
X92475Y48792D02*
Y49125D01*
X92808Y48792D01*
X92892D01*
X92975Y48875D01*
Y49042D01*
X92892Y49125D01*
X91825Y50125D02*
X92158D01*
X92325Y49958D01*
X92158Y49792D01*
X91825D01*
X92075D01*
Y50125D01*
X91825Y49292D02*
Y49625D01*
X92158Y49292D01*
X92242D01*
X92325Y49375D01*
Y49542D01*
X92242Y49625D01*
X91825Y48792D02*
Y49125D01*
X92158Y48792D01*
X92242D01*
X92325Y48875D01*
Y49042D01*
X92242Y49125D01*
X91542Y49792D02*
X91625Y49875D01*
Y50042D01*
X91542Y50125D01*
X91208D01*
X91125Y50042D01*
Y49875D01*
X91208Y49792D01*
X91125Y49292D02*
Y49625D01*
X91458Y49292D01*
X91542D01*
X91625Y49375D01*
Y49542D01*
X91542Y49625D01*
X91125Y48875D02*
X91625D01*
X91375Y49125D01*
Y48792D01*
X90975Y50125D02*
X90475D01*
Y49875D01*
X90558Y49792D01*
X90642D01*
X90725Y49875D01*
Y50125D01*
Y49875D01*
X90808Y49792D01*
X90892D01*
X90975Y49875D01*
Y50125D01*
X90475Y49292D02*
Y49625D01*
X90808Y49292D01*
X90892D01*
X90975Y49375D01*
Y49542D01*
X90892Y49625D01*
X90475Y48875D02*
X90975D01*
X90725Y49125D01*
Y48792D01*
X89825Y50125D02*
X90158D01*
X90325Y49958D01*
X90158Y49792D01*
X89825D01*
X90075D01*
Y50125D01*
X89825Y49292D02*
Y49625D01*
X90158Y49292D01*
X90242D01*
X90325Y49375D01*
Y49542D01*
X90242Y49625D01*
X89825Y48875D02*
X90325D01*
X90075Y49125D01*
Y48792D01*
X89542Y49792D02*
X89625Y49875D01*
Y50042D01*
X89542Y50125D01*
X89208D01*
X89125Y50042D01*
Y49875D01*
X89208Y49792D01*
X89125Y49292D02*
Y49625D01*
X89458Y49292D01*
X89542D01*
X89625Y49375D01*
Y49542D01*
X89542Y49625D01*
X89625Y48792D02*
X89542Y48959D01*
X89375Y49125D01*
X89208D01*
X89125Y49042D01*
Y48875D01*
X89208Y48792D01*
X89292D01*
X89375Y48875D01*
Y49125D01*
X88975Y50125D02*
X88475D01*
Y49875D01*
X88558Y49792D01*
X88642D01*
X88725Y49875D01*
Y50125D01*
Y49875D01*
X88808Y49792D01*
X88892D01*
X88975Y49875D01*
Y50125D01*
X88475Y49292D02*
Y49625D01*
X88808Y49292D01*
X88892D01*
X88975Y49375D01*
Y49542D01*
X88892Y49625D01*
X88975Y48792D02*
X88892Y48959D01*
X88725Y49125D01*
X88558D01*
X88475Y49042D01*
Y48875D01*
X88558Y48792D01*
X88642D01*
X88725Y48875D01*
Y49125D01*
X87825Y50125D02*
X88158D01*
X88325Y49958D01*
X88158Y49792D01*
X87825D01*
X88075D01*
Y50125D01*
X87825Y49292D02*
Y49625D01*
X88158Y49292D01*
X88242D01*
X88325Y49375D01*
Y49542D01*
X88242Y49625D01*
X88325Y48792D02*
X88242Y48959D01*
X88075Y49125D01*
X87908D01*
X87825Y49042D01*
Y48875D01*
X87908Y48792D01*
X87992D01*
X88075Y48875D01*
Y49125D01*
X87542Y49792D02*
X87625Y49875D01*
Y50042D01*
X87542Y50125D01*
X87208D01*
X87125Y50042D01*
Y49875D01*
X87208Y49792D01*
X87125Y49292D02*
Y49625D01*
X87458Y49292D01*
X87542D01*
X87625Y49375D01*
Y49542D01*
X87542Y49625D01*
Y49125D02*
X87625Y49042D01*
Y48875D01*
X87542Y48792D01*
X87458D01*
X87375Y48875D01*
X87292Y48792D01*
X87208D01*
X87125Y48875D01*
Y49042D01*
X87208Y49125D01*
X87292D01*
X87375Y49042D01*
X87458Y49125D01*
X87542D01*
X87375Y49042D02*
Y48875D01*
X86975Y50125D02*
X86475D01*
Y49875D01*
X86558Y49792D01*
X86642D01*
X86725Y49875D01*
Y50125D01*
Y49875D01*
X86808Y49792D01*
X86892D01*
X86975Y49875D01*
Y50125D01*
X86475Y49292D02*
Y49625D01*
X86808Y49292D01*
X86892D01*
X86975Y49375D01*
Y49542D01*
X86892Y49625D01*
Y49125D02*
X86975Y49042D01*
Y48875D01*
X86892Y48792D01*
X86808D01*
X86725Y48875D01*
X86642Y48792D01*
X86558D01*
X86475Y48875D01*
Y49042D01*
X86558Y49125D01*
X86642D01*
X86725Y49042D01*
X86808Y49125D01*
X86892D01*
X86725Y49042D02*
Y48875D01*
X85825Y50125D02*
X86158D01*
X86325Y49958D01*
X86158Y49792D01*
X85825D01*
X86075D01*
Y50125D01*
X85825Y49292D02*
Y49625D01*
X86158Y49292D01*
X86242D01*
X86325Y49375D01*
Y49542D01*
X86242Y49625D01*
Y49125D02*
X86325Y49042D01*
Y48875D01*
X86242Y48792D01*
X86158D01*
X86075Y48875D01*
X85992Y48792D01*
X85908D01*
X85825Y48875D01*
Y49042D01*
X85908Y49125D01*
X85992D01*
X86075Y49042D01*
X86158Y49125D01*
X86242D01*
X86075Y49042D02*
Y48875D01*
X40025Y47675D02*
X40358D01*
X40775Y47425D02*
Y47925D01*
X40525Y47675D01*
X40858D01*
X41025Y47842D02*
X41108Y47925D01*
X41275D01*
X41358Y47842D01*
Y47758D01*
X41275Y47675D01*
X41358Y47592D01*
Y47508D01*
X41275Y47425D01*
X41108D01*
X41025Y47508D01*
Y47592D01*
X41108Y47675D01*
X41025Y47758D01*
Y47842D01*
X41108Y47675D02*
X41275D01*
X41525Y47925D02*
Y47592D01*
X41691Y47425D01*
X41858Y47592D01*
Y47925D01*
X125325Y83775D02*
X125592D01*
X125458Y83908D02*
Y83642D01*
X125725Y83575D02*
X125858D01*
X125792D01*
Y83975D01*
X125725Y83908D01*
X126058Y83575D02*
Y83642D01*
X126125D01*
Y83575D01*
X126058D01*
X126391Y83908D02*
X126458Y83975D01*
X126591D01*
X126658Y83908D01*
Y83842D01*
X126591Y83775D01*
X126658Y83708D01*
Y83642D01*
X126591Y83575D01*
X126458D01*
X126391Y83642D01*
Y83708D01*
X126458Y83775D01*
X126391Y83842D01*
Y83908D01*
X126458Y83775D02*
X126591D01*
X126791Y83975D02*
Y83708D01*
X126924Y83575D01*
X127058Y83708D01*
Y83975D01*
X110712Y97766D02*
X110645Y97832D01*
X110512D01*
X110445Y97766D01*
Y97499D01*
X110512Y97433D01*
X110645D01*
X110712Y97499D01*
Y97566D01*
X110645Y97633D01*
X110445D01*
X118231Y97499D02*
X118165Y97433D01*
X118031D01*
X117965Y97499D01*
Y97566D01*
X118031Y97633D01*
X117965Y97699D01*
Y97766D01*
X118031Y97832D01*
X118165D01*
X118231Y97766D01*
Y97699D01*
X118165Y97633D01*
X118231Y97566D01*
Y97499D01*
X118165Y97633D02*
X118031D01*
X111617Y97832D02*
X111484D01*
X111550D01*
Y97433D01*
X111617Y97499D01*
X118358Y101121D02*
X118425Y101055D01*
X118558D01*
X118625Y101121D01*
Y101388D01*
X118558Y101455D01*
X118425D01*
X118358Y101388D01*
X118225Y101055D02*
Y101455D01*
X118025D01*
X117959Y101388D01*
Y101121D01*
X118025Y101055D01*
X118225D01*
X118625Y104598D02*
Y104998D01*
X118492Y104865D01*
X118358Y104998D01*
Y104598D01*
X118225Y104998D02*
Y104598D01*
X118025D01*
X117959Y104665D01*
Y104798D01*
X118025Y104865D01*
X118225D01*
X118358Y105688D02*
X118425Y105622D01*
X118558D01*
X118625Y105688D01*
Y105955D01*
X118558Y106021D01*
X118425D01*
X118358Y105955D01*
X91275Y65675D02*
X91608D01*
X91442Y65842D02*
Y65508D01*
X92108Y65425D02*
X91775D01*
X92108Y65758D01*
Y65842D01*
X92025Y65925D01*
X91858D01*
X91775Y65842D01*
X92275Y65425D02*
Y65508D01*
X92358D01*
Y65425D01*
X92275D01*
X93024Y65925D02*
X92691D01*
Y65675D01*
X92858Y65758D01*
X92941D01*
X93024Y65675D01*
Y65508D01*
X92941Y65425D01*
X92775D01*
X92691Y65508D01*
X93191Y65925D02*
Y65592D01*
X93358Y65425D01*
X93524Y65592D01*
Y65925D01*
X41875Y81625D02*
X42208D01*
X42042Y81792D02*
Y81458D01*
X42375Y81792D02*
X42458Y81875D01*
X42625D01*
X42708Y81792D01*
Y81708D01*
X42625Y81625D01*
X42541D01*
X42625D01*
X42708Y81542D01*
Y81458D01*
X42625Y81375D01*
X42458D01*
X42375Y81458D01*
X42875Y81375D02*
Y81458D01*
X42958D01*
Y81375D01*
X42875D01*
X43291Y81792D02*
X43375Y81875D01*
X43541D01*
X43624Y81792D01*
Y81708D01*
X43541Y81625D01*
X43458D01*
X43541D01*
X43624Y81542D01*
Y81458D01*
X43541Y81375D01*
X43375D01*
X43291Y81458D01*
X43791Y81875D02*
Y81542D01*
X43958Y81375D01*
X44124Y81542D01*
Y81875D01*
D68*
X159211Y94436D02*
X159225Y94337D01*
X159266Y94247D01*
X159331Y94172D01*
X159415Y94118D01*
X159511Y94090D01*
X159610D01*
X159706Y94118D01*
X159790Y94172D01*
X159855Y94247D01*
X159896Y94337D01*
X159911Y94436D01*
X160683Y94839D02*
X160721Y94932D01*
X160752Y95027D01*
X160778Y95124D01*
X160798Y95222D01*
X160812Y95321D01*
X160819Y95421D01*
X160820Y95521D01*
X160815Y95621D01*
X160803Y95721D01*
X160786Y95819D01*
X160762Y95917D01*
X160732Y96012D01*
X160696Y96106D01*
X160655Y96197D01*
X160608Y96285D01*
X160555Y96370D01*
X160497Y96452D01*
X160435Y96530D01*
X160367Y96604D01*
X160295Y96674D01*
X160219Y96739D01*
X160139Y96799D01*
X160055Y96853D01*
X159968Y96903D01*
X159878Y96947D01*
X159785Y96985D01*
X159691Y97018D01*
X159594Y97044D01*
X159496Y97064D01*
X159397Y97079D01*
X159297Y97086D01*
X159197Y97088D01*
X159097Y97083D01*
X158997Y97073D01*
X158899Y97056D01*
X158801Y97032D01*
X158705Y97003D01*
X158612Y96968D01*
X158520Y96927D01*
X158432Y96880D01*
X158346Y96828D01*
X158264Y96771D01*
X158186Y96709D01*
X158111Y96642D01*
X158041Y96570D01*
X157976Y96494D01*
X157916Y96414D01*
X157860Y96331D01*
X157810Y96244D01*
X157766Y96154D01*
X157727Y96062D01*
X157694Y95968D01*
X157667Y95871D01*
X157646Y95773D01*
X157631Y95674D01*
X157623Y95574D01*
X157620Y95474D01*
X157624Y95374D01*
X157635Y95275D01*
X157651Y95176D01*
X157674Y95078D01*
X157702Y94982D01*
X157737Y94888D01*
X157778Y94797D01*
X157824Y94708D01*
X157875Y94622D01*
X157932Y94540D01*
X157994Y94461D01*
X158061Y94386D01*
X159211Y94286D02*
X159225Y94187D01*
X159266Y94097D01*
X159331Y94022D01*
X159415Y93968D01*
X159511Y93940D01*
X159610D01*
X159706Y93968D01*
X159790Y94022D01*
X159855Y94097D01*
X159896Y94187D01*
X159911Y94286D01*
X94856Y62358D02*
X94781Y62402D01*
Y62315D01*
X94856Y62358D01*
D74*
X160867Y95286D02*
X160864Y95387D01*
X160855Y95487D01*
X160839Y95587D01*
X160817Y95685D01*
X160789Y95782D01*
X160755Y95876D01*
X160715Y95969D01*
X160669Y96059D01*
X160618Y96145D01*
X160561Y96229D01*
X160499Y96308D01*
X160433Y96384D01*
X160361Y96455D01*
X160286Y96521D01*
X160206Y96583D01*
X160123Y96640D01*
X160036Y96691D01*
X159947Y96737D01*
X159854Y96777D01*
X159759Y96811D01*
X159663Y96839D01*
X159564Y96861D01*
X159465Y96877D01*
X159365Y96886D01*
X159264Y96889D01*
X159163Y96886D01*
X159063Y96877D01*
X158963Y96861D01*
X158865Y96839D01*
X158768Y96811D01*
X158674Y96777D01*
X158581Y96737D01*
X158491Y96691D01*
X158405Y96640D01*
X158321Y96583D01*
X158242Y96521D01*
X158166Y96455D01*
X158095Y96384D01*
X158028Y96308D01*
X157967Y96229D01*
X157910Y96145D01*
X157859Y96059D01*
X157813Y95969D01*
X157773Y95876D01*
X157739Y95782D01*
X157711Y95685D01*
X157689Y95587D01*
X157673Y95487D01*
X157664Y95387D01*
X157661Y95286D01*
D80*
X105829Y53445D02*
X105774Y53520D01*
X105686Y53492D01*
Y53399D01*
X105774Y53371D01*
X105829Y53445D01*
X117379Y64655D02*
X117325Y64729D01*
X117236Y64701D01*
Y64608D01*
X117325Y64580D01*
X117379Y64655D01*
X132027Y66068D02*
X131973Y66142D01*
X131885Y66114D01*
Y66021D01*
X131973Y65993D01*
X132027Y66068D01*
X124027Y63518D02*
X123973Y63592D01*
X123885Y63564D01*
Y63471D01*
X123973Y63443D01*
X124027Y63518D01*
D99*
X105334Y66895D02*
X105275Y66955D01*
X105216Y66895D01*
X105275Y66836D01*
X105334Y66895D01*
X134664Y81420D02*
X134605Y81479D01*
X134546Y81420D01*
X134605Y81361D01*
X134664Y81420D01*
X116364Y88723D02*
X116305Y88782D01*
X116245Y88723D01*
X116305Y88664D01*
X116364Y88723D01*
D100*
X131377Y109625D02*
X131370Y109725D01*
X131348Y109823D01*
X131313Y109917D01*
X131265Y110004D01*
X131205Y110085D01*
X131135Y110155D01*
X131054Y110215D01*
X130967Y110263D01*
X130873Y110298D01*
X130775Y110320D01*
X130675Y110327D01*
X130575Y110320D01*
X130477Y110298D01*
X130383Y110263D01*
X130296Y110215D01*
X130215Y110155D01*
X130145Y110085D01*
X130085Y110004D01*
X130037Y109917D01*
X130002Y109823D01*
X129980Y109725D01*
X129973Y109625D01*
X129980Y109525D01*
X130002Y109427D01*
X130037Y109333D01*
X130085Y109246D01*
X130145Y109165D01*
X130215Y109095D01*
X130296Y109035D01*
X130383Y108987D01*
X130477Y108952D01*
X130575Y108930D01*
X130675Y108923D01*
X130775Y108930D01*
X130873Y108952D01*
X130967Y108987D01*
X131054Y109035D01*
X131135Y109095D01*
X131205Y109165D01*
X131265Y109246D01*
X131313Y109333D01*
X131348Y109427D01*
X131370Y109525D01*
X131377Y109625D01*
X135877D02*
X135870Y109725D01*
X135848Y109823D01*
X135813Y109917D01*
X135765Y110004D01*
X135705Y110085D01*
X135635Y110155D01*
X135554Y110215D01*
X135467Y110263D01*
X135373Y110298D01*
X135275Y110320D01*
X135175Y110327D01*
X135075Y110320D01*
X134977Y110298D01*
X134883Y110263D01*
X134796Y110215D01*
X134715Y110155D01*
X134645Y110085D01*
X134585Y110004D01*
X134537Y109917D01*
X134502Y109823D01*
X134480Y109725D01*
X134473Y109625D01*
X134480Y109525D01*
X134502Y109427D01*
X134537Y109333D01*
X134585Y109246D01*
X134645Y109165D01*
X134715Y109095D01*
X134796Y109035D01*
X134883Y108987D01*
X134977Y108952D01*
X135075Y108930D01*
X135175Y108923D01*
X135275Y108930D01*
X135373Y108952D01*
X135467Y108987D01*
X135554Y109035D01*
X135635Y109095D01*
X135705Y109165D01*
X135765Y109246D01*
X135813Y109333D01*
X135848Y109427D01*
X135870Y109525D01*
X135877Y109625D01*
X104540Y79710D02*
Y80153D01*
X104010Y79710D02*
X104540D01*
X104010D02*
Y80153D01*
Y80447D02*
Y80890D01*
X104540D01*
Y80447D02*
Y80890D01*
X104110Y76897D02*
Y77340D01*
X104640D01*
Y76897D02*
Y77340D01*
Y76160D02*
Y76603D01*
X104110Y76160D02*
X104640D01*
X104110D02*
Y76603D01*
X96840Y78410D02*
Y78853D01*
X96310Y78410D02*
X96840D01*
X96310D02*
Y78853D01*
Y79147D02*
Y79590D01*
X96840D01*
Y79147D02*
Y79590D01*
X104610Y83810D02*
X105053D01*
X104610D02*
Y84340D01*
X105053D01*
X105347D02*
X105790D01*
Y83810D02*
Y84340D01*
X105347Y83810D02*
X105790D01*
X104610Y83210D02*
X105053D01*
X104610D02*
Y83740D01*
X105053D01*
X105347D02*
X105790D01*
Y83210D02*
Y83740D01*
X105347Y83210D02*
X105790D01*
X104610Y82610D02*
X105053D01*
X104610D02*
Y83140D01*
X105053D01*
X105347D02*
X105790D01*
Y82610D02*
Y83140D01*
X105347Y82610D02*
X105790D01*
X104610Y82010D02*
X105053D01*
X104610D02*
Y82540D01*
X105053D01*
X105347D02*
X105790D01*
Y82010D02*
Y82540D01*
X105347Y82010D02*
X105790D01*
X114597Y85190D02*
X115040D01*
Y84660D02*
Y85190D01*
X114597Y84660D02*
X115040D01*
X113860D02*
X114303D01*
X113860D02*
Y85190D01*
X114303D01*
X107397Y87290D02*
X107840D01*
Y86760D02*
Y87290D01*
X107397Y86760D02*
X107840D01*
X106660D02*
X107103D01*
X106660D02*
Y87290D01*
X107103D01*
X105310Y69210D02*
X105753D01*
X105310D02*
Y69740D01*
X105753D01*
X106047D02*
X106490D01*
Y69210D02*
Y69740D01*
X106047Y69210D02*
X106490D01*
X41747Y77460D02*
X42190D01*
Y77990D01*
X41747D02*
X42190D01*
X41010D02*
X41453D01*
X41010Y77460D02*
Y77990D01*
Y77460D02*
X41453D01*
X131847Y83010D02*
X132290D01*
Y83540D01*
X131847D02*
X132290D01*
X131110D02*
X131553D01*
X131110Y83010D02*
Y83540D01*
Y83010D02*
X131553D01*
X124690Y105210D02*
Y105653D01*
X124160Y105210D02*
X124690D01*
X124160D02*
Y105653D01*
Y105947D02*
Y106390D01*
X124690D01*
Y105947D02*
Y106390D01*
X125490Y105947D02*
Y106390D01*
X124960D02*
X125490D01*
X124960Y105947D02*
Y106390D01*
Y105210D02*
Y105653D01*
Y105210D02*
X125490D01*
Y105653D01*
X89747Y68090D02*
X90190D01*
Y67560D02*
Y68090D01*
X89747Y67560D02*
X90190D01*
X89010D02*
X89453D01*
X89010D02*
Y68090D01*
X89453D01*
X88260Y60260D02*
X88703D01*
X88260D02*
Y60790D01*
X88703D01*
X88997D02*
X89440D01*
Y60260D02*
Y60790D01*
X88997Y60260D02*
X89440D01*
X106360Y70610D02*
Y71053D01*
Y70610D02*
X106890D01*
Y71053D01*
Y71347D02*
Y71790D01*
X106360D02*
X106890D01*
X106360Y71347D02*
Y71790D01*
X105360Y71347D02*
Y71790D01*
X105890D01*
Y71347D02*
Y71790D01*
Y70610D02*
Y71053D01*
X105360Y70610D02*
X105890D01*
X105360D02*
Y71053D01*
X108360Y70610D02*
Y71053D01*
Y70610D02*
X108890D01*
Y71053D01*
Y71347D02*
Y71790D01*
X108360D02*
X108890D01*
X108360Y71347D02*
Y71790D01*
X107360Y71347D02*
Y71790D01*
X107890D01*
Y71347D02*
Y71790D01*
Y70610D02*
Y71053D01*
X107360Y70610D02*
X107890D01*
X107360D02*
Y71053D01*
X88060Y62060D02*
Y62503D01*
Y62060D02*
X88590D01*
Y62503D01*
Y62797D02*
Y63240D01*
X88060D02*
X88590D01*
X88060Y62797D02*
Y63240D01*
X103360Y71310D02*
X103803D01*
X103360D02*
Y71840D01*
X103803D01*
X104097D02*
X104540D01*
Y71310D02*
Y71840D01*
X104097Y71310D02*
X104540D01*
X125490Y104647D02*
Y105090D01*
X124960D02*
X125490D01*
X124960Y104647D02*
Y105090D01*
Y103910D02*
Y104353D01*
Y103910D02*
X125490D01*
Y104353D01*
X124690Y103910D02*
Y104353D01*
X124160Y103910D02*
X124690D01*
X124160D02*
Y104353D01*
Y104647D02*
Y105090D01*
X124690D01*
Y104647D02*
Y105090D01*
X132960Y104060D02*
Y104503D01*
Y104060D02*
X133490D01*
Y104503D01*
Y104797D02*
Y105240D01*
X132960D02*
X133490D01*
X132960Y104797D02*
Y105240D01*
X132360Y104797D02*
Y105240D01*
X132890D01*
Y104797D02*
Y105240D01*
Y104060D02*
Y104503D01*
X132360Y104060D02*
X132890D01*
X132360D02*
Y104503D01*
X107983Y60495D02*
X108425D01*
Y61026D01*
X107983D02*
X108425D01*
X107246D02*
X107688D01*
X107246Y60495D02*
Y61026D01*
Y60495D02*
X107688D01*
X107110Y51160D02*
X107553D01*
X107110D02*
Y51690D01*
X107553D01*
X107847D02*
X108290D01*
Y51160D02*
Y51690D01*
X107847Y51160D02*
X108290D01*
X106390Y51297D02*
Y51740D01*
X105860D02*
X106390D01*
X105860Y51297D02*
Y51740D01*
Y50560D02*
Y51003D01*
Y50560D02*
X106390D01*
Y51003D01*
X135810Y60997D02*
Y61440D01*
X136340D01*
Y60997D02*
Y61440D01*
Y60260D02*
Y60703D01*
X135810Y60260D02*
X136340D01*
X135810D02*
Y60703D01*
X118340Y57947D02*
Y58390D01*
X117810D02*
X118340D01*
X117810Y57947D02*
Y58390D01*
Y57210D02*
Y57653D01*
Y57210D02*
X118340D01*
Y57653D01*
X132040Y78960D02*
Y79403D01*
X131510Y78960D02*
X132040D01*
X131510D02*
Y79403D01*
Y79697D02*
Y80140D01*
X132040D01*
Y79697D02*
Y80140D01*
X133197Y76360D02*
X133640D01*
Y76890D01*
X133197D02*
X133640D01*
X132460D02*
X132903D01*
X132460Y76360D02*
Y76890D01*
Y76360D02*
X132903D01*
X115397Y57690D02*
X115840D01*
Y57160D02*
Y57690D01*
X115397Y57160D02*
X115840D01*
X114660D02*
X115103D01*
X114660D02*
Y57690D01*
X115103D01*
X115340Y67597D02*
Y68040D01*
X114810D02*
X115340D01*
X114810Y67597D02*
Y68040D01*
Y66860D02*
Y67303D01*
Y66860D02*
X115340D01*
Y67303D01*
X129997Y58290D02*
X130440D01*
Y57760D02*
Y58290D01*
X129997Y57760D02*
X130440D01*
X129260D02*
X129703D01*
X129260D02*
Y58290D01*
X129703D01*
X135810Y61860D02*
Y62303D01*
Y61860D02*
X136340D01*
Y62303D01*
Y62597D02*
Y63040D01*
X135810D02*
X136340D01*
X135810Y62597D02*
Y63040D01*
X130440Y63360D02*
Y63803D01*
X129910Y63360D02*
X130440D01*
X129910D02*
Y63803D01*
Y64097D02*
Y64540D01*
X130440D01*
Y64097D02*
Y64540D01*
X129910Y64660D02*
Y65103D01*
Y64660D02*
X130440D01*
Y65103D01*
Y65397D02*
Y65840D01*
X129910D02*
X130440D01*
X129910Y65397D02*
Y65840D01*
X130497Y66990D02*
X130940D01*
Y66460D02*
Y66990D01*
X130497Y66460D02*
X130940D01*
X129760D02*
X130203D01*
X129760D02*
Y66990D01*
X130203D01*
X130440Y62747D02*
Y63190D01*
X129910D02*
X130440D01*
X129910Y62747D02*
Y63190D01*
Y62010D02*
Y62453D01*
Y62010D02*
X130440D01*
Y62453D01*
X135810Y64347D02*
Y64790D01*
X136340D01*
Y64347D02*
Y64790D01*
Y63610D02*
Y64053D01*
X135810Y63610D02*
X136340D01*
X135810D02*
Y64053D01*
X122440Y55997D02*
Y56440D01*
X121910D02*
X122440D01*
X121910Y55997D02*
Y56440D01*
Y55260D02*
Y55703D01*
Y55260D02*
X122440D01*
Y55703D01*
X121997Y59790D02*
X122440D01*
Y59260D02*
Y59790D01*
X121997Y59260D02*
X122440D01*
X121260D02*
X121703D01*
X121260D02*
Y59790D01*
X121703D01*
X120860Y63340D02*
X121303D01*
X120860Y62810D02*
Y63340D01*
Y62810D02*
X121303D01*
X121597D02*
X122040D01*
Y63340D01*
X121597D02*
X122040D01*
X123047Y64490D02*
X123490D01*
Y63960D02*
Y64490D01*
X123047Y63960D02*
X123490D01*
X122310D02*
X122753D01*
X122310D02*
Y64490D01*
X122753D01*
X120710Y61490D02*
X121153D01*
X120710Y60960D02*
Y61490D01*
Y60960D02*
X121153D01*
X121447D02*
X121890D01*
Y61490D01*
X121447D02*
X121890D01*
X127810Y60047D02*
Y60490D01*
X128340D01*
Y60047D02*
Y60490D01*
Y59310D02*
Y59753D01*
X127810Y59310D02*
X128340D01*
X127810D02*
Y59753D01*
Y61060D02*
Y61503D01*
Y61060D02*
X128340D01*
Y61503D01*
Y61797D02*
Y62240D01*
X127810D02*
X128340D01*
X127810Y61797D02*
Y62240D01*
X136940Y60260D02*
Y60703D01*
X136410Y60260D02*
X136940D01*
X136410D02*
Y60703D01*
Y60997D02*
Y61440D01*
X136940D01*
Y60997D02*
Y61440D01*
X136190Y79697D02*
Y80140D01*
X135660D02*
X136190D01*
X135660Y79697D02*
Y80140D01*
Y78960D02*
Y79403D01*
Y78960D02*
X136190D01*
Y79403D01*
X132690Y78960D02*
Y79403D01*
X132160Y78960D02*
X132690D01*
X132160D02*
Y79403D01*
Y79697D02*
Y80140D01*
X132690D01*
Y79697D02*
Y80140D01*
X132247Y80260D02*
X132690D01*
Y80790D01*
X132247D02*
X132690D01*
X131510D02*
X131953D01*
X131510Y80260D02*
Y80790D01*
Y80260D02*
X131953D01*
X132460Y75797D02*
Y76240D01*
X132990D01*
Y75797D02*
Y76240D01*
Y75060D02*
Y75503D01*
X132460Y75060D02*
X132990D01*
X132460D02*
Y75503D01*
X133540Y79697D02*
Y80140D01*
X133010D02*
X133540D01*
X133010Y79697D02*
Y80140D01*
Y78960D02*
Y79403D01*
Y78960D02*
X133540D01*
Y79403D01*
X134440Y77210D02*
Y77653D01*
X133910Y77210D02*
X134440D01*
X133910D02*
Y77653D01*
Y77947D02*
Y78390D01*
X134440D01*
Y77947D02*
Y78390D01*
X133910Y75910D02*
Y76353D01*
Y75910D02*
X134440D01*
Y76353D01*
Y76647D02*
Y77090D01*
X133910D02*
X134440D01*
X133910Y76647D02*
Y77090D01*
X133110Y75797D02*
Y76240D01*
X133640D01*
Y75797D02*
Y76240D01*
Y75060D02*
Y75503D01*
X133110Y75060D02*
X133640D01*
X133110D02*
Y75503D01*
X128640Y84047D02*
Y84490D01*
X128110D02*
X128640D01*
X128110Y84047D02*
Y84490D01*
Y83310D02*
Y83753D01*
Y83310D02*
X128640D01*
Y83753D01*
X131110Y72310D02*
X131553D01*
X131110D02*
Y72840D01*
X131553D01*
X131847D02*
X132290D01*
Y72310D02*
Y72840D01*
X131847Y72310D02*
X132290D01*
X115760Y75560D02*
Y76003D01*
Y75560D02*
X116290D01*
Y76003D01*
Y76297D02*
Y76740D01*
X115760D02*
X116290D01*
X115760Y76297D02*
Y76740D01*
X131040Y78760D02*
Y79203D01*
X130510Y78760D02*
X131040D01*
X130510D02*
Y79203D01*
Y79497D02*
Y79940D01*
X131040D01*
Y79497D02*
Y79940D01*
X131397Y75610D02*
X131840D01*
Y76140D01*
X131397D02*
X131840D01*
X130660D02*
X131103D01*
X130660Y75610D02*
Y76140D01*
Y75610D02*
X131103D01*
X116647Y80590D02*
X117090D01*
Y80060D02*
Y80590D01*
X116647Y80060D02*
X117090D01*
X115910D02*
X116353D01*
X115910D02*
Y80590D01*
X116353D01*
X120510Y83540D02*
X120953D01*
X120510Y83010D02*
Y83540D01*
Y83010D02*
X120953D01*
X121247D02*
X121690D01*
Y83540D01*
X121247D02*
X121690D01*
X123960Y68847D02*
Y69290D01*
X124490D01*
Y68847D02*
Y69290D01*
Y68110D02*
Y68553D01*
X123960Y68110D02*
X124490D01*
X123960D02*
Y68553D01*
X120010Y68560D02*
Y69003D01*
Y68560D02*
X120540D01*
Y69003D01*
Y69297D02*
Y69740D01*
X120010D02*
X120540D01*
X120010Y69297D02*
Y69740D01*
X125190Y82810D02*
Y83253D01*
X124660Y82810D02*
X125190D01*
X124660D02*
Y83253D01*
Y83547D02*
Y83990D01*
X125190D01*
Y83547D02*
Y83990D01*
X127110Y68010D02*
Y68453D01*
Y68010D02*
X127640D01*
Y68453D01*
Y68747D02*
Y69190D01*
X127110D02*
X127640D01*
X127110Y68747D02*
Y69190D01*
X117047Y73490D02*
X117490D01*
Y72960D02*
Y73490D01*
X117047Y72960D02*
X117490D01*
X116310D02*
X116753D01*
X116310D02*
Y73490D01*
X116753D01*
X116860Y78260D02*
Y78703D01*
Y78260D02*
X117390D01*
Y78703D01*
Y78997D02*
Y79440D01*
X116860D02*
X117390D01*
X116860Y78997D02*
Y79440D01*
X130560Y74560D02*
X131003D01*
X130560D02*
Y75090D01*
X131003D01*
X131297D02*
X131740D01*
Y74560D02*
Y75090D01*
X131297Y74560D02*
X131740D01*
X125060Y68060D02*
Y68503D01*
Y68060D02*
X125590D01*
Y68503D01*
Y68797D02*
Y69240D01*
X125060D02*
X125590D01*
X125060Y68797D02*
Y69240D01*
X116647Y72240D02*
X117090D01*
Y71710D02*
Y72240D01*
X116647Y71710D02*
X117090D01*
X115910D02*
X116353D01*
X115910D02*
Y72240D01*
X116353D01*
X126560Y83490D02*
X127003D01*
X126560Y82960D02*
Y83490D01*
Y82960D02*
X127003D01*
X127297D02*
X127740D01*
Y83490D01*
X127297D02*
X127740D01*
X131260Y77410D02*
X131703D01*
X131260D02*
Y77940D01*
X131703D01*
X131997D02*
X132440D01*
Y77410D02*
Y77940D01*
X131997Y77410D02*
X132440D01*
X132597Y78310D02*
X133040D01*
Y78840D01*
X132597D02*
X133040D01*
X131860D02*
X132303D01*
X131860Y78310D02*
Y78840D01*
Y78310D02*
X132303D01*
X131847Y76740D02*
X132290D01*
Y76210D02*
Y76740D01*
X131847Y76210D02*
X132290D01*
X131110D02*
X131553D01*
X131110D02*
Y76740D01*
X131553D01*
X114160Y81390D02*
X114603D01*
X114160Y80860D02*
Y81390D01*
Y80860D02*
X114603D01*
X114897D02*
X115340D01*
Y81390D01*
X114897D02*
X115340D01*
X116147Y81740D02*
X116590D01*
Y81210D02*
Y81740D01*
X116147Y81210D02*
X116590D01*
X115410D02*
X115853D01*
X115410D02*
Y81740D01*
X115853D01*
X114160Y82090D02*
X114603D01*
X114160Y81560D02*
Y82090D01*
Y81560D02*
X114603D01*
X114897D02*
X115340D01*
Y82090D01*
X114897D02*
X115340D01*
X116147Y82440D02*
X116590D01*
Y81910D02*
Y82440D01*
X116147Y81910D02*
X116590D01*
X115410D02*
X115853D01*
X115410D02*
Y82440D01*
X115853D01*
X114160Y80040D02*
X114603D01*
X114160Y79510D02*
Y80040D01*
Y79510D02*
X114603D01*
X114897D02*
X115340D01*
Y80040D01*
X114897D02*
X115340D01*
X114897Y80640D02*
X115340D01*
Y80110D02*
Y80640D01*
X114897Y80110D02*
X115340D01*
X114160D02*
X114603D01*
X114160D02*
Y80640D01*
X114603D01*
X114160Y82790D02*
X114603D01*
X114160Y82260D02*
Y82790D01*
Y82260D02*
X114603D01*
X114897D02*
X115340D01*
Y82790D01*
X114897D02*
X115340D01*
X124147Y86040D02*
X124590D01*
Y85510D02*
Y86040D01*
X124147Y85510D02*
X124590D01*
X123410D02*
X123853D01*
X123410D02*
Y86040D01*
X123853D01*
X116760Y75560D02*
Y76003D01*
Y75560D02*
X117290D01*
Y76003D01*
Y76297D02*
Y76740D01*
X116760D02*
X117290D01*
X116760Y76297D02*
Y76740D01*
X120990Y66810D02*
Y67253D01*
X120460Y66810D02*
X120990D01*
X120460D02*
Y67253D01*
Y67547D02*
Y67990D01*
X120990D01*
Y67547D02*
Y67990D01*
X121640Y68847D02*
Y69290D01*
X121110D02*
X121640D01*
X121110Y68847D02*
Y69290D01*
Y68110D02*
Y68553D01*
Y68110D02*
X121640D01*
Y68553D01*
X121690Y66810D02*
Y67253D01*
X121160Y66810D02*
X121690D01*
X121160D02*
Y67253D01*
Y67547D02*
Y67990D01*
X121690D01*
Y67547D02*
Y67990D01*
X131847Y82410D02*
X132290D01*
Y82940D01*
X131847D02*
X132290D01*
X131110D02*
X131553D01*
X131110Y82410D02*
Y82940D01*
Y82410D02*
X131553D01*
X136240Y82660D02*
Y83103D01*
X135710Y82660D02*
X136240D01*
X135710D02*
Y83103D01*
Y83397D02*
Y83840D01*
X136240D01*
Y83397D02*
Y83840D01*
X102160Y95547D02*
Y95990D01*
X102690D01*
Y95547D02*
Y95990D01*
Y94810D02*
Y95253D01*
X102160Y94810D02*
X102690D01*
X102160D02*
Y95253D01*
X130047Y92160D02*
X130490D01*
Y92690D01*
X130047D02*
X130490D01*
X129310D02*
X129753D01*
X129310Y92160D02*
Y92690D01*
Y92160D02*
X129753D01*
X129310Y89760D02*
X129753D01*
X129310D02*
Y90290D01*
X129753D01*
X130047D02*
X130490D01*
Y89760D02*
Y90290D01*
X130047Y89760D02*
X130490D01*
X133460Y85810D02*
Y86253D01*
Y85810D02*
X133990D01*
Y86253D01*
Y86547D02*
Y86990D01*
X133460D02*
X133990D01*
X133460Y86547D02*
Y86990D01*
X132260Y86547D02*
Y86990D01*
X132790D01*
Y86547D02*
Y86990D01*
Y85810D02*
Y86253D01*
X132260Y85810D02*
X132790D01*
X132260D02*
Y86253D01*
X129360Y88890D02*
X129803D01*
X129360Y88360D02*
Y88890D01*
Y88360D02*
X129803D01*
X130097D02*
X130540D01*
Y88890D01*
X130097D02*
X130540D01*
X135240Y88910D02*
Y89353D01*
X134710Y88910D02*
X135240D01*
X134710D02*
Y89353D01*
Y89647D02*
Y90090D01*
X135240D01*
Y89647D02*
Y90090D01*
X134910Y87610D02*
Y88053D01*
Y87610D02*
X135440D01*
Y88053D01*
Y88347D02*
Y88790D01*
X134910D02*
X135440D01*
X134910Y88347D02*
Y88790D01*
X134710Y91110D02*
X135153D01*
X134710D02*
Y91640D01*
X135153D01*
X135447D02*
X135890D01*
Y91110D02*
Y91640D01*
X135447Y91110D02*
X135890D01*
X134940Y92447D02*
Y92890D01*
X134410D02*
X134940D01*
X134410Y92447D02*
Y92890D01*
Y91710D02*
Y92153D01*
Y91710D02*
X134940D01*
Y92153D01*
X131640Y91710D02*
Y92153D01*
X131110Y91710D02*
X131640D01*
X131110D02*
Y92153D01*
Y92447D02*
Y92890D01*
X131640D01*
Y92447D02*
Y92890D01*
X132860Y85810D02*
Y86253D01*
Y85810D02*
X133390D01*
Y86253D01*
Y86547D02*
Y86990D01*
X132860D02*
X133390D01*
X132860Y86547D02*
Y86990D01*
X134060Y86847D02*
Y87290D01*
X134590D01*
Y86847D02*
Y87290D01*
Y86110D02*
Y86553D01*
X134060Y86110D02*
X134590D01*
X134060D02*
Y86553D01*
X134710Y90990D02*
X135153D01*
X134710Y90460D02*
Y90990D01*
Y90460D02*
X135153D01*
X135447D02*
X135890D01*
Y90990D01*
X135447D02*
X135890D01*
X129310Y91560D02*
X129753D01*
X129310D02*
Y92090D01*
X129753D01*
X130047D02*
X130490D01*
Y91560D02*
Y92090D01*
X130047Y91560D02*
X130490D01*
X130047Y90960D02*
X130490D01*
Y91490D01*
X130047D02*
X130490D01*
X129310D02*
X129753D01*
X129310Y90960D02*
Y91490D01*
Y90960D02*
X129753D01*
X129310Y90360D02*
X129753D01*
X129310D02*
Y90890D01*
X129753D01*
X130047D02*
X130490D01*
Y90360D02*
Y90890D01*
X130047Y90360D02*
X130490D01*
X133210Y92610D02*
Y93053D01*
Y92610D02*
X133740D01*
Y93053D01*
Y93347D02*
Y93790D01*
X133210D02*
X133740D01*
X133210Y93347D02*
Y93790D01*
X131710Y92697D02*
Y93140D01*
X132240D01*
Y92697D02*
Y93140D01*
Y91960D02*
Y92403D01*
X131710Y91960D02*
X132240D01*
X131710D02*
Y92403D01*
X132610Y91960D02*
Y92403D01*
Y91960D02*
X133140D01*
Y92403D01*
Y92697D02*
Y93140D01*
X132610D02*
X133140D01*
X132610Y92697D02*
Y93140D01*
X134460Y93310D02*
X134903D01*
X134460D02*
Y93840D01*
X134903D01*
X135197D02*
X135640D01*
Y93310D02*
Y93840D01*
X135197Y93310D02*
X135640D01*
X131197Y93010D02*
X131640D01*
Y93540D01*
X131197D02*
X131640D01*
X130460D02*
X130903D01*
X130460Y93010D02*
Y93540D01*
Y93010D02*
X130903D01*
X129390Y96160D02*
Y96603D01*
X128860Y96160D02*
X129390D01*
X128860D02*
Y96603D01*
Y96897D02*
Y97340D01*
X129390D01*
Y96897D02*
Y97340D01*
X128790Y96897D02*
Y97340D01*
X128260D02*
X128790D01*
X128260Y96897D02*
Y97340D01*
Y96160D02*
Y96603D01*
Y96160D02*
X128790D01*
Y96603D01*
X130290Y96160D02*
Y96603D01*
X129760Y96160D02*
X130290D01*
X129760D02*
Y96603D01*
Y96897D02*
Y97340D01*
X130290D01*
Y96897D02*
Y97340D01*
X130890Y96897D02*
Y97340D01*
X130360D02*
X130890D01*
X130360Y96897D02*
Y97340D01*
Y96160D02*
Y96603D01*
Y96160D02*
X130890D01*
Y96603D01*
X133290Y96510D02*
Y96953D01*
X132760Y96510D02*
X133290D01*
X132760D02*
Y96953D01*
Y97247D02*
Y97690D01*
X133290D01*
Y97247D02*
Y97690D01*
X129860Y94110D02*
Y94553D01*
Y94110D02*
X130390D01*
Y94553D01*
Y94847D02*
Y95290D01*
X129860D02*
X130390D01*
X129860Y94847D02*
Y95290D01*
X133810Y93347D02*
Y93790D01*
X134340D01*
Y93347D02*
Y93790D01*
Y92610D02*
Y93053D01*
X133810Y92610D02*
X134340D01*
X133810D02*
Y93053D01*
X131655Y94675D02*
Y95355D01*
X130995D02*
X131655D01*
X130995Y94675D02*
Y95355D01*
X131655Y93695D02*
Y94375D01*
X130995Y93695D02*
X131655D01*
X130995D02*
Y94375D01*
X133395Y96495D02*
Y97175D01*
Y96495D02*
X134055D01*
Y97175D01*
X133395Y97475D02*
Y98155D01*
X134055D01*
Y97475D02*
Y98155D01*
X128745Y96055D02*
X129425D01*
X128745Y95395D02*
Y96055D01*
Y95395D02*
X129425D01*
X129725Y96055D02*
X130405D01*
Y95395D02*
Y96055D01*
X129725Y95395D02*
X130405D01*
X118827Y89745D02*
X119507D01*
Y90405D01*
X118827D02*
X119507D01*
X117847Y89745D02*
X118527D01*
X117847D02*
Y90405D01*
X118527D01*
X123525Y86145D02*
X124205D01*
Y86805D01*
X123525D02*
X124205D01*
X122545Y86145D02*
X123225D01*
X122545D02*
Y86805D01*
X123225D01*
X117425Y87643D02*
X118105D01*
Y88303D01*
X117425D02*
X118105D01*
X116445Y87643D02*
X117125D01*
X116445D02*
Y88303D01*
X117125D01*
X115675Y87643D02*
X116355D01*
Y88303D01*
X115675D02*
X116355D01*
X114695Y87643D02*
X115375D01*
X114695D02*
Y88303D01*
X115375D01*
X114355Y88773D02*
Y89453D01*
X113695D02*
X114355D01*
X113695Y88773D02*
Y89453D01*
X114355Y87793D02*
Y88473D01*
X113695Y87793D02*
X114355D01*
X113695D02*
Y88473D01*
X89025Y63345D02*
X89705D01*
Y64005D01*
X89025D02*
X89705D01*
X88045Y63345D02*
X88725D01*
X88045D02*
Y64005D01*
X88725D01*
X88295Y69005D02*
X88975D01*
X88295Y68345D02*
Y69005D01*
Y68345D02*
X88975D01*
X89275Y69005D02*
X89955D01*
Y68345D02*
Y69005D01*
X89275Y68345D02*
X89955D01*
X117845Y89543D02*
X118525D01*
X117845Y88883D02*
Y89543D01*
Y88883D02*
X118525D01*
X118825Y89543D02*
X119505D01*
Y88883D02*
Y89543D01*
X118825Y88883D02*
X119505D01*
X136345Y82545D02*
Y83225D01*
Y82545D02*
X137005D01*
Y83225D01*
X136345Y83525D02*
Y84205D01*
X137005D01*
Y83525D02*
Y84205D01*
X112240Y72210D02*
Y72653D01*
X111710Y72210D02*
X112240D01*
X111710D02*
Y72653D01*
Y72947D02*
Y73390D01*
X112240D01*
Y72947D02*
Y73390D01*
X113610Y95640D02*
X114053D01*
X113610Y95110D02*
Y95640D01*
Y95110D02*
X114053D01*
X114347D02*
X114790D01*
Y95640D01*
X114347D02*
X114790D01*
X112260Y95297D02*
Y95740D01*
X112790D01*
Y95297D02*
Y95740D01*
Y94560D02*
Y95003D01*
X112260Y94560D02*
X112790D01*
X112260D02*
Y95003D01*
X117810Y95347D02*
Y95790D01*
X118340D01*
Y95347D02*
Y95790D01*
Y94610D02*
Y95053D01*
X117810Y94610D02*
X118340D01*
X117810D02*
Y95053D01*
X117160Y95347D02*
Y95790D01*
X117690D01*
Y95347D02*
Y95790D01*
Y94610D02*
Y95053D01*
X117160Y94610D02*
X117690D01*
X117160D02*
Y95053D01*
X111660Y94797D02*
Y95240D01*
X112190D01*
Y94797D02*
Y95240D01*
Y94060D02*
Y94503D01*
X111660Y94060D02*
X112190D01*
X111660D02*
Y94503D01*
X111247Y95840D02*
X111690D01*
Y95310D02*
Y95840D01*
X111247Y95310D02*
X111690D01*
X110510D02*
X110953D01*
X110510D02*
Y95840D01*
X110953D01*
X108560Y69197D02*
Y69640D01*
X109090D01*
Y69197D02*
Y69640D01*
Y68460D02*
Y68903D01*
X108560Y68460D02*
X109090D01*
X108560D02*
Y68903D01*
X109747Y86740D02*
X110190D01*
Y86210D02*
Y86740D01*
X109747Y86210D02*
X110190D01*
X109010D02*
X109453D01*
X109010D02*
Y86740D01*
X109453D01*
X107310Y85760D02*
X107753D01*
X107310D02*
Y86290D01*
X107753D01*
X108047D02*
X108490D01*
Y85760D02*
Y86290D01*
X108047Y85760D02*
X108490D01*
X109060Y84440D02*
X109503D01*
X109060Y83910D02*
Y84440D01*
Y83910D02*
X109503D01*
X109797D02*
X110240D01*
Y84440D01*
X109797D02*
X110240D01*
X107310Y83060D02*
Y83503D01*
Y83060D02*
X107840D01*
Y83503D01*
Y83797D02*
Y84240D01*
X107310D02*
X107840D01*
X107310Y83797D02*
Y84240D01*
X107960Y83060D02*
Y83503D01*
Y83060D02*
X108490D01*
Y83503D01*
Y83797D02*
Y84240D01*
X107960D02*
X108490D01*
X107960Y83797D02*
Y84240D01*
X111040Y86297D02*
Y86740D01*
X110510D02*
X111040D01*
X110510Y86297D02*
Y86740D01*
Y85560D02*
Y86003D01*
Y85560D02*
X111040D01*
Y86003D01*
X110175Y81445D02*
X110855D01*
Y82105D01*
X110175D02*
X110855D01*
X109195Y81445D02*
X109875D01*
X109195D02*
Y82105D01*
X109875D01*
X111160Y85560D02*
Y86003D01*
Y85560D02*
X111690D01*
Y86003D01*
Y86297D02*
Y86740D01*
X111160D02*
X111690D01*
X111160Y86297D02*
Y86740D01*
X95260Y64660D02*
Y65103D01*
Y64660D02*
X95790D01*
Y65103D01*
Y65397D02*
Y65840D01*
X95260D02*
X95790D01*
X95260Y65397D02*
Y65840D01*
X95860Y64660D02*
Y65103D01*
Y64660D02*
X96390D01*
Y65103D01*
Y65397D02*
Y65840D01*
X95860D02*
X96390D01*
X95860Y65397D02*
Y65840D01*
X96460Y64660D02*
Y65103D01*
Y64660D02*
X96990D01*
Y65103D01*
Y65397D02*
Y65840D01*
X96460D02*
X96990D01*
X96460Y65397D02*
Y65840D01*
X94747Y64110D02*
X95190D01*
Y64640D01*
X94747D02*
X95190D01*
X94010D02*
X94453D01*
X94010Y64110D02*
Y64640D01*
Y64110D02*
X94453D01*
X97990Y65147D02*
Y65590D01*
X97460D02*
X97990D01*
X97460Y65147D02*
Y65590D01*
Y64410D02*
Y64853D01*
Y64410D02*
X97990D01*
Y64853D01*
X103490Y62947D02*
Y63390D01*
X102960D02*
X103490D01*
X102960Y62947D02*
Y63390D01*
Y62210D02*
Y62653D01*
Y62210D02*
X103490D01*
Y62653D01*
X104047Y58560D02*
X104490D01*
Y59090D01*
X104047D02*
X104490D01*
X103310D02*
X103753D01*
X103310Y58560D02*
Y59090D01*
Y58560D02*
X103753D01*
X102397Y53710D02*
X102840D01*
Y54240D01*
X102397D02*
X102840D01*
X101660D02*
X102103D01*
X101660Y53710D02*
Y54240D01*
Y53710D02*
X102103D01*
X97110Y52110D02*
Y52553D01*
Y52110D02*
X97640D01*
Y52553D01*
Y52847D02*
Y53290D01*
X97110D02*
X97640D01*
X97110Y52847D02*
Y53290D01*
X91710Y56040D02*
X92153D01*
X91710Y55510D02*
Y56040D01*
Y55510D02*
X92153D01*
X92447D02*
X92890D01*
Y56040D01*
X92447D02*
X92890D01*
X91560Y59690D02*
X92003D01*
X91560Y59160D02*
Y59690D01*
Y59160D02*
X92003D01*
X92297D02*
X92740D01*
Y59690D01*
X92297D02*
X92740D01*
X91910Y62790D02*
X92353D01*
X91910Y62260D02*
Y62790D01*
Y62260D02*
X92353D01*
X92647D02*
X93090D01*
Y62790D01*
X92647D02*
X93090D01*
X98590Y65147D02*
Y65590D01*
X98060D02*
X98590D01*
X98060Y65147D02*
Y65590D01*
Y64410D02*
Y64853D01*
Y64410D02*
X98590D01*
Y64853D01*
X104047Y60160D02*
X104490D01*
Y60690D01*
X104047D02*
X104490D01*
X103310D02*
X103753D01*
X103310Y60160D02*
Y60690D01*
Y60160D02*
X103753D01*
X104047Y59160D02*
X104490D01*
Y59690D01*
X104047D02*
X104490D01*
X103310D02*
X103753D01*
X103310Y59160D02*
Y59690D01*
Y59160D02*
X103753D01*
X104297Y57160D02*
X104740D01*
Y57690D01*
X104297D02*
X104740D01*
X103560D02*
X104003D01*
X103560Y57160D02*
Y57690D01*
Y57160D02*
X104003D01*
X97710Y52110D02*
Y52553D01*
Y52110D02*
X98240D01*
Y52553D01*
Y52847D02*
Y53290D01*
X97710D02*
X98240D01*
X97710Y52847D02*
Y53290D01*
X91560Y58290D02*
X92003D01*
X91560Y57760D02*
Y58290D01*
Y57760D02*
X92003D01*
X92297D02*
X92740D01*
Y58290D01*
X92297D02*
X92740D01*
X91560Y60440D02*
X92003D01*
X91560Y59910D02*
Y60440D01*
Y59910D02*
X92003D01*
X92297D02*
X92740D01*
Y60440D01*
X92297D02*
X92740D01*
X91560Y61290D02*
X92003D01*
X91560Y60760D02*
Y61290D01*
Y60760D02*
X92003D01*
X92297D02*
X92740D01*
Y61290D01*
X92297D02*
X92740D01*
X103460Y56140D02*
X103903D01*
X103460Y55610D02*
Y56140D01*
Y55610D02*
X103903D01*
X104197D02*
X104640D01*
Y56140D01*
X104197D02*
X104640D01*
X101740Y52497D02*
Y52940D01*
X101210D02*
X101740D01*
X101210Y52497D02*
Y52940D01*
Y51760D02*
Y52203D01*
Y51760D02*
X101740D01*
Y52203D01*
X102090Y51247D02*
Y51690D01*
X101560D02*
X102090D01*
X101560Y51247D02*
Y51690D01*
Y50510D02*
Y50953D01*
Y50510D02*
X102090D01*
Y50953D01*
X103160Y55540D02*
X103603D01*
X103160Y55010D02*
Y55540D01*
Y55010D02*
X103603D01*
X103897D02*
X104340D01*
Y55540D01*
X103897D02*
X104340D01*
X100690Y51247D02*
Y51690D01*
X100160D02*
X100690D01*
X100160Y51247D02*
Y51690D01*
Y50510D02*
Y50953D01*
Y50510D02*
X100690D01*
Y50953D01*
X101040Y52497D02*
Y52940D01*
X100510D02*
X101040D01*
X100510Y52497D02*
Y52940D01*
Y51760D02*
Y52203D01*
Y51760D02*
X101040D01*
Y52203D01*
X101390Y51247D02*
Y51690D01*
X100860D02*
X101390D01*
X100860Y51247D02*
Y51690D01*
Y50510D02*
Y50953D01*
Y50510D02*
X101390D01*
Y50953D01*
X99640Y52497D02*
Y52940D01*
X99110D02*
X99640D01*
X99110Y52497D02*
Y52940D01*
Y51760D02*
Y52203D01*
Y51760D02*
X99640D01*
Y52203D01*
X99990Y51247D02*
Y51690D01*
X99460D02*
X99990D01*
X99460Y51247D02*
Y51690D01*
Y50510D02*
Y50953D01*
Y50510D02*
X99990D01*
Y50953D01*
X100340Y52497D02*
Y52940D01*
X99810D02*
X100340D01*
X99810Y52497D02*
Y52940D01*
Y51760D02*
Y52203D01*
Y51760D02*
X100340D01*
Y52203D01*
X99290Y51247D02*
Y51690D01*
X98760D02*
X99290D01*
X98760Y51247D02*
Y51690D01*
Y50510D02*
Y50953D01*
Y50510D02*
X99290D01*
Y50953D01*
X97290Y51247D02*
Y51690D01*
X96760D02*
X97290D01*
X96760Y51247D02*
Y51690D01*
Y50510D02*
Y50953D01*
Y50510D02*
X97290D01*
Y50953D01*
X96240Y52497D02*
Y52940D01*
X95710D02*
X96240D01*
X95710Y52497D02*
Y52940D01*
Y51760D02*
Y52203D01*
Y51760D02*
X96240D01*
Y52203D01*
X96590Y51247D02*
Y51690D01*
X96060D02*
X96590D01*
X96060Y51247D02*
Y51690D01*
Y50510D02*
Y50953D01*
Y50510D02*
X96590D01*
Y50953D01*
X96940Y52497D02*
Y52940D01*
X96410D02*
X96940D01*
X96410Y52497D02*
Y52940D01*
Y51760D02*
Y52203D01*
Y51760D02*
X96940D01*
Y52203D01*
X95190Y51247D02*
Y51690D01*
X94660D02*
X95190D01*
X94660Y51247D02*
Y51690D01*
Y50510D02*
Y50953D01*
Y50510D02*
X95190D01*
Y50953D01*
X95540Y52497D02*
Y52940D01*
X95010D02*
X95540D01*
X95010Y52497D02*
Y52940D01*
Y51760D02*
Y52203D01*
Y51760D02*
X95540D01*
Y52203D01*
X94140Y52497D02*
Y52940D01*
X93610D02*
X94140D01*
X93610Y52497D02*
Y52940D01*
Y51760D02*
Y52203D01*
Y51760D02*
X94140D01*
Y52203D01*
X94490Y51247D02*
Y51690D01*
X93960D02*
X94490D01*
X93960Y51247D02*
Y51690D01*
Y50510D02*
Y50953D01*
Y50510D02*
X94490D01*
Y50953D01*
X94840Y52497D02*
Y52940D01*
X94310D02*
X94840D01*
X94310Y52497D02*
Y52940D01*
Y51760D02*
Y52203D01*
Y51760D02*
X94840D01*
Y52203D01*
X90240Y55147D02*
Y55590D01*
X89710D02*
X90240D01*
X89710Y55147D02*
Y55590D01*
Y54410D02*
Y54853D01*
Y54410D02*
X90240D01*
Y54853D01*
X90840Y55147D02*
Y55590D01*
X90310D02*
X90840D01*
X90310Y55147D02*
Y55590D01*
Y54410D02*
Y54853D01*
Y54410D02*
X90840D01*
Y54853D01*
X91440Y55147D02*
Y55590D01*
X90910D02*
X91440D01*
X90910Y55147D02*
Y55590D01*
Y54410D02*
Y54853D01*
Y54410D02*
X91440D01*
Y54853D01*
X88560Y58540D02*
X89003D01*
X88560Y58010D02*
Y58540D01*
Y58010D02*
X89003D01*
X89297D02*
X89740D01*
Y58540D01*
X89297D02*
X89740D01*
X88560Y57940D02*
X89003D01*
X88560Y57410D02*
Y57940D01*
Y57410D02*
X89003D01*
X89297D02*
X89740D01*
Y57940D01*
X89297D02*
X89740D01*
X88560Y57340D02*
X89003D01*
X88560Y56810D02*
Y57340D01*
Y56810D02*
X89003D01*
X89297D02*
X89740D01*
Y57340D01*
X89297D02*
X89740D01*
X88510Y54410D02*
Y54853D01*
Y54410D02*
X89040D01*
Y54853D01*
Y55147D02*
Y55590D01*
X88510D02*
X89040D01*
X88510Y55147D02*
Y55590D01*
X89110Y54410D02*
Y54853D01*
Y54410D02*
X89640D01*
Y54853D01*
Y55147D02*
Y55590D01*
X89110D02*
X89640D01*
X89110Y55147D02*
Y55590D01*
X88560Y59140D02*
X89003D01*
X88560Y58610D02*
Y59140D01*
Y58610D02*
X89003D01*
X89297D02*
X89740D01*
Y59140D01*
X89297D02*
X89740D01*
X95890Y51247D02*
Y51690D01*
X95360D02*
X95890D01*
X95360Y51247D02*
Y51690D01*
Y50510D02*
Y50953D01*
Y50510D02*
X95890D01*
Y50953D01*
X101860Y64671D02*
X102390D01*
X101860D02*
X101860Y64780D01*
X102390Y64671D02*
Y64780D01*
X101860Y66620D02*
X102390D01*
X101860D02*
X101860Y65439D01*
X102390D02*
Y66620D01*
X101690Y65439D02*
Y66620D01*
X101160D02*
X101160Y65439D01*
X101160Y66620D02*
X101690D01*
Y64671D02*
Y64780D01*
X101160Y64671D02*
X101160Y64780D01*
X101160Y64671D02*
X101690D01*
X102560D02*
X103090D01*
X102560D02*
X102560Y64780D01*
X103090Y64671D02*
Y64780D01*
X102560Y66620D02*
X103090D01*
X102560D02*
X102560Y65439D01*
X103090D02*
Y66620D01*
X98590Y50510D02*
Y50953D01*
X98060Y50510D02*
X98590D01*
X98060D02*
Y50953D01*
Y51247D02*
Y51690D01*
X98590D01*
Y51247D02*
Y51690D01*
X98940Y52497D02*
Y52940D01*
X98410D02*
X98940D01*
X98410Y52497D02*
Y52940D01*
Y51760D02*
Y52203D01*
Y51760D02*
X98940D01*
Y52203D01*
X108047Y65160D02*
X108490D01*
Y65690D01*
X108047D02*
X108490D01*
X107310D02*
X107753D01*
X107310Y65160D02*
Y65690D01*
Y65160D02*
X107753D01*
X108047Y64560D02*
X108490D01*
Y65090D01*
X108047D02*
X108490D01*
X107310D02*
X107753D01*
X107310Y64560D02*
Y65090D01*
Y64560D02*
X107753D01*
X108047Y63960D02*
X108490D01*
Y64490D01*
X108047D02*
X108490D01*
X107310D02*
X107753D01*
X107310Y63960D02*
Y64490D01*
Y63960D02*
X107753D01*
D101*
X88700Y70578D02*
X88803Y70602D01*
X88885Y70667D01*
X88931Y70762D01*
Y70867D01*
X88885Y70962D01*
X88803Y71027D01*
X88700Y71051D01*
X122850Y88328D02*
X122953Y88352D01*
X123035Y88417D01*
X123081Y88512D01*
Y88617D01*
X123035Y88712D01*
X122953Y88777D01*
X122850Y88801D01*
X116106Y88514D02*
X116079Y88616D01*
X116005Y88690D01*
X115903Y88718D01*
X115801Y88690D01*
X115727Y88616D01*
X115700Y88514D01*
X88700Y70106D02*
Y70578D01*
Y71051D02*
Y71523D01*
X91653Y70106D02*
Y71523D01*
X125803Y87856D02*
Y89273D01*
X122850Y88801D02*
Y89273D01*
Y87856D02*
Y88328D01*
X116106Y88514D02*
X116513D01*
X115298D02*
X115700D01*
X115298Y90522D02*
X116513D01*
Y88514D02*
Y90522D01*
X115298Y88514D02*
Y90522D01*
D102*
X102039Y80372D02*
X102742Y79669D01*
Y75715D02*
Y79669D01*
X98084Y75715D02*
X102742D01*
X98084D02*
Y80372D01*
X102039D01*
X105327Y52977D02*
Y59249D01*
Y59249D02*
X110051D01*
Y52977D02*
Y59249D01*
X105327Y52977D02*
X110051D01*
X129560Y71431D02*
Y81823D01*
X118603D02*
X129560D01*
X118603Y70866D02*
Y81823D01*
Y70866D02*
X128995D01*
X129560Y71431D01*
X112999Y65123D02*
X117723D01*
X112999Y58851D02*
Y65123D01*
Y58851D02*
X117723D01*
Y58851D02*
Y65123D01*
X131569Y66382D02*
X134714D01*
X134714Y57879D02*
Y66382D01*
X131569Y57879D02*
X134714D01*
X131569D02*
Y66382D01*
X123569Y63832D02*
X126714D01*
X126714Y55329D02*
Y63832D01*
X123569Y55329D02*
X126714D01*
X123569D02*
Y63832D01*
X133528Y90781D02*
X133922Y90388D01*
Y88222D02*
Y90388D01*
X131363Y88222D02*
X133922D01*
X131363D02*
Y90781D01*
X133528D01*
X94082Y55207D02*
Y62646D01*
Y55207D02*
X101929D01*
Y63053D01*
X94490D02*
X101929D01*
X94082Y62646D02*
X94490Y63053D01*
D103*
X133847Y78859D02*
X135343D01*
X133847Y78733D02*
X135343D01*
X133847Y81882D02*
X135343D01*
X133847Y79575D02*
Y81025D01*
X135343Y79575D02*
Y81025D01*
Y78733D02*
Y78881D01*
X133847Y78733D02*
Y78881D01*
X135343Y81735D02*
Y81882D01*
X133847Y81735D02*
Y81882D01*
D104*
X159175Y84525D02*
X160175D01*
Y84025D01*
X160008Y83859D01*
X159675D01*
X159508Y84025D01*
Y84525D01*
Y84192D02*
X159175Y83859D01*
Y83525D02*
Y83192D01*
Y83359D01*
X160175D01*
X160008Y83525D01*
X159175Y82692D02*
X159841D01*
X160175Y82359D01*
X159841Y82026D01*
X159175D01*
X159675D01*
Y82692D01*
D105*
X160596Y94706D02*
D03*
D106*
X160876Y95636D02*
D03*
D107*
X159311Y95836D02*
D03*
Y95036D02*
D03*
D108*
X159911Y94536D02*
D03*
X159211D02*
D03*
M02*
