%FSLAX24Y24*%
%MOIN*%
G70*
G01*
G75*
%ADD10C,0.0100*%
%ADD11R,0.0380X0.0380*%
%ADD12O,0.0630X0.0110*%
%ADD13R,0.0500X0.0650*%
%ADD14O,0.0189X0.0787*%
%ADD15O,0.0787X0.0189*%
%ADD16R,0.0189X0.0787*%
%ADD17R,0.0500X0.0600*%
%ADD18R,0.0600X0.0500*%
%ADD19R,0.1200X0.0900*%
%ADD20R,0.1614X0.0827*%
%ADD21R,0.0600X0.1250*%
%ADD22R,0.1250X0.0600*%
%ADD23O,0.0110X0.0669*%
%ADD24R,0.0110X0.0669*%
%ADD25O,0.0110X0.0709*%
%ADD26O,0.0157X0.0701*%
%ADD27R,0.0157X0.0701*%
%ADD28O,0.0138X0.0846*%
%ADD29R,0.0709X0.1378*%
%ADD30R,0.1378X0.0709*%
%ADD31R,0.0709X0.1575*%
%ADD32R,0.0709X0.0110*%
%ADD33O,0.0709X0.0110*%
%ADD34O,0.0709X0.0110*%
%ADD35R,0.0600X0.0600*%
%ADD36R,0.1575X0.1181*%
%ADD37R,0.0138X0.0846*%
%ADD38R,0.0551X0.0492*%
%ADD39O,0.0701X0.0157*%
%ADD40R,0.0800X0.0800*%
%ADD41R,0.0787X0.0512*%
%ADD42R,0.0945X0.0906*%
%ADD43O,0.0787X0.0177*%
%ADD44R,0.0787X0.0177*%
%ADD45O,0.0110X0.0630*%
%ADD46R,0.0110X0.0630*%
%ADD47C,0.0400*%
%ADD48R,0.0433X0.0787*%
%ADD49R,0.0787X0.0787*%
%ADD50R,0.0787X0.0394*%
%ADD51R,0.0236X0.0433*%
%ADD52R,0.0472X0.0315*%
%ADD53R,0.0492X0.0551*%
%ADD54R,0.0600X0.1000*%
%ADD55R,0.0380X0.0425*%
%ADD56R,0.0630X0.0110*%
%ADD57O,0.0630X0.0110*%
%ADD58C,0.0120*%
%ADD59C,0.0110*%
%ADD60C,0.0400*%
%ADD61C,0.0500*%
%ADD62C,0.0150*%
%ADD63C,0.0200*%
%ADD64C,0.0080*%
%ADD65C,0.0600*%
%ADD66C,0.1000*%
%ADD67C,0.0320*%
%ADD68C,0.0300*%
%ADD69C,0.0290*%
%ADD70C,0.0380*%
%ADD71C,0.0390*%
%ADD72C,0.0180*%
%ADD73C,0.0130*%
%ADD74C,0.0250*%
%ADD75C,0.0280*%
%ADD76C,0.0170*%
%ADD77C,0.0140*%
%ADD78C,0.0220*%
%ADD79C,0.0090*%
%ADD80C,0.0157*%
%ADD81C,0.0310*%
%ADD82C,0.0270*%
%ADD83C,0.0350*%
%ADD84R,0.5050X0.4500*%
%ADD85R,0.5050X0.9550*%
%ADD86R,0.1350X0.1400*%
%ADD87R,0.0300X0.1229*%
%ADD88R,0.0670X0.0700*%
%ADD89C,0.0620*%
%ADD90P,0.0620X8X0*%
%ADD91C,0.0787*%
%ADD92C,0.0906*%
%ADD93C,0.1000*%
%ADD94C,0.0650*%
%ADD95C,0.0600*%
%ADD96C,0.0500*%
%ADD97C,0.0945*%
%ADD98C,0.1181*%
%ADD99C,0.0118*%
%ADD100C,0.0060*%
%ADD101C,0.0098*%
%ADD102C,0.0079*%
%ADD103C,0.0070*%
%ADD104C,0.0160*%
%ADD105R,0.0130X0.0360*%
%ADD106R,0.0430X0.3100*%
%ADD107R,0.1500X0.0500*%
%ADD108R,0.0300X0.0500*%
D10*
X31275Y44075D02*
X31280Y43977D01*
X31294Y43880D01*
X31318Y43785D01*
X31351Y43692D01*
X31393Y43604D01*
X31444Y43519D01*
X31502Y43441D01*
X31568Y43368D01*
X31641Y43302D01*
X31719Y43244D01*
X31804Y43193D01*
X31892Y43151D01*
X31985Y43118D01*
X32080Y43094D01*
X32177Y43080D01*
X32275Y43075D01*
X165475D02*
X165573Y43080D01*
X165670Y43094D01*
X165765Y43118D01*
X165858Y43151D01*
X165946Y43193D01*
X166031Y43244D01*
X166109Y43302D01*
X166182Y43368D01*
X166248Y43441D01*
X166306Y43519D01*
X166357Y43604D01*
X166399Y43692D01*
X166432Y43785D01*
X166456Y43880D01*
X166470Y43977D01*
X166475Y44075D01*
X129325Y113125D02*
X129335Y113027D01*
X129363Y112934D01*
X129409Y112847D01*
X129471Y112771D01*
X129547Y112709D01*
X129634Y112663D01*
X129727Y112635D01*
X129825Y112625D01*
X135975D02*
X136073Y112635D01*
X136166Y112663D01*
X136253Y112709D01*
X136329Y112771D01*
X136391Y112847D01*
X136437Y112934D01*
X136465Y113027D01*
X136475Y113125D01*
X166475D01*
X129825Y112625D02*
X135975D01*
X166475Y44075D02*
Y113125D01*
X31275Y44075D02*
Y113125D01*
X129325D01*
X32275Y43075D02*
X165475D01*
M02*
