%FSLAX24Y24*%
%MOIN*%
G70*
G01*
G75*
%ADD10C,0.0040*%
%ADD11C,0.0400*%
%ADD12C,0.0157*%
%ADD13R,0.0236X0.0906*%
%ADD14R,0.0380X0.0380*%
%ADD15R,0.0315X0.0472*%
%ADD16R,0.0650X0.0500*%
%ADD17R,0.0600X0.1000*%
%ADD18R,0.0600X0.0600*%
%ADD19R,0.0551X0.0512*%
%ADD20R,0.0472X0.0394*%
%ADD21R,0.1000X0.0600*%
%ADD22R,0.0433X0.0236*%
%ADD23R,0.0800X0.0800*%
%ADD24R,0.2480X0.0846*%
%ADD25R,0.0500X0.0600*%
%ADD26R,0.0512X0.0551*%
%ADD27R,0.0394X0.0472*%
%ADD28O,0.0846X0.0138*%
%ADD29R,0.0846X0.0138*%
%ADD30R,0.1181X0.1575*%
%ADD31C,0.0100*%
%ADD32C,0.0060*%
%ADD33C,0.0050*%
%ADD34C,0.0138*%
%ADD35C,0.0200*%
%ADD36C,0.0250*%
%ADD37C,0.0130*%
%ADD38C,0.0500*%
%ADD39C,0.0300*%
%ADD40C,0.0400*%
%ADD41C,0.0110*%
%ADD42C,0.0098*%
%ADD43C,0.0600*%
%ADD44P,0.0600X8X0*%
%ADD45C,0.0620*%
%ADD46P,0.0620X8X0*%
%ADD47C,0.0180*%
%ADD48C,0.0200*%
%ADD49C,0.0500*%
%ADD50C,0.0150*%
%ADD51C,0.0080*%
%ADD52C,0.0059*%
%ADD53C,0.0098*%
%ADD54C,0.0079*%
D32*
X94969Y81613D02*
X95411D01*
X94969Y81082D02*
Y81613D01*
Y81082D02*
X95411D01*
X95706D02*
X96148D01*
Y81613D01*
X95706D02*
X96148D01*
X85556Y89645D02*
X85998D01*
Y89114D02*
Y89645D01*
X85556Y89114D02*
X85998D01*
X84819D02*
X85261D01*
X84819D02*
Y89645D01*
X85261D01*
X81406Y83113D02*
X81848D01*
Y82582D02*
Y83113D01*
X81406Y82582D02*
X81848D01*
X80669D02*
X81111D01*
X80669D02*
Y83113D01*
X81111D01*
X85418Y80983D02*
Y81425D01*
Y80983D02*
X85949D01*
Y81425D01*
Y81720D02*
Y82162D01*
X85418D02*
X85949D01*
X85418Y81720D02*
Y82162D01*
X86018Y81083D02*
Y81525D01*
Y81083D02*
X86549D01*
Y81525D01*
Y81820D02*
Y82262D01*
X86018D02*
X86549D01*
X86018Y81820D02*
Y82262D01*
X94019Y85113D02*
X94461D01*
X94019Y84582D02*
Y85113D01*
Y84582D02*
X94461D01*
X94756D02*
X95198D01*
Y85113D01*
X94756D02*
X95198D01*
X87318Y87983D02*
Y88425D01*
Y87983D02*
X87849D01*
Y88425D01*
Y88720D02*
Y89162D01*
X87318D02*
X87849D01*
X87318Y88720D02*
Y89162D01*
X89206Y87082D02*
X89648D01*
Y87613D01*
X89206D02*
X89648D01*
X88469D02*
X88911D01*
X88469Y87082D02*
Y87613D01*
Y87082D02*
X88911D01*
X82875Y83703D02*
Y84145D01*
Y83703D02*
X83405D01*
Y84145D01*
Y84440D02*
Y84882D01*
X82875D02*
X83405D01*
X82875Y84440D02*
Y84882D01*
X88018Y88720D02*
Y89162D01*
X88549D01*
Y88720D02*
Y89162D01*
Y87983D02*
Y88425D01*
X88018Y87983D02*
X88549D01*
X88018D02*
Y88425D01*
X90318Y88720D02*
Y89162D01*
X90849D01*
Y88720D02*
Y89162D01*
Y87983D02*
Y88425D01*
X90318Y87983D02*
X90849D01*
X90318D02*
Y88425D01*
X87849Y85533D02*
Y85975D01*
X87318Y85533D02*
X87849D01*
X87318D02*
Y85975D01*
Y86270D02*
Y86712D01*
X87849D01*
Y86270D02*
Y86712D01*
X90149Y85533D02*
Y85975D01*
X89618Y85533D02*
X90149D01*
X89618D02*
Y85975D01*
Y86270D02*
Y86712D01*
X90149D01*
Y86270D02*
Y86712D01*
X93518Y83120D02*
Y83562D01*
X94049D01*
Y83120D02*
Y83562D01*
Y82383D02*
Y82825D01*
X93518Y82383D02*
X94049D01*
X93518D02*
Y82825D01*
X85259Y91699D02*
Y92141D01*
X84729Y91699D02*
X85259D01*
X84729D02*
Y92141D01*
Y92436D02*
Y92878D01*
X85259D01*
Y92436D02*
Y92878D01*
X84406Y82713D02*
X84848D01*
Y82182D02*
Y82713D01*
X84406Y82182D02*
X84848D01*
X83669D02*
X84111D01*
X83669D02*
Y82713D01*
X84111D01*
X93519Y91182D02*
X93961D01*
X93519D02*
Y91713D01*
X93961D01*
X94256D02*
X94698D01*
Y91182D02*
Y91713D01*
X94256Y91182D02*
X94698D01*
X89618Y88720D02*
Y89162D01*
X90149D01*
Y88720D02*
Y89162D01*
Y87983D02*
Y88425D01*
X89618Y87983D02*
X90149D01*
X89618D02*
Y88425D01*
X88549Y85533D02*
Y85975D01*
X88018Y85533D02*
X88549D01*
X88018D02*
Y85975D01*
Y86270D02*
Y86712D01*
X88549D01*
Y86270D02*
Y86712D01*
X90849Y85533D02*
Y85975D01*
X90318Y85533D02*
X90849D01*
X90318D02*
Y85975D01*
Y86270D02*
Y86712D01*
X90849D01*
Y86270D02*
Y86712D01*
X84206Y91663D02*
X84648D01*
Y91132D02*
Y91663D01*
X84206Y91132D02*
X84648D01*
X83469D02*
X83911D01*
X83469D02*
Y91663D01*
X83911D01*
X93449Y91733D02*
Y92175D01*
X92918Y91733D02*
X93449D01*
X92918D02*
Y92175D01*
Y92470D02*
Y92912D01*
X93449D01*
Y92470D02*
Y92912D01*
X88519Y90232D02*
X88961D01*
X88519D02*
Y90763D01*
X88961D01*
X89256D02*
X89698D01*
Y90232D02*
Y90763D01*
X89256Y90232D02*
X89698D01*
X94118Y83120D02*
Y83562D01*
X94649D01*
Y83120D02*
Y83562D01*
Y82383D02*
Y82825D01*
X94118Y82383D02*
X94649D01*
X94118D02*
Y82825D01*
X84156Y83563D02*
X84598D01*
Y83032D02*
Y83563D01*
X84156Y83032D02*
X84598D01*
X83419D02*
X83861D01*
X83419D02*
Y83563D01*
X83861D01*
X90606Y87613D02*
X91048D01*
Y87082D02*
Y87613D01*
X90606Y87082D02*
X91048D01*
X89869D02*
X90311D01*
X89869D02*
Y87613D01*
X90311D01*
X85556Y88463D02*
X85998D01*
Y87932D02*
Y88463D01*
X85556Y87932D02*
X85998D01*
X84819D02*
X85261D01*
X84819D02*
Y88463D01*
X85261D01*
X92349Y91283D02*
Y91725D01*
X91818Y91283D02*
X92349D01*
X91818D02*
Y91725D01*
Y92020D02*
Y92462D01*
X92349D01*
Y92020D02*
Y92462D01*
X84656Y90613D02*
X85098D01*
Y90082D02*
Y90613D01*
X84656Y90082D02*
X85098D01*
X83919D02*
X84361D01*
X83919D02*
Y90613D01*
X84361D01*
X84256Y84163D02*
X84698D01*
Y83632D02*
Y84163D01*
X84256Y83632D02*
X84698D01*
X83519D02*
X83961D01*
X83519D02*
Y84163D01*
X83961D01*
X89968Y82570D02*
Y83012D01*
X90499D01*
Y82570D02*
Y83012D01*
Y81833D02*
Y82275D01*
X89968Y81833D02*
X90499D01*
X89968D02*
Y82275D01*
X92269Y86182D02*
X92711D01*
X92269D02*
Y86713D01*
X92711D01*
X93006D02*
X93448D01*
Y86182D02*
Y86713D01*
X93006Y86182D02*
X93448D01*
X90349Y90883D02*
Y91325D01*
X89818Y90883D02*
X90349D01*
X89818D02*
Y91325D01*
Y91620D02*
Y92062D01*
X90349D01*
Y91620D02*
Y92062D01*
X85506Y85513D02*
X85948D01*
Y84982D02*
Y85513D01*
X85506Y84982D02*
X85948D01*
X84769D02*
X85211D01*
X84769D02*
Y85513D01*
X85211D01*
X89349Y85533D02*
Y85975D01*
X88818Y85533D02*
X89349D01*
X88818D02*
Y85975D01*
Y86270D02*
Y86712D01*
X89349D01*
Y86270D02*
Y86712D01*
X94706Y84463D02*
X95148D01*
Y83932D02*
Y84463D01*
X94706Y83932D02*
X95148D01*
X93969D02*
X94411D01*
X93969D02*
Y84463D01*
X94411D01*
X92219Y84832D02*
X92661D01*
X92219D02*
Y85363D01*
X92661D01*
X92956D02*
X93398D01*
Y84832D02*
Y85363D01*
X92956Y84832D02*
X93398D01*
X92219Y87832D02*
X92661D01*
X92219D02*
Y88363D01*
X92661D01*
X92956D02*
X93398D01*
Y87832D02*
Y88363D01*
X92956Y87832D02*
X93398D01*
X93069Y90082D02*
X93511D01*
X93069D02*
Y90613D01*
X93511D01*
X93806D02*
X94248D01*
Y90082D02*
Y90613D01*
X93806Y90082D02*
X94248D01*
X88349Y90883D02*
Y91325D01*
X87818Y90883D02*
X88349D01*
X87818D02*
Y91325D01*
Y91620D02*
Y92062D01*
X88349D01*
Y91620D02*
Y92062D01*
X86399Y91283D02*
Y91725D01*
X85868Y91283D02*
X86399D01*
X85868D02*
Y91725D01*
Y92020D02*
Y92462D01*
X86399D01*
Y92020D02*
Y92462D01*
X88818Y82070D02*
Y82512D01*
X89349D01*
Y82070D02*
Y82512D01*
Y81333D02*
Y81775D01*
X88818Y81333D02*
X89349D01*
X88818D02*
Y81775D01*
X87468Y81870D02*
Y82312D01*
X87999D01*
Y81870D02*
Y82312D01*
Y81133D02*
Y81575D01*
X87468Y81133D02*
X87999D01*
X87468D02*
Y81575D01*
X92269Y82432D02*
X92711D01*
X92269D02*
Y82963D01*
X92711D01*
X93006D02*
X93448D01*
Y82432D02*
Y82963D01*
X93006Y82432D02*
X93448D01*
X81868Y83970D02*
Y84412D01*
X82399D01*
Y83970D02*
Y84412D01*
Y83233D02*
Y83675D01*
X81868Y83233D02*
X82399D01*
X81868D02*
Y83675D01*
X85506Y86413D02*
X85948D01*
Y85882D02*
Y86413D01*
X85506Y85882D02*
X85948D01*
X84769D02*
X85211D01*
X84769D02*
Y86413D01*
X85211D01*
X81806Y80863D02*
X82248D01*
Y80332D02*
Y80863D01*
X81806Y80332D02*
X82248D01*
X81069D02*
X81511D01*
X81069D02*
Y80863D01*
X81511D01*
X88818Y88720D02*
Y89162D01*
X89349D01*
Y88720D02*
Y89162D01*
Y87983D02*
Y88425D01*
X88818Y87983D02*
X89349D01*
X88818D02*
Y88425D01*
X87069Y87082D02*
X87511D01*
X87069D02*
Y87613D01*
X87511D01*
X87806D02*
X88248D01*
Y87082D02*
Y87613D01*
X87806Y87082D02*
X88248D01*
X80619Y82463D02*
X81061D01*
X80619Y81932D02*
Y82463D01*
Y81932D02*
X81061D01*
X81356D02*
X81798D01*
Y82463D01*
X81356D02*
X81798D01*
D42*
X85145Y62992D02*
Y62165D01*
X85558D01*
X85696Y62303D01*
Y62441D01*
X85558Y62578D01*
X85145D01*
X85558D01*
X85696Y62716D01*
Y62854D01*
X85558Y62992D01*
X85145D01*
X86109Y62165D02*
X86385D01*
X86523Y62303D01*
Y62578D01*
X86385Y62716D01*
X86109D01*
X85972Y62578D01*
Y62303D01*
X86109Y62165D01*
X86936Y62854D02*
Y62716D01*
X86798D01*
X87074D01*
X86936D01*
Y62303D01*
X87074Y62165D01*
X87625Y62854D02*
Y62716D01*
X87487D01*
X87762D01*
X87625D01*
Y62303D01*
X87762Y62165D01*
X88313D02*
X88589D01*
X88727Y62303D01*
Y62578D01*
X88589Y62716D01*
X88313D01*
X88176Y62578D01*
Y62303D01*
X88313Y62165D01*
X89002D02*
Y62716D01*
X89140D01*
X89278Y62578D01*
Y62165D01*
Y62578D01*
X89415Y62716D01*
X89553Y62578D01*
Y62165D01*
X91206Y62854D02*
X91068Y62992D01*
X90793D01*
X90655Y62854D01*
Y62716D01*
X90793Y62578D01*
X91068D01*
X91206Y62441D01*
Y62303D01*
X91068Y62165D01*
X90793D01*
X90655Y62303D01*
X91482Y62165D02*
X91757D01*
X91619D01*
Y62716D01*
X91482D01*
X92170Y62165D02*
X92446D01*
X92308D01*
Y62992D01*
X92170D01*
X92859Y62165D02*
Y62992D01*
Y62441D02*
X93272Y62716D01*
X92859Y62441D02*
X93272Y62165D01*
X93686D02*
X94099D01*
X94237Y62303D01*
X94099Y62441D01*
X93823D01*
X93686Y62578D01*
X93823Y62716D01*
X94237D01*
X95063D02*
X94650D01*
X94512Y62578D01*
Y62303D01*
X94650Y62165D01*
X95063D01*
X95339Y62716D02*
Y62165D01*
Y62441D01*
X95476Y62578D01*
X95614Y62716D01*
X95752D01*
X96578Y62165D02*
X96303D01*
X96165Y62303D01*
Y62578D01*
X96303Y62716D01*
X96578D01*
X96716Y62578D01*
Y62441D01*
X96165D01*
X97405Y62165D02*
X97129D01*
X96992Y62303D01*
Y62578D01*
X97129Y62716D01*
X97405D01*
X97543Y62578D01*
Y62441D01*
X96992D01*
X97818Y62165D02*
Y62716D01*
X98231D01*
X98369Y62578D01*
Y62165D01*
D51*
X78823Y81181D02*
X78812Y81281D01*
X78779Y81376D01*
X78725Y81462D01*
X78654Y81533D01*
X78569Y81586D01*
X78474Y81620D01*
X78373Y81631D01*
X78273Y81620D01*
X78178Y81586D01*
X78093Y81533D01*
X78022Y81462D01*
X77968Y81376D01*
X77935Y81281D01*
X77923Y81181D01*
X77935Y81081D01*
X77968Y80986D01*
X78022Y80900D01*
X78093Y80829D01*
X78178Y80776D01*
X78273Y80742D01*
X78373Y80731D01*
X78474Y80742D01*
X78569Y80776D01*
X78654Y80829D01*
X78725Y80900D01*
X78779Y80986D01*
X78812Y81081D01*
X78823Y81181D01*
X99768Y89527D02*
X99757Y89628D01*
X99724Y89723D01*
X99670Y89808D01*
X99599Y89879D01*
X99514Y89933D01*
X99418Y89966D01*
X99318Y89977D01*
X99218Y89966D01*
X99123Y89933D01*
X99038Y89879D01*
X98967Y89808D01*
X98913Y89723D01*
X98880Y89628D01*
X98868Y89527D01*
X98880Y89427D01*
X98913Y89332D01*
X98967Y89247D01*
X99038Y89176D01*
X99123Y89122D01*
X99218Y89089D01*
X99318Y89077D01*
X99418Y89089D01*
X99514Y89122D01*
X99599Y89176D01*
X99670Y89247D01*
X99724Y89332D01*
X99757Y89427D01*
X99768Y89527D01*
X77721Y97795D02*
X77710Y97895D01*
X77677Y97990D01*
X77623Y98076D01*
X77552Y98147D01*
X77466Y98201D01*
X77371Y98234D01*
X77271Y98245D01*
X77171Y98234D01*
X77076Y98201D01*
X76991Y98147D01*
X76919Y98076D01*
X76866Y97990D01*
X76832Y97895D01*
X76821Y97795D01*
X76832Y97695D01*
X76866Y97600D01*
X76919Y97515D01*
X76991Y97443D01*
X77076Y97390D01*
X77171Y97356D01*
X77271Y97345D01*
X77371Y97356D01*
X77466Y97390D01*
X77552Y97443D01*
X77623Y97515D01*
X77677Y97600D01*
X77710Y97695D01*
X77721Y97795D01*
M02*
