M72
M48
T1F00S00C0.0080
T2F00S00C0.0100
T3F00S00C0.0200
T4F00S00C0.0280
T5F00S00C0.0320
T6F00S00C0.0350
%
T01
X9370Y3366
X10108Y3455
X10079Y4961
X10394
Y5276
X10709
Y5591
Y5906
Y6220
X10394
Y6535
Y6850
X9764
Y6535
Y6220
Y5906
X10079
Y5591
X9764
X9449
Y5276
X9134
Y4961
X9449
X9764Y4961
X9764Y4646
X9449
X9134
X8819
Y4961
X8465Y5000
X8504Y4331
X9173Y4291
X9449Y4331
X9764Y5276
X11024Y4961
X11339
Y5276
Y5591
X11654
Y5906
Y6220
X11339
X11024
Y5906
Y5591
X11654Y5276
Y4961
X11969
Y5276
Y5591
Y5906
Y6220
X12283Y5906
Y5591
Y5276
Y4646
X12323Y1919
X11811Y2008
X10079Y6535
X7862Y5731
X12913Y5591
Y5276
X13228
Y5591
Y5906
X12913
X13228Y6220
X13543
Y5906
Y5591
Y5276
X13858
Y5591
X14173
Y5276
X14488
Y5591
X14803
Y5276
Y4961
X14488
X14173
X13858
X13543
X13228
X12913Y4961
X13228Y4331
X13465Y2530
X13691Y2392
X13878Y2037
X13858Y5906
Y6220
X14173
X14488
Y5906
X15118
Y5591
Y5276
Y4961
X15433Y5276
X15748
Y4961
X16063
Y4646
X16378
Y4961
X16732Y5000
X16693Y4331
X16024Y4291
X16063Y5276
X15748Y5591
X15433
Y5906
Y6220
Y6535
X15118
X14803
Y6220
Y6850
X15433
X12598Y6221
X14803Y7165
X15118
X15433
X14803Y7480
Y7795
X15118
Y8110
X14803Y8425
X15118Y8740
Y9055
X14803
Y9370
X15118
Y9685
X14803
Y10000
Y10315
X15118
X15433
Y10000
Y9685
Y10630
Y10945
Y11260
X15748
Y11575
X16063
Y11890
X16378
Y12205
X16063
X16024Y12559
X16693Y12520
X16732Y11850
X15748Y11890
X15433Y11575
X15118Y11260
Y10945
X14803Y10630
X14488
Y10945
Y11260
X14803
X14173
X13858
Y10945
Y10630
X14173
X13543
Y10945
X13228
Y10630
X12913Y10945
X12598Y10630
X12913Y12205
X16378Y8425
Y8110
X10394Y8425
X10079Y8425
Y8740
Y9055
X10394
Y9370
Y9685
Y10000
Y10315
Y10630
X10709
X11024
X11339
X11654
X11969
Y10945
X12283
X11654
X11339
Y11260
X11024
X10709
Y10945
X10394Y11260
X10079
X9764
Y11575
X9449
Y11890
X9134
Y12205
X8819
Y11890
X8465Y11850
X8504Y12520
X9173Y12559
X9134Y11575
X9449Y11260
X9764Y10945
X10079
X9764Y10630
Y10315
Y10000
Y9685
X10079
Y9370
X9764Y9055
X10079Y10315
X10079Y7795
X10394
Y7480
X10079
Y7165
X9764
X10394
X8819Y8110
Y8425
X12283Y12205
T02
X3504Y1220
X3976
X5000Y1220
X5630
X6260
X7047Y1220
X6949Y1565
X7687Y1496
X7520Y1220
X8465
X8937Y1220
X10433Y1220
X11299Y1220
X12352Y1447
X10866Y4188
X12200Y6750
X8361Y6693
X827Y5866
X591
X354
X13000Y6750
X16835Y6693
X14331Y4188
X14291Y1220
X14764Y1220
X15630Y1220
X16575
X18622
X19016Y1220
X20591
X22638Y5866
X22874Y5866
X23110Y5866
X13711Y1447
X13504Y1220
X12559
X12600Y7950
X13400
X13750Y7550
Y6900
X14250Y8000
Y8850
X13750
X13300Y8950
X12900Y8850
X13000Y9350
Y10100
X13750Y10000
Y9700
X14331Y12662
X13961Y17092
Y17486
X13489
Y17092
X12874Y17087
Y17480
X13504Y18150
X13898Y17992
X17050Y17600
X18622Y18228
X19134
X19606
Y18622
X19646Y19134
X20039Y19055
X20394Y18898
X19134Y18937
X18622
X18661Y16378
Y15984
X19134
Y16378
X19606
Y15984
X19916Y15457
X20309
Y14985
X19916
Y14513
X20309
X16835Y10157
X12200Y10100
Y9700
X12250Y8850
X11850Y8950
X11400Y8850
X10950
X10900Y8050
X11800Y7950
X11450Y7550
Y6900
Y9350
Y10000
X10866Y12662
X8361Y10157
X11929Y17087
Y17480
X12402
Y17087
T03
X12677Y14488
X13583
X14213
Y15591
X13583
X12677
X14450Y17400
X15100
X17756Y15472
X18268Y15039
Y14409
X17756Y14016
X12126Y14488
Y15591
T04
X20750Y13850
T05
X5100Y17700
X6100
X7100
X8100
X9100
X10100
X11100
Y18700
X10100
X9100
X8100
X7100
X6100
X5100
T06
X3050Y15000
X4050
X5050
X6050
Y16000
X5050
X4050
X3050
M30
