%FSLAX24Y24*%
%MOIN*%
G70*
G01*
G75*
%ADD10C,0.0040*%
%ADD11C,0.0400*%
%ADD12C,0.0157*%
%ADD13R,0.0236X0.0906*%
%ADD14R,0.0380X0.0380*%
%ADD15R,0.0315X0.0472*%
%ADD16R,0.0650X0.0500*%
%ADD17R,0.0600X0.1000*%
%ADD18R,0.0600X0.0600*%
%ADD19R,0.0551X0.0512*%
%ADD20R,0.0472X0.0394*%
%ADD21R,0.1000X0.0600*%
%ADD22R,0.0433X0.0236*%
%ADD23R,0.0800X0.0800*%
%ADD24R,0.2480X0.0846*%
%ADD25R,0.0500X0.0600*%
%ADD26R,0.0512X0.0551*%
%ADD27R,0.0394X0.0472*%
%ADD28O,0.0846X0.0138*%
%ADD29R,0.0846X0.0138*%
%ADD30R,0.1181X0.1575*%
%ADD31C,0.0100*%
%ADD32C,0.0060*%
%ADD33C,0.0050*%
%ADD34C,0.0138*%
%ADD35C,0.0200*%
%ADD36C,0.0250*%
%ADD37C,0.0130*%
%ADD38C,0.0500*%
%ADD39C,0.0300*%
%ADD40C,0.0400*%
%ADD41C,0.0110*%
%ADD42C,0.0098*%
%ADD43C,0.0600*%
%ADD44P,0.0600X8X0*%
%ADD45C,0.0620*%
%ADD46P,0.0620X8X0*%
%ADD47C,0.0180*%
%ADD48C,0.0200*%
%ADD49C,0.0500*%
%ADD50C,0.0150*%
%ADD51C,0.0080*%
%ADD52C,0.0059*%
%ADD53C,0.0098*%
%ADD54C,0.0079*%
D11*
X78373Y81181D02*
D03*
X99318Y89527D02*
D03*
X77271Y97795D02*
D03*
D14*
X95234Y81347D02*
D03*
X95884D02*
D03*
X85734Y89380D02*
D03*
X85084D02*
D03*
X80934Y82847D02*
D03*
X81584D02*
D03*
X85684Y81247D02*
D03*
Y81897D02*
D03*
X86284Y81347D02*
D03*
Y81997D02*
D03*
X94284Y84847D02*
D03*
X94934D02*
D03*
X87584Y88247D02*
D03*
Y88897D02*
D03*
X89384Y87347D02*
D03*
X88734D02*
D03*
X83140Y83968D02*
D03*
Y84618D02*
D03*
X88284Y88897D02*
D03*
Y88247D02*
D03*
X90584Y88897D02*
D03*
Y88247D02*
D03*
X87584Y85797D02*
D03*
Y86447D02*
D03*
X89884Y85797D02*
D03*
Y86447D02*
D03*
X93784Y83297D02*
D03*
Y82647D02*
D03*
X84994Y91964D02*
D03*
Y92614D02*
D03*
X84584Y82447D02*
D03*
X83934D02*
D03*
X93784Y91447D02*
D03*
X94434D02*
D03*
X89884Y88897D02*
D03*
Y88247D02*
D03*
X88284Y85797D02*
D03*
Y86447D02*
D03*
X90584Y85797D02*
D03*
Y86447D02*
D03*
X84384Y91397D02*
D03*
X83734D02*
D03*
X93184Y91997D02*
D03*
Y92647D02*
D03*
X88784Y90497D02*
D03*
X89434D02*
D03*
X94384Y83297D02*
D03*
Y82647D02*
D03*
X84334Y83297D02*
D03*
X83684D02*
D03*
X90784Y87347D02*
D03*
X90134D02*
D03*
X85734Y88197D02*
D03*
X85084D02*
D03*
X92084Y91547D02*
D03*
Y92197D02*
D03*
X84834Y90347D02*
D03*
X84184D02*
D03*
X84434Y83897D02*
D03*
X83784D02*
D03*
X90234Y82747D02*
D03*
Y82097D02*
D03*
X92534Y86447D02*
D03*
X93184D02*
D03*
X90084Y91147D02*
D03*
Y91797D02*
D03*
X85684Y85247D02*
D03*
X85034D02*
D03*
X89084Y85797D02*
D03*
Y86447D02*
D03*
X94884Y84197D02*
D03*
X94234D02*
D03*
X92484Y85097D02*
D03*
X93134D02*
D03*
X92484Y88097D02*
D03*
X93134D02*
D03*
X93334Y90347D02*
D03*
X93984D02*
D03*
X88084Y91147D02*
D03*
Y91797D02*
D03*
X86134Y91547D02*
D03*
Y92197D02*
D03*
X89084Y82247D02*
D03*
Y81597D02*
D03*
X87734Y82047D02*
D03*
Y81397D02*
D03*
X92534Y82697D02*
D03*
X93184D02*
D03*
X82134Y84147D02*
D03*
Y83497D02*
D03*
X85684Y86147D02*
D03*
X85034D02*
D03*
X81984Y80597D02*
D03*
X81334D02*
D03*
X89084Y88897D02*
D03*
Y88247D02*
D03*
X87334Y87347D02*
D03*
X87984D02*
D03*
X81534Y82197D02*
D03*
X80884D02*
D03*
D42*
X85145Y62992D02*
Y62165D01*
X85558D01*
X85696Y62303D01*
Y62441D01*
X85558Y62578D01*
X85145D01*
X85558D01*
X85696Y62716D01*
Y62854D01*
X85558Y62992D01*
X85145D01*
X86109Y62165D02*
X86385D01*
X86523Y62303D01*
Y62578D01*
X86385Y62716D01*
X86109D01*
X85972Y62578D01*
Y62303D01*
X86109Y62165D01*
X86936Y62854D02*
Y62716D01*
X86798D01*
X87074D01*
X86936D01*
Y62303D01*
X87074Y62165D01*
X87625Y62854D02*
Y62716D01*
X87487D01*
X87762D01*
X87625D01*
Y62303D01*
X87762Y62165D01*
X88313D02*
X88589D01*
X88727Y62303D01*
Y62578D01*
X88589Y62716D01*
X88313D01*
X88176Y62578D01*
Y62303D01*
X88313Y62165D01*
X89002D02*
Y62716D01*
X89140D01*
X89278Y62578D01*
Y62165D01*
Y62578D01*
X89415Y62716D01*
X89553Y62578D01*
Y62165D01*
X90655Y62992D02*
Y62165D01*
X91206D01*
X91619Y62716D02*
X91895D01*
X92033Y62578D01*
Y62165D01*
X91619D01*
X91482Y62303D01*
X91619Y62441D01*
X92033D01*
X92308Y62716D02*
Y62303D01*
X92446Y62165D01*
X92859D01*
Y62027D01*
X92721Y61890D01*
X92584D01*
X92859Y62165D02*
Y62716D01*
X93548Y62165D02*
X93272D01*
X93135Y62303D01*
Y62578D01*
X93272Y62716D01*
X93548D01*
X93686Y62578D01*
Y62441D01*
X93135D01*
X93961Y62716D02*
Y62165D01*
Y62441D01*
X94099Y62578D01*
X94237Y62716D01*
X94374D01*
X95614Y62165D02*
Y62992D01*
X96027D01*
X96165Y62854D01*
Y62578D01*
X96027Y62441D01*
X95614D01*
X96578Y62716D02*
X96854D01*
X96992Y62578D01*
Y62165D01*
X96578D01*
X96441Y62303D01*
X96578Y62441D01*
X96992D01*
X97267Y62165D02*
X97680D01*
X97818Y62303D01*
X97680Y62441D01*
X97405D01*
X97267Y62578D01*
X97405Y62716D01*
X97818D01*
X98231Y62854D02*
Y62716D01*
X98094D01*
X98369D01*
X98231D01*
Y62303D01*
X98369Y62165D01*
X99196D02*
X98920D01*
X98782Y62303D01*
Y62578D01*
X98920Y62716D01*
X99196D01*
X99333Y62578D01*
Y62441D01*
X98782D01*
X100435Y62165D02*
Y62992D01*
X100711Y62716D01*
X100986Y62992D01*
Y62165D01*
X101400Y62716D02*
X101675D01*
X101813Y62578D01*
Y62165D01*
X101400D01*
X101262Y62303D01*
X101400Y62441D01*
X101813D01*
X102088Y62165D02*
X102502D01*
X102639Y62303D01*
X102502Y62441D01*
X102226D01*
X102088Y62578D01*
X102226Y62716D01*
X102639D01*
X102915Y62165D02*
Y62992D01*
Y62441D02*
X103328Y62716D01*
X102915Y62441D02*
X103328Y62165D01*
M02*
