%FSLAX24Y24*%
%MOIN*%
G70*
G01*
G75*
%ADD10C,0.0040*%
%ADD11C,0.0400*%
%ADD12C,0.0157*%
%ADD13R,0.0236X0.0906*%
%ADD14R,0.0380X0.0380*%
%ADD15R,0.0315X0.0472*%
%ADD16R,0.0650X0.0500*%
%ADD17R,0.0600X0.1000*%
%ADD18R,0.0600X0.0600*%
%ADD19R,0.0551X0.0512*%
%ADD20R,0.0472X0.0394*%
%ADD21R,0.1000X0.0600*%
%ADD22R,0.0433X0.0236*%
%ADD23R,0.0800X0.0800*%
%ADD24R,0.2480X0.0846*%
%ADD25R,0.0500X0.0600*%
%ADD26R,0.0512X0.0551*%
%ADD27R,0.0394X0.0472*%
%ADD28O,0.0846X0.0138*%
%ADD29R,0.0846X0.0138*%
%ADD30R,0.1181X0.1575*%
%ADD31C,0.0100*%
%ADD32C,0.0060*%
%ADD33C,0.0050*%
%ADD34C,0.0138*%
%ADD35C,0.0200*%
%ADD36C,0.0250*%
%ADD37C,0.0130*%
%ADD38C,0.0500*%
%ADD39C,0.0300*%
%ADD40C,0.0400*%
%ADD41C,0.0110*%
%ADD42C,0.0098*%
%ADD43C,0.0600*%
%ADD44P,0.0600X8X0*%
%ADD45C,0.0620*%
%ADD46P,0.0620X8X0*%
%ADD47C,0.0180*%
%ADD48C,0.0200*%
%ADD49C,0.0500*%
%ADD50C,0.0150*%
%ADD51C,0.0080*%
%ADD52C,0.0059*%
%ADD53C,0.0098*%
%ADD54C,0.0079*%
D31*
X84633Y82835D02*
X84555D01*
X84633D01*
X97134Y94597D02*
X97834D01*
X97134Y93297D02*
X97834D01*
X98684D02*
X99384D01*
X98684Y94597D02*
X99384D01*
X97134Y93297D02*
Y94597D01*
X99384Y93297D02*
Y94597D01*
X94484Y80697D02*
Y81997D01*
X96734Y80697D02*
Y81997D01*
X94484Y80697D02*
X95184D01*
X94484Y81997D02*
X95184D01*
X96034D02*
X96734D01*
X96034Y80697D02*
X96734D01*
X82818Y82828D02*
Y83528D01*
X83718Y82828D02*
Y83528D01*
Y84378D02*
Y85078D01*
X82818Y84378D02*
Y85078D01*
Y82828D02*
X83718D01*
X82818Y85078D02*
X83718D01*
X82784Y90947D02*
X84084D01*
X82784Y93197D02*
X84084D01*
Y90947D02*
Y91647D01*
X82784Y90947D02*
Y91647D01*
Y92497D02*
Y93197D01*
X84084Y92497D02*
Y93197D01*
X88234Y93497D02*
X89534D01*
X88234Y95747D02*
X89534D01*
Y93497D02*
Y94197D01*
X88234Y93497D02*
Y94197D01*
Y95047D02*
Y95747D01*
X89534Y95047D02*
Y95747D01*
X94484Y82147D02*
Y83447D01*
X96734Y82147D02*
Y83447D01*
X94484Y82147D02*
X95184D01*
X94484Y83447D02*
X95184D01*
X96034D02*
X96734D01*
X96034Y82147D02*
X96734D01*
X83634Y81097D02*
Y82397D01*
X81384Y81097D02*
Y82397D01*
X82934D02*
X83634D01*
X82934Y81097D02*
X83634D01*
X81384D02*
X82084D01*
X81384Y82397D02*
X82084D01*
X84534Y92547D02*
Y93847D01*
X86784Y92547D02*
Y93847D01*
X84534Y92547D02*
X85234D01*
X84534Y93847D02*
X85234D01*
X86084D02*
X86784D01*
X86084Y92547D02*
X86784D01*
X94584Y91047D02*
Y92347D01*
X96834Y91047D02*
Y92347D01*
X94584Y91047D02*
X95284D01*
X94584Y92347D02*
X95284D01*
X96134D02*
X96834D01*
X96134Y91047D02*
X96834D01*
X78234Y84097D02*
X79534D01*
X78234Y81847D02*
X79534D01*
X78234Y83397D02*
Y84097D01*
X79534Y83397D02*
Y84097D01*
Y81847D02*
Y82547D01*
X78234Y81847D02*
Y82547D01*
X79534Y88097D02*
Y88497D01*
X79484Y88097D02*
Y88497D01*
X78484D02*
X80484D01*
X78484Y85297D02*
X80484D01*
X79384Y88097D02*
Y88497D01*
Y88097D02*
X79634D01*
Y88497D01*
X79984Y89447D02*
X80684D01*
X79984Y90347D02*
X80684D01*
X78434D02*
X79134D01*
X78434Y89447D02*
X79134D01*
X80684D02*
Y90347D01*
X78434Y89447D02*
Y90347D01*
X93784Y92997D02*
Y94297D01*
X96034Y92997D02*
Y94297D01*
X93784Y92997D02*
X94484D01*
X93784Y94297D02*
X94484D01*
X95334D02*
X96034D01*
X95334Y92997D02*
X96034D01*
X89734Y93497D02*
X91034D01*
X89734Y95747D02*
X91034D01*
Y93497D02*
Y94197D01*
X89734Y93497D02*
Y94197D01*
Y95047D02*
Y95747D01*
X91034Y95047D02*
Y95747D01*
X79034Y97347D02*
X78834D01*
X78934D01*
Y96847D01*
X78834Y96747D01*
X78734D01*
X78634Y96847D01*
X79234Y97347D02*
X79633D01*
X79433D01*
Y96747D01*
X79833D02*
Y97147D01*
X80033Y97347D01*
X80233Y97147D01*
Y96747D01*
Y97047D01*
X79833D01*
X80833Y97247D02*
X80733Y97347D01*
X80533D01*
X80433Y97247D01*
Y96847D01*
X80533Y96747D01*
X80733D01*
X80833Y96847D01*
Y97047D01*
X80633D01*
X79734Y93147D02*
X80134D01*
X79934D01*
Y92547D01*
X80334Y93147D02*
Y92547D01*
X80633D01*
X80733Y92647D01*
Y93047D01*
X80633Y93147D01*
X80334D01*
X80933Y92547D02*
Y93147D01*
X81133Y92947D01*
X81333Y93147D01*
Y92547D01*
X81533D02*
Y92947D01*
X81733Y93147D01*
X81933Y92947D01*
Y92547D01*
Y92847D01*
X81533D01*
D32*
X81168Y90820D02*
Y91262D01*
X81699D01*
Y90820D02*
Y91262D01*
Y90083D02*
Y90525D01*
X81168Y90083D02*
X81699D01*
X81168D02*
Y90525D01*
X97356Y90282D02*
X97798D01*
Y90813D01*
X97356D02*
X97798D01*
X96619D02*
X97061D01*
X96619Y90282D02*
Y90813D01*
Y90282D02*
X97061D01*
X94379Y85188D02*
X94821D01*
X94379Y84657D02*
Y85188D01*
Y84657D02*
X94821D01*
X95116D02*
X95558D01*
Y85188D01*
X95116D02*
X95558D01*
X97356Y89332D02*
X97798D01*
Y89863D01*
X97356D02*
X97798D01*
X96619D02*
X97061D01*
X96619Y89332D02*
Y89863D01*
Y89332D02*
X97061D01*
X94379Y85838D02*
X94821D01*
X94379Y85307D02*
Y85838D01*
Y85307D02*
X94821D01*
X95116D02*
X95558D01*
Y85838D01*
X95116D02*
X95558D01*
X83306Y85963D02*
X83748D01*
Y85432D02*
Y85963D01*
X83306Y85432D02*
X83748D01*
X82569D02*
X83011D01*
X82569D02*
Y85963D01*
X83011D01*
X80556Y82232D02*
X80998D01*
Y82763D01*
X80556D02*
X80998D01*
X79819D02*
X80261D01*
X79819Y82232D02*
Y82763D01*
Y82232D02*
X80261D01*
X80556Y82882D02*
X80998D01*
Y83413D01*
X80556D02*
X80998D01*
X79819D02*
X80261D01*
X79819Y82882D02*
Y83413D01*
Y82882D02*
X80261D01*
X97618Y86020D02*
Y86462D01*
X98149D01*
Y86020D02*
Y86462D01*
Y85283D02*
Y85725D01*
X97618Y85283D02*
X98149D01*
X97618D02*
Y85725D01*
X81069Y80332D02*
X81511D01*
X81069D02*
Y80863D01*
X81511D01*
X81806D02*
X82248D01*
Y80332D02*
Y80863D01*
X81806Y80332D02*
X82248D01*
X79006Y89263D02*
X79448D01*
Y88732D02*
Y89263D01*
X79006Y88732D02*
X79448D01*
X78269D02*
X78711D01*
X78269D02*
Y89263D01*
X78711D01*
X92718Y81179D02*
Y81622D01*
X93249D01*
Y81179D02*
Y81622D01*
Y80442D02*
Y80885D01*
X92718Y80442D02*
X93249D01*
X92718D02*
Y80885D01*
X85169Y81463D02*
X85611D01*
X85169Y80932D02*
Y81463D01*
Y80932D02*
X85611D01*
X85906D02*
X86348D01*
Y81463D01*
X85906D02*
X86348D01*
X94379Y84007D02*
X94821D01*
X94379D02*
Y84538D01*
X94821D01*
X95116D02*
X95558D01*
Y84007D02*
Y84538D01*
X95116Y84007D02*
X95558D01*
X98139Y84689D02*
Y85131D01*
X97608D02*
X98139D01*
X97608Y84689D02*
Y85131D01*
Y83952D02*
Y84394D01*
Y83952D02*
X98139D01*
Y84394D01*
X94379Y86607D02*
X94821D01*
X94379D02*
Y87138D01*
X94821D01*
X95116D02*
X95558D01*
Y86607D02*
Y87138D01*
X95116Y86607D02*
X95558D01*
X94379Y85957D02*
X94821D01*
X94379D02*
Y86488D01*
X94821D01*
X95116D02*
X95558D01*
Y85957D02*
Y86488D01*
X95116Y85957D02*
X95558D01*
X97627Y83377D02*
Y83819D01*
X98158D01*
Y83377D02*
Y83819D01*
Y82640D02*
Y83082D01*
X97627Y82640D02*
X98158D01*
X97627D02*
Y83082D01*
X81549Y85720D02*
Y86162D01*
X81018D02*
X81549D01*
X81018Y85720D02*
Y86162D01*
Y84983D02*
Y85425D01*
Y84983D02*
X81549D01*
Y85425D01*
X80356Y89263D02*
X80798D01*
Y88732D02*
Y89263D01*
X80356Y88732D02*
X80798D01*
X79619D02*
X80061D01*
X79619D02*
Y89263D01*
X80061D01*
X95116Y87788D02*
X95558D01*
Y87257D02*
Y87788D01*
X95116Y87257D02*
X95558D01*
X94379D02*
X94821D01*
X94379D02*
Y87788D01*
X94821D01*
X94379Y88438D02*
X94821D01*
X94379Y87907D02*
Y88438D01*
Y87907D02*
X94821D01*
X95116D02*
X95558D01*
Y88438D01*
X95116D02*
X95558D01*
X83141Y86623D02*
X83583D01*
Y87154D01*
X83141D02*
X83583D01*
X82404D02*
X82846D01*
X82404Y86623D02*
Y87154D01*
Y86623D02*
X82846D01*
X83141Y87273D02*
X83583D01*
Y87804D01*
X83141D02*
X83583D01*
X82404D02*
X82846D01*
X82404Y87273D02*
Y87804D01*
Y87273D02*
X82846D01*
X81856Y86982D02*
X82298D01*
Y87513D01*
X81856D02*
X82298D01*
X81119D02*
X81561D01*
X81119Y86982D02*
Y87513D01*
Y86982D02*
X81561D01*
X96159Y85832D02*
X96601D01*
X96159Y85301D02*
Y85832D01*
Y85301D02*
X96601D01*
X96896D02*
X97338D01*
Y85832D01*
X96896D02*
X97338D01*
X81856Y87632D02*
X82298D01*
Y88163D01*
X81856D02*
X82298D01*
X81119D02*
X81561D01*
X81119Y87632D02*
Y88163D01*
Y87632D02*
X81561D01*
X83141Y87923D02*
X83583D01*
Y88454D01*
X83141D02*
X83583D01*
X82404D02*
X82846D01*
X82404Y87923D02*
Y88454D01*
Y87923D02*
X82846D01*
X81856Y88282D02*
X82298D01*
Y88813D01*
X81856D02*
X82298D01*
X81119D02*
X81561D01*
X81119Y88282D02*
Y88813D01*
Y88282D02*
X81561D01*
X83141Y88573D02*
X83583D01*
Y89104D01*
X83141D02*
X83583D01*
X82404D02*
X82846D01*
X82404Y88573D02*
Y89104D01*
Y88573D02*
X82846D01*
X81856Y88932D02*
X82298D01*
Y89463D01*
X81856D02*
X82298D01*
X81119D02*
X81561D01*
X81119Y88932D02*
Y89463D01*
Y88932D02*
X81561D01*
X83141Y89223D02*
X83583D01*
Y89754D01*
X83141D02*
X83583D01*
X82404D02*
X82846D01*
X82404Y89223D02*
Y89754D01*
Y89223D02*
X82846D01*
X83156Y89882D02*
X83598D01*
Y90413D01*
X83156D02*
X83598D01*
X82419D02*
X82861D01*
X82419Y89882D02*
Y90413D01*
Y89882D02*
X82861D01*
X91849Y96533D02*
Y96975D01*
X91318Y96533D02*
X91849D01*
X91318D02*
Y96975D01*
Y97270D02*
Y97712D01*
X91849D01*
Y97270D02*
Y97712D01*
X93956Y98313D02*
X94398D01*
Y97782D02*
Y98313D01*
X93956Y97782D02*
X94398D01*
X93219D02*
X93661D01*
X93219D02*
Y98313D01*
X93661D01*
X92706Y97063D02*
X93148D01*
Y96532D02*
Y97063D01*
X92706Y96532D02*
X93148D01*
X91969D02*
X92411D01*
X91969D02*
Y97063D01*
X92411D01*
X97618Y97820D02*
Y98262D01*
X98149D01*
Y97820D02*
Y98262D01*
Y97083D02*
Y97525D01*
X97618Y97083D02*
X98149D01*
X97618D02*
Y97525D01*
X91406Y98313D02*
X91848D01*
Y97782D02*
Y98313D01*
X91406Y97782D02*
X91848D01*
X90669D02*
X91111D01*
X90669D02*
Y98313D01*
X91111D01*
X96154Y85917D02*
X96596D01*
X96154D02*
Y86448D01*
X96596D01*
X96891D02*
X97333D01*
Y85917D02*
Y86448D01*
X96891Y85917D02*
X97333D01*
X91969Y95932D02*
X92411D01*
X91969D02*
Y96463D01*
X92411D01*
X92706D02*
X93148D01*
Y95932D02*
Y96463D01*
X92706Y95932D02*
X93148D01*
X99349Y97083D02*
Y97525D01*
X98818Y97083D02*
X99349D01*
X98818D02*
Y97525D01*
Y97820D02*
Y98262D01*
X99349D01*
Y97820D02*
Y98262D01*
X98749Y97083D02*
Y97525D01*
X98218Y97083D02*
X98749D01*
X98218D02*
Y97525D01*
Y97820D02*
Y98262D01*
X98749D01*
Y97820D02*
Y98262D01*
X92499Y97133D02*
Y97575D01*
X91968Y97133D02*
X92499D01*
X91968D02*
Y97575D01*
Y97870D02*
Y98312D01*
X92499D01*
Y97870D02*
Y98312D01*
X93149Y97133D02*
Y97575D01*
X92618Y97133D02*
X93149D01*
X92618D02*
Y97575D01*
Y97870D02*
Y98312D01*
X93149D01*
Y97870D02*
Y98312D01*
X97804Y94767D02*
Y95447D01*
Y94767D02*
X98464D01*
Y95447D01*
X97804Y95747D02*
Y96427D01*
X98464D01*
Y95747D02*
Y96427D01*
X98604Y94767D02*
Y95447D01*
Y94767D02*
X99264D01*
Y95447D01*
X98604Y95747D02*
Y96427D01*
X99264D01*
Y95747D02*
Y96427D01*
X90668Y96533D02*
Y96975D01*
Y96533D02*
X91199D01*
Y96975D01*
Y97270D02*
Y97712D01*
X90668D02*
X91199D01*
X90668Y97270D02*
Y97712D01*
D42*
X85145Y62992D02*
X85696D01*
X85421D01*
Y62165D01*
X86109D02*
X86385D01*
X86523Y62303D01*
Y62578D01*
X86385Y62716D01*
X86109D01*
X85972Y62578D01*
Y62303D01*
X86109Y62165D01*
X86798Y61890D02*
Y62716D01*
X87211D01*
X87349Y62578D01*
Y62303D01*
X87211Y62165D01*
X86798D01*
X89002Y62854D02*
X88864Y62992D01*
X88589D01*
X88451Y62854D01*
Y62716D01*
X88589Y62578D01*
X88864D01*
X89002Y62441D01*
Y62303D01*
X88864Y62165D01*
X88589D01*
X88451Y62303D01*
X89278Y62165D02*
X89553D01*
X89415D01*
Y62716D01*
X89278D01*
X89966Y62165D02*
X90242D01*
X90104D01*
Y62992D01*
X89966D01*
X90655Y62165D02*
Y62992D01*
Y62441D02*
X91068Y62716D01*
X90655Y62441D02*
X91068Y62165D01*
X91482D02*
X91895D01*
X92033Y62303D01*
X91895Y62441D01*
X91619D01*
X91482Y62578D01*
X91619Y62716D01*
X92033D01*
X92859D02*
X92446D01*
X92308Y62578D01*
Y62303D01*
X92446Y62165D01*
X92859D01*
X93135Y62716D02*
Y62165D01*
Y62441D01*
X93272Y62578D01*
X93410Y62716D01*
X93548D01*
X94374Y62165D02*
X94099D01*
X93961Y62303D01*
Y62578D01*
X94099Y62716D01*
X94374D01*
X94512Y62578D01*
Y62441D01*
X93961D01*
X95201Y62165D02*
X94925D01*
X94788Y62303D01*
Y62578D01*
X94925Y62716D01*
X95201D01*
X95339Y62578D01*
Y62441D01*
X94788D01*
X95614Y62165D02*
Y62716D01*
X96027D01*
X96165Y62578D01*
Y62165D01*
D50*
X95195Y97347D02*
X95125Y97417D01*
X95055Y97347D01*
X95125Y97277D01*
X95195Y97347D01*
D51*
X99768Y91102D02*
X99757Y91202D01*
X99724Y91297D01*
X99670Y91383D01*
X99599Y91454D01*
X99514Y91508D01*
X99418Y91541D01*
X99318Y91552D01*
X99218Y91541D01*
X99123Y91508D01*
X99038Y91454D01*
X98967Y91383D01*
X98913Y91297D01*
X98880Y91202D01*
X98868Y91102D01*
X98880Y91002D01*
X98913Y90907D01*
X98967Y90822D01*
X99038Y90750D01*
X99123Y90697D01*
X99218Y90663D01*
X99318Y90652D01*
X99418Y90663D01*
X99514Y90697D01*
X99599Y90750D01*
X99670Y90822D01*
X99724Y90907D01*
X99757Y91002D01*
X99768Y91102D01*
X77721Y97795D02*
X77710Y97895D01*
X77677Y97990D01*
X77623Y98076D01*
X77552Y98147D01*
X77466Y98201D01*
X77371Y98234D01*
X77271Y98245D01*
X77171Y98234D01*
X77076Y98201D01*
X76991Y98147D01*
X76919Y98076D01*
X76866Y97990D01*
X76832Y97895D01*
X76821Y97795D01*
X76832Y97695D01*
X76866Y97600D01*
X76919Y97515D01*
X76991Y97443D01*
X77076Y97390D01*
X77171Y97356D01*
X77271Y97345D01*
X77371Y97356D01*
X77466Y97390D01*
X77552Y97443D01*
X77623Y97515D01*
X77677Y97600D01*
X77710Y97695D01*
X77721Y97795D01*
X98826Y88686D02*
X99006D01*
X97696D02*
X97876D01*
X97696Y87886D02*
Y88686D01*
X99006Y87886D02*
Y88686D01*
X95784Y90147D02*
X96334D01*
X96484Y90297D01*
Y90797D01*
X96334Y90947D02*
X96484Y90797D01*
X95784Y90947D02*
X96334D01*
X94584D02*
X94984D01*
X94584Y90147D02*
X94984D01*
X94584D02*
Y90947D01*
X95784Y89197D02*
X96334D01*
X96484Y89347D01*
Y89847D01*
X96334Y89997D02*
X96484Y89847D01*
X95784Y89997D02*
X96334D01*
X94584D02*
X94984D01*
X94584Y89197D02*
X94984D01*
X94584D02*
Y89997D01*
X97376Y88686D02*
X97556D01*
X96246D02*
X96426D01*
X96246Y87886D02*
Y88686D01*
X97556Y87886D02*
Y88686D01*
X96227Y83933D02*
X97247D01*
X96773Y85038D02*
Y85138D01*
X96673Y85038D02*
X96773D01*
X96673D02*
Y85138D01*
X96223Y85153D02*
X97243D01*
X96673Y85088D02*
X96773D01*
X93575Y94215D02*
Y94746D01*
X91292Y94215D02*
Y94746D01*
X79034Y93397D02*
X83034D01*
X79034Y95397D02*
X83034D01*
X79034Y93397D02*
Y95397D01*
X83034Y93397D02*
Y95397D01*
X78867Y94697D02*
X78534D01*
X78867Y95031D01*
Y95114D01*
X78784Y95197D01*
X78617D01*
X78534Y95114D01*
X78734Y93697D02*
X78900D01*
X78817D01*
Y94197D01*
X78734Y94114D01*
X83134Y94197D02*
X83467D01*
Y94114D01*
X83134Y93781D01*
Y93697D01*
Y95114D02*
X83217Y95197D01*
X83384D01*
X83467Y95114D01*
Y95031D01*
X83384Y94947D01*
X83467Y94864D01*
Y94781D01*
X83384Y94697D01*
X83217D01*
X83134Y94781D01*
Y94864D01*
X83217Y94947D01*
X83134Y95031D01*
Y95114D01*
X83217Y94947D02*
X83384D01*
D52*
X99574Y79527D02*
X99555Y79625D01*
X99499Y79708D01*
X99416Y79764D01*
X99318Y79783D01*
X99220Y79764D01*
X99137Y79708D01*
X99082Y79625D01*
X99062Y79527D01*
X99082Y79429D01*
X99137Y79346D01*
X99220Y79291D01*
X99318Y79271D01*
X99416Y79291D01*
X99499Y79346D01*
X99555Y79429D01*
X99574Y79527D01*
X77370D02*
X77350Y79625D01*
X77295Y79708D01*
X77212Y79764D01*
X77114Y79783D01*
X77016Y79764D01*
X76933Y79708D01*
X76877Y79625D01*
X76858Y79527D01*
X76877Y79429D01*
X76933Y79346D01*
X77016Y79291D01*
X77114Y79271D01*
X77212Y79291D01*
X77295Y79346D01*
X77350Y79429D01*
X77370Y79527D01*
D53*
X95387Y97672D02*
X95410Y97570D01*
X95476Y97488D01*
X95571Y97442D01*
X95676D01*
X95770Y97488D01*
X95836Y97570D01*
X95859Y97672D01*
X94914Y94720D02*
X96332D01*
X95859Y97672D02*
X96332D01*
X94914D02*
X95387D01*
D54*
X82627Y82992D02*
Y84803D01*
X81840Y82992D02*
Y83543D01*
Y84252D02*
Y84803D01*
X78578Y90554D02*
X80389D01*
X78578Y91341D02*
X79129D01*
X79838D02*
X80389D01*
X84515Y83268D02*
Y91890D01*
Y83268D02*
X85027Y82756D01*
X93649D01*
X84515Y91890D02*
X93649D01*
Y82756D02*
Y91890D01*
M02*
