%FSLAX24Y24*%
%MOIN*%
G70*
G01*
G75*
%ADD10C,0.0040*%
%ADD11C,0.0400*%
%ADD12C,0.0157*%
%ADD13R,0.0236X0.0906*%
%ADD14R,0.0380X0.0380*%
%ADD15R,0.0315X0.0472*%
%ADD16R,0.0650X0.0500*%
%ADD17R,0.0600X0.1000*%
%ADD18R,0.0600X0.0600*%
%ADD19R,0.0551X0.0512*%
%ADD20R,0.0472X0.0394*%
%ADD21R,0.1000X0.0600*%
%ADD22R,0.0433X0.0236*%
%ADD23R,0.0800X0.0800*%
%ADD24R,0.2480X0.0846*%
%ADD25R,0.0500X0.0600*%
%ADD26R,0.0512X0.0551*%
%ADD27R,0.0394X0.0472*%
%ADD28O,0.0846X0.0138*%
%ADD29R,0.0846X0.0138*%
%ADD30R,0.1181X0.1575*%
%ADD31C,0.0100*%
%ADD32C,0.0060*%
%ADD33C,0.0050*%
%ADD34C,0.0138*%
%ADD35C,0.0200*%
%ADD36C,0.0250*%
%ADD37C,0.0130*%
%ADD38C,0.0500*%
%ADD39C,0.0300*%
%ADD40C,0.0400*%
%ADD41C,0.0110*%
%ADD42C,0.0098*%
%ADD43C,0.0600*%
%ADD44P,0.0600X8X0*%
%ADD45C,0.0620*%
%ADD46P,0.0620X8X0*%
%ADD47C,0.0180*%
%ADD48C,0.0200*%
%ADD49C,0.0500*%
%ADD50C,0.0150*%
%ADD51C,0.0080*%
%ADD52C,0.0059*%
%ADD53C,0.0098*%
%ADD54C,0.0079*%
%ADD55R,2.0896X0.1063*%
%ADD56R,0.1102X0.2008*%
%ADD57R,0.1102X0.2008*%
%ADD58R,0.1250X0.3400*%
%ADD59C,0.0800*%
%ADD60C,0.0394*%
%ADD61R,0.0316X0.0986*%
%ADD62R,0.0460X0.0460*%
%ADD63R,0.0395X0.0552*%
%ADD64R,0.0730X0.0580*%
%ADD65R,0.0680X0.1080*%
%ADD66R,0.0680X0.0680*%
%ADD67R,0.0631X0.0592*%
%ADD68R,0.0552X0.0474*%
%ADD69R,0.1080X0.0680*%
%ADD70R,0.0513X0.0316*%
%ADD71R,0.0880X0.0880*%
%ADD72R,0.2560X0.0926*%
%ADD73R,0.0580X0.0680*%
%ADD74R,0.0592X0.0631*%
%ADD75R,0.0474X0.0552*%
%ADD76O,0.0926X0.0218*%
%ADD77R,0.0926X0.0218*%
%ADD78R,0.1261X0.1655*%
%ADD79C,0.0197*%
%ADD80C,0.0680*%
%ADD81P,0.0680X8X0*%
%ADD82C,0.0700*%
%ADD83P,0.0700X8X0*%
%ADD84C,0.0220*%
%ADD85C,0.0260*%
%ADD86C,0.0280*%
%ADD87C,0.0300*%
%ADD88R,2.0915X0.1063*%
%ADD89R,0.0984X0.2913*%
%ADD90R,0.0984X0.2913*%
%ADD91C,0.0075*%
%ADD92C,0.0045*%
%ADD93C,0.0030*%
%ADD94C,0.0090*%
%ADD95R,0.0450X0.0150*%
%ADD96R,0.0090X0.0150*%
%ADD97R,0.0129X0.0930*%
%ADD98R,0.0039X0.0108*%
%ADD99C,0.0520*%
%AMTHD100*
7,0,0,0.0920,0.0720,0.0120,45*
%
%ADD100THD100*%
%ADD101C,0.0550*%
%AMTHD102*
7,0,0,0.0950,0.0750,0.0120,45*
%
%ADD102THD102*%
%ADD103C,0.0480*%
%ADD104C,0.0020*%
D10*
X80032Y81496D02*
X80001Y81591D01*
X79920Y81650D01*
X79819D01*
X79738Y81591D01*
X79707Y81496D01*
X79738Y81400D01*
X79819Y81342D01*
X79920D01*
X80001Y81400D01*
X80032Y81496D01*
X79614Y81023D02*
X81641D01*
X85972Y80709D02*
X86169D01*
X85578D02*
X85775D01*
X96208Y88268D02*
X98452D01*
X98883Y87837D01*
X79062Y77716D02*
X80854D01*
X77704D02*
X78472D01*
X78078Y77746D02*
X78472Y77716D01*
X78078Y77687D02*
X78472Y77716D01*
X78078Y77667D02*
X78472Y77716D01*
X78078Y77766D02*
X78472Y77716D01*
X78078Y77638D02*
Y77795D01*
X78472Y77716D01*
X78078Y77638D02*
X78472Y77716D01*
Y77323D02*
Y78622D01*
X79062Y77716D02*
X79456Y77746D01*
X79062Y77716D02*
X79456Y77687D01*
X79062Y77716D02*
X79456Y77667D01*
X79062Y77716D02*
X79456Y77766D01*
Y77638D02*
Y77795D01*
X79062Y77716D02*
X79456Y77795D01*
X79062Y77716D02*
X79456Y77638D01*
X79062Y77323D02*
Y78622D01*
X79673Y81299D02*
X80066Y81693D01*
X79357Y80767D02*
X79614Y81023D01*
X98767Y86457D02*
Y86653D01*
Y86063D02*
Y86260D01*
Y85669D02*
Y85866D01*
Y85275D02*
Y85472D01*
Y84882D02*
Y85079D01*
Y84488D02*
Y84685D01*
Y84094D02*
Y84291D01*
Y83701D02*
Y83897D01*
Y83307D02*
Y83504D01*
Y82913D02*
Y83110D01*
Y82520D02*
Y82716D01*
Y82126D02*
Y82323D01*
Y81732D02*
Y81929D01*
Y81338D02*
Y81535D01*
Y80945D02*
Y81142D01*
Y80551D02*
Y80748D01*
Y80157D02*
Y80354D01*
X98688Y80157D02*
X98767D01*
X98295D02*
X98492D01*
X97901D02*
X98098D01*
X97507D02*
X97704D01*
X97114D02*
X97310D01*
X96720D02*
X96917D01*
X96326D02*
X96523D01*
X95933D02*
X96129D01*
X95539D02*
X95736D01*
X95145D02*
X95342D01*
X94751D02*
X94948D01*
X94358D02*
X94555D01*
X93964D02*
X94161D01*
X93570D02*
X93767D01*
X93177D02*
X93373D01*
X92783D02*
X92980D01*
X92389D02*
X92586D01*
X91996D02*
X92192D01*
X91602D02*
X91799D01*
X91208D02*
X91405D01*
X90814D02*
X91011D01*
X90421D02*
X90618D01*
X90027D02*
X90224D01*
X89633D02*
X89830D01*
X89240D02*
X89436D01*
X88846D02*
X89043D01*
X88452D02*
X88649D01*
X88059D02*
X88255D01*
X87665D02*
X87862D01*
X87271D02*
X87468D01*
X86877D02*
X87074D01*
X86484D02*
X86681D01*
X86090D02*
X86287D01*
X85696D02*
X85893D01*
X85303D02*
X85499D01*
X84909D02*
X85106D01*
X84515D02*
X84712D01*
X84122D02*
X84318D01*
X83728D02*
X83925D01*
X83334D02*
X83531D01*
X82940D02*
X83137D01*
X82547D02*
X82744D01*
X82153D02*
X82350D01*
X81759D02*
X81956D01*
X81366D02*
X81562D01*
X80972D02*
X81169D01*
X80578D02*
X80775D01*
X80185D02*
X80381D01*
X79791D02*
X79988D01*
X79397D02*
X79594D01*
X79397Y80512D02*
Y80551D01*
Y80157D02*
Y80354D01*
X79358Y80551D02*
X79397Y80551D01*
X78846Y80551D02*
X79003D01*
X78452D02*
X78649D01*
X78059D02*
X78255D01*
X77665D02*
X77862D01*
X77665Y87244D02*
Y87441D01*
Y86850D02*
Y87047D01*
Y86457D02*
Y86653D01*
Y86063D02*
Y86260D01*
Y85669D02*
Y85866D01*
Y85275D02*
Y85472D01*
Y84882D02*
Y85079D01*
Y84488D02*
Y84685D01*
Y84094D02*
Y84291D01*
Y83701D02*
Y83897D01*
Y83307D02*
Y83504D01*
Y82913D02*
Y83110D01*
Y82520D02*
Y82716D01*
Y82126D02*
Y82323D01*
Y81732D02*
Y81929D01*
Y81338D02*
Y81535D01*
Y80945D02*
Y81142D01*
Y80551D02*
Y80748D01*
X79004Y80414D02*
X79561Y80970D01*
X79004Y80414D02*
X79261Y80713D01*
X79004Y80414D02*
X79303Y80671D01*
X79004Y80414D02*
X79317Y80657D01*
X79004Y80414D02*
X79247Y80727D01*
X79227Y80748D02*
X79338Y80636D01*
X79004Y80414D02*
X79227Y80748D01*
X79004Y80414D02*
X79338Y80636D01*
X98523Y88197D02*
X99358Y87362D01*
X99058Y87620D02*
X99358Y87362D01*
X99100Y87661D02*
X99358Y87362D01*
X99114Y87675D02*
X99358Y87362D01*
X99045Y87606D02*
X99358Y87362D01*
X99024Y87585D02*
X99135Y87696D01*
X99024Y87585D02*
X99358Y87362D01*
X99135Y87696D02*
X99358Y87362D01*
X102035Y79301D02*
X102064Y78907D01*
X102094Y79301D01*
X102064Y78907D02*
X102114Y79301D01*
X102015D02*
X102064Y78907D01*
X101986Y79301D02*
X102143D01*
X101986D02*
X102064Y78907D01*
X102143Y79301D01*
X102064Y78907D02*
Y86772D01*
X99948Y86575D02*
Y86968D01*
X99791Y86772D02*
X100106D01*
X102064D02*
X102094Y86378D01*
X102035D02*
X102064Y86772D01*
X102015Y86378D02*
X102064Y86772D01*
X102114Y86378D01*
X101986D02*
X102143D01*
X102064Y86772D02*
X102143Y86378D01*
X101986D02*
X102064Y86772D01*
X100303D02*
X102468D01*
X99555Y76112D02*
X99948Y76142D01*
X99555Y76171D02*
X99948Y76142D01*
X99555Y76191D02*
X99948Y76142D01*
X99555Y76092D02*
X99948Y76142D01*
X99555Y76063D02*
Y76220D01*
Y76063D02*
X99948Y76142D01*
X99555Y76220D02*
X99948Y76142D01*
X76484D02*
X76877Y76171D01*
X76484Y76142D02*
X76877Y76112D01*
X76484Y76142D02*
X76877Y76092D01*
X76484Y76142D02*
X76877Y76191D01*
Y76063D02*
Y76220D01*
X76484Y76142D02*
X76877Y76220D01*
X76484Y76142D02*
X76877Y76063D01*
X103649Y98897D02*
X103679Y98504D01*
X103620D02*
X103649Y98897D01*
X103600Y98504D02*
X103649Y98897D01*
X103698Y98504D01*
X103570D02*
X103728D01*
X103649Y98897D02*
X103728Y98504D01*
X103570D02*
X103649Y98897D01*
X103620Y79291D02*
X103649Y78897D01*
X103679Y79291D01*
X103649Y78897D02*
X103698Y79291D01*
X103600D02*
X103649Y78897D01*
X103570Y79291D02*
X103728D01*
X103570D02*
X103649Y78897D01*
X103728Y79291D01*
X103649Y78897D02*
Y98897D01*
X100499D02*
X104043D01*
X100499Y78897D02*
X104043D01*
X76484Y76142D02*
X99948D01*
Y75748D02*
Y78504D01*
X76484Y75748D02*
Y78504D01*
X98767Y87244D02*
Y87441D01*
Y86850D02*
Y87047D01*
X78767Y76496D02*
Y78110D01*
X75716Y76772D02*
X76484D01*
X76090Y76801D02*
X76484Y76772D01*
X76090Y76742D02*
X76484Y76772D01*
X76090Y76722D02*
X76484Y76772D01*
X76090Y76821D02*
X76484Y76772D01*
X76090Y76693D02*
Y76850D01*
X76484Y76772D01*
X76090Y76693D02*
X76484Y76772D01*
X78767D02*
X79535D01*
X78767D02*
X79161Y76742D01*
X78767Y76772D02*
X79161Y76801D01*
X78767Y76772D02*
X79161Y76821D01*
X78767Y76772D02*
X79161Y76722D01*
Y76693D02*
Y76850D01*
X78767Y76772D02*
X79161Y76693D01*
X78767Y76772D02*
X79161Y76850D01*
X78767Y78386D02*
Y78504D01*
Y78740D02*
Y79842D01*
Y80118D02*
Y80236D01*
X78708Y80177D02*
X78826D01*
X79673Y80709D02*
X79870D01*
X80066D02*
X80263D01*
X80460D02*
X80657D01*
X80854D02*
X81051D01*
X81248D02*
X81444D01*
X81641D02*
X81838D01*
X82035D02*
X82232D01*
X82429D02*
X82625D01*
X82822D02*
X83019D01*
X83216D02*
X83413D01*
X83610D02*
X83807D01*
X84003D02*
X84200D01*
X84397D02*
X84594D01*
X84791D02*
X84988D01*
X85185D02*
X85381D01*
X86366D02*
X86562D01*
X86759D02*
X86956D01*
X87153D02*
X87350D01*
X87547D02*
X87744D01*
X87940D02*
X88137D01*
X88334D02*
X88531D01*
X88728D02*
X88925D01*
X89122D02*
X89318D01*
X89515D02*
X89712D01*
X89909D02*
X90106D01*
X90303D02*
X90499D01*
X90696D02*
X90893D01*
X91090D02*
X91208D01*
X91484D02*
X91681D01*
X91877D02*
X92074D01*
X92271D02*
X92468D01*
X92665D02*
X92862D01*
X93059D02*
X93255D01*
X93452D02*
X93649D01*
X93846D02*
X94043D01*
X94240D02*
X94436D01*
X94633D02*
X94830D01*
X95027D02*
X95224D01*
X95421D02*
X95618D01*
X95814D02*
X96011D01*
X96208D02*
X96405D01*
X96602D02*
X96799D01*
X96996D02*
X97192D01*
X97389D02*
X97586D01*
X97783D02*
X97980D01*
X98177D02*
X98373D01*
X98570D02*
X98767D01*
X77704D02*
X77901D01*
X78098D02*
X78295D01*
X78492D02*
X78688D01*
X78885D02*
X79082D01*
X79436D02*
X79476D01*
X84879Y81102D02*
X84909Y80709D01*
X84938Y81102D01*
X84909Y80709D02*
X84958Y81102D01*
X84860D02*
X84909Y80709D01*
X84830Y81102D02*
X84988D01*
X84830D02*
X84909Y80709D01*
X84988Y81102D01*
X84909Y80709D02*
Y83228D01*
X85657D01*
X91297Y80590D02*
X91326Y80197D01*
X91356Y80590D01*
X91326Y80197D02*
X91375Y80590D01*
X91277D02*
X91326Y80197D01*
X91248Y80590D02*
X91405D01*
X91248D02*
X91326Y80197D01*
X91405Y80590D01*
X91326Y80197D02*
Y83228D01*
X92035D01*
X81366Y78071D02*
X81681D01*
X81366Y78307D02*
X81681D01*
X81523Y78149D02*
Y78464D01*
X80303Y81770D02*
X80363Y81800D01*
X80453Y81889D01*
Y81260D01*
X80824Y81290D02*
X80794Y81260D01*
X80764Y81290D01*
X80794Y81320D01*
X80824Y81290D01*
Y81230D01*
X80794Y81170D01*
X80764Y81140D01*
X81322Y81889D02*
X81022D01*
X80992Y81620D01*
X81022Y81650D01*
X81112Y81680D01*
X81202D01*
X81292Y81650D01*
X81352Y81590D01*
X81382Y81500D01*
Y81440D01*
X81352Y81350D01*
X81292Y81290D01*
X81202Y81260D01*
X81112D01*
X81022Y81290D01*
X80992Y81320D01*
X80962Y81380D01*
X101358Y81683D02*
X101328D01*
X101268Y81713D01*
X101238Y81743D01*
X101208Y81803D01*
Y81923D01*
X101238Y81983D01*
X101268Y82013D01*
X101328Y82043D01*
X101388D01*
X101448Y82013D01*
X101538Y81953D01*
X101838Y81653D01*
Y82073D01*
X101208Y82394D02*
X101238Y82304D01*
X101328Y82244D01*
X101478Y82214D01*
X101568D01*
X101718Y82244D01*
X101808Y82304D01*
X101838Y82394D01*
Y82454D01*
X101808Y82544D01*
X101718Y82604D01*
X101568Y82634D01*
X101478D01*
X101328Y82604D01*
X101238Y82544D01*
X101208Y82454D01*
Y82394D01*
X101808Y82835D02*
X101838Y82805D01*
X101808Y82775D01*
X101778Y82805D01*
X101808Y82835D01*
X101868D01*
X101928Y82805D01*
X101958Y82775D01*
X101208Y83153D02*
X101238Y83063D01*
X101328Y83003D01*
X101478Y82973D01*
X101568D01*
X101718Y83003D01*
X101808Y83063D01*
X101838Y83153D01*
Y83213D01*
X101808Y83303D01*
X101718Y83363D01*
X101568Y83393D01*
X101478D01*
X101328Y83363D01*
X101238Y83303D01*
X101208Y83213D01*
Y83153D01*
Y83714D02*
X101238Y83624D01*
X101328Y83564D01*
X101478Y83534D01*
X101568D01*
X101718Y83564D01*
X101808Y83624D01*
X101838Y83714D01*
Y83774D01*
X101808Y83864D01*
X101718Y83924D01*
X101568Y83954D01*
X101478D01*
X101328Y83924D01*
X101238Y83864D01*
X101208Y83774D01*
Y83714D01*
X96444Y89134D02*
Y88504D01*
Y89134D02*
X96714D01*
X96804Y89104D01*
X96834Y89074D01*
X96864Y89014D01*
Y88954D01*
X96834Y88894D01*
X96804Y88864D01*
X96714Y88834D01*
X96444D01*
X96654D02*
X96864Y88504D01*
X97035Y88984D02*
Y89014D01*
X97065Y89074D01*
X97095Y89104D01*
X97155Y89134D01*
X97275D01*
X97335Y89104D01*
X97365Y89074D01*
X97395Y89014D01*
Y88954D01*
X97365Y88894D01*
X97305Y88804D01*
X97005Y88504D01*
X97425D01*
X97626Y88534D02*
X97596Y88504D01*
X97566Y88534D01*
X97596Y88564D01*
X97626Y88534D01*
Y88474D01*
X97596Y88414D01*
X97566Y88384D01*
X97944Y89134D02*
X97854Y89104D01*
X97794Y89014D01*
X97764Y88864D01*
Y88774D01*
X97794Y88624D01*
X97854Y88534D01*
X97944Y88504D01*
X98004D01*
X98094Y88534D01*
X98154Y88624D01*
X98184Y88774D01*
Y88864D01*
X98154Y89014D01*
X98094Y89104D01*
X98004Y89134D01*
X97944D01*
X102783Y87486D02*
Y87186D01*
X103053Y87156D01*
X103023Y87186D01*
X102993Y87276D01*
Y87366D01*
X103023Y87456D01*
X103083Y87516D01*
X103173Y87546D01*
X103233D01*
X103323Y87516D01*
X103383Y87456D01*
X103413Y87366D01*
Y87276D01*
X103383Y87186D01*
X103353Y87156D01*
X103293Y87126D01*
X102783Y87867D02*
X102813Y87777D01*
X102903Y87717D01*
X103053Y87687D01*
X103143D01*
X103293Y87717D01*
X103383Y87777D01*
X103413Y87867D01*
Y87927D01*
X103383Y88017D01*
X103293Y88077D01*
X103143Y88106D01*
X103053D01*
X102903Y88077D01*
X102813Y88017D01*
X102783Y87927D01*
Y87867D01*
X103383Y88307D02*
X103413Y88277D01*
X103383Y88247D01*
X103353Y88277D01*
X103383Y88307D01*
X103443D01*
X103503Y88277D01*
X103533Y88247D01*
X102783Y88595D02*
X102813Y88505D01*
X102873Y88475D01*
X102933D01*
X102993Y88505D01*
X103023Y88565D01*
X103053Y88685D01*
X103083Y88775D01*
X103143Y88835D01*
X103203Y88865D01*
X103293D01*
X103353Y88835D01*
X103383Y88805D01*
X103413Y88715D01*
Y88595D01*
X103383Y88505D01*
X103353Y88475D01*
X103293Y88445D01*
X103203D01*
X103143Y88475D01*
X103083Y88535D01*
X103053Y88625D01*
X103023Y88745D01*
X102993Y88805D01*
X102933Y88835D01*
X102873D01*
X102813Y88805D01*
X102783Y88715D01*
Y88595D01*
Y89186D02*
X102813Y89096D01*
X102903Y89036D01*
X103053Y89006D01*
X103143D01*
X103293Y89036D01*
X103383Y89096D01*
X103413Y89186D01*
Y89246D01*
X103383Y89336D01*
X103293Y89396D01*
X103143Y89426D01*
X103053D01*
X102903Y89396D01*
X102813Y89336D01*
X102783Y89246D01*
Y89186D01*
X87080Y77008D02*
X86780D01*
X86750Y76738D01*
X86780Y76768D01*
X86870Y76798D01*
X86960D01*
X87050Y76768D01*
X87110Y76708D01*
X87140Y76618D01*
Y76558D01*
X87110Y76468D01*
X87050Y76408D01*
X86960Y76378D01*
X86870D01*
X86780Y76408D01*
X86750Y76438D01*
X86720Y76498D01*
X87671Y76798D02*
X87641Y76708D01*
X87581Y76648D01*
X87491Y76618D01*
X87461D01*
X87371Y76648D01*
X87311Y76708D01*
X87281Y76798D01*
Y76828D01*
X87311Y76918D01*
X87371Y76978D01*
X87461Y77008D01*
X87491D01*
X87581Y76978D01*
X87641Y76918D01*
X87671Y76798D01*
Y76648D01*
X87641Y76498D01*
X87581Y76408D01*
X87491Y76378D01*
X87431D01*
X87341Y76408D01*
X87311Y76468D01*
X87902Y76408D02*
X87872Y76378D01*
X87842Y76408D01*
X87872Y76438D01*
X87902Y76408D01*
Y76348D01*
X87872Y76288D01*
X87842Y76258D01*
X88399Y76918D02*
X88369Y76978D01*
X88279Y77008D01*
X88219D01*
X88129Y76978D01*
X88069Y76888D01*
X88039Y76738D01*
Y76588D01*
X88069Y76468D01*
X88129Y76408D01*
X88219Y76378D01*
X88249D01*
X88339Y76408D01*
X88399Y76468D01*
X88429Y76558D01*
Y76588D01*
X88399Y76678D01*
X88339Y76738D01*
X88249Y76768D01*
X88219D01*
X88129Y76738D01*
X88069Y76678D01*
X88039Y76588D01*
X88747Y77008D02*
X88657Y76978D01*
X88597Y76888D01*
X88567Y76738D01*
Y76648D01*
X88597Y76498D01*
X88657Y76408D01*
X88747Y76378D01*
X88807D01*
X88897Y76408D01*
X88957Y76498D01*
X88987Y76648D01*
Y76738D01*
X88957Y76888D01*
X88897Y76978D01*
X88807Y77008D01*
X88747D01*
X80111Y77126D02*
X79811D01*
X79781Y76856D01*
X79811Y76886D01*
X79901Y76916D01*
X79991D01*
X80081Y76886D01*
X80141Y76826D01*
X80171Y76736D01*
Y76676D01*
X80141Y76586D01*
X80081Y76526D01*
X79991Y76496D01*
X79901D01*
X79811Y76526D01*
X79781Y76556D01*
X79751Y76616D01*
X80372Y76526D02*
X80342Y76496D01*
X80312Y76526D01*
X80342Y76556D01*
X80372Y76526D01*
Y76466D01*
X80342Y76406D01*
X80312Y76376D01*
X80660Y77126D02*
X80570Y77096D01*
X80540Y77036D01*
Y76976D01*
X80570Y76916D01*
X80630Y76886D01*
X80750Y76856D01*
X80840Y76826D01*
X80900Y76766D01*
X80930Y76706D01*
Y76616D01*
X80900Y76556D01*
X80870Y76526D01*
X80780Y76496D01*
X80660D01*
X80570Y76526D01*
X80540Y76556D01*
X80510Y76616D01*
Y76706D01*
X80540Y76766D01*
X80600Y76826D01*
X80690Y76856D01*
X80810Y76886D01*
X80870Y76916D01*
X80900Y76976D01*
Y77036D01*
X80870Y77096D01*
X80780Y77126D01*
X80660D01*
X81251D02*
X81161Y77096D01*
X81101Y77006D01*
X81071Y76856D01*
Y76766D01*
X81101Y76616D01*
X81161Y76526D01*
X81251Y76496D01*
X81311D01*
X81401Y76526D01*
X81461Y76616D01*
X81491Y76766D01*
Y76856D01*
X81461Y77006D01*
X81401Y77096D01*
X81311Y77126D01*
X81251D01*
X79594Y78462D02*
X79654Y78492D01*
X79744Y78582D01*
Y77953D01*
X80116Y77983D02*
X80086Y77953D01*
X80056Y77983D01*
X80086Y78013D01*
X80116Y77983D01*
Y77923D01*
X80086Y77863D01*
X80056Y77833D01*
X80614Y78582D02*
X80314D01*
X80284Y78312D01*
X80314Y78342D01*
X80404Y78372D01*
X80494D01*
X80584Y78342D01*
X80644Y78282D01*
X80674Y78193D01*
Y78133D01*
X80644Y78043D01*
X80584Y77983D01*
X80494Y77953D01*
X80404D01*
X80314Y77983D01*
X80284Y78013D01*
X80254Y78073D01*
X80994Y78582D02*
X80905Y78552D01*
X80845Y78462D01*
X80815Y78312D01*
Y78223D01*
X80845Y78073D01*
X80905Y77983D01*
X80994Y77953D01*
X81054D01*
X81144Y77983D01*
X81204Y78073D01*
X81234Y78223D01*
Y78312D01*
X81204Y78462D01*
X81144Y78552D01*
X81054Y78582D01*
X80994D01*
X82050D02*
X81960Y78552D01*
X81900Y78462D01*
X81870Y78312D01*
Y78223D01*
X81900Y78073D01*
X81960Y77983D01*
X82050Y77953D01*
X82110D01*
X82200Y77983D01*
X82260Y78073D01*
X82290Y78223D01*
Y78312D01*
X82260Y78462D01*
X82200Y78552D01*
X82110Y78582D01*
X82050D01*
X82491Y77983D02*
X82461Y77953D01*
X82431Y77983D01*
X82461Y78013D01*
X82491Y77983D01*
Y77923D01*
X82461Y77863D01*
X82431Y77833D01*
X82629Y78462D02*
X82689Y78492D01*
X82779Y78582D01*
Y77953D01*
X83271Y78582D02*
X83181Y78552D01*
X83121Y78462D01*
X83091Y78312D01*
Y78223D01*
X83121Y78073D01*
X83181Y77983D01*
X83271Y77953D01*
X83331D01*
X83421Y77983D01*
X83481Y78073D01*
X83511Y78223D01*
Y78312D01*
X83481Y78462D01*
X83421Y78552D01*
X83331Y78582D01*
X83271D01*
D31*
X106405Y77126D02*
X106799D01*
X106405Y78307D02*
X106799D01*
X97654Y86914D02*
Y86942D01*
X97683Y86999D01*
X97711Y87028D01*
X97768Y87056D01*
X97883D01*
X97940Y87028D01*
X97968Y86999D01*
X97997Y86942D01*
Y86885D01*
X97968Y86828D01*
X97911Y86742D01*
X97625Y86457D01*
X98025D01*
X98160Y86856D02*
X98474Y86457D01*
Y86856D02*
X98160Y86457D01*
D32*
X92553Y84201D02*
X92532Y84244D01*
X92489Y84287D01*
X92446Y84308D01*
X92360D01*
X92317Y84287D01*
X92275Y84244D01*
X92253Y84201D01*
X92232Y84137D01*
Y84030D01*
X92253Y83965D01*
X92275Y83922D01*
X92317Y83880D01*
X92360Y83858D01*
X92446D01*
X92489Y83880D01*
X92532Y83922D01*
X92553Y83965D01*
X92680Y84308D02*
Y83858D01*
X92774Y84308D02*
Y83858D01*
Y84308D02*
X92967D01*
X93031Y84287D01*
X93052Y84265D01*
X93074Y84222D01*
Y84179D01*
X93052Y84137D01*
X93031Y84115D01*
X92967Y84094D01*
X92774D01*
X92924D02*
X93074Y83858D01*
X93496Y84201D02*
X93474Y84244D01*
X93431Y84287D01*
X93389Y84308D01*
X93303D01*
X93260Y84287D01*
X93217Y84244D01*
X93196Y84201D01*
X93174Y84137D01*
Y84030D01*
X93196Y83965D01*
X93217Y83922D01*
X93260Y83880D01*
X93303Y83858D01*
X93389D01*
X93431Y83880D01*
X93474Y83922D01*
X93496Y83965D01*
X93622Y84308D02*
Y83987D01*
X93644Y83922D01*
X93686Y83880D01*
X93751Y83858D01*
X93794D01*
X93858Y83880D01*
X93901Y83922D01*
X93922Y83987D01*
Y84308D01*
X94046D02*
Y83858D01*
X94291Y84308D02*
Y83858D01*
X94141Y84308D02*
X94441D01*
X95190Y83858D02*
X95019Y84308D01*
X94848Y83858D01*
X94912Y84008D02*
X95126D01*
X95295Y84308D02*
Y83858D01*
Y84308D02*
X95488D01*
X95552Y84287D01*
X95574Y84265D01*
X95595Y84222D01*
Y84179D01*
X95574Y84137D01*
X95552Y84115D01*
X95488Y84094D01*
X95295D01*
X95445D02*
X95595Y83858D01*
X95975Y84308D02*
X95696D01*
Y83858D01*
X95975D01*
X95696Y84094D02*
X95867D01*
X96392Y83858D02*
X96221Y84308D01*
X96050Y83858D01*
X96114Y84008D02*
X96328D01*
X86254Y84201D02*
X86232Y84244D01*
X86190Y84287D01*
X86147Y84308D01*
X86061D01*
X86018Y84287D01*
X85975Y84244D01*
X85954Y84201D01*
X85933Y84137D01*
Y84030D01*
X85954Y83965D01*
X85975Y83922D01*
X86018Y83880D01*
X86061Y83858D01*
X86147D01*
X86190Y83880D01*
X86232Y83922D01*
X86254Y83965D01*
X86380Y84308D02*
Y83858D01*
X86475Y84308D02*
Y83858D01*
Y84308D02*
X86667D01*
X86732Y84287D01*
X86753Y84265D01*
X86775Y84222D01*
Y84179D01*
X86753Y84137D01*
X86732Y84115D01*
X86667Y84094D01*
X86475D01*
X86625D02*
X86775Y83858D01*
X87197Y84201D02*
X87175Y84244D01*
X87132Y84287D01*
X87089Y84308D01*
X87004D01*
X86961Y84287D01*
X86918Y84244D01*
X86897Y84201D01*
X86875Y84137D01*
Y84030D01*
X86897Y83965D01*
X86918Y83922D01*
X86961Y83880D01*
X87004Y83858D01*
X87089D01*
X87132Y83880D01*
X87175Y83922D01*
X87197Y83965D01*
X87323Y84308D02*
Y83987D01*
X87344Y83922D01*
X87387Y83880D01*
X87451Y83858D01*
X87494D01*
X87559Y83880D01*
X87601Y83922D01*
X87623Y83987D01*
Y84308D01*
X87747D02*
Y83858D01*
X87991Y84308D02*
Y83858D01*
X87841Y84308D02*
X88141D01*
X88891Y83858D02*
X88720Y84308D01*
X88548Y83858D01*
X88613Y84008D02*
X88827D01*
X88996Y84308D02*
Y83858D01*
Y84308D02*
X89189D01*
X89253Y84287D01*
X89275Y84265D01*
X89296Y84222D01*
Y84179D01*
X89275Y84137D01*
X89253Y84115D01*
X89189Y84094D01*
X88996D01*
X89146D02*
X89296Y83858D01*
X89675Y84308D02*
X89397D01*
Y83858D01*
X89675D01*
X89397Y84094D02*
X89568D01*
X90093Y83858D02*
X89922Y84308D01*
X89750Y83858D01*
X89815Y84008D02*
X90029D01*
D33*
X92232Y83560D02*
Y83110D01*
Y83560D02*
X92425D01*
X92489Y83539D01*
X92510Y83517D01*
X92532Y83474D01*
Y83431D01*
X92510Y83389D01*
X92489Y83367D01*
X92425Y83346D01*
X92232D02*
X92425D01*
X92489Y83324D01*
X92510Y83303D01*
X92532Y83260D01*
Y83196D01*
X92510Y83153D01*
X92489Y83132D01*
X92425Y83110D01*
X92232D01*
X92739Y83410D02*
X92697Y83389D01*
X92654Y83346D01*
X92632Y83281D01*
Y83239D01*
X92654Y83174D01*
X92697Y83132D01*
X92739Y83110D01*
X92804D01*
X92847Y83132D01*
X92889Y83174D01*
X92911Y83239D01*
Y83281D01*
X92889Y83346D01*
X92847Y83389D01*
X92804Y83410D01*
X92739D01*
X93074Y83560D02*
Y83196D01*
X93095Y83132D01*
X93138Y83110D01*
X93181D01*
X93009Y83410D02*
X93159D01*
X93309Y83560D02*
Y83196D01*
X93331Y83132D01*
X93374Y83110D01*
X93417D01*
X93245Y83410D02*
X93395D01*
X93588D02*
X93545Y83389D01*
X93502Y83346D01*
X93481Y83281D01*
Y83239D01*
X93502Y83174D01*
X93545Y83132D01*
X93588Y83110D01*
X93652D01*
X93695Y83132D01*
X93738Y83174D01*
X93759Y83239D01*
Y83281D01*
X93738Y83346D01*
X93695Y83389D01*
X93652Y83410D01*
X93588D01*
X93858D02*
Y83110D01*
Y83324D02*
X93922Y83389D01*
X93965Y83410D01*
X94029D01*
X94072Y83389D01*
X94094Y83324D01*
Y83110D01*
Y83324D02*
X94158Y83389D01*
X94201Y83410D01*
X94265D01*
X94308Y83389D01*
X94329Y83324D01*
Y83110D01*
X95124Y83496D02*
X95081Y83539D01*
X95017Y83560D01*
X94931D01*
X94867Y83539D01*
X94824Y83496D01*
Y83453D01*
X94845Y83410D01*
X94867Y83389D01*
X94910Y83367D01*
X95038Y83324D01*
X95081Y83303D01*
X95103Y83281D01*
X95124Y83239D01*
Y83174D01*
X95081Y83132D01*
X95017Y83110D01*
X94931D01*
X94867Y83132D01*
X94824Y83174D01*
X95268Y83560D02*
X95289Y83539D01*
X95310Y83560D01*
X95289Y83581D01*
X95268Y83560D01*
X95289Y83410D02*
Y83110D01*
X95647Y83560D02*
Y83110D01*
Y83346D02*
X95604Y83389D01*
X95561Y83410D01*
X95497D01*
X95454Y83389D01*
X95411Y83346D01*
X95390Y83281D01*
Y83239D01*
X95411Y83174D01*
X95454Y83132D01*
X95497Y83110D01*
X95561D01*
X95604Y83132D01*
X95647Y83174D01*
X95767Y83281D02*
X96024D01*
Y83324D01*
X96002Y83367D01*
X95981Y83389D01*
X95938Y83410D01*
X95874D01*
X95831Y83389D01*
X95788Y83346D01*
X95767Y83281D01*
Y83239D01*
X95788Y83174D01*
X95831Y83132D01*
X95874Y83110D01*
X95938D01*
X95981Y83132D01*
X96024Y83174D01*
X86083Y83560D02*
Y83110D01*
X85933Y83560D02*
X86232D01*
X86393Y83410D02*
X86350Y83389D01*
X86307Y83346D01*
X86286Y83281D01*
Y83239D01*
X86307Y83174D01*
X86350Y83132D01*
X86393Y83110D01*
X86457D01*
X86500Y83132D01*
X86543Y83174D01*
X86565Y83239D01*
Y83281D01*
X86543Y83346D01*
X86500Y83389D01*
X86457Y83410D01*
X86393D01*
X86663D02*
Y82960D01*
Y83346D02*
X86706Y83389D01*
X86749Y83410D01*
X86813D01*
X86856Y83389D01*
X86899Y83346D01*
X86920Y83281D01*
Y83239D01*
X86899Y83174D01*
X86856Y83132D01*
X86813Y83110D01*
X86749D01*
X86706Y83132D01*
X86663Y83174D01*
X87670Y83496D02*
X87627Y83539D01*
X87563Y83560D01*
X87477D01*
X87413Y83539D01*
X87370Y83496D01*
Y83453D01*
X87392Y83410D01*
X87413Y83389D01*
X87456Y83367D01*
X87584Y83324D01*
X87627Y83303D01*
X87649Y83281D01*
X87670Y83239D01*
Y83174D01*
X87627Y83132D01*
X87563Y83110D01*
X87477D01*
X87413Y83132D01*
X87370Y83174D01*
X87814Y83560D02*
X87835Y83539D01*
X87856Y83560D01*
X87835Y83581D01*
X87814Y83560D01*
X87835Y83410D02*
Y83110D01*
X88193Y83560D02*
Y83110D01*
Y83346D02*
X88150Y83389D01*
X88107Y83410D01*
X88043D01*
X88000Y83389D01*
X87957Y83346D01*
X87936Y83281D01*
Y83239D01*
X87957Y83174D01*
X88000Y83132D01*
X88043Y83110D01*
X88107D01*
X88150Y83132D01*
X88193Y83174D01*
X88313Y83281D02*
X88570D01*
Y83324D01*
X88548Y83367D01*
X88527Y83389D01*
X88484Y83410D01*
X88420D01*
X88377Y83389D01*
X88334Y83346D01*
X88313Y83281D01*
Y83239D01*
X88334Y83174D01*
X88377Y83132D01*
X88420Y83110D01*
X88484D01*
X88527Y83132D01*
X88570Y83174D01*
X107192Y77379D02*
Y76929D01*
X107417D01*
X107492Y77004D01*
Y77079D01*
X107417Y77154D01*
X107192D01*
X107417D01*
X107492Y77229D01*
Y77304D01*
X107417Y77379D01*
X107192D01*
X107717Y76929D02*
X107867D01*
X107942Y77004D01*
Y77154D01*
X107867Y77229D01*
X107717D01*
X107642Y77154D01*
Y77004D01*
X107717Y76929D01*
X108167Y77304D02*
Y77229D01*
X108092D01*
X108242D01*
X108167D01*
Y77004D01*
X108242Y76929D01*
X108542Y77304D02*
Y77229D01*
X108467D01*
X108617D01*
X108542D01*
Y77004D01*
X108617Y76929D01*
X108917D02*
X109067D01*
X109142Y77004D01*
Y77154D01*
X109067Y77229D01*
X108917D01*
X108842Y77154D01*
Y77004D01*
X108917Y76929D01*
X109292D02*
Y77229D01*
X109367D01*
X109442Y77154D01*
Y76929D01*
Y77154D01*
X109517Y77229D01*
X109592Y77154D01*
Y76929D01*
X110491Y77304D02*
X110416Y77379D01*
X110266D01*
X110191Y77304D01*
Y77229D01*
X110266Y77154D01*
X110416D01*
X110491Y77079D01*
Y77004D01*
X110416Y76929D01*
X110266D01*
X110191Y77004D01*
X110641Y76929D02*
X110791D01*
X110716D01*
Y77229D01*
X110641D01*
X111316Y77379D02*
Y76929D01*
X111091D01*
X111016Y77004D01*
Y77154D01*
X111091Y77229D01*
X111316D01*
X111691Y76929D02*
X111541D01*
X111466Y77004D01*
Y77154D01*
X111541Y77229D01*
X111691D01*
X111766Y77154D01*
Y77079D01*
X111466D01*
X111916Y77229D02*
X111991D01*
Y77154D01*
X111916D01*
Y77229D01*
Y77004D02*
X111991D01*
Y76929D01*
X111916D01*
Y77004D01*
X113040Y77229D02*
X112816D01*
X112741Y77154D01*
Y77004D01*
X112816Y76929D01*
X113040D01*
X113265D02*
X113415D01*
X113490Y77004D01*
Y77154D01*
X113415Y77229D01*
X113265D01*
X113190Y77154D01*
Y77004D01*
X113265Y76929D01*
X113640D02*
Y77229D01*
X113715D01*
X113790Y77154D01*
Y76929D01*
Y77154D01*
X113865Y77229D01*
X113940Y77154D01*
Y76929D01*
X114090Y76779D02*
Y77229D01*
X114315D01*
X114390Y77154D01*
Y77004D01*
X114315Y76929D01*
X114090D01*
X114615D02*
X114765D01*
X114840Y77004D01*
Y77154D01*
X114765Y77229D01*
X114615D01*
X114540Y77154D01*
Y77004D01*
X114615Y76929D01*
X114990D02*
Y77229D01*
X115215D01*
X115290Y77154D01*
Y76929D01*
X115665D02*
X115515D01*
X115440Y77004D01*
Y77154D01*
X115515Y77229D01*
X115665D01*
X115740Y77154D01*
Y77079D01*
X115440D01*
X115890Y76929D02*
Y77229D01*
X116115D01*
X116189Y77154D01*
Y76929D01*
X116414Y77304D02*
Y77229D01*
X116339D01*
X116489D01*
X116414D01*
Y77004D01*
X116489Y76929D01*
X116714D02*
X116939D01*
X117014Y77004D01*
X116939Y77079D01*
X116789D01*
X116714Y77154D01*
X116789Y77229D01*
X117014D01*
X117614Y76929D02*
Y77229D01*
X117689D01*
X117764Y77154D01*
Y76929D01*
Y77154D01*
X117839Y77229D01*
X117914Y77154D01*
Y76929D01*
X118139Y77229D02*
X118289D01*
X118364Y77154D01*
Y76929D01*
X118139D01*
X118064Y77004D01*
X118139Y77079D01*
X118364D01*
X118514Y77229D02*
X118814Y76929D01*
X118664Y77079D01*
X118814Y77229D01*
X118514Y76929D01*
X119413Y77379D02*
Y76929D01*
Y77154D01*
X119488Y77229D01*
X119638D01*
X119713Y77154D01*
Y76929D01*
X120088D02*
X119938D01*
X119863Y77004D01*
Y77154D01*
X119938Y77229D01*
X120088D01*
X120163Y77154D01*
Y77079D01*
X119863D01*
X120313Y76929D02*
X120463D01*
X120388D01*
Y77229D01*
X120313D01*
X120838Y76779D02*
X120913D01*
X120988Y76854D01*
Y77229D01*
X120763D01*
X120688Y77154D01*
Y77004D01*
X120763Y76929D01*
X120988D01*
X121138Y77379D02*
Y76929D01*
Y77154D01*
X121213Y77229D01*
X121363D01*
X121438Y77154D01*
Y76929D01*
X121663Y77304D02*
Y77229D01*
X121588D01*
X121738D01*
X121663D01*
Y77004D01*
X121738Y76929D01*
X122412D02*
X122562D01*
X122487D01*
Y77379D01*
X122412Y77304D01*
X122862Y76854D02*
X122937Y76929D01*
Y77004D01*
X122862D01*
Y76929D01*
X122937D01*
X122862Y76854D01*
X122787Y76779D01*
X123462Y76929D02*
Y77379D01*
X123237Y77154D01*
X123537D01*
X123687Y77304D02*
X123762Y77379D01*
X123912D01*
X123987Y77304D01*
Y77004D01*
X123912Y76929D01*
X123762D01*
X123687Y77004D01*
Y77304D01*
X124587Y76929D02*
Y77229D01*
X124662D01*
X124737Y77154D01*
Y76929D01*
Y77154D01*
X124812Y77229D01*
X124887Y77154D01*
Y76929D01*
X125037D02*
Y77229D01*
X125112D01*
X125187Y77154D01*
Y76929D01*
Y77154D01*
X125262Y77229D01*
X125337Y77154D01*
Y76929D01*
X107192Y78560D02*
X107492D01*
X107342D01*
Y78110D01*
X107717D02*
X107867D01*
X107942Y78185D01*
Y78335D01*
X107867Y78410D01*
X107717D01*
X107642Y78335D01*
Y78185D01*
X107717Y78110D01*
X108092Y77960D02*
Y78410D01*
X108317D01*
X108392Y78335D01*
Y78185D01*
X108317Y78110D01*
X108092D01*
X109292Y78485D02*
X109217Y78560D01*
X109067D01*
X108992Y78485D01*
Y78410D01*
X109067Y78335D01*
X109217D01*
X109292Y78260D01*
Y78185D01*
X109217Y78110D01*
X109067D01*
X108992Y78185D01*
X109442Y78110D02*
X109592D01*
X109517D01*
Y78410D01*
X109442D01*
X110116Y78560D02*
Y78110D01*
X109892D01*
X109817Y78185D01*
Y78335D01*
X109892Y78410D01*
X110116D01*
X110491Y78110D02*
X110341D01*
X110266Y78185D01*
Y78335D01*
X110341Y78410D01*
X110491D01*
X110566Y78335D01*
Y78260D01*
X110266D01*
X110716Y78410D02*
X110791D01*
Y78335D01*
X110716D01*
Y78410D01*
Y78185D02*
X110791D01*
Y78110D01*
X110716D01*
Y78185D01*
X111841Y78410D02*
X111616D01*
X111541Y78335D01*
Y78185D01*
X111616Y78110D01*
X111841D01*
X112066D02*
X112216D01*
X112291Y78185D01*
Y78335D01*
X112216Y78410D01*
X112066D01*
X111991Y78335D01*
Y78185D01*
X112066Y78110D01*
X112441D02*
Y78410D01*
X112516D01*
X112591Y78335D01*
Y78110D01*
Y78335D01*
X112666Y78410D01*
X112741Y78335D01*
Y78110D01*
X112891Y77960D02*
Y78410D01*
X113115D01*
X113190Y78335D01*
Y78185D01*
X113115Y78110D01*
X112891D01*
X113415D02*
X113565D01*
X113640Y78185D01*
Y78335D01*
X113565Y78410D01*
X113415D01*
X113340Y78335D01*
Y78185D01*
X113415Y78110D01*
X113790D02*
Y78410D01*
X114015D01*
X114090Y78335D01*
Y78110D01*
X114465D02*
X114315D01*
X114240Y78185D01*
Y78335D01*
X114315Y78410D01*
X114465D01*
X114540Y78335D01*
Y78260D01*
X114240D01*
X114690Y78110D02*
Y78410D01*
X114915D01*
X114990Y78335D01*
Y78110D01*
X115215Y78485D02*
Y78410D01*
X115140D01*
X115290D01*
X115215D01*
Y78185D01*
X115290Y78110D01*
X115515D02*
X115740D01*
X115815Y78185D01*
X115740Y78260D01*
X115590D01*
X115515Y78335D01*
X115590Y78410D01*
X115815D01*
X116414Y78110D02*
Y78410D01*
X116489D01*
X116564Y78335D01*
Y78110D01*
Y78335D01*
X116639Y78410D01*
X116714Y78335D01*
Y78110D01*
X116939Y78410D02*
X117089D01*
X117164Y78335D01*
Y78110D01*
X116939D01*
X116864Y78185D01*
X116939Y78260D01*
X117164D01*
X117314Y78410D02*
X117614Y78110D01*
X117464Y78260D01*
X117614Y78410D01*
X117314Y78110D01*
X118214Y78560D02*
Y78110D01*
Y78335D01*
X118289Y78410D01*
X118439D01*
X118514Y78335D01*
Y78110D01*
X118889D02*
X118739D01*
X118664Y78185D01*
Y78335D01*
X118739Y78410D01*
X118889D01*
X118964Y78335D01*
Y78260D01*
X118664D01*
X119114Y78110D02*
X119263D01*
X119189D01*
Y78410D01*
X119114D01*
X119638Y77960D02*
X119713D01*
X119788Y78035D01*
Y78410D01*
X119563D01*
X119488Y78335D01*
Y78185D01*
X119563Y78110D01*
X119788D01*
X119938Y78560D02*
Y78110D01*
Y78335D01*
X120013Y78410D01*
X120163D01*
X120238Y78335D01*
Y78110D01*
X120463Y78485D02*
Y78410D01*
X120388D01*
X120538D01*
X120463D01*
Y78185D01*
X120538Y78110D01*
X121513D02*
X121213D01*
X121513Y78410D01*
Y78485D01*
X121438Y78560D01*
X121288D01*
X121213Y78485D01*
X121738Y78035D02*
X121813Y78110D01*
Y78185D01*
X121738D01*
Y78110D01*
X121813D01*
X121738Y78035D01*
X121663Y77960D01*
X122337Y78110D02*
Y78560D01*
X122113Y78335D01*
X122412D01*
X122562Y78485D02*
X122637Y78560D01*
X122787D01*
X122862Y78485D01*
Y78185D01*
X122787Y78110D01*
X122637D01*
X122562Y78185D01*
Y78485D01*
X123462Y78110D02*
Y78410D01*
X123537D01*
X123612Y78335D01*
Y78110D01*
Y78335D01*
X123687Y78410D01*
X123762Y78335D01*
Y78110D01*
X123912D02*
Y78410D01*
X123987D01*
X124062Y78335D01*
Y78110D01*
Y78335D01*
X124137Y78410D01*
X124212Y78335D01*
Y78110D01*
D42*
X85145Y62992D02*
Y62165D01*
X85558D01*
X85696Y62303D01*
Y62441D01*
X85558Y62578D01*
X85145D01*
X85558D01*
X85696Y62716D01*
Y62854D01*
X85558Y62992D01*
X85145D01*
X86109Y62165D02*
X86385D01*
X86523Y62303D01*
Y62578D01*
X86385Y62716D01*
X86109D01*
X85972Y62578D01*
Y62303D01*
X86109Y62165D01*
X86936Y62716D02*
X87211D01*
X87349Y62578D01*
Y62165D01*
X86936D01*
X86798Y62303D01*
X86936Y62441D01*
X87349D01*
X87625Y62716D02*
Y62165D01*
Y62441D01*
X87762Y62578D01*
X87900Y62716D01*
X88038D01*
X89002Y62992D02*
Y62165D01*
X88589D01*
X88451Y62303D01*
Y62578D01*
X88589Y62716D01*
X89002D01*
X90104Y62992D02*
Y62165D01*
X90517D01*
X90655Y62303D01*
Y62854D01*
X90517Y62992D01*
X90104D01*
X90931Y62165D02*
X91206D01*
X91068D01*
Y62716D01*
X90931D01*
X91619Y62165D02*
Y62716D01*
X91757D01*
X91895Y62578D01*
Y62165D01*
Y62578D01*
X92033Y62716D01*
X92170Y62578D01*
Y62165D01*
X92859D02*
X92584D01*
X92446Y62303D01*
Y62578D01*
X92584Y62716D01*
X92859D01*
X92997Y62578D01*
Y62441D01*
X92446D01*
X93272Y62165D02*
Y62716D01*
X93686D01*
X93823Y62578D01*
Y62165D01*
X94099D02*
X94512D01*
X94650Y62303D01*
X94512Y62441D01*
X94237D01*
X94099Y62578D01*
X94237Y62716D01*
X94650D01*
X94925Y62165D02*
X95201D01*
X95063D01*
Y62716D01*
X94925D01*
X95752Y62165D02*
X96027D01*
X96165Y62303D01*
Y62578D01*
X96027Y62716D01*
X95752D01*
X95614Y62578D01*
Y62303D01*
X95752Y62165D01*
X96441D02*
Y62716D01*
X96854D01*
X96992Y62578D01*
Y62165D01*
X97267D02*
X97680D01*
X97818Y62303D01*
X97680Y62441D01*
X97405D01*
X97267Y62578D01*
X97405Y62716D01*
X97818D01*
D51*
X76484Y85984D02*
X76582Y85990D01*
X76680Y86009D01*
X76774Y86039D01*
X76863Y86081D01*
X76947Y86134D01*
X77023Y86198D01*
X77090Y86270D01*
X77149Y86350D01*
X77196Y86436D01*
X77233Y86528D01*
X77257Y86624D01*
X77270Y86722D01*
Y86821D01*
X77257Y86919D01*
X77233Y87015D01*
X77196Y87107D01*
X77149Y87193D01*
X77090Y87273D01*
X77023Y87346D01*
X76947Y87409D01*
X76863Y87462D01*
X76774Y87504D01*
X76680Y87534D01*
X76582Y87553D01*
X76484Y87559D01*
X79062Y80177D02*
X79045Y80278D01*
X78993Y80367D01*
X78915Y80433D01*
X78818Y80468D01*
X78716D01*
X78620Y80433D01*
X78541Y80367D01*
X78490Y80278D01*
X78472Y80177D01*
X99948Y87559D02*
X99850Y87553D01*
X99752Y87534D01*
X99658Y87504D01*
X99569Y87462D01*
X99485Y87409D01*
X99409Y87346D01*
X99342Y87273D01*
X99283Y87193D01*
X99236Y87107D01*
X99199Y87015D01*
X99175Y86919D01*
X99162Y86821D01*
Y86722D01*
X99175Y86624D01*
X99199Y86528D01*
X99236Y86436D01*
X99283Y86350D01*
X99342Y86270D01*
X99409Y86198D01*
X99485Y86134D01*
X99569Y86081D01*
X99658Y86039D01*
X99752Y86009D01*
X99850Y85990D01*
X99948Y85984D01*
X76484Y98897D02*
X99948D01*
X79062Y78897D02*
X99948D01*
X76484Y78897D02*
Y85984D01*
Y78897D02*
X78472D01*
X99948D02*
Y85984D01*
X78472Y78897D02*
Y80177D01*
X79062Y78897D02*
Y80177D01*
X76484Y87559D02*
Y98897D01*
X99948Y87559D02*
Y98897D01*
D104*
X76484Y76772D02*
X78767D01*
M02*
