%FSLAX24Y24*%
%MOIN*%
G70*
G01*
G75*
%ADD10C,0.0040*%
%ADD11C,0.0400*%
%ADD12C,0.0157*%
%ADD13R,0.0236X0.0906*%
%ADD14R,0.0380X0.0380*%
%ADD15R,0.0315X0.0472*%
%ADD16R,0.0650X0.0500*%
%ADD17R,0.0600X0.1000*%
%ADD18R,0.0600X0.0600*%
%ADD19R,0.0551X0.0512*%
%ADD20R,0.0472X0.0394*%
%ADD21R,0.1000X0.0600*%
%ADD22R,0.0433X0.0236*%
%ADD23R,0.0800X0.0800*%
%ADD24R,0.2480X0.0846*%
%ADD25R,0.0500X0.0600*%
%ADD26R,0.0512X0.0551*%
%ADD27R,0.0394X0.0472*%
%ADD28O,0.0846X0.0138*%
%ADD29R,0.0846X0.0138*%
%ADD30R,0.1181X0.1575*%
%ADD31C,0.0100*%
%ADD32C,0.0060*%
%ADD33C,0.0050*%
%ADD34C,0.0138*%
%ADD35C,0.0200*%
%ADD36C,0.0250*%
%ADD37C,0.0130*%
%ADD38C,0.0500*%
%ADD39C,0.0300*%
%ADD40C,0.0400*%
%ADD41C,0.0110*%
%ADD42C,0.0098*%
%ADD43C,0.0600*%
%ADD44P,0.0600X8X0*%
%ADD45C,0.0620*%
%ADD46P,0.0620X8X0*%
%ADD47C,0.0180*%
%ADD48C,0.0200*%
%ADD49C,0.0500*%
%ADD50C,0.0150*%
%ADD51C,0.0080*%
%ADD52C,0.0059*%
%ADD53C,0.0098*%
%ADD54C,0.0079*%
%ADD55R,2.0896X0.1063*%
%ADD56R,0.1102X0.2008*%
%ADD57R,0.1102X0.2008*%
%ADD58R,0.1250X0.3400*%
%ADD59C,0.0800*%
%ADD60C,0.0394*%
%ADD61R,0.0316X0.0986*%
%ADD62R,0.0460X0.0460*%
%ADD63R,0.0395X0.0552*%
%ADD64R,0.0730X0.0580*%
%ADD65R,0.0680X0.1080*%
%ADD66R,0.0680X0.0680*%
%ADD67R,0.0631X0.0592*%
%ADD68R,0.0552X0.0474*%
%ADD69R,0.1080X0.0680*%
%ADD70R,0.0513X0.0316*%
%ADD71R,0.0880X0.0880*%
%ADD72R,0.2560X0.0926*%
%ADD73R,0.0580X0.0680*%
%ADD74R,0.0592X0.0631*%
%ADD75R,0.0474X0.0552*%
%ADD76O,0.0926X0.0218*%
%ADD77R,0.0926X0.0218*%
%ADD78R,0.1261X0.1655*%
%ADD79C,0.0197*%
%ADD80C,0.0680*%
%ADD81P,0.0680X8X0*%
%ADD82C,0.0700*%
%ADD83P,0.0700X8X0*%
%ADD84C,0.0220*%
%ADD85C,0.0260*%
%ADD86C,0.0280*%
%ADD87C,0.0300*%
%ADD88R,2.0915X0.1063*%
%ADD89R,0.0984X0.2913*%
%ADD90R,0.0984X0.2913*%
%ADD91C,0.0075*%
%ADD92C,0.0045*%
%ADD93C,0.0030*%
%ADD94C,0.0090*%
%ADD95R,0.0450X0.0150*%
%ADD96R,0.0090X0.0150*%
%ADD97R,0.0129X0.0930*%
%ADD98R,0.0039X0.0108*%
%ADD99C,0.0520*%
%AMTHD100*
7,0,0,0.0920,0.0720,0.0120,45*
%
%ADD100THD100*%
%ADD101C,0.0550*%
%AMTHD102*
7,0,0,0.0950,0.0750,0.0120,45*
%
%ADD102THD102*%
%ADD103C,0.0480*%
D33*
X76484Y76535D02*
Y76835D01*
X76634Y76985D01*
X76784Y76835D01*
Y76535D01*
Y76760D01*
X76484D01*
X76934Y76385D02*
Y76835D01*
X77158D01*
X77233Y76760D01*
Y76610D01*
X77158Y76535D01*
X76934D01*
X77608D02*
X77458D01*
X77383Y76610D01*
Y76760D01*
X77458Y76835D01*
X77608D01*
X77683Y76760D01*
Y76685D01*
X77383D01*
X77833Y76835D02*
Y76535D01*
Y76685D01*
X77908Y76760D01*
X77983Y76835D01*
X78058D01*
X78358Y76910D02*
Y76835D01*
X78283D01*
X78433D01*
X78358D01*
Y76610D01*
X78433Y76535D01*
X78658Y76835D02*
Y76610D01*
X78733Y76535D01*
X78958D01*
Y76835D01*
X79108D02*
Y76535D01*
Y76685D01*
X79183Y76760D01*
X79258Y76835D01*
X79333D01*
X79783Y76535D02*
X79633D01*
X79558Y76610D01*
Y76760D01*
X79633Y76835D01*
X79783D01*
X79858Y76760D01*
Y76685D01*
X79558D01*
X80757Y76985D02*
Y76535D01*
X80532D01*
X80457Y76610D01*
Y76760D01*
X80532Y76835D01*
X80757D01*
X81132Y76535D02*
X80982D01*
X80907Y76610D01*
Y76760D01*
X80982Y76835D01*
X81132D01*
X81207Y76760D01*
Y76685D01*
X80907D01*
X81432Y76535D02*
Y76910D01*
Y76760D01*
X81357D01*
X81507D01*
X81432D01*
Y76910D01*
X81507Y76985D01*
X81732Y76535D02*
X81882D01*
X81807D01*
Y76835D01*
X81732D01*
X82107Y76535D02*
Y76835D01*
X82332D01*
X82407Y76760D01*
Y76535D01*
X82782D02*
X82632D01*
X82557Y76610D01*
Y76760D01*
X82632Y76835D01*
X82782D01*
X82857Y76760D01*
Y76685D01*
X82557D01*
X83007Y76535D02*
X83232D01*
X83307Y76610D01*
X83232Y76685D01*
X83082D01*
X83007Y76760D01*
X83082Y76835D01*
X83307D01*
X83906D02*
Y76610D01*
X83981Y76535D01*
X84056Y76610D01*
X84131Y76535D01*
X84206Y76610D01*
Y76835D01*
X84356Y76985D02*
Y76535D01*
Y76760D01*
X84431Y76835D01*
X84581D01*
X84656Y76760D01*
Y76535D01*
X85031D02*
X84881D01*
X84806Y76610D01*
Y76760D01*
X84881Y76835D01*
X85031D01*
X85106Y76760D01*
Y76685D01*
X84806D01*
X85256Y76835D02*
Y76535D01*
Y76685D01*
X85331Y76760D01*
X85406Y76835D01*
X85481D01*
X85931Y76535D02*
X85781D01*
X85706Y76610D01*
Y76760D01*
X85781Y76835D01*
X85931D01*
X86006Y76760D01*
Y76685D01*
X85706D01*
X86680Y76910D02*
Y76835D01*
X86605D01*
X86755D01*
X86680D01*
Y76610D01*
X86755Y76535D01*
X86980Y76985D02*
Y76535D01*
Y76760D01*
X87055Y76835D01*
X87205D01*
X87280Y76760D01*
Y76535D01*
X87655D02*
X87505D01*
X87430Y76610D01*
Y76760D01*
X87505Y76835D01*
X87655D01*
X87730Y76760D01*
Y76685D01*
X87430D01*
X87880Y76835D02*
Y76535D01*
Y76685D01*
X87955Y76760D01*
X88030Y76835D01*
X88105D01*
X88555Y76535D02*
X88405D01*
X88330Y76610D01*
Y76760D01*
X88405Y76835D01*
X88555D01*
X88630Y76760D01*
Y76685D01*
X88330D01*
X89230Y76535D02*
X89455D01*
X89530Y76610D01*
X89455Y76685D01*
X89305D01*
X89230Y76760D01*
X89305Y76835D01*
X89530D01*
X89679Y76985D02*
Y76535D01*
Y76760D01*
X89754Y76835D01*
X89904D01*
X89979Y76760D01*
Y76535D01*
X90204D02*
X90354D01*
X90429Y76610D01*
Y76760D01*
X90354Y76835D01*
X90204D01*
X90129Y76760D01*
Y76610D01*
X90204Y76535D01*
X90579Y76835D02*
Y76610D01*
X90654Y76535D01*
X90879D01*
Y76835D01*
X91029Y76535D02*
X91179D01*
X91104D01*
Y76985D01*
X91029D01*
X91704D02*
Y76535D01*
X91479D01*
X91404Y76610D01*
Y76760D01*
X91479Y76835D01*
X91704D01*
X92304Y76985D02*
Y76535D01*
X92529D01*
X92604Y76610D01*
Y76685D01*
Y76760D01*
X92529Y76835D01*
X92304D01*
X92978Y76535D02*
X92828D01*
X92753Y76610D01*
Y76760D01*
X92828Y76835D01*
X92978D01*
X93053Y76760D01*
Y76685D01*
X92753D01*
X93653Y76535D02*
Y76835D01*
X93878D01*
X93953Y76760D01*
Y76535D01*
X94178D02*
X94328D01*
X94403Y76610D01*
Y76760D01*
X94328Y76835D01*
X94178D01*
X94103Y76760D01*
Y76610D01*
X94178Y76535D01*
X95303Y76835D02*
X95078D01*
X95003Y76760D01*
Y76610D01*
X95078Y76535D01*
X95303D01*
X95528D02*
X95678D01*
X95753Y76610D01*
Y76760D01*
X95678Y76835D01*
X95528D01*
X95453Y76760D01*
Y76610D01*
X95528Y76535D01*
X95902Y76385D02*
Y76835D01*
X96127D01*
X96202Y76760D01*
Y76610D01*
X96127Y76535D01*
X95902D01*
X96352Y76385D02*
Y76835D01*
X96577D01*
X96652Y76760D01*
Y76610D01*
X96577Y76535D01*
X96352D01*
X97027D02*
X96877D01*
X96802Y76610D01*
Y76760D01*
X96877Y76835D01*
X97027D01*
X97102Y76760D01*
Y76685D01*
X96802D01*
X97252Y76835D02*
Y76535D01*
Y76685D01*
X97327Y76760D01*
X97402Y76835D01*
X97477D01*
X97702Y76535D02*
Y76610D01*
X97777D01*
Y76535D01*
X97702D01*
X76484Y77323D02*
Y77773D01*
X76784Y77323D01*
Y77773D01*
X77009Y77323D02*
X77158D01*
X77233Y77398D01*
Y77548D01*
X77158Y77623D01*
X77009D01*
X76934Y77548D01*
Y77398D01*
X77009Y77323D01*
X77458Y77698D02*
Y77623D01*
X77383D01*
X77533D01*
X77458D01*
Y77398D01*
X77533Y77323D01*
X77983D02*
X77833D01*
X77758Y77398D01*
Y77548D01*
X77833Y77623D01*
X77983D01*
X78058Y77548D01*
Y77473D01*
X77758D01*
X78208Y77623D02*
X78283D01*
Y77548D01*
X78208D01*
Y77623D01*
Y77398D02*
X78283D01*
Y77323D01*
X78208D01*
Y77398D01*
X79333Y77698D02*
X79258Y77773D01*
X79108D01*
X79033Y77698D01*
Y77398D01*
X79108Y77323D01*
X79258D01*
X79333Y77398D01*
Y77548D01*
X79183D01*
X79708Y77323D02*
X79558D01*
X79483Y77398D01*
Y77548D01*
X79558Y77623D01*
X79708D01*
X79783Y77548D01*
Y77473D01*
X79483D01*
X79933Y77623D02*
Y77323D01*
Y77473D01*
X80008Y77548D01*
X80083Y77623D01*
X80158D01*
X80382Y77773D02*
Y77323D01*
X80607D01*
X80682Y77398D01*
Y77473D01*
Y77548D01*
X80607Y77623D01*
X80382D01*
X81057Y77323D02*
X80907D01*
X80832Y77398D01*
Y77548D01*
X80907Y77623D01*
X81057D01*
X81132Y77548D01*
Y77473D01*
X80832D01*
X81282Y77623D02*
Y77323D01*
Y77473D01*
X81357Y77548D01*
X81432Y77623D01*
X81507D01*
X82257Y77323D02*
Y77698D01*
Y77548D01*
X82182D01*
X82332D01*
X82257D01*
Y77698D01*
X82332Y77773D01*
X82557Y77323D02*
X82707D01*
X82632D01*
Y77623D01*
X82557D01*
X82932Y77323D02*
X83082D01*
X83007D01*
Y77773D01*
X82932D01*
X83531Y77323D02*
X83382D01*
X83307Y77398D01*
Y77548D01*
X83382Y77623D01*
X83531D01*
X83606Y77548D01*
Y77473D01*
X83307D01*
X84206Y77323D02*
X84356D01*
X84281D01*
Y77623D01*
X84206D01*
X84581Y77323D02*
X84806D01*
X84881Y77398D01*
X84806Y77473D01*
X84656D01*
X84581Y77548D01*
X84656Y77623D01*
X84881D01*
X85481Y77323D02*
X85631D01*
X85556D01*
Y77623D01*
X85481D01*
X85856Y77323D02*
Y77623D01*
X86081D01*
X86156Y77548D01*
Y77323D01*
X86306Y77623D02*
X86455Y77323D01*
X86605Y77623D01*
X86980Y77323D02*
X86830D01*
X86755Y77398D01*
Y77548D01*
X86830Y77623D01*
X86980D01*
X87055Y77548D01*
Y77473D01*
X86755D01*
X87205Y77623D02*
Y77323D01*
Y77473D01*
X87280Y77548D01*
X87355Y77623D01*
X87430D01*
X87730Y77698D02*
Y77623D01*
X87655D01*
X87805D01*
X87730D01*
Y77398D01*
X87805Y77323D01*
X88255D02*
X88105D01*
X88030Y77398D01*
Y77548D01*
X88105Y77623D01*
X88255D01*
X88330Y77548D01*
Y77473D01*
X88030D01*
X88780Y77773D02*
Y77323D01*
X88555D01*
X88480Y77398D01*
Y77548D01*
X88555Y77623D01*
X88780D01*
X88930Y77473D02*
Y77848D01*
Y77398D02*
Y77323D01*
D36*
X83885Y82401D02*
X85303D01*
X83885D02*
Y83543D01*
X85303Y83218D02*
X85303Y82401D01*
X83885Y83543D02*
X84978Y83543D01*
X86641Y85207D01*
X86641Y86457D01*
X86799Y86614D01*
X86641Y88189D02*
X86799Y88031D01*
X85303Y83218D02*
X86966Y84882D01*
X88216Y84882D01*
X88373Y85039D01*
X89791D02*
X89948Y84882D01*
X86799Y86614D02*
X87153D01*
Y88031D01*
X88373Y85039D02*
Y85394D01*
X89791Y85039D02*
Y85394D01*
X88373D02*
X89791D01*
X84978Y91102D02*
X86641Y89439D01*
X82822Y91102D02*
X84978D01*
X86799Y88031D02*
X87153D01*
X86641Y89439D02*
X86641Y88189D01*
X82822Y91102D02*
Y92362D01*
X85303Y92362D01*
X85303Y91427D02*
X86966Y89764D01*
X85303Y91427D02*
X85303Y92362D01*
X88216Y89764D02*
X88373Y89606D01*
X86966Y89764D02*
X88216Y89764D01*
X88373Y89252D02*
X89791D01*
X88373D02*
Y89606D01*
X88137Y93228D02*
X88413Y92953D01*
X88137Y93228D02*
Y94646D01*
X88413Y92953D02*
X92429D01*
X88137Y94646D02*
X88334Y94842D01*
X90381D01*
X89948Y84882D02*
X91198D01*
X90972Y86614D02*
X91366Y86614D01*
X91523Y85207D02*
Y86457D01*
X91366Y86614D02*
X91523Y86457D01*
X89791Y89252D02*
Y89606D01*
X89948Y89764D01*
X90972Y86614D02*
Y88031D01*
X91366Y88031D01*
X92862Y82441D02*
X94476D01*
X92862Y83218D02*
X92862Y82441D01*
X94476D02*
Y83543D01*
X93186Y83543D02*
X94476Y83543D01*
X91198Y84882D02*
X92862Y83218D01*
X91366Y88031D02*
X91523Y88189D01*
Y85207D02*
X93186Y83543D01*
X91523Y88189D02*
Y89439D01*
X93186Y91102D01*
X89948Y89764D02*
X91198Y89764D01*
X90381Y94842D02*
X90539Y95000D01*
X91198Y89764D02*
X92862Y91427D01*
X91956Y94960D02*
X92153Y94764D01*
X90539Y95000D02*
Y96457D01*
X90736Y96653D01*
X91956Y94960D02*
Y96457D01*
X90736Y96653D02*
X91759D01*
X91956Y96457D01*
X93186Y91102D02*
X94003D01*
X92862Y91427D02*
Y92520D01*
X94003Y91102D02*
X94161Y91260D01*
Y92205D01*
X92429Y92953D02*
X92862Y92520D01*
X92153Y94764D02*
X94436D01*
X94161Y92205D02*
X95106Y93189D01*
Y94094D01*
X94436Y94764D02*
X95106Y94094D01*
D42*
X85145Y62165D02*
Y62992D01*
X85558D01*
X85696Y62854D01*
Y62578D01*
X85558Y62441D01*
X85145D01*
X86109Y62165D02*
X86385D01*
X86523Y62303D01*
Y62578D01*
X86385Y62716D01*
X86109D01*
X85972Y62578D01*
Y62303D01*
X86109Y62165D01*
X86798Y62716D02*
Y62303D01*
X86936Y62165D01*
X87074Y62303D01*
X87211Y62165D01*
X87349Y62303D01*
Y62716D01*
X88038Y62165D02*
X87762D01*
X87625Y62303D01*
Y62578D01*
X87762Y62716D01*
X88038D01*
X88176Y62578D01*
Y62441D01*
X87625D01*
X88451Y62716D02*
Y62165D01*
Y62441D01*
X88589Y62578D01*
X88727Y62716D01*
X88864D01*
X90104Y62165D02*
Y62992D01*
X90517D01*
X90655Y62854D01*
Y62578D01*
X90517Y62441D01*
X90104D01*
X90931Y62165D02*
X91206D01*
X91068D01*
Y62992D01*
X90931D01*
X91757Y62716D02*
X92033D01*
X92170Y62578D01*
Y62165D01*
X91757D01*
X91619Y62303D01*
X91757Y62441D01*
X92170D01*
X92446Y62165D02*
Y62716D01*
X92859D01*
X92997Y62578D01*
Y62165D01*
X93686D02*
X93410D01*
X93272Y62303D01*
Y62578D01*
X93410Y62716D01*
X93686D01*
X93823Y62578D01*
Y62441D01*
X93272D01*
D58*
X77559Y94997D02*
D03*
D86*
X86248Y83858D02*
D03*
X87507Y83858D02*
D03*
X87822D02*
D03*
Y84173D02*
D03*
X88137Y84803D02*
D03*
Y84173D02*
D03*
Y83858D02*
D03*
X88452D02*
D03*
Y84173D02*
D03*
Y85118D02*
D03*
X88767Y84803D02*
D03*
Y84488D02*
D03*
Y84173D02*
D03*
X89712Y83228D02*
D03*
X89397Y83858D02*
D03*
X89397Y84173D02*
D03*
Y84488D02*
D03*
Y84803D02*
D03*
X89712Y84173D02*
D03*
X90027D02*
D03*
X90342D02*
D03*
X89712Y85118D02*
D03*
X90027Y84803D02*
D03*
X90657Y84173D02*
D03*
Y84488D02*
D03*
X90342Y84803D02*
D03*
X90972Y84173D02*
D03*
X91287D02*
D03*
X89712Y83858D02*
D03*
X90027D02*
D03*
X90342D02*
D03*
X90657D02*
D03*
X90972D02*
D03*
X91287D02*
D03*
X91602D02*
D03*
Y84173D02*
D03*
X90972Y84803D02*
D03*
X90657Y85118D02*
D03*
X91602Y84488D02*
D03*
X91917Y84173D02*
D03*
X92232Y83858D02*
D03*
X92547Y83543D02*
D03*
X91917Y84803D02*
D03*
X92232Y84488D02*
D03*
X92547Y84173D02*
D03*
X92862Y83858D02*
D03*
X91602Y85433D02*
D03*
X91287Y85748D02*
D03*
X91917D02*
D03*
X91602Y86063D02*
D03*
X91287Y86693D02*
D03*
X91602Y87008D02*
D03*
X92862Y87323D02*
D03*
X91602Y87638D02*
D03*
X91287Y87953D02*
D03*
X91602Y88268D02*
D03*
Y88583D02*
D03*
X91917Y88897D02*
D03*
X91287D02*
D03*
X91602Y89212D02*
D03*
X91917Y89842D02*
D03*
X92232Y90157D02*
D03*
X92547Y90472D02*
D03*
X92862Y90787D02*
D03*
X92547Y91102D02*
D03*
X92232Y90787D02*
D03*
X91917Y90472D02*
D03*
X91602Y90157D02*
D03*
X90972Y89842D02*
D03*
X90657Y90157D02*
D03*
Y89527D02*
D03*
X90342Y89842D02*
D03*
X90027D02*
D03*
X89712Y89527D02*
D03*
X89397Y89842D02*
D03*
X88767Y91102D02*
D03*
Y89842D02*
D03*
X88452Y89527D02*
D03*
X88137Y89842D02*
D03*
X87507Y90157D02*
D03*
X87822Y89842D02*
D03*
X87507Y89527D02*
D03*
X87192Y89842D02*
D03*
X86562Y90157D02*
D03*
X86248Y90472D02*
D03*
X85933Y90787D02*
D03*
X85618Y91102D02*
D03*
X85303Y90787D02*
D03*
X85618Y90472D02*
D03*
X85933Y90157D02*
D03*
X86248Y89842D02*
D03*
Y88897D02*
D03*
X86562Y89212D02*
D03*
X86877Y88897D02*
D03*
X86562Y88583D02*
D03*
X86877Y87953D02*
D03*
X86562Y88268D02*
D03*
X86248Y87953D02*
D03*
X86562Y87638D02*
D03*
X85303Y87008D02*
D03*
X86562Y87323D02*
D03*
X86877Y86693D02*
D03*
X86562Y86378D02*
D03*
Y86063D02*
D03*
X86248Y85748D02*
D03*
X86877D02*
D03*
X86562Y85433D02*
D03*
X87507Y85118D02*
D03*
Y84803D02*
D03*
X87192D02*
D03*
X87507Y84488D02*
D03*
X87192Y84173D02*
D03*
X86877D02*
D03*
Y83858D02*
D03*
X86248Y84803D02*
D03*
X85618Y84173D02*
D03*
X85933Y84488D02*
D03*
X86562D02*
D03*
X86248Y84173D02*
D03*
X85933Y83858D02*
D03*
X86248Y83543D02*
D03*
X85933D02*
D03*
X85618D02*
D03*
X85303Y83858D02*
D03*
X84346Y84628D02*
D03*
X85854Y82264D02*
D03*
X86592Y82352D02*
D03*
X90362Y80935D02*
D03*
X90175Y81289D02*
D03*
X89948Y81427D02*
D03*
X88295Y80905D02*
D03*
X88807Y80817D02*
D03*
X85933Y83228D02*
D03*
D87*
X99122Y84764D02*
D03*
X99358Y84764D02*
D03*
X99594Y84764D02*
D03*
X76838Y84764D02*
D03*
X77074D02*
D03*
X77310D02*
D03*
X87350Y91560D02*
D03*
X90814D02*
D03*
X93319Y89055D02*
D03*
Y85590D02*
D03*
X90814Y83086D02*
D03*
X87350D02*
D03*
X84845Y85590D02*
D03*
Y89055D02*
D03*
X87934Y88247D02*
D03*
X90234Y86447D02*
D03*
X89884Y86847D02*
D03*
X89084D02*
D03*
X88284D02*
D03*
X87934Y86447D02*
D03*
X90234Y88597D02*
D03*
X89784Y87847D02*
D03*
X89484Y88247D02*
D03*
X88334Y87847D02*
D03*
X87884Y87747D02*
D03*
X90234D02*
D03*
X89384D02*
D03*
X81484Y80118D02*
D03*
X84948D02*
D03*
X86917Y80118D02*
D03*
X87783Y80118D02*
D03*
X89988D02*
D03*
X91247D02*
D03*
X92114Y80118D02*
D03*
X95106D02*
D03*
X79988D02*
D03*
X80460D02*
D03*
X82744Y80118D02*
D03*
X84171Y80394D02*
D03*
X88836Y80344D02*
D03*
X90775Y80118D02*
D03*
X95499D02*
D03*
X97074D02*
D03*
X83433Y80462D02*
D03*
X95106Y97126D02*
D03*
X95618D02*
D03*
X96090D02*
D03*
X95145Y95275D02*
D03*
X95618D02*
D03*
X95145Y94882D02*
D03*
X95618D02*
D03*
X96090Y95275D02*
D03*
Y97520D02*
D03*
X95618Y97835D02*
D03*
X95106D02*
D03*
X96090Y94882D02*
D03*
X96129Y98031D02*
D03*
X96523Y97953D02*
D03*
X96877Y97795D02*
D03*
X96793Y94355D02*
D03*
X96399D02*
D03*
X96793Y93883D02*
D03*
Y93410D02*
D03*
X96399Y93883D02*
D03*
Y93410D02*
D03*
X89358Y95984D02*
D03*
X88885D02*
D03*
X89358Y96378D02*
D03*
X88885D02*
D03*
X88413Y95984D02*
D03*
Y96378D02*
D03*
X89988Y97047D02*
D03*
X90445Y95990D02*
D03*
X90381Y96890D02*
D03*
X90445Y96383D02*
D03*
X89973Y95990D02*
D03*
Y96383D02*
D03*
X93534Y96497D02*
D03*
D99*
X87584Y96597D02*
D03*
X86584D02*
D03*
X85584D02*
D03*
X84584D02*
D03*
X83584D02*
D03*
X82584D02*
D03*
X81584D02*
D03*
X87584Y97597D02*
D03*
X86584D02*
D03*
X85584D02*
D03*
X84584D02*
D03*
X83584D02*
D03*
X82584D02*
D03*
X81584D02*
D03*
D101*
X82534Y94897D02*
D03*
Y93897D02*
D03*
X81534Y94897D02*
D03*
Y93897D02*
D03*
X80534Y94897D02*
D03*
Y93897D02*
D03*
X79534Y94897D02*
D03*
Y93897D02*
D03*
D103*
X97234Y92747D02*
D03*
M02*
