%FSLAX24Y24*%
%MOIN*%
G70*
G01*
G75*
%ADD10C,0.0100*%
%ADD11R,0.1250X0.0600*%
%ADD12R,0.0600X0.1000*%
%ADD13R,0.0380X0.0380*%
%ADD14R,0.0600X0.0600*%
%ADD15R,0.0709X0.1575*%
%ADD16R,0.1614X0.0827*%
%ADD17O,0.0701X0.0157*%
%ADD18R,0.1500X0.1100*%
%ADD19R,0.0600X0.1250*%
%ADD20R,0.0500X0.0600*%
%ADD21R,0.0600X0.0500*%
%ADD22R,0.0315X0.0472*%
%ADD23R,0.1200X0.0900*%
%ADD24R,0.0551X0.0492*%
%ADD25O,0.0138X0.0846*%
%ADD26R,0.0138X0.0846*%
%ADD27R,0.1575X0.1181*%
%ADD28R,0.0709X0.1378*%
%ADD29R,0.0800X0.0800*%
%ADD30O,0.0630X0.0110*%
%ADD31O,0.0110X0.0630*%
%ADD32R,0.0110X0.0630*%
%ADD33R,0.0472X0.1260*%
%ADD34R,0.0472X0.0315*%
%ADD35R,0.0425X0.0380*%
%ADD36C,0.0400*%
%ADD37R,0.1378X0.0709*%
%ADD38R,0.0650X0.0500*%
%ADD39O,0.0787X0.0177*%
%ADD40R,0.0787X0.0177*%
%ADD41R,0.0236X0.0433*%
%ADD42R,0.0492X0.0551*%
%ADD43O,0.0669X0.0110*%
%ADD44R,0.0669X0.0110*%
%ADD45O,0.0110X0.0669*%
%ADD46R,0.0110X0.0669*%
%ADD47R,0.1000X0.0600*%
%ADD48R,0.0850X0.1080*%
%ADD49R,0.0600X0.1350*%
%ADD50R,0.1575X0.2165*%
%ADD51R,0.1500X0.1680*%
%ADD52R,0.0866X0.1142*%
%ADD53O,0.0630X0.0110*%
%ADD54R,0.0630X0.0110*%
%ADD55O,0.0110X0.0709*%
%ADD56O,0.0709X0.0110*%
%ADD57O,0.0709X0.0110*%
%ADD58R,0.0709X0.0110*%
%ADD59O,0.0157X0.0701*%
%ADD60O,0.0110X0.0630*%
%ADD61R,0.0787X0.0512*%
%ADD62R,0.0945X0.0906*%
%ADD63C,0.0200*%
%ADD64C,0.0500*%
%ADD65C,0.0120*%
%ADD66C,0.0150*%
%ADD67C,0.0600*%
%ADD68C,0.0400*%
%ADD69C,0.0250*%
%ADD70C,0.0300*%
%ADD71C,0.0380*%
%ADD72C,0.0700*%
%ADD73C,0.0110*%
%ADD74C,0.0320*%
%ADD75C,0.0080*%
%ADD76C,0.0280*%
%ADD77C,0.0310*%
%ADD78C,0.0140*%
%ADD79C,0.0157*%
%ADD80C,0.0130*%
%ADD81C,0.0090*%
%ADD82C,0.0220*%
%ADD83C,0.0170*%
%ADD84C,0.0180*%
%ADD85C,0.0308*%
%ADD86C,0.0160*%
%ADD87C,0.0390*%
%ADD88R,0.0670X0.0700*%
%ADD89R,0.1350X0.1400*%
%ADD90R,0.0300X0.1229*%
%ADD91C,0.0620*%
%ADD92C,0.0600*%
%ADD93C,0.1000*%
%ADD94C,0.0650*%
%ADD95C,0.0906*%
%ADD96C,0.0787*%
%ADD97C,0.0866*%
%ADD98C,0.1024*%
%ADD99C,0.1024*%
%ADD100P,0.0620X8X0*%
%ADD101C,0.0945*%
%ADD102C,0.0500*%
%ADD103C,0.0118*%
%ADD104C,0.0098*%
%ADD105C,0.0060*%
%ADD106C,0.0079*%
%ADD107C,0.0070*%
%ADD108R,0.0500X0.0300*%
%ADD109R,0.0500X0.1500*%
%ADD110R,0.3100X0.0430*%
%ADD111R,0.0360X0.0130*%
%ADD112R,0.1900X0.1250*%
%ADD113R,0.0520X0.2190*%
%ADD114R,0.0530X0.2180*%
%ADD115R,0.2230X0.0510*%
%ADD116R,0.2180X0.0540*%
%ADD117R,0.3850X0.1200*%
%ADD118R,0.3400X0.1250*%
%ADD119R,0.0560X0.4570*%
%ADD120R,0.0560X0.4580*%
%ADD121R,0.4580X0.0560*%
%ADD122R,0.4570X0.0560*%
%ADD123R,0.0400X0.0350*%
%ADD124R,0.4016X0.1063*%
%ADD125R,0.0520X0.6940*%
%ADD126R,0.6930X0.0530*%
%ADD127R,0.0520X0.6930*%
%ADD128R,0.0600X1.0150*%
%ADD129R,1.0110X0.0610*%
%ADD130R,0.0610X1.0100*%
%ADD131R,0.0520X0.2960*%
%ADD132R,0.2970X0.0520*%
%ADD133R,0.0520X0.2970*%
%ADD134R,0.3010X0.0520*%
%ADD135R,0.1330X0.0680*%
%ADD136R,0.0680X0.1080*%
%ADD137R,0.0460X0.0460*%
%ADD138R,0.0680X0.0680*%
%ADD139R,0.0789X0.1655*%
%ADD140R,0.1694X0.0907*%
%ADD141O,0.0781X0.0237*%
%ADD142R,0.1580X0.1180*%
%ADD143R,0.0680X0.1330*%
%ADD144R,0.0580X0.0680*%
%ADD145R,0.0680X0.0580*%
%ADD146R,0.0395X0.0552*%
%ADD147R,0.1280X0.0980*%
%ADD148R,0.0631X0.0572*%
%ADD149O,0.0218X0.0926*%
%ADD150R,0.0218X0.0926*%
%ADD151R,0.1655X0.1261*%
%ADD152R,0.0789X0.1458*%
%ADD153R,0.0880X0.0880*%
%ADD154O,0.0710X0.0190*%
%ADD155O,0.0190X0.0710*%
%ADD156R,0.0190X0.0710*%
%ADD157R,0.0552X0.1340*%
%ADD158R,0.0552X0.0395*%
%ADD159R,0.0505X0.0460*%
%ADD160C,0.0800*%
%ADD161R,0.1458X0.0789*%
%ADD162R,0.0730X0.0580*%
%ADD163O,0.0867X0.0257*%
%ADD164R,0.0867X0.0257*%
%ADD165R,0.0316X0.0513*%
%ADD166R,0.0572X0.0631*%
%ADD167O,0.0749X0.0190*%
%ADD168R,0.0749X0.0190*%
%ADD169O,0.0190X0.0749*%
%ADD170R,0.0190X0.0749*%
%ADD171R,0.1080X0.0680*%
%ADD172R,0.0930X0.1160*%
%ADD173R,0.0680X0.1430*%
%ADD174R,0.1655X0.2245*%
%ADD175R,0.1580X0.1760*%
%ADD176R,0.0946X0.1222*%
%ADD177O,0.0710X0.0190*%
%ADD178R,0.0710X0.0190*%
%ADD179O,0.0190X0.0789*%
%ADD180O,0.0789X0.0190*%
%ADD181O,0.0789X0.0190*%
%ADD182R,0.0789X0.0190*%
%ADD183O,0.0237X0.0781*%
%ADD184O,0.0190X0.0710*%
%ADD185R,0.0867X0.0592*%
%ADD186R,0.1025X0.0986*%
%ADD187C,0.0700*%
%ADD188C,0.0080*%
%ADD189C,0.0680*%
%ADD190C,0.1080*%
%ADD191C,0.0730*%
%ADD192C,0.0986*%
%ADD193C,0.0867*%
%ADD194C,0.0946*%
%ADD195C,0.1104*%
%ADD196C,0.1104*%
%ADD197P,0.0700X8X0*%
%ADD198C,0.0709*%
%ADD199C,0.1025*%
%ADD200C,0.0300*%
%ADD201C,0.0480*%
%ADD202C,0.0580*%
%ADD203C,0.0075*%
%ADD204C,0.0045*%
%ADD205C,0.0030*%
%ADD206R,0.0150X0.0450*%
%ADD207R,0.0150X0.0090*%
%ADD208R,0.0930X0.0129*%
%ADD209R,0.0108X0.0039*%
%ADD210R,0.1600X4.6150*%
%ADD211R,0.1050X5.8850*%
%ADD212R,0.2008X0.1063*%
%ADD213R,0.1024X0.1063*%
%ADD214C,0.0750*%
%AMTHD215*
7,0,0,0.0950,0.0750,0.0120,45*
%
%ADD215THD215*%
%ADD216C,0.1680*%
%AMTHD217*
7,0,0,0.1240,0.1040,0.0120,45*
%
%ADD217THD217*%
%ADD218C,0.1760*%
%AMTHD219*
7,0,0,0.1112,0.0912,0.0120,45*
%
%ADD219THD219*%
%ADD220C,0.0794*%
%AMTHD221*
7,0,0,0.0994,0.0794,0.0120,45*
%
%ADD221THD221*%
%AMTHD222*
7,0,0,0.1191,0.0991,0.0120,45*
%
%ADD222THD222*%
%AMTHD223*
7,0,0,0.1191,0.0991,0.0120,45*
%
%ADD223THD223*%
%ADD224C,0.1109*%
%ADD225C,0.1030*%
%ADD226C,0.0872*%
D10*
X79275Y92975D02*
X79625Y92625D01*
X79275Y92985D02*
X80585D01*
X79275Y93065D02*
X80625D01*
X79275Y93145D02*
X80625D01*
X79275Y93225D02*
X80625D01*
X79275Y93305D02*
X80625D01*
X79275Y93385D02*
X80625D01*
X79275Y93465D02*
X80625D01*
X79275Y93545D02*
X80625D01*
X79275Y93625D02*
X80625D01*
X79275Y93705D02*
X80625D01*
X79275Y93785D02*
X80625D01*
X79275Y93865D02*
X80625D01*
X79275Y93945D02*
X80625D01*
X79275Y94025D02*
X80625D01*
X79275Y94105D02*
X80625D01*
X79275Y94185D02*
X80625D01*
X79275Y94265D02*
X80625D01*
X79275Y94345D02*
X80625D01*
X79275Y94425D02*
X80625D01*
X79275Y94505D02*
X80625D01*
X79275Y94585D02*
X80625D01*
X79275Y94665D02*
X80625D01*
X79275Y94745D02*
X80625D01*
X79275Y94825D02*
X80625D01*
X79275Y94905D02*
X80625D01*
X79275Y94985D02*
X80625D01*
X79275Y95065D02*
X80625D01*
X79275Y95145D02*
X80625D01*
X79275Y95225D02*
X80625D01*
X79275Y95305D02*
X80625D01*
X79275Y95385D02*
X80625D01*
X79275Y95465D02*
X80625D01*
X79275Y95545D02*
X80625D01*
X79275Y95625D02*
X80625D01*
X79275Y95705D02*
X80625D01*
X79275Y95785D02*
X80625D01*
X79275Y95865D02*
X80625D01*
X79275Y95945D02*
X80625D01*
X79275Y96025D02*
X80625D01*
X79275Y96105D02*
X80625D01*
X79275Y96185D02*
X80625D01*
X79275Y96265D02*
X80625D01*
X79275Y96345D02*
X80625D01*
X79275Y92975D02*
Y99875D01*
X79295Y92955D02*
Y99895D01*
X79535Y92715D02*
Y100075D01*
X79375Y92875D02*
Y99975D01*
X79455Y92795D02*
Y100055D01*
X79615Y92635D02*
Y100075D01*
X79695Y92625D02*
Y100075D01*
X79775Y92625D02*
Y100075D01*
X79855Y92625D02*
Y100075D01*
X79935Y92625D02*
Y100075D01*
X80015Y92625D02*
Y100075D01*
X79425Y92825D02*
X80425D01*
X79345Y92905D02*
X80505D01*
X79625Y92625D02*
X80225D01*
X79585Y92665D02*
X80265D01*
X79505Y92745D02*
X80345D01*
X79275Y96425D02*
X80625D01*
X79275Y96505D02*
X80625D01*
X79275Y96585D02*
X80625D01*
X80225Y92625D02*
X80625Y93025D01*
Y97925D01*
X79275Y96665D02*
X80625D01*
X79275Y96745D02*
X80625D01*
X79275Y96825D02*
X80625D01*
X79275Y96905D02*
X80625D01*
X79275Y96985D02*
X80625D01*
X79275Y97065D02*
X80625D01*
X79275Y97145D02*
X80625D01*
X79275Y97225D02*
X80625D01*
X79275Y97305D02*
X80625D01*
X79275Y97385D02*
X80625D01*
X79275Y99875D02*
X79475Y100075D01*
X79275Y97465D02*
X80625D01*
X79275Y97545D02*
X80625D01*
X79275Y97625D02*
X80625D01*
X79275Y97705D02*
X80625D01*
X79275Y97785D02*
X80625D01*
X79275Y97865D02*
X80625D01*
X79275Y97945D02*
X80645D01*
X79275Y98025D02*
X80725D01*
X79275Y98105D02*
X80805D01*
X79275Y98185D02*
X80885D01*
X80625Y97925D02*
X81075Y98375D01*
X79275Y98265D02*
X80965D01*
X79275Y98345D02*
X81045D01*
X80095Y92625D02*
Y100075D01*
X80175Y92625D02*
Y100075D01*
X80255Y92655D02*
Y100075D01*
X80335Y92735D02*
Y100075D01*
X80415Y92815D02*
Y100075D01*
X80495Y92895D02*
Y100075D01*
X80575Y92975D02*
Y100075D01*
X80655Y97955D02*
Y100075D01*
X80735Y98035D02*
Y100075D01*
X80815Y98115D02*
Y100075D01*
X80895Y98195D02*
Y100075D01*
X80975Y98275D02*
Y100075D01*
X81055Y98355D02*
Y100075D01*
X81135Y98375D02*
Y100075D01*
X81215Y98375D02*
Y100075D01*
X81295Y98375D02*
Y100075D01*
X81375Y98375D02*
Y100075D01*
X81455Y98375D02*
Y100075D01*
X81535Y98375D02*
Y100075D01*
X81615Y98375D02*
Y100075D01*
X81695Y98375D02*
Y100075D01*
X81775Y98375D02*
Y100075D01*
X79275Y101625D02*
X79475Y101425D01*
X79535D02*
Y107085D01*
X79615Y101425D02*
Y107165D01*
X79695Y101425D02*
Y107245D01*
X79775Y101425D02*
Y107325D01*
X79855Y101425D02*
Y107405D01*
X79935Y101425D02*
Y107485D01*
X80015Y101425D02*
Y107565D01*
X80095Y101425D02*
Y107645D01*
X80175Y101425D02*
Y107725D01*
X80255Y101425D02*
Y107805D01*
X81855Y98375D02*
Y100075D01*
X81935Y98375D02*
Y100075D01*
X82015Y98375D02*
Y100075D01*
X82095Y98375D02*
Y100075D01*
X82175Y98375D02*
Y100075D01*
X82255Y98375D02*
Y100075D01*
X82335Y98375D02*
Y100075D01*
X82415Y98375D02*
Y100075D01*
X82495Y98375D02*
Y100075D01*
X82575Y98375D02*
Y100075D01*
X82655Y98375D02*
Y100075D01*
X82735Y98375D02*
Y100075D01*
X82815Y98375D02*
Y100075D01*
X82895Y98375D02*
Y100075D01*
X82975Y98375D02*
Y100075D01*
X83055Y98375D02*
Y100075D01*
X83135Y98375D02*
Y100075D01*
X83215Y98375D02*
Y100075D01*
X83295Y98375D02*
Y100075D01*
X83375Y98375D02*
Y100075D01*
X83455Y98375D02*
Y100075D01*
X83535Y98375D02*
Y100075D01*
X83615Y98375D02*
Y100075D01*
X83695Y98375D02*
Y100075D01*
X83775Y98375D02*
Y100075D01*
X83855Y98375D02*
Y100075D01*
X83935Y98375D02*
Y100075D01*
X84015Y98375D02*
Y100075D01*
X84095Y98375D02*
Y100075D01*
X84175Y98375D02*
Y100075D01*
X84255Y98375D02*
Y100075D01*
X84335Y98375D02*
Y100075D01*
X84415Y98375D02*
Y100075D01*
X84495Y98375D02*
Y100075D01*
X84575Y98375D02*
Y100075D01*
X84655Y98375D02*
Y100075D01*
X84735Y98375D02*
Y100075D01*
X84815Y98375D02*
Y100075D01*
X84895Y98375D02*
Y100075D01*
X84975Y98375D02*
Y100075D01*
X85055Y98375D02*
Y100075D01*
X85135Y98375D02*
Y100075D01*
X85215Y98375D02*
Y100075D01*
X85295Y98375D02*
Y100075D01*
X85375Y98375D02*
Y100075D01*
X85455Y98375D02*
Y100075D01*
X85535Y98375D02*
Y100075D01*
X85615Y98375D02*
Y100075D01*
X85695Y98375D02*
Y100075D01*
X85775Y98375D02*
Y100075D01*
X85855Y98375D02*
Y100075D01*
X85935Y98375D02*
Y100075D01*
X86015Y98375D02*
Y100075D01*
X86095Y98375D02*
Y100075D01*
X86175Y98375D02*
Y100075D01*
X86255Y98375D02*
Y100075D01*
X86335Y98375D02*
Y100075D01*
X86415Y98375D02*
Y100075D01*
X86495Y98375D02*
Y100075D01*
X86575Y98375D02*
Y100075D01*
X86655Y98375D02*
Y100075D01*
X86735Y98375D02*
Y100075D01*
X86815Y98375D02*
Y100075D01*
X86895Y98375D02*
Y100075D01*
X86975Y98375D02*
Y100075D01*
X87055Y98375D02*
Y100075D01*
X87135Y98375D02*
Y100075D01*
X81075Y98375D02*
X95625D01*
X87215D02*
Y100075D01*
X87295Y98375D02*
Y100075D01*
X87375Y98375D02*
Y100075D01*
X87455Y98375D02*
Y100075D01*
X87535Y98375D02*
Y100075D01*
X87615Y98375D02*
Y100075D01*
X87695Y98375D02*
Y100075D01*
X87775Y98375D02*
Y100075D01*
X87855Y98375D02*
Y100075D01*
X87935Y98375D02*
Y100075D01*
X79275Y98425D02*
X106025D01*
X79275Y98505D02*
X106025D01*
X79275Y98585D02*
X106025D01*
X79275Y98665D02*
X106025D01*
X79275Y98745D02*
X106025D01*
X79275Y98825D02*
X106025D01*
X79275Y98905D02*
X106025D01*
X79275Y98985D02*
X106025D01*
X88015Y98375D02*
Y100075D01*
X79275Y99065D02*
X106025D01*
X79275Y99145D02*
X106025D01*
X79275Y99225D02*
X106025D01*
X79275Y99305D02*
X106025D01*
X79275Y99385D02*
X106025D01*
X79275Y99465D02*
X106025D01*
X79275Y99545D02*
X106025D01*
X79275Y99625D02*
X106025D01*
X79275Y99705D02*
X106025D01*
X79275Y99785D02*
X106025D01*
X79275Y99865D02*
X106025D01*
X79345Y99945D02*
X106025D01*
X79425Y100025D02*
X106025D01*
X95525Y95775D02*
X105875D01*
X95525Y95785D02*
X105885D01*
X95525Y95775D02*
Y95925D01*
X95535Y95775D02*
Y95935D01*
X95615Y95775D02*
Y96015D01*
X95695Y95775D02*
Y96095D01*
X95775Y95775D02*
Y96175D01*
X95525Y95925D02*
X96075Y96475D01*
X95855Y95775D02*
Y96255D01*
X95935Y95775D02*
Y96335D01*
X96015Y95775D02*
Y96415D01*
X95525Y95865D02*
X105965D01*
X95545Y95945D02*
X106025D01*
X95625Y96025D02*
X106025D01*
X95705Y96105D02*
X106025D01*
X95785Y96185D02*
X106025D01*
X95865Y96265D02*
X106025D01*
X95945Y96345D02*
X106025D01*
X96025Y96425D02*
X106025D01*
X96075Y96505D02*
X106025D01*
X96075Y96585D02*
X106025D01*
X96075Y96665D02*
X106025D01*
X88095Y98375D02*
Y100075D01*
X88175Y98375D02*
Y100075D01*
X88255Y98375D02*
Y100075D01*
X88335Y98375D02*
Y100075D01*
X88415Y98375D02*
Y100075D01*
X88495Y98375D02*
Y100075D01*
X88575Y98375D02*
Y100075D01*
X88655Y98375D02*
Y100075D01*
X88735Y98375D02*
Y100075D01*
X88815Y98375D02*
Y100075D01*
X88895Y98375D02*
Y100075D01*
X96075Y96745D02*
X106025D01*
X96055Y97945D02*
X106025D01*
X95975Y98025D02*
X106025D01*
X96075Y96825D02*
X106025D01*
X96075Y96905D02*
X106025D01*
X96075Y96985D02*
X106025D01*
X95625Y98375D02*
X96075Y97925D01*
X88975Y98375D02*
Y100075D01*
X95655Y98345D02*
X106025D01*
X95895Y98105D02*
X106025D01*
X95815Y98185D02*
X106025D01*
X95735Y98265D02*
X106025D01*
X89055Y98375D02*
Y100075D01*
X89135Y98375D02*
Y100075D01*
X89215Y98375D02*
Y100075D01*
X89295Y98375D02*
Y100075D01*
X89375Y98375D02*
Y100075D01*
X89455Y98375D02*
Y100075D01*
X89535Y98375D02*
Y100075D01*
X89615Y98375D02*
Y100075D01*
X89695Y98375D02*
Y100075D01*
X89775Y98375D02*
Y100075D01*
X89855Y98375D02*
Y100075D01*
X89935Y98375D02*
Y100075D01*
X90015Y98375D02*
Y100075D01*
X90095Y98375D02*
Y100075D01*
X90175Y98375D02*
Y100075D01*
X90255Y98375D02*
Y100075D01*
X90335Y98375D02*
Y100075D01*
X90415Y98375D02*
Y100075D01*
X90495Y98375D02*
Y100075D01*
X90575Y98375D02*
Y100075D01*
X90655Y98375D02*
Y100075D01*
X90735Y98375D02*
Y100075D01*
X90815Y98375D02*
Y100075D01*
X90895Y98375D02*
Y100075D01*
X90975Y98375D02*
Y100075D01*
X91055Y98375D02*
Y100075D01*
X91135Y98375D02*
Y100075D01*
X91215Y98375D02*
Y100075D01*
X79475Y101425D02*
X87125D01*
X91295Y98375D02*
Y100075D01*
X91375Y98375D02*
Y100075D01*
X91455Y98375D02*
Y100075D01*
X91535Y98375D02*
Y100075D01*
X91615Y98375D02*
Y100075D01*
X91695Y98375D02*
Y100075D01*
X91775Y98375D02*
Y100075D01*
X91855Y98375D02*
Y100075D01*
X91935Y98375D02*
Y100075D01*
X92015Y98375D02*
Y100075D01*
X92095Y98375D02*
Y100075D01*
X92175Y98375D02*
Y100075D01*
X79475D02*
X100675D01*
X92255Y98375D02*
Y100075D01*
X92335Y98375D02*
Y100075D01*
X92415Y98375D02*
Y100075D01*
X92495Y98375D02*
Y100075D01*
X92575Y98375D02*
Y100075D01*
X92655Y98375D02*
Y100075D01*
X92735Y98375D02*
Y100075D01*
X92815Y98375D02*
Y100075D01*
X92895Y98375D02*
Y100075D01*
X92975Y98375D02*
Y100075D01*
X93055Y98375D02*
Y100075D01*
X93135Y98375D02*
Y100075D01*
X93215Y98375D02*
Y100075D01*
X93295Y98375D02*
Y100075D01*
X93375Y98375D02*
Y100075D01*
X93455Y98375D02*
Y100075D01*
X93535Y98375D02*
Y100075D01*
X93615Y98375D02*
Y100075D01*
X93695Y98375D02*
Y100075D01*
X95775Y98225D02*
Y100075D01*
X93775Y98375D02*
Y100075D01*
X95695Y98305D02*
Y100075D01*
X96015Y97985D02*
Y100075D01*
X95855Y98145D02*
Y100075D01*
X95935Y98065D02*
Y100075D01*
X93855Y98375D02*
Y100075D01*
X93935Y98375D02*
Y100075D01*
X94015Y98375D02*
Y100075D01*
X94095Y98375D02*
Y100075D01*
X94175Y98375D02*
Y100075D01*
X94255Y98375D02*
Y100075D01*
X94335Y98375D02*
Y100075D01*
X94415Y98375D02*
Y100075D01*
X94495Y98375D02*
Y100075D01*
X94575Y98375D02*
Y100075D01*
X94655Y98375D02*
Y100075D01*
X94735Y98375D02*
Y100075D01*
X94815Y98375D02*
Y100075D01*
X94895Y98375D02*
Y100075D01*
X94975Y98375D02*
Y100075D01*
X95055Y98375D02*
Y100075D01*
X95135Y98375D02*
Y100075D01*
X95215Y98375D02*
Y100075D01*
X95295Y98375D02*
Y100075D01*
X95375Y98375D02*
Y100075D01*
X95455Y98375D02*
Y100075D01*
X95535Y98375D02*
Y100075D01*
X95615Y98375D02*
Y100075D01*
X79225Y101675D02*
X79275Y101625D01*
X79225Y101675D02*
Y106775D01*
X79455Y101445D02*
Y107005D01*
X79295Y101605D02*
Y106845D01*
X79375Y101525D02*
Y106925D01*
X80335Y101425D02*
Y107885D01*
X80415Y101425D02*
Y107965D01*
X80495Y101425D02*
Y108045D01*
X80575Y101425D02*
Y108125D01*
X80655Y101425D02*
Y108205D01*
X80735Y101425D02*
Y108285D01*
X79225Y101705D02*
X87325D01*
X79225Y101785D02*
X87325D01*
X79435Y101465D02*
X87165D01*
X79355Y101545D02*
X87245D01*
X79275Y101625D02*
X87325D01*
X79225Y101865D02*
X87325D01*
X79225Y101945D02*
X87325D01*
X79225Y102025D02*
X87325D01*
X80815Y101425D02*
Y108365D01*
X80895Y101425D02*
Y108445D01*
X79225Y102105D02*
X87325D01*
X79225Y102185D02*
X87325D01*
X79225Y102265D02*
X87325D01*
X79225Y102345D02*
X87325D01*
X79225Y102425D02*
X87325D01*
X79225Y102505D02*
X87325D01*
X79225Y102585D02*
X87325D01*
X79225Y102665D02*
X87325D01*
X79225Y102745D02*
X87325D01*
X79225Y102825D02*
X87325D01*
X79225Y106775D02*
X83275Y110825D01*
X79225Y102905D02*
X87325D01*
X79225Y102985D02*
X87325D01*
X79225Y103065D02*
X87325D01*
X79225Y103145D02*
X87325D01*
X79225Y103225D02*
X87325D01*
X79225Y103305D02*
X87325D01*
X79225Y103385D02*
X87325D01*
X79225Y103465D02*
X87325D01*
X79225Y103545D02*
X87325D01*
X79225Y103625D02*
X87325D01*
X79225Y103705D02*
X87355D01*
X79225Y103785D02*
X87435D01*
X80975Y101425D02*
Y108525D01*
X81055Y101425D02*
Y108605D01*
X81135Y101425D02*
Y108685D01*
X81215Y101425D02*
Y108765D01*
X81295Y101425D02*
Y108845D01*
X81375Y101425D02*
Y108925D01*
X81455Y101425D02*
Y109005D01*
X81535Y101425D02*
Y109085D01*
X81615Y101425D02*
Y109165D01*
X81695Y101425D02*
Y109245D01*
X81775Y101425D02*
Y109325D01*
X81855Y101425D02*
Y109405D01*
X81935Y101425D02*
Y109485D01*
X82015Y101425D02*
Y109565D01*
X82095Y101425D02*
Y109645D01*
X82175Y101425D02*
Y109725D01*
X82255Y101425D02*
Y109805D01*
X82335Y101425D02*
Y109885D01*
X82415Y101425D02*
Y109965D01*
X82495Y101425D02*
Y110045D01*
X82575Y101425D02*
Y110125D01*
X82655Y101425D02*
Y110205D01*
X82735Y101425D02*
Y110285D01*
X82815Y101425D02*
Y110365D01*
X82895Y101425D02*
Y110445D01*
X82975Y101425D02*
Y110525D01*
X83055Y101425D02*
Y110605D01*
X83135Y101425D02*
Y110685D01*
X83215Y101425D02*
Y110765D01*
X83295Y101425D02*
Y110825D01*
X83375Y101425D02*
Y110825D01*
X83455Y101425D02*
Y110825D01*
X83535Y101425D02*
Y110825D01*
X87125Y101425D02*
X87325Y101625D01*
Y103675D01*
X87475Y103825D01*
X88775Y101625D02*
X88925Y101475D01*
X87475Y103825D02*
X88625D01*
X88775Y101625D02*
Y103675D01*
X83615Y101425D02*
Y110825D01*
X83695Y101425D02*
Y110825D01*
X83775Y101425D02*
Y110825D01*
X83855Y101425D02*
Y110825D01*
X83935Y101425D02*
Y110825D01*
X88625Y103825D02*
X88775Y103675D01*
X84015Y101425D02*
Y110825D01*
X84095Y101425D02*
Y110825D01*
X84175Y101425D02*
Y110825D01*
X84255Y101425D02*
Y110825D01*
X84335Y101425D02*
Y110825D01*
X84415Y101425D02*
Y110825D01*
X84495Y101425D02*
Y110825D01*
X84575Y101425D02*
Y110825D01*
X84655Y101425D02*
Y110825D01*
X84735Y101425D02*
Y110825D01*
X84815Y101425D02*
Y110825D01*
X84895Y101425D02*
Y110825D01*
X84975Y101425D02*
Y110825D01*
X85055Y101425D02*
Y110825D01*
X85135Y101425D02*
Y110825D01*
X85215Y101425D02*
Y110825D01*
X85295Y101425D02*
Y110825D01*
X85375Y101425D02*
Y110825D01*
X85455Y101425D02*
Y110825D01*
X85535Y101425D02*
Y110825D01*
X85615Y101425D02*
Y110825D01*
X85695Y101425D02*
Y110825D01*
X85775Y101425D02*
Y110825D01*
X85855Y101425D02*
Y110825D01*
X85935Y101425D02*
Y110825D01*
X86015Y101425D02*
Y110825D01*
X86095Y101425D02*
Y110825D01*
X86175Y101425D02*
Y110825D01*
X86255Y101425D02*
Y110825D01*
X86335Y101425D02*
Y110825D01*
X86415Y101425D02*
Y110825D01*
X86495Y101425D02*
Y110825D01*
X86575Y101425D02*
Y110825D01*
X86655Y101425D02*
Y110825D01*
X86735Y101425D02*
Y110825D01*
X86815Y101425D02*
Y110825D01*
X86895Y101425D02*
Y110825D01*
X86975Y101425D02*
Y110825D01*
X87055Y101425D02*
Y110825D01*
X87135Y101435D02*
Y110825D01*
X87215Y101515D02*
Y110825D01*
X87295Y101595D02*
Y110825D01*
X87375Y103725D02*
Y110825D01*
X87455Y103805D02*
Y110825D01*
X87535Y103825D02*
Y110825D01*
X88975Y101475D02*
Y110825D01*
X89055Y101475D02*
Y110825D01*
X89135Y101475D02*
Y110825D01*
X89215Y101475D02*
Y110825D01*
X89295Y101475D02*
Y110825D01*
X89375Y101475D02*
Y110825D01*
X89455Y101475D02*
Y110825D01*
X89535Y101475D02*
Y110825D01*
X89615Y101475D02*
Y110825D01*
X89695Y101475D02*
Y110825D01*
X89775Y101475D02*
Y110825D01*
X89855Y101475D02*
Y110825D01*
X89935Y101475D02*
Y110825D01*
X90015Y101475D02*
Y110825D01*
X90095Y101475D02*
Y110825D01*
X90175Y101475D02*
Y110825D01*
X90255Y101475D02*
Y110825D01*
X90335Y101475D02*
Y110825D01*
X90415Y101475D02*
Y110825D01*
X90495Y101475D02*
Y110825D01*
X90575Y101475D02*
Y110825D01*
X90655Y101475D02*
Y110825D01*
X87615Y103825D02*
Y110825D01*
X87695Y103825D02*
Y110825D01*
X87775Y103825D02*
Y110825D01*
X87855Y103825D02*
Y110825D01*
X87935Y103825D02*
Y110825D01*
X88015Y103825D02*
Y110825D01*
X88095Y103825D02*
Y110825D01*
X88175Y103825D02*
Y110825D01*
X88255Y103825D02*
Y110825D01*
X88335Y103825D02*
Y110825D01*
X88415Y103825D02*
Y110825D01*
X88655Y103795D02*
Y110825D01*
X88495Y103825D02*
Y110825D01*
X88575Y103825D02*
Y110825D01*
X88895Y101505D02*
Y110825D01*
X88735Y103715D02*
Y110825D01*
X88815Y101585D02*
Y110825D01*
X90735Y101475D02*
Y110825D01*
X90815Y101475D02*
Y110825D01*
X90895Y101475D02*
Y110825D01*
X90975Y101475D02*
Y110825D01*
X91055Y101475D02*
Y110825D01*
X91135Y101475D02*
Y110825D01*
X79225Y103865D02*
X99665D01*
X79225Y103945D02*
X104725D01*
X79225Y104025D02*
X104725D01*
X79225Y104105D02*
X104725D01*
X79225Y104185D02*
X104725D01*
X79225Y104265D02*
X104725D01*
X79225Y104345D02*
X104725D01*
X79225Y104425D02*
X104725D01*
X79225Y104505D02*
X104725D01*
X79225Y104585D02*
X104725D01*
X79225Y104665D02*
X104725D01*
X79225Y104745D02*
X104725D01*
X79225Y104825D02*
X104725D01*
X79225Y104905D02*
X104755D01*
X79225Y104985D02*
X104835D01*
X79225Y105065D02*
X104915D01*
X79225Y105145D02*
X104995D01*
X79225Y105225D02*
X105075D01*
X79225Y105305D02*
X127425D01*
X79225Y105385D02*
X127425D01*
X79225Y105465D02*
X127425D01*
X79225Y105545D02*
X127425D01*
X79225Y105625D02*
X127425D01*
X79225Y105705D02*
X127425D01*
X79225Y105785D02*
X127425D01*
X79225Y105865D02*
X127425D01*
X79225Y105945D02*
X127425D01*
X79225Y106025D02*
X127425D01*
X79225Y106105D02*
X127425D01*
X79225Y106185D02*
X127425D01*
X79225Y106265D02*
X127425D01*
X79225Y106345D02*
X127425D01*
X79225Y106425D02*
X127425D01*
X79225Y106505D02*
X127425D01*
X79225Y106585D02*
X127425D01*
X79225Y106665D02*
X127425D01*
X79225Y106745D02*
X127425D01*
X79275Y106825D02*
X127425D01*
X79355Y106905D02*
X127425D01*
X79435Y106985D02*
X127425D01*
X79515Y107065D02*
X127425D01*
X79595Y107145D02*
X127425D01*
X79675Y107225D02*
X127425D01*
X79755Y107305D02*
X127425D01*
X88775Y101625D02*
X99475D01*
X88775Y101705D02*
X99525D01*
X88925Y101475D02*
X99325D01*
X88855Y101545D02*
X99395D01*
X88775Y101785D02*
X99525D01*
X88775Y101865D02*
X99525D01*
X88775Y101945D02*
X99525D01*
X88775Y102025D02*
X99525D01*
X88775Y102105D02*
X99525D01*
X88775Y102185D02*
X99525D01*
X88775Y102265D02*
X99525D01*
X88775Y102345D02*
X99525D01*
X88775Y102425D02*
X99525D01*
X88775Y102505D02*
X99525D01*
X88775Y102585D02*
X99525D01*
X88775Y102665D02*
X99525D01*
X88775Y102745D02*
X99525D01*
X88775Y102825D02*
X99525D01*
X88775Y102905D02*
X99525D01*
X88775Y102985D02*
X99525D01*
X88775Y103065D02*
X99525D01*
X88775Y103145D02*
X99525D01*
X88775Y103225D02*
X99525D01*
X88775Y103305D02*
X99525D01*
X88775Y103385D02*
X99525D01*
X88775Y103465D02*
X99525D01*
X88775Y103545D02*
X99525D01*
X80795Y108345D02*
X104255D01*
X80955Y108505D02*
X104095D01*
X80875Y108425D02*
X104175D01*
X88775Y103625D02*
X99525D01*
X88745Y103705D02*
X99525D01*
X88665Y103785D02*
X99585D01*
X79835Y107385D02*
X105215D01*
X79995Y107545D02*
X105055D01*
X79915Y107465D02*
X105135D01*
X80075Y107625D02*
X104975D01*
X80235Y107785D02*
X104815D01*
X80155Y107705D02*
X104895D01*
X80315Y107865D02*
X104735D01*
X80475Y108025D02*
X104575D01*
X80395Y107945D02*
X104655D01*
X80555Y108105D02*
X104495D01*
X80715Y108265D02*
X104335D01*
X80635Y108185D02*
X104415D01*
X91215Y101475D02*
Y110825D01*
X91295Y101475D02*
Y110825D01*
X91375Y101475D02*
Y110825D01*
X91455Y101475D02*
Y110825D01*
X91535Y101475D02*
Y110825D01*
X91615Y101475D02*
Y110825D01*
X91695Y101475D02*
Y110825D01*
X91775Y101475D02*
Y110825D01*
X91855Y101475D02*
Y110825D01*
X91935Y101475D02*
Y110825D01*
X92015Y101475D02*
Y110825D01*
X81035Y108585D02*
X104015D01*
X81115Y108665D02*
X103935D01*
X81195Y108745D02*
X103855D01*
X81355Y108905D02*
X103695D01*
X81275Y108825D02*
X103775D01*
X92095Y101475D02*
Y110825D01*
X92175Y101475D02*
Y110825D01*
X81435Y108985D02*
X103615D01*
X92255Y101475D02*
Y110825D01*
X92335Y101475D02*
Y110825D01*
X92415Y101475D02*
Y110825D01*
X82475Y110025D02*
X102575D01*
X82555Y110105D02*
X102495D01*
X82635Y110185D02*
X102415D01*
X82795Y110345D02*
X102255D01*
X82715Y110265D02*
X102335D01*
X82875Y110425D02*
X102175D01*
X83035Y110585D02*
X102015D01*
X82955Y110505D02*
X102095D01*
X83115Y110665D02*
X101935D01*
X83275Y110825D02*
X101775D01*
X83195Y110745D02*
X101855D01*
X81515Y109065D02*
X103535D01*
X81675Y109225D02*
X103375D01*
X81595Y109145D02*
X103455D01*
X81755Y109305D02*
X103295D01*
X81915Y109465D02*
X103135D01*
X81835Y109385D02*
X103215D01*
X81995Y109545D02*
X103055D01*
X82155Y109705D02*
X102895D01*
X82075Y109625D02*
X102975D01*
X82235Y109785D02*
X102815D01*
X82395Y109945D02*
X102655D01*
X82315Y109865D02*
X102735D01*
X92495Y101475D02*
Y110825D01*
X92575Y101475D02*
Y110825D01*
X92655Y101475D02*
Y110825D01*
X92735Y101475D02*
Y110825D01*
X92815Y101475D02*
Y110825D01*
X92895Y101475D02*
Y110825D01*
X92975Y101475D02*
Y110825D01*
X93055Y101475D02*
Y110825D01*
X93135Y101475D02*
Y110825D01*
X93215Y101475D02*
Y110825D01*
X93295Y101475D02*
Y110825D01*
X93375Y101475D02*
Y110825D01*
X93455Y101475D02*
Y110825D01*
X93535Y101475D02*
Y110825D01*
X93615Y101475D02*
Y110825D01*
X93695Y101475D02*
Y110825D01*
X93775Y101475D02*
Y110825D01*
X93855Y101475D02*
Y110825D01*
X93935Y101475D02*
Y110825D01*
X94015Y101475D02*
Y110825D01*
X94095Y101475D02*
Y110825D01*
X94175Y101475D02*
Y110825D01*
X94255Y101475D02*
Y110825D01*
X94335Y101475D02*
Y110825D01*
X94415Y101475D02*
Y110825D01*
X94495Y101475D02*
Y110825D01*
X94575Y101475D02*
Y110825D01*
X94655Y101475D02*
Y110825D01*
X94735Y101475D02*
Y110825D01*
X94815Y101475D02*
Y110825D01*
X94895Y101475D02*
Y110825D01*
X94975Y101475D02*
Y110825D01*
X95055Y101475D02*
Y110825D01*
X95135Y101475D02*
Y110825D01*
X95215Y101475D02*
Y110825D01*
X95295Y101475D02*
Y110825D01*
X95375Y101475D02*
Y110825D01*
X95455Y101475D02*
Y110825D01*
X95535Y101475D02*
Y110825D01*
X95615Y101475D02*
Y110825D01*
X95695Y101475D02*
Y110825D01*
X95775Y101475D02*
Y110825D01*
X95855Y101475D02*
Y110825D01*
X95935Y101475D02*
Y110825D01*
X96015Y101475D02*
Y110825D01*
X96095Y95775D02*
Y100075D01*
X96175Y95775D02*
Y100075D01*
X96255Y95775D02*
Y100075D01*
X96335Y95775D02*
Y100075D01*
X96415Y95775D02*
Y100075D01*
X96495Y95775D02*
Y100075D01*
X96575Y95775D02*
Y100075D01*
X96655Y95775D02*
Y100075D01*
X96735Y95775D02*
Y100075D01*
X96815Y95775D02*
Y100075D01*
X96895Y95775D02*
Y100075D01*
X96975Y95775D02*
Y100075D01*
X97055Y95775D02*
Y100075D01*
X97135Y95775D02*
Y100075D01*
X97215Y95775D02*
Y100075D01*
X97295Y95775D02*
Y100075D01*
X97375Y95775D02*
Y100075D01*
X97455Y95775D02*
Y100075D01*
X97535Y95775D02*
Y100075D01*
X97615Y95775D02*
Y100075D01*
X97695Y95775D02*
Y100075D01*
X97775Y95775D02*
Y100075D01*
X97855Y95775D02*
Y100075D01*
X96075Y96475D02*
Y97925D01*
X97935Y95775D02*
Y100075D01*
X98015Y95775D02*
Y100075D01*
X98095Y95775D02*
Y100075D01*
X98175Y95775D02*
Y100075D01*
X98255Y95775D02*
Y100075D01*
X98335Y95775D02*
Y100075D01*
X98415Y95775D02*
Y100075D01*
X98495Y95775D02*
Y100075D01*
X98575Y95775D02*
Y100075D01*
X98655Y95775D02*
Y100075D01*
X98735Y95775D02*
Y100075D01*
X98815Y95775D02*
Y100075D01*
X98895Y95775D02*
Y100075D01*
X98975Y95775D02*
Y100075D01*
X99055Y95775D02*
Y100075D01*
X99135Y95775D02*
Y100075D01*
X99215Y95775D02*
Y100075D01*
X99295Y95775D02*
Y100075D01*
X99375Y95775D02*
Y100075D01*
X99325Y101475D02*
X99525Y101675D01*
X99455Y95775D02*
Y100075D01*
X99535Y95775D02*
Y100075D01*
X99615Y95775D02*
Y100075D01*
X99695Y95775D02*
Y100075D01*
X99775Y95775D02*
Y100075D01*
X99855Y95775D02*
Y100075D01*
X99935Y95775D02*
Y100075D01*
X100015Y95775D02*
Y100075D01*
X100095Y95775D02*
Y100075D01*
X100175Y95775D02*
Y100075D01*
X100255Y95775D02*
Y100075D01*
X100335Y95775D02*
Y100075D01*
X100415Y95775D02*
Y100075D01*
X100495Y95775D02*
Y100075D01*
X100575Y95775D02*
Y100075D01*
X100655Y95775D02*
Y100075D01*
X100735Y95775D02*
Y100135D01*
X100815Y95775D02*
Y100215D01*
X104575Y95775D02*
Y108025D01*
X104655Y95775D02*
Y107945D01*
X104735Y95775D02*
Y102365D01*
X104815Y95775D02*
Y102285D01*
X100675Y100075D02*
X100875Y100275D01*
Y102425D02*
X104725D01*
X100875Y102505D02*
X104725D01*
X100875Y102585D02*
X104725D01*
X100875Y102665D02*
X104725D01*
X99525Y101675D02*
Y103725D01*
X100875Y102745D02*
X104725D01*
X100875Y102825D02*
X104725D01*
X100875Y100275D02*
Y103675D01*
X104725Y102375D02*
Y104875D01*
X100875Y102905D02*
X104725D01*
X100875Y102265D02*
X104835D01*
X100875Y102985D02*
X104725D01*
X100875Y102345D02*
X104755D01*
X104895Y95775D02*
Y102205D01*
X100875Y103065D02*
X104725D01*
X100875Y103145D02*
X104725D01*
X100875Y103225D02*
X104725D01*
X100875Y103305D02*
X104725D01*
X100875Y103385D02*
X104725D01*
X100875Y103465D02*
X104725D01*
X100875Y103545D02*
X104725D01*
X100875Y103625D02*
X104725D01*
X96095Y101475D02*
Y110825D01*
X96175Y101475D02*
Y110825D01*
X96255Y101475D02*
Y110825D01*
X96335Y101475D02*
Y110825D01*
X96415Y101475D02*
Y110825D01*
X96495Y101475D02*
Y110825D01*
X96575Y101475D02*
Y110825D01*
X96655Y101475D02*
Y110825D01*
X96735Y101475D02*
Y110825D01*
X96815Y101475D02*
Y110825D01*
X96895Y101475D02*
Y110825D01*
X96975Y101475D02*
Y110825D01*
X97055Y101475D02*
Y110825D01*
X97135Y101475D02*
Y110825D01*
X97215Y101475D02*
Y110825D01*
X97295Y101475D02*
Y110825D01*
X97375Y101475D02*
Y110825D01*
X97455Y101475D02*
Y110825D01*
X97535Y101475D02*
Y110825D01*
X100895Y95775D02*
Y110825D01*
X97615Y101475D02*
Y110825D01*
X97695Y101475D02*
Y110825D01*
X97775Y101475D02*
Y110825D01*
X97855Y101475D02*
Y110825D01*
X97935Y101475D02*
Y110825D01*
X98015Y101475D02*
Y110825D01*
X98095Y101475D02*
Y110825D01*
X98175Y101475D02*
Y110825D01*
X98255Y101475D02*
Y110825D01*
X98335Y101475D02*
Y110825D01*
X98415Y101475D02*
Y110825D01*
X98495Y101475D02*
Y110825D01*
X98575Y101475D02*
Y110825D01*
X98655Y101475D02*
Y110825D01*
X98735Y101475D02*
Y110825D01*
X98815Y101475D02*
Y110825D01*
X98895Y101475D02*
Y110825D01*
X98975Y101475D02*
Y110825D01*
X99055Y101475D02*
Y110825D01*
X99135Y101475D02*
Y110825D01*
X99215Y101475D02*
Y110825D01*
X99295Y101475D02*
Y110825D01*
X99375Y101525D02*
Y110825D01*
X99455Y101605D02*
Y110825D01*
X100975Y95775D02*
Y110825D01*
X101055Y95775D02*
Y110825D01*
X101135Y95775D02*
Y110825D01*
X101215Y95775D02*
Y110825D01*
X101295Y95775D02*
Y110825D01*
X101375Y95775D02*
Y110825D01*
X101455Y95775D02*
Y110825D01*
X101535Y95775D02*
Y110825D01*
X101615Y95775D02*
Y110825D01*
X101695Y95775D02*
Y110825D01*
X101775Y95775D02*
Y110825D01*
X102335Y95775D02*
Y110265D01*
X102415Y95775D02*
Y110185D01*
X102495Y95775D02*
Y110105D01*
X102575Y95775D02*
Y110025D01*
X102655Y95775D02*
Y109945D01*
X101855Y95775D02*
Y110745D01*
X101935Y95775D02*
Y110665D01*
X102015Y95775D02*
Y110585D01*
X102095Y95775D02*
Y110505D01*
X102175Y95775D02*
Y110425D01*
X102255Y95775D02*
Y110345D01*
X103215Y95775D02*
Y109385D01*
X103295Y95775D02*
Y109305D01*
X103375Y95775D02*
Y109225D01*
X103455Y95775D02*
Y109145D01*
X103535Y95775D02*
Y109065D01*
X102735Y95775D02*
Y109865D01*
X102815Y95775D02*
Y109785D01*
X102895Y95775D02*
Y109705D01*
X102975Y95775D02*
Y109625D01*
X103055Y95775D02*
Y109545D01*
X103135Y95775D02*
Y109465D01*
X104095Y95775D02*
Y108505D01*
X104175Y95775D02*
Y108425D01*
X104255Y95775D02*
Y108345D01*
X104335Y95775D02*
Y108265D01*
X104415Y95775D02*
Y108185D01*
X104495Y95775D02*
Y108105D01*
X103615Y95775D02*
Y108985D01*
X103695Y95775D02*
Y108905D01*
X103775Y95775D02*
Y108825D01*
X103855Y95775D02*
Y108745D01*
X103935Y95775D02*
Y108665D01*
X104015Y95775D02*
Y108585D01*
X105875Y95775D02*
X106025Y95925D01*
X125675Y96225D02*
X126975D01*
X125775D02*
Y96325D01*
X125715Y96265D02*
X127425D01*
X125795Y96345D02*
X127425D01*
X96075Y97065D02*
X106025D01*
X96075Y97145D02*
X106025D01*
X96075Y97225D02*
X106025D01*
X125675Y96225D02*
X125975Y96525D01*
X125855Y96225D02*
Y96405D01*
X125935Y96225D02*
Y96485D01*
X125875Y96425D02*
X127425D01*
X125955Y96505D02*
X127425D01*
X125975Y96585D02*
X127425D01*
X125975Y96665D02*
X127425D01*
X125975Y96745D02*
X127425D01*
X125975Y96825D02*
X127425D01*
X125975Y96905D02*
X127425D01*
X125975Y96985D02*
X127425D01*
X125975Y97065D02*
X127425D01*
X125975Y97145D02*
X127425D01*
X125975Y97225D02*
X127425D01*
X96075Y97305D02*
X106025D01*
X96075Y97385D02*
X106025D01*
X96075Y97465D02*
X106025D01*
X96075Y97545D02*
X106025D01*
X96075Y97625D02*
X106025D01*
X96075Y97705D02*
X106025D01*
X96075Y97785D02*
X106025D01*
X96075Y97865D02*
X106025D01*
X100705Y100105D02*
X106025D01*
X100785Y100185D02*
X106025D01*
X100865Y100265D02*
X106025D01*
X125975Y97305D02*
X127425D01*
X125975Y97385D02*
X127425D01*
X125975Y97465D02*
X127425D01*
X125975Y97545D02*
X127425D01*
X125975Y97625D02*
X127425D01*
X100875Y100345D02*
X106025D01*
X100875Y100425D02*
X106025D01*
X100875Y100505D02*
X106025D01*
X100875Y100585D02*
X106025D01*
X100875Y100665D02*
X106025D01*
X100875Y100745D02*
X106025D01*
X127095Y96105D02*
X127425D01*
X127015Y96185D02*
X127425D01*
X127335Y95865D02*
X127425D01*
X127255Y95945D02*
X127425D01*
X127175Y96025D02*
X127425D01*
X125975Y97705D02*
X127425D01*
X125975Y97785D02*
X127425D01*
X125975Y97865D02*
X127425D01*
X126975Y96225D02*
X127425Y95775D01*
X125975Y97945D02*
X127425D01*
X125975Y98025D02*
X127425D01*
X125975Y98105D02*
X127425D01*
X125975Y98185D02*
X127425D01*
X125975Y98265D02*
X127425D01*
X125975Y98345D02*
X127425D01*
X125975Y98425D02*
X127425D01*
X125975Y98505D02*
X127425D01*
X125975Y98585D02*
X127425D01*
X125975Y98665D02*
X127425D01*
X125975Y98745D02*
X127425D01*
X125975Y98825D02*
X127425D01*
X125975Y98905D02*
X127425D01*
X125975Y98985D02*
X127425D01*
X125975Y99065D02*
X127425D01*
X125975Y99145D02*
X127425D01*
X125975Y99225D02*
X127425D01*
X125975Y99305D02*
X127425D01*
X125975Y99385D02*
X127425D01*
X125975Y99465D02*
X127425D01*
X125975Y99545D02*
X127425D01*
X125975Y99625D02*
X127425D01*
X125975Y99705D02*
X127425D01*
X125975Y99785D02*
X127425D01*
X125975Y99865D02*
X127425D01*
X125975Y99945D02*
X127425D01*
X125975Y100025D02*
X127425D01*
X125975Y100105D02*
X127425D01*
X125975Y100185D02*
X127425D01*
X125975Y100265D02*
X127425D01*
X125975Y100345D02*
X127425D01*
X125975Y100425D02*
X127425D01*
X125975Y100505D02*
X127425D01*
X125975Y100585D02*
X127425D01*
X125975Y100665D02*
X127425D01*
X125975Y100745D02*
X127425D01*
X105455Y95775D02*
Y101645D01*
X105535Y95775D02*
Y101565D01*
X105615Y95775D02*
Y101485D01*
X105695Y95775D02*
Y101405D01*
X105775Y95775D02*
Y101325D01*
X104975Y95775D02*
Y102125D01*
X105055Y95775D02*
Y102045D01*
X105135Y95775D02*
Y101965D01*
X105215Y95775D02*
Y101885D01*
X105295Y95775D02*
Y101805D01*
X105375Y95775D02*
Y101725D01*
X100875Y100825D02*
X106025D01*
X100875Y100905D02*
X106025D01*
X125975Y100825D02*
X127425D01*
X100875Y100985D02*
X106025D01*
X125975Y100905D02*
X127425D01*
X105855Y95775D02*
Y101245D01*
X105935Y95835D02*
Y101165D01*
X100875Y101065D02*
X106025D01*
X106015Y95915D02*
Y101085D01*
X106025Y95925D02*
Y101075D01*
X125975Y100985D02*
X127425D01*
X100875Y101385D02*
X105715D01*
X100875Y101465D02*
X105635D01*
X100875Y101545D02*
X105555D01*
X100875Y101705D02*
X105395D01*
X100875Y101625D02*
X105475D01*
X100875Y101785D02*
X105315D01*
X100875Y101945D02*
X105155D01*
X100875Y101865D02*
X105235D01*
X100875Y102025D02*
X105075D01*
X100875Y102185D02*
X104915D01*
X100875Y102105D02*
X104995D01*
X100875Y101145D02*
X105955D01*
X100875Y101305D02*
X105795D01*
X100875Y101225D02*
X105875D01*
X125975Y101065D02*
X127425D01*
X125975Y101145D02*
X127425D01*
X125975Y101225D02*
X127425D01*
X104725Y102375D02*
X106025Y101075D01*
X125975Y101305D02*
X127425D01*
X125975Y101385D02*
X127425D01*
X125975Y101465D02*
X127425D01*
X125975Y101545D02*
X127425D01*
X125975Y101625D02*
X127425D01*
X126015Y96225D02*
Y109325D01*
X125975Y96525D02*
Y103975D01*
X126095Y96225D02*
Y109325D01*
X126175Y96225D02*
Y109325D01*
X126255Y96225D02*
Y109325D01*
X126335Y96225D02*
Y109325D01*
X126415Y96225D02*
Y109325D01*
X126495Y96225D02*
Y109325D01*
X126575Y96225D02*
Y109325D01*
X126655Y96225D02*
Y109325D01*
X126735Y96225D02*
Y109325D01*
X125975Y101705D02*
X127425D01*
X125975Y101785D02*
X127425D01*
X126815Y96225D02*
Y109325D01*
X126895Y96225D02*
Y109325D01*
X126975Y96225D02*
Y109325D01*
X127215Y95985D02*
Y109325D01*
X127055Y96145D02*
Y109325D01*
X127135Y96065D02*
Y109325D01*
X127425Y95775D02*
Y109325D01*
X127295Y95905D02*
Y109325D01*
X127375Y95825D02*
Y109325D01*
X125975Y101865D02*
X127425D01*
X125975Y101945D02*
X127425D01*
X125975Y102025D02*
X127425D01*
X125975Y102105D02*
X127425D01*
X125975Y102185D02*
X127425D01*
X125975Y102265D02*
X127425D01*
X125975Y102345D02*
X127425D01*
X125975Y102425D02*
X127425D01*
X125975Y102505D02*
X127425D01*
X125975Y102585D02*
X127425D01*
X125975Y102665D02*
X127425D01*
X125975Y102745D02*
X127425D01*
X125975Y102825D02*
X127425D01*
X125975Y102905D02*
X127425D01*
X125975Y102985D02*
X127425D01*
X125975Y103065D02*
X127425D01*
X125975Y103145D02*
X127425D01*
X125975Y103225D02*
X127425D01*
X125975Y103305D02*
X127425D01*
X125975Y103385D02*
X127425D01*
X125975Y103465D02*
X127425D01*
X125975Y103545D02*
X127425D01*
X125975Y103625D02*
X127425D01*
X99525Y103725D02*
X99725Y103925D01*
X100625D01*
X100845Y103705D02*
X104725D01*
X100765Y103785D02*
X104725D01*
X100685Y103865D02*
X104725D01*
X100625Y103925D02*
X100875Y103675D01*
X104725Y104875D02*
X105125Y105275D01*
X105295D02*
Y107325D01*
X105375Y105275D02*
Y107325D01*
X105455Y105275D02*
Y107325D01*
X105535Y105275D02*
Y107325D01*
X105615Y105275D02*
Y107325D01*
X105695Y105275D02*
Y107325D01*
X105775Y105275D02*
Y107325D01*
X105855Y105275D02*
Y107325D01*
X105935Y105275D02*
Y107325D01*
X106015Y105275D02*
Y107325D01*
X106095Y105275D02*
Y107325D01*
X106175Y105275D02*
Y107325D01*
X106255Y105275D02*
Y107325D01*
X106335Y105275D02*
Y107325D01*
X106415Y105275D02*
Y107325D01*
X106495Y105275D02*
Y107325D01*
X106575Y105275D02*
Y107325D01*
X106655Y105275D02*
Y107325D01*
X106735Y105275D02*
Y107325D01*
X106815Y105275D02*
Y107325D01*
X106895Y105275D02*
Y107325D01*
X106975Y105275D02*
Y107325D01*
X107055Y105275D02*
Y107325D01*
X107135Y105275D02*
Y107325D01*
X107215Y105275D02*
Y107325D01*
X107295Y105275D02*
Y107325D01*
X107375Y105275D02*
Y107325D01*
X107455Y105275D02*
Y107325D01*
X107535Y105275D02*
Y107325D01*
X107615Y105275D02*
Y107325D01*
X107695Y105275D02*
Y107325D01*
X107775Y105275D02*
Y107325D01*
X107855Y105275D02*
Y107325D01*
X107935Y105275D02*
Y107325D01*
X108015Y105275D02*
Y107325D01*
X108095Y105275D02*
Y107325D01*
X108175Y105275D02*
Y107325D01*
X108255Y105275D02*
Y107325D01*
X108335Y105275D02*
Y107325D01*
X108415Y105275D02*
Y107325D01*
X108495Y105275D02*
Y107325D01*
X108575Y105275D02*
Y107325D01*
X108655Y105275D02*
Y107325D01*
X108735Y105275D02*
Y107325D01*
X108815Y105275D02*
Y107325D01*
X108895Y105275D02*
Y107325D01*
X108975Y105275D02*
Y107325D01*
X109055Y105275D02*
Y107325D01*
X109135Y105275D02*
Y107325D01*
X109215Y105275D02*
Y107325D01*
X109295Y105275D02*
Y107325D01*
X109375Y105275D02*
Y107325D01*
X109455Y105275D02*
Y107325D01*
X109535Y105275D02*
Y107325D01*
X109615Y105275D02*
Y107325D01*
X109695Y105275D02*
Y107325D01*
X109775Y105275D02*
Y107325D01*
X109855Y105275D02*
Y107325D01*
X109935Y105275D02*
Y107325D01*
X110015Y105275D02*
Y107325D01*
X110095Y105275D02*
Y107325D01*
X110175Y105275D02*
Y107325D01*
X110255Y105275D02*
Y107325D01*
X110335Y105275D02*
Y107325D01*
X110415Y105275D02*
Y107325D01*
X110495Y105275D02*
Y107325D01*
X110575Y105275D02*
Y107325D01*
X110655Y105275D02*
Y107325D01*
X110735Y105275D02*
Y107325D01*
X110815Y105275D02*
Y107325D01*
X110895Y105275D02*
Y107325D01*
X110975Y105275D02*
Y107325D01*
X111055Y105275D02*
Y107325D01*
X111135Y105275D02*
Y107325D01*
X111215Y105275D02*
Y107325D01*
X111295Y105275D02*
Y107325D01*
X111375Y105275D02*
Y107325D01*
X111455Y105275D02*
Y107325D01*
X111535Y105275D02*
Y107325D01*
X111615Y105275D02*
Y107325D01*
X111695Y105275D02*
Y107325D01*
X111775Y105275D02*
Y107325D01*
X99535Y103735D02*
Y110825D01*
X99615Y103815D02*
Y110825D01*
X99695Y103895D02*
Y110825D01*
X99775Y103925D02*
Y110825D01*
X99855Y103925D02*
Y110825D01*
X99935Y103925D02*
Y110825D01*
X100015Y103925D02*
Y110825D01*
X100095Y103925D02*
Y110825D01*
X100175Y103925D02*
Y110825D01*
X100255Y103925D02*
Y110825D01*
X100335Y103925D02*
Y110825D01*
X104735Y104885D02*
Y107865D01*
X104815Y104965D02*
Y107785D01*
X104895Y105045D02*
Y107705D01*
X104975Y105125D02*
Y107625D01*
X105055Y105205D02*
Y107545D01*
X100415Y103925D02*
Y110825D01*
X100495Y103925D02*
Y110825D01*
X100575Y103925D02*
Y110825D01*
X100815Y103735D02*
Y110825D01*
X100655Y103895D02*
Y110825D01*
X100735Y103815D02*
Y110825D01*
X111855Y105275D02*
Y107325D01*
X111935Y105275D02*
Y107325D01*
X112015Y105275D02*
Y107325D01*
X112095Y105275D02*
Y107325D01*
X112175Y105275D02*
Y107325D01*
X105135Y105275D02*
Y107465D01*
X105215Y105275D02*
Y107385D01*
X101775Y110825D02*
X105275Y107325D01*
X112255Y105275D02*
Y107325D01*
X112335Y105275D02*
Y107325D01*
X112415Y105275D02*
Y107325D01*
X112495Y105275D02*
Y107325D01*
X112575Y105275D02*
Y107325D01*
X112655Y105275D02*
Y107325D01*
X112735Y105275D02*
Y107325D01*
X112815Y105275D02*
Y107325D01*
X112895Y105275D02*
Y107325D01*
X112975Y105275D02*
Y107325D01*
X113055Y105275D02*
Y107325D01*
X113135Y105275D02*
Y107325D01*
X113215Y105275D02*
Y107325D01*
X113295Y105275D02*
Y107325D01*
X113375Y105275D02*
Y107325D01*
X113455Y105275D02*
Y107325D01*
X113535Y105275D02*
Y107325D01*
X113615Y105275D02*
Y107325D01*
X113695Y105275D02*
Y107325D01*
X113775Y105275D02*
Y107325D01*
X113855Y105275D02*
Y107325D01*
X113935Y105275D02*
Y107325D01*
X114015Y105275D02*
Y107325D01*
X114095Y105275D02*
Y107325D01*
X114175Y105275D02*
Y107325D01*
X114255Y105275D02*
Y107325D01*
X114335Y105275D02*
Y107325D01*
X114415Y105275D02*
Y107325D01*
X114495Y105275D02*
Y107325D01*
X114575Y105275D02*
Y107325D01*
X114655Y105275D02*
Y107325D01*
X114735Y105275D02*
Y107325D01*
X114815Y105275D02*
Y107325D01*
X114895Y105275D02*
Y107325D01*
X114975Y105275D02*
Y107325D01*
X115055Y105275D02*
Y107325D01*
X115135Y105275D02*
Y107325D01*
X115215Y105275D02*
Y107325D01*
X115295Y105275D02*
Y107325D01*
X115375Y105275D02*
Y107325D01*
X115455Y105275D02*
Y107325D01*
X115535Y105275D02*
Y107325D01*
X115615Y105275D02*
Y107325D01*
X115695Y105275D02*
Y107325D01*
X115775Y105275D02*
Y107325D01*
X115855Y105275D02*
Y107325D01*
X115935Y105275D02*
Y107325D01*
X116015Y105275D02*
Y107325D01*
X116095Y105275D02*
Y107325D01*
X116175Y105275D02*
Y107325D01*
X116255Y105275D02*
Y107325D01*
X116335Y105275D02*
Y107325D01*
X116415Y105275D02*
Y107325D01*
X116495Y105275D02*
Y107325D01*
X116575Y105275D02*
Y107325D01*
X116655Y105275D02*
Y107325D01*
X116735Y105275D02*
Y107325D01*
X116815Y105275D02*
Y107325D01*
X116895Y105275D02*
Y107325D01*
X116975Y105275D02*
Y107325D01*
X105125Y105275D02*
X118175D01*
X117055D02*
Y107325D01*
X117135Y105275D02*
Y107325D01*
X117215Y105275D02*
Y107325D01*
X117295Y105275D02*
Y107325D01*
X118415Y105035D02*
Y107615D01*
X118255Y105195D02*
Y107455D01*
X118335Y105115D02*
Y107535D01*
X118655Y104795D02*
Y107855D01*
X118495Y104955D02*
Y107695D01*
X118575Y104875D02*
Y107775D01*
X118545Y104905D02*
X120205D01*
X118465Y104985D02*
X127425D01*
X118785Y104665D02*
X119965D01*
X118705Y104745D02*
X120045D01*
X118625Y104825D02*
X120125D01*
X118175Y105275D02*
X119375Y104075D01*
X118305Y105145D02*
X127425D01*
X118225Y105225D02*
X127425D01*
X118815Y104635D02*
Y108015D01*
X118735Y104715D02*
Y107935D01*
X118385Y105065D02*
X127425D01*
X117375Y105275D02*
Y107325D01*
X117455Y105275D02*
Y107325D01*
X117535Y105275D02*
Y107325D01*
X117615Y105275D02*
Y107325D01*
X117695Y105275D02*
Y107325D01*
X117775Y105275D02*
Y107325D01*
X117855Y105275D02*
Y107325D01*
X105275D02*
X118125D01*
X117935Y105275D02*
Y107325D01*
X118015Y105275D02*
Y107325D01*
X118095Y105275D02*
Y107325D01*
X118175Y105275D02*
Y107375D01*
X118185Y107385D02*
X127425D01*
X118265Y107465D02*
X127425D01*
X118345Y107545D02*
X127425D01*
X118425Y107625D02*
X127425D01*
X118125Y107325D02*
X118875Y108075D01*
X118505Y107705D02*
X127425D01*
X118585Y107785D02*
X127425D01*
X118665Y107865D02*
X127425D01*
X118745Y107945D02*
X127425D01*
X118825Y108025D02*
X127425D01*
X119105Y104345D02*
X119645D01*
X119025Y104425D02*
X119725D01*
X119345Y104105D02*
X119405D01*
X119265Y104185D02*
X119485D01*
X119185Y104265D02*
X119565D01*
X118975Y104475D02*
Y109125D01*
X118895Y104555D02*
Y108095D01*
X118945Y104505D02*
X119805D01*
X124975Y104975D02*
X125975Y103975D01*
X119055Y104395D02*
Y109205D01*
X119375Y104075D02*
X120275Y104975D01*
X125975Y103705D02*
X127425D01*
X125925Y104025D02*
X127425D01*
X125975Y103785D02*
X127425D01*
X125975Y103865D02*
X127425D01*
X125975Y103945D02*
X127425D01*
X125605Y104345D02*
X127425D01*
X125525Y104425D02*
X127425D01*
X125445Y104505D02*
X127425D01*
X125845Y104105D02*
X127425D01*
X125765Y104185D02*
X127425D01*
X125685Y104265D02*
X127425D01*
X118865Y104585D02*
X119885D01*
X125125Y104825D02*
X127425D01*
X125365Y104585D02*
X127425D01*
X125285Y104665D02*
X127425D01*
X125205Y104745D02*
X127425D01*
X118875Y108075D02*
X118925Y108125D01*
X118905Y108105D02*
X127425D01*
X118925Y108185D02*
X127425D01*
X125045Y104905D02*
X127425D01*
X118925Y108125D02*
Y109075D01*
X120275Y104975D02*
X124975D01*
X118925Y108265D02*
X127425D01*
X118925Y108345D02*
X127425D01*
X118925Y108425D02*
X127425D01*
X118925Y108505D02*
X127425D01*
X118925Y108585D02*
X127425D01*
X118925Y108665D02*
X127425D01*
X118925Y108745D02*
X127425D01*
X118925Y108825D02*
X127425D01*
X118925Y108905D02*
X127425D01*
X118925Y108985D02*
X127425D01*
X118925Y109065D02*
X127425D01*
X118995Y109145D02*
X127425D01*
X119215Y104235D02*
Y109325D01*
X119135Y104315D02*
Y109285D01*
X119375Y104075D02*
Y109325D01*
X119295Y104155D02*
Y109325D01*
X119455Y104155D02*
Y109325D01*
X119535Y104235D02*
Y109325D01*
X119615Y104315D02*
Y109325D01*
X119695Y104395D02*
Y109325D01*
X119775Y104475D02*
Y109325D01*
X119855Y104555D02*
Y109325D01*
X119935Y104635D02*
Y109325D01*
X120015Y104715D02*
Y109325D01*
X120095Y104795D02*
Y109325D01*
X120175Y104875D02*
Y109325D01*
X120255Y104955D02*
Y109325D01*
X120335Y104975D02*
Y109325D01*
X120415Y104975D02*
Y109325D01*
X120495Y104975D02*
Y109325D01*
X120575Y104975D02*
Y109325D01*
X120655Y104975D02*
Y109325D01*
X120735Y104975D02*
Y109325D01*
X120815Y104975D02*
Y109325D01*
X120895Y104975D02*
Y109325D01*
X118925Y109075D02*
X119175Y109325D01*
X120975Y104975D02*
Y109325D01*
X121055Y104975D02*
Y109325D01*
X121135Y104975D02*
Y109325D01*
X121215Y104975D02*
Y109325D01*
X121295Y104975D02*
Y109325D01*
X121375Y104975D02*
Y109325D01*
X121455Y104975D02*
Y109325D01*
X121535Y104975D02*
Y109325D01*
X121615Y104975D02*
Y109325D01*
X121695Y104975D02*
Y109325D01*
X121775Y104975D02*
Y109325D01*
X119075Y109225D02*
X127425D01*
X121855Y104975D02*
Y109325D01*
X121935Y104975D02*
Y109325D01*
X122015Y104975D02*
Y109325D01*
X122095Y104975D02*
Y109325D01*
X119155Y109305D02*
X127425D01*
X119175Y109325D02*
X127425D01*
X122175Y104975D02*
Y109325D01*
X122255Y104975D02*
Y109325D01*
X122335Y104975D02*
Y109325D01*
X122415Y104975D02*
Y109325D01*
X122495Y104975D02*
Y109325D01*
X122575Y104975D02*
Y109325D01*
X122655Y104975D02*
Y109325D01*
X122735Y104975D02*
Y109325D01*
X122815Y104975D02*
Y109325D01*
X122895Y104975D02*
Y109325D01*
X122975Y104975D02*
Y109325D01*
X125055Y104895D02*
Y109325D01*
X123055Y104975D02*
Y109325D01*
X123135Y104975D02*
Y109325D01*
X125215Y104735D02*
Y109325D01*
X125135Y104815D02*
Y109325D01*
X125455Y104495D02*
Y109325D01*
X125295Y104655D02*
Y109325D01*
X125375Y104575D02*
Y109325D01*
X125695Y104255D02*
Y109325D01*
X125535Y104415D02*
Y109325D01*
X125615Y104335D02*
Y109325D01*
X125935Y104015D02*
Y109325D01*
X125775Y104175D02*
Y109325D01*
X125855Y104095D02*
Y109325D01*
X123215Y104975D02*
Y109325D01*
X123295Y104975D02*
Y109325D01*
X123375Y104975D02*
Y109325D01*
X123455Y104975D02*
Y109325D01*
X123535Y104975D02*
Y109325D01*
X123615Y104975D02*
Y109325D01*
X123695Y104975D02*
Y109325D01*
X123775Y104975D02*
Y109325D01*
X123855Y104975D02*
Y109325D01*
X123935Y104975D02*
Y109325D01*
X124015Y104975D02*
Y109325D01*
X124095Y104975D02*
Y109325D01*
X124175Y104975D02*
Y109325D01*
X124255Y104975D02*
Y109325D01*
X124335Y104975D02*
Y109325D01*
X124415Y104975D02*
Y109325D01*
X124495Y104975D02*
Y109325D01*
X124575Y104975D02*
Y109325D01*
X124655Y104975D02*
Y109325D01*
X124735Y104975D02*
Y109325D01*
X124815Y104975D02*
Y109325D01*
X124895Y104975D02*
Y109325D01*
X124975Y104975D02*
Y109325D01*
X117495Y55095D02*
Y55695D01*
X117695Y55495D01*
X117895Y55695D01*
Y55095D01*
X118095Y55695D02*
Y55095D01*
X118395D01*
X118495Y55195D01*
Y55295D01*
X118395Y55395D01*
X118095D01*
X118395D01*
X118495Y55495D01*
Y55595D01*
X118395Y55695D01*
X118095D01*
X118695D02*
Y55095D01*
Y55295D01*
X119094Y55695D01*
X118795Y55395D01*
X119094Y55095D01*
X123833Y55412D02*
X123433D01*
X123833Y55812D01*
Y55912D01*
X123733Y56012D01*
X123533D01*
X123433Y55912D01*
D63*
X125625Y96225D02*
X127425D01*
X119325Y99475D02*
X119975Y98825D01*
X124325Y96225D02*
X125625D01*
X119325Y99475D02*
Y101575D01*
Y103525D02*
Y104175D01*
X124125Y96025D02*
X124325Y96225D01*
X121675Y96025D02*
X124125D01*
X119975Y97725D02*
X121675Y96025D01*
X119975Y97725D02*
Y98825D01*
X125625Y96225D02*
X125975Y96575D01*
X119325Y104025D02*
X120275Y104975D01*
X124975D01*
X125975Y103975D01*
Y96575D02*
Y103975D01*
D68*
X125725Y114275D02*
X125823Y114285D01*
X125916Y114313D01*
X126003Y114359D01*
X126079Y114422D01*
X126141Y114497D01*
X126187Y114584D01*
X126215Y114678D01*
X126225Y114775D01*
X119075D02*
X119085Y114678D01*
X119113Y114584D01*
X119159Y114497D01*
X119221Y114422D01*
X119297Y114359D01*
X119384Y114313D01*
X119477Y114285D01*
X119575Y114275D01*
X95625Y98375D02*
X96125Y97875D01*
X81025Y98375D02*
X95625D01*
X96125Y96425D02*
Y97875D01*
X95625Y95925D02*
X96125Y96425D01*
X82825Y95925D02*
X95625D01*
X80575Y97925D02*
X81025Y98375D01*
X82175Y95275D02*
X82825Y95925D01*
X82175Y90025D02*
Y95275D01*
Y90025D02*
X82525Y89675D01*
Y78425D02*
Y89675D01*
X80575Y92975D02*
Y97925D01*
X80175Y92575D02*
X80575Y92975D01*
X79625Y92575D02*
X80175D01*
X79225Y92975D02*
Y96375D01*
X78875Y96725D02*
X79225Y96375D01*
X79525Y75425D02*
X82525Y78425D01*
X79225Y92975D02*
X79625Y92575D01*
X70825Y96725D02*
X78875D01*
X69975Y95875D02*
X70825Y96725D01*
X69975Y76575D02*
Y95875D01*
X79525Y72925D02*
Y75425D01*
X78825Y72225D02*
X79525Y72925D01*
X72275Y72225D02*
X78825D01*
X71775Y72725D02*
Y74775D01*
X69975Y76575D02*
X71775Y74775D01*
Y72725D02*
X72275Y72225D01*
X69875Y50625D02*
X127675D01*
X70275Y96175D02*
Y96725D01*
X79225Y96125D02*
Y97825D01*
X69986Y75486D02*
X71064D01*
X69925Y75675D02*
X70875D01*
X69875Y75925D02*
X70575D01*
X69875Y75086D02*
X70275Y75486D01*
X66975Y50625D02*
X68525D01*
Y96275D01*
X66975Y50625D02*
Y114775D01*
X68525Y96275D02*
X68975Y96725D01*
X78875D01*
X79225Y97075D01*
Y99875D01*
X79425Y100075D01*
X100625D01*
X79225Y101625D02*
X79425Y101425D01*
X87125D01*
X87325Y101625D01*
X79225D02*
Y106775D01*
X87325Y101625D02*
Y103675D01*
X79225Y106775D02*
X83275Y110825D01*
X87325Y103675D02*
X87525Y103875D01*
X88575D01*
X66975Y114775D02*
X129875D01*
X88575Y103875D02*
X88775Y103675D01*
X83275Y110825D02*
X101775D01*
X88775Y101625D02*
X88975Y101425D01*
X99275D01*
X88775Y101625D02*
Y103675D01*
X99275Y101425D02*
X99475Y101625D01*
Y103675D01*
X100625Y100075D02*
X100875Y100325D01*
X128325Y50625D02*
X129875D01*
X100875Y100325D02*
Y103675D01*
X128325Y50625D02*
Y109025D01*
X129875Y50625D02*
Y114775D01*
X99475Y103675D02*
X99675Y103875D01*
X100675D01*
X100875Y103675D01*
X101775Y110825D02*
X105275Y107325D01*
X118125D01*
X118925Y108125D01*
Y109125D01*
X119175Y109375D01*
X127975D02*
X128325Y109025D01*
X119175Y109375D02*
X127975D01*
X119575Y114275D02*
X125725D01*
D81*
X120174Y55837D02*
X120080Y55867D01*
X119982Y55878D01*
X119884Y55869D01*
X119790Y55839D01*
X119704Y55791D01*
X119630Y55727D01*
X119570Y55648D01*
X119527Y55559D01*
X119504Y55464D01*
X119500Y55365D01*
X119517Y55268D01*
X119554Y55177D01*
X119608Y55094D01*
X119678Y55025D01*
X119760Y54971D01*
X119852Y54935D01*
X119949Y54919D01*
X120048Y54923D01*
X120143Y54947D01*
X120232Y54990D01*
X120310Y55050D01*
X120295Y55395D02*
X120386Y55448D01*
Y55553D01*
X120295Y55605D01*
X120340Y55395D02*
X120431Y55448D01*
Y55553D01*
X120340Y55605D01*
D92*
X105525Y111425D02*
D03*
X80925Y80225D02*
D03*
X79275Y81525D02*
D03*
X90425Y80475D02*
D03*
X95525Y79125D02*
D03*
X90525Y79725D02*
D03*
X94925Y78725D02*
D03*
X96875Y70625D02*
D03*
X85275Y82225D02*
D03*
X123875Y78725D02*
D03*
X118280Y86530D02*
D03*
X120375Y91175D02*
D03*
X120275Y89425D02*
D03*
X120625Y90025D02*
D03*
X119925Y89775D02*
D03*
X119175Y93425D02*
D03*
X118825Y92975D02*
D03*
X118475Y92575D02*
D03*
X121125Y90375D02*
D03*
X118375Y82325D02*
D03*
X119875Y91325D02*
D03*
X111625Y89425D02*
D03*
X115175Y89225D02*
D03*
X118125D02*
D03*
X123475Y93325D02*
D03*
X117475Y101625D02*
D03*
X120625Y98125D02*
D03*
X119075Y105215D02*
D03*
X118725Y105625D02*
D03*
X120375Y92575D02*
D03*
X120025Y94275D02*
D03*
X123425Y95125D02*
D03*
X125425Y94675D02*
D03*
X125225Y95325D02*
D03*
X118825Y97375D02*
D03*
Y96175D02*
D03*
Y98575D02*
D03*
X121925Y92725D02*
D03*
X119875Y93675D02*
D03*
X122875Y95525D02*
D03*
X121725Y99575D02*
D03*
X122625D02*
D03*
X123225Y98475D02*
D03*
X121825Y101025D02*
D03*
X122225Y101375D02*
D03*
X123825Y98475D02*
D03*
X124925Y98125D02*
D03*
X112975Y91525D02*
D03*
X113525Y91025D02*
D03*
X120575Y80475D02*
D03*
X120625Y82625D02*
D03*
X120775Y83825D02*
D03*
X121375Y84725D02*
D03*
X107075Y78125D02*
D03*
X115075Y75625D02*
D03*
X106675Y60775D02*
D03*
X106025Y59625D02*
D03*
X86525Y63075D02*
D03*
X97675Y58825D02*
D03*
X109675Y81625D02*
D03*
X102575Y81175D02*
D03*
X120675Y81525D02*
D03*
X103675Y88675D02*
D03*
X105175Y60475D02*
D03*
X103875Y60675D02*
D03*
X103225Y60775D02*
D03*
X102575Y60875D02*
D03*
X101925Y60975D02*
D03*
X101275Y61075D02*
D03*
X100625Y61175D02*
D03*
X106475Y58975D02*
D03*
X100399Y76249D02*
D03*
X87775Y67125D02*
D03*
X93775Y75475D02*
D03*
X88725Y75175D02*
D03*
X94575Y65225D02*
D03*
X99775Y67325D02*
D03*
X91825Y77125D02*
D03*
X100225Y73575D02*
D03*
X100725Y69275D02*
D03*
X93575Y61825D02*
D03*
X93325Y61025D02*
D03*
X98625Y77775D02*
D03*
X99375Y78025D02*
D03*
X99075Y69925D02*
D03*
Y68675D02*
D03*
X88475Y69925D02*
D03*
X94625Y75475D02*
D03*
X108175Y58525D02*
D03*
X117475Y78975D02*
D03*
X118525Y80575D02*
D03*
X117825Y79325D02*
D03*
X118175Y79775D02*
D03*
X109975Y77525D02*
D03*
X104825Y72775D02*
D03*
X108525Y74175D02*
D03*
X111225Y72125D02*
D03*
X110025D02*
D03*
X118075Y73775D02*
D03*
X119275D02*
D03*
X118975Y67575D02*
D03*
X111925Y67375D02*
D03*
X119475Y68425D02*
D03*
X108595Y72405D02*
D03*
X121925Y65875D02*
D03*
X121875Y65275D02*
D03*
X109575Y75625D02*
D03*
X111875Y73725D02*
D03*
X113625Y64875D02*
D03*
X111675Y64525D02*
D03*
X113975Y65275D02*
D03*
X119525Y66275D02*
D03*
X121425Y66425D02*
D03*
X113435Y63015D02*
D03*
X114075Y63375D02*
D03*
X119875Y65525D02*
D03*
X104325Y67725D02*
D03*
X106425Y65725D02*
D03*
X107025Y65325D02*
D03*
X105407Y66257D02*
D03*
X105175Y66975D02*
D03*
X103635Y63725D02*
D03*
X105325Y67675D02*
D03*
X105975Y69375D02*
D03*
X105375Y73975D02*
D03*
X112475Y72525D02*
D03*
X112225Y72975D02*
D03*
X111675Y73175D02*
D03*
X109725Y70025D02*
D03*
X109225Y70075D02*
D03*
X113075Y71675D02*
D03*
X105175Y71375D02*
D03*
X111175Y72675D02*
D03*
X109975Y73225D02*
D03*
X109325Y71475D02*
D03*
X107325Y76175D02*
D03*
X108525Y74675D02*
D03*
Y75225D02*
D03*
X107925Y70575D02*
D03*
X108075Y71775D02*
D03*
X106391Y71091D02*
D03*
X107375Y71375D02*
D03*
X105425Y75225D02*
D03*
Y74675D02*
D03*
X108525Y75825D02*
D03*
X104775Y75425D02*
D03*
X104475Y76175D02*
D03*
X102775Y70975D02*
D03*
X102975Y70525D02*
D03*
X102575Y71475D02*
D03*
X102525Y72025D02*
D03*
X122375Y67225D02*
D03*
X102475Y70175D02*
D03*
X114075Y62475D02*
D03*
X114575Y64125D02*
D03*
X113975Y75675D02*
D03*
X109675Y68875D02*
D03*
X113775Y62075D02*
D03*
X121565Y87975D02*
D03*
X117125Y75575D02*
D03*
X121325Y78225D02*
D03*
X120975Y85325D02*
D03*
X105275Y82625D02*
D03*
X106275D02*
D03*
X106975Y79825D02*
D03*
X108275Y63625D02*
D03*
X105875Y63575D02*
D03*
X126325Y68925D02*
D03*
Y70675D02*
D03*
X120425Y73375D02*
D03*
X119475Y71725D02*
D03*
Y69775D02*
D03*
X119925Y64675D02*
D03*
X111325Y61675D02*
D03*
X111925Y65225D02*
D03*
X118325Y66375D02*
D03*
Y68125D02*
D03*
X112975Y70875D02*
D03*
X111525Y69675D02*
D03*
X116275Y65675D02*
D03*
X122875Y68025D02*
D03*
X115825Y66175D02*
D03*
X115075Y65875D02*
D03*
X121875Y64675D02*
D03*
X110575Y65225D02*
D03*
X113575Y63775D02*
D03*
X113425Y61725D02*
D03*
X111996Y62896D02*
D03*
X112025Y64075D02*
D03*
X121425Y67125D02*
D03*
X119175Y67025D02*
D03*
X121425Y65925D02*
D03*
X117225Y70825D02*
D03*
X116425Y70525D02*
D03*
X116725Y71325D02*
D03*
X116025Y71125D02*
D03*
X115625Y71725D02*
D03*
X115825Y72425D02*
D03*
X115175Y72275D02*
D03*
X116275Y71875D02*
D03*
X110175Y65825D02*
D03*
X109525Y66175D02*
D03*
X110025Y66875D02*
D03*
X109725Y67575D02*
D03*
X110625Y68275D02*
D03*
X110275Y69425D02*
D03*
X121375Y64825D02*
D03*
X104871Y83971D02*
D03*
X105325Y73275D02*
D03*
X101975Y73625D02*
D03*
X102325Y73275D02*
D03*
X108125Y60875D02*
D03*
X105225Y69725D02*
D03*
X106425Y66525D02*
D03*
X104525Y60575D02*
D03*
X99125Y80125D02*
D03*
X97275Y78825D02*
D03*
X88975Y69225D02*
D03*
X85675Y65925D02*
D03*
X94925Y73375D02*
D03*
X94125Y73175D02*
D03*
X92325Y66925D02*
D03*
X91625Y67125D02*
D03*
X91275Y67675D02*
D03*
X93175Y66825D02*
D03*
X92765Y68025D02*
D03*
X94025Y68275D02*
D03*
X96475Y71825D02*
D03*
X92568Y73675D02*
D03*
X96525Y67975D02*
D03*
X97575Y68375D02*
D03*
X97275Y72175D02*
D03*
X97625Y71825D02*
D03*
X94675Y70275D02*
D03*
X86775Y69325D02*
D03*
X103675Y87975D02*
D03*
X106525Y86925D02*
D03*
X95875Y71125D02*
D03*
X91025Y64675D02*
D03*
X92425Y77125D02*
D03*
X92725Y89475D02*
D03*
X85625Y92325D02*
D03*
X86425Y91575D02*
D03*
X86525Y88225D02*
D03*
X92375Y94175D02*
D03*
X83225Y94475D02*
D03*
X97775Y92325D02*
D03*
X98675Y88225D02*
D03*
X95125Y94225D02*
D03*
X98575Y91575D02*
D03*
X104525Y94175D02*
D03*
X107627Y96327D02*
D03*
X108077Y99127D02*
D03*
X110575Y100625D02*
D03*
X109375Y90475D02*
D03*
X107725D02*
D03*
X106125Y104775D02*
D03*
X88725Y82075D02*
D03*
X88525Y83425D02*
D03*
X91575Y86325D02*
D03*
X93575Y86425D02*
D03*
X93775Y79775D02*
D03*
X86675Y87375D02*
D03*
X89325D02*
D03*
X96425Y83275D02*
D03*
X95975Y82675D02*
D03*
X93375Y83075D02*
D03*
X92025Y83225D02*
D03*
X90775Y83025D02*
D03*
X92775Y90075D02*
D03*
X91225Y87075D02*
D03*
X93725Y87175D02*
D03*
X91975Y84375D02*
D03*
X92675Y84325D02*
D03*
X93334Y84384D02*
D03*
X89525Y79825D02*
D03*
X91375Y81875D02*
D03*
X95975Y78275D02*
D03*
X95575Y79925D02*
D03*
X83525Y88725D02*
D03*
X87325Y85925D02*
D03*
X94225Y88675D02*
D03*
X94775Y89075D02*
D03*
X95025Y84875D02*
D03*
X94125Y87525D02*
D03*
X95925Y89325D02*
D03*
X92175Y77725D02*
D03*
X79975Y82925D02*
D03*
X103975Y84125D02*
D03*
X102075Y76425D02*
D03*
X115775Y103325D02*
D03*
D93*
X106925Y111775D02*
D03*
Y112775D02*
D03*
D105*
X119470Y55860D02*
X119387Y55835D01*
X119332Y55768D01*
X119323Y55681D01*
D189*
X90525Y98875D02*
D03*
X86525Y98825D02*
D03*
X89525Y98875D02*
D03*
X102675D02*
D03*
X98675Y98825D02*
D03*
X97675D02*
D03*
X101675Y98875D02*
D03*
X115777Y98625D02*
D03*
X116825Y102275D02*
D03*
X120425Y101175D02*
D03*
X125775Y90925D02*
D03*
X114777Y97675D02*
D03*
X120425Y101825D02*
D03*
X123975Y97525D02*
D03*
X122875Y102275D02*
D03*
X117225Y89925D02*
D03*
X105525Y85125D02*
D03*
X117225Y91325D02*
D03*
X108570Y86530D02*
D03*
X99875Y65025D02*
D03*
X98475D02*
D03*
X86675Y71125D02*
D03*
X86575Y73725D02*
D03*
X89975Y57375D02*
D03*
X89775Y75825D02*
D03*
X93125Y64725D02*
D03*
X97075Y63925D02*
D03*
X98975Y58525D02*
D03*
X109525Y58775D02*
D03*
X80525Y57825D02*
D03*
X81225D02*
D03*
X80525Y57125D02*
D03*
X81225D02*
D03*
X120375Y61175D02*
D03*
X90075Y63375D02*
D03*
X91025D02*
D03*
X85525Y98825D02*
D03*
X103675Y111125D02*
D03*
X86275Y59725D02*
D03*
X75325Y96125D02*
D03*
X76125D02*
D03*
X76925D02*
D03*
X73825Y76875D02*
D03*
X72525D02*
D03*
X73175D02*
D03*
X75325Y95425D02*
D03*
X76125D02*
D03*
X76925D02*
D03*
D203*
X120040Y55892D02*
X119940Y55882D01*
X119844Y55851D01*
X119757Y55800D01*
X119683Y55733D01*
X119623Y55652D01*
X119583Y55560D01*
X119562Y55461D01*
Y55361D01*
X119583Y55262D01*
X119623Y55171D01*
X119683Y55089D01*
X119757Y55022D01*
X119844Y54972D01*
X119940Y54941D01*
X120040Y54930D01*
D204*
X119479Y55911D02*
X119381Y55880D01*
X119318Y55798D01*
X119315Y55695D01*
D205*
X119470Y55944D02*
X119382Y55921D01*
X119316Y55859D01*
X119288Y55773D01*
X119305Y55683D01*
D206*
X119875Y55425D02*
D03*
X120115Y55425D02*
D03*
D207*
X120265Y55605D02*
D03*
Y55395D02*
D03*
D208*
X119935Y55895D02*
D03*
D209*
X120214Y55811D02*
D03*
D210*
X69375Y73500D02*
D03*
D211*
X127800Y79850D02*
D03*
D212*
X125141Y55711D02*
D03*
D213*
X122641D02*
D03*
D214*
X100275Y106125D02*
D03*
X99275D02*
D03*
X100275Y107125D02*
D03*
X99275D02*
D03*
X100275Y108125D02*
D03*
X99275D02*
D03*
X72475Y80375D02*
D03*
X95975Y103425D02*
D03*
Y102425D02*
D03*
X83825Y103425D02*
D03*
Y102425D02*
D03*
X82825Y103425D02*
D03*
Y102425D02*
D03*
X124425Y108775D02*
D03*
X123925Y107775D02*
D03*
X123425Y108775D02*
D03*
X122925Y107775D02*
D03*
X122425Y108775D02*
D03*
X121925Y107775D02*
D03*
X121425Y108775D02*
D03*
X120925Y107775D02*
D03*
X120185Y112605D02*
D03*
X121185Y113205D02*
D03*
X124165Y112605D02*
D03*
X125165Y113205D02*
D03*
X116225Y109825D02*
D03*
X115225D02*
D03*
X114225D02*
D03*
X113225D02*
D03*
X115725Y108825D02*
D03*
X114725D02*
D03*
X113725D02*
D03*
X112725D02*
D03*
X97425Y112525D02*
D03*
X97825Y111825D02*
D03*
X98225Y112525D02*
D03*
X98625Y111825D02*
D03*
X96625Y112525D02*
D03*
X99025D02*
D03*
X97025Y111825D02*
D03*
X99425D02*
D03*
X95325Y109925D02*
D03*
X99825D02*
D03*
X100725D02*
D03*
X96225D02*
D03*
X85775D02*
D03*
X87075Y112525D02*
D03*
X89475D02*
D03*
X87475Y111825D02*
D03*
X89875D02*
D03*
X90275Y109925D02*
D03*
X91175D02*
D03*
X86675D02*
D03*
X97075Y108125D02*
D03*
X98075D02*
D03*
X97075Y107125D02*
D03*
X98075D02*
D03*
X97075Y106125D02*
D03*
X98075D02*
D03*
X89075Y111825D02*
D03*
X88675Y112525D02*
D03*
X87875D02*
D03*
X88275Y111825D02*
D03*
X90675Y106125D02*
D03*
X89675D02*
D03*
X90675Y107125D02*
D03*
X89675D02*
D03*
X90675Y108125D02*
D03*
X89675D02*
D03*
X88475Y106125D02*
D03*
X87475D02*
D03*
X88475Y107125D02*
D03*
X87475D02*
D03*
X88475Y108125D02*
D03*
X87475D02*
D03*
X89525Y104375D02*
D03*
X88525D02*
D03*
X87525D02*
D03*
X86525D02*
D03*
X98675D02*
D03*
X99675D02*
D03*
X100675D02*
D03*
X101675D02*
D03*
X94975Y102425D02*
D03*
Y103425D02*
D03*
X110625Y99725D02*
D03*
X109625D02*
D03*
D215*
X72475Y79375D02*
D03*
D216*
X120425Y111275D02*
D03*
X124925D02*
D03*
X95525Y113525D02*
D03*
X100525D02*
D03*
X85975D02*
D03*
X90975D02*
D03*
D217*
X125775Y110075D02*
D03*
X119575D02*
D03*
X111525Y113525D02*
D03*
X117425D02*
D03*
D218*
X112225Y112325D02*
D03*
X116725D02*
D03*
D219*
X107797Y110492D02*
D03*
X110553D02*
D03*
D220*
X108289Y111476D02*
D03*
X76625Y63975D02*
D03*
X78625D02*
D03*
X72625D02*
D03*
X78625Y72975D02*
D03*
X110061Y111476D02*
D03*
D221*
X74625Y63975D02*
D03*
X72625Y72975D02*
D03*
X74625D02*
D03*
D222*
X71590Y64975D02*
D03*
D223*
X79660Y71975D02*
D03*
D224*
X74425Y111803D02*
D03*
D225*
Y113575D02*
D03*
D226*
X76644Y99172D02*
D03*
X72706D02*
D03*
X76644Y105078D02*
D03*
X72706D02*
D03*
M02*
