%FSLAX24Y24*%
%MOIN*%
G70*
G01*
G75*
%ADD10C,0.0100*%
%ADD11R,0.1250X0.0600*%
%ADD12R,0.0600X0.1000*%
%ADD13R,0.0380X0.0380*%
%ADD14R,0.0600X0.0600*%
%ADD15R,0.0709X0.1575*%
%ADD16R,0.1614X0.0827*%
%ADD17O,0.0701X0.0157*%
%ADD18R,0.1500X0.1100*%
%ADD19R,0.0600X0.1250*%
%ADD20R,0.0500X0.0600*%
%ADD21R,0.0600X0.0500*%
%ADD22R,0.0315X0.0472*%
%ADD23R,0.1200X0.0900*%
%ADD24R,0.0551X0.0492*%
%ADD25O,0.0138X0.0846*%
%ADD26R,0.0138X0.0846*%
%ADD27R,0.1575X0.1181*%
%ADD28R,0.0709X0.1378*%
%ADD29R,0.0800X0.0800*%
%ADD30O,0.0630X0.0110*%
%ADD31O,0.0110X0.0630*%
%ADD32R,0.0110X0.0630*%
%ADD33R,0.0472X0.1260*%
%ADD34R,0.0472X0.0315*%
%ADD35R,0.0425X0.0380*%
%ADD36C,0.0400*%
%ADD37R,0.1378X0.0709*%
%ADD38R,0.0650X0.0500*%
%ADD39O,0.0787X0.0177*%
%ADD40R,0.0787X0.0177*%
%ADD41R,0.0236X0.0433*%
%ADD42R,0.0492X0.0551*%
%ADD43O,0.0669X0.0110*%
%ADD44R,0.0669X0.0110*%
%ADD45O,0.0110X0.0669*%
%ADD46R,0.0110X0.0669*%
%ADD47R,0.1000X0.0600*%
%ADD48R,0.0850X0.1080*%
%ADD49R,0.0600X0.1350*%
%ADD50R,0.1575X0.2165*%
%ADD51R,0.1500X0.1680*%
%ADD52R,0.0866X0.1142*%
%ADD53O,0.0630X0.0110*%
%ADD54R,0.0630X0.0110*%
%ADD55O,0.0110X0.0709*%
%ADD56O,0.0709X0.0110*%
%ADD57O,0.0709X0.0110*%
%ADD58R,0.0709X0.0110*%
%ADD59O,0.0157X0.0701*%
%ADD60O,0.0110X0.0630*%
%ADD61R,0.0787X0.0512*%
%ADD62R,0.0945X0.0906*%
%ADD63C,0.0200*%
%ADD64C,0.0500*%
%ADD65C,0.0120*%
%ADD66C,0.0150*%
%ADD67C,0.0600*%
%ADD68C,0.0400*%
%ADD69C,0.0250*%
%ADD70C,0.0300*%
%ADD71C,0.0380*%
%ADD72C,0.0700*%
%ADD73C,0.0110*%
%ADD74C,0.0320*%
%ADD75C,0.0080*%
%ADD76C,0.0280*%
%ADD77C,0.0310*%
%ADD78C,0.0140*%
%ADD79C,0.0157*%
%ADD80C,0.0130*%
%ADD81C,0.0090*%
%ADD82C,0.0220*%
%ADD83C,0.0170*%
%ADD84C,0.0180*%
%ADD85C,0.0308*%
%ADD86C,0.0160*%
%ADD87C,0.0390*%
%ADD88R,0.0670X0.0700*%
%ADD89R,0.1350X0.1400*%
%ADD90R,0.0300X0.1229*%
%ADD91C,0.0620*%
%ADD92C,0.0600*%
%ADD93C,0.1000*%
%ADD94C,0.0650*%
%ADD95C,0.0906*%
%ADD96C,0.0787*%
%ADD97C,0.0866*%
%ADD98C,0.1024*%
%ADD99C,0.1024*%
%ADD100P,0.0620X8X0*%
%ADD101C,0.0945*%
%ADD102C,0.0500*%
%ADD103C,0.0118*%
%ADD104C,0.0098*%
%ADD105C,0.0060*%
%ADD106C,0.0079*%
%ADD107C,0.0070*%
%ADD108R,0.0500X0.0300*%
%ADD109R,0.0500X0.1500*%
%ADD110R,0.3100X0.0430*%
%ADD111R,0.0360X0.0130*%
D10*
X123328Y96538D02*
X123253Y96581D01*
Y96494D01*
X123328Y96538D01*
X72364Y59189D02*
X72262Y59180D01*
X72164Y59155D01*
X72071Y59114D01*
X71986Y59057D01*
X71912Y58988D01*
X71850Y58907D01*
X71803Y58816D01*
X71772Y58720D01*
X71757Y58619D01*
X71759Y58517D01*
X71778Y58417D01*
X71814Y58322D01*
X71369Y102856D02*
X71349Y102759D01*
X71332Y102663D01*
X71318Y102566D01*
X71307Y102468D01*
X71298Y102370D01*
X71292Y102272D01*
X71290Y102174D01*
Y102076D01*
X71292Y101978D01*
X71298Y101880D01*
X71307Y101782D01*
X71318Y101685D01*
X71332Y101587D01*
X71349Y101491D01*
X71369Y101395D01*
X77630Y102125D02*
X77628Y102225D01*
X77623Y102325D01*
X77615Y102424D01*
X77603Y102523D01*
X77588Y102622D01*
X77570Y102720D01*
X77548Y102817D01*
X77523Y102914D01*
X77495Y103010D01*
X77463Y103104D01*
X77428Y103198D01*
X77391Y103290D01*
X77350Y103382D01*
X77306Y103471D01*
X77259Y103559D01*
X77209Y103646D01*
X77156Y103730D01*
X77100Y103813D01*
X77042Y103894D01*
X76981Y103973D01*
X76917Y104050D01*
X76851Y104125D01*
X76782Y104197D01*
X76711Y104267D01*
X76637Y104334D01*
X76562Y104400D01*
X76484Y104462D01*
X76404Y104522D01*
X76322Y104579D01*
X76238Y104633D01*
X76153Y104684D01*
X76065Y104733D01*
X75976Y104778D01*
X75886Y104821D01*
X75794Y104860D01*
X75701Y104896D01*
X75607Y104929D01*
X75512Y104959D01*
X75416Y104986D01*
X75319Y105009D01*
X75221Y105029D01*
X75122Y105046D01*
X75024Y105060D01*
X74924Y105070D01*
X74825Y105076D01*
X74725Y105080D01*
X74625D01*
X74525Y105076D01*
X74426Y105070D01*
X74326Y105060D01*
X74228Y105046D01*
X74129Y105029D01*
X74031Y105009D01*
X73934Y104986D01*
X73838Y104959D01*
X73743Y104929D01*
X73649Y104896D01*
X73556Y104860D01*
X73464Y104821D01*
X73374Y104778D01*
X73285Y104733D01*
X73197Y104684D01*
X73112Y104633D01*
X73028Y104579D01*
X72946Y104522D01*
X72866Y104462D01*
X72788Y104400D01*
X72713Y104334D01*
X72639Y104267D01*
X72568Y104197D01*
X72499Y104125D01*
X72433Y104050D01*
X72369Y103973D01*
X72308Y103894D01*
X72250Y103813D01*
X72194Y103730D01*
X72141Y103646D01*
X72091Y103559D01*
X72044Y103471D01*
X72000Y103382D01*
X71959Y103290D01*
X71922Y103198D01*
X71887Y103104D01*
X71855Y103010D01*
X71827Y102914D01*
X71802Y102817D01*
X71780Y102720D01*
X71762Y102622D01*
X71747Y102523D01*
X71735Y102424D01*
X71727Y102325D01*
X71722Y102225D01*
X71720Y102125D01*
X71722Y102025D01*
X71727Y101926D01*
X71735Y101826D01*
X71747Y101727D01*
X71762Y101628D01*
X71780Y101530D01*
X71802Y101433D01*
X71827Y101336D01*
X71855Y101240D01*
X71887Y101146D01*
X71922Y101052D01*
X71959Y100960D01*
X72000Y100869D01*
X72044Y100779D01*
X72091Y100691D01*
X72141Y100605D01*
X72194Y100520D01*
X72250Y100437D01*
X72308Y100356D01*
X72369Y100277D01*
X72433Y100200D01*
X72499Y100126D01*
X72568Y100053D01*
X72639Y99983D01*
X72713Y99916D01*
X72788Y99851D01*
X72866Y99788D01*
X72946Y99728D01*
X73028Y99671D01*
X73112Y99617D01*
X73197Y99566D01*
X73285Y99517D01*
X73374Y99472D01*
X73464Y99430D01*
X73556Y99390D01*
X73649Y99354D01*
X73743Y99321D01*
X73838Y99291D01*
X73934Y99264D01*
X74031Y99241D01*
X74129Y99221D01*
X74228Y99204D01*
X74326Y99191D01*
X74426Y99181D01*
X74525Y99174D01*
X74625Y99170D01*
X74725Y99170D01*
X74825Y99174D01*
X74924Y99181D01*
X75024Y99191D01*
X75122Y99204D01*
X75221Y99221D01*
X75319Y99241D01*
X75416Y99264D01*
X75512Y99291D01*
X75607Y99321D01*
X75701Y99354D01*
X75794Y99390D01*
X75886Y99430D01*
X75976Y99472D01*
X76065Y99517D01*
X76153Y99566D01*
X76238Y99617D01*
X76322Y99671D01*
X76404Y99729D01*
X76484Y99788D01*
X76562Y99851D01*
X76637Y99916D01*
X76711Y99983D01*
X76782Y100053D01*
X76851Y100126D01*
X76917Y100200D01*
X76981Y100277D01*
X77042Y100356D01*
X77100Y100437D01*
X77156Y100520D01*
X77209Y100605D01*
X77259Y100691D01*
X77306Y100779D01*
X77350Y100869D01*
X77391Y100960D01*
X77428Y101052D01*
X77463Y101146D01*
X77495Y101240D01*
X77523Y101336D01*
X77548Y101433D01*
X77570Y101530D01*
X77588Y101628D01*
X77603Y101727D01*
X77615Y101826D01*
X77623Y101926D01*
X77628Y102025D01*
X77630Y102125D01*
X77981Y101395D02*
X78001Y101491D01*
X78018Y101587D01*
X78032Y101685D01*
X78043Y101782D01*
X78052Y101880D01*
X78058Y101978D01*
X78060Y102076D01*
Y102174D01*
X78058Y102272D01*
X78052Y102370D01*
X78043Y102468D01*
X78032Y102566D01*
X78018Y102663D01*
X78001Y102759D01*
X77981Y102856D01*
X91022Y81459D02*
X90947Y81503D01*
Y81416D01*
X91022Y81459D01*
X92975Y95975D02*
Y96625D01*
X94475Y95975D02*
Y96625D01*
Y97975D02*
Y98625D01*
X92975Y97975D02*
Y98625D01*
Y95975D02*
X94475D01*
X92975Y98625D02*
X94475D01*
X93025Y98825D02*
Y100125D01*
X95275Y98825D02*
Y100125D01*
X93025Y98825D02*
X93725D01*
X93025Y100125D02*
X93725D01*
X94575D02*
X95275D01*
X94575Y98825D02*
X95275D01*
X80875D02*
Y100125D01*
X83125Y98825D02*
Y100125D01*
X80875Y98825D02*
X81575D01*
X80875Y100125D02*
X81575D01*
X82425D02*
X83125D01*
X82425Y98825D02*
X83125D01*
X91625Y100925D02*
Y101825D01*
X89375Y100925D02*
Y101825D01*
X90925D02*
X91625D01*
X90925Y100925D02*
X91625D01*
X89375D02*
X90075D01*
X89375Y101825D02*
X90075D01*
X98825Y100925D02*
Y101825D01*
X96575Y100925D02*
Y101825D01*
X98125D02*
X98825D01*
X98125Y100925D02*
X98825D01*
X96575D02*
X97275D01*
X96575Y101825D02*
X97275D01*
X103775Y100925D02*
Y101825D01*
X101525Y100925D02*
Y101825D01*
X103075D02*
X103775D01*
X103075Y100925D02*
X103775D01*
X101525D02*
X102225D01*
X101525Y101825D02*
X102225D01*
X86650Y100925D02*
Y101825D01*
X84400Y100925D02*
Y101825D01*
X85950D02*
X86650D01*
X85950Y100925D02*
X86650D01*
X84400D02*
X85100D01*
X84400Y101825D02*
X85100D01*
X92325Y60575D02*
Y61475D01*
X94575Y60575D02*
Y61475D01*
X92325Y60575D02*
X93025D01*
X92325Y61475D02*
X93025D01*
X93875D02*
X94575D01*
X93875Y60575D02*
X94575D01*
X113975Y91925D02*
Y92825D01*
X111725Y91925D02*
Y92825D01*
X113275D02*
X113975D01*
X113275Y91925D02*
X113975D01*
X111725D02*
X112425D01*
X111725Y92825D02*
X112425D01*
X78975Y89125D02*
X79625D01*
X78975Y87625D02*
X79625D01*
X80975D02*
X81625D01*
X80975Y89125D02*
X81625D01*
X78975Y87625D02*
Y89125D01*
X81625Y87625D02*
Y89125D01*
X78975Y87475D02*
X79625D01*
X78975Y85975D02*
X79625D01*
X80975D02*
X81625D01*
X80975Y87475D02*
X81625D01*
X78975Y85975D02*
Y87475D01*
X81625Y85975D02*
Y87475D01*
X78975Y85825D02*
X79625D01*
X78975Y84325D02*
X79625D01*
X80975D02*
X81625D01*
X80975Y85825D02*
X81625D01*
X78975Y84325D02*
Y85825D01*
X81625Y84325D02*
Y85825D01*
X78975Y84175D02*
X79625D01*
X78975Y82675D02*
X79625D01*
X80975D02*
X81625D01*
X80975Y84175D02*
X81625D01*
X78975Y82675D02*
Y84175D01*
X81625Y82675D02*
Y84175D01*
X71025Y90975D02*
X71725D01*
X71025Y90075D02*
X71725D01*
X72575D02*
X73275D01*
X72575Y90975D02*
X73275D01*
X71025Y90075D02*
Y90975D01*
X73275Y90075D02*
Y90975D01*
X75075Y61325D02*
Y62225D01*
X77325Y61325D02*
Y62225D01*
X75075Y61325D02*
X75775D01*
X75075Y62225D02*
X75775D01*
X76625D02*
X77325D01*
X76625Y61325D02*
X77325D01*
X120875Y79675D02*
Y80575D01*
X123125Y79675D02*
Y80575D01*
X120875Y79675D02*
X121575D01*
X120875Y80575D02*
X121575D01*
X122425D02*
X123125D01*
X122425Y79675D02*
X123125D01*
X71025Y61875D02*
X71675D01*
X71025Y63375D02*
X71675D01*
X69025D02*
X69675D01*
X69025Y61875D02*
X69675D01*
X71675D02*
Y63375D01*
X69025Y61875D02*
Y63375D01*
X116475Y107875D02*
X117975D01*
X116475Y105225D02*
X117975D01*
X116475Y107225D02*
Y107875D01*
X117975Y107225D02*
Y107875D01*
Y105225D02*
Y105875D01*
X116475Y105225D02*
Y105875D01*
X119525Y115525D02*
X125825D01*
X119525Y107025D02*
X119525Y109464D01*
X119525Y107025D02*
X125825D01*
X119525Y114336D02*
X119712D01*
X125638D02*
X125825D01*
X122675Y110875D02*
Y111675D01*
X122275Y111275D02*
X123075D01*
X119525Y115525D02*
X119525Y110685D01*
X125825Y107025D02*
X125825Y109464D01*
X125825Y115525D02*
X125825Y110685D01*
X111575Y114125D02*
Y115525D01*
X117375Y114125D02*
Y115525D01*
X111575Y108175D02*
Y111925D01*
X117375Y108175D02*
Y111925D01*
X111575Y115525D02*
X117375D01*
X111575Y108175D02*
X117375D01*
X117140Y114343D02*
X117375D01*
X111575D02*
X111810D01*
X114275Y112325D02*
X114675D01*
X114475Y112125D02*
Y112525D01*
X117375Y112725D02*
Y112925D01*
X111575Y112725D02*
Y112925D01*
X116398Y92324D02*
Y92724D01*
X115926Y92472D02*
Y94677D01*
X116319Y92078D02*
X116792D01*
X115926Y94677D02*
X116792D01*
X116198Y92524D02*
X116598D01*
X115926Y92472D02*
X116319Y92078D01*
X118524Y92472D02*
Y94677D01*
X117658Y92078D02*
X118131D01*
X117658Y94677D02*
X118524D01*
X118131Y92078D02*
X118524Y92472D01*
X124975Y89875D02*
X125375D01*
X124975Y89925D02*
X125375D01*
Y88925D02*
Y90925D01*
X122175Y88925D02*
Y90925D01*
X124975Y90025D02*
X125375D01*
X124975Y89775D02*
Y90025D01*
Y89775D02*
X125375D01*
X109825Y105225D02*
Y105875D01*
X111325Y105225D02*
Y105875D01*
Y107225D02*
Y107875D01*
X109825Y107225D02*
Y107875D01*
Y105225D02*
X111325D01*
X109825Y107875D02*
X111325D01*
X90476Y60998D02*
X90876D01*
X88523Y60526D02*
X90728D01*
X91122Y60920D02*
Y61392D01*
X88523Y60526D02*
Y61392D01*
X90676Y60798D02*
Y61198D01*
X90728Y60526D02*
X91122Y60920D01*
X88523Y63124D02*
X90728D01*
X91122Y62258D02*
Y62731D01*
X88523Y62258D02*
Y63124D01*
X90728D02*
X91122Y62731D01*
X85825Y61825D02*
Y62225D01*
X85875Y61825D02*
Y62225D01*
X84875Y61825D02*
X86875D01*
X84875Y65025D02*
X86875D01*
X85975Y61825D02*
Y62225D01*
X85725D02*
X85975D01*
X85725Y61825D02*
Y62225D01*
X109175Y110630D02*
Y111201D01*
X108388Y110925D02*
X109962D01*
X107797Y109862D02*
Y109941D01*
X110553Y109862D02*
Y109941D01*
X107797Y111043D02*
Y111831D01*
X110553Y111043D02*
Y111831D01*
Y112500D01*
X107797D02*
X110553D01*
X107797Y111831D02*
Y112500D01*
X109864D02*
Y114764D01*
X108486Y112500D02*
Y114764D01*
X109864D01*
X107797Y109862D02*
X110553D01*
X109706Y113583D02*
X109864D01*
X108486D02*
X108644D01*
X104275Y84675D02*
Y85575D01*
X106525Y84675D02*
Y85575D01*
X104275Y84675D02*
X104975D01*
X104275Y85575D02*
X104975D01*
X105825D02*
X106525D01*
X105825Y84675D02*
X106525D01*
X73175Y74075D02*
X74475D01*
X73175Y76325D02*
X74475D01*
Y74075D02*
Y74775D01*
X73175Y74075D02*
Y74775D01*
Y75625D02*
Y76325D01*
X74475Y75625D02*
Y76325D01*
X75075Y97025D02*
X75775D01*
X75075Y98325D02*
X75775D01*
X73525D02*
X74225D01*
X73525Y97025D02*
X74225D01*
X75775D02*
Y98325D01*
X73525Y97025D02*
Y98325D01*
X101125Y110125D02*
Y113125D01*
Y109625D02*
Y109725D01*
Y113925D02*
Y115525D01*
X94925Y110125D02*
Y113125D01*
Y109625D02*
Y109725D01*
Y109625D02*
X95025D01*
X95675D02*
X95875D01*
X96575D02*
X99475D01*
X100175D02*
X100375D01*
X97825Y113525D02*
X98225D01*
X98025Y113325D02*
Y113725D01*
X94925Y115525D02*
X101125D01*
X101025Y109625D02*
X101125D01*
X94925Y113925D02*
Y115525D01*
X100925Y114375D02*
X101125D01*
X94925D02*
X95125D01*
X91575Y110125D02*
Y113125D01*
Y109625D02*
Y109725D01*
Y113925D02*
Y115525D01*
X85375Y110125D02*
Y113125D01*
Y109625D02*
Y109725D01*
Y109625D02*
X85475D01*
X86125D02*
X86325D01*
X87025D02*
X89925D01*
X90625D02*
X90825D01*
X88275Y113525D02*
X88675D01*
X88475Y113325D02*
Y113725D01*
X85375Y115525D02*
X91575D01*
X91475Y109625D02*
X91575D01*
X85375Y113925D02*
Y115525D01*
X91375Y114375D02*
X91575D01*
X85375D02*
X85575D01*
X88325Y101975D02*
Y103475D01*
X90975Y101975D02*
Y103475D01*
X88325Y101975D02*
X88975D01*
X88325Y103475D02*
X88975D01*
X90325D02*
X90975D01*
X90325Y101975D02*
X90975D01*
X85075D02*
Y103475D01*
X87725Y101975D02*
Y103475D01*
X85075Y101975D02*
X85725D01*
X85075Y103475D02*
X85725D01*
X87075D02*
X87725D01*
X87075Y101975D02*
X87725D01*
X103125D02*
Y103475D01*
X100475Y101975D02*
Y103475D01*
X102475D02*
X103125D01*
X102475Y101975D02*
X103125D01*
X100475D02*
X101125D01*
X100475Y103475D02*
X101125D01*
X97225Y101975D02*
Y103475D01*
X99875Y101975D02*
Y103475D01*
X97225Y101975D02*
X97875D01*
X97225Y103475D02*
X97875D01*
X99225D02*
X99875D01*
X99225Y101975D02*
X99875D01*
X107225Y107875D02*
X108725D01*
X107225Y105225D02*
X108725D01*
X107225Y107225D02*
Y107875D01*
X108725Y107225D02*
Y107875D01*
Y105225D02*
Y105875D01*
X107225Y105225D02*
Y105875D01*
X125975Y90475D02*
Y91175D01*
X126875Y90475D02*
Y91175D01*
Y92025D02*
Y92725D01*
X125975Y92025D02*
Y92725D01*
Y90475D02*
X126875D01*
X125975Y92725D02*
X126875D01*
X117025Y101825D02*
Y102525D01*
X117925Y101825D02*
Y102525D01*
Y103375D02*
Y104075D01*
X117025Y103375D02*
Y104075D01*
Y101825D02*
X117925D01*
X117025Y104075D02*
X117925D01*
X120725Y101625D02*
Y102325D01*
X121625Y101625D02*
Y102325D01*
Y103175D02*
Y103875D01*
X120725Y103175D02*
Y103875D01*
Y101625D02*
X121625D01*
X120725Y103875D02*
X121625D01*
X86025Y60025D02*
X86725D01*
X86025Y60925D02*
X86725D01*
X84475D02*
X85175D01*
X84475Y60025D02*
X85175D01*
X86725D02*
Y60925D01*
X84475Y60025D02*
Y60925D01*
X73525Y106025D02*
Y107325D01*
X75775Y106025D02*
Y107325D01*
X73525Y106025D02*
X74225D01*
X73525Y107325D02*
X74225D01*
X75075D02*
X75775D01*
X75075Y106025D02*
X75775D01*
X75365Y92175D02*
X76065D01*
X75365Y93475D02*
X76065D01*
X73815D02*
X74515D01*
X73815Y92175D02*
X74515D01*
X76065D02*
Y93475D01*
X73815Y92175D02*
Y93475D01*
X81275Y107725D02*
Y108425D01*
X80925Y108075D02*
X81625D01*
X81275Y111575D02*
Y112275D01*
X80825Y98625D02*
X82325D01*
X80825Y95975D02*
X82325D01*
X80825Y97975D02*
Y98625D01*
X82325Y97975D02*
Y98625D01*
Y95975D02*
Y96625D01*
X80825Y95975D02*
Y96625D01*
X70375Y73775D02*
Y75275D01*
X73025Y73775D02*
Y75275D01*
X70375Y73775D02*
X71025D01*
X70375Y75275D02*
X71025D01*
X72375D02*
X73025D01*
X72375Y73775D02*
X73025D01*
X79387Y90033D02*
Y90433D01*
X79187Y90233D02*
X79587D01*
X76605Y91875D02*
Y92975D01*
X80005Y91875D02*
Y92475D01*
X76605Y92975D02*
X79505D01*
X76605Y89575D02*
Y90675D01*
X80005Y90075D02*
Y90675D01*
X76605Y89575D02*
X79505D01*
X80005Y90075D01*
X79505Y92975D02*
X80005Y92475D01*
X77075Y73525D02*
X77775D01*
X77075Y74825D02*
X77775D01*
X75525D02*
X76225D01*
X75525Y73525D02*
X76225D01*
X77775D02*
Y74825D01*
X75525Y73525D02*
Y74825D01*
X72575Y88625D02*
X73275D01*
X72575Y89925D02*
X73275D01*
X71025D02*
X71725D01*
X71025Y88625D02*
X71725D01*
X73275D02*
Y89925D01*
X71025Y88625D02*
Y89925D01*
X72925Y81875D02*
Y83175D01*
X70675Y81875D02*
Y83175D01*
X72225D02*
X72925D01*
X72225Y81875D02*
X72925D01*
X70675D02*
X71375D01*
X70675Y83175D02*
X71375D01*
X73175Y80975D02*
Y81675D01*
X74075Y80975D02*
Y81675D01*
Y82525D02*
Y83225D01*
X73175Y82525D02*
Y83225D01*
Y80975D02*
X74075D01*
X73175Y83225D02*
X74075D01*
X72425Y96925D02*
X73075D01*
X72425Y98425D02*
X73075D01*
X70425D02*
X71075D01*
X70425Y96925D02*
X71075D01*
X73075D02*
Y98425D01*
X70425Y96925D02*
Y98425D01*
X78275Y96925D02*
X78925D01*
X78275Y98425D02*
X78925D01*
X76275D02*
X76925D01*
X76275Y96925D02*
X76925D01*
X78925D02*
Y98425D01*
X76275Y96925D02*
Y98425D01*
X79365Y108055D02*
Y111895D01*
X77385Y108055D02*
Y111895D01*
X79242Y108055D02*
X79365D01*
X77385Y111895D02*
X77508D01*
X77385Y108055D02*
X77508D01*
X79242Y111895D02*
X79365D01*
X73725Y113575D02*
X73975D01*
X74875D02*
X75125D01*
X74425Y112875D02*
Y113125D01*
Y114025D02*
Y114275D01*
X74015Y115156D02*
X74815D01*
X74015D02*
X74415Y114756D01*
X74815Y115156D01*
X72653Y109638D02*
X76197D01*
Y114362D02*
Y115544D01*
X72653D02*
X76197D01*
X75606Y114362D02*
X76197D01*
X72653D02*
X73244D01*
X76197Y114244D02*
Y114362D01*
Y111922D02*
Y112866D01*
Y109638D02*
Y110504D01*
X72653Y114362D02*
Y115544D01*
Y114244D02*
Y114362D01*
Y111922D02*
Y112866D01*
Y109638D02*
Y110504D01*
X71369Y101395D02*
X72155Y99290D01*
X72864Y98621D02*
X76486D01*
X77195Y99290D02*
X77981Y101395D01*
X71369Y102856D02*
X72155Y104960D01*
X72864Y105629D02*
X76486D01*
X77195Y104960D02*
X77981Y102856D01*
X125575Y82029D02*
Y84392D01*
X124275Y82029D02*
Y84392D01*
X97925Y83429D02*
Y85792D01*
X99225Y83429D02*
Y85792D01*
X101425Y84175D02*
X101325Y84275D01*
X101125D01*
X101025Y84175D01*
Y83775D01*
X101125Y83675D01*
X101325D01*
X101425Y83775D01*
Y83975D01*
X101225D01*
X101625Y83675D02*
Y84275D01*
X102025Y83675D01*
Y84275D01*
X102225D02*
Y83675D01*
X102525D01*
X102624Y83775D01*
Y84175D01*
X102525Y84275D01*
X102225D01*
X117775Y109025D02*
X117675Y108925D01*
Y108725D01*
X117775Y108625D01*
X118175D01*
X118275Y108725D01*
Y108925D01*
X118175Y109025D01*
X118275Y109325D02*
Y109525D01*
X118175Y109625D01*
X117975D01*
X117875Y109525D01*
Y109325D01*
X117975Y109225D01*
X118175D01*
X118275Y109325D01*
Y109825D02*
X117875D01*
Y110125D01*
X117975Y110225D01*
X118275D01*
Y110425D02*
Y110724D01*
X118175Y110824D01*
X118075Y110724D01*
Y110524D01*
X117975Y110425D01*
X117875Y110524D01*
Y110824D01*
X118275Y111124D02*
Y111324D01*
X118175Y111424D01*
X117975D01*
X117875Y111324D01*
Y111124D01*
X117975Y111024D01*
X118175D01*
X118275Y111124D01*
Y111624D02*
Y111824D01*
Y111724D01*
X117675D01*
Y111624D01*
X118275Y112424D02*
Y112224D01*
X118175Y112124D01*
X117975D01*
X117875Y112224D01*
Y112424D01*
X117975Y112524D01*
X118075D01*
Y112124D01*
X126175Y106825D02*
X126775D01*
Y107225D01*
Y107425D02*
X126375D01*
X126175Y107625D01*
X126375Y107825D01*
X126775D01*
X126475D01*
Y107425D01*
X126775Y108025D02*
X126175D01*
X126775Y108425D01*
X126175D01*
X104375Y110975D02*
X104275Y110875D01*
Y110675D01*
X104375Y110575D01*
X104475D01*
X104575Y110675D01*
Y110875D01*
X104675Y110975D01*
X104775D01*
X104875Y110875D01*
Y110675D01*
X104775Y110575D01*
X104375Y111275D02*
X104475D01*
Y111175D01*
Y111375D01*
Y111275D01*
X104775D01*
X104875Y111375D01*
X104475Y111775D02*
Y111975D01*
X104575Y112075D01*
X104875D01*
Y111775D01*
X104775Y111675D01*
X104675Y111775D01*
Y112075D01*
X104375Y112375D02*
X104475D01*
Y112275D01*
Y112474D01*
Y112375D01*
X104775D01*
X104875Y112474D01*
X104475Y112774D02*
X104775D01*
X104875Y112874D01*
Y113174D01*
X104475D01*
X104875Y113374D02*
Y113674D01*
X104775Y113774D01*
X104675Y113674D01*
Y113474D01*
X104575Y113374D01*
X104475Y113474D01*
Y113774D01*
X72175Y107125D02*
X71575D01*
Y107425D01*
X71675Y107525D01*
X71875D01*
X71975Y107425D01*
Y107125D01*
X71675Y108125D02*
X71575Y108025D01*
Y107825D01*
X71675Y107725D01*
X71775D01*
X71875Y107825D01*
Y108025D01*
X71975Y108125D01*
X72075D01*
X72175Y108025D01*
Y107825D01*
X72075Y107725D01*
X71575Y108925D02*
Y109124D01*
Y109024D01*
X72175D01*
Y108925D01*
Y109124D01*
Y109424D02*
X71575D01*
X72175Y109824D01*
X71575D01*
X92025Y110125D02*
X91925Y110025D01*
Y109825D01*
X92025Y109725D01*
X92125D01*
X92225Y109825D01*
Y110025D01*
X92325Y110125D01*
X92425D01*
X92525Y110025D01*
Y109825D01*
X92425Y109725D01*
X92525Y110325D02*
X92125Y110725D01*
X91925Y110925D02*
Y111325D01*
Y111125D01*
X92525D01*
Y112524D02*
Y112124D01*
X92125Y112524D01*
X92025D01*
X91925Y112424D01*
Y112224D01*
X92025Y112124D01*
X122508Y54375D02*
X122175D01*
X122508Y54708D01*
Y54792D01*
X122425Y54875D01*
X122258D01*
X122175Y54792D01*
X122675D02*
X122758Y54875D01*
X122925D01*
X123008Y54792D01*
Y54458D01*
X122925Y54375D01*
X122758D01*
X122675Y54458D01*
Y54792D01*
X123175D02*
X123258Y54875D01*
X123425D01*
X123508Y54792D01*
Y54458D01*
X123425Y54375D01*
X123258D01*
X123175Y54458D01*
Y54792D01*
X124008Y54875D02*
X123841Y54792D01*
X123675Y54625D01*
Y54458D01*
X123758Y54375D01*
X123924D01*
X124008Y54458D01*
Y54542D01*
X123924Y54625D01*
X123675D01*
X124174Y54792D02*
X124258Y54875D01*
X124424D01*
X124508Y54792D01*
Y54458D01*
X124424Y54375D01*
X124258D01*
X124174Y54458D01*
Y54792D01*
X124674Y54458D02*
X124757Y54375D01*
X124924D01*
X125007Y54458D01*
Y54792D01*
X124924Y54875D01*
X124757D01*
X124674Y54792D01*
Y54708D01*
X124757Y54625D01*
X125007D01*
X125174Y54792D02*
X125257Y54875D01*
X125424D01*
X125507Y54792D01*
Y54458D01*
X125424Y54375D01*
X125257D01*
X125174Y54458D01*
Y54792D01*
X125674D02*
X125757Y54875D01*
X125924D01*
X126007Y54792D01*
Y54708D01*
X125924Y54625D01*
X125840D01*
X125924D01*
X126007Y54542D01*
Y54458D01*
X125924Y54375D01*
X125757D01*
X125674Y54458D01*
X112845Y55695D02*
X113045D01*
X112945D01*
Y55095D01*
X112845D01*
X113045D01*
X113345D02*
Y55695D01*
X113645D01*
X113745Y55595D01*
Y55395D01*
X113645Y55295D01*
X113345D01*
X113945Y55695D02*
X114345D01*
X114145D01*
Y55095D01*
X114944Y55595D02*
X114844Y55695D01*
X114644D01*
X114544Y55595D01*
Y55195D01*
X114644Y55095D01*
X114844D01*
X114944Y55195D01*
X115744Y55095D02*
Y55495D01*
X115944Y55695D01*
X116144Y55495D01*
Y55095D01*
Y55395D01*
X115744D01*
X116344Y55695D02*
Y55095D01*
X116644D01*
X116744Y55195D01*
Y55295D01*
X116644Y55395D01*
X116344D01*
X116644D01*
X116744Y55495D01*
Y55595D01*
X116644Y55695D01*
X116344D01*
X80175Y106925D02*
X80275Y107025D01*
Y107225D01*
X80175Y107325D01*
X79775D01*
X79675Y107225D01*
Y107025D01*
X79775Y106925D01*
X79875D01*
X79975Y107025D01*
Y107325D01*
X80275Y107525D02*
X80175D01*
Y107625D01*
X80275D01*
Y107525D01*
Y108025D02*
X80175D01*
Y108125D01*
X80275D01*
Y108025D01*
Y108525D02*
Y108725D01*
Y108625D01*
X79675D01*
X79775Y108525D01*
Y109024D02*
X79675Y109124D01*
Y109324D01*
X79775Y109424D01*
X79875D01*
X79975Y109324D01*
X80075Y109424D01*
X80175D01*
X80275Y109324D01*
Y109124D01*
X80175Y109024D01*
X80075D01*
X79975Y109124D01*
X79875Y109024D01*
X79775D01*
X79975Y109124D02*
Y109324D01*
X79675Y109624D02*
X80075D01*
X80275Y109824D01*
X80075Y110024D01*
X79675D01*
Y110224D02*
X80275D01*
Y110524D01*
X80175Y110624D01*
X79775D01*
X79675Y110524D01*
Y110224D01*
X79775Y111224D02*
X79675Y111124D01*
Y110924D01*
X79775Y110824D01*
X80175D01*
X80275Y110924D01*
Y111124D01*
X80175Y111224D01*
X80275Y111424D02*
X79875Y111824D01*
X80275Y112423D02*
Y112023D01*
X79875Y112423D01*
X79775D01*
X79675Y112323D01*
Y112123D01*
X79775Y112023D01*
X80275Y112623D02*
X79875D01*
X79675Y112823D01*
X79875Y113023D01*
X80275D01*
X79975D01*
Y112623D01*
X101675Y110025D02*
X101575Y109925D01*
Y109725D01*
X101675Y109625D01*
X101775D01*
X101875Y109725D01*
Y109925D01*
X101975Y110025D01*
X102075D01*
X102175Y109925D01*
Y109725D01*
X102075Y109625D01*
X102175Y110225D02*
X101775Y110625D01*
X101575Y110825D02*
Y111225D01*
Y111025D01*
X102175D01*
Y112024D02*
Y112224D01*
Y112124D01*
X101575D01*
X101675Y112024D01*
X107825Y109025D02*
Y109625D01*
X108125D01*
X108225Y109525D01*
Y109325D01*
X108125Y109225D01*
X107825D01*
X108025D02*
X108225Y109025D01*
X108725D02*
X108525D01*
X108425Y109125D01*
Y109325D01*
X108525Y109425D01*
X108725D01*
X108825Y109325D01*
Y109225D01*
X108425D01*
X109025Y109025D02*
X109325D01*
X109424Y109125D01*
X109325Y109225D01*
X109125D01*
X109025Y109325D01*
X109125Y109425D01*
X109424D01*
X109924Y109025D02*
X109724D01*
X109624Y109125D01*
Y109325D01*
X109724Y109425D01*
X109924D01*
X110024Y109325D01*
Y109225D01*
X109624D01*
X110324Y109525D02*
Y109425D01*
X110224D01*
X110424D01*
X110324D01*
Y109125D01*
X110424Y109025D01*
X71875Y55125D02*
X72075D01*
X71975D01*
Y54525D01*
X71875D01*
X72075D01*
X72375D02*
Y55125D01*
X72675D01*
X72775Y55025D01*
Y54825D01*
X72675Y54725D01*
X72375D01*
X72975Y55125D02*
X73375D01*
X73175D01*
Y54525D01*
X73974Y55025D02*
X73874Y55125D01*
X73674D01*
X73574Y55025D01*
Y54625D01*
X73674Y54525D01*
X73874D01*
X73974Y54625D01*
X74774Y54525D02*
Y54925D01*
X74974Y55125D01*
X75174Y54925D01*
Y54525D01*
Y54825D01*
X74774D01*
X75374Y55125D02*
Y54525D01*
X75674D01*
X75774Y54625D01*
Y54725D01*
X75674Y54825D01*
X75374D01*
X75674D01*
X75774Y54925D01*
Y55025D01*
X75674Y55125D01*
X75374D01*
D63*
X103775Y98508D02*
X103725Y98594D01*
X103625D01*
X103575Y98508D01*
X103625Y98421D01*
X103725D01*
X103775Y98508D01*
X72364Y58911D02*
X72267Y58901D01*
X72173Y58873D01*
X72086Y58827D01*
X72011Y58765D01*
X71949Y58689D01*
X71902Y58603D01*
X71874Y58509D01*
X71864Y58412D01*
X71873Y58314D01*
X91625Y98508D02*
X91575Y98594D01*
X91475D01*
X91425Y98508D01*
X91475Y98421D01*
X91575D01*
X91625Y98508D01*
X118773Y77672D02*
X118723Y77757D01*
X118625D01*
X118576Y77672D01*
X118625Y77587D01*
X118723D01*
X118773Y77672D01*
D65*
X81525Y59525D02*
X81725Y59325D01*
X81525Y58225D02*
X81725Y58425D01*
Y59325D01*
X77675Y58225D02*
Y59525D01*
X80325Y58225D02*
X81525D01*
X80325Y59525D02*
X81525D01*
X77675Y58225D02*
X79025D01*
X77675Y59525D02*
X79025D01*
X112565Y57295D02*
Y56495D01*
X112965D01*
X113098Y56628D01*
Y57162D01*
X112965Y57295D01*
X112565D01*
X113898D02*
X113365D01*
Y56495D01*
X113898D01*
X113365Y56895D02*
X113631D01*
X114164Y57295D02*
X114698Y56495D01*
Y57295D02*
X114164Y56495D01*
X115497D02*
X114964D01*
X115497Y57028D01*
Y57162D01*
X115364Y57295D01*
X115098D01*
X114964Y57162D01*
X115764D02*
X115897Y57295D01*
X116164D01*
X116297Y57162D01*
Y57028D01*
X116164Y56895D01*
X116297Y56762D01*
Y56628D01*
X116164Y56495D01*
X115897D01*
X115764Y56628D01*
Y56762D01*
X115897Y56895D01*
X115764Y57028D01*
Y57162D01*
X115897Y56895D02*
X116164D01*
X116564D02*
X117097D01*
X117363Y57295D02*
Y56495D01*
X117763D01*
X117897Y56628D01*
Y56762D01*
X117763Y56895D01*
X117363D01*
X117763D01*
X117897Y57028D01*
Y57162D01*
X117763Y57295D01*
X117363D01*
X118163Y56495D02*
Y57295D01*
X118563D01*
X118696Y57162D01*
Y56895D01*
X118563Y56762D01*
X118163D01*
X118430D02*
X118696Y56495D01*
X118963Y57295D02*
X119230D01*
X119096D01*
Y56495D01*
X118963D01*
X119230D01*
X120163D02*
X119629D01*
X120163Y57028D01*
Y57162D01*
X120029Y57295D01*
X119763D01*
X119629Y57162D01*
X120429Y56495D02*
Y57295D01*
X120829D01*
X120962Y57162D01*
Y56895D01*
X120829Y56762D01*
X120429D01*
D66*
X112995Y94216D02*
X112925Y94286D01*
X112855Y94216D01*
X112925Y94146D01*
X112995Y94216D01*
X72394Y59081D02*
X72290Y59071D01*
X72189Y59043D01*
X72095Y58996D01*
X72012Y58933D01*
X71941Y58856D01*
X71886Y58767D01*
X71848Y58669D01*
X71828Y58566D01*
X71828Y58462D01*
X71847Y58359D01*
X93395Y59234D02*
X93325Y59304D01*
X93255Y59234D01*
X93325Y59164D01*
X93395Y59234D01*
X81712Y109328D02*
X81787Y109397D01*
X81850Y109476D01*
X81902Y109563D01*
X81940Y109657D01*
X81965Y109755D01*
X81975Y109856D01*
X81970Y109957D01*
X81951Y110057D01*
X81918Y110152D01*
X81871Y110242D01*
X81812Y110324D01*
X81741Y110397D01*
X81661Y110459D01*
X81573Y110509D01*
X81478Y110545D01*
X81380Y110567D01*
X81279Y110575D01*
X81178Y110568D01*
X81079Y110547D01*
X80984Y110512D01*
X80895Y110463D01*
X80814Y110402D01*
X80743Y110330D01*
X80683Y110248D01*
X80635Y110159D01*
X80601Y110064D01*
X80581Y109964D01*
X80575Y109863D01*
X80584Y109762D01*
X80608Y109664D01*
X80645Y109570D01*
X80696Y109482D01*
X80758Y109403D01*
X80832Y109333D01*
X80915Y109275D01*
X81275Y108675D02*
Y109875D01*
Y110575D02*
Y111325D01*
D69*
X74264Y59017D02*
X74163Y59014D01*
X74063Y59005D01*
X73963Y58989D01*
X73865Y58967D01*
X73768Y58939D01*
X73674Y58905D01*
X73581Y58865D01*
X73491Y58819D01*
X73405Y58768D01*
X73321Y58711D01*
X73242Y58649D01*
X73166Y58583D01*
X73095Y58512D01*
X73029Y58436D01*
X72967Y58356D01*
X72910Y58273D01*
X72859Y58186D01*
X72813Y58097D01*
X72773Y58004D01*
X72739Y57909D01*
X72711Y57813D01*
X72689Y57714D01*
X72673Y57615D01*
X72664Y57515D01*
X72661Y57414D01*
X72664Y57313D01*
X72673Y57213D01*
X72689Y57114D01*
X72711Y57015D01*
X72739Y56918D01*
X72773Y56824D01*
X72813Y56731D01*
X72859Y56642D01*
X72910Y56555D01*
X72967Y56472D01*
X73029Y56392D01*
X73095Y56316D01*
X73166Y56245D01*
X73242Y56179D01*
X73321Y56117D01*
X73405Y56060D01*
X73491Y56009D01*
X73581Y55963D01*
X73674Y55923D01*
X73768Y55889D01*
X73865Y55861D01*
X73963Y55839D01*
X74063Y55823D01*
X74163Y55814D01*
X74264Y55811D01*
D70*
X75264Y57361D02*
X75363Y57375D01*
X75453Y57416D01*
X75528Y57481D01*
X75582Y57565D01*
X75610Y57661D01*
X75610Y57760D01*
X75582Y57856D01*
X75528Y57940D01*
X75453Y58005D01*
X75363Y58046D01*
X75264Y58061D01*
X74711Y58833D02*
X74618Y58871D01*
X74523Y58903D01*
X74426Y58928D01*
X74328Y58948D01*
X74229Y58962D01*
X74129Y58969D01*
X74029Y58970D01*
X73929Y58965D01*
X73829Y58953D01*
X73731Y58936D01*
X73633Y58912D01*
X73538Y58882D01*
X73444Y58847D01*
X73353Y58805D01*
X73265Y58758D01*
X73180Y58705D01*
X73098Y58648D01*
X73020Y58585D01*
X72946Y58517D01*
X72876Y58445D01*
X72811Y58369D01*
X72751Y58289D01*
X72697Y58205D01*
X72647Y58118D01*
X72603Y58028D01*
X72565Y57935D01*
X72532Y57841D01*
X72506Y57744D01*
X72486Y57646D01*
X72471Y57547D01*
X72464Y57447D01*
X72462Y57347D01*
X72467Y57247D01*
X72477Y57147D01*
X72494Y57049D01*
X72518Y56951D01*
X72547Y56856D01*
X72582Y56762D01*
X72623Y56670D01*
X72670Y56582D01*
X72722Y56496D01*
X72779Y56414D01*
X72841Y56336D01*
X72908Y56261D01*
X72980Y56191D01*
X73056Y56126D01*
X73136Y56066D01*
X73219Y56010D01*
X73306Y55960D01*
X73396Y55916D01*
X73488Y55877D01*
X73582Y55844D01*
X73679Y55817D01*
X73777Y55796D01*
X73876Y55781D01*
X73976Y55773D01*
X74076Y55771D01*
X74176Y55775D01*
X74275Y55785D01*
X74374Y55801D01*
X74472Y55824D01*
X74568Y55853D01*
X74662Y55887D01*
X74753Y55928D01*
X74842Y55974D01*
X74928Y56025D01*
X75010Y56082D01*
X75089Y56144D01*
X75164Y56211D01*
X75114Y57361D02*
X75213Y57375D01*
X75303Y57416D01*
X75378Y57481D01*
X75432Y57565D01*
X75460Y57661D01*
X75460Y57760D01*
X75432Y57856D01*
X75378Y57940D01*
X75303Y58005D01*
X75213Y58046D01*
X75114Y58061D01*
X81425Y109875D02*
X81390Y109972D01*
X81301Y110023D01*
X81200Y110005D01*
X81134Y109926D01*
Y109824D01*
X81200Y109745D01*
X81301Y109727D01*
X81390Y109779D01*
X81425Y109875D01*
X97294Y67092D02*
X97219Y67135D01*
Y67048D01*
X97294Y67092D01*
D75*
X98675Y54025D02*
X98664Y54125D01*
X98630Y54220D01*
X98577Y54306D01*
X98506Y54377D01*
X98420Y54431D01*
X98325Y54464D01*
X98225Y54475D01*
X98125Y54464D01*
X98030Y54431D01*
X97944Y54377D01*
X97873Y54306D01*
X97820Y54220D01*
X97786Y54125D01*
X97775Y54025D01*
X97786Y53925D01*
X97820Y53830D01*
X97873Y53745D01*
X97944Y53673D01*
X98030Y53620D01*
X98125Y53586D01*
X98225Y53575D01*
X98325Y53586D01*
X98420Y53620D01*
X98506Y53673D01*
X98577Y53745D01*
X98630Y53830D01*
X98664Y53925D01*
X98675Y54025D01*
X127175Y105525D02*
X127164Y105625D01*
X127130Y105720D01*
X127077Y105806D01*
X127006Y105877D01*
X126920Y105931D01*
X126825Y105964D01*
X126725Y105975D01*
X126625Y105964D01*
X126530Y105931D01*
X126444Y105877D01*
X126373Y105806D01*
X126320Y105720D01*
X126286Y105625D01*
X126275Y105525D01*
X126286Y105425D01*
X126320Y105330D01*
X126373Y105245D01*
X126444Y105173D01*
X126530Y105120D01*
X126625Y105086D01*
X126725Y105075D01*
X126825Y105086D01*
X126920Y105120D01*
X127006Y105173D01*
X127077Y105245D01*
X127130Y105330D01*
X127164Y105425D01*
X127175Y105525D01*
X70825Y106075D02*
X70814Y106175D01*
X70780Y106270D01*
X70727Y106356D01*
X70656Y106427D01*
X70570Y106481D01*
X70475Y106514D01*
X70375Y106525D01*
X70275Y106514D01*
X70180Y106481D01*
X70094Y106427D01*
X70023Y106356D01*
X69970Y106270D01*
X69936Y106175D01*
X69925Y106075D01*
X69936Y105975D01*
X69970Y105880D01*
X70023Y105795D01*
X70094Y105723D01*
X70180Y105670D01*
X70275Y105636D01*
X70375Y105625D01*
X70475Y105636D01*
X70570Y105670D01*
X70656Y105723D01*
X70727Y105795D01*
X70780Y105880D01*
X70814Y105975D01*
X70825Y106075D01*
X107275Y111775D02*
X107261Y111874D01*
X107219Y111964D01*
X107154Y112040D01*
X107070Y112093D01*
X106975Y112122D01*
X106875Y112122D01*
X106780Y112093D01*
X106696Y112040D01*
X106631Y111964D01*
X106589Y111874D01*
X106575Y111775D01*
X106589Y111676D01*
X106631Y111586D01*
X106696Y111511D01*
X106780Y111457D01*
X106875Y111429D01*
X106975Y111429D01*
X107070Y111457D01*
X107154Y111511D01*
X107219Y111586D01*
X107261Y111676D01*
X107275Y111775D01*
Y112775D02*
X107261Y112874D01*
X107219Y112964D01*
X107154Y113040D01*
X107070Y113093D01*
X106975Y113122D01*
X106875Y113122D01*
X106780Y113093D01*
X106696Y113040D01*
X106631Y112964D01*
X106589Y112874D01*
X106575Y112775D01*
X106589Y112676D01*
X106631Y112586D01*
X106696Y112511D01*
X106780Y112457D01*
X106875Y112429D01*
X106975Y112429D01*
X107070Y112457D01*
X107154Y112511D01*
X107219Y112586D01*
X107261Y112676D01*
X107275Y112775D01*
X98775Y105625D02*
Y107542D01*
Y105625D02*
Y108625D01*
X100775Y105625D02*
Y108625D01*
X98775D02*
X100775D01*
X98775Y105625D02*
X100775D01*
X73306Y93809D02*
Y94046D01*
X70944Y93809D02*
Y94046D01*
X71141Y91605D02*
X73109D01*
X70944Y94046D02*
X73306D01*
X73109Y91605D02*
X73306Y91801D01*
Y91929D01*
X70944Y91801D02*
X71141Y91605D01*
X70944Y91801D02*
Y91929D01*
X74994Y75055D02*
Y75291D01*
X77356Y75055D02*
Y75291D01*
X75191Y77496D02*
X77159D01*
X74994Y75055D02*
X77356D01*
X74994Y77299D02*
X75191Y77496D01*
X74994Y77171D02*
Y77299D01*
X77159Y77496D02*
X77356Y77299D01*
Y77171D02*
Y77299D01*
X71975Y80875D02*
X72975D01*
Y78875D02*
Y80875D01*
X71975Y78875D02*
Y80875D01*
Y78875D02*
X72975D01*
X76175Y83925D02*
X76475D01*
X76175Y86735D02*
X76475D01*
X78275Y83925D02*
X78575D01*
X78275Y86735D02*
X78575D01*
X94475Y101925D02*
X96475D01*
X94475Y103925D02*
X96475D01*
Y101925D02*
Y103925D01*
X94475Y101925D02*
Y103925D01*
X82325Y101925D02*
X84325D01*
X82325Y103925D02*
X84325D01*
Y101925D02*
Y103925D01*
X82325Y101925D02*
Y103925D01*
X104975Y92225D02*
X105155D01*
X103845D02*
X104025D01*
X103845Y91425D02*
Y92225D01*
X105155Y91425D02*
Y92225D01*
X95625Y92325D02*
X95805D01*
X94495D02*
X94675D01*
X94495Y91525D02*
Y92325D01*
X95805Y91525D02*
Y92325D01*
X93005Y91425D02*
Y92225D01*
X91695Y91425D02*
Y92225D01*
X91875D01*
X92825D02*
X93005D01*
X83905Y91775D02*
Y92575D01*
X82595Y91775D02*
Y92575D01*
X82775D01*
X83725D02*
X83905D01*
X122915Y77215D02*
Y77875D01*
X123635Y77215D02*
Y77875D01*
X122915Y78475D02*
Y79055D01*
X123635Y78475D02*
Y79055D01*
X122915Y77215D02*
X123635D01*
X123005Y79145D02*
X123545D01*
X123635Y79055D01*
X122915D02*
X123005Y79145D01*
X103315Y110755D02*
X103405Y110845D01*
X103945D02*
X104035Y110755D01*
X103405Y110845D02*
X103945D01*
X103315Y108915D02*
X104035D01*
Y110175D02*
Y110755D01*
X103315Y110175D02*
Y110755D01*
X104035Y108915D02*
Y109575D01*
X103315Y108915D02*
Y109575D01*
X116137Y100175D02*
Y100835D01*
X115417Y100175D02*
Y100835D01*
X116137Y98995D02*
Y99575D01*
X115417Y98995D02*
Y99575D01*
Y100835D02*
X116137D01*
X115507Y98905D02*
X116047D01*
X115417Y98995D02*
X115507Y98905D01*
X116047D02*
X116137Y98995D01*
X115849Y91025D02*
X116149D01*
X115849Y90225D02*
Y91025D01*
Y90225D02*
X116149D01*
X117449Y90375D02*
Y90875D01*
X117299Y91025D02*
X117449Y90875D01*
X117049Y91025D02*
X117299D01*
X117049Y90225D02*
X117299D01*
X117449Y90375D01*
X95549Y99825D02*
X96266D01*
X95549Y94888D02*
X96266D01*
X104084D02*
X104801D01*
X104069Y99825D02*
X104289D01*
X104801Y99313D01*
X97995Y89425D02*
Y90225D01*
X99305Y89425D02*
Y90225D01*
X99125Y89425D02*
X99305D01*
X97995D02*
X98175D01*
X96595D02*
Y90225D01*
X97905Y89425D02*
Y90225D01*
X97725Y89425D02*
X97905D01*
X96595D02*
X96775D01*
X103075Y89795D02*
Y89975D01*
Y90925D02*
Y91105D01*
X102275D02*
X103075D01*
X102275Y89795D02*
X103075D01*
X100595Y89575D02*
X100775D01*
X101725D02*
X101905D01*
Y90375D01*
X100595Y89575D02*
Y90375D01*
X99875Y91295D02*
Y91475D01*
Y92425D02*
Y92605D01*
X99075D02*
X99875D01*
X99075Y91295D02*
X99875D01*
X96475Y92425D02*
Y92605D01*
Y91295D02*
Y91475D01*
Y91295D02*
X97275D01*
X96475Y92605D02*
X97275D01*
X103125Y92275D02*
X103305D01*
X101995D02*
X102175D01*
X101995Y91475D02*
Y92275D01*
X103305Y91475D02*
Y92275D01*
X101725D02*
X101905D01*
X100595D02*
X100775D01*
X100595Y91475D02*
Y92275D01*
X101905Y91475D02*
Y92275D01*
X87315Y74985D02*
X87975D01*
X87315Y74265D02*
X87975D01*
X88575Y74985D02*
X89155D01*
X88575Y74265D02*
X89155D01*
X87315D02*
Y74985D01*
X89245Y74355D02*
Y74895D01*
X89155Y74265D02*
X89245Y74355D01*
X89155Y74985D02*
X89245Y74895D01*
X105265Y83735D02*
X105925D01*
X105265Y83015D02*
X105925D01*
X106525Y83735D02*
X107105D01*
X106525Y83015D02*
X107105D01*
X105265D02*
Y83735D01*
X107195Y83105D02*
Y83645D01*
X107105Y83015D02*
X107195Y83105D01*
X107105Y83735D02*
X107195Y83645D01*
X93515Y104075D02*
X94575D01*
X92725D02*
Y105575D01*
X95375Y104075D02*
Y105575D01*
X93525D02*
X94585D01*
X105765Y102565D02*
Y103225D01*
X106485Y102565D02*
Y103225D01*
X105765Y103825D02*
Y104405D01*
X106485Y103825D02*
Y104405D01*
X105765Y102565D02*
X106485D01*
X105855Y104495D02*
X106395D01*
X106485Y104405D01*
X105765D02*
X105855Y104495D01*
X96655Y63005D02*
X96745Y62915D01*
X96655Y63545D02*
X96745Y63635D01*
X96655Y63005D02*
Y63545D01*
X98585Y62915D02*
Y63635D01*
X96745D02*
X97325D01*
X96745Y62915D02*
X97325D01*
X97925Y63635D02*
X98585D01*
X97925Y62915D02*
X98585D01*
X90645Y75455D02*
X90735Y75545D01*
X90015D02*
X90105Y75455D01*
X90645D01*
X90015Y77385D02*
X90735D01*
X90015Y75545D02*
Y76125D01*
X90735Y75545D02*
Y76125D01*
X90015Y76725D02*
Y77385D01*
X90735Y76725D02*
Y77385D01*
X87355Y66255D02*
X87445Y66165D01*
X87355Y66795D02*
X87445Y66885D01*
X87355Y66255D02*
Y66795D01*
X89285Y66165D02*
Y66885D01*
X87445D02*
X88025D01*
X87445Y66165D02*
X88025D01*
X88625Y66885D02*
X89285D01*
X88625Y66165D02*
X89285D01*
X98815Y65355D02*
X98905Y65445D01*
X99445D02*
X99535Y65355D01*
X98905Y65445D02*
X99445D01*
X98815Y63515D02*
X99535D01*
Y64775D02*
Y65355D01*
X98815Y64775D02*
Y65355D01*
X99535Y63515D02*
Y64175D01*
X98815Y63515D02*
Y64175D01*
X105075Y113375D02*
Y114175D01*
Y113375D02*
X105475D01*
X105075Y114175D02*
X105475D01*
X106275D02*
X106825D01*
X106975Y114025D01*
Y113525D02*
Y114025D01*
X106825Y113375D02*
X106975Y113525D01*
X106275Y113375D02*
X106825D01*
X98635Y59675D02*
Y60335D01*
X97915Y59675D02*
Y60335D01*
X98635Y58495D02*
Y59075D01*
X97915Y58495D02*
Y59075D01*
Y60335D02*
X98635D01*
X98005Y58405D02*
X98545D01*
X97915Y58495D02*
X98005Y58405D01*
X98545D02*
X98635Y58495D01*
X109285Y59625D02*
Y60285D01*
X108565Y59625D02*
Y60285D01*
X109285Y58445D02*
Y59025D01*
X108565Y58445D02*
Y59025D01*
Y60285D02*
X109285D01*
X108655Y58355D02*
X109195D01*
X108565Y58445D02*
X108655Y58355D01*
X109195D02*
X109285Y58445D01*
X118115Y61535D02*
X118775D01*
X118115Y60815D02*
X118775D01*
X119375Y61535D02*
X119955D01*
X119375Y60815D02*
X119955D01*
X118115D02*
Y61535D01*
X120045Y60905D02*
Y61445D01*
X119955Y60815D02*
X120045Y60905D01*
X119955Y61535D02*
X120045Y61445D01*
X126695Y71055D02*
X126785Y71145D01*
X126065D02*
X126155Y71055D01*
X126695D01*
X126065Y72985D02*
X126785D01*
X126065Y71145D02*
Y71725D01*
X126785Y71145D02*
Y71725D01*
X126065Y72325D02*
Y72985D01*
X126785Y72325D02*
Y72985D01*
X118315Y74105D02*
X118405Y74195D01*
X118945D02*
X119035Y74105D01*
X118405Y74195D02*
X118945D01*
X118315Y72265D02*
X119035D01*
Y73525D02*
Y74105D01*
X118315Y73525D02*
Y74105D01*
X119035Y72265D02*
Y72925D01*
X118315Y72265D02*
Y72925D01*
X122415Y87015D02*
X123075D01*
X122415Y87735D02*
X123075D01*
X121235Y87015D02*
X121815D01*
X121235Y87735D02*
X121815D01*
X123075Y87015D02*
Y87735D01*
X121145Y87105D02*
Y87645D01*
X121235Y87735D01*
X121145Y87105D02*
X121235Y87015D01*
X110265Y72455D02*
X110355Y72545D01*
X110895D02*
X110985Y72455D01*
X110355Y72545D02*
X110895D01*
X110265Y70615D02*
X110985D01*
Y71875D02*
Y72455D01*
X110265Y71875D02*
Y72455D01*
X110985Y70615D02*
Y71275D01*
X110265Y70615D02*
Y71275D01*
X99854Y77175D02*
Y77275D01*
X99789Y76725D02*
Y77745D01*
X99804Y77175D02*
X99904D01*
Y77275D01*
X99804D02*
X99904D01*
X101009Y76729D02*
Y77749D01*
X80956Y62171D02*
Y62299D01*
X80759Y62496D02*
X80956Y62299D01*
X78594Y62171D02*
Y62299D01*
X78791Y62496D01*
X78594Y60055D02*
X80956D01*
X78791Y62496D02*
X80759D01*
X80956Y60055D02*
Y60291D01*
X78594Y60055D02*
Y60291D01*
X98696Y79275D02*
Y79375D01*
X98761Y78805D02*
Y79825D01*
X98646Y79375D02*
X98746D01*
X98646Y79275D02*
Y79375D01*
Y79275D02*
X98746D01*
X97541Y78801D02*
Y79821D01*
X89499Y59625D02*
X89649Y59775D01*
X89249Y59625D02*
X89499D01*
X89249Y60425D02*
X89499D01*
X89649Y60275D01*
Y59775D02*
Y60275D01*
X88049Y59625D02*
X88349D01*
X88049D02*
Y60425D01*
X88349D01*
X89351Y56975D02*
X89651D01*
Y57775D01*
X89351D02*
X89651D01*
X88051Y57125D02*
Y57625D01*
Y57125D02*
X88201Y56975D01*
X88451D01*
X88201Y57775D02*
X88451D01*
X88051Y57625D02*
X88201Y57775D01*
X88925Y58051D02*
X89075Y57901D01*
X88925Y58051D02*
Y58301D01*
X89725Y58051D02*
Y58301D01*
X89575Y57901D02*
X89725Y58051D01*
X89075Y57901D02*
X89575D01*
X88925Y59201D02*
Y59501D01*
X89725D01*
Y59201D02*
Y59501D01*
X87975Y57899D02*
Y58199D01*
Y57899D02*
X88775D01*
Y58199D01*
X88125Y59499D02*
X88625D01*
X87975Y59349D02*
X88125Y59499D01*
X87975Y59099D02*
Y59349D01*
X88775Y59099D02*
Y59349D01*
X88625Y59499D02*
X88775Y59349D01*
X100025Y67615D02*
X100685D01*
X100025Y68335D02*
X100685D01*
X98845Y67615D02*
X99425D01*
X98845Y68335D02*
X99425D01*
X100685Y67615D02*
Y68335D01*
X98755Y67705D02*
Y68245D01*
X98845Y68335D01*
X98755Y67705D02*
X98845Y67615D01*
X105925Y114775D02*
X106125D01*
X105925Y110775D02*
X106125D01*
X105925Y113775D02*
X106125D01*
X106025Y110775D02*
Y114775D01*
Y112425D02*
X106275Y112175D01*
X105775D02*
X106025Y112425D01*
X73485Y109155D02*
Y109305D01*
Y107745D02*
Y107895D01*
X75725Y109155D02*
Y109305D01*
Y107745D02*
Y107895D01*
X73485Y109305D02*
X75725D01*
X73485Y107745D02*
X75725D01*
X91155Y91475D02*
Y92275D01*
X89845Y91475D02*
Y92275D01*
X90025D01*
X90975D02*
X91155D01*
X88445Y89575D02*
Y90375D01*
X89755Y89575D02*
Y90375D01*
X89575Y89575D02*
X89755D01*
X88445D02*
X88625D01*
X89755Y91475D02*
Y92275D01*
X88445Y91475D02*
Y92275D01*
X88625D01*
X89575D02*
X89755D01*
X84325Y92605D02*
X85125D01*
X84325Y91295D02*
X85125D01*
X84325D02*
Y91475D01*
Y92425D02*
Y92605D01*
X86925Y91295D02*
X87725D01*
X86925Y92605D02*
X87725D01*
Y92425D02*
Y92605D01*
Y91295D02*
Y91475D01*
X84445Y89425D02*
X84625D01*
X85575D02*
X85755D01*
Y90225D01*
X84445Y89425D02*
Y90225D01*
X85845Y89425D02*
X86025D01*
X86975D02*
X87155D01*
Y90225D01*
X85845Y89425D02*
Y90225D01*
X92139Y99825D02*
X92651Y99313D01*
X91919Y99825D02*
X92139D01*
X91934Y94888D02*
X92651D01*
X83399D02*
X84116D01*
X83399Y99825D02*
X84116D01*
X96575Y105625D02*
X98575D01*
X96575Y108625D02*
X98575D01*
Y105625D02*
Y108625D01*
X96575Y105625D02*
Y108625D01*
Y105625D02*
Y107542D01*
X89175Y105625D02*
Y107542D01*
Y105625D02*
Y108625D01*
X91175Y105625D02*
Y108625D01*
X89175D02*
X91175D01*
X89175Y105625D02*
X91175D01*
X86975D02*
Y107542D01*
Y105625D02*
Y108625D01*
X88975Y105625D02*
Y108625D01*
X86975D02*
X88975D01*
X86975Y105625D02*
X88975D01*
X86025Y103875D02*
Y104875D01*
X90025D01*
X86025Y103875D02*
X90025D01*
Y104875D01*
X102175Y103875D02*
Y104875D01*
X98175Y103875D02*
X102175D01*
X98175Y104875D02*
X102175D01*
X98175Y103875D02*
Y104875D01*
X71590Y63975D02*
X72075D01*
X79175D02*
X79660D01*
X77225D02*
X78025D01*
X75225D02*
X76025D01*
X73225D02*
X74025D01*
X79175Y72975D02*
X79660D01*
X71590D02*
X72075D01*
X73225D02*
X74025D01*
X71590Y63975D02*
Y72975D01*
X79660Y63975D02*
Y72975D01*
X75225D02*
X78025D01*
X80835Y101805D02*
X83075D01*
X80835Y100245D02*
X83075D01*
X80835Y101655D02*
Y101805D01*
Y100245D02*
Y100395D01*
X83075Y101655D02*
Y101805D01*
Y100245D02*
Y100395D01*
X92985Y101805D02*
X95225D01*
X92985Y100245D02*
X95225D01*
X92985Y101655D02*
Y101805D01*
Y100245D02*
Y100395D01*
X95225Y101655D02*
Y101805D01*
Y100245D02*
Y100395D01*
X81375Y105575D02*
X82435D01*
X83225Y104075D02*
Y105575D01*
X80575Y104075D02*
Y105575D01*
X81365Y104075D02*
X82425D01*
X70583Y83464D02*
Y84744D01*
Y83464D02*
X75504D01*
X70583Y88386D02*
X75504D01*
Y83464D02*
Y84744D01*
Y87106D02*
Y88386D01*
X70583Y87106D02*
Y88386D01*
X90925Y89795D02*
Y89975D01*
Y90925D02*
Y91105D01*
X90125D02*
X90925D01*
X90125Y89795D02*
X90925D01*
X107906Y97427D02*
Y97527D01*
X107841Y96977D02*
Y97997D01*
X107856Y97427D02*
X107956D01*
Y97527D01*
X107856D02*
X107956D01*
X109061Y96981D02*
Y98001D01*
X107956Y95127D02*
Y95227D01*
X107891Y94677D02*
Y95697D01*
X107906Y95127D02*
X108006D01*
Y95227D01*
X107906D02*
X108006D01*
X109111Y94681D02*
Y95701D01*
X106875Y100999D02*
Y101299D01*
Y100999D02*
X107675D01*
Y101299D01*
X107025Y102599D02*
X107525D01*
X106875Y102449D02*
X107025Y102599D01*
X106875Y102199D02*
Y102449D01*
X107675Y102199D02*
Y102449D01*
X107525Y102599D02*
X107675Y102449D01*
X109125Y99225D02*
Y100225D01*
X111125D01*
X109125Y99225D02*
X111125D01*
Y100225D01*
X109525Y101425D02*
X109705D01*
X108395D02*
X108575D01*
X108395Y100625D02*
Y101425D01*
X109705Y100625D02*
Y101425D01*
X106275Y110375D02*
X106825D01*
X106975Y110525D01*
Y111025D01*
X106825Y111175D02*
X106975Y111025D01*
X106275Y111175D02*
X106825D01*
X105075D02*
X105475D01*
X105075Y110375D02*
X105475D01*
X105075D02*
Y111175D01*
X122133Y55212D02*
X126133D01*
X122133Y56212D02*
X126133D01*
X123133Y55212D02*
Y56212D01*
X122133Y55212D02*
Y56212D01*
X124133Y55212D02*
Y56212D01*
X125133Y55212D02*
Y56212D01*
X126133Y55212D02*
Y56212D01*
X99075Y108925D02*
Y108758D01*
Y108842D01*
X99575D01*
X99492Y108925D01*
X100075Y108792D02*
Y109125D01*
X100408Y108792D01*
X100492D01*
X100575Y108875D01*
Y109042D01*
X100492Y109125D01*
X99575Y105192D02*
Y105525D01*
X99325D01*
X99408Y105358D01*
Y105275D01*
X99325Y105192D01*
X99158D01*
X99075Y105275D01*
Y105442D01*
X99158Y105525D01*
X100575Y105192D02*
X100492Y105358D01*
X100325Y105525D01*
X100158D01*
X100075Y105442D01*
Y105275D01*
X100158Y105192D01*
X100242D01*
X100325Y105275D01*
Y105525D01*
X97008Y103225D02*
X96675D01*
X97008Y103558D01*
Y103642D01*
X96925Y103725D01*
X96758D01*
X96675Y103642D01*
X93975Y103275D02*
X94142D01*
X94058D01*
Y103775D01*
X93975Y103692D01*
X96925Y102125D02*
Y102625D01*
X96675Y102375D01*
X97008D01*
X93875Y102542D02*
X93958Y102625D01*
X94125D01*
X94208Y102542D01*
Y102458D01*
X94125Y102375D01*
X94042D01*
X94125D01*
X94208Y102292D01*
Y102208D01*
X94125Y102125D01*
X93958D01*
X93875Y102208D01*
X84858Y103225D02*
X84525D01*
X84858Y103558D01*
Y103642D01*
X84775Y103725D01*
X84608D01*
X84525Y103642D01*
X81825Y103275D02*
X81992D01*
X81908D01*
Y103775D01*
X81825Y103692D01*
X84775Y102125D02*
Y102625D01*
X84525Y102375D01*
X84858D01*
X81725Y102542D02*
X81808Y102625D01*
X81975D01*
X82058Y102542D01*
Y102458D01*
X81975Y102375D01*
X81892D01*
X81975D01*
X82058Y102292D01*
Y102208D01*
X81975Y102125D01*
X81808D01*
X81725Y102208D01*
X115075Y89925D02*
X115342D01*
X115208Y90058D02*
Y89792D01*
X115475Y89725D02*
X115608D01*
X115542D01*
Y90125D01*
X115475Y90058D01*
X115808Y89725D02*
Y89792D01*
X115875D01*
Y89725D01*
X115808D01*
X116141Y90058D02*
X116208Y90125D01*
X116341D01*
X116408Y90058D01*
Y89992D01*
X116341Y89925D01*
X116408Y89858D01*
Y89792D01*
X116341Y89725D01*
X116208D01*
X116141Y89792D01*
Y89858D01*
X116208Y89925D01*
X116141Y89992D01*
Y90058D01*
X116208Y89925D02*
X116341D01*
X116541Y90125D02*
Y89858D01*
X116674Y89725D01*
X116808Y89858D01*
Y90125D01*
X98375Y105192D02*
X98292Y105358D01*
X98125Y105525D01*
X97958D01*
X97875Y105442D01*
Y105275D01*
X97958Y105192D01*
X98042D01*
X98125Y105275D01*
Y105525D01*
X97375Y105192D02*
Y105525D01*
X97125D01*
X97208Y105358D01*
Y105275D01*
X97125Y105192D01*
X96958D01*
X96875Y105275D01*
Y105442D01*
X96958Y105525D01*
X97875Y108792D02*
Y109125D01*
X98208Y108792D01*
X98292D01*
X98375Y108875D01*
Y109042D01*
X98292Y109125D01*
X96875Y108925D02*
Y108758D01*
Y108842D01*
X97375D01*
X97292Y108925D01*
X89475D02*
Y108758D01*
Y108842D01*
X89975D01*
X89892Y108925D01*
X90475Y108792D02*
Y109125D01*
X90808Y108792D01*
X90892D01*
X90975Y108875D01*
Y109042D01*
X90892Y109125D01*
X89975Y105192D02*
Y105525D01*
X89725D01*
X89808Y105358D01*
Y105275D01*
X89725Y105192D01*
X89558D01*
X89475Y105275D01*
Y105442D01*
X89558Y105525D01*
X90975Y105192D02*
X90892Y105358D01*
X90725Y105525D01*
X90558D01*
X90475Y105442D01*
Y105275D01*
X90558Y105192D01*
X90642D01*
X90725Y105275D01*
Y105525D01*
X87275Y108925D02*
Y108758D01*
Y108842D01*
X87775D01*
X87692Y108925D01*
X88275Y108792D02*
Y109125D01*
X88608Y108792D01*
X88692D01*
X88775Y108875D01*
Y109042D01*
X88692Y109125D01*
X87775Y105192D02*
Y105525D01*
X87525D01*
X87608Y105358D01*
Y105275D01*
X87525Y105192D01*
X87358D01*
X87275Y105275D01*
Y105442D01*
X87358Y105525D01*
X88775Y105192D02*
X88692Y105358D01*
X88525Y105525D01*
X88358D01*
X88275Y105442D01*
Y105275D01*
X88358Y105192D01*
X88442D01*
X88525Y105275D01*
Y105525D01*
X87425Y63575D02*
X87758D01*
X87592Y63742D02*
Y63408D01*
X87925Y63325D02*
X88091D01*
X88008D01*
Y63825D01*
X87925Y63742D01*
X88341Y63325D02*
Y63408D01*
X88425D01*
Y63325D01*
X88341D01*
X89091Y63825D02*
X88925Y63742D01*
X88758Y63575D01*
Y63408D01*
X88841Y63325D01*
X89008D01*
X89091Y63408D01*
Y63492D01*
X89008Y63575D01*
X88758D01*
X89258Y63825D02*
Y63492D01*
X89424Y63325D01*
X89591Y63492D01*
Y63825D01*
X77775Y57075D02*
X78108D01*
X77942Y57242D02*
Y56908D01*
X78275Y57242D02*
X78358Y57325D01*
X78525D01*
X78608Y57242D01*
Y57158D01*
X78525Y57075D01*
X78441D01*
X78525D01*
X78608Y56992D01*
Y56908D01*
X78525Y56825D01*
X78358D01*
X78275Y56908D01*
X78775Y56825D02*
Y56908D01*
X78858D01*
Y56825D01*
X78775D01*
X79191Y57242D02*
X79275Y57325D01*
X79441D01*
X79524Y57242D01*
Y57158D01*
X79441Y57075D01*
X79358D01*
X79441D01*
X79524Y56992D01*
Y56908D01*
X79441Y56825D01*
X79275D01*
X79191Y56908D01*
X79691Y57325D02*
Y56992D01*
X79858Y56825D01*
X80024Y56992D01*
Y57325D01*
X79075Y95525D02*
X79408D01*
X79242Y95692D02*
Y95358D01*
X79575Y95692D02*
X79658Y95775D01*
X79825D01*
X79908Y95692D01*
Y95608D01*
X79825Y95525D01*
X79741D01*
X79825D01*
X79908Y95442D01*
Y95358D01*
X79825Y95275D01*
X79658D01*
X79575Y95358D01*
X80075D02*
X80158Y95275D01*
X80325D01*
X80408Y95358D01*
Y95692D01*
X80325Y95775D01*
X80158D01*
X80075Y95692D01*
Y95608D01*
X80158Y95525D01*
X80408D01*
X80575Y95775D02*
Y95442D01*
X80741Y95275D01*
X80908Y95442D01*
Y95775D01*
X71225Y94425D02*
Y94925D01*
X71475D01*
X71558Y94842D01*
Y94675D01*
X71475Y94592D01*
X71225D01*
X72058Y94842D02*
X71975Y94925D01*
X71808D01*
X71725Y94842D01*
Y94508D01*
X71808Y94425D01*
X71975D01*
X72058Y94508D01*
Y94675D01*
X71891D01*
X72225Y94425D02*
Y94925D01*
X72558Y94425D01*
Y94925D01*
X72725D02*
Y94425D01*
X72974D01*
X73058Y94508D01*
Y94842D01*
X72974Y94925D01*
X72725D01*
X76275D02*
Y94592D01*
X76442Y94425D01*
X76608Y94592D01*
Y94925D01*
X76775D02*
X76941D01*
X76858D01*
Y94425D01*
X76775D01*
X76941D01*
X77191D02*
Y94925D01*
X77525Y94425D01*
Y94925D01*
D79*
X113777Y69668D02*
X113723Y69742D01*
X113635Y69714D01*
Y69621D01*
X113723Y69593D01*
X113777Y69668D01*
X121777Y72218D02*
X121723Y72292D01*
X121635Y72264D01*
Y72171D01*
X121723Y72143D01*
X121777Y72218D01*
X106283Y57450D02*
X106229Y57525D01*
X106141Y57496D01*
Y57404D01*
X106229Y57375D01*
X106283Y57450D01*
X107129Y70805D02*
X107075Y70880D01*
X106986Y70851D01*
Y70758D01*
X107075Y70730D01*
X107129Y70805D01*
D86*
X122825Y56725D02*
Y57725D01*
X123325D01*
X123491Y57558D01*
Y57225D01*
X123325Y57058D01*
X122825D01*
X123158D02*
X123491Y56725D01*
X123825D02*
X124158D01*
X123991D01*
Y57725D01*
X123825Y57558D01*
X124658Y56725D02*
Y57392D01*
X124991Y57725D01*
X125324Y57392D01*
Y56725D01*
Y57225D01*
X124658D01*
D103*
X77414Y80725D02*
X77355Y80784D01*
X77295Y80725D01*
X77355Y80666D01*
X77414Y80725D01*
X114286Y100555D02*
X114227Y100614D01*
X114168Y100555D01*
X114227Y100496D01*
X114286Y100555D01*
X124414Y87570D02*
X124355Y87629D01*
X124296Y87570D01*
X124355Y87511D01*
X124414Y87570D01*
X76375Y86075D02*
X78325D01*
X74785Y107925D02*
Y109125D01*
X81775Y100425D02*
Y101625D01*
X93925Y100425D02*
Y101625D01*
D104*
X77156Y80517D02*
X77129Y80619D01*
X77055Y80693D01*
X76953Y80720D01*
X76851Y80693D01*
X76777Y80619D01*
X76750Y80517D01*
X112600Y94478D02*
X112703Y94502D01*
X112785Y94567D01*
X112830Y94662D01*
Y94767D01*
X112785Y94862D01*
X112703Y94927D01*
X112600Y94951D01*
X93650Y58972D02*
X93547Y58949D01*
X93465Y58883D01*
X93420Y58788D01*
Y58683D01*
X93465Y58588D01*
X93547Y58523D01*
X93650Y58500D01*
X114436Y100356D02*
X114334Y100329D01*
X114260Y100255D01*
X114232Y100153D01*
X114260Y100051D01*
X114334Y99977D01*
X114436Y99950D01*
X77156Y80517D02*
X77563D01*
X76348D02*
X76750D01*
X76348Y82525D02*
X77563D01*
Y80517D02*
Y82525D01*
X76348Y80517D02*
Y82525D01*
X115553Y94006D02*
Y95423D01*
X112600Y94951D02*
Y95423D01*
Y94006D02*
Y94478D01*
X90697Y58027D02*
Y59444D01*
X93650Y58027D02*
Y58500D01*
Y58972D02*
Y59444D01*
X114436Y100356D02*
Y100763D01*
Y99548D02*
Y99950D01*
X112428Y99548D02*
Y100763D01*
X114436D01*
X112428Y99548D02*
X114436D01*
D105*
X121127Y111275D02*
X121120Y111375D01*
X121098Y111473D01*
X121063Y111567D01*
X121015Y111655D01*
X120955Y111735D01*
X120885Y111805D01*
X120804Y111865D01*
X120717Y111913D01*
X120623Y111948D01*
X120525Y111970D01*
X120425Y111977D01*
X120325Y111970D01*
X120227Y111948D01*
X120133Y111913D01*
X120046Y111865D01*
X119965Y111805D01*
X119895Y111735D01*
X119835Y111655D01*
X119787Y111567D01*
X119752Y111473D01*
X119730Y111375D01*
X119723Y111275D01*
X119730Y111175D01*
X119752Y111077D01*
X119787Y110984D01*
X119835Y110896D01*
X119895Y110816D01*
X119965Y110745D01*
X120046Y110685D01*
X120133Y110637D01*
X120227Y110602D01*
X120325Y110580D01*
X120425Y110573D01*
X120525Y110580D01*
X120623Y110602D01*
X120717Y110637D01*
X120804Y110685D01*
X120885Y110745D01*
X120955Y110816D01*
X121015Y110896D01*
X121063Y110984D01*
X121098Y111077D01*
X121120Y111175D01*
X121127Y111275D01*
X125627D02*
X125620Y111375D01*
X125598Y111473D01*
X125563Y111567D01*
X125515Y111655D01*
X125455Y111735D01*
X125385Y111805D01*
X125304Y111865D01*
X125217Y111913D01*
X125123Y111948D01*
X125025Y111970D01*
X124925Y111977D01*
X124825Y111970D01*
X124727Y111948D01*
X124633Y111913D01*
X124546Y111865D01*
X124465Y111805D01*
X124395Y111735D01*
X124335Y111655D01*
X124287Y111567D01*
X124252Y111473D01*
X124230Y111375D01*
X124223Y111275D01*
X124230Y111175D01*
X124252Y111077D01*
X124287Y110984D01*
X124335Y110896D01*
X124395Y110816D01*
X124465Y110745D01*
X124546Y110685D01*
X124633Y110637D01*
X124727Y110602D01*
X124825Y110580D01*
X124925Y110573D01*
X125025Y110580D01*
X125123Y110602D01*
X125217Y110637D01*
X125304Y110685D01*
X125385Y110745D01*
X125455Y110816D01*
X125515Y110896D01*
X125563Y110984D01*
X125598Y111077D01*
X125620Y111175D01*
X125627Y111275D01*
X81825Y108085D02*
X81816Y108183D01*
X81790Y108278D01*
X81747Y108367D01*
X81689Y108447D01*
X81618Y108515D01*
X81536Y108569D01*
X81445Y108608D01*
X81349Y108630D01*
X81250Y108635D01*
X81153Y108621D01*
X81059Y108591D01*
X80972Y108544D01*
X80895Y108483D01*
X80830Y108408D01*
X80779Y108324D01*
X80745Y108231D01*
X80727Y108134D01*
Y108036D01*
X80745Y107939D01*
X80779Y107846D01*
X80830Y107762D01*
X80895Y107688D01*
X80972Y107626D01*
X81059Y107579D01*
X81153Y107549D01*
X81250Y107536D01*
X81349Y107540D01*
X81445Y107562D01*
X81536Y107601D01*
X81618Y107655D01*
X81689Y107723D01*
X81747Y107803D01*
X81790Y107892D01*
X81816Y107987D01*
X81825Y108085D01*
Y111915D02*
X81816Y112013D01*
X81790Y112108D01*
X81747Y112197D01*
X81689Y112277D01*
X81618Y112345D01*
X81536Y112399D01*
X81445Y112438D01*
X81349Y112460D01*
X81250Y112465D01*
X81153Y112451D01*
X81059Y112421D01*
X80972Y112374D01*
X80895Y112313D01*
X80830Y112238D01*
X80779Y112154D01*
X80745Y112061D01*
X80727Y111964D01*
Y111866D01*
X80745Y111769D01*
X80779Y111676D01*
X80830Y111592D01*
X80895Y111518D01*
X80972Y111456D01*
X81059Y111409D01*
X81153Y111379D01*
X81250Y111366D01*
X81349Y111370D01*
X81445Y111392D01*
X81536Y111431D01*
X81618Y111485D01*
X81689Y111553D01*
X81747Y111633D01*
X81790Y111722D01*
X81816Y111817D01*
X81825Y111915D01*
X72597Y81160D02*
X73040D01*
Y81691D01*
X72597D02*
X73040D01*
X71860D02*
X72303D01*
X71860Y81160D02*
Y81691D01*
Y81160D02*
X72303D01*
X75997Y63141D02*
X76440D01*
Y62610D02*
Y63141D01*
X75997Y62610D02*
X76440D01*
X75260D02*
X75703D01*
X75260D02*
Y63141D01*
X75703D01*
X74940Y79461D02*
Y79903D01*
X74410Y79461D02*
X74940D01*
X74410D02*
Y79903D01*
Y80198D02*
Y80640D01*
X74940D01*
Y80198D02*
Y80640D01*
X77360Y79348D02*
Y79790D01*
X77890D01*
Y79348D02*
Y79790D01*
Y78611D02*
Y79053D01*
X77360Y78611D02*
X77890D01*
X77360D02*
Y79053D01*
X73640Y79461D02*
Y79903D01*
X73110Y79461D02*
X73640D01*
X73110D02*
Y79903D01*
Y80198D02*
Y80640D01*
X73640D01*
Y80198D02*
Y80640D01*
X71210Y80848D02*
Y81290D01*
X71740D01*
Y80848D02*
Y81290D01*
Y80111D02*
Y80553D01*
X71210Y80111D02*
X71740D01*
X71210D02*
Y80553D01*
X73760Y80198D02*
Y80640D01*
X74290D01*
Y80198D02*
Y80640D01*
Y79461D02*
Y79903D01*
X73760Y79461D02*
X74290D01*
X73760D02*
Y79903D01*
X76797Y79141D02*
X77240D01*
Y78610D02*
Y79141D01*
X76797Y78610D02*
X77240D01*
X76060D02*
X76503D01*
X76060D02*
Y79141D01*
X76503D01*
X79510Y81260D02*
X79953D01*
X79510D02*
Y81791D01*
X79953D01*
X80247D02*
X80690D01*
Y81260D02*
Y81791D01*
X80247Y81260D02*
X80690D01*
X74690Y81511D02*
Y81953D01*
X74160Y81511D02*
X74690D01*
X74160D02*
Y81953D01*
Y82248D02*
Y82690D01*
X74690D01*
Y82248D02*
Y82690D01*
X76060Y79260D02*
X76503D01*
X76060D02*
Y79791D01*
X76503D01*
X76797D02*
X77240D01*
Y79260D02*
Y79791D01*
X76797Y79260D02*
X77240D01*
X79510Y80610D02*
X79953D01*
X79510D02*
Y81141D01*
X79953D01*
X80247D02*
X80690D01*
Y80610D02*
Y81141D01*
X80247Y80610D02*
X80690D01*
X80247Y80491D02*
X80690D01*
Y79960D02*
Y80491D01*
X80247Y79960D02*
X80690D01*
X79510D02*
X79953D01*
X79510D02*
Y80491D01*
X79953D01*
X106260Y107848D02*
Y108290D01*
X106790D01*
Y107848D02*
Y108290D01*
Y107111D02*
Y107553D01*
X106260Y107111D02*
X106790D01*
X106260D02*
Y107553D01*
X103860Y90510D02*
X104303D01*
X103860D02*
Y91041D01*
X104303D01*
X104597D02*
X105040D01*
Y90510D02*
Y91041D01*
X104597Y90510D02*
X105040D01*
X91710D02*
X92153D01*
X91710D02*
Y91041D01*
X92153D01*
X92447D02*
X92890D01*
Y90510D02*
Y91041D01*
X92447Y90510D02*
X92890D01*
X82610Y90948D02*
Y91390D01*
X83140D01*
Y90948D02*
Y91390D01*
Y90211D02*
Y90653D01*
X82610Y90211D02*
X83140D01*
X82610D02*
Y90653D01*
X85260Y92711D02*
Y93153D01*
Y92711D02*
X85790D01*
Y93153D01*
Y93448D02*
Y93890D01*
X85260D02*
X85790D01*
X85260Y93448D02*
Y93890D01*
X86997Y84041D02*
X87440D01*
Y83510D02*
Y84041D01*
X86997Y83510D02*
X87440D01*
X86260D02*
X86703D01*
X86260D02*
Y84041D01*
X86703D01*
X86997Y82741D02*
X87440D01*
Y82210D02*
Y82741D01*
X86997Y82210D02*
X87440D01*
X86260D02*
X86703D01*
X86260D02*
Y82741D01*
X86703D01*
X95747Y83541D02*
X96190D01*
Y83010D02*
Y83541D01*
X95747Y83010D02*
X96190D01*
X95010D02*
X95453D01*
X95010D02*
Y83541D01*
X95453D01*
X106347Y106460D02*
X106790D01*
Y106991D01*
X106347D02*
X106790D01*
X105610D02*
X106053D01*
X105610Y106460D02*
Y106991D01*
Y106460D02*
X106053D01*
X109610Y90741D02*
X110053D01*
X109610Y90210D02*
Y90741D01*
Y90210D02*
X110053D01*
X110347D02*
X110790D01*
Y90741D01*
X110347D02*
X110790D01*
X121597Y89160D02*
X122040D01*
Y89691D01*
X121597D02*
X122040D01*
X120860D02*
X121303D01*
X120860Y89160D02*
Y89691D01*
Y89160D02*
X121303D01*
X114340Y106861D02*
Y107303D01*
X113810Y106861D02*
X114340D01*
X113810D02*
Y107303D01*
Y107598D02*
Y108040D01*
X114340D01*
Y107598D02*
Y108040D01*
X115140Y107598D02*
Y108040D01*
X114610D02*
X115140D01*
X114610Y107598D02*
Y108040D01*
Y106861D02*
Y107303D01*
Y106861D02*
X115140D01*
Y107303D01*
X113407Y102095D02*
Y102775D01*
Y102095D02*
X114067D01*
Y102775D01*
X113407Y103075D02*
Y103755D01*
X114067D01*
Y103075D02*
Y103755D01*
X113205Y103078D02*
Y103758D01*
X112545D02*
X113205D01*
X112545Y103078D02*
Y103758D01*
X113205Y102098D02*
Y102778D01*
X112545Y102098D02*
X113205D01*
X112545D02*
Y102778D01*
X113497Y98605D02*
X114177D01*
X113497Y97945D02*
Y98605D01*
Y97945D02*
X114177D01*
X114477Y98605D02*
X115157D01*
Y97945D02*
Y98605D01*
X114477Y97945D02*
X115157D01*
X115307Y99925D02*
Y100605D01*
X114647D02*
X115307D01*
X114647Y99925D02*
Y100605D01*
X115307Y98945D02*
Y99625D01*
X114647Y98945D02*
X115307D01*
X114647D02*
Y99625D01*
X115307Y101675D02*
Y102355D01*
X114647D02*
X115307D01*
X114647Y101675D02*
Y102355D01*
X115307Y100695D02*
Y101375D01*
X114647Y100695D02*
X115307D01*
X114647D02*
Y101375D01*
X115140Y106298D02*
Y106740D01*
X114610D02*
X115140D01*
X114610Y106298D02*
Y106740D01*
Y105561D02*
Y106003D01*
Y105561D02*
X115140D01*
Y106003D01*
X114340Y105561D02*
Y106003D01*
X113810Y105561D02*
X114340D01*
X113810D02*
Y106003D01*
Y106298D02*
Y106740D01*
X114340D01*
Y106298D02*
Y106740D01*
X122710Y105711D02*
Y106153D01*
Y105711D02*
X123240D01*
Y106153D01*
Y106448D02*
Y106890D01*
X122710D02*
X123240D01*
X122710Y106448D02*
Y106890D01*
X122110Y106448D02*
Y106890D01*
X122640D01*
Y106448D02*
Y106890D01*
Y105711D02*
Y106153D01*
X122110Y105711D02*
X122640D01*
X122110D02*
Y106153D01*
X118390Y90198D02*
Y90640D01*
X117860D02*
X118390D01*
X117860Y90198D02*
Y90640D01*
Y89461D02*
Y89903D01*
Y89461D02*
X118390D01*
Y89903D01*
X110260Y89691D02*
X110703D01*
X110260Y89160D02*
Y89691D01*
Y89160D02*
X110703D01*
X110997D02*
X111440D01*
Y89691D01*
X110997D02*
X111440D01*
X114940Y88961D02*
Y89403D01*
X114410Y88961D02*
X114940D01*
X114410D02*
Y89403D01*
Y89698D02*
Y90140D01*
X114940D01*
Y89698D02*
Y90140D01*
X116310Y89641D02*
X116753D01*
X116310Y89110D02*
Y89641D01*
Y89110D02*
X116753D01*
X117047D02*
X117490D01*
Y89641D01*
X117047D02*
X117490D01*
X113997Y91791D02*
X114440D01*
Y91260D02*
Y91791D01*
X113997Y91260D02*
X114440D01*
X113260D02*
X113703D01*
X113260D02*
Y91791D01*
X113703D01*
X121597Y88560D02*
X122040D01*
Y89091D01*
X121597D02*
X122040D01*
X120860D02*
X121303D01*
X120860Y88560D02*
Y89091D01*
Y88560D02*
X121303D01*
X126095Y88695D02*
Y89375D01*
Y88695D02*
X126755D01*
Y89375D01*
X126095Y89675D02*
Y90355D01*
X126755D01*
Y89675D02*
Y90355D01*
X125990Y88811D02*
Y89253D01*
X125460Y88811D02*
X125990D01*
X125460D02*
Y89253D01*
Y89548D02*
Y89990D01*
X125990D01*
Y89548D02*
Y89990D01*
X119797Y98310D02*
X120240D01*
Y98841D01*
X119797D02*
X120240D01*
X119060D02*
X119503D01*
X119060Y98310D02*
Y98841D01*
Y98310D02*
X119503D01*
X119060Y95910D02*
X119503D01*
X119060D02*
Y96441D01*
X119503D01*
X119797D02*
X120240D01*
Y95910D02*
Y96441D01*
X119797Y95910D02*
X120240D01*
X123210Y91961D02*
Y92403D01*
Y91961D02*
X123740D01*
Y92403D01*
Y92698D02*
Y93140D01*
X123210D02*
X123740D01*
X123210Y92698D02*
Y93140D01*
X122010Y92698D02*
Y93140D01*
X122540D01*
Y92698D02*
Y93140D01*
Y91961D02*
Y92403D01*
X122010Y91961D02*
X122540D01*
X122010D02*
Y92403D01*
X119110Y95041D02*
X119553D01*
X119110Y94510D02*
Y95041D01*
Y94510D02*
X119553D01*
X119847D02*
X120290D01*
Y95041D01*
X119847D02*
X120290D01*
X124990Y95061D02*
Y95503D01*
X124460Y95061D02*
X124990D01*
X124460D02*
Y95503D01*
Y95798D02*
Y96240D01*
X124990D01*
Y95798D02*
Y96240D01*
X124660Y93761D02*
Y94203D01*
Y93761D02*
X125190D01*
Y94203D01*
Y94498D02*
Y94940D01*
X124660D02*
X125190D01*
X124660Y94498D02*
Y94940D01*
X124460Y97260D02*
X124903D01*
X124460D02*
Y97791D01*
X124903D01*
X125197D02*
X125640D01*
Y97260D02*
Y97791D01*
X125197Y97260D02*
X125640D01*
X124690Y98598D02*
Y99040D01*
X124160D02*
X124690D01*
X124160Y98598D02*
Y99040D01*
Y97861D02*
Y98303D01*
Y97861D02*
X124690D01*
Y98303D01*
X121390Y97861D02*
Y98303D01*
X120860Y97861D02*
X121390D01*
X120860D02*
Y98303D01*
Y98598D02*
Y99040D01*
X121390D01*
Y98598D02*
Y99040D01*
X122610Y91961D02*
Y92403D01*
Y91961D02*
X123140D01*
Y92403D01*
Y92698D02*
Y93140D01*
X122610D02*
X123140D01*
X122610Y92698D02*
Y93140D01*
X123810Y92998D02*
Y93440D01*
X124340D01*
Y92998D02*
Y93440D01*
Y92261D02*
Y92703D01*
X123810Y92261D02*
X124340D01*
X123810D02*
Y92703D01*
X124460Y97141D02*
X124903D01*
X124460Y96610D02*
Y97141D01*
Y96610D02*
X124903D01*
X125197D02*
X125640D01*
Y97141D01*
X125197D02*
X125640D01*
X119060Y97710D02*
X119503D01*
X119060D02*
Y98241D01*
X119503D01*
X119797D02*
X120240D01*
Y97710D02*
Y98241D01*
X119797Y97710D02*
X120240D01*
X119797Y97110D02*
X120240D01*
Y97641D01*
X119797D02*
X120240D01*
X119060D02*
X119503D01*
X119060Y97110D02*
Y97641D01*
Y97110D02*
X119503D01*
X119060Y96510D02*
X119503D01*
X119060D02*
Y97041D01*
X119503D01*
X119797D02*
X120240D01*
Y96510D02*
Y97041D01*
X119797Y96510D02*
X120240D01*
X122960Y98761D02*
Y99203D01*
Y98761D02*
X123490D01*
Y99203D01*
Y99498D02*
Y99940D01*
X122960D02*
X123490D01*
X122960Y99498D02*
Y99940D01*
X121460Y98848D02*
Y99290D01*
X121990D01*
Y98848D02*
Y99290D01*
Y98111D02*
Y98553D01*
X121460Y98111D02*
X121990D01*
X121460D02*
Y98553D01*
X122360Y98111D02*
Y98553D01*
Y98111D02*
X122890D01*
Y98553D01*
Y98848D02*
Y99290D01*
X122360D02*
X122890D01*
X122360Y98848D02*
Y99290D01*
X124210Y99460D02*
X124653D01*
X124210D02*
Y99991D01*
X124653D01*
X124947D02*
X125390D01*
Y99460D02*
Y99991D01*
X124947Y99460D02*
X125390D01*
X120947Y99160D02*
X121390D01*
Y99691D01*
X120947D02*
X121390D01*
X120210D02*
X120653D01*
X120210Y99160D02*
Y99691D01*
Y99160D02*
X120653D01*
X119140Y102311D02*
Y102753D01*
X118610Y102311D02*
X119140D01*
X118610D02*
Y102753D01*
Y103048D02*
Y103490D01*
X119140D01*
Y103048D02*
Y103490D01*
X118540Y103048D02*
Y103490D01*
X118010D02*
X118540D01*
X118010Y103048D02*
Y103490D01*
Y102311D02*
Y102753D01*
Y102311D02*
X118540D01*
Y102753D01*
X120040Y102311D02*
Y102753D01*
X119510Y102311D02*
X120040D01*
X119510D02*
Y102753D01*
Y103048D02*
Y103490D01*
X120040D01*
Y103048D02*
Y103490D01*
X120640Y103048D02*
Y103490D01*
X120110D02*
X120640D01*
X120110Y103048D02*
Y103490D01*
Y102311D02*
Y102753D01*
Y102311D02*
X120640D01*
Y102753D01*
X123040Y102661D02*
Y103103D01*
X122510Y102661D02*
X123040D01*
X122510D02*
Y103103D01*
Y103398D02*
Y103840D01*
X123040D01*
Y103398D02*
Y103840D01*
X119610Y100261D02*
Y100703D01*
Y100261D02*
X120140D01*
Y100703D01*
Y100998D02*
Y101440D01*
X119610D02*
X120140D01*
X119610Y100998D02*
Y101440D01*
X118495Y102205D02*
X119175D01*
X118495Y101545D02*
Y102205D01*
Y101545D02*
X119175D01*
X119475Y102205D02*
X120155D01*
Y101545D02*
Y102205D01*
X119475Y101545D02*
X120155D01*
X123145Y102645D02*
Y103325D01*
Y102645D02*
X123805D01*
Y103325D01*
X123145Y103625D02*
Y104305D01*
X123805D01*
Y103625D02*
Y104305D01*
X121405Y100825D02*
Y101505D01*
X120745D02*
X121405D01*
X120745Y100825D02*
Y101505D01*
X121405Y99845D02*
Y100525D01*
X120745Y99845D02*
X121405D01*
X120745D02*
Y100525D01*
X123560Y99498D02*
Y99940D01*
X124090D01*
Y99498D02*
Y99940D01*
Y98761D02*
Y99203D01*
X123560Y98761D02*
X124090D01*
X123560D02*
Y99203D01*
X97760Y88460D02*
X98203D01*
X97760D02*
Y88991D01*
X98203D01*
X98497D02*
X98940D01*
Y88460D02*
Y88991D01*
X98497Y88460D02*
X98940D01*
X97097D02*
X97540D01*
Y88991D01*
X97097D02*
X97540D01*
X96360D02*
X96803D01*
X96360Y88460D02*
Y88991D01*
Y88460D02*
X96803D01*
X91652Y87311D02*
Y87753D01*
Y87311D02*
X92183D01*
Y87753D01*
Y88048D02*
Y88490D01*
X91652D02*
X92183D01*
X91652Y88048D02*
Y88490D01*
X92790Y87301D02*
Y87743D01*
X92260Y87301D02*
X92790D01*
X92260D02*
Y87743D01*
Y88038D02*
Y88480D01*
X92790D01*
Y88038D02*
Y88480D01*
X91483Y87311D02*
Y87753D01*
X90952Y87311D02*
X91483D01*
X90952D02*
Y87753D01*
Y88048D02*
Y88490D01*
X91483D01*
Y88048D02*
Y88490D01*
X92952Y88048D02*
Y88490D01*
X93483D01*
Y88048D02*
Y88490D01*
Y87311D02*
Y87753D01*
X92952Y87311D02*
X93483D01*
X92952D02*
Y87753D01*
X96660Y90610D02*
X97103D01*
X96660D02*
Y91141D01*
X97103D01*
X97397D02*
X97840D01*
Y90610D02*
Y91141D01*
X97397Y90610D02*
X97840D01*
X100190Y89961D02*
Y90403D01*
X99660Y89961D02*
X100190D01*
X99660D02*
Y90403D01*
Y90698D02*
Y91140D01*
X100190D01*
Y90698D02*
Y91140D01*
X90703Y88560D02*
X91145D01*
X90703D02*
Y89091D01*
X91145D01*
X91440D02*
X91882D01*
Y88560D02*
Y89091D01*
X91440Y88560D02*
X91882D01*
X92490Y88551D02*
Y88993D01*
X91960Y88551D02*
X92490D01*
X91960D02*
Y88993D01*
Y89288D02*
Y89730D01*
X92490D01*
Y89288D02*
Y89730D01*
X92560Y88550D02*
X93003D01*
X92560D02*
Y89081D01*
X93003D01*
X93297D02*
X93740D01*
Y88550D02*
Y89081D01*
X93297Y88550D02*
X93740D01*
X96490Y90448D02*
Y90890D01*
X95960D02*
X96490D01*
X95960Y90448D02*
Y90890D01*
Y89711D02*
Y90153D01*
Y89711D02*
X96490D01*
Y90153D01*
X103410Y93448D02*
Y93890D01*
X103940D01*
Y93448D02*
Y93890D01*
Y92711D02*
Y93153D01*
X103410Y92711D02*
X103940D01*
X103410D02*
Y93153D01*
X100410Y93448D02*
Y93890D01*
X100940D01*
Y93448D02*
Y93890D01*
Y92711D02*
Y93153D01*
X100410Y92711D02*
X100940D01*
X100410D02*
Y93153D01*
X99940Y92711D02*
Y93153D01*
X99410Y92711D02*
X99940D01*
X99410D02*
Y93153D01*
Y93448D02*
Y93890D01*
X99940D01*
Y93448D02*
Y93890D01*
X98410Y93448D02*
Y93890D01*
X98940D01*
Y93448D02*
Y93890D01*
Y92711D02*
Y93153D01*
X98410Y92711D02*
X98940D01*
X98410D02*
Y93153D01*
X97410Y92711D02*
Y93153D01*
Y92711D02*
X97940D01*
Y93153D01*
Y93448D02*
Y93890D01*
X97410D02*
X97940D01*
X97410Y93448D02*
Y93890D01*
X96940Y92711D02*
Y93153D01*
X96410Y92711D02*
X96940D01*
X96410D02*
Y93153D01*
Y93448D02*
Y93890D01*
X96940D01*
Y93448D02*
Y93890D01*
X102247Y93241D02*
X102690D01*
Y92710D02*
Y93241D01*
X102247Y92710D02*
X102690D01*
X101510D02*
X101953D01*
X101510D02*
Y93241D01*
X101953D01*
X101510Y93360D02*
X101953D01*
X101510D02*
Y93891D01*
X101953D01*
X102247D02*
X102690D01*
Y93360D02*
Y93891D01*
X102247Y93360D02*
X102690D01*
X84290Y89211D02*
Y89653D01*
X83760Y89211D02*
X84290D01*
X83760D02*
Y89653D01*
Y89948D02*
Y90390D01*
X84290D01*
Y89948D02*
Y90390D01*
X86260Y82810D02*
X86703D01*
X86260D02*
Y83341D01*
X86703D01*
X86997D02*
X87440D01*
Y82810D02*
Y83341D01*
X86997Y82810D02*
X87440D01*
X97190Y84661D02*
Y85103D01*
X96660Y84661D02*
X97190D01*
X96660D02*
Y85103D01*
Y85398D02*
Y85840D01*
X97190D01*
Y85398D02*
Y85840D01*
X96660Y84148D02*
Y84590D01*
X97190D01*
Y84148D02*
Y84590D01*
Y83411D02*
Y83853D01*
X96660Y83411D02*
X97190D01*
X96660D02*
Y83853D01*
X110740Y73698D02*
Y74140D01*
X110210D02*
X110740D01*
X110210Y73698D02*
Y74140D01*
Y72961D02*
Y73403D01*
Y72961D02*
X110740D01*
Y73403D01*
X88697Y74191D02*
X89140D01*
Y73660D02*
Y74191D01*
X88697Y73660D02*
X89140D01*
X87960D02*
X88403D01*
X87960D02*
Y74191D01*
X88403D01*
X86280Y73441D02*
X87461D01*
X86280Y72910D02*
X87461Y72910D01*
X86280Y72910D02*
Y73441D01*
X88120D02*
X88229D01*
X88120Y72910D02*
X88229Y72910D01*
Y73441D01*
Y72210D02*
Y72741D01*
X88120Y72210D02*
X88229Y72210D01*
X88120Y72741D02*
X88229D01*
X86280Y72210D02*
Y72741D01*
Y72210D02*
X87461Y72210D01*
X86280Y72741D02*
X87461D01*
X86280Y72041D02*
X87461D01*
X86280Y71510D02*
X87461Y71510D01*
X86280Y71510D02*
Y72041D01*
X88120D02*
X88229D01*
X88120Y71510D02*
X88229Y71510D01*
Y72041D01*
X108447Y102810D02*
X108890D01*
Y103341D01*
X108447D02*
X108890D01*
X107710D02*
X108153D01*
X107710Y102810D02*
Y103341D01*
Y102810D02*
X108153D01*
X111440Y72961D02*
Y73403D01*
X110910Y72961D02*
X111440D01*
X110910D02*
Y73403D01*
Y73698D02*
Y74140D01*
X111440D01*
Y73698D02*
Y74140D01*
X111390Y74998D02*
Y75440D01*
X110860D02*
X111390D01*
X110860Y74998D02*
Y75440D01*
Y74261D02*
Y74703D01*
Y74261D02*
X111390D01*
Y74703D01*
X106510Y81711D02*
Y82153D01*
Y81711D02*
X107040D01*
Y82153D01*
Y82448D02*
Y82890D01*
X106510D02*
X107040D01*
X106510Y82448D02*
Y82890D01*
X103910Y88941D02*
X104353D01*
X103910Y88410D02*
Y88941D01*
Y88410D02*
X104353D01*
X104647D02*
X105090D01*
Y88941D01*
X104647D02*
X105090D01*
X104647Y86791D02*
X105090D01*
Y86260D02*
Y86791D01*
X104647Y86260D02*
X105090D01*
X103910D02*
X104353D01*
X103910D02*
Y86791D01*
X104353D01*
X103910Y86191D02*
X104353D01*
X103910Y85660D02*
Y86191D01*
Y85660D02*
X104353D01*
X104647D02*
X105090D01*
Y86191D01*
X104647D02*
X105090D01*
X105897Y88591D02*
X106340D01*
Y88060D02*
Y88591D01*
X105897Y88060D02*
X106340D01*
X105160D02*
X105603D01*
X105160D02*
Y88591D01*
X105603D01*
X103910Y88241D02*
X104353D01*
X103910Y87710D02*
Y88241D01*
Y87710D02*
X104353D01*
X104647D02*
X105090D01*
Y88241D01*
X104647D02*
X105090D01*
X105897Y87891D02*
X106340D01*
Y87360D02*
Y87891D01*
X105897Y87360D02*
X106340D01*
X105160D02*
X105603D01*
X105160D02*
Y87891D01*
X105603D01*
X103910Y87541D02*
X104353D01*
X103910Y87010D02*
Y87541D01*
Y87010D02*
X104353D01*
X104647D02*
X105090D01*
Y87541D01*
X104647D02*
X105090D01*
X121597Y82891D02*
X122040D01*
Y82360D02*
Y82891D01*
X121597Y82360D02*
X122040D01*
X120860D02*
X121303D01*
X120860D02*
Y82891D01*
X121303D01*
X122347Y84460D02*
X122790D01*
Y84991D01*
X122347D02*
X122790D01*
X121610D02*
X122053D01*
X121610Y84460D02*
Y84991D01*
Y84460D02*
X122053D01*
X121010Y83560D02*
X121453D01*
X121010D02*
Y84091D01*
X121453D01*
X121747D02*
X122190D01*
Y83560D02*
Y84091D01*
X121747Y83560D02*
X122190D01*
X106397Y78391D02*
X106840D01*
Y77860D02*
Y78391D01*
X106397Y77860D02*
X106840D01*
X105660D02*
X106103D01*
X105660D02*
Y78391D01*
X106103D01*
X114810Y74211D02*
Y74653D01*
Y74211D02*
X115340D01*
Y74653D01*
Y74948D02*
Y75390D01*
X114810D02*
X115340D01*
X114810Y74948D02*
Y75390D01*
X120310Y80710D02*
X120753D01*
X120310D02*
Y81241D01*
X120753D01*
X121047D02*
X121490D01*
Y80710D02*
Y81241D01*
X121047Y80710D02*
X121490D01*
X106610Y84411D02*
Y84853D01*
Y84411D02*
X107140D01*
Y84853D01*
Y85148D02*
Y85590D01*
X106610D02*
X107140D01*
X106610Y85148D02*
Y85590D01*
X106797Y79641D02*
X107240D01*
Y79110D02*
Y79641D01*
X106797Y79110D02*
X107240D01*
X106060D02*
X106503D01*
X106060D02*
Y79641D01*
X106503D01*
X116860Y74161D02*
Y74603D01*
Y74161D02*
X117390D01*
Y74603D01*
Y74898D02*
Y75340D01*
X116860D02*
X117390D01*
X116860Y74898D02*
Y75340D01*
X109760Y74711D02*
Y75153D01*
Y74711D02*
X110290D01*
Y75153D01*
Y75448D02*
Y75890D01*
X109760D02*
X110290D01*
X109760Y75448D02*
Y75890D01*
X113710Y74998D02*
Y75440D01*
X114240D01*
Y74998D02*
Y75440D01*
Y74261D02*
Y74703D01*
X113710Y74261D02*
X114240D01*
X113710D02*
Y74703D01*
X106397Y86741D02*
X106840D01*
Y86210D02*
Y86741D01*
X106397Y86210D02*
X106840D01*
X105660D02*
X106103D01*
X105660D02*
Y86741D01*
X106103D01*
X121147Y81760D02*
X121590D01*
Y82291D01*
X121147D02*
X121590D01*
X120410D02*
X120853D01*
X120410Y81760D02*
Y82291D01*
Y81760D02*
X120853D01*
X120790Y84911D02*
Y85353D01*
X120260Y84911D02*
X120790D01*
X120260D02*
Y85353D01*
Y85648D02*
Y86090D01*
X120790D01*
Y85648D02*
Y86090D01*
X105510Y81711D02*
Y82153D01*
Y81711D02*
X106040D01*
Y82153D01*
Y82448D02*
Y82890D01*
X105510D02*
X106040D01*
X105510Y82448D02*
Y82890D01*
X120860Y78460D02*
X121303D01*
X120860D02*
Y78991D01*
X121303D01*
X121597D02*
X122040D01*
Y78460D02*
Y78991D01*
X121597Y78460D02*
X122040D01*
X122860Y81948D02*
Y82390D01*
X123390D01*
Y81948D02*
Y82390D01*
Y81211D02*
Y81653D01*
X122860Y81211D02*
X123390D01*
X122860D02*
Y81653D01*
X123660Y82061D02*
Y82503D01*
Y82061D02*
X124190D01*
Y82503D01*
Y82798D02*
Y83240D01*
X123660D02*
X124190D01*
X123660Y82798D02*
Y83240D01*
X124190Y83361D02*
Y83803D01*
X123660Y83361D02*
X124190D01*
X123660D02*
Y83803D01*
Y84098D02*
Y84540D01*
X124190D01*
Y84098D02*
Y84540D01*
X123290Y85848D02*
Y86290D01*
X122760D02*
X123290D01*
X122760Y85848D02*
Y86290D01*
Y85111D02*
Y85553D01*
Y85111D02*
X123290D01*
Y85553D01*
X122210Y81948D02*
Y82390D01*
X122740D01*
Y81948D02*
Y82390D01*
Y81211D02*
Y81653D01*
X122210Y81211D02*
X122740D01*
X122210D02*
Y81653D01*
X121997Y86410D02*
X122440D01*
Y86941D01*
X121997D02*
X122440D01*
X121260D02*
X121703D01*
X121260Y86410D02*
Y86941D01*
Y86410D02*
X121703D01*
X122440Y85111D02*
Y85553D01*
X121910Y85111D02*
X122440D01*
X121910D02*
Y85553D01*
Y85848D02*
Y86290D01*
X122440D01*
Y85848D02*
Y86290D01*
X125940Y85848D02*
Y86290D01*
X125410D02*
X125940D01*
X125410Y85848D02*
Y86290D01*
Y85111D02*
Y85553D01*
Y85111D02*
X125940D01*
Y85553D01*
X126690Y66411D02*
Y66853D01*
X126160Y66411D02*
X126690D01*
X126160D02*
Y66853D01*
Y67148D02*
Y67590D01*
X126690D01*
Y67148D02*
Y67590D01*
X117560Y67211D02*
Y67653D01*
Y67211D02*
X118090D01*
Y67653D01*
Y67948D02*
Y68390D01*
X117560D02*
X118090D01*
X117560Y67948D02*
Y68390D01*
Y66198D02*
Y66640D01*
X118090D01*
Y66198D02*
Y66640D01*
Y65461D02*
Y65903D01*
X117560Y65461D02*
X118090D01*
X117560D02*
Y65903D01*
X110460Y67641D02*
X110903D01*
X110460Y67110D02*
Y67641D01*
Y67110D02*
X110903D01*
X111197D02*
X111640D01*
Y67641D01*
X111197D02*
X111640D01*
X112797Y70641D02*
X113240D01*
Y70110D02*
Y70641D01*
X112797Y70110D02*
X113240D01*
X112060D02*
X112503D01*
X112060D02*
Y70641D01*
X112503D01*
X110610Y69491D02*
X111053D01*
X110610Y68960D02*
Y69491D01*
Y68960D02*
X111053D01*
X111347D02*
X111790D01*
Y69491D01*
X111347D02*
X111790D01*
X111747Y65941D02*
X112190D01*
Y65410D02*
Y65941D01*
X111747Y65410D02*
X112190D01*
X111010D02*
X111453D01*
X111010D02*
Y65941D01*
X111453D01*
X112190Y62148D02*
Y62590D01*
X111660D02*
X112190D01*
X111660Y62148D02*
Y62590D01*
Y61411D02*
Y61853D01*
Y61411D02*
X112190D01*
Y61853D01*
X125560Y70498D02*
Y70940D01*
X126090D01*
Y70498D02*
Y70940D01*
Y69761D02*
Y70203D01*
X125560Y69761D02*
X126090D01*
X125560D02*
Y70203D01*
X120190Y68898D02*
Y69340D01*
X119660D02*
X120190D01*
X119660Y68898D02*
Y69340D01*
Y68161D02*
Y68603D01*
Y68161D02*
X120190D01*
Y68603D01*
X120247Y73141D02*
X120690D01*
Y72610D02*
Y73141D01*
X120247Y72610D02*
X120690D01*
X119510D02*
X119953D01*
X119510D02*
Y73141D01*
X119953D01*
X119660Y70811D02*
Y71253D01*
Y70811D02*
X120190D01*
Y71253D01*
Y71548D02*
Y71990D01*
X119660D02*
X120190D01*
X119660Y71548D02*
Y71990D01*
X120190Y69511D02*
Y69953D01*
X119660Y69511D02*
X120190D01*
X119660D02*
Y69953D01*
Y70248D02*
Y70690D01*
X120190D01*
Y70248D02*
Y70690D01*
X125560Y68011D02*
Y68453D01*
Y68011D02*
X126090D01*
Y68453D01*
Y68748D02*
Y69190D01*
X125560D02*
X126090D01*
X125560Y68748D02*
Y69190D01*
X119747Y64441D02*
X120190D01*
Y63910D02*
Y64441D01*
X119747Y63910D02*
X120190D01*
X119010D02*
X119453D01*
X119010D02*
Y64441D01*
X119453D01*
X105090Y73748D02*
Y74190D01*
X104560D02*
X105090D01*
X104560Y73748D02*
Y74190D01*
Y73011D02*
Y73453D01*
Y73011D02*
X105090D01*
Y73453D01*
X105147Y63841D02*
X105590D01*
Y63310D02*
Y63841D01*
X105147Y63310D02*
X105590D01*
X104410D02*
X104853D01*
X104410D02*
Y63841D01*
X104853D01*
X122947Y82510D02*
X123390D01*
Y83041D01*
X122947D02*
X123390D01*
X122210D02*
X122653D01*
X122210Y82510D02*
Y83041D01*
Y82510D02*
X122653D01*
X121790Y85111D02*
Y85553D01*
X121260Y85111D02*
X121790D01*
X121260D02*
Y85553D01*
Y85848D02*
Y86290D01*
X121790D01*
Y85848D02*
Y86290D01*
X108090Y64098D02*
Y64540D01*
X107560D02*
X108090D01*
X107560Y64098D02*
Y64540D01*
Y63361D02*
Y63803D01*
Y63361D02*
X108090D01*
Y63803D01*
X125560Y67148D02*
Y67590D01*
X126090D01*
Y67148D02*
Y67590D01*
Y66411D02*
Y66853D01*
X125560Y66411D02*
X126090D01*
X125560D02*
Y66853D01*
X108647Y58091D02*
X109090D01*
Y57560D02*
Y58091D01*
X108647Y57560D02*
X109090D01*
X107910D02*
X108353D01*
X107910D02*
Y58091D01*
X108353D01*
X108490Y59548D02*
Y59990D01*
X107960D02*
X108490D01*
X107960Y59548D02*
Y59990D01*
Y58811D02*
Y59253D01*
Y58811D02*
X108490D01*
Y59253D01*
X99240Y58861D02*
Y59303D01*
X98710Y58861D02*
X99240D01*
X98710D02*
Y59303D01*
Y59598D02*
Y60040D01*
X99240D01*
Y59598D02*
Y60040D01*
X100360Y79398D02*
Y79840D01*
X100890D01*
Y79398D02*
Y79840D01*
Y78661D02*
Y79103D01*
X100360Y78661D02*
X100890D01*
X100360D02*
Y79103D01*
X99660Y78541D02*
X100103D01*
X99660Y78010D02*
Y78541D01*
Y78010D02*
X100103D01*
X100397D02*
X100840D01*
Y78541D01*
X100397D02*
X100840D01*
X99660Y79398D02*
Y79840D01*
X100190D01*
Y79398D02*
Y79840D01*
Y78661D02*
Y79103D01*
X99660Y78661D02*
X100190D01*
X99660D02*
Y79103D01*
X104260Y92711D02*
Y93153D01*
Y92711D02*
X104790D01*
Y93153D01*
Y93448D02*
Y93890D01*
X104260D02*
X104790D01*
X104260Y93448D02*
Y93890D01*
X94860Y93498D02*
Y93940D01*
X95390D01*
Y93498D02*
Y93940D01*
Y92761D02*
Y93203D01*
X94860Y92761D02*
X95390D01*
X94860D02*
Y93203D01*
X100047Y72060D02*
X100490D01*
Y72591D01*
X100047D02*
X100490D01*
X99310D02*
X99753D01*
X99310Y72060D02*
Y72591D01*
Y72060D02*
X99753D01*
X87747Y70791D02*
X88190D01*
Y70260D02*
Y70791D01*
X87747Y70260D02*
X88190D01*
X87010D02*
X87453D01*
X87010D02*
Y70791D01*
X87453D01*
X87010Y71391D02*
X87453D01*
X87010Y70860D02*
Y71391D01*
Y70860D02*
X87453D01*
X87747D02*
X88190D01*
Y71391D01*
X87747D02*
X88190D01*
X99310Y71160D02*
X99753D01*
X99310D02*
Y71691D01*
X99753D01*
X100047D02*
X100490D01*
Y71160D02*
Y71691D01*
X100047Y71160D02*
X100490D01*
X100047Y70560D02*
X100490D01*
Y71091D01*
X100047D02*
X100490D01*
X99310D02*
X99753D01*
X99310Y70560D02*
Y71091D01*
Y70560D02*
X99753D01*
X91490Y76448D02*
Y76890D01*
X90960D02*
X91490D01*
X90960Y76448D02*
Y76890D01*
Y75711D02*
Y76153D01*
Y75711D02*
X91490D01*
Y76153D01*
X94890Y75711D02*
Y76153D01*
X94360Y75711D02*
X94890D01*
X94360D02*
Y76153D01*
Y76448D02*
Y76890D01*
X94890D01*
Y76448D02*
Y76890D01*
X100047Y68410D02*
X100490D01*
Y68941D01*
X100047D02*
X100490D01*
X99310D02*
X99753D01*
X99310Y68410D02*
Y68941D01*
Y68410D02*
X99753D01*
X87747Y70191D02*
X88190D01*
Y69660D02*
Y70191D01*
X87747Y69660D02*
X88190D01*
X87010D02*
X87453D01*
X87010D02*
Y70191D01*
X87453D01*
X97547Y64460D02*
X97990D01*
Y64991D01*
X97547D02*
X97990D01*
X96810D02*
X97253D01*
X96810Y64460D02*
Y64991D01*
Y64460D02*
X97253D01*
X93410Y64548D02*
Y64990D01*
X93940D01*
Y64548D02*
Y64990D01*
Y63811D02*
Y64253D01*
X93410Y63811D02*
X93940D01*
X93410D02*
Y64253D01*
X100047Y69660D02*
X100490D01*
Y70191D01*
X100047D02*
X100490D01*
X99310D02*
X99753D01*
X99310Y69660D02*
Y70191D01*
Y69660D02*
X99753D01*
X94040Y75711D02*
Y76153D01*
X93510Y75711D02*
X94040D01*
X93510D02*
Y76153D01*
Y76448D02*
Y76890D01*
X94040D01*
Y76448D02*
Y76890D01*
X94260Y64548D02*
Y64990D01*
X94790D01*
Y64548D02*
Y64990D01*
Y63811D02*
Y64253D01*
X94260Y63811D02*
X94790D01*
X94260D02*
Y64253D01*
X99940Y74048D02*
Y74490D01*
X99410D02*
X99940D01*
X99410Y74048D02*
Y74490D01*
Y73311D02*
Y73753D01*
Y73311D02*
X99940D01*
Y73753D01*
X99010Y67098D02*
Y67540D01*
X99540D01*
Y67098D02*
Y67540D01*
Y66361D02*
Y66803D01*
X99010Y66361D02*
X99540D01*
X99010D02*
Y66803D01*
X90110Y65441D02*
X90553D01*
X90110Y64910D02*
Y65441D01*
Y64910D02*
X90553D01*
X90847D02*
X91290D01*
Y65441D01*
X90847D02*
X91290D01*
X99310Y69010D02*
X99753D01*
X99310D02*
Y69541D01*
X99753D01*
X100047D02*
X100490D01*
Y69010D02*
Y69541D01*
X100047Y69010D02*
X100490D01*
X87010Y69591D02*
X87453D01*
X87010Y69060D02*
Y69591D01*
Y69060D02*
X87453D01*
X87747D02*
X88190D01*
Y69591D01*
X87747D02*
X88190D01*
X92090Y75711D02*
Y76153D01*
X91560Y75711D02*
X92090D01*
X91560D02*
Y76153D01*
Y76448D02*
Y76890D01*
X92090D01*
Y76448D02*
Y76890D01*
X100047Y72660D02*
X100490D01*
Y73191D01*
X100047D02*
X100490D01*
X99310D02*
X99753D01*
X99310Y72660D02*
Y73191D01*
Y72660D02*
X99753D01*
X101010Y70248D02*
Y70690D01*
X101540D01*
Y70248D02*
Y70690D01*
Y69511D02*
Y69953D01*
X101010Y69511D02*
X101540D01*
X101010D02*
Y69953D01*
X84490Y62361D02*
Y62803D01*
X83960Y62361D02*
X84490D01*
X83960D02*
Y62803D01*
Y63098D02*
Y63540D01*
X84490D01*
Y63098D02*
Y63540D01*
X92110Y92711D02*
Y93153D01*
Y92711D02*
X92640D01*
Y93153D01*
Y93448D02*
Y93890D01*
X92110D02*
X92640D01*
X92110Y93448D02*
Y93890D01*
X82960Y93748D02*
Y94190D01*
X83490D01*
Y93748D02*
Y94190D01*
Y93011D02*
Y93453D01*
X82960Y93011D02*
X83490D01*
X82960D02*
Y93453D01*
X84760Y65691D02*
X85203D01*
X84760Y65160D02*
Y65691D01*
Y65160D02*
X85203D01*
X85497D02*
X85940D01*
Y65691D01*
X85497D02*
X85940D01*
X97710Y78010D02*
X98153D01*
X97710D02*
Y78541D01*
X98153D01*
X98447D02*
X98890D01*
Y78010D02*
Y78541D01*
X98447Y78010D02*
X98890D01*
X99390Y79398D02*
Y79840D01*
X98860D02*
X99390D01*
X98860Y79398D02*
Y79840D01*
Y78661D02*
Y79103D01*
Y78661D02*
X99390D01*
Y79103D01*
X92190Y62161D02*
Y62603D01*
X91660Y62161D02*
X92190D01*
X91660D02*
Y62603D01*
Y62898D02*
Y63340D01*
X92190D01*
Y62898D02*
Y63340D01*
X92310Y62161D02*
Y62603D01*
Y62161D02*
X92840D01*
Y62603D01*
Y62898D02*
Y63340D01*
X92310D02*
X92840D01*
X92310Y62898D02*
Y63340D01*
X92160Y61560D02*
X92603D01*
X92160D02*
Y62091D01*
X92603D01*
X92897D02*
X93340D01*
Y61560D02*
Y62091D01*
X92897Y61560D02*
X93340D01*
X105640Y103898D02*
Y104340D01*
X105110D02*
X105640D01*
X105110Y103898D02*
Y104340D01*
Y103161D02*
Y103603D01*
Y103161D02*
X105640D01*
Y103603D01*
X97790Y84148D02*
Y84590D01*
X97260D02*
X97790D01*
X97260Y84148D02*
Y84590D01*
Y83411D02*
Y83853D01*
Y83411D02*
X97790D01*
Y83853D01*
X97260Y85398D02*
Y85840D01*
X97790D01*
Y85398D02*
Y85840D01*
Y84661D02*
Y85103D01*
X97260Y84661D02*
X97790D01*
X97260D02*
Y85103D01*
X92160Y75711D02*
Y76153D01*
Y75711D02*
X92690D01*
Y76153D01*
Y76448D02*
Y76890D01*
X92160D02*
X92690D01*
X92160Y76448D02*
Y76890D01*
X94440Y86398D02*
Y86840D01*
X93910D02*
X94440D01*
X93910Y86398D02*
Y86840D01*
Y85661D02*
Y86103D01*
Y85661D02*
X94440D01*
Y86103D01*
X93010Y78861D02*
Y79303D01*
Y78861D02*
X93540D01*
Y79303D01*
Y79598D02*
Y80040D01*
X93010D02*
X93540D01*
X93010Y79598D02*
Y80040D01*
X95210Y81761D02*
Y82203D01*
Y81761D02*
X95740D01*
Y82203D01*
Y82498D02*
Y82940D01*
X95210D02*
X95740D01*
X95210Y82498D02*
Y82940D01*
X92660Y86191D02*
X93103D01*
X92660Y85660D02*
Y86191D01*
Y85660D02*
X93103D01*
X93397D02*
X93840D01*
Y86191D01*
X93397D02*
X93840D01*
X90660Y86091D02*
X91103D01*
X90660Y85560D02*
Y86091D01*
Y85560D02*
X91103D01*
X91397D02*
X91840D01*
Y86091D01*
X91397D02*
X91840D01*
X89290Y83898D02*
Y84340D01*
X88760D02*
X89290D01*
X88760Y83898D02*
Y84340D01*
Y83161D02*
Y83603D01*
Y83161D02*
X89290D01*
Y83603D01*
X88960Y81161D02*
Y81603D01*
Y81161D02*
X89490D01*
Y81603D01*
Y81898D02*
Y82340D01*
X88960D02*
X89490D01*
X88960Y81898D02*
Y82340D01*
X86260Y92711D02*
Y93153D01*
Y92711D02*
X86790D01*
Y93153D01*
Y93448D02*
Y93890D01*
X86260D02*
X86790D01*
X86260Y93448D02*
Y93890D01*
X86347Y88460D02*
X86790D01*
Y88991D01*
X86347D02*
X86790D01*
X85610D02*
X86053D01*
X85610Y88460D02*
Y88991D01*
Y88460D02*
X86053D01*
X91260Y92711D02*
Y93153D01*
Y92711D02*
X91790D01*
Y93153D01*
Y93448D02*
Y93890D01*
X91260D02*
X91790D01*
X91260Y93448D02*
Y93890D01*
X88260Y92711D02*
Y93153D01*
Y92711D02*
X88790D01*
Y93153D01*
Y93448D02*
Y93890D01*
X88260D02*
X88790D01*
X88260Y93448D02*
Y93890D01*
X90097Y93360D02*
X90540D01*
Y93891D01*
X90097D02*
X90540D01*
X89360D02*
X89803D01*
X89360Y93360D02*
Y93891D01*
Y93360D02*
X89803D01*
X85660Y81261D02*
Y81703D01*
Y81261D02*
X86190D01*
Y81703D01*
Y81998D02*
Y82440D01*
X85660D02*
X86190D01*
X85660Y81998D02*
Y82440D01*
X86997Y81510D02*
X87440D01*
Y82041D01*
X86997D02*
X87440D01*
X86260D02*
X86703D01*
X86260Y81510D02*
Y82041D01*
Y81510D02*
X86703D01*
X85010Y83041D02*
X85453D01*
X85010Y82510D02*
Y83041D01*
Y82510D02*
X85453D01*
X85747D02*
X86190D01*
Y83041D01*
X85747D02*
X86190D01*
X87790Y93448D02*
Y93890D01*
X87260D02*
X87790D01*
X87260Y93448D02*
Y93890D01*
Y92711D02*
Y93153D01*
Y92711D02*
X87790D01*
Y93153D01*
X84790Y93448D02*
Y93890D01*
X84260D02*
X84790D01*
X84260Y93448D02*
Y93890D01*
Y92711D02*
Y93153D01*
Y92711D02*
X84790D01*
Y93153D01*
X86497Y90610D02*
X86940D01*
Y91141D01*
X86497D02*
X86940D01*
X85760D02*
X86203D01*
X85760Y90610D02*
Y91141D01*
Y90610D02*
X86203D01*
X85660Y83111D02*
Y83553D01*
Y83111D02*
X86190D01*
Y83553D01*
Y83848D02*
Y84290D01*
X85660D02*
X86190D01*
X85660Y83848D02*
Y84290D01*
X85247Y90610D02*
X85690D01*
Y91141D01*
X85247D02*
X85690D01*
X84510D02*
X84953D01*
X84510Y90610D02*
Y91141D01*
Y90610D02*
X84953D01*
X85390Y87811D02*
Y88253D01*
X84860Y87811D02*
X85390D01*
X84860D02*
Y88253D01*
Y88548D02*
Y88990D01*
X85390D01*
Y88548D02*
Y88990D01*
X97375Y104045D02*
X98055D01*
Y104705D01*
X97375D02*
X98055D01*
X96395Y104045D02*
X97075D01*
X96395D02*
Y104705D01*
X97075D01*
X101555Y106825D02*
Y107505D01*
X100895D02*
X101555D01*
X100895Y106825D02*
Y107505D01*
X101555Y105845D02*
Y106525D01*
X100895Y105845D02*
X101555D01*
X100895D02*
Y106525D01*
X86195Y105845D02*
Y106525D01*
Y105845D02*
X86855D01*
Y106525D01*
X86195Y106825D02*
Y107505D01*
X86855D01*
Y106825D02*
Y107505D01*
X91125Y104045D02*
X91805D01*
Y104705D01*
X91125D02*
X91805D01*
X90145Y104045D02*
X90825D01*
X90145D02*
Y104705D01*
X90825D01*
X97910Y90610D02*
X98353D01*
X97910D02*
Y91141D01*
X98353D01*
X98647D02*
X99090D01*
Y90610D02*
Y91141D01*
X98647Y90610D02*
X99090D01*
X90097Y93241D02*
X90540D01*
Y92710D02*
Y93241D01*
X90097Y92710D02*
X90540D01*
X89360D02*
X89803D01*
X89360D02*
Y93241D01*
X89803D01*
X94510Y89961D02*
Y90403D01*
Y89961D02*
X95040D01*
Y90403D01*
Y90698D02*
Y91140D01*
X94510D02*
X95040D01*
X94510Y90698D02*
Y91140D01*
X88040Y89961D02*
Y90403D01*
X87510Y89961D02*
X88040D01*
X87510D02*
Y90403D01*
Y90698D02*
Y91140D01*
X88040D01*
Y90698D02*
Y91140D01*
X107812Y99993D02*
X108255D01*
X107812Y99462D02*
Y99993D01*
Y99462D02*
X108255D01*
X108549D02*
X108992D01*
Y99993D01*
X108549D02*
X108992D01*
X108977Y93597D02*
X109657D01*
Y94257D01*
X108977D02*
X109657D01*
X107997Y93597D02*
X108677D01*
X107997D02*
Y94257D01*
X108677D01*
X109890Y98473D02*
Y98915D01*
X109360D02*
X109890D01*
X109360Y98473D02*
Y98915D01*
Y97736D02*
Y98178D01*
Y97736D02*
X109890D01*
Y98178D01*
X108290Y101748D02*
Y102190D01*
X107760D02*
X108290D01*
X107760Y101748D02*
Y102190D01*
Y101011D02*
Y101453D01*
Y101011D02*
X108290D01*
Y101453D01*
X107110Y100891D02*
X107553D01*
X107110Y100360D02*
Y100891D01*
Y100360D02*
X107553D01*
X107847D02*
X108290D01*
Y100891D01*
X107847D02*
X108290D01*
X107862Y96593D02*
X108305D01*
X107862Y96062D02*
Y96593D01*
Y96062D02*
X108305D01*
X108599D02*
X109042D01*
Y96593D01*
X108599D02*
X109042D01*
X109810Y101098D02*
Y101540D01*
X110340D01*
Y101098D02*
Y101540D01*
Y100361D02*
Y100803D01*
X109810Y100361D02*
X110340D01*
X109810D02*
Y100803D01*
X108549Y98892D02*
X108992D01*
Y98362D02*
Y98892D01*
X108549Y98362D02*
X108992D01*
X107812D02*
X108255D01*
X107812D02*
Y98892D01*
X108255D01*
X85975Y61045D02*
X86655D01*
Y61705D01*
X85975D02*
X86655D01*
X84995Y61045D02*
X85675D01*
X84995D02*
Y61705D01*
X85675D01*
D106*
X76175Y83925D02*
Y86735D01*
X78575Y83925D02*
Y86735D01*
X123278Y96931D02*
X123672Y96538D01*
Y94372D02*
Y96538D01*
X121113Y94372D02*
X123672D01*
X121113D02*
Y96931D01*
X123278D01*
X95549Y94888D02*
Y99825D01*
X104801Y94888D02*
Y99313D01*
X113319Y61479D02*
Y69983D01*
Y61479D02*
X116464D01*
Y69983D01*
X113319D02*
X116464D01*
X121319Y64029D02*
Y72533D01*
Y64029D02*
X124464D01*
Y72533D01*
X121319D02*
X124464D01*
X106673Y57027D02*
Y61751D01*
X100401D02*
X106673D01*
X100401Y57027D02*
Y61751D01*
X100401Y57027D02*
X106673D01*
X107473Y65001D02*
Y71273D01*
X102749Y65001D02*
X107473D01*
X102749D02*
Y71273D01*
X107473D01*
X92651Y94888D02*
Y99313D01*
X83399Y94888D02*
Y99825D01*
X97560Y66397D02*
X97968Y66804D01*
X90121Y66397D02*
X97560D01*
X90121D02*
Y74243D01*
X97968D01*
Y66804D02*
Y74243D01*
X118745Y77016D02*
X119310Y77581D01*
X108353Y77016D02*
X118745D01*
X108353D02*
Y87973D01*
X119310D01*
Y77581D02*
Y87973D01*
X91019Y81001D02*
X94009D01*
Y84516D01*
X90493D02*
X94009D01*
X90493Y81526D02*
Y84516D01*
Y81526D02*
X91019Y81001D01*
D107*
X123597Y85009D02*
X125093D01*
X123597Y84883D02*
X125093D01*
X123597Y88033D02*
X125093D01*
X123597Y85725D02*
Y87175D01*
X125093Y85725D02*
Y87175D01*
Y84883D02*
Y85031D01*
X123597Y84883D02*
Y85031D01*
X125093Y87885D02*
Y88033D01*
X123597Y87885D02*
Y88033D01*
D108*
X75014Y57361D02*
D03*
Y58061D02*
D03*
D109*
X74514Y57461D02*
D03*
X73714D02*
D03*
D110*
X73914Y59026D02*
D03*
D111*
X74844Y58746D02*
D03*
M02*
