M72
M48
T1F00S00C0.0200
T2F00S00C0.0280
T3F00S00C0.0350
T4F00S00C0.0394
T5F00S00C0.0472
T6F00S00C0.0512
T7F00S00C0.0591
T8F00S00C0.0630
T9F00S00C0.0640
T10F00S00C0.0709
T11F00S00C0.0600
T12F00S00C0.1280
T13F00S00C0.1360
%
T01
X1000Y2000
Y3000
Y4000
Y5000
Y6000
Y7000
Y8000
Y9000
Y10000
Y11000
X4450Y9950
X5250Y11350
X6900Y9950
X9500
X15550Y10250
Y11650
X16300Y10950
Y9550
X17250Y9850
X17050Y8850
Y7450
X18450
X19150Y6750
X18450Y6050
X17750Y6750
X17050Y6050
X16300Y6750
Y8150
X15600Y7450
Y6050
Y8850
X18450
X19150Y8150
X17750
X20600
Y7450
Y6750
Y6050
X19900
Y7450
X20600Y8850
Y9550
X20250Y10550
X21300Y6050
X22000
X22700
X23400
X24100
X24800
X25500
X26200
X26900
X27600
Y6750
Y7450
Y8150
Y8850
Y9550
X28300
Y8850
Y8150
Y7450
Y6750
X29000
Y7450
Y8150
Y8850
X30700Y8200
X30750Y10650
X33650Y10550
X34300Y10450
X34950Y10350
X35600Y10250
X36250Y10150
X36900Y10050
X37550Y9950
X37100Y6000
X35300
X33500
X31700
X29000Y6050
X28300
X26689Y6811
Y7461
Y8111
Y8761
Y9411
X26350Y10400
X26600Y11200
X27850Y10400
X23673Y9411
Y8761
Y8111
Y7461
Y6811
X23000Y7750
Y8450
X33000Y11700
X38200Y9850
X39050Y9000
X39850Y8850
X39500Y8350
X39850Y7500
X41200Y7900
X41250Y9650
X41150Y10250
X39700Y10150
X42550Y8950
X44600Y8500
X43650Y7300
X42500Y6000
X40700
X38900
X43200Y11550
X43900Y11350
X44350Y11050
X46450Y11100
X46800Y11450
X47100Y11850
X47250Y8550
X49150Y9550
X50150Y10550
X54100
X55850
X56650Y11550
X59550Y9550
Y7100
X61900Y7000
Y8000
Y9000
Y10000
Y11000
Y6000
Y5000
Y4000
Y3000
Y2000
Y12000
Y13000
Y14000
X59400Y14550
X59950Y15500
Y16900
X59450Y17200
X59350Y17650
Y18300
X59950
Y19700
X59350Y19400
Y20050
X58850Y21120
Y21750
X58150Y22200
X58900Y24150
X58850Y26550
X56900Y27000
X55900Y25600
X54850Y25650
X54800Y17850
X55900Y17400
X56000Y16650
X55400Y16600
X55000Y16000
X54450Y15800
Y15300
X54950Y15250
X54900Y14650
Y14050
X54400Y14200
X54450Y16500
X56250Y15600
X56220Y18400
X57500Y12700
X58150Y13050
X58850Y13550
X59550Y12000
X52950Y14050
X52300
X52900Y14900
X52550Y15650
X52200Y16400
X52000Y16950
X51350Y16800
Y17500
X50850Y18050
Y16300
X51350Y15750
X50850Y14600
X49300Y15050
X48850Y15550
X48450Y15930
X48100Y15250
X47550Y15500
X46620Y15800
X47000Y14650
X46650Y14250
X46600Y13150
X46460Y12390
X47100Y12750
X47600Y13500
X45050Y13450
X44700Y13900
X44950Y14600
X44300
X43600
X43200Y15200
X42550Y15550
X43050Y16250
X43750Y16300
X43650Y17650
X44300
X44900
X44950Y16750
Y15750
X42750Y16950
X42700Y18250
X43300Y18800
X43900Y19050
X44550
X44850Y19850
X45350Y20250
X46000
X46100Y21050
X45500Y21900
X44900
X45250Y22350
X44700Y22550
X44900Y23100
X44200Y22050
X44250Y21500
X44300Y20750
X43000Y20400
X42350Y20850
X43050Y21500
X43000Y22600
X42200Y23500
X41550Y23550
Y24050
Y24600
Y25200
X42600Y25000
Y24350
X42450Y26500
X43000Y26900
X43400Y26500
X45050Y27400
X47200Y26500
X48150
X48100Y25000
X47000Y25050
Y23400
X48100Y23350
X48200Y21650
X48850Y21800
X48650Y21100
X49300Y21250
X49750Y20700
X49050Y20500
X49450Y19900
X50250Y19600
Y20200
X52500Y20450
Y21100
X52800Y21750
Y22750
X53450
X52300Y23150
Y22250
X51100Y22050
Y23150
X50500Y22730
X50150Y23300
X50600Y23800
X50150Y24950
X50300Y26500
X52850Y26200
X52500Y19800
Y19150
Y18450
Y17800
X42750Y19400
X42250Y19450
X40950Y19950
X41100Y21150
X40400Y20750
X39416Y20466
X38200Y20750
X38250Y19100
X39000Y18750
X38350Y17050
X38200Y16350
X38431Y15632
X39450Y15900
Y15100
X40050Y14700
X40000Y13050
X38900Y12950
X41300Y13000
X41850Y12850
X42700Y12000
X45021Y12271
X41620Y21780
X41580Y23000
X38400Y23350
X38450Y24050
Y24600
X38350Y22650
X39200Y26150
X38950Y27000
X40350Y25550
X37500
X37800Y24800
X37850Y23800
Y22150
X35350Y22650
X35000Y23000
Y23700
X35200Y24950
X35100Y25800
X34550Y26650
X33450
X33424Y25624
X34050Y25100
X33250Y23629
Y22950
X30500Y22550
X30300Y21550
X30650Y21200
X29500
X29200Y21720
X28000Y21500
X27950Y22750
X28300Y23160
X29650Y23250
X30200Y24800
X31900Y25350
X31650Y27150
X31000
X32400Y27400
X27650Y26500
X26800
X25450
X24850
X24250
X25200Y27100
X22800Y26350
X23150Y24000
X24050Y24750
X23700Y22850
X23500Y22150
X23400Y21160
X23500Y19500
X23450Y18300
X24300Y17050
X24650Y16500
X25350Y16300
X26200Y16200
X25790Y17400
X25700Y17900
X25000Y17700
X26550Y17850
X27050Y17650
X26800Y19100
X25800Y19080
X27700Y19650
X29000Y19000
X29050Y17600
X29550Y17350
X29950Y17880
X30600Y17750
X30700Y18950
X32100Y19300
Y18050
X33750
Y18650
Y19250
X35500Y19550
X36000Y19900
X35800Y20350
X35600Y20850
X35550Y21400
X37350Y17100
X37200Y12950
X36660Y13100
X36150Y12950
X31200Y13250
Y12050
X28640Y12250
X27550Y12900
X26700
X27100Y14600
X27600
X29150Y14350
X30779Y14571
X31400Y15950
X30700Y16500
X29500Y16350
X28500Y16950
X28900Y20500
X29900Y20000
X26600Y21000
X25760Y21650
X25593Y23050
X26700Y23200
X27150Y22550
X26800Y24850
X27650
X25050Y14680
X24050Y14050
X23400
X23050Y15450
X23550Y16150
X32800
Y16700
X22000Y16650
X20800Y16500
X21550Y15100
X20700Y13950
X19550Y12450
X18850Y12800
Y11950
X16300Y12350
Y13750
X16250Y15150
Y16550
Y17950
X15500Y17250
Y18650
Y20050
X15100Y22550
X15150Y24550
X16900Y26400
X21150Y24600
X21750Y24550
X20750Y23300
X21450Y22550
Y21850
Y21150
X22050Y20350
X21500Y19300
X22000Y18600
X19800Y18700
Y19300
X19500Y19850
X18700Y15300
X15550Y15850
Y14450
Y13050
X10900Y15400
X11900Y17850
X11100Y20350
X8550Y17850
X5350
X5950Y20450
X6350Y15450
X5250Y12450
X1000Y12000
Y13000
Y14000
Y28360
Y29360
Y30360
Y31360
Y32360
Y33360
Y34360
Y35360
X5950Y35220
X6550Y38300
Y38950
Y39900
X4960Y31900
X4480Y28000
X6550Y28040
X8500
Y29000
X9680Y30400
X10160Y31450
X12300Y30900
X12800Y31500
X13000Y32300
X14940Y31500
X14450Y30280
X13950Y29600
X12000Y29560
X11550Y28120
X14850Y28040
X16650Y29700
Y31700
X18300Y31600
X18200Y33480
X16650Y33600
X15000Y33620
Y35220
Y36980
X16550Y38100
X16650Y35700
X18100Y35400
X20350Y35300
X19700Y36750
X19550Y37600
X18650Y37450
X20000Y38550
X21800Y38200
X22350Y36750
X21550Y33450
Y32800
X20700Y32150
X21750Y31450
Y30800
X21000Y29150
X18600Y28150
X19650Y33880
X19450Y40950
Y41700
X18650
Y40950
X16648Y40602
X15700Y42250
X11840Y41750
X10800Y42840
X9840Y42850
X8460Y39400
X10000Y38000
X14000Y39450
X21750Y40300
X7350Y32300
X23800Y32400
X23931Y33019
X25050Y32600
X24850Y31800
X24400Y31250
X24194Y30494
X23450Y29850
X23550Y29100
X22550Y29200
X23541Y31641
X25850Y31800
X26850Y31600
Y32200
X26400Y32450
X26359Y33759
X25700Y33700
X25000Y33750
X24600Y35700
X23950
X24250Y36450
X25250
X25950Y35800
X26600
X26750Y36550
X27150Y36900
X27250Y38050
X27800Y38450
X28950Y38700
X29150Y38100
X28548Y40352
X26250Y40800
X25800Y39450
X25750Y38850
X22700Y38840
X22650Y41800
X26050Y42920
X27400Y42120
X29100Y42840
X30800Y41700
Y40950
X31600
Y41700
X34800Y41800
X33900Y40300
X35300Y38760
X35400Y37450
X36700Y37350
Y38050
X37250Y39000
X36650Y35900
Y35300
X35500Y34750
Y34150
X34200
Y34750
X32800Y35250
X33400Y36250
X34150Y37050
X31700Y37600
X31200Y34000
X30850Y32100
X29000Y32050
Y31400
X28143Y30657
X28600Y29300
X28550Y28500
X27950Y28100
X29000Y27650
X30300Y28200
X29800Y28800
X30400Y30000
X31550Y30700
X32550Y30150
X32150Y29500
X34650Y28350
X35650Y28900
X35600Y30550
X36400Y31400
Y32800
X37000Y33500
X37896Y33346
X38050Y32750
X37550Y31000
X36950Y30200
X34000Y31550
X33500Y32750
X29450Y32650
X28300Y33750
X28050Y34250
X27650Y35950
X26300Y30850
X25350Y30750
X26800Y29150
Y28500
X39350Y29200
X40000
X40100Y27500
X41450
X41500Y28650
X41700Y30050
X41600Y31700
Y32250
X42450Y32900
X42700Y31000
X43000Y27950
X44250Y29050
X46400Y28300
X47850Y28800
X48250Y27550
X49950Y27900
Y28900
X50500Y28350
X50850Y28700
X51200Y29150
X51550Y29950
X52050Y30450
X52250Y31950
Y32550
Y33350
X52200Y34500
X51305Y35905
X51200Y37250
X51150Y38600
Y40250
X51000Y41150
X51500Y41950
X51850Y42350
X52200Y42800
X52900Y43050
X53550Y42600
X53400Y41950
Y40550
X52900Y40700
X52950Y39150
X53300Y38800
X53650Y39400
X49300Y40600
X47850Y41150
X47250Y40050
X47200Y39250
X48200Y38600
X47349Y37251
X46650Y36500
X44650
X43800Y37200
X42300Y36800
X41950Y39240
X41000
X40750Y39850
X40960Y40500
X41950Y40520
X42400Y39850
X43200Y40400
X43100Y38800
X44650
X44500Y40900
Y41750
X44650Y42650
X43950
X45350
X45250Y40650
X46000Y40900
X46550Y40400
X48850Y42650
X49550
X50250Y42900
X49700Y37250
X48750Y36500
X49350Y35100
X47400Y35150
X43250Y34800
X41550Y34527
X39400Y33800
X39300Y32000
Y31350
X38300
Y32000
X38950Y36300
X39550
X39950Y38050
X38400Y40800
X38700Y42040
X40900Y42450
X51400Y31700
X53650Y32000
X53700Y30900
X53600Y29850
X52250Y28200
X54350Y27600
X54950
X56900Y28100
X57250Y30350
X56950Y31150
X56150Y30330
X55500
X54350Y30900
X54860Y31500
X55450Y33200
X56200
X56050Y34200
X54400Y34100
X54000Y34700
Y35200
X53800Y33200
X57950Y32600
X59050Y33050
X58750Y34170
X58860Y31500
X58900Y29050
X61900Y29360
Y30360
Y31360
Y32360
Y33360
Y34360
Y35360
X57400Y36010
X56200Y36050
X55750
X55700Y37350
X54590
X54500Y39400
X54150Y39750
X53750Y40100
X54850Y41600
X54950Y42100
X56500Y42700
X55800Y40750
Y39450
X56850Y39300
X57650
X56850Y38400
X57660Y37600
X59950Y42450
X61900Y28360
X60000Y43850
X59450Y44500
X58700Y45000
X58250Y45250
Y44700
X58450Y44050
Y43400
X56450Y44500
X55900Y44900
X55200Y44950
X54350Y45150
X55000Y45850
X55650Y46050
X55900Y44050
X56250Y47850
X56850
X57950Y48150
Y47500
X58520Y47400
X58150Y48650
Y50000
X57500Y50650
X58150Y51300
Y52350
Y53350
X56850Y53900
X55300Y53950
X54560Y52150
X54850Y50400
X54750Y49750
Y48950
X55650
X55700Y51050
X55250Y50750
X56850Y50000
X61900Y53000
Y54000
Y55000
Y56000
Y57000
Y58000
X50650Y57450
X49850
Y54200
X50650
X52100Y54590
X51750Y55000
X53650Y53870
X53450Y49850
Y49300
X52900
X51900Y50510
X50500Y51000
X50250Y48950
X50850Y48250
X51850Y47950
Y46750
X50950Y46850
Y45450
X51850Y45550
X50250Y46150
Y44850
X49550Y44750
Y45450
X48850
Y44750
Y44050
Y43350
X49550
Y44050
X51000Y43400
X52400Y43650
X53050
X53650Y47500
X50250Y47550
X49550Y46850
X48850Y46150
X47450
X46050
X44650
Y45450
X43950
Y44750
Y44050
Y43350
X44650
Y44050
Y44750
X45350
Y45450
Y44050
Y43350
X42350Y44050
X42302Y45702
X40652
X38400Y44760
X41102Y48502
X41750Y48500
X43250Y48200
X45100Y48250
X45150Y46900
X45950Y47450
X47100Y49052
X45400Y49750
X43600Y50000
Y50650
X44320Y51600
X42500Y52520
X40450Y52450
X40600Y54200
X41400
X43200
X44000
Y57450
X43200
X41400
X40600
X39150Y54150
Y51700
X38400Y52250
X48800Y52700
X49750Y53000
X47500Y54200
X49550Y48250
X37550Y43550
X32200Y43350
X28150Y43600
X27150Y43880
X27520Y44800
X26160
X25400Y43550
X33200Y51550
Y52100
Y52650
X21050
Y52100
Y51550
X20050Y43350
X16900Y43320
X16250Y43850
X15700Y43700
X16100Y44760
X11000Y46600
Y47050
Y47500
X8640Y43150
X4400Y46600
Y47050
Y47500
X1000Y53000
Y54000
Y55000
Y56000
Y57000
Y58000
Y59000
Y60000
X17150Y60920
Y62520
X21500Y63450
X26300Y63500
X31050
X35650Y63050
X35750Y61900
X38550Y60800
X51900Y62200
X60080Y62800
X60050Y61400
X60000Y59850
X61900Y60000
Y59000
X61920Y62800
T02
X3900Y2000
X6780
X9660
X12540
X15420
X18300
X21180
X21200Y10500
X22100
X19300Y9100
X14250Y7200
X13550
Y6500
X14250
X12450Y8250
X11500Y9000
Y7500
X10400Y8250
X23000Y6750
X24060Y2000
X26940
X29820
X32700
X35580
X32000Y7900
Y9750
X42550Y8150
X41340Y2000
X44220
X47100
X49980
X52860
X53400Y10550
X50800
X38460Y2000
X55740
X58620
X32900Y13300
Y14400
X31500
X30100Y13300
X26150Y14100
Y12450
X24050Y12750
X23100
X22800Y25200
X19600Y23100
X19700Y20500
Y13100
X18850Y13800
X17800Y12650
X21200Y11900
X22100
X3800Y21350
Y22000
Y22650
X5550Y26250
X6200
X6850
X37050Y34500
X38550
X41595Y35905
X45500Y34750
X49050Y38750
X50250Y39300
Y40700
X58800Y40300
X58750Y39650
X58800Y41400
X56450Y29500
X54800Y30350
X56400Y45900
X57000Y46900
X56550Y51700
X55900Y51650
X55800Y53530
X53400Y53200
X52800
X51900
X53450Y51200
Y50550
X53600Y48150
X48802Y48000
X47802Y47050
X46902
X48802Y50500
X49850Y51650
X45900Y53400
X35700Y48250
X34700
X31700Y48200
X30700
X28000Y47150
Y46550
X23550Y48250
X22550
X19550Y48200
X18550
X15850Y47200
Y46600
X9950Y45500
Y44800
X9150
Y45500
X8350
Y44800
X7000
Y45500
X6200
Y44800
X5400
Y45500
X36700Y60500
T03
X5500Y28750
Y29750
X53950Y57150
X54950
X55950
X56950
X57450Y58150
X56450
X55450
X54450
X48750Y58200
X47750
X46750
X45750
X43650Y49100
X42650
X34700Y53750
X33700
X32700
X31700
X32300Y55500
X33300
Y56500
X32300
Y57500
X33300
X31100
X30100
Y56500
X31100
Y55500
X30100
X29000Y52800
Y51800
X28000
Y52800
X22550Y53750
X22700Y55500
X23700
Y56500
X22700
Y57500
X23700
X21500
Y56500
Y55500
X20500
Y56500
Y57500
X20550Y53750
X21550
X19550
X16850Y52800
Y51800
X15850
Y52800
X18800Y59300
X19700
X20500Y61200
X21300
X22100
X21700Y61900
X20900
X20100
X22500
X22900Y61200
X23300Y59300
X24200
X28350
X29250
X30050Y61200
X30850
X31650
X32450
X32050Y61900
X31250
X30450
X29650
X32850Y59300
X33750
X46250Y59200
X47250
X48250
X49250
X53210Y61980
X54210Y62580
X57190Y61980
X58190Y62580
T04
X7650Y13350
X9650
X11650
Y22350
X7650
X5650
Y13350
X41314Y60851
X43086
T05
X9668Y48547
Y54453
X5731
Y48547
T06
X40822Y59867
X43578
T07
X12685Y21350
X4615Y14350
T08
X7450Y62950
T09
X44550Y62900
X50450
X52600Y59450
X58800
T10
X7450Y61178
T11
X39950Y61150
Y62150
T12
X19000Y62900
X24000
X28550
X33550
X53450Y60650
X57950
T13
X45250Y61700
X49750
M30
