%FSLAX24Y24*%
%MOIN*%
G70*
G01*
G75*
%ADD10C,0.0100*%
%ADD11R,0.1250X0.0600*%
%ADD12R,0.0600X0.1000*%
%ADD13R,0.0380X0.0380*%
%ADD14R,0.0600X0.0600*%
%ADD15R,0.0709X0.1575*%
%ADD16R,0.1614X0.0827*%
%ADD17O,0.0701X0.0157*%
%ADD18R,0.1500X0.1100*%
%ADD19R,0.0600X0.1250*%
%ADD20R,0.0500X0.0600*%
%ADD21R,0.0600X0.0500*%
%ADD22R,0.0315X0.0472*%
%ADD23R,0.1200X0.0900*%
%ADD24R,0.0551X0.0492*%
%ADD25O,0.0138X0.0846*%
%ADD26R,0.0138X0.0846*%
%ADD27R,0.1575X0.1181*%
%ADD28R,0.0709X0.1378*%
%ADD29R,0.0800X0.0800*%
%ADD30O,0.0630X0.0110*%
%ADD31O,0.0110X0.0630*%
%ADD32R,0.0110X0.0630*%
%ADD33R,0.0472X0.1260*%
%ADD34R,0.0472X0.0315*%
%ADD35R,0.0425X0.0380*%
%ADD36C,0.0400*%
%ADD37R,0.1378X0.0709*%
%ADD38R,0.0650X0.0500*%
%ADD39O,0.0787X0.0177*%
%ADD40R,0.0787X0.0177*%
%ADD41R,0.0236X0.0433*%
%ADD42R,0.0492X0.0551*%
%ADD43O,0.0669X0.0110*%
%ADD44R,0.0669X0.0110*%
%ADD45O,0.0110X0.0669*%
%ADD46R,0.0110X0.0669*%
%ADD47R,0.1000X0.0600*%
%ADD48R,0.0850X0.1080*%
%ADD49R,0.0600X0.1350*%
%ADD50R,0.1575X0.2165*%
%ADD51R,0.1500X0.1680*%
%ADD52R,0.0866X0.1142*%
%ADD53O,0.0630X0.0110*%
%ADD54R,0.0630X0.0110*%
%ADD55O,0.0110X0.0709*%
%ADD56O,0.0709X0.0110*%
%ADD57O,0.0709X0.0110*%
%ADD58R,0.0709X0.0110*%
%ADD59O,0.0157X0.0701*%
%ADD60O,0.0110X0.0630*%
%ADD61R,0.0787X0.0512*%
%ADD62R,0.0945X0.0906*%
%ADD63C,0.0200*%
%ADD64C,0.0500*%
%ADD65C,0.0120*%
%ADD66C,0.0150*%
%ADD67C,0.0600*%
%ADD68C,0.0400*%
%ADD69C,0.0250*%
%ADD70C,0.0300*%
%ADD71C,0.0380*%
%ADD72C,0.0700*%
%ADD73C,0.0110*%
%ADD74C,0.0320*%
%ADD75C,0.0080*%
%ADD76C,0.0280*%
%ADD77C,0.0310*%
%ADD78C,0.0140*%
%ADD79C,0.0157*%
%ADD80C,0.0130*%
%ADD81C,0.0090*%
%ADD82C,0.0220*%
%ADD83C,0.0170*%
%ADD84C,0.0180*%
%ADD85C,0.0308*%
%ADD86C,0.0160*%
%ADD87C,0.0390*%
%ADD88R,0.0670X0.0700*%
%ADD89R,0.1350X0.1400*%
%ADD90R,0.0300X0.1229*%
%ADD91C,0.0620*%
%ADD92C,0.0600*%
%ADD93C,0.1000*%
%ADD94C,0.0650*%
%ADD95C,0.0906*%
%ADD96C,0.0787*%
%ADD97C,0.0866*%
%ADD98C,0.1024*%
%ADD99C,0.1024*%
%ADD100P,0.0620X8X0*%
%ADD101C,0.0945*%
%ADD102C,0.0500*%
%ADD103C,0.0118*%
%ADD104C,0.0098*%
%ADD105C,0.0060*%
%ADD106C,0.0079*%
%ADD107C,0.0070*%
%ADD108R,0.0500X0.0300*%
%ADD109R,0.0500X0.1500*%
%ADD110R,0.3100X0.0430*%
%ADD111R,0.0360X0.0130*%
%ADD112R,0.1900X0.1250*%
%ADD113R,0.0520X0.2190*%
%ADD114R,0.0530X0.2180*%
%ADD115R,0.2230X0.0510*%
%ADD116R,0.2180X0.0540*%
%ADD117R,0.3850X0.1200*%
%ADD118R,0.3400X0.1250*%
%ADD119R,0.0560X0.4570*%
%ADD120R,0.0560X0.4580*%
%ADD121R,0.4580X0.0560*%
%ADD122R,0.4570X0.0560*%
%ADD123R,0.0400X0.0350*%
%ADD124R,0.4016X0.1063*%
%ADD125R,0.0520X0.6940*%
%ADD126R,0.6930X0.0530*%
%ADD127R,0.0520X0.6930*%
%ADD128R,0.0600X1.0150*%
%ADD129R,1.0110X0.0610*%
%ADD130R,0.0610X1.0100*%
%ADD131R,0.0520X0.2960*%
%ADD132R,0.2970X0.0520*%
%ADD133R,0.0520X0.2970*%
%ADD134R,0.3010X0.0520*%
%ADD135R,0.1330X0.0680*%
%ADD136R,0.0680X0.1080*%
%ADD137R,0.0460X0.0460*%
%ADD138R,0.0680X0.0680*%
%ADD139R,0.0789X0.1655*%
%ADD140R,0.1694X0.0907*%
%ADD141O,0.0781X0.0237*%
%ADD142R,0.1580X0.1180*%
%ADD143R,0.0680X0.1330*%
%ADD144R,0.0580X0.0680*%
%ADD145R,0.0680X0.0580*%
%ADD146R,0.0395X0.0552*%
%ADD147R,0.1280X0.0980*%
%ADD148R,0.0631X0.0572*%
%ADD149O,0.0218X0.0926*%
%ADD150R,0.0218X0.0926*%
%ADD151R,0.1655X0.1261*%
%ADD152R,0.0789X0.1458*%
%ADD153R,0.0880X0.0880*%
%ADD154O,0.0710X0.0190*%
%ADD155O,0.0190X0.0710*%
%ADD156R,0.0190X0.0710*%
%ADD157R,0.0552X0.1340*%
%ADD158R,0.0552X0.0395*%
%ADD159R,0.0505X0.0460*%
%ADD160C,0.0800*%
%ADD161R,0.1458X0.0789*%
%ADD162R,0.0730X0.0580*%
%ADD163O,0.0867X0.0257*%
%ADD164R,0.0867X0.0257*%
%ADD165R,0.0316X0.0513*%
%ADD166R,0.0572X0.0631*%
%ADD167O,0.0749X0.0190*%
%ADD168R,0.0749X0.0190*%
%ADD169O,0.0190X0.0749*%
%ADD170R,0.0190X0.0749*%
%ADD171R,0.1080X0.0680*%
%ADD172R,0.0930X0.1160*%
%ADD173R,0.0680X0.1430*%
%ADD174R,0.1655X0.2245*%
%ADD175R,0.1580X0.1760*%
%ADD176R,0.0946X0.1222*%
%ADD177O,0.0710X0.0190*%
%ADD178R,0.0710X0.0190*%
%ADD179O,0.0190X0.0789*%
%ADD180O,0.0789X0.0190*%
%ADD181O,0.0789X0.0190*%
%ADD182R,0.0789X0.0190*%
%ADD183O,0.0237X0.0781*%
%ADD184O,0.0190X0.0710*%
%ADD185R,0.0867X0.0592*%
%ADD186R,0.1025X0.0986*%
%ADD187C,0.0700*%
%ADD188C,0.0080*%
%ADD189C,0.0680*%
%ADD190C,0.1080*%
%ADD191C,0.0730*%
%ADD192C,0.0986*%
%ADD193C,0.0867*%
%ADD194C,0.0946*%
%ADD195C,0.1104*%
%ADD196C,0.1104*%
%ADD197P,0.0700X8X0*%
%ADD198C,0.0709*%
%ADD199C,0.1025*%
%ADD200C,0.0300*%
%ADD201C,0.0480*%
%ADD202C,0.0580*%
D10*
X128625Y114775D02*
X129875D01*
X128625Y114745D02*
X129875D01*
X128625Y114665D02*
X129875D01*
X128625Y114585D02*
X129875D01*
X128625Y114505D02*
X129875D01*
X128625Y114425D02*
X129875D01*
X128625Y114345D02*
X129875D01*
X128625Y114265D02*
X129875D01*
X128625Y114185D02*
X129875D01*
X128625Y114105D02*
X129875D01*
X128625Y114025D02*
X129875D01*
X128625Y113945D02*
X129875D01*
X128625Y113865D02*
X129875D01*
X128625Y113785D02*
X129875D01*
X128625Y113705D02*
X129875D01*
X128625Y113625D02*
X129875D01*
X128625Y113545D02*
X129875D01*
X128625Y113465D02*
X129875D01*
X128625Y113385D02*
X129875D01*
X128625Y113305D02*
X129875D01*
X128625Y113225D02*
X129875D01*
X128625Y113145D02*
X129875D01*
X128625Y113065D02*
X129875D01*
X128625Y112985D02*
X129875D01*
X128625Y112905D02*
X129875D01*
X128625Y112825D02*
X129875D01*
X128625Y112745D02*
X129875D01*
X128625Y112665D02*
X129875D01*
X128625Y112585D02*
X129875D01*
X128625Y112505D02*
X129875D01*
X128625Y112425D02*
X129875D01*
X128625Y112345D02*
X129875D01*
X128625Y112265D02*
X129875D01*
X128625Y112185D02*
X129875D01*
X128625Y112105D02*
X129875D01*
X128625Y112025D02*
X129875D01*
X128625Y111945D02*
X129875D01*
X128625Y111865D02*
X129875D01*
X128625Y111785D02*
X129875D01*
X128625Y111705D02*
X129875D01*
X128625Y111625D02*
X129875D01*
X128625Y111545D02*
X129875D01*
X128625Y111465D02*
X129875D01*
X128625Y111385D02*
X129875D01*
X128625Y111305D02*
X129875D01*
X128625Y111225D02*
X129875D01*
X128625Y111145D02*
X129875D01*
X128625Y111065D02*
X129875D01*
X128625Y110985D02*
X129875D01*
X128625Y110905D02*
X129875D01*
X128625Y110825D02*
X129875D01*
X128625Y110745D02*
X129875D01*
X128625Y110665D02*
X129875D01*
X128625Y110585D02*
X129875D01*
X128625Y110505D02*
X129875D01*
X128625Y110425D02*
X129875D01*
X128625Y110345D02*
X129875D01*
X128625Y110265D02*
X129875D01*
X128625Y110185D02*
X129875D01*
X128625Y110105D02*
X129875D01*
X128625Y110025D02*
X129875D01*
X128625Y109945D02*
X129875D01*
X128625Y109865D02*
X129875D01*
X128625Y109785D02*
X129875D01*
X128625Y109705D02*
X129875D01*
X128625Y109625D02*
X129875D01*
X128625Y109545D02*
X129875D01*
X128625Y109465D02*
X129875D01*
X128625Y109385D02*
X129875D01*
X128625Y109305D02*
X129875D01*
X128625Y109225D02*
X129875D01*
X128625Y109145D02*
X129875D01*
X128625Y109065D02*
X129875D01*
X128625Y108985D02*
X129875D01*
X128625Y108905D02*
X129875D01*
X128625Y108825D02*
X129875D01*
X128625Y108745D02*
X129875D01*
X128625Y108665D02*
X129875D01*
X128625Y108585D02*
X129875D01*
X128625Y108505D02*
X129875D01*
X128625Y108425D02*
X129875D01*
X128625Y108345D02*
X129875D01*
X128625Y108265D02*
X129875D01*
X128625Y108185D02*
X129875D01*
X128625Y108105D02*
X129875D01*
X128625Y108025D02*
X129875D01*
X128625Y107945D02*
X129875D01*
X128625Y107865D02*
X129875D01*
X128625Y107785D02*
X129875D01*
X128625Y107705D02*
X129875D01*
X128625Y107625D02*
X129875D01*
X128625Y107545D02*
X129875D01*
X128625Y107465D02*
X129875D01*
X128625Y107385D02*
X129875D01*
X128625Y107305D02*
X129875D01*
X128625Y107225D02*
X129875D01*
X128625Y107145D02*
X129875D01*
X128625Y107065D02*
X129875D01*
X128625Y106985D02*
X129875D01*
X128625Y106905D02*
X129875D01*
X128625Y106825D02*
X129875D01*
X128625Y106745D02*
X129875D01*
X128625Y106665D02*
X129875D01*
X128625Y106585D02*
X129875D01*
X128625Y106505D02*
X129875D01*
X128625Y106425D02*
X129875D01*
X128625Y106345D02*
X129875D01*
X128625Y106265D02*
X129875D01*
X128625Y106185D02*
X129875D01*
X128625Y106105D02*
X129875D01*
X128625Y106025D02*
X129875D01*
X128625Y105945D02*
X129875D01*
X128625Y105865D02*
X129875D01*
X128625Y105785D02*
X129875D01*
X128625Y105705D02*
X129875D01*
X128625Y105625D02*
X129875D01*
X128625Y105545D02*
X129875D01*
X128625Y105465D02*
X129875D01*
X128625Y105385D02*
X129875D01*
X128625Y105305D02*
X129875D01*
X128625Y105225D02*
X129875D01*
X128625Y105145D02*
X129875D01*
X128625Y105065D02*
X129875D01*
X128625Y104985D02*
X129875D01*
X128625Y104905D02*
X129875D01*
X128625Y104825D02*
X129875D01*
X128625Y104745D02*
X129875D01*
X128625Y104665D02*
X129875D01*
X128625Y104585D02*
X129875D01*
X128625Y104505D02*
X129875D01*
X128625Y104425D02*
X129875D01*
X128625Y104345D02*
X129875D01*
X128625Y104265D02*
X129875D01*
X128625Y104185D02*
X129875D01*
X128625Y104105D02*
X129875D01*
X128625Y104025D02*
X129875D01*
X128625Y103945D02*
X129875D01*
X128625Y103865D02*
X129875D01*
X128625Y103785D02*
X129875D01*
X128625Y103705D02*
X129875D01*
X128625Y103625D02*
X129875D01*
X128625Y103545D02*
X129875D01*
X128625Y103465D02*
X129875D01*
X128625Y103385D02*
X129875D01*
X128625Y103305D02*
X129875D01*
X128625Y103225D02*
X129875D01*
X128625Y103145D02*
X129875D01*
X128625Y103065D02*
X129875D01*
X128625Y102985D02*
X129875D01*
X128625Y102905D02*
X129875D01*
X128625Y102825D02*
X129875D01*
X128625Y102745D02*
X129875D01*
X128625Y102665D02*
X129875D01*
X128625Y102585D02*
X129875D01*
X128625Y102505D02*
X129875D01*
X128625Y102425D02*
X129875D01*
X128625Y102345D02*
X129875D01*
X128625Y102265D02*
X129875D01*
X128625Y102185D02*
X129875D01*
X128625Y102105D02*
X129875D01*
X128625Y102025D02*
X129875D01*
X128625Y101945D02*
X129875D01*
X128625Y101865D02*
X129875D01*
X128625Y101785D02*
X129875D01*
X128625Y101705D02*
X129875D01*
X128625Y101625D02*
X129875D01*
X128625Y101545D02*
X129875D01*
X128625Y101465D02*
X129875D01*
X128625Y101385D02*
X129875D01*
X128625Y101305D02*
X129875D01*
X128625Y101225D02*
X129875D01*
X128625Y101145D02*
X129875D01*
X128625Y101065D02*
X129875D01*
X128625Y100985D02*
X129875D01*
X128625Y100905D02*
X129875D01*
X128625Y100825D02*
X129875D01*
X128625Y100745D02*
X129875D01*
X128625Y100665D02*
X129875D01*
X128625Y100585D02*
X129875D01*
X128625Y100505D02*
X129875D01*
X128625Y100425D02*
X129875D01*
X128625Y100345D02*
X129875D01*
X128625Y100265D02*
X129875D01*
X128625Y100185D02*
X129875D01*
X128625Y100105D02*
X129875D01*
X128625Y100025D02*
X129875D01*
X128625Y99945D02*
X129875D01*
X128625Y99865D02*
X129875D01*
X128625Y99785D02*
X129875D01*
X128625Y99705D02*
X129875D01*
X128625Y99625D02*
X129875D01*
X128625Y99545D02*
X129875D01*
X128625Y99465D02*
X129875D01*
X128625Y99385D02*
X129875D01*
X128625Y99305D02*
X129875D01*
X128625Y99225D02*
X129875D01*
X128625Y99145D02*
X129875D01*
X128625Y99065D02*
X129875D01*
X128625Y98985D02*
X129875D01*
X128625Y98905D02*
X129875D01*
X128625Y98825D02*
X129875D01*
X128625Y98745D02*
X129875D01*
X128625Y98665D02*
X129875D01*
X128625Y98585D02*
X129875D01*
X128625Y98505D02*
X129875D01*
X128625Y98425D02*
X129875D01*
X128625Y98345D02*
X129875D01*
X128625Y98265D02*
X129875D01*
X128625Y98185D02*
X129875D01*
X128625Y98105D02*
X129875D01*
X128625Y98025D02*
X129875D01*
X128625Y97945D02*
X129875D01*
X128625Y97865D02*
X129875D01*
X128625Y97785D02*
X129875D01*
X128625Y97705D02*
X129875D01*
X128625Y97625D02*
X129875D01*
X128625Y97545D02*
X129875D01*
X128625Y97465D02*
X129875D01*
X128625Y97385D02*
X129875D01*
X128625Y97305D02*
X129875D01*
X128625Y97225D02*
X129875D01*
X128625Y97145D02*
X129875D01*
X128625Y97065D02*
X129875D01*
X128625Y96985D02*
X129875D01*
X128625Y96905D02*
X129875D01*
X128625Y96825D02*
X129875D01*
X128625Y96745D02*
X129875D01*
X128625Y96665D02*
X129875D01*
X128625Y96585D02*
X129875D01*
X128625Y96505D02*
X129875D01*
X128625Y96425D02*
X129875D01*
X128625Y96345D02*
X129875D01*
X128625Y96265D02*
X129875D01*
X128625Y96185D02*
X129875D01*
X128625Y96105D02*
X129875D01*
X128625Y96025D02*
X129875D01*
X128625Y95945D02*
X129875D01*
X128625Y95865D02*
X129875D01*
X128625Y95785D02*
X129875D01*
X128625Y95705D02*
X129875D01*
X128625Y95625D02*
X129875D01*
X128625Y95545D02*
X129875D01*
X128625Y95465D02*
X129875D01*
X128625Y95385D02*
X129875D01*
X128625Y95305D02*
X129875D01*
X128625Y95225D02*
X129875D01*
X128625Y95145D02*
X129875D01*
X128625Y95065D02*
X129875D01*
X128625Y94985D02*
X129875D01*
X128625Y94905D02*
X129875D01*
X128625Y94825D02*
X129875D01*
X128625Y94745D02*
X129875D01*
X128625Y94665D02*
X129875D01*
X128625Y94585D02*
X129875D01*
X128625Y94505D02*
X129875D01*
X128625Y94425D02*
X129875D01*
X128625Y94345D02*
X129875D01*
X128625Y94265D02*
X129875D01*
X128625Y94185D02*
X129875D01*
X128625Y94105D02*
X129875D01*
X128625Y94025D02*
X129875D01*
X128625Y93945D02*
X129875D01*
X128625Y93865D02*
X129875D01*
X128625Y93785D02*
X129875D01*
X128625Y93705D02*
X129875D01*
X128625Y93625D02*
X129875D01*
X128625Y93545D02*
X129875D01*
X128625Y93465D02*
X129875D01*
X128625Y93385D02*
X129875D01*
X128625Y93305D02*
X129875D01*
X128625Y93225D02*
X129875D01*
X128625Y93145D02*
X129875D01*
X128625Y93065D02*
X129875D01*
X128625Y92985D02*
X129875D01*
X128625Y92905D02*
X129875D01*
X128625Y92825D02*
X129875D01*
X128625Y92745D02*
X129875D01*
X128625Y92665D02*
X129875D01*
X128625Y92585D02*
X129875D01*
X128625Y92505D02*
X129875D01*
X128625Y92425D02*
X129875D01*
X128625Y92345D02*
X129875D01*
X128625Y92265D02*
X129875D01*
X128625Y92185D02*
X129875D01*
X128625Y92105D02*
X129875D01*
X128625Y92025D02*
X129875D01*
X128625Y91945D02*
X129875D01*
X128625Y91865D02*
X129875D01*
X128625Y91785D02*
X129875D01*
X128625Y91705D02*
X129875D01*
X128625Y91625D02*
X129875D01*
X128625Y91545D02*
X129875D01*
X128625Y91465D02*
X129875D01*
X128625Y91385D02*
X129875D01*
X128625Y91305D02*
X129875D01*
X128625Y91225D02*
X129875D01*
X128625Y91145D02*
X129875D01*
X128625Y91065D02*
X129875D01*
X128625Y90985D02*
X129875D01*
X128625Y90905D02*
X129875D01*
X128625Y90825D02*
X129875D01*
X128625Y90745D02*
X129875D01*
X128625Y90665D02*
X129875D01*
X128625Y90585D02*
X129875D01*
X128625Y90505D02*
X129875D01*
X128625Y90425D02*
X129875D01*
X128625Y90345D02*
X129875D01*
X128625Y90265D02*
X129875D01*
X128625Y90185D02*
X129875D01*
X128625Y90105D02*
X129875D01*
X128625Y90025D02*
X129875D01*
X128625Y89945D02*
X129875D01*
X128625Y89865D02*
X129875D01*
X128625Y89785D02*
X129875D01*
X128625Y89705D02*
X129875D01*
X128625Y89625D02*
X129875D01*
Y50625D02*
Y114775D01*
X129855Y50625D02*
Y114775D01*
X129775Y50625D02*
Y114775D01*
X129695Y50625D02*
Y114775D01*
X129615Y50625D02*
Y114775D01*
X128625Y89545D02*
X129875D01*
X129535Y50625D02*
Y114775D01*
X129455Y50625D02*
Y114775D01*
X129375Y50625D02*
Y114775D01*
X129295Y50625D02*
Y114775D01*
X129215Y50625D02*
Y114775D01*
X129135Y50625D02*
Y114775D01*
X129055Y50625D02*
Y114775D01*
X128975Y50625D02*
Y114775D01*
X128895Y50625D02*
Y114775D01*
X128815Y50625D02*
Y114775D01*
X128735Y50625D02*
Y114775D01*
X128655Y50625D02*
Y114775D01*
X128625Y50625D02*
Y114775D01*
Y89465D02*
X129875D01*
X128625Y89385D02*
X129875D01*
X128625Y89305D02*
X129875D01*
X128625Y89225D02*
X129875D01*
X128625Y89145D02*
X129875D01*
X128625Y89065D02*
X129875D01*
X128625Y88985D02*
X129875D01*
X128625Y88905D02*
X129875D01*
X128625Y88825D02*
X129875D01*
X128625Y88745D02*
X129875D01*
X128625Y88665D02*
X129875D01*
X128625Y88585D02*
X129875D01*
X128625Y88505D02*
X129875D01*
X128625Y88425D02*
X129875D01*
X128625Y88345D02*
X129875D01*
X128625Y88265D02*
X129875D01*
X128625Y88185D02*
X129875D01*
X128625Y88105D02*
X129875D01*
X128625Y88025D02*
X129875D01*
X128625Y87945D02*
X129875D01*
X128625Y87865D02*
X129875D01*
X128625Y87785D02*
X129875D01*
X128625Y87705D02*
X129875D01*
X128625Y87625D02*
X129875D01*
X128625Y87545D02*
X129875D01*
X128625Y87465D02*
X129875D01*
X128625Y87385D02*
X129875D01*
X128625Y87305D02*
X129875D01*
X128625Y87225D02*
X129875D01*
X128625Y87145D02*
X129875D01*
X128625Y87065D02*
X129875D01*
X128625Y86985D02*
X129875D01*
X128625Y86905D02*
X129875D01*
X128625Y86825D02*
X129875D01*
X128625Y86745D02*
X129875D01*
X128625Y86665D02*
X129875D01*
X128625Y86585D02*
X129875D01*
X128625Y86505D02*
X129875D01*
X128625Y86425D02*
X129875D01*
X128625Y86345D02*
X129875D01*
X128625Y86265D02*
X129875D01*
X128625Y86185D02*
X129875D01*
X128625Y86105D02*
X129875D01*
X128625Y86025D02*
X129875D01*
X128625Y85945D02*
X129875D01*
X128625Y85865D02*
X129875D01*
X128625Y85785D02*
X129875D01*
X128625Y85705D02*
X129875D01*
X128625Y85625D02*
X129875D01*
X128625Y85545D02*
X129875D01*
X128625Y85465D02*
X129875D01*
X128625Y85385D02*
X129875D01*
X128625Y85305D02*
X129875D01*
X128625Y85225D02*
X129875D01*
X128625Y85145D02*
X129875D01*
X128625Y85065D02*
X129875D01*
X128625Y84985D02*
X129875D01*
X128625Y84905D02*
X129875D01*
X128625Y84825D02*
X129875D01*
X128625Y84745D02*
X129875D01*
X128625Y84665D02*
X129875D01*
X128625Y84585D02*
X129875D01*
X128625Y84505D02*
X129875D01*
X128625Y84425D02*
X129875D01*
X128625Y84345D02*
X129875D01*
X128625Y84265D02*
X129875D01*
X128625Y84185D02*
X129875D01*
X128625Y84105D02*
X129875D01*
X128625Y84025D02*
X129875D01*
X128625Y83945D02*
X129875D01*
X128625Y83865D02*
X129875D01*
X128625Y83785D02*
X129875D01*
X128625Y83705D02*
X129875D01*
X128625Y83625D02*
X129875D01*
X128625Y83545D02*
X129875D01*
X128625Y50625D02*
X129875D01*
X128625Y83465D02*
X129875D01*
X128625Y83385D02*
X129875D01*
X128625Y83305D02*
X129875D01*
X128625Y83225D02*
X129875D01*
X128625Y83145D02*
X129875D01*
X128625Y83065D02*
X129875D01*
X128625Y82985D02*
X129875D01*
X128625Y82905D02*
X129875D01*
X128625Y82825D02*
X129875D01*
X128625Y82745D02*
X129875D01*
X128625Y82665D02*
X129875D01*
X128625Y82585D02*
X129875D01*
X128625Y82505D02*
X129875D01*
X128625Y82425D02*
X129875D01*
X128625Y82345D02*
X129875D01*
X128625Y82265D02*
X129875D01*
X128625Y82185D02*
X129875D01*
X128625Y82105D02*
X129875D01*
X128625Y82025D02*
X129875D01*
X128625Y81945D02*
X129875D01*
X128625Y81865D02*
X129875D01*
X128625Y81785D02*
X129875D01*
X128625Y81705D02*
X129875D01*
X128625Y81625D02*
X129875D01*
X128625Y81545D02*
X129875D01*
X128625Y81465D02*
X129875D01*
X128625Y81385D02*
X129875D01*
X128625Y81305D02*
X129875D01*
X128625Y81225D02*
X129875D01*
X128625Y81145D02*
X129875D01*
X128625Y81065D02*
X129875D01*
X128625Y80985D02*
X129875D01*
X128625Y80905D02*
X129875D01*
X128625Y80825D02*
X129875D01*
X128625Y80745D02*
X129875D01*
X128625Y80665D02*
X129875D01*
X128625Y80585D02*
X129875D01*
X128625Y80505D02*
X129875D01*
X128625Y80425D02*
X129875D01*
X128625Y80345D02*
X129875D01*
X128625Y80265D02*
X129875D01*
X128625Y80185D02*
X129875D01*
X128625Y80105D02*
X129875D01*
X128625Y80025D02*
X129875D01*
X128625Y79945D02*
X129875D01*
X128625Y79865D02*
X129875D01*
X128625Y79785D02*
X129875D01*
X128625Y79705D02*
X129875D01*
X128625Y79625D02*
X129875D01*
X128625Y79545D02*
X129875D01*
X128625Y79465D02*
X129875D01*
X128625Y79385D02*
X129875D01*
X128625Y79305D02*
X129875D01*
X128625Y79225D02*
X129875D01*
X128625Y79145D02*
X129875D01*
X128625Y79065D02*
X129875D01*
X128625Y78985D02*
X129875D01*
X128625Y78905D02*
X129875D01*
X128625Y78825D02*
X129875D01*
X128625Y78745D02*
X129875D01*
X128625Y78665D02*
X129875D01*
X128625Y78585D02*
X129875D01*
X128625Y78505D02*
X129875D01*
X128625Y78425D02*
X129875D01*
X128625Y78345D02*
X129875D01*
X128625Y78265D02*
X129875D01*
X128625Y78185D02*
X129875D01*
X128625Y78105D02*
X129875D01*
X128625Y78025D02*
X129875D01*
X128625Y77945D02*
X129875D01*
X128625Y77865D02*
X129875D01*
X128625Y77785D02*
X129875D01*
X128625Y77705D02*
X129875D01*
X128625Y77625D02*
X129875D01*
X128625Y77545D02*
X129875D01*
X128625Y77465D02*
X129875D01*
X128625Y77385D02*
X129875D01*
X128625Y77305D02*
X129875D01*
X128625Y77225D02*
X129875D01*
X128625Y77145D02*
X129875D01*
X128625Y77065D02*
X129875D01*
X128625Y76985D02*
X129875D01*
X128625Y76905D02*
X129875D01*
X128625Y76825D02*
X129875D01*
X128625Y76745D02*
X129875D01*
X128625Y76665D02*
X129875D01*
X128625Y76585D02*
X129875D01*
X128625Y76505D02*
X129875D01*
X128625Y76425D02*
X129875D01*
X128625Y76345D02*
X129875D01*
X128625Y76265D02*
X129875D01*
X128625Y76185D02*
X129875D01*
X128625Y76105D02*
X129875D01*
X128625Y76025D02*
X129875D01*
X128625Y75945D02*
X129875D01*
X128625Y75865D02*
X129875D01*
X128625Y75785D02*
X129875D01*
X128625Y75705D02*
X129875D01*
X128625Y75625D02*
X129875D01*
X128625Y75545D02*
X129875D01*
X128625Y75465D02*
X129875D01*
X128625Y75385D02*
X129875D01*
X128625Y75305D02*
X129875D01*
X128625Y75225D02*
X129875D01*
X128625Y75145D02*
X129875D01*
X128625Y75065D02*
X129875D01*
X128625Y74985D02*
X129875D01*
X128625Y74905D02*
X129875D01*
X128625Y74825D02*
X129875D01*
X128625Y74745D02*
X129875D01*
X128625Y74665D02*
X129875D01*
X128625Y74585D02*
X129875D01*
X128625Y74505D02*
X129875D01*
X128625Y74425D02*
X129875D01*
X128625Y74345D02*
X129875D01*
X128625Y74265D02*
X129875D01*
X128625Y74185D02*
X129875D01*
X128625Y74105D02*
X129875D01*
X128625Y74025D02*
X129875D01*
X128625Y73945D02*
X129875D01*
X128625Y73865D02*
X129875D01*
X128625Y73785D02*
X129875D01*
X128625Y73705D02*
X129875D01*
X128625Y73625D02*
X129875D01*
X128625Y73545D02*
X129875D01*
X128625Y73465D02*
X129875D01*
X128625Y73385D02*
X129875D01*
X128625Y73305D02*
X129875D01*
X128625Y73225D02*
X129875D01*
X128625Y73145D02*
X129875D01*
X128625Y73065D02*
X129875D01*
X128625Y72985D02*
X129875D01*
X128625Y72905D02*
X129875D01*
X128625Y72825D02*
X129875D01*
X128625Y72745D02*
X129875D01*
X128625Y72665D02*
X129875D01*
X128625Y72585D02*
X129875D01*
X128625Y72505D02*
X129875D01*
X128625Y72425D02*
X129875D01*
X128625Y72345D02*
X129875D01*
X128625Y72265D02*
X129875D01*
X128625Y72185D02*
X129875D01*
X128625Y72105D02*
X129875D01*
X128625Y72025D02*
X129875D01*
X128625Y71945D02*
X129875D01*
X128625Y71865D02*
X129875D01*
X128625Y71785D02*
X129875D01*
X128625Y71705D02*
X129875D01*
X128625Y71625D02*
X129875D01*
X128625Y71545D02*
X129875D01*
X128625Y71465D02*
X129875D01*
X128625Y71385D02*
X129875D01*
X128625Y71305D02*
X129875D01*
X128625Y71225D02*
X129875D01*
X128625Y71145D02*
X129875D01*
X128625Y71065D02*
X129875D01*
X128625Y70985D02*
X129875D01*
X128625Y70905D02*
X129875D01*
X128625Y70825D02*
X129875D01*
X128625Y70745D02*
X129875D01*
X128625Y70665D02*
X129875D01*
X128625Y70585D02*
X129875D01*
X128625Y70505D02*
X129875D01*
X128625Y70425D02*
X129875D01*
X128625Y70345D02*
X129875D01*
X128625Y70265D02*
X129875D01*
X128625Y70185D02*
X129875D01*
X128625Y70105D02*
X129875D01*
X128625Y70025D02*
X129875D01*
X128625Y69945D02*
X129875D01*
X128625Y69865D02*
X129875D01*
X128625Y69785D02*
X129875D01*
X128625Y69705D02*
X129875D01*
X128625Y69625D02*
X129875D01*
X128625Y69545D02*
X129875D01*
X128625Y69465D02*
X129875D01*
X128625Y69385D02*
X129875D01*
X128625Y69305D02*
X129875D01*
X128625Y69225D02*
X129875D01*
X128625Y69145D02*
X129875D01*
X128625Y69065D02*
X129875D01*
X128625Y68985D02*
X129875D01*
X128625Y68905D02*
X129875D01*
X128625Y68825D02*
X129875D01*
X128625Y68745D02*
X129875D01*
X128625Y68665D02*
X129875D01*
X128625Y68585D02*
X129875D01*
X128625Y68505D02*
X129875D01*
X128625Y68425D02*
X129875D01*
X128625Y68345D02*
X129875D01*
X128625Y68265D02*
X129875D01*
X128625Y68185D02*
X129875D01*
X128625Y68105D02*
X129875D01*
X128625Y68025D02*
X129875D01*
X128625Y67945D02*
X129875D01*
X128625Y67865D02*
X129875D01*
X128625Y67785D02*
X129875D01*
X128625Y67705D02*
X129875D01*
X128625Y67625D02*
X129875D01*
X128625Y67545D02*
X129875D01*
X128625Y67465D02*
X129875D01*
X128625Y67385D02*
X129875D01*
X128625Y67305D02*
X129875D01*
X128625Y67225D02*
X129875D01*
X128625Y67145D02*
X129875D01*
X128625Y67065D02*
X129875D01*
X128625Y66985D02*
X129875D01*
X128625Y66905D02*
X129875D01*
X128625Y66825D02*
X129875D01*
X128625Y66745D02*
X129875D01*
X128625Y66665D02*
X129875D01*
X128625Y66585D02*
X129875D01*
X128625Y66505D02*
X129875D01*
X128625Y66425D02*
X129875D01*
X128625Y66345D02*
X129875D01*
X128625Y66265D02*
X129875D01*
X128625Y66185D02*
X129875D01*
X128625Y66105D02*
X129875D01*
X128625Y66025D02*
X129875D01*
X128625Y65945D02*
X129875D01*
X128625Y65865D02*
X129875D01*
X128625Y65785D02*
X129875D01*
X128625Y65705D02*
X129875D01*
X128625Y65625D02*
X129875D01*
X128625Y65545D02*
X129875D01*
X128625Y65465D02*
X129875D01*
X128625Y65385D02*
X129875D01*
X128625Y65305D02*
X129875D01*
X128625Y65225D02*
X129875D01*
X128625Y65145D02*
X129875D01*
X128625Y65065D02*
X129875D01*
X128625Y64985D02*
X129875D01*
X128625Y64905D02*
X129875D01*
X128625Y64825D02*
X129875D01*
X128625Y64745D02*
X129875D01*
X128625Y64665D02*
X129875D01*
X128625Y64585D02*
X129875D01*
X128625Y64505D02*
X129875D01*
X128625Y64425D02*
X129875D01*
X128625Y64345D02*
X129875D01*
X128625Y64265D02*
X129875D01*
X128625Y64185D02*
X129875D01*
X128625Y64105D02*
X129875D01*
X128625Y64025D02*
X129875D01*
X128625Y63945D02*
X129875D01*
X128625Y63865D02*
X129875D01*
X128625Y63785D02*
X129875D01*
X128625Y63705D02*
X129875D01*
X128625Y63625D02*
X129875D01*
X128625Y63545D02*
X129875D01*
X128625Y63465D02*
X129875D01*
X128625Y63385D02*
X129875D01*
X128625Y63305D02*
X129875D01*
X128625Y63225D02*
X129875D01*
X128625Y63145D02*
X129875D01*
X128625Y63065D02*
X129875D01*
X128625Y62985D02*
X129875D01*
X128625Y62905D02*
X129875D01*
X128625Y62825D02*
X129875D01*
X128625Y62745D02*
X129875D01*
X128625Y62665D02*
X129875D01*
X128625Y62585D02*
X129875D01*
X128625Y62505D02*
X129875D01*
X128625Y62425D02*
X129875D01*
X128625Y62345D02*
X129875D01*
X128625Y62265D02*
X129875D01*
X128625Y62185D02*
X129875D01*
X128625Y62105D02*
X129875D01*
X128625Y62025D02*
X129875D01*
X128625Y61945D02*
X129875D01*
X128625Y61865D02*
X129875D01*
X128625Y61785D02*
X129875D01*
X128625Y61705D02*
X129875D01*
X128625Y61625D02*
X129875D01*
X128625Y61545D02*
X129875D01*
X128625Y61465D02*
X129875D01*
X128625Y61385D02*
X129875D01*
X128625Y61305D02*
X129875D01*
X128625Y61225D02*
X129875D01*
X128625Y61145D02*
X129875D01*
X128625Y61065D02*
X129875D01*
X128625Y60985D02*
X129875D01*
X128625Y60905D02*
X129875D01*
X128625Y60825D02*
X129875D01*
X128625Y60745D02*
X129875D01*
X128625Y60665D02*
X129875D01*
X128625Y60585D02*
X129875D01*
X128625Y60505D02*
X129875D01*
X128625Y60425D02*
X129875D01*
X128625Y60345D02*
X129875D01*
X128625Y60265D02*
X129875D01*
X128625Y60185D02*
X129875D01*
X128625Y60105D02*
X129875D01*
X128625Y60025D02*
X129875D01*
X128625Y59945D02*
X129875D01*
X128625Y59865D02*
X129875D01*
X128625Y59785D02*
X129875D01*
X128625Y59705D02*
X129875D01*
X128625Y59625D02*
X129875D01*
X128625Y59545D02*
X129875D01*
X128625Y59465D02*
X129875D01*
X128625Y59385D02*
X129875D01*
X128625Y59305D02*
X129875D01*
X128625Y59225D02*
X129875D01*
X128625Y59145D02*
X129875D01*
X128625Y59065D02*
X129875D01*
X128625Y58985D02*
X129875D01*
X128625Y58905D02*
X129875D01*
X128625Y58825D02*
X129875D01*
X128625Y58745D02*
X129875D01*
X128625Y58665D02*
X129875D01*
X128625Y58585D02*
X129875D01*
X128625Y58505D02*
X129875D01*
X128625Y58425D02*
X129875D01*
X128625Y58345D02*
X129875D01*
X128625Y58265D02*
X129875D01*
X128625Y58185D02*
X129875D01*
X128625Y58105D02*
X129875D01*
X128625Y58025D02*
X129875D01*
X128625Y57945D02*
X129875D01*
X128625Y57865D02*
X129875D01*
X128625Y57785D02*
X129875D01*
X128625Y57705D02*
X129875D01*
X128625Y57625D02*
X129875D01*
X128625Y57545D02*
X129875D01*
X128625Y57465D02*
X129875D01*
X128625Y57385D02*
X129875D01*
X128625Y57305D02*
X129875D01*
X128625Y57225D02*
X129875D01*
X128625Y57145D02*
X129875D01*
X128625Y57065D02*
X129875D01*
X128625Y56985D02*
X129875D01*
X128625Y56905D02*
X129875D01*
X128625Y56825D02*
X129875D01*
X128625Y56745D02*
X129875D01*
X128625Y56665D02*
X129875D01*
X128625Y56585D02*
X129875D01*
X128625Y56505D02*
X129875D01*
X128625Y56425D02*
X129875D01*
X128625Y56345D02*
X129875D01*
X128625Y56265D02*
X129875D01*
X128625Y56185D02*
X129875D01*
X128625Y56105D02*
X129875D01*
X128625Y56025D02*
X129875D01*
X128625Y55945D02*
X129875D01*
X128625Y55865D02*
X129875D01*
X128625Y55785D02*
X129875D01*
X128625Y55705D02*
X129875D01*
X128625Y55625D02*
X129875D01*
X128625Y55545D02*
X129875D01*
X128625Y55465D02*
X129875D01*
X128625Y55385D02*
X129875D01*
X128625Y55305D02*
X129875D01*
X128625Y55225D02*
X129875D01*
X128625Y55145D02*
X129875D01*
X128625Y55065D02*
X129875D01*
X128625Y54985D02*
X129875D01*
X128625Y54905D02*
X129875D01*
X128625Y54825D02*
X129875D01*
X128625Y54745D02*
X129875D01*
X128625Y54665D02*
X129875D01*
X128625Y54585D02*
X129875D01*
X128625Y54505D02*
X129875D01*
X128625Y54425D02*
X129875D01*
X128625Y54345D02*
X129875D01*
X128625Y54265D02*
X129875D01*
X128625Y54185D02*
X129875D01*
X128625Y54105D02*
X129875D01*
X128625Y54025D02*
X129875D01*
X128625Y53945D02*
X129875D01*
X128625Y53865D02*
X129875D01*
X128625Y53785D02*
X129875D01*
X128625Y53705D02*
X129875D01*
X128625Y53625D02*
X129875D01*
X128625Y53545D02*
X129875D01*
X128625Y53465D02*
X129875D01*
X128625Y53385D02*
X129875D01*
X128625Y53305D02*
X129875D01*
X128625Y53225D02*
X129875D01*
X128625Y53145D02*
X129875D01*
X128625Y53065D02*
X129875D01*
X128625Y52985D02*
X129875D01*
X128625Y52905D02*
X129875D01*
X128625Y52825D02*
X129875D01*
X128625Y52745D02*
X129875D01*
X128625Y52665D02*
X129875D01*
X128625Y52585D02*
X129875D01*
X128625Y52505D02*
X129875D01*
X128625Y52425D02*
X129875D01*
X128625Y52345D02*
X129875D01*
X128625Y52265D02*
X129875D01*
X128625Y52185D02*
X129875D01*
X128625Y52105D02*
X129875D01*
X128625Y52025D02*
X129875D01*
X128625Y51945D02*
X129875D01*
X128625Y51865D02*
X129875D01*
X128625Y51785D02*
X129875D01*
X128625Y51705D02*
X129875D01*
X128625Y51625D02*
X129875D01*
X128625Y51545D02*
X129875D01*
X128625Y51465D02*
X129875D01*
X128625Y51385D02*
X129875D01*
X128625Y51305D02*
X129875D01*
X128625Y51225D02*
X129875D01*
X128625Y51145D02*
X129875D01*
X128625Y51065D02*
X129875D01*
X128625Y50985D02*
X129875D01*
X128625Y50905D02*
X129875D01*
X128625Y50825D02*
X129875D01*
X128625Y50745D02*
X129875D01*
X128625Y50665D02*
X129875D01*
X66975Y114775D02*
X68225D01*
X66975Y114745D02*
X68225D01*
X66975Y114665D02*
X68225D01*
X66975Y114585D02*
X68225D01*
X66975Y114505D02*
X68225D01*
X66975Y114425D02*
X68225D01*
X66975Y114345D02*
X68225D01*
X66975Y114265D02*
X68225D01*
X66975Y114185D02*
X68225D01*
X66975Y114105D02*
X68225D01*
X66975Y114025D02*
X68225D01*
X66975Y113945D02*
X68225D01*
X66975Y113865D02*
X68225D01*
X66975Y113785D02*
X68225D01*
X66975Y113705D02*
X68225D01*
X66975Y113625D02*
X68225D01*
X66975Y113545D02*
X68225D01*
X66975Y113465D02*
X68225D01*
X66975Y113385D02*
X68225D01*
X66975Y113305D02*
X68225D01*
X66975Y113225D02*
X68225D01*
X66975Y113145D02*
X68225D01*
X66975Y113065D02*
X68225D01*
X66975Y112985D02*
X68225D01*
X66975Y112905D02*
X68225D01*
X66975Y112825D02*
X68225D01*
X66975Y112745D02*
X68225D01*
X66975Y112665D02*
X68225D01*
X66975Y112585D02*
X68225D01*
X66975Y112505D02*
X68225D01*
X66975Y112425D02*
X68225D01*
X66975Y112345D02*
X68225D01*
X66975Y112265D02*
X68225D01*
X66975Y112185D02*
X68225D01*
X66975Y112105D02*
X68225D01*
X66975Y112025D02*
X68225D01*
X66975Y111945D02*
X68225D01*
X66975Y111865D02*
X68225D01*
X66975Y111785D02*
X68225D01*
X66975Y111705D02*
X68225D01*
X66975Y111625D02*
X68225D01*
X66975Y111545D02*
X68225D01*
X66975Y111465D02*
X68225D01*
X66975Y111385D02*
X68225D01*
X66975Y111305D02*
X68225D01*
X66975Y111225D02*
X68225D01*
X66975Y111145D02*
X68225D01*
X66975Y111065D02*
X68225D01*
X66975Y110985D02*
X68225D01*
X66975Y110905D02*
X68225D01*
X66975Y110825D02*
X68225D01*
X66975Y110745D02*
X68225D01*
X66975Y110665D02*
X68225D01*
X66975Y110585D02*
X68225D01*
X66975Y110505D02*
X68225D01*
X66975Y110425D02*
X68225D01*
X66975Y110345D02*
X68225D01*
X66975Y110265D02*
X68225D01*
X66975Y110185D02*
X68225D01*
X66975Y110105D02*
X68225D01*
X66975Y110025D02*
X68225D01*
X66975Y109945D02*
X68225D01*
X66975Y109865D02*
X68225D01*
X66975Y109785D02*
X68225D01*
X66975Y109705D02*
X68225D01*
X66975Y109625D02*
X68225D01*
X66975Y109545D02*
X68225D01*
X66975Y109465D02*
X68225D01*
X66975Y109385D02*
X68225D01*
X66975Y109305D02*
X68225D01*
X66975Y109225D02*
X68225D01*
X66975Y109145D02*
X68225D01*
X66975Y109065D02*
X68225D01*
X66975Y108985D02*
X68225D01*
X66975Y108905D02*
X68225D01*
X66975Y108825D02*
X68225D01*
X66975Y108745D02*
X68225D01*
X66975Y108665D02*
X68225D01*
X66975Y108585D02*
X68225D01*
X66975Y108505D02*
X68225D01*
X66975Y108425D02*
X68225D01*
X66975Y108345D02*
X68225D01*
X66975Y108265D02*
X68225D01*
X66975Y108185D02*
X68225D01*
X66975Y108105D02*
X68225D01*
X66975Y108025D02*
X68225D01*
X66975Y107945D02*
X68225D01*
X66975Y107865D02*
X68225D01*
X66975Y107785D02*
X68225D01*
X66975Y107705D02*
X68225D01*
X66975Y107625D02*
X68225D01*
X66975Y107545D02*
X68225D01*
X66975Y107465D02*
X68225D01*
X66975Y107385D02*
X68225D01*
X66975Y107305D02*
X68225D01*
X66975Y107225D02*
X68225D01*
X66975Y107145D02*
X68225D01*
X66975Y107065D02*
X68225D01*
X66975Y106985D02*
X68225D01*
X66975Y106905D02*
X68225D01*
X66975Y106825D02*
X68225D01*
X66975Y106745D02*
X68225D01*
X66975Y106665D02*
X68225D01*
X66975Y106585D02*
X68225D01*
X66975Y106505D02*
X68225D01*
X66975Y106425D02*
X68225D01*
X66975Y106345D02*
X68225D01*
X66975Y106265D02*
X68225D01*
X66975Y106185D02*
X68225D01*
X66975Y106105D02*
X68225D01*
X66975Y106025D02*
X68225D01*
X66975Y105945D02*
X68225D01*
X66975Y105865D02*
X68225D01*
X66975Y105785D02*
X68225D01*
X66975Y105705D02*
X68225D01*
X66975Y105625D02*
X68225D01*
X66975Y105545D02*
X68225D01*
X66975Y105465D02*
X68225D01*
X66975Y105385D02*
X68225D01*
X66975Y105305D02*
X68225D01*
X66975Y105225D02*
X68225D01*
X66975Y105145D02*
X68225D01*
X66975Y105065D02*
X68225D01*
X66975Y104985D02*
X68225D01*
X66975Y104905D02*
X68225D01*
X66975Y104825D02*
X68225D01*
X66975Y104745D02*
X68225D01*
X66975Y104665D02*
X68225D01*
X66975Y104585D02*
X68225D01*
X66975Y104505D02*
X68225D01*
X66975Y104425D02*
X68225D01*
X66975Y104345D02*
X68225D01*
X66975Y104265D02*
X68225D01*
X66975Y104185D02*
X68225D01*
X66975Y104105D02*
X68225D01*
X66975Y104025D02*
X68225D01*
X66975Y103945D02*
X68225D01*
X66975Y103865D02*
X68225D01*
X66975Y103785D02*
X68225D01*
X66975Y103705D02*
X68225D01*
X66975Y103625D02*
X68225D01*
X66975Y103545D02*
X68225D01*
X66975Y103465D02*
X68225D01*
X66975Y103385D02*
X68225D01*
X66975Y103305D02*
X68225D01*
X66975Y103225D02*
X68225D01*
X66975Y103145D02*
X68225D01*
X66975Y103065D02*
X68225D01*
X66975Y102985D02*
X68225D01*
X66975Y102905D02*
X68225D01*
X66975Y102825D02*
X68225D01*
X66975Y102745D02*
X68225D01*
X66975Y102665D02*
X68225D01*
X66975Y102585D02*
X68225D01*
X66975Y102505D02*
X68225D01*
X66975Y102425D02*
X68225D01*
X66975Y102345D02*
X68225D01*
X66975Y102265D02*
X68225D01*
X66975Y102185D02*
X68225D01*
X66975Y102105D02*
X68225D01*
X66975Y102025D02*
X68225D01*
X66975Y101945D02*
X68225D01*
X66975Y101865D02*
X68225D01*
X66975Y101785D02*
X68225D01*
X66975Y101705D02*
X68225D01*
X66975Y101625D02*
X68225D01*
X66975Y101545D02*
X68225D01*
X66975Y101465D02*
X68225D01*
X66975Y101385D02*
X68225D01*
X66975Y101305D02*
X68225D01*
X66975Y101225D02*
X68225D01*
X66975Y101145D02*
X68225D01*
X66975Y101065D02*
X68225D01*
X66975Y100985D02*
X68225D01*
X66975Y100905D02*
X68225D01*
X66975Y100825D02*
X68225D01*
X66975Y100745D02*
X68225D01*
X66975Y100665D02*
X68225D01*
X66975Y100585D02*
X68225D01*
X66975Y100505D02*
X68225D01*
X66975Y100425D02*
X68225D01*
X66975Y100345D02*
X68225D01*
X66975Y100265D02*
X68225D01*
X66975Y100185D02*
X68225D01*
X66975Y100105D02*
X68225D01*
X66975Y100025D02*
X68225D01*
X66975Y99945D02*
X68225D01*
X66975Y99865D02*
X68225D01*
X66975Y99785D02*
X68225D01*
X66975Y99705D02*
X68225D01*
X66975Y99625D02*
X68225D01*
X66975Y99545D02*
X68225D01*
X66975Y99465D02*
X68225D01*
X66975Y99385D02*
X68225D01*
X66975Y99305D02*
X68225D01*
X66975Y99225D02*
X68225D01*
X66975Y99145D02*
X68225D01*
X66975Y99065D02*
X68225D01*
X66975Y98985D02*
X68225D01*
X66975Y98905D02*
X68225D01*
X66975Y98825D02*
X68225D01*
X66975Y98745D02*
X68225D01*
X66975Y98665D02*
X68225D01*
X66975Y98585D02*
X68225D01*
X66975Y98505D02*
X68225D01*
X66975Y98425D02*
X68225D01*
X66975Y98345D02*
X68225D01*
X66975Y98265D02*
X68225D01*
X66975Y98185D02*
X68225D01*
X66975Y98105D02*
X68225D01*
X66975Y98025D02*
X68225D01*
X66975Y97945D02*
X68225D01*
X66975Y97865D02*
X68225D01*
X66975Y97785D02*
X68225D01*
X66975Y97705D02*
X68225D01*
X66975Y97625D02*
X68225D01*
X66975Y97545D02*
X68225D01*
X66975Y97465D02*
X68225D01*
X66975Y97385D02*
X68225D01*
X66975Y97305D02*
X68225D01*
X66975Y97225D02*
X68225D01*
X66975Y97145D02*
X68225D01*
X66975Y97065D02*
X68225D01*
X66975Y96985D02*
X68225D01*
X66975Y96905D02*
X68225D01*
X66975Y96825D02*
X68225D01*
X66975Y96745D02*
X68225D01*
X66975Y96665D02*
X68225D01*
X66975Y96585D02*
X68225D01*
X66975Y96505D02*
X68225D01*
X66975Y96425D02*
X68225D01*
X66975Y96345D02*
X68225D01*
X66975Y96265D02*
X68225D01*
X66975Y96185D02*
X68225D01*
X66975Y96105D02*
X68225D01*
X66975Y96025D02*
X68225D01*
X66975Y95945D02*
X68225D01*
X66975Y95865D02*
X68225D01*
X66975Y95785D02*
X68225D01*
X66975Y95705D02*
X68225D01*
X66975Y95625D02*
X68225D01*
X66975Y95545D02*
X68225D01*
X66975Y95465D02*
X68225D01*
X66975Y95385D02*
X68225D01*
X66975Y95305D02*
X68225D01*
X66975Y95225D02*
X68225D01*
X66975Y95145D02*
X68225D01*
X66975Y95065D02*
X68225D01*
X66975Y94985D02*
X68225D01*
X66975Y94905D02*
X68225D01*
X66975Y94825D02*
X68225D01*
X66975Y94745D02*
X68225D01*
X66975Y94665D02*
X68225D01*
X66975Y94585D02*
X68225D01*
X66975Y94505D02*
X68225D01*
X66975Y94425D02*
X68225D01*
X66975Y94345D02*
X68225D01*
X66975Y94265D02*
X68225D01*
X66975Y94185D02*
X68225D01*
X66975Y94105D02*
X68225D01*
X66975Y94025D02*
X68225D01*
X66975Y93945D02*
X68225D01*
X66975Y93865D02*
X68225D01*
X66975Y93785D02*
X68225D01*
X66975Y93705D02*
X68225D01*
X66975Y93625D02*
X68225D01*
X66975Y93545D02*
X68225D01*
X66975Y93465D02*
X68225D01*
X66975Y93385D02*
X68225D01*
X66975Y93305D02*
X68225D01*
X66975Y93225D02*
X68225D01*
X66975Y93145D02*
X68225D01*
X66975Y93065D02*
X68225D01*
X66975Y92985D02*
X68225D01*
X66975Y92905D02*
X68225D01*
X66975Y92825D02*
X68225D01*
X66975Y92745D02*
X68225D01*
X66975Y92665D02*
X68225D01*
X66975Y92585D02*
X68225D01*
X66975Y92505D02*
X68225D01*
X66975Y92425D02*
X68225D01*
X66975Y92345D02*
X68225D01*
X66975Y92265D02*
X68225D01*
X66975Y92185D02*
X68225D01*
X66975Y92105D02*
X68225D01*
X66975Y92025D02*
X68225D01*
X66975Y91945D02*
X68225D01*
X66975Y91865D02*
X68225D01*
X66975Y91785D02*
X68225D01*
X66975Y91705D02*
X68225D01*
X66975Y91625D02*
X68225D01*
X66975Y91545D02*
X68225D01*
X66975Y91465D02*
X68225D01*
X66975Y91385D02*
X68225D01*
X66975Y91305D02*
X68225D01*
X66975Y91225D02*
X68225D01*
X66975Y91145D02*
X68225D01*
X66975Y91065D02*
X68225D01*
X66975Y90985D02*
X68225D01*
X66975Y90905D02*
X68225D01*
X66975Y90825D02*
X68225D01*
X66975Y90745D02*
X68225D01*
X66975Y90665D02*
X68225D01*
X66975Y90585D02*
X68225D01*
X66975Y90505D02*
X68225D01*
X66975Y90425D02*
X68225D01*
X66975Y90345D02*
X68225D01*
X66975Y90265D02*
X68225D01*
X66975Y90185D02*
X68225D01*
X66975Y90105D02*
X68225D01*
X66975Y90025D02*
X68225D01*
X66975Y89945D02*
X68225D01*
X66975Y89865D02*
X68225D01*
X66975Y89785D02*
X68225D01*
X66975Y89705D02*
X68225D01*
X66975Y89625D02*
X68225D01*
Y50625D02*
Y114775D01*
X68175Y50625D02*
Y114775D01*
X68095Y50625D02*
Y114775D01*
X66975Y89545D02*
X68225D01*
X68015Y50625D02*
Y114775D01*
X66975Y89465D02*
X68225D01*
X67935Y50625D02*
Y114775D01*
X67855Y50625D02*
Y114775D01*
X67775Y50625D02*
Y114775D01*
X67695Y50625D02*
Y114775D01*
X67615Y50625D02*
Y114775D01*
X67535Y50625D02*
Y114775D01*
X67455Y50625D02*
Y114775D01*
X67375Y50625D02*
Y114775D01*
X67295Y50625D02*
Y114775D01*
X67215Y50625D02*
Y114775D01*
X67135Y50625D02*
Y114775D01*
X67055Y50625D02*
Y114775D01*
X66975Y50625D02*
Y114775D01*
Y89385D02*
X68225D01*
X66975Y89305D02*
X68225D01*
X66975Y89225D02*
X68225D01*
X66975Y89145D02*
X68225D01*
X66975Y89065D02*
X68225D01*
X66975Y88985D02*
X68225D01*
X66975Y88905D02*
X68225D01*
X66975Y88825D02*
X68225D01*
X66975Y88745D02*
X68225D01*
X66975Y88665D02*
X68225D01*
X66975Y88585D02*
X68225D01*
X66975Y88505D02*
X68225D01*
X66975Y88425D02*
X68225D01*
X66975Y88345D02*
X68225D01*
X66975Y88265D02*
X68225D01*
X66975Y88185D02*
X68225D01*
X66975Y88105D02*
X68225D01*
X66975Y88025D02*
X68225D01*
X66975Y87945D02*
X68225D01*
X66975Y87865D02*
X68225D01*
X66975Y87785D02*
X68225D01*
X66975Y87705D02*
X68225D01*
X66975Y87625D02*
X68225D01*
X66975Y87545D02*
X68225D01*
X66975Y87465D02*
X68225D01*
X66975Y87385D02*
X68225D01*
X66975Y87305D02*
X68225D01*
X66975Y87225D02*
X68225D01*
X66975Y87145D02*
X68225D01*
X66975Y87065D02*
X68225D01*
X66975Y86985D02*
X68225D01*
X66975Y86905D02*
X68225D01*
X66975Y86825D02*
X68225D01*
X66975Y86745D02*
X68225D01*
X66975Y86665D02*
X68225D01*
X66975Y86585D02*
X68225D01*
X66975Y86505D02*
X68225D01*
X66975Y86425D02*
X68225D01*
X66975Y86345D02*
X68225D01*
X66975Y86265D02*
X68225D01*
X66975Y86185D02*
X68225D01*
X66975Y86105D02*
X68225D01*
X66975Y86025D02*
X68225D01*
X66975Y85945D02*
X68225D01*
X66975Y85865D02*
X68225D01*
X66975Y85785D02*
X68225D01*
X66975Y85705D02*
X68225D01*
X66975Y85625D02*
X68225D01*
X66975Y85545D02*
X68225D01*
X66975Y85465D02*
X68225D01*
X66975Y85385D02*
X68225D01*
X66975Y85305D02*
X68225D01*
X66975Y85225D02*
X68225D01*
X66975Y85145D02*
X68225D01*
X66975Y85065D02*
X68225D01*
X66975Y84985D02*
X68225D01*
X66975Y84905D02*
X68225D01*
X66975Y84825D02*
X68225D01*
X66975Y84745D02*
X68225D01*
X66975Y84665D02*
X68225D01*
X66975Y84585D02*
X68225D01*
X66975Y84505D02*
X68225D01*
X66975Y84425D02*
X68225D01*
X66975Y84345D02*
X68225D01*
X66975Y84265D02*
X68225D01*
X66975Y84185D02*
X68225D01*
X66975Y84105D02*
X68225D01*
X66975Y84025D02*
X68225D01*
X66975Y83945D02*
X68225D01*
X66975Y83865D02*
X68225D01*
X66975Y83785D02*
X68225D01*
X66975Y83705D02*
X68225D01*
X66975Y83625D02*
X68225D01*
X66975Y83545D02*
X68225D01*
X66975Y83465D02*
X68225D01*
X66975Y50625D02*
X68225D01*
X66975Y83385D02*
X68225D01*
X66975Y83305D02*
X68225D01*
X66975Y83225D02*
X68225D01*
X66975Y83145D02*
X68225D01*
X66975Y83065D02*
X68225D01*
X66975Y82985D02*
X68225D01*
X66975Y82905D02*
X68225D01*
X66975Y82825D02*
X68225D01*
X66975Y82745D02*
X68225D01*
X66975Y82665D02*
X68225D01*
X66975Y82585D02*
X68225D01*
X66975Y82505D02*
X68225D01*
X66975Y82425D02*
X68225D01*
X66975Y82345D02*
X68225D01*
X66975Y82265D02*
X68225D01*
X66975Y82185D02*
X68225D01*
X66975Y82105D02*
X68225D01*
X66975Y82025D02*
X68225D01*
X66975Y81945D02*
X68225D01*
X66975Y81865D02*
X68225D01*
X66975Y81785D02*
X68225D01*
X66975Y81705D02*
X68225D01*
X66975Y81625D02*
X68225D01*
X66975Y81545D02*
X68225D01*
X66975Y81465D02*
X68225D01*
X66975Y81385D02*
X68225D01*
X66975Y81305D02*
X68225D01*
X66975Y81225D02*
X68225D01*
X66975Y81145D02*
X68225D01*
X66975Y81065D02*
X68225D01*
X66975Y80985D02*
X68225D01*
X66975Y80905D02*
X68225D01*
X66975Y80825D02*
X68225D01*
X66975Y80745D02*
X68225D01*
X66975Y80665D02*
X68225D01*
X66975Y80585D02*
X68225D01*
X66975Y80505D02*
X68225D01*
X66975Y80425D02*
X68225D01*
X66975Y80345D02*
X68225D01*
X66975Y80265D02*
X68225D01*
X66975Y80185D02*
X68225D01*
X66975Y80105D02*
X68225D01*
X66975Y80025D02*
X68225D01*
X66975Y79945D02*
X68225D01*
X66975Y79865D02*
X68225D01*
X66975Y79785D02*
X68225D01*
X66975Y79705D02*
X68225D01*
X66975Y79625D02*
X68225D01*
X66975Y79545D02*
X68225D01*
X66975Y79465D02*
X68225D01*
X66975Y79385D02*
X68225D01*
X66975Y79305D02*
X68225D01*
X66975Y79225D02*
X68225D01*
X66975Y79145D02*
X68225D01*
X66975Y79065D02*
X68225D01*
X66975Y78985D02*
X68225D01*
X66975Y78905D02*
X68225D01*
X66975Y78825D02*
X68225D01*
X66975Y78745D02*
X68225D01*
X66975Y78665D02*
X68225D01*
X66975Y78585D02*
X68225D01*
X66975Y78505D02*
X68225D01*
X66975Y78425D02*
X68225D01*
X66975Y78345D02*
X68225D01*
X66975Y78265D02*
X68225D01*
X66975Y78185D02*
X68225D01*
X66975Y78105D02*
X68225D01*
X66975Y78025D02*
X68225D01*
X66975Y77945D02*
X68225D01*
X66975Y77865D02*
X68225D01*
X66975Y77785D02*
X68225D01*
X66975Y77705D02*
X68225D01*
X66975Y77625D02*
X68225D01*
X66975Y77545D02*
X68225D01*
X66975Y77465D02*
X68225D01*
X66975Y77385D02*
X68225D01*
X66975Y77305D02*
X68225D01*
X66975Y77225D02*
X68225D01*
X66975Y77145D02*
X68225D01*
X66975Y77065D02*
X68225D01*
X66975Y76985D02*
X68225D01*
X66975Y76905D02*
X68225D01*
X66975Y76825D02*
X68225D01*
X66975Y76745D02*
X68225D01*
X66975Y76665D02*
X68225D01*
X66975Y76585D02*
X68225D01*
X66975Y76505D02*
X68225D01*
X66975Y76425D02*
X68225D01*
X66975Y76345D02*
X68225D01*
X66975Y76265D02*
X68225D01*
X66975Y76185D02*
X68225D01*
X66975Y76105D02*
X68225D01*
X66975Y76025D02*
X68225D01*
X66975Y75945D02*
X68225D01*
X66975Y75865D02*
X68225D01*
X66975Y75785D02*
X68225D01*
X66975Y75705D02*
X68225D01*
X66975Y75625D02*
X68225D01*
X66975Y75545D02*
X68225D01*
X66975Y75465D02*
X68225D01*
X66975Y75385D02*
X68225D01*
X66975Y75305D02*
X68225D01*
X66975Y75225D02*
X68225D01*
X66975Y75145D02*
X68225D01*
X66975Y75065D02*
X68225D01*
X66975Y74985D02*
X68225D01*
X66975Y74905D02*
X68225D01*
X66975Y74825D02*
X68225D01*
X66975Y74745D02*
X68225D01*
X66975Y74665D02*
X68225D01*
X66975Y74585D02*
X68225D01*
X66975Y74505D02*
X68225D01*
X66975Y74425D02*
X68225D01*
X66975Y74345D02*
X68225D01*
X66975Y74265D02*
X68225D01*
X66975Y74185D02*
X68225D01*
X66975Y74105D02*
X68225D01*
X66975Y74025D02*
X68225D01*
X66975Y73945D02*
X68225D01*
X66975Y73865D02*
X68225D01*
X66975Y73785D02*
X68225D01*
X66975Y73705D02*
X68225D01*
X66975Y73625D02*
X68225D01*
X66975Y73545D02*
X68225D01*
X66975Y73465D02*
X68225D01*
X66975Y73385D02*
X68225D01*
X66975Y73305D02*
X68225D01*
X66975Y73225D02*
X68225D01*
X66975Y73145D02*
X68225D01*
X66975Y73065D02*
X68225D01*
X66975Y72985D02*
X68225D01*
X66975Y72905D02*
X68225D01*
X66975Y72825D02*
X68225D01*
X66975Y72745D02*
X68225D01*
X66975Y72665D02*
X68225D01*
X66975Y72585D02*
X68225D01*
X66975Y72505D02*
X68225D01*
X66975Y72425D02*
X68225D01*
X66975Y72345D02*
X68225D01*
X66975Y72265D02*
X68225D01*
X66975Y72185D02*
X68225D01*
X66975Y72105D02*
X68225D01*
X66975Y72025D02*
X68225D01*
X66975Y71945D02*
X68225D01*
X66975Y71865D02*
X68225D01*
X66975Y71785D02*
X68225D01*
X66975Y71705D02*
X68225D01*
X66975Y71625D02*
X68225D01*
X66975Y71545D02*
X68225D01*
X66975Y71465D02*
X68225D01*
X66975Y71385D02*
X68225D01*
X66975Y71305D02*
X68225D01*
X66975Y71225D02*
X68225D01*
X66975Y71145D02*
X68225D01*
X66975Y71065D02*
X68225D01*
X66975Y70985D02*
X68225D01*
X66975Y70905D02*
X68225D01*
X66975Y70825D02*
X68225D01*
X66975Y70745D02*
X68225D01*
X66975Y70665D02*
X68225D01*
X66975Y70585D02*
X68225D01*
X66975Y70505D02*
X68225D01*
X66975Y70425D02*
X68225D01*
X66975Y70345D02*
X68225D01*
X66975Y70265D02*
X68225D01*
X66975Y70185D02*
X68225D01*
X66975Y70105D02*
X68225D01*
X66975Y70025D02*
X68225D01*
X66975Y69945D02*
X68225D01*
X66975Y69865D02*
X68225D01*
X66975Y69785D02*
X68225D01*
X66975Y69705D02*
X68225D01*
X66975Y69625D02*
X68225D01*
X66975Y69545D02*
X68225D01*
X66975Y69465D02*
X68225D01*
X66975Y69385D02*
X68225D01*
X66975Y69305D02*
X68225D01*
X66975Y69225D02*
X68225D01*
X66975Y69145D02*
X68225D01*
X66975Y69065D02*
X68225D01*
X66975Y68985D02*
X68225D01*
X66975Y68905D02*
X68225D01*
X66975Y68825D02*
X68225D01*
X66975Y68745D02*
X68225D01*
X66975Y68665D02*
X68225D01*
X66975Y68585D02*
X68225D01*
X66975Y68505D02*
X68225D01*
X66975Y68425D02*
X68225D01*
X66975Y68345D02*
X68225D01*
X66975Y68265D02*
X68225D01*
X66975Y68185D02*
X68225D01*
X66975Y68105D02*
X68225D01*
X66975Y68025D02*
X68225D01*
X66975Y67945D02*
X68225D01*
X66975Y67865D02*
X68225D01*
X66975Y67785D02*
X68225D01*
X66975Y67705D02*
X68225D01*
X66975Y67625D02*
X68225D01*
X66975Y67545D02*
X68225D01*
X66975Y67465D02*
X68225D01*
X66975Y67385D02*
X68225D01*
X66975Y67305D02*
X68225D01*
X66975Y67225D02*
X68225D01*
X66975Y67145D02*
X68225D01*
X66975Y67065D02*
X68225D01*
X66975Y66985D02*
X68225D01*
X66975Y66905D02*
X68225D01*
X66975Y66825D02*
X68225D01*
X66975Y66745D02*
X68225D01*
X66975Y66665D02*
X68225D01*
X66975Y66585D02*
X68225D01*
X66975Y66505D02*
X68225D01*
X66975Y66425D02*
X68225D01*
X66975Y66345D02*
X68225D01*
X66975Y66265D02*
X68225D01*
X66975Y66185D02*
X68225D01*
X66975Y66105D02*
X68225D01*
X66975Y66025D02*
X68225D01*
X66975Y65945D02*
X68225D01*
X66975Y65865D02*
X68225D01*
X66975Y65785D02*
X68225D01*
X66975Y65705D02*
X68225D01*
X66975Y65625D02*
X68225D01*
X66975Y65545D02*
X68225D01*
X66975Y65465D02*
X68225D01*
X66975Y65385D02*
X68225D01*
X66975Y65305D02*
X68225D01*
X66975Y65225D02*
X68225D01*
X66975Y65145D02*
X68225D01*
X66975Y65065D02*
X68225D01*
X66975Y64985D02*
X68225D01*
X66975Y64905D02*
X68225D01*
X66975Y64825D02*
X68225D01*
X66975Y64745D02*
X68225D01*
X66975Y64665D02*
X68225D01*
X66975Y64585D02*
X68225D01*
X66975Y64505D02*
X68225D01*
X66975Y64425D02*
X68225D01*
X66975Y64345D02*
X68225D01*
X66975Y64265D02*
X68225D01*
X66975Y64185D02*
X68225D01*
X66975Y64105D02*
X68225D01*
X66975Y64025D02*
X68225D01*
X66975Y63945D02*
X68225D01*
X66975Y63865D02*
X68225D01*
X66975Y63785D02*
X68225D01*
X66975Y63705D02*
X68225D01*
X66975Y63625D02*
X68225D01*
X66975Y63545D02*
X68225D01*
X66975Y63465D02*
X68225D01*
X66975Y63385D02*
X68225D01*
X66975Y63305D02*
X68225D01*
X66975Y63225D02*
X68225D01*
X66975Y63145D02*
X68225D01*
X66975Y63065D02*
X68225D01*
X66975Y62985D02*
X68225D01*
X66975Y62905D02*
X68225D01*
X66975Y62825D02*
X68225D01*
X66975Y62745D02*
X68225D01*
X66975Y62665D02*
X68225D01*
X66975Y62585D02*
X68225D01*
X66975Y62505D02*
X68225D01*
X66975Y62425D02*
X68225D01*
X66975Y62345D02*
X68225D01*
X66975Y62265D02*
X68225D01*
X66975Y62185D02*
X68225D01*
X66975Y62105D02*
X68225D01*
X66975Y62025D02*
X68225D01*
X66975Y61945D02*
X68225D01*
X66975Y61865D02*
X68225D01*
X66975Y61785D02*
X68225D01*
X66975Y61705D02*
X68225D01*
X66975Y61625D02*
X68225D01*
X66975Y61545D02*
X68225D01*
X66975Y61465D02*
X68225D01*
X66975Y61385D02*
X68225D01*
X66975Y61305D02*
X68225D01*
X66975Y61225D02*
X68225D01*
X66975Y61145D02*
X68225D01*
X66975Y61065D02*
X68225D01*
X66975Y60985D02*
X68225D01*
X66975Y60905D02*
X68225D01*
X66975Y60825D02*
X68225D01*
X66975Y60745D02*
X68225D01*
X66975Y60665D02*
X68225D01*
X66975Y60585D02*
X68225D01*
X66975Y60505D02*
X68225D01*
X66975Y60425D02*
X68225D01*
X66975Y60345D02*
X68225D01*
X66975Y60265D02*
X68225D01*
X66975Y60185D02*
X68225D01*
X66975Y60105D02*
X68225D01*
X66975Y60025D02*
X68225D01*
X66975Y59945D02*
X68225D01*
X66975Y59865D02*
X68225D01*
X66975Y59785D02*
X68225D01*
X66975Y59705D02*
X68225D01*
X66975Y59625D02*
X68225D01*
X66975Y59545D02*
X68225D01*
X66975Y59465D02*
X68225D01*
X66975Y59385D02*
X68225D01*
X66975Y59305D02*
X68225D01*
X66975Y59225D02*
X68225D01*
X66975Y59145D02*
X68225D01*
X66975Y59065D02*
X68225D01*
X66975Y58985D02*
X68225D01*
X66975Y58905D02*
X68225D01*
X66975Y58825D02*
X68225D01*
X66975Y58745D02*
X68225D01*
X66975Y58665D02*
X68225D01*
X66975Y58585D02*
X68225D01*
X66975Y58505D02*
X68225D01*
X66975Y58425D02*
X68225D01*
X66975Y58345D02*
X68225D01*
X66975Y58265D02*
X68225D01*
X66975Y58185D02*
X68225D01*
X66975Y58105D02*
X68225D01*
X66975Y58025D02*
X68225D01*
X66975Y57945D02*
X68225D01*
X66975Y57865D02*
X68225D01*
X66975Y57785D02*
X68225D01*
X66975Y57705D02*
X68225D01*
X66975Y57625D02*
X68225D01*
X66975Y57545D02*
X68225D01*
X66975Y57465D02*
X68225D01*
X66975Y57385D02*
X68225D01*
X66975Y57305D02*
X68225D01*
X66975Y57225D02*
X68225D01*
X66975Y57145D02*
X68225D01*
X66975Y57065D02*
X68225D01*
X66975Y50625D02*
Y114775D01*
Y56985D02*
X68225D01*
X66975Y56905D02*
X68225D01*
X66975Y56825D02*
X68225D01*
X66975Y56745D02*
X68225D01*
X66975Y56665D02*
X68225D01*
X66975Y56585D02*
X68225D01*
X66975Y56505D02*
X68225D01*
X66975Y56425D02*
X68225D01*
X66975Y56345D02*
X68225D01*
X66975Y56265D02*
X68225D01*
X66975Y56185D02*
X68225D01*
X66975Y56105D02*
X68225D01*
X66975Y56025D02*
X68225D01*
X66975Y55945D02*
X68225D01*
X66975Y55865D02*
X68225D01*
X66975Y55785D02*
X68225D01*
X66975Y55705D02*
X68225D01*
X66975Y55625D02*
X68225D01*
X66975Y55545D02*
X68225D01*
X66975Y55465D02*
X68225D01*
X66975Y55385D02*
X68225D01*
X66975Y55305D02*
X68225D01*
X66975Y55225D02*
X68225D01*
X66975Y55145D02*
X68225D01*
X66975Y55065D02*
X68225D01*
X66975Y54985D02*
X68225D01*
X66975Y54905D02*
X68225D01*
X66975Y54825D02*
X68225D01*
X66975Y54745D02*
X68225D01*
X66975Y54665D02*
X68225D01*
X66975Y54585D02*
X68225D01*
X66975Y54505D02*
X68225D01*
X66975Y54425D02*
X68225D01*
X66975Y54345D02*
X68225D01*
X66975Y54265D02*
X68225D01*
X66975Y54185D02*
X68225D01*
X66975Y54105D02*
X68225D01*
X66975Y54025D02*
X68225D01*
X66975Y53945D02*
X68225D01*
X66975Y53865D02*
X68225D01*
X66975Y53785D02*
X68225D01*
X66975Y53705D02*
X68225D01*
X66975Y53625D02*
X68225D01*
X66975Y53545D02*
X68225D01*
X66975Y53465D02*
X68225D01*
X66975Y53385D02*
X68225D01*
X66975Y53305D02*
X68225D01*
X66975Y53225D02*
X68225D01*
X66975Y53145D02*
X68225D01*
X66975Y53065D02*
X68225D01*
X66975Y52985D02*
X68225D01*
X66975Y52905D02*
X68225D01*
X66975Y52825D02*
X68225D01*
X66975Y52745D02*
X68225D01*
X66975Y52665D02*
X68225D01*
X66975Y52585D02*
X68225D01*
X66975Y52505D02*
X68225D01*
X66975Y52425D02*
X68225D01*
X66975Y52345D02*
X68225D01*
X66975Y52265D02*
X68225D01*
X66975Y52185D02*
X68225D01*
X66975Y52105D02*
X68225D01*
X66975Y52025D02*
X68225D01*
X66975Y51945D02*
X68225D01*
X66975Y51865D02*
X68225D01*
X66975Y51785D02*
X68225D01*
X66975Y51705D02*
X68225D01*
X66975Y51625D02*
X68225D01*
X66975Y51545D02*
X68225D01*
X66975Y51465D02*
X68225D01*
X66975Y51385D02*
X68225D01*
X66975Y51305D02*
X68225D01*
X66975Y51225D02*
X68225D01*
X66975Y51145D02*
X68225D01*
X66975Y51065D02*
X68225D01*
X66975Y50985D02*
X68225D01*
X66975Y50905D02*
X68225D01*
X66975Y50825D02*
X68225D01*
X66975Y50745D02*
X68225D01*
X66975Y50665D02*
X68225D01*
D36*
X94975Y97175D02*
D03*
Y97775D02*
D03*
X82825Y97225D02*
D03*
Y97825D02*
D03*
X90525Y98875D02*
D03*
X86525Y98825D02*
D03*
X89525Y98875D02*
D03*
X102675D02*
D03*
X98675Y98825D02*
D03*
X97675D02*
D03*
X101675Y98875D02*
D03*
X123425Y80125D02*
D03*
X78475Y59625D02*
D03*
Y58125D02*
D03*
X79425Y58875D02*
D03*
X77375D02*
D03*
X115777Y98625D02*
D03*
X116825Y102275D02*
D03*
X120425Y101175D02*
D03*
X125725Y90275D02*
D03*
X125775Y90925D02*
D03*
X114777Y97675D02*
D03*
X113877D02*
D03*
X115777Y101125D02*
D03*
X112875Y104025D02*
D03*
X116025Y89375D02*
D03*
X125775Y92025D02*
D03*
X118875Y103825D02*
D03*
X120425Y101825D02*
D03*
X119775Y103825D02*
D03*
X120375D02*
D03*
X120575Y98775D02*
D03*
X122775Y104155D02*
D03*
X123375Y96525D02*
D03*
X123975Y97525D02*
D03*
X122875Y102275D02*
D03*
X123525Y102325D02*
D03*
X105525Y85125D02*
D03*
X117225Y91325D02*
D03*
X112475Y85375D02*
D03*
X108570Y86530D02*
D03*
X99875Y63925D02*
D03*
Y65025D02*
D03*
X98475D02*
D03*
X85825Y64425D02*
D03*
X84775Y63275D02*
D03*
X89075Y61125D02*
D03*
Y62525D02*
D03*
X88175D02*
D03*
Y61125D02*
D03*
X86675Y71125D02*
D03*
X86575Y73725D02*
D03*
X89975Y57375D02*
D03*
X89775Y75825D02*
D03*
X93125Y64725D02*
D03*
X97075Y63925D02*
D03*
X98975Y58525D02*
D03*
X86675Y63725D02*
D03*
X109525Y58775D02*
D03*
X98975Y60375D02*
D03*
X80525Y57825D02*
D03*
X81225D02*
D03*
Y57125D02*
D03*
X117775Y61175D02*
D03*
X121775Y80975D02*
D03*
X104025Y85125D02*
D03*
X93125Y63075D02*
D03*
X90075Y63375D02*
D03*
X85525Y98825D02*
D03*
X103675Y111125D02*
D03*
X86275Y59725D02*
D03*
X75325Y96125D02*
D03*
X76125D02*
D03*
X76925D02*
D03*
X72375D02*
D03*
X73975D02*
D03*
X73175D02*
D03*
X73825Y76875D02*
D03*
X72525D02*
D03*
X73175D02*
D03*
X75325Y95425D02*
D03*
X76125D02*
D03*
X73975D02*
D03*
X73175D02*
D03*
X70775Y71975D02*
D03*
Y73275D02*
D03*
Y72625D02*
D03*
D96*
X74425Y111803D02*
D03*
D112*
X101825Y85100D02*
D03*
D113*
X124065Y95650D02*
D03*
D114*
X120710Y95655D02*
D03*
D115*
X122380Y93980D02*
D03*
D116*
X122385Y97335D02*
D03*
D117*
X73800Y52625D02*
D03*
D118*
X118945Y55420D02*
D03*
D119*
X99705Y59400D02*
D03*
D120*
X107425Y59405D02*
D03*
D121*
X105095Y72025D02*
D03*
D122*
X105100Y64305D02*
D03*
D123*
X81425Y95550D02*
D03*
D124*
X124137Y55711D02*
D03*
D125*
X98375Y70345D02*
D03*
D126*
X94030Y74650D02*
D03*
X94040Y65990D02*
D03*
D127*
X89715Y70340D02*
D03*
D128*
X119875Y82500D02*
D03*
D129*
X113820Y88540D02*
D03*
X113830Y76450D02*
D03*
D130*
X107790Y82495D02*
D03*
D131*
X89965Y82765D02*
D03*
D132*
X92260Y85045D02*
D03*
D133*
X94535Y82770D02*
D03*
D134*
X92260Y80475D02*
D03*
D135*
X93725Y96375D02*
D03*
Y98225D02*
D03*
X117225Y107475D02*
D03*
Y105625D02*
D03*
X110575D02*
D03*
Y107475D02*
D03*
X107975D02*
D03*
Y105625D02*
D03*
X81575Y96375D02*
D03*
Y98225D02*
D03*
D136*
X93475Y99475D02*
D03*
X94825D02*
D03*
X81325D02*
D03*
X82675D02*
D03*
X75615Y92825D02*
D03*
X74265D02*
D03*
X75325Y106675D02*
D03*
X73975D02*
D03*
X75325Y97675D02*
D03*
X73975D02*
D03*
X77325Y74175D02*
D03*
X75975D02*
D03*
X72825Y89275D02*
D03*
X71475D02*
D03*
X72475Y82525D02*
D03*
X71125D02*
D03*
D137*
X106525Y107375D02*
D03*
Y108025D02*
D03*
X72125Y81425D02*
D03*
X72775D02*
D03*
X75525Y62875D02*
D03*
X76175D02*
D03*
X74675Y80375D02*
D03*
Y79725D02*
D03*
X77625Y78875D02*
D03*
Y79525D02*
D03*
X73375Y80375D02*
D03*
Y79725D02*
D03*
X71475Y80375D02*
D03*
Y81025D02*
D03*
X74025Y79725D02*
D03*
Y80375D02*
D03*
X76325Y78875D02*
D03*
X76975D02*
D03*
X80425Y81525D02*
D03*
X79775D02*
D03*
X74425Y82425D02*
D03*
Y81775D02*
D03*
X76975Y79525D02*
D03*
X76325D02*
D03*
X80425Y80875D02*
D03*
X79775D02*
D03*
Y80225D02*
D03*
X80425D02*
D03*
X91975Y90775D02*
D03*
X82875Y91125D02*
D03*
Y90475D02*
D03*
X92625Y90775D02*
D03*
X104125D02*
D03*
X104775D02*
D03*
X85525Y93625D02*
D03*
Y92975D02*
D03*
X86525Y83775D02*
D03*
X87175D02*
D03*
X86525Y82475D02*
D03*
X87175D02*
D03*
X95925Y83275D02*
D03*
X95275D02*
D03*
X105875Y106725D02*
D03*
X106525D02*
D03*
X110525Y90475D02*
D03*
X109875D02*
D03*
X121125Y89425D02*
D03*
X121775D02*
D03*
X114075Y107775D02*
D03*
Y107125D02*
D03*
X114875D02*
D03*
Y107775D02*
D03*
Y105825D02*
D03*
Y106475D02*
D03*
X114075D02*
D03*
Y105825D02*
D03*
X122975Y106625D02*
D03*
Y105975D02*
D03*
X122375D02*
D03*
Y106625D02*
D03*
X118125Y89725D02*
D03*
Y90375D02*
D03*
X111175Y89425D02*
D03*
X110525D02*
D03*
X114675Y89875D02*
D03*
Y89225D02*
D03*
X117225Y89375D02*
D03*
X116575D02*
D03*
X113525Y91525D02*
D03*
X114175D02*
D03*
X121125Y88825D02*
D03*
X121775D02*
D03*
X125725Y89725D02*
D03*
Y89075D02*
D03*
X119325Y98575D02*
D03*
X119975D02*
D03*
Y96175D02*
D03*
X119325D02*
D03*
X123475Y92875D02*
D03*
Y92225D02*
D03*
X122275D02*
D03*
Y92875D02*
D03*
X120025Y94775D02*
D03*
X119375D02*
D03*
X124725Y95975D02*
D03*
Y95325D02*
D03*
X124925Y94675D02*
D03*
Y94025D02*
D03*
X125375Y97525D02*
D03*
X124725D02*
D03*
X124425Y98125D02*
D03*
Y98775D02*
D03*
X121125D02*
D03*
Y98125D02*
D03*
X122875Y92875D02*
D03*
Y92225D02*
D03*
X124075Y92525D02*
D03*
Y93175D02*
D03*
X125375Y96875D02*
D03*
X124725D02*
D03*
X119975Y97975D02*
D03*
X119325D02*
D03*
Y97375D02*
D03*
X119975D02*
D03*
Y96775D02*
D03*
X119325D02*
D03*
X123225Y99675D02*
D03*
Y99025D02*
D03*
X121725Y98375D02*
D03*
Y99025D02*
D03*
X122625D02*
D03*
Y98375D02*
D03*
X125125Y99725D02*
D03*
X124475D02*
D03*
X120475Y99425D02*
D03*
X121125D02*
D03*
X118875Y103225D02*
D03*
Y102575D02*
D03*
X118275D02*
D03*
Y103225D02*
D03*
X119775D02*
D03*
Y102575D02*
D03*
X120375D02*
D03*
Y103225D02*
D03*
X122775Y103575D02*
D03*
Y102925D02*
D03*
X119875Y101175D02*
D03*
Y100525D02*
D03*
X123825Y99025D02*
D03*
Y99675D02*
D03*
X92375Y92975D02*
D03*
X104525D02*
D03*
X83225Y93275D02*
D03*
X95125Y93025D02*
D03*
X98675Y88725D02*
D03*
X98025D02*
D03*
X96625D02*
D03*
X97275D02*
D03*
X91918Y87575D02*
D03*
Y88225D02*
D03*
X92525Y88215D02*
D03*
Y87565D02*
D03*
X91218Y88225D02*
D03*
Y87575D02*
D03*
X93218Y88225D02*
D03*
Y87575D02*
D03*
X97575Y90875D02*
D03*
X96925D02*
D03*
X99925D02*
D03*
Y90225D02*
D03*
X91618Y88825D02*
D03*
X90968D02*
D03*
X92225Y88815D02*
D03*
Y89465D02*
D03*
X92825Y88815D02*
D03*
X93475D02*
D03*
X96225Y89975D02*
D03*
Y90625D02*
D03*
X103675Y93625D02*
D03*
Y92975D02*
D03*
X100675Y93625D02*
D03*
Y92975D02*
D03*
X99675D02*
D03*
Y93625D02*
D03*
X98675D02*
D03*
Y92975D02*
D03*
X97675Y93625D02*
D03*
Y92975D02*
D03*
X96675D02*
D03*
Y93625D02*
D03*
X101775Y92975D02*
D03*
X102425D02*
D03*
Y93625D02*
D03*
X101775D02*
D03*
X84025Y90125D02*
D03*
Y89475D02*
D03*
X86525Y83075D02*
D03*
X87175D02*
D03*
X96925Y84925D02*
D03*
Y85575D02*
D03*
Y83675D02*
D03*
Y84325D02*
D03*
X83225Y93925D02*
D03*
X110475Y73225D02*
D03*
Y73875D02*
D03*
X88225Y73925D02*
D03*
X88875D02*
D03*
X107975Y103075D02*
D03*
X111175Y73875D02*
D03*
Y73225D02*
D03*
X111125Y74525D02*
D03*
Y75175D02*
D03*
X106775Y82625D02*
D03*
Y81975D02*
D03*
X104825Y88675D02*
D03*
X104175D02*
D03*
Y86525D02*
D03*
X104825D02*
D03*
Y85925D02*
D03*
X104175D02*
D03*
X105425Y88325D02*
D03*
X106075D02*
D03*
X104825Y87975D02*
D03*
X104175D02*
D03*
X105425Y87625D02*
D03*
X106075D02*
D03*
X104825Y87275D02*
D03*
X104175D02*
D03*
X121125Y82625D02*
D03*
X121775D02*
D03*
X121875Y84725D02*
D03*
X122525D02*
D03*
X121925Y83825D02*
D03*
X121275D02*
D03*
X105925Y78125D02*
D03*
X106575D02*
D03*
X115075Y75125D02*
D03*
Y74475D02*
D03*
X121225Y80975D02*
D03*
X120575D02*
D03*
X106875Y85325D02*
D03*
Y84675D02*
D03*
X106325Y79375D02*
D03*
X106975D02*
D03*
X117125Y75075D02*
D03*
Y74425D02*
D03*
X110025Y75625D02*
D03*
Y74975D02*
D03*
X113975Y74525D02*
D03*
Y75175D02*
D03*
X105925Y86475D02*
D03*
X106575D02*
D03*
X120675Y82025D02*
D03*
X121325D02*
D03*
X120525Y85825D02*
D03*
Y85175D02*
D03*
X105775Y82625D02*
D03*
Y81975D02*
D03*
X121775Y78725D02*
D03*
X121125D02*
D03*
X123125Y81475D02*
D03*
Y82125D02*
D03*
X123925Y82975D02*
D03*
Y82325D02*
D03*
Y84275D02*
D03*
Y83625D02*
D03*
X123025Y85375D02*
D03*
Y86025D02*
D03*
X122475Y81475D02*
D03*
Y82125D02*
D03*
X121525Y86675D02*
D03*
X122175D02*
D03*
Y86025D02*
D03*
Y85375D02*
D03*
X125675D02*
D03*
Y86025D02*
D03*
X126425Y67325D02*
D03*
Y66675D02*
D03*
X117825Y68125D02*
D03*
Y67475D02*
D03*
Y65725D02*
D03*
Y66375D02*
D03*
X111375Y67375D02*
D03*
X110725D02*
D03*
X112325Y70375D02*
D03*
X112975D02*
D03*
X111525Y69225D02*
D03*
X110875D02*
D03*
X111275Y65675D02*
D03*
X111925D02*
D03*
Y61675D02*
D03*
Y62325D02*
D03*
X125825Y70025D02*
D03*
Y70675D02*
D03*
X119925Y68425D02*
D03*
Y69075D02*
D03*
X119775Y72875D02*
D03*
X120425D02*
D03*
X119925Y71725D02*
D03*
Y71075D02*
D03*
Y70425D02*
D03*
Y69775D02*
D03*
X125825Y68925D02*
D03*
Y68275D02*
D03*
X119275Y64175D02*
D03*
X119925D02*
D03*
X104825Y73275D02*
D03*
Y73925D02*
D03*
X104675Y63575D02*
D03*
X105325D02*
D03*
X122475Y82775D02*
D03*
X123125D02*
D03*
X121525Y86025D02*
D03*
Y85375D02*
D03*
X107825Y63625D02*
D03*
Y64275D02*
D03*
X125825Y66675D02*
D03*
Y67325D02*
D03*
X108175Y57825D02*
D03*
X108825D02*
D03*
X108225Y59075D02*
D03*
Y59725D02*
D03*
X98975Y59775D02*
D03*
Y59125D02*
D03*
X100625Y78925D02*
D03*
Y79575D02*
D03*
X100575Y78275D02*
D03*
X99925D02*
D03*
Y78925D02*
D03*
Y79575D02*
D03*
X104525Y93625D02*
D03*
X95125Y93675D02*
D03*
X99575Y72325D02*
D03*
X100225D02*
D03*
X87275Y70525D02*
D03*
X87925D02*
D03*
Y71125D02*
D03*
X87275D02*
D03*
X100225Y71425D02*
D03*
X99575D02*
D03*
Y70825D02*
D03*
X100225D02*
D03*
X91225Y75975D02*
D03*
Y76625D02*
D03*
X94625D02*
D03*
Y75975D02*
D03*
X99575Y68675D02*
D03*
X100225D02*
D03*
X87275Y69925D02*
D03*
X87925D02*
D03*
X97075Y64725D02*
D03*
X97725D02*
D03*
X93675Y64075D02*
D03*
Y64725D02*
D03*
X99575Y69925D02*
D03*
X100225D02*
D03*
X93775Y76625D02*
D03*
Y75975D02*
D03*
X94525Y64075D02*
D03*
Y64725D02*
D03*
X99675Y73575D02*
D03*
Y74225D02*
D03*
X99275Y66625D02*
D03*
Y67275D02*
D03*
X91025Y65175D02*
D03*
X90375D02*
D03*
X100225Y69275D02*
D03*
X99575D02*
D03*
X87925Y69325D02*
D03*
X87275D02*
D03*
X91825Y76625D02*
D03*
Y75975D02*
D03*
X99575Y72925D02*
D03*
X100225D02*
D03*
X101275Y69775D02*
D03*
Y70425D02*
D03*
X84225Y63275D02*
D03*
Y62625D02*
D03*
X92375Y93625D02*
D03*
X85675Y65425D02*
D03*
X85025D02*
D03*
X98625Y78275D02*
D03*
X97975D02*
D03*
X99125Y78925D02*
D03*
Y79575D02*
D03*
X91925Y63075D02*
D03*
Y62425D02*
D03*
X92575Y63075D02*
D03*
Y62425D02*
D03*
X93075Y61825D02*
D03*
X92425D02*
D03*
X105375Y103425D02*
D03*
Y104075D02*
D03*
X97525Y83675D02*
D03*
Y84325D02*
D03*
Y84925D02*
D03*
Y85575D02*
D03*
X92425Y76625D02*
D03*
Y75975D02*
D03*
X94175Y85925D02*
D03*
Y86575D02*
D03*
X93275Y79775D02*
D03*
Y79125D02*
D03*
X91575Y85825D02*
D03*
X90925D02*
D03*
X85875Y88725D02*
D03*
X86525D02*
D03*
X91525Y92975D02*
D03*
X88525D02*
D03*
X89625Y93625D02*
D03*
X90275D02*
D03*
X87525D02*
D03*
X84525D02*
D03*
X86525Y92975D02*
D03*
X89025Y84075D02*
D03*
X89225Y81425D02*
D03*
X92925Y85925D02*
D03*
X95475Y82025D02*
D03*
X85275Y82775D02*
D03*
X89025Y83425D02*
D03*
X89225Y82075D02*
D03*
X93575Y85925D02*
D03*
X95475Y82675D02*
D03*
X86675Y90875D02*
D03*
X87175Y81775D02*
D03*
X85925Y81525D02*
D03*
X86525Y81775D02*
D03*
X85925Y82175D02*
D03*
Y82775D02*
D03*
X87525Y92975D02*
D03*
X84525D02*
D03*
X86025Y90875D02*
D03*
X86525Y93625D02*
D03*
X85925Y84025D02*
D03*
Y83375D02*
D03*
X84775Y90875D02*
D03*
X85425D02*
D03*
X91525Y93625D02*
D03*
X88525D02*
D03*
X85125Y88725D02*
D03*
Y88075D02*
D03*
X98175Y90875D02*
D03*
X98825D02*
D03*
X89625Y92975D02*
D03*
X90275D02*
D03*
X94775Y90225D02*
D03*
Y90875D02*
D03*
X108625Y103075D02*
D03*
X87775Y90875D02*
D03*
Y90225D02*
D03*
X108077Y99727D02*
D03*
X108727D02*
D03*
X109625Y98001D02*
D03*
Y98651D02*
D03*
X108025Y101275D02*
D03*
Y101925D02*
D03*
Y100625D02*
D03*
X107375D02*
D03*
X108777Y96327D02*
D03*
X108127D02*
D03*
X110075Y101275D02*
D03*
Y100625D02*
D03*
X108727Y98627D02*
D03*
X108077D02*
D03*
D138*
X91175Y101375D02*
D03*
X89825D02*
D03*
X98375D02*
D03*
X97025D02*
D03*
X103325D02*
D03*
X101975D02*
D03*
X86200D02*
D03*
X84850D02*
D03*
X92775Y61025D02*
D03*
X94125D02*
D03*
X113525Y92375D02*
D03*
X112175D02*
D03*
X71475Y90525D02*
D03*
X72825D02*
D03*
X75525Y61775D02*
D03*
X76875D02*
D03*
X121325Y80125D02*
D03*
X122675D02*
D03*
X104725Y85125D02*
D03*
X106075D02*
D03*
X126425Y90925D02*
D03*
Y92275D02*
D03*
X117475Y102275D02*
D03*
Y103625D02*
D03*
X121175Y102075D02*
D03*
Y103425D02*
D03*
X86275Y60475D02*
D03*
X84925D02*
D03*
X73625Y81425D02*
D03*
Y82775D02*
D03*
D139*
X70983Y92825D02*
D03*
X73267D02*
D03*
X77317Y76275D02*
D03*
X75033D02*
D03*
X80917Y61275D02*
D03*
X78633D02*
D03*
D140*
X79675Y91275D02*
D03*
X76958D02*
D03*
D141*
X78125Y80881D02*
D03*
X75786D02*
D03*
Y82416D02*
D03*
Y81905D02*
D03*
Y82161D02*
D03*
X78125Y80625D02*
D03*
X75786Y81137D02*
D03*
Y81649D02*
D03*
X78125Y81137D02*
D03*
X75786Y81393D02*
D03*
Y80625D02*
D03*
X78125Y81393D02*
D03*
Y81649D02*
D03*
Y81905D02*
D03*
Y82161D02*
D03*
Y82416D02*
D03*
D142*
X77375Y83925D02*
D03*
Y86735D02*
D03*
D143*
X79375Y83425D02*
D03*
Y85075D02*
D03*
Y86725D02*
D03*
Y88375D02*
D03*
X81225Y83425D02*
D03*
Y85075D02*
D03*
Y86725D02*
D03*
Y88375D02*
D03*
X71275Y62625D02*
D03*
X69425D02*
D03*
X102725Y102725D02*
D03*
X100875D02*
D03*
X88725D02*
D03*
X90575D02*
D03*
X85475D02*
D03*
X87325D02*
D03*
X97625D02*
D03*
X99475D02*
D03*
X70775Y74525D02*
D03*
X72625D02*
D03*
X72675Y97675D02*
D03*
X70825D02*
D03*
X76675D02*
D03*
X78525D02*
D03*
D144*
X101225Y106225D02*
D03*
Y107125D02*
D03*
X123275Y77625D02*
D03*
Y78725D02*
D03*
X103675Y109325D02*
D03*
Y110425D02*
D03*
X113737Y102475D02*
D03*
Y103375D02*
D03*
X112875Y103378D02*
D03*
Y102478D02*
D03*
X114977Y100225D02*
D03*
Y99325D02*
D03*
Y101975D02*
D03*
Y101075D02*
D03*
X115777Y99325D02*
D03*
Y100425D02*
D03*
X126425Y89075D02*
D03*
Y89975D02*
D03*
X123475Y103925D02*
D03*
Y103025D02*
D03*
X121075Y100225D02*
D03*
Y101125D02*
D03*
X106125Y104075D02*
D03*
Y102975D02*
D03*
X90375Y76975D02*
D03*
Y75875D02*
D03*
X99175Y63925D02*
D03*
Y65025D02*
D03*
X98275Y58825D02*
D03*
Y59925D02*
D03*
X108925Y58775D02*
D03*
Y59875D02*
D03*
X126425Y72575D02*
D03*
Y71475D02*
D03*
X118675Y72675D02*
D03*
Y73775D02*
D03*
X110625Y71025D02*
D03*
Y72125D02*
D03*
X86525Y106225D02*
D03*
Y107125D02*
D03*
D145*
X97675Y104375D02*
D03*
X113877Y98275D02*
D03*
X114777D02*
D03*
X118875Y101875D02*
D03*
X119775D02*
D03*
X88825Y74625D02*
D03*
X87725D02*
D03*
X106775Y83375D02*
D03*
X105675D02*
D03*
X98175Y63275D02*
D03*
X97075D02*
D03*
X88875Y66525D02*
D03*
X87775D02*
D03*
X119625Y61175D02*
D03*
X118525D02*
D03*
X121565Y87375D02*
D03*
X122665D02*
D03*
X99175Y67975D02*
D03*
X100275D02*
D03*
X96775Y104375D02*
D03*
X91425D02*
D03*
X90525D02*
D03*
X109277Y93927D02*
D03*
X108377D02*
D03*
X85375Y61375D02*
D03*
X86275D02*
D03*
D146*
X95149Y92391D02*
D03*
X94775Y91525D02*
D03*
X92349Y92291D02*
D03*
X83249Y92641D02*
D03*
X91975Y91425D02*
D03*
X82875Y91775D02*
D03*
X95523Y91525D02*
D03*
X83623Y91775D02*
D03*
X92723Y91425D02*
D03*
X104873D02*
D03*
X104499Y92291D02*
D03*
X104125Y91425D02*
D03*
X98277Y90225D02*
D03*
X99025D02*
D03*
X98651Y89359D02*
D03*
X97625Y90225D02*
D03*
X97251Y89359D02*
D03*
X96877Y90225D02*
D03*
X100877Y90375D02*
D03*
X101251Y89509D02*
D03*
X101625Y90375D02*
D03*
X103023Y91475D02*
D03*
X102649Y92341D02*
D03*
X102275Y91475D02*
D03*
X101623D02*
D03*
X101249Y92341D02*
D03*
X100875Y91475D02*
D03*
X90125D02*
D03*
X90499Y92341D02*
D03*
X90873Y91475D02*
D03*
X89475Y90375D02*
D03*
X89101Y89509D02*
D03*
X88725Y91475D02*
D03*
X88727Y90375D02*
D03*
X89099Y92341D02*
D03*
X89473Y91475D02*
D03*
X84727Y90225D02*
D03*
X85101Y89359D02*
D03*
X85475Y90225D02*
D03*
X86501Y89359D02*
D03*
X86875Y90225D02*
D03*
X86127D02*
D03*
X109049Y101491D02*
D03*
X109423Y100625D02*
D03*
X108675D02*
D03*
D147*
X78475Y58875D02*
D03*
X80875D02*
D03*
D148*
X116275Y90625D02*
D03*
X117023D02*
D03*
X88475Y60025D02*
D03*
X89225Y57375D02*
D03*
X88477D02*
D03*
X89223Y60025D02*
D03*
D149*
X115228Y96004D02*
D03*
X114972D02*
D03*
X114716D02*
D03*
X114460D02*
D03*
X114205D02*
D03*
X113949D02*
D03*
X113693D02*
D03*
X113437D02*
D03*
X113181D02*
D03*
X112925D02*
D03*
X115228Y93425D02*
D03*
X114972D02*
D03*
X114716D02*
D03*
X114460D02*
D03*
X114205D02*
D03*
X113949D02*
D03*
X113693D02*
D03*
X113437D02*
D03*
X113181D02*
D03*
X91022Y57446D02*
D03*
X91278D02*
D03*
X91534D02*
D03*
X91790D02*
D03*
X92045D02*
D03*
X92301D02*
D03*
X92557D02*
D03*
X92813D02*
D03*
X93069D02*
D03*
X93325D02*
D03*
X91022Y60025D02*
D03*
X91278D02*
D03*
X91534D02*
D03*
X91790D02*
D03*
X92045D02*
D03*
X92301D02*
D03*
X92557D02*
D03*
X92813D02*
D03*
X93069D02*
D03*
D150*
X112925Y93425D02*
D03*
X93325Y60025D02*
D03*
D151*
X114077Y94714D02*
D03*
X92173Y58736D02*
D03*
D152*
X117225Y92275D02*
D03*
Y94480D02*
D03*
D153*
X122775Y89072D02*
D03*
X124775D02*
D03*
X122775Y90725D02*
D03*
X124775D02*
D03*
X85021Y64425D02*
D03*
Y62425D02*
D03*
X86675Y64425D02*
D03*
Y62425D02*
D03*
D154*
X124066Y96735D02*
D03*
Y96538D02*
D03*
Y96341D02*
D03*
Y96144D02*
D03*
Y95947D02*
D03*
Y95750D02*
D03*
Y95553D02*
D03*
Y95357D02*
D03*
Y95160D02*
D03*
Y94963D02*
D03*
Y94766D02*
D03*
Y94569D02*
D03*
X120719D02*
D03*
Y94766D02*
D03*
Y94963D02*
D03*
Y95160D02*
D03*
Y95357D02*
D03*
Y95553D02*
D03*
Y95750D02*
D03*
Y95947D02*
D03*
Y96144D02*
D03*
Y96341D02*
D03*
Y96538D02*
D03*
Y96735D02*
D03*
X98375Y71993D02*
D03*
Y73568D02*
D03*
X89714Y66875D02*
D03*
Y67072D02*
D03*
Y67269D02*
D03*
Y67466D02*
D03*
Y67663D02*
D03*
Y67859D02*
D03*
Y68056D02*
D03*
Y68253D02*
D03*
Y68450D02*
D03*
Y68647D02*
D03*
Y68844D02*
D03*
Y69040D02*
D03*
Y69237D02*
D03*
Y69434D02*
D03*
Y69631D02*
D03*
Y69828D02*
D03*
Y70025D02*
D03*
Y70222D02*
D03*
Y70418D02*
D03*
Y70615D02*
D03*
Y70812D02*
D03*
Y71009D02*
D03*
Y71206D02*
D03*
Y71403D02*
D03*
Y71599D02*
D03*
Y71796D02*
D03*
Y71993D02*
D03*
Y72190D02*
D03*
Y72387D02*
D03*
Y72584D02*
D03*
Y72781D02*
D03*
Y72977D02*
D03*
Y73174D02*
D03*
Y73371D02*
D03*
Y73765D02*
D03*
X98375D02*
D03*
Y73371D02*
D03*
Y73174D02*
D03*
Y72977D02*
D03*
Y72781D02*
D03*
Y72584D02*
D03*
Y72387D02*
D03*
Y72190D02*
D03*
Y71796D02*
D03*
Y71599D02*
D03*
Y71403D02*
D03*
Y71206D02*
D03*
Y71009D02*
D03*
Y70812D02*
D03*
Y70615D02*
D03*
Y70418D02*
D03*
Y70222D02*
D03*
Y69828D02*
D03*
Y69631D02*
D03*
Y69434D02*
D03*
Y69237D02*
D03*
Y69040D02*
D03*
Y68844D02*
D03*
Y68647D02*
D03*
Y68450D02*
D03*
Y68253D02*
D03*
Y68056D02*
D03*
Y67859D02*
D03*
Y67663D02*
D03*
Y67466D02*
D03*
Y67269D02*
D03*
Y67072D02*
D03*
X89714Y73568D02*
D03*
X94535Y81282D02*
D03*
Y81479D02*
D03*
Y81676D02*
D03*
Y81873D02*
D03*
Y82070D02*
D03*
Y82266D02*
D03*
Y82463D02*
D03*
Y82660D02*
D03*
Y82857D02*
D03*
Y83054D02*
D03*
Y83251D02*
D03*
Y83448D02*
D03*
Y83644D02*
D03*
Y83841D02*
D03*
Y84038D02*
D03*
Y84235D02*
D03*
X89968D02*
D03*
Y84038D02*
D03*
Y83841D02*
D03*
Y83644D02*
D03*
Y83448D02*
D03*
Y83251D02*
D03*
Y83054D02*
D03*
Y82857D02*
D03*
Y82660D02*
D03*
Y82463D02*
D03*
Y82266D02*
D03*
Y82070D02*
D03*
Y81676D02*
D03*
Y81479D02*
D03*
Y81282D02*
D03*
Y81873D02*
D03*
D155*
X123475Y93979D02*
D03*
X123278D02*
D03*
X123081D02*
D03*
X122884D02*
D03*
X122688D02*
D03*
X122491D02*
D03*
X122294D02*
D03*
X122097D02*
D03*
X121900D02*
D03*
X121703D02*
D03*
X121507D02*
D03*
X121310D02*
D03*
Y97325D02*
D03*
X121507D02*
D03*
X121703D02*
D03*
X121900D02*
D03*
X122097D02*
D03*
X122294D02*
D03*
X122491D02*
D03*
X122688D02*
D03*
X122884D02*
D03*
X123081D02*
D03*
X123278D02*
D03*
X93158Y74651D02*
D03*
X95914D02*
D03*
X96702D02*
D03*
X95324D02*
D03*
X96308D02*
D03*
X94340D02*
D03*
X97489Y65989D02*
D03*
X97292D02*
D03*
X97095D02*
D03*
X96899D02*
D03*
X96702D02*
D03*
X96505D02*
D03*
X96308D02*
D03*
X96111D02*
D03*
X95914D02*
D03*
X95718D02*
D03*
X95521D02*
D03*
X94930D02*
D03*
X94733D02*
D03*
X94536D02*
D03*
X94340D02*
D03*
X94143D02*
D03*
X93946D02*
D03*
X93749D02*
D03*
X93552D02*
D03*
X93355D02*
D03*
X93158D02*
D03*
X92962D02*
D03*
X92765D02*
D03*
X92568D02*
D03*
X92371D02*
D03*
X92174D02*
D03*
X91977D02*
D03*
X91781D02*
D03*
X91584D02*
D03*
X91387D02*
D03*
X91190D02*
D03*
X90993D02*
D03*
X90796D02*
D03*
X90599D02*
D03*
Y74651D02*
D03*
X90796D02*
D03*
X90993D02*
D03*
X91190D02*
D03*
X91387D02*
D03*
X91584D02*
D03*
X91781D02*
D03*
X91977D02*
D03*
X92371D02*
D03*
X92568D02*
D03*
X92765D02*
D03*
X92962D02*
D03*
X93355D02*
D03*
X93552D02*
D03*
X93749D02*
D03*
X93946D02*
D03*
X94143D02*
D03*
X94536D02*
D03*
X94733D02*
D03*
X94930D02*
D03*
X95127D02*
D03*
X95521D02*
D03*
X95718D02*
D03*
X96111D02*
D03*
X96505D02*
D03*
X96899D02*
D03*
X97095D02*
D03*
X97292D02*
D03*
X97489D02*
D03*
X95127Y65989D02*
D03*
X95324D02*
D03*
X92174Y74651D02*
D03*
X90972Y80475D02*
D03*
X91169D02*
D03*
X91366D02*
D03*
X91562D02*
D03*
X91956D02*
D03*
X92153D02*
D03*
X92350D02*
D03*
X92547D02*
D03*
X92744D02*
D03*
X92940D02*
D03*
X93137D02*
D03*
X93334D02*
D03*
X93531D02*
D03*
X93728D02*
D03*
Y85042D02*
D03*
X93531D02*
D03*
X93334D02*
D03*
X93137D02*
D03*
X92940D02*
D03*
X92744D02*
D03*
X92547D02*
D03*
X92350D02*
D03*
X92153D02*
D03*
X91956D02*
D03*
X91759D02*
D03*
X91562D02*
D03*
X91366D02*
D03*
X91169D02*
D03*
X90972D02*
D03*
X90775D02*
D03*
D156*
X123475Y97325D02*
D03*
X90775Y80475D02*
D03*
D157*
X103675Y99825D02*
D03*
X102675D02*
D03*
X101675D02*
D03*
X100675D02*
D03*
X99675D02*
D03*
X98675D02*
D03*
X97675D02*
D03*
X103675Y94888D02*
D03*
X102675D02*
D03*
X101675D02*
D03*
X100675D02*
D03*
X99675D02*
D03*
X98675D02*
D03*
X97675D02*
D03*
X96675D02*
D03*
Y99825D02*
D03*
X84525D02*
D03*
Y94888D02*
D03*
X85525D02*
D03*
X86525D02*
D03*
X87525D02*
D03*
X88525D02*
D03*
X89525D02*
D03*
X90525D02*
D03*
X91525D02*
D03*
X85525Y99825D02*
D03*
X86525D02*
D03*
X87525D02*
D03*
X88525D02*
D03*
X89525D02*
D03*
X90525D02*
D03*
X91525D02*
D03*
D158*
X102275Y90825D02*
D03*
Y90077D02*
D03*
X103141Y90451D02*
D03*
X99075Y91577D02*
D03*
X99941Y91951D02*
D03*
X99075Y92325D02*
D03*
X96409Y91949D02*
D03*
X97275Y91575D02*
D03*
Y92323D02*
D03*
X85125D02*
D03*
Y91575D02*
D03*
X84259Y91949D02*
D03*
X86925Y92325D02*
D03*
X87791Y91951D02*
D03*
X86925Y91577D02*
D03*
X90125Y90825D02*
D03*
Y90077D02*
D03*
X90991Y90451D02*
D03*
D159*
X86575Y73175D02*
D03*
X87254D02*
D03*
X87933D02*
D03*
Y72475D02*
D03*
X87254D02*
D03*
X86575D02*
D03*
Y71775D02*
D03*
X87254D02*
D03*
X87933D02*
D03*
D160*
X98225Y54025D02*
D03*
X126725Y105525D02*
D03*
X70375Y106075D02*
D03*
D161*
X88720Y61825D02*
D03*
X90925D02*
D03*
D162*
X105525Y113775D02*
D03*
X106525D02*
D03*
Y110775D02*
D03*
X105525D02*
D03*
D163*
X117108Y64786D02*
D03*
Y65416D02*
D03*
X112675Y69510D02*
D03*
Y68880D02*
D03*
Y68565D02*
D03*
Y67935D02*
D03*
Y67620D02*
D03*
Y66990D02*
D03*
Y66675D02*
D03*
Y66046D02*
D03*
Y65416D02*
D03*
Y62896D02*
D03*
Y63211D02*
D03*
X117108Y65101D02*
D03*
X112675D02*
D03*
Y64156D02*
D03*
Y64786D02*
D03*
Y64471D02*
D03*
X117108D02*
D03*
Y66046D02*
D03*
Y66675D02*
D03*
Y66990D02*
D03*
Y67620D02*
D03*
Y67935D02*
D03*
Y68565D02*
D03*
Y68880D02*
D03*
Y69510D02*
D03*
X112675Y62581D02*
D03*
Y62266D02*
D03*
Y61951D02*
D03*
X117108D02*
D03*
Y62266D02*
D03*
Y62581D02*
D03*
Y62896D02*
D03*
Y63211D02*
D03*
Y63526D02*
D03*
Y63841D02*
D03*
Y64156D02*
D03*
X112675Y63841D02*
D03*
Y63526D02*
D03*
X117108Y61636D02*
D03*
Y67305D02*
D03*
Y69195D02*
D03*
X112675Y66361D02*
D03*
Y68250D02*
D03*
X117108Y69825D02*
D03*
Y65731D02*
D03*
Y66361D02*
D03*
Y68250D02*
D03*
X112675Y67305D02*
D03*
Y69195D02*
D03*
Y61636D02*
D03*
Y65731D02*
D03*
X125108Y67336D02*
D03*
Y67966D02*
D03*
X120675D02*
D03*
Y65446D02*
D03*
Y65761D02*
D03*
Y67651D02*
D03*
Y66706D02*
D03*
Y67336D02*
D03*
Y67021D02*
D03*
X125108D02*
D03*
Y67651D02*
D03*
X120675Y72060D02*
D03*
Y71430D02*
D03*
Y71115D02*
D03*
Y70485D02*
D03*
Y70170D02*
D03*
Y69540D02*
D03*
Y69225D02*
D03*
Y68596D02*
D03*
X125108D02*
D03*
Y69225D02*
D03*
Y69540D02*
D03*
Y70170D02*
D03*
Y70485D02*
D03*
Y71115D02*
D03*
Y71430D02*
D03*
Y72060D02*
D03*
X120675Y65131D02*
D03*
Y64816D02*
D03*
Y64501D02*
D03*
X125108D02*
D03*
Y64816D02*
D03*
Y65131D02*
D03*
Y65446D02*
D03*
Y65761D02*
D03*
Y66076D02*
D03*
Y66391D02*
D03*
Y66706D02*
D03*
X120675Y66391D02*
D03*
Y66076D02*
D03*
X125108Y64186D02*
D03*
Y69855D02*
D03*
Y71745D02*
D03*
X120675Y68911D02*
D03*
Y70800D02*
D03*
X125108Y72375D02*
D03*
Y68281D02*
D03*
Y68911D02*
D03*
Y70800D02*
D03*
X120675Y69855D02*
D03*
Y71745D02*
D03*
Y64186D02*
D03*
Y68281D02*
D03*
D164*
X112675Y69825D02*
D03*
X120675Y72375D02*
D03*
D165*
X100773Y77749D02*
D03*
X100399Y76725D02*
D03*
X100773D02*
D03*
X100025Y77749D02*
D03*
Y76725D02*
D03*
X97777Y78801D02*
D03*
X98151Y79825D02*
D03*
X97777D02*
D03*
X98525Y78801D02*
D03*
Y79825D02*
D03*
X108077Y96977D02*
D03*
X108825D02*
D03*
X108077Y98001D02*
D03*
X108451Y96977D02*
D03*
X108825Y98001D02*
D03*
X108127Y94677D02*
D03*
X108875D02*
D03*
X108127Y95701D02*
D03*
X108875D02*
D03*
X108501Y94677D02*
D03*
D166*
X89325Y58327D02*
D03*
X88375Y58325D02*
D03*
Y59073D02*
D03*
X89325Y59075D02*
D03*
X107275Y102173D02*
D03*
Y101425D02*
D03*
D167*
X99708Y61653D02*
D03*
Y61456D02*
D03*
Y61259D02*
D03*
Y61062D02*
D03*
Y60668D02*
D03*
Y60472D02*
D03*
Y60275D02*
D03*
Y60078D02*
D03*
Y59881D02*
D03*
Y59684D02*
D03*
Y59487D02*
D03*
Y59290D02*
D03*
Y59094D02*
D03*
Y58897D02*
D03*
Y58700D02*
D03*
Y58503D02*
D03*
Y58306D02*
D03*
Y58109D02*
D03*
Y57913D02*
D03*
Y57716D02*
D03*
Y57519D02*
D03*
Y57322D02*
D03*
Y57125D02*
D03*
X107425Y61653D02*
D03*
Y61456D02*
D03*
Y61259D02*
D03*
Y61062D02*
D03*
Y60865D02*
D03*
Y60668D02*
D03*
Y60472D02*
D03*
Y60275D02*
D03*
Y60078D02*
D03*
Y59881D02*
D03*
Y59684D02*
D03*
Y59487D02*
D03*
Y59290D02*
D03*
Y59094D02*
D03*
Y58897D02*
D03*
Y58700D02*
D03*
Y58503D02*
D03*
Y58306D02*
D03*
Y58109D02*
D03*
Y57913D02*
D03*
Y57716D02*
D03*
Y57519D02*
D03*
Y57322D02*
D03*
X99708Y60865D02*
D03*
D168*
X107425Y57125D02*
D03*
D169*
X103635Y64309D02*
D03*
X107178Y72025D02*
D03*
X106981D02*
D03*
X106784D02*
D03*
X106588D02*
D03*
X106391D02*
D03*
X106194D02*
D03*
X105997D02*
D03*
X105800D02*
D03*
X105603D02*
D03*
X105407D02*
D03*
X105210D02*
D03*
X105013D02*
D03*
X104816D02*
D03*
X104619D02*
D03*
X104422D02*
D03*
X104225D02*
D03*
X104029D02*
D03*
X103832D02*
D03*
X103635D02*
D03*
X103438D02*
D03*
X103241D02*
D03*
X103044D02*
D03*
X102847D02*
D03*
X107375Y64309D02*
D03*
X107178D02*
D03*
X106981D02*
D03*
X106784D02*
D03*
X106588D02*
D03*
X106391D02*
D03*
X106194D02*
D03*
X105997D02*
D03*
X105800D02*
D03*
X105603D02*
D03*
X105407D02*
D03*
X105210D02*
D03*
X105013D02*
D03*
X104816D02*
D03*
X104619D02*
D03*
X104422D02*
D03*
X104225D02*
D03*
X104029D02*
D03*
X103832D02*
D03*
X103438D02*
D03*
X103241D02*
D03*
X103044D02*
D03*
X102847D02*
D03*
D170*
X107375Y72025D02*
D03*
D171*
X73825Y75875D02*
D03*
Y74525D02*
D03*
D172*
X75475Y108525D02*
D03*
X73735D02*
D03*
X82825Y101025D02*
D03*
X81085D02*
D03*
X94975D02*
D03*
X93235D02*
D03*
D173*
X93125Y104825D02*
D03*
X94975D02*
D03*
X82825D02*
D03*
X80975D02*
D03*
D174*
X71075Y85925D02*
D03*
X75012D02*
D03*
D175*
X78375Y108725D02*
D03*
Y111225D02*
D03*
D176*
X76590Y113575D02*
D03*
Y111213D02*
D03*
X72260Y113575D02*
D03*
Y111213D02*
D03*
D177*
X98375Y70025D02*
D03*
D178*
Y66875D02*
D03*
D179*
X118851Y76451D02*
D03*
X118655D02*
D03*
X118458D02*
D03*
X118261D02*
D03*
X118064D02*
D03*
X117867D02*
D03*
X117670D02*
D03*
X117473D02*
D03*
X117277D02*
D03*
X117080D02*
D03*
X116883D02*
D03*
X116686D02*
D03*
X116489D02*
D03*
X116292D02*
D03*
X116095D02*
D03*
X115899D02*
D03*
X115702D02*
D03*
X115505D02*
D03*
X115308D02*
D03*
X115111D02*
D03*
X114914D02*
D03*
X114718D02*
D03*
X114521D02*
D03*
X114324D02*
D03*
X114127D02*
D03*
X113930D02*
D03*
X113733D02*
D03*
X113536D02*
D03*
X113340D02*
D03*
X113143D02*
D03*
X112946D02*
D03*
X112749D02*
D03*
X112552D02*
D03*
X112355D02*
D03*
X112158D02*
D03*
X111962D02*
D03*
X111765D02*
D03*
X111568D02*
D03*
X111371D02*
D03*
X111174D02*
D03*
X110977D02*
D03*
X110781D02*
D03*
X110584D02*
D03*
X110387D02*
D03*
X110190D02*
D03*
X109993D02*
D03*
X109796D02*
D03*
X109599D02*
D03*
X109403D02*
D03*
X109206D02*
D03*
X109009D02*
D03*
X108812D02*
D03*
Y88538D02*
D03*
X109009D02*
D03*
X109206D02*
D03*
X109403D02*
D03*
X109599D02*
D03*
X109796D02*
D03*
X109993D02*
D03*
X110190D02*
D03*
X110387D02*
D03*
X110584D02*
D03*
X110781D02*
D03*
X110977D02*
D03*
X111174D02*
D03*
X111371D02*
D03*
X111568D02*
D03*
X111765D02*
D03*
X111962D02*
D03*
X112158D02*
D03*
X112355D02*
D03*
X112552D02*
D03*
X112749D02*
D03*
X112946D02*
D03*
X113143D02*
D03*
X113340D02*
D03*
X113536D02*
D03*
X113733D02*
D03*
X113930D02*
D03*
X114127D02*
D03*
X114324D02*
D03*
X114521D02*
D03*
X114718D02*
D03*
X114914D02*
D03*
X115111D02*
D03*
X115308D02*
D03*
X115505D02*
D03*
X115702D02*
D03*
X115899D02*
D03*
X116095D02*
D03*
X116292D02*
D03*
X116489D02*
D03*
X116686D02*
D03*
X116883D02*
D03*
X117080D02*
D03*
X117277D02*
D03*
X117473D02*
D03*
X117670D02*
D03*
X117867D02*
D03*
X118064D02*
D03*
X118261D02*
D03*
X118458D02*
D03*
X118655D02*
D03*
X118851D02*
D03*
D180*
X107788Y77475D02*
D03*
Y77672D02*
D03*
Y77869D02*
D03*
Y78066D02*
D03*
Y78263D02*
D03*
Y78459D02*
D03*
Y78656D02*
D03*
Y78853D02*
D03*
Y79050D02*
D03*
Y79247D02*
D03*
Y79444D02*
D03*
Y79640D02*
D03*
Y79837D02*
D03*
Y80034D02*
D03*
Y80231D02*
D03*
Y80428D02*
D03*
Y80625D02*
D03*
Y80822D02*
D03*
Y81018D02*
D03*
Y81215D02*
D03*
Y81412D02*
D03*
Y81609D02*
D03*
Y81806D02*
D03*
Y82003D02*
D03*
Y82199D02*
D03*
Y82396D02*
D03*
Y82593D02*
D03*
Y82790D02*
D03*
Y82987D02*
D03*
Y83184D02*
D03*
Y83381D02*
D03*
Y83577D02*
D03*
Y83774D02*
D03*
Y83971D02*
D03*
Y84168D02*
D03*
Y84365D02*
D03*
Y84562D02*
D03*
Y84759D02*
D03*
Y84955D02*
D03*
Y85152D02*
D03*
Y85349D02*
D03*
Y85546D02*
D03*
Y85743D02*
D03*
Y85940D02*
D03*
Y86137D02*
D03*
Y86333D02*
D03*
Y86530D02*
D03*
Y86727D02*
D03*
Y86924D02*
D03*
Y87121D02*
D03*
Y87318D02*
D03*
Y87514D02*
D03*
X119875D02*
D03*
Y87318D02*
D03*
Y87121D02*
D03*
Y86924D02*
D03*
Y86727D02*
D03*
Y86530D02*
D03*
Y86333D02*
D03*
Y86137D02*
D03*
Y85940D02*
D03*
Y85743D02*
D03*
Y85546D02*
D03*
Y85349D02*
D03*
Y85152D02*
D03*
Y84955D02*
D03*
Y84759D02*
D03*
Y84562D02*
D03*
Y84365D02*
D03*
Y84168D02*
D03*
Y83971D02*
D03*
Y83774D02*
D03*
Y83577D02*
D03*
Y83381D02*
D03*
Y83184D02*
D03*
Y82987D02*
D03*
Y82593D02*
D03*
Y82396D02*
D03*
Y82199D02*
D03*
Y82003D02*
D03*
Y81806D02*
D03*
Y81609D02*
D03*
Y81412D02*
D03*
Y81215D02*
D03*
Y81018D02*
D03*
Y80822D02*
D03*
Y80625D02*
D03*
Y80428D02*
D03*
Y80231D02*
D03*
Y80034D02*
D03*
Y79837D02*
D03*
Y79640D02*
D03*
Y79444D02*
D03*
Y79247D02*
D03*
Y79050D02*
D03*
Y78853D02*
D03*
Y78656D02*
D03*
Y78459D02*
D03*
Y78263D02*
D03*
Y78066D02*
D03*
Y77869D02*
D03*
Y77672D02*
D03*
D181*
Y82790D02*
D03*
D182*
Y77475D02*
D03*
D183*
X112792Y101325D02*
D03*
X112536D02*
D03*
Y98987D02*
D03*
X112792D02*
D03*
X113048D02*
D03*
X113816D02*
D03*
X113560D02*
D03*
X113304D02*
D03*
X114327Y101325D02*
D03*
X114072D02*
D03*
X113816D02*
D03*
X113560D02*
D03*
X113304D02*
D03*
X113048D02*
D03*
X114327Y98987D02*
D03*
X114072D02*
D03*
D184*
X91759Y80475D02*
D03*
D185*
X124975Y85375D02*
D03*
X123715D02*
D03*
Y87540D02*
D03*
X124975D02*
D03*
D186*
X124925Y82246D02*
D03*
Y84175D02*
D03*
X98575Y85575D02*
D03*
Y83646D02*
D03*
D187*
X100275Y106125D02*
D03*
X99275D02*
D03*
X100275Y107125D02*
D03*
X99275D02*
D03*
X100275Y108125D02*
D03*
X99275D02*
D03*
X72475Y80375D02*
D03*
Y79375D02*
D03*
X95975Y103425D02*
D03*
Y102425D02*
D03*
X83825Y103425D02*
D03*
Y102425D02*
D03*
X82825Y103425D02*
D03*
Y102425D02*
D03*
X97075Y108125D02*
D03*
X98075D02*
D03*
X97075Y107125D02*
D03*
X98075D02*
D03*
X97075Y106125D02*
D03*
X98075D02*
D03*
X90675D02*
D03*
X89675D02*
D03*
X90675Y107125D02*
D03*
X89675D02*
D03*
X90675Y108125D02*
D03*
X89675D02*
D03*
X88475Y106125D02*
D03*
X87475D02*
D03*
X88475Y107125D02*
D03*
X87475D02*
D03*
X88475Y108125D02*
D03*
X87475D02*
D03*
X89525Y104375D02*
D03*
X88525D02*
D03*
X87525D02*
D03*
X86525D02*
D03*
X98675D02*
D03*
X99675D02*
D03*
X100675D02*
D03*
X101675D02*
D03*
X94975Y102425D02*
D03*
Y103425D02*
D03*
X110625Y99725D02*
D03*
D188*
X120425Y111275D02*
D03*
X124925D02*
D03*
X112225Y112325D02*
D03*
X116725D02*
D03*
X106925Y111775D02*
D03*
Y112775D02*
D03*
X95525Y113525D02*
D03*
X100525D02*
D03*
X85975D02*
D03*
X90975D02*
D03*
D189*
X124425Y108775D02*
D03*
X123925Y107775D02*
D03*
X123425Y108775D02*
D03*
X122925Y107775D02*
D03*
X122425Y108775D02*
D03*
X121925Y107775D02*
D03*
X121425Y108775D02*
D03*
X120925Y107775D02*
D03*
X120185Y112605D02*
D03*
X121185Y113205D02*
D03*
X124165Y112605D02*
D03*
X125165Y113205D02*
D03*
D190*
X125775Y110075D02*
D03*
X119575D02*
D03*
X111525Y113525D02*
D03*
X117425D02*
D03*
D191*
X116225Y109825D02*
D03*
X115225D02*
D03*
X114225D02*
D03*
X113225D02*
D03*
X115725Y108825D02*
D03*
X114725D02*
D03*
X113725D02*
D03*
X112725D02*
D03*
X97425Y112525D02*
D03*
X97825Y111825D02*
D03*
X98225Y112525D02*
D03*
X98625Y111825D02*
D03*
X96625Y112525D02*
D03*
X99025D02*
D03*
X97025Y111825D02*
D03*
X99425D02*
D03*
X95325Y109925D02*
D03*
X99825D02*
D03*
X100725D02*
D03*
X96225D02*
D03*
X85775D02*
D03*
X87075Y112525D02*
D03*
X89475D02*
D03*
X87475Y111825D02*
D03*
X89875D02*
D03*
X90275Y109925D02*
D03*
X91175D02*
D03*
X86675D02*
D03*
X89075Y111825D02*
D03*
X88675Y112525D02*
D03*
X87875D02*
D03*
X88275Y111825D02*
D03*
D192*
X107797Y110492D02*
D03*
X110553D02*
D03*
D193*
X108289Y111476D02*
D03*
X110061D02*
D03*
D194*
X74625Y63975D02*
D03*
X76625D02*
D03*
X78625D02*
D03*
X72625D02*
D03*
Y72975D02*
D03*
X74625D02*
D03*
X78625D02*
D03*
D195*
X71590Y64975D02*
D03*
D196*
X79660Y71975D02*
D03*
D197*
X109625Y99725D02*
D03*
D198*
X74425Y113575D02*
D03*
D199*
X76644Y99172D02*
D03*
X72706D02*
D03*
X76644Y105078D02*
D03*
X72706D02*
D03*
D200*
X102475Y84775D02*
D03*
Y85375D02*
D03*
X101175Y84775D02*
D03*
Y85375D02*
D03*
X108925Y89865D02*
D03*
Y91145D02*
D03*
X107975Y89865D02*
D03*
X107935Y91125D02*
D03*
X111295Y102225D02*
D03*
X109475Y103145D02*
D03*
X95615Y62875D02*
D03*
X92025Y65305D02*
D03*
X90375Y71785D02*
D03*
X96175Y72345D02*
D03*
X95975Y69625D02*
D03*
X93575Y71625D02*
D03*
X94975Y72125D02*
D03*
X93775Y69725D02*
D03*
X92775Y69705D02*
D03*
X92735Y72275D02*
D03*
X85175Y84105D02*
D03*
X86625Y84505D02*
D03*
X85075Y86025D02*
D03*
X94375Y92745D02*
D03*
X82675Y92875D02*
D03*
X83875Y93945D02*
D03*
X96075Y93465D02*
D03*
X93025Y93545D02*
D03*
X104225Y89625D02*
D03*
X102275Y89385D02*
D03*
X89675Y89465D02*
D03*
X88775Y88825D02*
D03*
X86975Y89175D02*
D03*
X118875Y112825D02*
D03*
X128895Y113425D02*
D03*
X126975Y110475D02*
D03*
X127025Y112025D02*
D03*
X127055Y113425D02*
D03*
X100175Y103275D02*
D03*
Y102175D02*
D03*
Y102725D02*
D03*
X88725Y90925D02*
D03*
X105525Y111425D02*
D03*
X94575Y58075D02*
D03*
Y60175D02*
D03*
Y59475D02*
D03*
Y58775D02*
D03*
X95275D02*
D03*
Y60175D02*
D03*
Y59475D02*
D03*
Y58075D02*
D03*
X110925Y96075D02*
D03*
X111625D02*
D03*
X110925Y94675D02*
D03*
Y95375D02*
D03*
Y93975D02*
D03*
Y93275D02*
D03*
X80925Y80225D02*
D03*
X79275Y81525D02*
D03*
X90425Y68925D02*
D03*
X97175Y75425D02*
D03*
X96875Y70625D02*
D03*
X100225Y74254D02*
D03*
X97475Y73175D02*
D03*
X83275Y62975D02*
D03*
Y64375D02*
D03*
X83225Y65775D02*
D03*
Y67175D02*
D03*
Y68575D02*
D03*
X82525Y65075D02*
D03*
Y66475D02*
D03*
X82475Y67875D02*
D03*
Y69275D02*
D03*
Y70675D02*
D03*
X123875Y77625D02*
D03*
Y78725D02*
D03*
X110775Y87825D02*
D03*
X112225Y91275D02*
D03*
X114225Y90675D02*
D03*
X117975Y91775D02*
D03*
X118280Y86530D02*
D03*
X118875Y101135D02*
D03*
X112375Y100375D02*
D03*
X126925Y93075D02*
D03*
X126975Y94475D02*
D03*
X126425Y95125D02*
D03*
X111625Y94675D02*
D03*
X113625Y87125D02*
D03*
X114825Y91775D02*
D03*
X124475Y101275D02*
D03*
X125125Y101925D02*
D03*
X121725Y100375D02*
D03*
X119875Y99925D02*
D03*
X120425Y100475D02*
D03*
Y99925D02*
D03*
X121825Y92225D02*
D03*
X120375Y91175D02*
D03*
X122775Y91375D02*
D03*
X120275Y89425D02*
D03*
X120625Y90025D02*
D03*
X119925Y89775D02*
D03*
X119175Y93425D02*
D03*
X118825Y92975D02*
D03*
X118475Y92575D02*
D03*
X122625Y96675D02*
D03*
X115725Y87125D02*
D03*
X120725Y90725D02*
D03*
X125675Y95625D02*
D03*
X124625Y89925D02*
D03*
X123825Y89025D02*
D03*
Y89925D02*
D03*
X121475Y90025D02*
D03*
X121125Y90375D02*
D03*
X122775Y90075D02*
D03*
X118375Y82325D02*
D03*
X116275Y91225D02*
D03*
X119875Y91325D02*
D03*
X114075Y99678D02*
D03*
X116525Y96075D02*
D03*
X115825Y95375D02*
D03*
X116525D02*
D03*
X117225Y95475D02*
D03*
X115825Y94675D02*
D03*
Y93975D02*
D03*
Y93275D02*
D03*
X116525D02*
D03*
X117225Y93525D02*
D03*
X116525Y93975D02*
D03*
Y94675D02*
D03*
X114324Y87876D02*
D03*
X116675Y87875D02*
D03*
X118175D02*
D03*
X118125Y90875D02*
D03*
X114175Y89875D02*
D03*
X110075Y89425D02*
D03*
X111625D02*
D03*
X115175Y89225D02*
D03*
X117925Y96075D02*
D03*
X115825D02*
D03*
X117975Y94025D02*
D03*
X117225Y96775D02*
D03*
X115825D02*
D03*
X114425D02*
D03*
X113025D02*
D03*
X111625D02*
D03*
Y95375D02*
D03*
Y93975D02*
D03*
X112325Y96075D02*
D03*
Y95375D02*
D03*
Y94675D02*
D03*
Y93975D02*
D03*
X111625Y93275D02*
D03*
X111475Y92375D02*
D03*
X112325Y93275D02*
D03*
X118125Y89225D02*
D03*
X111475Y91525D02*
D03*
X123475Y93325D02*
D03*
X120525Y93225D02*
D03*
X116725Y103625D02*
D03*
X117475Y101625D02*
D03*
X120625Y98125D02*
D03*
X119075Y105215D02*
D03*
X118725Y105625D02*
D03*
X120375Y92575D02*
D03*
X119375Y94275D02*
D03*
X120025D02*
D03*
X122875Y94675D02*
D03*
X123425Y95125D02*
D03*
X125425Y94675D02*
D03*
X125225Y95325D02*
D03*
Y95875D02*
D03*
X125425Y94025D02*
D03*
X118825Y97375D02*
D03*
Y96175D02*
D03*
Y98575D02*
D03*
X121925Y92725D02*
D03*
X119875Y93675D02*
D03*
X122875Y95525D02*
D03*
X122175Y95575D02*
D03*
X117625Y104825D02*
D03*
X121325Y95775D02*
D03*
X125495Y98025D02*
D03*
X125125Y99275D02*
D03*
Y100625D02*
D03*
X123825D02*
D03*
X121725Y99575D02*
D03*
X122625D02*
D03*
X123225Y98475D02*
D03*
X121825Y101025D02*
D03*
X122225Y101375D02*
D03*
X124925Y98775D02*
D03*
X123825Y98475D02*
D03*
X124925Y98125D02*
D03*
X122675Y101675D02*
D03*
X121975Y96475D02*
D03*
X121535Y102775D02*
D03*
X123825Y104525D02*
D03*
X125125Y103975D02*
D03*
Y102975D02*
D03*
X122275Y104575D02*
D03*
X120625Y104495D02*
D03*
X112975Y91525D02*
D03*
X113525Y91025D02*
D03*
X117225Y99575D02*
D03*
X116525Y97475D02*
D03*
X117925D02*
D03*
X117225Y98175D02*
D03*
X116525Y98875D02*
D03*
X117825D02*
D03*
X116825Y104825D02*
D03*
Y108075D02*
D03*
X117625D02*
D03*
X120575Y80475D02*
D03*
X120625Y82625D02*
D03*
X120775Y83825D02*
D03*
X121375Y84725D02*
D03*
X107075Y78125D02*
D03*
X115075Y75625D02*
D03*
X103625Y85925D02*
D03*
X96925Y68505D02*
D03*
X121835Y82125D02*
D03*
X125835D02*
D03*
X125725Y84795D02*
D03*
X106675Y60775D02*
D03*
X106025Y59625D02*
D03*
X110175Y62175D02*
D03*
X97725Y61275D02*
D03*
X123125Y80955D02*
D03*
X86525Y63075D02*
D03*
X91975Y68325D02*
D03*
X110225Y85425D02*
D03*
X109275Y87425D02*
D03*
X111625Y87125D02*
D03*
X114375Y85775D02*
D03*
X113375Y78925D02*
D03*
X109425Y83525D02*
D03*
X116325Y85725D02*
D03*
X116925Y79525D02*
D03*
Y78525D02*
D03*
X114825Y79425D02*
D03*
X115225Y78175D02*
D03*
X111225Y79675D02*
D03*
X112025Y78025D02*
D03*
X109975Y78575D02*
D03*
X109425Y77125D02*
D03*
X124475Y63325D02*
D03*
X85825Y63425D02*
D03*
X97675Y58825D02*
D03*
X125825Y71745D02*
D03*
X109675Y81625D02*
D03*
X102575Y81175D02*
D03*
X124375Y86635D02*
D03*
X124225Y80975D02*
D03*
X122875Y76225D02*
D03*
X121825Y76275D02*
D03*
X120675Y81525D02*
D03*
X123175Y83825D02*
D03*
X124925Y83225D02*
D03*
X106925Y88675D02*
D03*
X103675D02*
D03*
X89975Y58375D02*
D03*
Y59075D02*
D03*
X105175Y60475D02*
D03*
X103875Y60675D02*
D03*
X103225Y60775D02*
D03*
X102575Y60875D02*
D03*
X101925Y60975D02*
D03*
X101275Y61075D02*
D03*
X100625Y61175D02*
D03*
X106475Y58975D02*
D03*
X100399Y76249D02*
D03*
X94575Y57375D02*
D03*
X95975Y58775D02*
D03*
Y59475D02*
D03*
Y57375D02*
D03*
X95275D02*
D03*
X86125D02*
D03*
X85425Y56675D02*
D03*
Y58075D02*
D03*
X95275Y56675D02*
D03*
X95975Y58075D02*
D03*
Y56675D02*
D03*
X94575D02*
D03*
X93175D02*
D03*
X92475D02*
D03*
X93875D02*
D03*
X93664Y60036D02*
D03*
Y59386D02*
D03*
Y58736D02*
D03*
Y58086D02*
D03*
Y57436D02*
D03*
X90648Y60036D02*
D03*
Y59386D02*
D03*
Y58736D02*
D03*
Y58086D02*
D03*
Y57436D02*
D03*
X89675Y56675D02*
D03*
X88975Y67275D02*
D03*
X90025Y66075D02*
D03*
X85825Y62575D02*
D03*
X93675Y73825D02*
D03*
X90475Y70125D02*
D03*
X97675Y67125D02*
D03*
X90525Y66775D02*
D03*
X96625Y73875D02*
D03*
X89025Y70975D02*
D03*
X97675Y69575D02*
D03*
X100725Y69875D02*
D03*
X91225Y77125D02*
D03*
X94625D02*
D03*
X100725Y68675D02*
D03*
X86775Y69925D02*
D03*
X98175Y62675D02*
D03*
X97754Y65196D02*
D03*
X98175Y63875D02*
D03*
X88525Y65725D02*
D03*
X90375Y64675D02*
D03*
X93775Y77125D02*
D03*
X87725Y73925D02*
D03*
X93675Y63525D02*
D03*
X94525D02*
D03*
X94075Y65225D02*
D03*
X99775Y66775D02*
D03*
X88425Y73175D02*
D03*
Y72475D02*
D03*
X90125Y74625D02*
D03*
X91025Y75375D02*
D03*
X88425Y71775D02*
D03*
X89775Y76975D02*
D03*
X97975Y77775D02*
D03*
X105025Y83375D02*
D03*
X100425Y77275D02*
D03*
X87775Y67125D02*
D03*
X93775Y75475D02*
D03*
X88725Y75175D02*
D03*
X94575Y65225D02*
D03*
X99775Y67325D02*
D03*
X91825Y77125D02*
D03*
X100225Y73575D02*
D03*
X100725Y69275D02*
D03*
X93575Y61825D02*
D03*
X93325Y61025D02*
D03*
X98625Y77775D02*
D03*
X99375Y78025D02*
D03*
X99075Y69925D02*
D03*
Y68675D02*
D03*
X88475Y69925D02*
D03*
X94625Y75475D02*
D03*
X91075Y56675D02*
D03*
X91775D02*
D03*
X90375D02*
D03*
X88975D02*
D03*
X87575Y57375D02*
D03*
Y58775D02*
D03*
X86875Y56675D02*
D03*
Y58075D02*
D03*
X87225Y61175D02*
D03*
X87575Y60175D02*
D03*
X84725Y57375D02*
D03*
X84025Y56675D02*
D03*
Y58075D02*
D03*
X88275Y56675D02*
D03*
X109525Y59575D02*
D03*
X108175Y58525D02*
D03*
X122825Y61175D02*
D03*
X123625Y62175D02*
D03*
X126375Y65175D02*
D03*
X117475Y78975D02*
D03*
X118525Y80575D02*
D03*
X117825Y79325D02*
D03*
X118175Y79775D02*
D03*
X109975Y77525D02*
D03*
X104825Y72775D02*
D03*
X108525Y74175D02*
D03*
X108825Y63475D02*
D03*
X126925Y66125D02*
D03*
Y70325D02*
D03*
X126525Y57725D02*
D03*
X126925Y68925D02*
D03*
X126525Y60175D02*
D03*
X126925Y67525D02*
D03*
X126525Y62625D02*
D03*
X122675Y87975D02*
D03*
X109675Y62625D02*
D03*
X111825Y70475D02*
D03*
X111225Y72125D02*
D03*
X110025D02*
D03*
X109975Y71025D02*
D03*
X118075Y73775D02*
D03*
X119275D02*
D03*
X123925Y81775D02*
D03*
X118975Y67575D02*
D03*
X111925Y67375D02*
D03*
X125125Y72825D02*
D03*
X117575Y74425D02*
D03*
X119775Y72375D02*
D03*
X119475Y68425D02*
D03*
Y69075D02*
D03*
X106175Y76775D02*
D03*
X119825Y76825D02*
D03*
X118075Y72675D02*
D03*
X119025Y81075D02*
D03*
X106375Y84425D02*
D03*
X108595Y72405D02*
D03*
X121925Y65875D02*
D03*
X121875Y65275D02*
D03*
X117825Y65225D02*
D03*
X110725Y66925D02*
D03*
X109575Y75625D02*
D03*
X111875Y73725D02*
D03*
X113625Y64875D02*
D03*
X111675Y64525D02*
D03*
X113975Y65275D02*
D03*
X123025Y84825D02*
D03*
X122425Y83825D02*
D03*
X113975Y74025D02*
D03*
X115075Y73975D02*
D03*
X119775Y73375D02*
D03*
X119525Y66275D02*
D03*
X121425Y66425D02*
D03*
X113435Y63015D02*
D03*
X114075Y63375D02*
D03*
X119875Y65525D02*
D03*
X109575Y74975D02*
D03*
X111275Y71375D02*
D03*
X112325Y70875D02*
D03*
X111275Y68275D02*
D03*
X113595Y66425D02*
D03*
X104325Y67725D02*
D03*
X106425Y65725D02*
D03*
X107025Y65325D02*
D03*
X105407Y66257D02*
D03*
X105175Y66975D02*
D03*
X103635Y63725D02*
D03*
X105325Y67675D02*
D03*
X105975Y69375D02*
D03*
X105375Y73975D02*
D03*
X108425Y78125D02*
D03*
X108475Y79275D02*
D03*
X108575Y82875D02*
D03*
Y82325D02*
D03*
X119175Y85125D02*
D03*
X119225Y83975D02*
D03*
Y83175D02*
D03*
Y82575D02*
D03*
Y78825D02*
D03*
X117275Y77125D02*
D03*
X115125D02*
D03*
X114175D02*
D03*
X112475Y72525D02*
D03*
X112225Y72975D02*
D03*
X111675Y73175D02*
D03*
X109725Y70025D02*
D03*
X109225Y70075D02*
D03*
X113075Y71675D02*
D03*
X105175Y71375D02*
D03*
X111175Y72675D02*
D03*
X109975Y73225D02*
D03*
X109325Y71475D02*
D03*
X107325Y76175D02*
D03*
X108525Y74675D02*
D03*
Y75225D02*
D03*
X107925Y70575D02*
D03*
X108075Y71775D02*
D03*
X106391Y71091D02*
D03*
X107375Y71375D02*
D03*
X105425Y75225D02*
D03*
Y74675D02*
D03*
X108525Y75825D02*
D03*
X104775Y75425D02*
D03*
X104475Y76175D02*
D03*
X102775Y70975D02*
D03*
X102975Y70525D02*
D03*
X102575Y71475D02*
D03*
X102525Y72025D02*
D03*
X122375Y67225D02*
D03*
X102475Y70175D02*
D03*
X114075Y62475D02*
D03*
X114575Y64125D02*
D03*
X113975Y75675D02*
D03*
X110875Y69675D02*
D03*
X109675Y68875D02*
D03*
X110875Y61975D02*
D03*
X121075Y61175D02*
D03*
X117825Y68675D02*
D03*
X118325Y67425D02*
D03*
X113775Y62075D02*
D03*
X121565Y87975D02*
D03*
X110375Y77125D02*
D03*
X117125Y73925D02*
D03*
Y75575D02*
D03*
X121925Y78225D02*
D03*
X121325D02*
D03*
Y81525D02*
D03*
X120975Y85325D02*
D03*
Y85825D02*
D03*
X105275Y82625D02*
D03*
X106275D02*
D03*
X105275Y81975D02*
D03*
X106275D02*
D03*
X106975Y79825D02*
D03*
X105925Y77625D02*
D03*
X106975Y63675D02*
D03*
X108275Y63625D02*
D03*
X105875Y63575D02*
D03*
X103125D02*
D03*
X125825Y72375D02*
D03*
X117225Y70225D02*
D03*
X126425Y67825D02*
D03*
X126325Y68275D02*
D03*
Y68925D02*
D03*
Y70025D02*
D03*
Y70675D02*
D03*
X120425Y73375D02*
D03*
X119275Y72875D02*
D03*
X119475Y71725D02*
D03*
Y71075D02*
D03*
Y70425D02*
D03*
Y69775D02*
D03*
X119925Y64675D02*
D03*
X119275D02*
D03*
X111325Y61675D02*
D03*
X111925Y65225D02*
D03*
X111275D02*
D03*
X118325Y66375D02*
D03*
X117825Y66925D02*
D03*
X118325Y68125D02*
D03*
X112975Y70875D02*
D03*
X111525Y69675D02*
D03*
X116275Y65675D02*
D03*
X122875Y68025D02*
D03*
X115825Y66175D02*
D03*
X115075Y65875D02*
D03*
X121875Y64675D02*
D03*
X111925Y66375D02*
D03*
X111875Y68275D02*
D03*
X110575Y65225D02*
D03*
X113575Y63775D02*
D03*
X113425Y61725D02*
D03*
X111996Y62896D02*
D03*
X112025Y64075D02*
D03*
X121425Y67125D02*
D03*
X119175Y67025D02*
D03*
X121425Y65925D02*
D03*
X117225Y70825D02*
D03*
X116425Y70525D02*
D03*
X116725Y71325D02*
D03*
X116025Y71125D02*
D03*
X115625Y71725D02*
D03*
X115825Y72425D02*
D03*
X115175Y72275D02*
D03*
X116275Y71875D02*
D03*
X110175Y65825D02*
D03*
X109525Y66175D02*
D03*
X110025Y66875D02*
D03*
X109725Y67575D02*
D03*
X110625Y68275D02*
D03*
X110275Y69425D02*
D03*
X121375Y64825D02*
D03*
X125125Y63675D02*
D03*
X117125Y61175D02*
D03*
X106325Y79825D02*
D03*
X104871Y83971D02*
D03*
X125825Y64175D02*
D03*
X122725Y86675D02*
D03*
X123175D02*
D03*
X104825Y74425D02*
D03*
X105325Y73275D02*
D03*
X104175Y63575D02*
D03*
X122475Y80955D02*
D03*
X101975Y73625D02*
D03*
X102325Y73275D02*
D03*
X108125Y60875D02*
D03*
X85425Y59475D02*
D03*
X86125Y58775D02*
D03*
X83275Y57375D02*
D03*
X105225Y69725D02*
D03*
X106425Y66525D02*
D03*
X104525Y60575D02*
D03*
X98375Y66575D02*
D03*
X96475Y66975D02*
D03*
X99125Y80125D02*
D03*
X97275Y78825D02*
D03*
X88975Y69225D02*
D03*
X85675Y65925D02*
D03*
X90475Y72775D02*
D03*
X95275Y73785D02*
D03*
X94925Y73375D02*
D03*
X94125Y73175D02*
D03*
X92325Y66925D02*
D03*
X91625Y67125D02*
D03*
X91275Y67675D02*
D03*
X93175Y66825D02*
D03*
X92765Y68025D02*
D03*
X94025Y68275D02*
D03*
X96475Y71825D02*
D03*
X92568Y73675D02*
D03*
X96525Y67975D02*
D03*
X97575Y68375D02*
D03*
X97275Y72175D02*
D03*
X97625Y71825D02*
D03*
X94675Y70275D02*
D03*
X86775Y69325D02*
D03*
X86475Y70475D02*
D03*
X106825Y58125D02*
D03*
X103625Y86525D02*
D03*
X103675Y87975D02*
D03*
X106525Y86925D02*
D03*
X105925D02*
D03*
X88125Y75225D02*
D03*
X98675Y56625D02*
D03*
X102275D02*
D03*
X104075D02*
D03*
X105875D02*
D03*
X107675D02*
D03*
X109475D02*
D03*
X110625Y57925D02*
D03*
X111575Y59125D02*
D03*
X114225Y59175D02*
D03*
X100475Y56625D02*
D03*
X99975Y62325D02*
D03*
X96125Y64975D02*
D03*
X111875Y72525D02*
D03*
X90675Y73475D02*
D03*
X95475Y67575D02*
D03*
X92675Y68525D02*
D03*
X93525Y68475D02*
D03*
X96025Y68225D02*
D03*
X95875Y71125D02*
D03*
X123225Y66225D02*
D03*
X108675Y80675D02*
D03*
X108225Y60275D02*
D03*
X106825Y59475D02*
D03*
X123195Y69025D02*
D03*
X114525Y66125D02*
D03*
X115425Y66555D02*
D03*
X116125Y60175D02*
D03*
X109175Y74125D02*
D03*
X108555Y73625D02*
D03*
X117475Y73355D02*
D03*
X101975Y74325D02*
D03*
X126025Y83675D02*
D03*
X124635Y88225D02*
D03*
X121975Y66625D02*
D03*
X122975Y67275D02*
D03*
X121775Y68475D02*
D03*
X91025Y64675D02*
D03*
X92425Y77125D02*
D03*
X87675Y64575D02*
D03*
X84725Y58775D02*
D03*
X84025Y59475D02*
D03*
X83275Y58775D02*
D03*
Y60175D02*
D03*
X82575Y56675D02*
D03*
Y58075D02*
D03*
Y59475D02*
D03*
X87575Y56675D02*
D03*
Y58075D02*
D03*
Y59475D02*
D03*
X82525Y60875D02*
D03*
Y62275D02*
D03*
Y63675D02*
D03*
X83275Y61575D02*
D03*
X88025Y103275D02*
D03*
Y102175D02*
D03*
Y102725D02*
D03*
X92225Y87075D02*
D03*
X92725Y89475D02*
D03*
X85625Y92325D02*
D03*
X86425D02*
D03*
X85625Y91575D02*
D03*
X86425D02*
D03*
X83623Y91227D02*
D03*
X85625Y88075D02*
D03*
X86525Y88225D02*
D03*
X93225Y91425D02*
D03*
X92375Y94175D02*
D03*
X83225Y94475D02*
D03*
X89625Y92425D02*
D03*
X100875Y90925D02*
D03*
X97775Y92325D02*
D03*
Y91575D02*
D03*
X96125Y88725D02*
D03*
X98675Y88225D02*
D03*
X95125Y94225D02*
D03*
X98575Y92325D02*
D03*
Y91575D02*
D03*
X105375Y91425D02*
D03*
X104525Y94175D02*
D03*
X95523Y90977D02*
D03*
X101775Y92425D02*
D03*
X107627Y96327D02*
D03*
X109277D02*
D03*
X108725Y99125D02*
D03*
X108077Y99127D02*
D03*
X110575Y100625D02*
D03*
X110225Y98825D02*
D03*
X109325Y94675D02*
D03*
X110175Y91025D02*
D03*
X112925Y98075D02*
D03*
X112075Y98875D02*
D03*
X110575Y101275D02*
D03*
X107425Y103075D02*
D03*
X107875Y93075D02*
D03*
X106125Y104775D02*
D03*
Y102325D02*
D03*
X105375Y102875D02*
D03*
X114475Y104825D02*
D03*
X110975D02*
D03*
X110175D02*
D03*
Y108075D02*
D03*
X110975D02*
D03*
X108375Y104825D02*
D03*
X107575D02*
D03*
Y108075D02*
D03*
X108375D02*
D03*
X98175Y84625D02*
D03*
X88725Y82075D02*
D03*
Y81425D02*
D03*
X88525Y84075D02*
D03*
Y83425D02*
D03*
X91575Y86325D02*
D03*
X90925D02*
D03*
X93575Y86425D02*
D03*
X92925D02*
D03*
X95975Y82025D02*
D03*
X93775Y79125D02*
D03*
Y79775D02*
D03*
X95118Y81282D02*
D03*
X95275Y84375D02*
D03*
X93825Y82825D02*
D03*
Y82225D02*
D03*
X90906Y83644D02*
D03*
X90516Y82266D02*
D03*
X94625Y86575D02*
D03*
X86675Y87375D02*
D03*
X89325D02*
D03*
X96425Y83275D02*
D03*
X95975Y82675D02*
D03*
X93375Y83075D02*
D03*
X92025Y83225D02*
D03*
X90775Y83025D02*
D03*
X92775Y90075D02*
D03*
X91225Y87075D02*
D03*
X93725Y87175D02*
D03*
X91975Y84375D02*
D03*
X92675Y84325D02*
D03*
X93334Y84384D02*
D03*
X91169Y81119D02*
D03*
X89525Y79825D02*
D03*
X91375Y81875D02*
D03*
X95975Y78275D02*
D03*
X95575Y79925D02*
D03*
X83525Y88725D02*
D03*
X87325Y85925D02*
D03*
X94225Y88675D02*
D03*
X94775Y89075D02*
D03*
X95025Y84875D02*
D03*
X94125Y87525D02*
D03*
X95925Y89325D02*
D03*
X112125Y97525D02*
D03*
X92175Y77725D02*
D03*
X84225Y60475D02*
D03*
X81975Y85845D02*
D03*
Y84245D02*
D03*
Y87605D02*
D03*
X81915Y82125D02*
D03*
X75435Y90025D02*
D03*
X78525Y78745D02*
D03*
X76655Y81025D02*
D03*
X77135Y82075D02*
D03*
X71935Y82525D02*
D03*
X72925Y85845D02*
D03*
X73525Y89575D02*
D03*
X76975Y88625D02*
D03*
X81825Y78665D02*
D03*
X78975Y80185D02*
D03*
X73525Y78665D02*
D03*
X71455Y78625D02*
D03*
X79975Y82925D02*
D03*
X73525Y90525D02*
D03*
Y88925D02*
D03*
X76815Y93475D02*
D03*
X75615Y93775D02*
D03*
X80975Y90075D02*
D03*
X77775Y93465D02*
D03*
X78815Y92375D02*
D03*
X74325Y82925D02*
D03*
X75475Y78665D02*
D03*
Y79625D02*
D03*
X79775Y82125D02*
D03*
X81425Y80905D02*
D03*
X125875Y79675D02*
D03*
X125825Y77175D02*
D03*
X125875Y74775D02*
D03*
X71375Y98125D02*
D03*
Y97225D02*
D03*
Y97675D02*
D03*
X77975Y97225D02*
D03*
Y98125D02*
D03*
Y97675D02*
D03*
X93275Y81475D02*
D03*
X92825Y82425D02*
D03*
X92325Y81375D02*
D03*
X91825Y82425D02*
D03*
X103975Y84125D02*
D03*
X102075Y76425D02*
D03*
X84125Y111545D02*
D03*
Y113145D02*
D03*
X102725Y112525D02*
D03*
X102625Y113675D02*
D03*
X93275Y114125D02*
D03*
X98025D02*
D03*
X88475Y114075D02*
D03*
X115775Y103325D02*
D03*
X94825Y61025D02*
D03*
X108525Y85152D02*
D03*
X83625Y80325D02*
D03*
X82075Y73175D02*
D03*
X82125Y75175D02*
D03*
X83875Y77025D02*
D03*
X85575Y78775D02*
D03*
X87975Y79775D02*
D03*
X83625Y82325D02*
D03*
Y84225D02*
D03*
Y86325D02*
D03*
X99775Y85875D02*
D03*
X100375Y86875D02*
D03*
X101125Y87675D02*
D03*
X102375Y88075D02*
D03*
X97825Y82725D02*
D03*
X101025Y75725D02*
D03*
X97375Y80625D02*
D03*
X99525Y80775D02*
D03*
X100975Y82175D02*
D03*
X100475Y83375D02*
D03*
X103375Y83425D02*
D03*
Y82025D02*
D03*
X98525Y81325D02*
D03*
X96775Y79425D02*
D03*
X101625Y78975D02*
D03*
X98875Y75975D02*
D03*
X101525Y77275D02*
D03*
X102625Y79525D02*
D03*
X103925Y80825D02*
D03*
X104525Y81625D02*
D03*
X102175Y75575D02*
D03*
X72925Y71075D02*
D03*
X76475Y60575D02*
D03*
X73875D02*
D03*
X71425D02*
D03*
X77875Y66025D02*
D03*
X73325Y66075D02*
D03*
X78875Y68475D02*
D03*
X72325D02*
D03*
X75525D02*
D03*
X78075Y70975D02*
D03*
X72225Y63075D02*
D03*
Y61975D02*
D03*
X83075Y95385D02*
D03*
X93135Y95425D02*
D03*
X94495D02*
D03*
X94125Y94505D02*
D03*
X105375Y95385D02*
D03*
X105675Y92665D02*
D03*
X82675Y94325D02*
D03*
X87025Y93975D02*
D03*
X99175D02*
D03*
D201*
X90425Y80475D02*
D03*
X95525Y79125D02*
D03*
X90525Y79725D02*
D03*
X94925Y78725D02*
D03*
X87675Y82775D02*
D03*
X85275Y82225D02*
D03*
X67975Y104625D02*
D03*
Y105625D02*
D03*
Y106625D02*
D03*
Y107625D02*
D03*
Y108625D02*
D03*
Y109625D02*
D03*
X128875Y110625D02*
D03*
Y109625D02*
D03*
Y108625D02*
D03*
Y103625D02*
D03*
Y104625D02*
D03*
Y105625D02*
D03*
Y106625D02*
D03*
X67975Y110625D02*
D03*
Y103625D02*
D03*
X128875Y64625D02*
D03*
Y63625D02*
D03*
Y62625D02*
D03*
Y61625D02*
D03*
Y60625D02*
D03*
Y59625D02*
D03*
Y58625D02*
D03*
X67975Y64625D02*
D03*
Y63625D02*
D03*
Y62625D02*
D03*
Y61625D02*
D03*
Y60625D02*
D03*
Y59625D02*
D03*
Y58625D02*
D03*
X128875Y107625D02*
D03*
X67975Y57625D02*
D03*
X128875D02*
D03*
Y85985D02*
D03*
Y84985D02*
D03*
Y83985D02*
D03*
Y82985D02*
D03*
Y81985D02*
D03*
Y80985D02*
D03*
Y79985D02*
D03*
X67975Y85985D02*
D03*
Y84985D02*
D03*
Y83985D02*
D03*
Y82985D02*
D03*
Y81985D02*
D03*
Y80985D02*
D03*
Y79985D02*
D03*
Y78985D02*
D03*
X128875D02*
D03*
X67975Y56625D02*
D03*
Y55625D02*
D03*
Y54625D02*
D03*
Y53625D02*
D03*
Y52625D02*
D03*
X128875Y56625D02*
D03*
Y55625D02*
D03*
Y54625D02*
D03*
Y53625D02*
D03*
Y52625D02*
D03*
X109375Y90475D02*
D03*
X107725D02*
D03*
D202*
X117225Y89925D02*
D03*
X125595Y52625D02*
D03*
X122715D02*
D03*
X119835D02*
D03*
X116955D02*
D03*
X114075D02*
D03*
X111195D02*
D03*
X108315D02*
D03*
X105435D02*
D03*
X102555D02*
D03*
X99675D02*
D03*
X96795D02*
D03*
X93915D02*
D03*
X91035D02*
D03*
X88155D02*
D03*
X85275D02*
D03*
X82395D02*
D03*
X79515D02*
D03*
X76635D02*
D03*
X73755D02*
D03*
X70875D02*
D03*
X80525Y57125D02*
D03*
X120375Y61175D02*
D03*
X91025Y63375D02*
D03*
X76925Y95425D02*
D03*
X72375D02*
D03*
M02*
