%FSLAX24Y24*%
%MOIN*%
G70*
G01*
G75*
%ADD10C,0.0110*%
%ADD11C,0.0380*%
%ADD12C,0.0100*%
%ADD13R,0.0380X0.0380*%
%ADD14R,0.0600X0.0500*%
%ADD15R,0.0600X0.0600*%
%ADD16O,0.0630X0.0110*%
%ADD17O,0.0110X0.0630*%
%ADD18O,0.0630X0.0110*%
%ADD19R,0.0630X0.0110*%
%ADD20R,0.0500X0.0600*%
%ADD21R,0.0500X0.0650*%
%ADD22R,0.1614X0.0827*%
%ADD23R,0.0600X0.1000*%
%ADD24R,0.1250X0.0600*%
%ADD25R,0.0380X0.0425*%
%ADD26R,0.0709X0.1575*%
%ADD27C,0.0400*%
%ADD28R,0.1378X0.0709*%
%ADD29R,0.0709X0.1378*%
%ADD30R,0.0800X0.0800*%
%ADD31O,0.0846X0.0138*%
%ADD32R,0.0846X0.0138*%
%ADD33R,0.1181X0.1575*%
%ADD34R,0.0600X0.1250*%
%ADD35R,0.0900X0.1200*%
%ADD36R,0.0236X0.0433*%
%ADD37R,0.0906X0.0945*%
%ADD38C,0.0600*%
%ADD39C,0.0400*%
%ADD40C,0.0110*%
%ADD41C,0.0250*%
%ADD42C,0.0500*%
%ADD43C,0.0200*%
%ADD44C,0.0150*%
%ADD45C,0.0300*%
%ADD46C,0.0120*%
%ADD47C,0.1000*%
%ADD48C,0.0370*%
%ADD49C,0.0130*%
%ADD50C,0.0390*%
%ADD51C,0.0290*%
%ADD52C,0.0140*%
%ADD53C,0.0180*%
%ADD54C,0.0800*%
%ADD55R,0.5050X0.4500*%
%ADD56R,0.5050X0.4550*%
%ADD57R,0.5200X0.4550*%
%ADD58R,0.5050X0.9550*%
%ADD59C,0.0620*%
%ADD60C,0.0500*%
%ADD61C,0.0600*%
%ADD62C,0.1181*%
%ADD63P,0.1181X8X0*%
%ADD64C,0.0650*%
%ADD65C,0.2600*%
%ADD66C,0.0945*%
%ADD67C,0.0787*%
%ADD68C,0.0906*%
%ADD69P,0.0620X8X0*%
%ADD70C,0.1575*%
%ADD71C,0.0450*%
%ADD72C,0.0080*%
%ADD73C,0.0098*%
%ADD74C,0.0060*%
%ADD75C,0.0079*%
%ADD76C,0.0090*%
%ADD77C,0.0160*%
%ADD78R,0.0300X0.0500*%
%ADD79R,0.1500X0.0500*%
%ADD80R,0.0430X0.3100*%
%ADD81R,0.0130X0.0360*%
D12*
X165550Y41981D02*
X165648Y41986D01*
X165745Y42000D01*
X165840Y42024D01*
X165933Y42057D01*
X166021Y42099D01*
X166106Y42149D01*
X166184Y42208D01*
X166257Y42274D01*
X166323Y42346D01*
X166381Y42425D01*
X166432Y42509D01*
X166474Y42598D01*
X166507Y42690D01*
X166531Y42786D01*
X166545Y42883D01*
X166550Y42981D01*
X31350D02*
X31355Y42883D01*
X31369Y42786D01*
X31393Y42690D01*
X31426Y42598D01*
X31468Y42509D01*
X31519Y42425D01*
X31577Y42346D01*
X31643Y42274D01*
X31716Y42208D01*
X31794Y42149D01*
X31879Y42099D01*
X31967Y42057D01*
X32060Y42024D01*
X32155Y42000D01*
X32252Y41986D01*
X32350Y41981D01*
X165550D01*
X31350Y112031D02*
X166550D01*
X31350Y42981D02*
Y112031D01*
X166550Y42981D02*
Y112031D01*
D13*
X94100Y78531D02*
D03*
X95850Y78281D02*
D03*
X94650Y80181D02*
D03*
X99450Y69681D02*
D03*
Y70331D02*
D03*
X90900Y78281D02*
D03*
Y77631D02*
D03*
X94100Y77881D02*
D03*
X93550Y70431D02*
D03*
Y71081D02*
D03*
X89350Y73831D02*
D03*
X90000D02*
D03*
X89350Y74431D02*
D03*
X90000D02*
D03*
X93150Y77881D02*
D03*
Y78531D02*
D03*
X95250Y79531D02*
D03*
Y80181D02*
D03*
X95850Y79531D02*
D03*
Y80181D02*
D03*
X92100Y78281D02*
D03*
Y77631D02*
D03*
X95300Y104831D02*
D03*
X94650D02*
D03*
X95850Y78931D02*
D03*
X94650Y79531D02*
D03*
X91450Y78881D02*
D03*
X92100D02*
D03*
X91500Y78281D02*
D03*
Y77631D02*
D03*
X91100Y81331D02*
D03*
X91750D02*
D03*
X93050D02*
D03*
X92400D02*
D03*
X96800Y75331D02*
D03*
Y75981D02*
D03*
X92350Y71081D02*
D03*
Y70431D02*
D03*
X90000Y75031D02*
D03*
X89350D02*
D03*
X92900Y104831D02*
D03*
X93550D02*
D03*
X96450Y80581D02*
D03*
Y81231D02*
D03*
X100800Y71081D02*
D03*
X100150D02*
D03*
X99450Y78731D02*
D03*
X98800D02*
D03*
X99450Y79731D02*
D03*
X98800D02*
D03*
X99450Y78031D02*
D03*
X98800D02*
D03*
Y80731D02*
D03*
X99450D02*
D03*
X88100Y80881D02*
D03*
X87500D02*
D03*
X97000Y68581D02*
D03*
X88100Y81531D02*
D03*
X64100Y84681D02*
D03*
Y85331D02*
D03*
Y66731D02*
D03*
Y66081D02*
D03*
X70050Y95431D02*
D03*
X69400D02*
D03*
X87750Y60731D02*
D03*
X88400D02*
D03*
X102000Y52881D02*
D03*
Y53531D02*
D03*
X101400Y52881D02*
D03*
Y53531D02*
D03*
X102950Y56281D02*
D03*
X102300D02*
D03*
X97900Y52931D02*
D03*
Y53581D02*
D03*
X97550Y51681D02*
D03*
Y52331D02*
D03*
X94850D02*
D03*
Y51681D02*
D03*
X100350Y52331D02*
D03*
X100000Y53581D02*
D03*
X99650Y52331D02*
D03*
X99300Y53581D02*
D03*
X98950Y52331D02*
D03*
X98600Y53581D02*
D03*
X98250Y52331D02*
D03*
X96250D02*
D03*
X95900Y53581D02*
D03*
X95200D02*
D03*
X94500D02*
D03*
X94150Y52331D02*
D03*
X93800Y53581D02*
D03*
X93450Y52331D02*
D03*
X93100Y53581D02*
D03*
X90400Y56231D02*
D03*
X89800D02*
D03*
X89200D02*
D03*
X88700Y57981D02*
D03*
X88050Y58581D02*
D03*
Y59181D02*
D03*
X88700Y59781D02*
D03*
Y58581D02*
D03*
X90400Y55581D02*
D03*
X93800Y52931D02*
D03*
X95900D02*
D03*
X99300D02*
D03*
X100350Y51681D02*
D03*
X88700Y59181D02*
D03*
X89800Y55581D02*
D03*
X93450Y51681D02*
D03*
X94500Y52931D02*
D03*
X96250Y51681D02*
D03*
X98250D02*
D03*
X98950D02*
D03*
X100000Y52931D02*
D03*
X89200Y55581D02*
D03*
X93100Y52931D02*
D03*
X94150Y51681D02*
D03*
X95200Y52931D02*
D03*
X98600D02*
D03*
X99650Y51681D02*
D03*
X88050Y59781D02*
D03*
X88600Y55581D02*
D03*
X88000D02*
D03*
X88050Y57981D02*
D03*
X102800Y61331D02*
D03*
Y60331D02*
D03*
Y58381D02*
D03*
X97200Y54031D02*
D03*
X91700Y58931D02*
D03*
Y61881D02*
D03*
X97550Y65581D02*
D03*
X96950Y66231D02*
D03*
X102400Y64031D02*
D03*
X103450Y59731D02*
D03*
X101700Y54981D02*
D03*
X96600Y53381D02*
D03*
X91350Y56681D02*
D03*
X91450Y63581D02*
D03*
X91050Y60331D02*
D03*
X93600Y66331D02*
D03*
X103450Y61331D02*
D03*
Y60331D02*
D03*
Y58381D02*
D03*
X97200Y53381D02*
D03*
X91050Y58931D02*
D03*
Y61881D02*
D03*
X97550Y66231D02*
D03*
X96950Y65581D02*
D03*
X102400Y63381D02*
D03*
X102800Y59731D02*
D03*
X101050Y54981D02*
D03*
X96600Y54031D02*
D03*
X92000Y56681D02*
D03*
X92100Y63581D02*
D03*
X91700Y60331D02*
D03*
X93600Y65681D02*
D03*
X91050Y61081D02*
D03*
X91700D02*
D03*
X87500Y81531D02*
D03*
X86900Y80881D02*
D03*
Y81531D02*
D03*
X86300Y80881D02*
D03*
Y81531D02*
D03*
X97000Y67931D02*
D03*
X87550Y62531D02*
D03*
Y63181D02*
D03*
X86750Y74081D02*
D03*
Y75081D02*
D03*
Y77081D02*
D03*
X83300Y64581D02*
D03*
Y63931D02*
D03*
X70050Y76731D02*
D03*
X69400D02*
D03*
X86100Y77081D02*
D03*
Y74081D02*
D03*
Y75081D02*
D03*
X88000Y56231D02*
D03*
X88600D02*
D03*
X86100Y73081D02*
D03*
X86750D02*
D03*
X99550Y66631D02*
D03*
Y67281D02*
D03*
X100150Y66631D02*
D03*
Y67281D02*
D03*
X106500Y57381D02*
D03*
X104450Y59131D02*
D03*
X105250Y61731D02*
D03*
X105350Y64031D02*
D03*
X104550D02*
D03*
X105250Y61131D02*
D03*
Y57731D02*
D03*
Y58431D02*
D03*
X104600Y61131D02*
D03*
Y61731D02*
D03*
X105350Y63381D02*
D03*
X104550D02*
D03*
X103800Y59131D02*
D03*
X106500Y58081D02*
D03*
X98800Y81731D02*
D03*
X99450D02*
D03*
X105250Y57031D02*
D03*
X105900Y58431D02*
D03*
X107150Y58081D02*
D03*
Y57381D02*
D03*
X105900Y57731D02*
D03*
Y57031D02*
D03*
X106500Y56681D02*
D03*
X107150D02*
D03*
X103200Y59131D02*
D03*
X102550D02*
D03*
D14*
X89000Y73131D02*
D03*
X89900D02*
D03*
X98750Y71081D02*
D03*
X97650D02*
D03*
X88550Y63881D02*
D03*
X87650D02*
D03*
X105200Y59981D02*
D03*
X106300D02*
D03*
X103100Y52081D02*
D03*
X102000D02*
D03*
D15*
X97650Y75381D02*
D03*
Y76731D02*
D03*
X72700Y95531D02*
D03*
X74050D02*
D03*
X102950Y55381D02*
D03*
X92200Y54681D02*
D03*
X91150Y53331D02*
D03*
X102950Y54031D02*
D03*
X92200Y53331D02*
D03*
X91150Y54681D02*
D03*
X103550Y63381D02*
D03*
Y64731D02*
D03*
X72700Y76931D02*
D03*
X74050D02*
D03*
X88600Y61631D02*
D03*
Y62981D02*
D03*
D16*
X95917Y76031D02*
D03*
Y74062D02*
D03*
Y73865D02*
D03*
Y73275D02*
D03*
Y73472D02*
D03*
Y73668D02*
D03*
Y75637D02*
D03*
Y75440D02*
D03*
Y75243D02*
D03*
Y74850D02*
D03*
Y74456D02*
D03*
Y73078D02*
D03*
X91350Y73472D02*
D03*
Y73865D02*
D03*
Y74062D02*
D03*
Y74653D02*
D03*
Y74850D02*
D03*
Y75243D02*
D03*
Y75440D02*
D03*
Y75637D02*
D03*
Y75834D02*
D03*
X95917Y74259D02*
D03*
Y75834D02*
D03*
Y75046D02*
D03*
Y74653D02*
D03*
X91350Y74456D02*
D03*
Y74259D02*
D03*
Y73668D02*
D03*
Y73078D02*
D03*
Y73275D02*
D03*
X101561Y62496D02*
D03*
Y62103D02*
D03*
Y61906D02*
D03*
Y60922D02*
D03*
Y57969D02*
D03*
Y57772D02*
D03*
Y57575D02*
D03*
Y57378D02*
D03*
Y58559D02*
D03*
X92900Y63284D02*
D03*
Y56985D02*
D03*
Y57378D02*
D03*
X101561Y63481D02*
D03*
Y63284D02*
D03*
Y62890D02*
D03*
Y62693D02*
D03*
Y61512D02*
D03*
Y61315D02*
D03*
Y60331D02*
D03*
Y59937D02*
D03*
Y59741D02*
D03*
Y58363D02*
D03*
Y58166D02*
D03*
Y56591D02*
D03*
X92900D02*
D03*
Y56788D02*
D03*
Y57182D02*
D03*
Y57575D02*
D03*
Y57772D02*
D03*
Y58756D02*
D03*
Y58953D02*
D03*
Y60528D02*
D03*
Y60922D02*
D03*
Y61118D02*
D03*
Y61315D02*
D03*
Y61512D02*
D03*
Y61709D02*
D03*
Y61906D02*
D03*
Y62103D02*
D03*
Y62890D02*
D03*
Y63087D02*
D03*
X101561Y59544D02*
D03*
X92900Y60134D02*
D03*
Y60725D02*
D03*
X101561Y63087D02*
D03*
Y60134D02*
D03*
X92900Y59937D02*
D03*
Y59347D02*
D03*
Y59150D02*
D03*
Y58559D02*
D03*
Y58363D02*
D03*
Y58166D02*
D03*
Y57969D02*
D03*
Y59544D02*
D03*
Y59741D02*
D03*
X101561Y59150D02*
D03*
Y58953D02*
D03*
Y58756D02*
D03*
Y60528D02*
D03*
Y59347D02*
D03*
Y60725D02*
D03*
Y61709D02*
D03*
Y61118D02*
D03*
Y62300D02*
D03*
X92900Y62693D02*
D03*
Y62496D02*
D03*
Y62300D02*
D03*
X101561Y56985D02*
D03*
Y56788D02*
D03*
Y57182D02*
D03*
D17*
X93929Y72271D02*
D03*
X93732D02*
D03*
X93338D02*
D03*
X92748D02*
D03*
X92944D02*
D03*
X93141D02*
D03*
X94126D02*
D03*
X94322D02*
D03*
X92157Y76838D02*
D03*
X92354D02*
D03*
X92551D02*
D03*
X92748D02*
D03*
X92944D02*
D03*
X93141D02*
D03*
X93338D02*
D03*
X93535D02*
D03*
X93732D02*
D03*
X93929D02*
D03*
X94126D02*
D03*
X94322D02*
D03*
X94716D02*
D03*
X94913D02*
D03*
X95110D02*
D03*
X92354Y72271D02*
D03*
X92157D02*
D03*
X93535D02*
D03*
X92551D02*
D03*
X94519Y76838D02*
D03*
X95110Y72271D02*
D03*
X94913D02*
D03*
X94716D02*
D03*
X94519D02*
D03*
X96148Y64367D02*
D03*
X96345D02*
D03*
X96542D02*
D03*
X100085D02*
D03*
X99888D02*
D03*
X94376D02*
D03*
X94180D02*
D03*
X100676Y55705D02*
D03*
X99888D02*
D03*
X100085D02*
D03*
X93786D02*
D03*
X94180D02*
D03*
X93786Y64367D02*
D03*
X93983D02*
D03*
X95557D02*
D03*
X96739D02*
D03*
X96935D02*
D03*
X97132D02*
D03*
X97329D02*
D03*
X97526D02*
D03*
X97723D02*
D03*
X98707D02*
D03*
X100479D02*
D03*
Y55705D02*
D03*
X100282D02*
D03*
X98510D02*
D03*
X97329D02*
D03*
X96935D02*
D03*
X96739D02*
D03*
X95361D02*
D03*
X93983D02*
D03*
X100676Y64367D02*
D03*
X100282D02*
D03*
X94376Y55705D02*
D03*
X94573D02*
D03*
X94770D02*
D03*
X94967D02*
D03*
X95164D02*
D03*
X95557D02*
D03*
X95754D02*
D03*
X95951D02*
D03*
X96148D02*
D03*
X96345D02*
D03*
X96542D02*
D03*
X97132D02*
D03*
X97526D02*
D03*
X97723D02*
D03*
X97920D02*
D03*
X98117D02*
D03*
X98313D02*
D03*
X98707D02*
D03*
X98904D02*
D03*
X99101D02*
D03*
X99298D02*
D03*
X99494D02*
D03*
X99691Y64367D02*
D03*
X99298D02*
D03*
X99494D02*
D03*
X94573D02*
D03*
X94770D02*
D03*
X95951D02*
D03*
X95754D02*
D03*
X95361D02*
D03*
X95164D02*
D03*
X94967D02*
D03*
X97920D02*
D03*
X98117D02*
D03*
X98904D02*
D03*
X99101D02*
D03*
X98510D02*
D03*
X98313D02*
D03*
X99691Y55705D02*
D03*
D18*
X91350Y75046D02*
D03*
X92900Y60331D02*
D03*
D19*
X91350Y76031D02*
D03*
X92900Y63481D02*
D03*
D20*
X64700Y107731D02*
D03*
Y106831D02*
D03*
X82450Y64231D02*
D03*
Y63331D02*
D03*
X83650Y108231D02*
D03*
Y109331D02*
D03*
X98800Y83831D02*
D03*
Y82731D02*
D03*
X92850Y65731D02*
D03*
Y66831D02*
D03*
X86150Y71081D02*
D03*
Y72181D02*
D03*
D21*
X64700Y108881D02*
D03*
Y109881D02*
D03*
X88350Y109331D02*
D03*
Y108331D02*
D03*
X86350D02*
D03*
Y109331D02*
D03*
X87350Y108331D02*
D03*
Y109331D02*
D03*
X85350Y108331D02*
D03*
Y109331D02*
D03*
D22*
X59733Y106831D02*
D03*
X62450D02*
D03*
X71100Y79681D02*
D03*
X68383D02*
D03*
X68683Y61731D02*
D03*
X71400D02*
D03*
D23*
X74050Y96781D02*
D03*
X72700D02*
D03*
X69100Y82431D02*
D03*
X70450D02*
D03*
X69350Y64381D02*
D03*
X70700D02*
D03*
D24*
X66250Y78381D02*
D03*
Y80231D02*
D03*
X74350Y56681D02*
D03*
X65850D02*
D03*
Y54831D02*
D03*
X74350D02*
D03*
X66950Y60881D02*
D03*
Y59031D02*
D03*
X98123Y103970D02*
D03*
Y105820D02*
D03*
D25*
X102150Y67231D02*
D03*
Y66552D02*
D03*
Y65872D02*
D03*
X100750D02*
D03*
Y66552D02*
D03*
Y67231D02*
D03*
X101450D02*
D03*
Y66552D02*
D03*
Y65872D02*
D03*
D26*
X79292Y71981D02*
D03*
X77008D02*
D03*
D27*
X116800Y47131D02*
D03*
X158200Y106131D02*
D03*
X36000Y105081D02*
D03*
D28*
X83100Y61481D02*
D03*
X80895D02*
D03*
D29*
X83550Y67935D02*
D03*
Y65731D02*
D03*
D30*
X86754Y60981D02*
D03*
Y62981D02*
D03*
X85100Y60981D02*
D03*
Y62981D02*
D03*
D31*
X79021Y65984D02*
D03*
Y65728D02*
D03*
Y65472D02*
D03*
Y65216D02*
D03*
Y64960D02*
D03*
Y64704D02*
D03*
Y64448D02*
D03*
Y64193D02*
D03*
Y63937D02*
D03*
Y63681D02*
D03*
X81600Y65984D02*
D03*
Y64960D02*
D03*
Y64704D02*
D03*
Y64448D02*
D03*
Y64193D02*
D03*
Y63937D02*
D03*
Y65216D02*
D03*
Y65728D02*
D03*
Y65472D02*
D03*
D32*
Y63681D02*
D03*
D33*
X80311Y64832D02*
D03*
D34*
X77150Y53381D02*
D03*
X75300D02*
D03*
X69200Y59031D02*
D03*
X71050D02*
D03*
Y48531D02*
D03*
X69200D02*
D03*
X71050Y57381D02*
D03*
X69200D02*
D03*
D35*
X80750Y71981D02*
D03*
Y74381D02*
D03*
D36*
X100848Y70454D02*
D03*
X100474Y69431D02*
D03*
X100848D02*
D03*
X100100Y70454D02*
D03*
Y69431D02*
D03*
D37*
X91121Y80081D02*
D03*
X93050D02*
D03*
M02*
