%FSLAX24Y24*%
%MOIN*%
G70*
G01*
G75*
%ADD10C,0.0110*%
%ADD11C,0.0380*%
%ADD12C,0.0100*%
%ADD13R,0.0380X0.0380*%
%ADD14R,0.0600X0.0500*%
%ADD15R,0.0600X0.0600*%
%ADD16O,0.0630X0.0110*%
%ADD17O,0.0110X0.0630*%
%ADD18O,0.0630X0.0110*%
%ADD19R,0.0630X0.0110*%
%ADD20R,0.0500X0.0600*%
%ADD21R,0.0500X0.0650*%
%ADD22R,0.1614X0.0827*%
%ADD23R,0.0600X0.1000*%
%ADD24R,0.1250X0.0600*%
%ADD25R,0.0380X0.0425*%
%ADD26R,0.0709X0.1575*%
%ADD27C,0.0400*%
%ADD28R,0.1378X0.0709*%
%ADD29R,0.0709X0.1378*%
%ADD30R,0.0800X0.0800*%
%ADD31O,0.0846X0.0138*%
%ADD32R,0.0846X0.0138*%
%ADD33R,0.1181X0.1575*%
%ADD34R,0.0600X0.1250*%
%ADD35R,0.0900X0.1200*%
%ADD36R,0.0236X0.0433*%
%ADD37R,0.0906X0.0945*%
%ADD38C,0.0600*%
%ADD39C,0.0400*%
%ADD40C,0.0110*%
%ADD41C,0.0250*%
%ADD42C,0.0500*%
%ADD43C,0.0200*%
%ADD44C,0.0150*%
%ADD45C,0.0300*%
%ADD46C,0.0120*%
%ADD47C,0.1000*%
%ADD48C,0.0370*%
%ADD49C,0.0130*%
%ADD50C,0.0390*%
%ADD51C,0.0290*%
%ADD52C,0.0140*%
%ADD53C,0.0180*%
%ADD54C,0.0800*%
%ADD55R,0.5050X0.4500*%
%ADD56R,0.5050X0.4550*%
%ADD57R,0.5200X0.4550*%
%ADD58R,0.5050X0.9550*%
%ADD59C,0.0620*%
%ADD60C,0.0500*%
%ADD61C,0.0600*%
%ADD62C,0.1181*%
%ADD63P,0.1181X8X0*%
%ADD64C,0.0650*%
%ADD65C,0.2600*%
%ADD66C,0.0945*%
%ADD67C,0.0787*%
%ADD68C,0.0906*%
%ADD69P,0.0620X8X0*%
%ADD70C,0.1575*%
%ADD71C,0.0450*%
%ADD72C,0.0080*%
%ADD73C,0.0098*%
%ADD74C,0.0060*%
%ADD75C,0.0079*%
%ADD76C,0.0090*%
%ADD77C,0.0160*%
%ADD78R,0.0300X0.0500*%
%ADD79R,0.1500X0.0500*%
%ADD80R,0.0430X0.3100*%
%ADD81R,0.0130X0.0360*%
%ADD82C,0.0075*%
%ADD83C,0.0045*%
%ADD84C,0.0030*%
%ADD85R,0.0520X0.3010*%
%ADD86R,0.2970X0.0520*%
%ADD87R,0.0520X0.2970*%
%ADD88R,0.2960X0.0520*%
%ADD89R,0.0520X0.6940*%
%ADD90R,0.6930X0.0530*%
%ADD91R,0.0520X0.6930*%
%ADD92R,0.1300X0.1300*%
%ADD93R,0.2026X0.1063*%
%ADD94R,0.1675X3.5550*%
%ADD95R,0.1850X3.5600*%
%ADD96R,0.0450X0.0150*%
%ADD97R,0.0090X0.0150*%
%ADD98R,0.0129X0.0930*%
%ADD99R,0.0039X0.0108*%
%ADD100R,0.0460X0.0460*%
%ADD101R,0.0680X0.0580*%
%ADD102R,0.0680X0.0680*%
%ADD103O,0.0710X0.0190*%
%ADD104O,0.0190X0.0710*%
%ADD105O,0.0710X0.0190*%
%ADD106R,0.0710X0.0190*%
%ADD107R,0.0580X0.0680*%
%ADD108R,0.0580X0.0730*%
%ADD109R,0.1694X0.0907*%
%ADD110R,0.0680X0.1080*%
%ADD111R,0.1330X0.0680*%
%ADD112R,0.0460X0.0505*%
%ADD113R,0.0789X0.1655*%
%ADD114C,0.0800*%
%ADD115R,0.1458X0.0789*%
%ADD116R,0.0789X0.1458*%
%ADD117R,0.0880X0.0880*%
%ADD118O,0.0926X0.0218*%
%ADD119R,0.0926X0.0218*%
%ADD120R,0.1261X0.1655*%
%ADD121R,0.0680X0.1330*%
%ADD122R,0.0980X0.1280*%
%ADD123R,0.0316X0.0513*%
%ADD124R,0.0986X0.1025*%
%ADD125C,0.0700*%
%ADD126C,0.0580*%
%ADD127C,0.0680*%
%ADD128C,0.1261*%
%ADD129P,0.1261X8X0*%
%ADD130C,0.0730*%
%ADD131C,0.2680*%
%ADD132C,0.1025*%
%ADD133C,0.0080*%
%ADD134C,0.0867*%
%ADD135C,0.0986*%
%ADD136P,0.0700X8X0*%
%ADD137C,0.1655*%
%ADD138C,0.0480*%
%ADD139C,0.0530*%
D12*
X165550Y41981D02*
X165648Y41986D01*
X165745Y42000D01*
X165840Y42024D01*
X165933Y42057D01*
X166021Y42099D01*
X166106Y42149D01*
X166184Y42208D01*
X166257Y42274D01*
X166323Y42346D01*
X166381Y42425D01*
X166432Y42509D01*
X166474Y42598D01*
X166507Y42690D01*
X166531Y42786D01*
X166545Y42883D01*
X166550Y42981D01*
X31350D02*
X31355Y42883D01*
X31369Y42786D01*
X31393Y42690D01*
X31426Y42598D01*
X31468Y42509D01*
X31519Y42425D01*
X31577Y42346D01*
X31643Y42274D01*
X31716Y42208D01*
X31794Y42149D01*
X31879Y42099D01*
X31967Y42057D01*
X32060Y42024D01*
X32155Y42000D01*
X32252Y41986D01*
X32350Y41981D01*
X165550D01*
X31350Y112031D02*
X166550D01*
X31350Y42981D02*
Y112031D01*
X166550Y42981D02*
Y112031D01*
D93*
X37267Y48467D02*
D03*
D94*
X165713Y81406D02*
D03*
D95*
X32275Y81381D02*
D03*
D125*
X98800Y75781D02*
D03*
Y74781D02*
D03*
X99200Y73081D02*
D03*
X98200D02*
D03*
X106550Y50931D02*
D03*
X105550D02*
D03*
X101150Y82731D02*
D03*
X102150D02*
D03*
X101150Y81731D02*
D03*
X102150D02*
D03*
X101150Y80731D02*
D03*
X102150D02*
D03*
X101150Y79731D02*
D03*
X102150D02*
D03*
X101150Y78731D02*
D03*
X102150D02*
D03*
Y77731D02*
D03*
X101150Y76731D02*
D03*
X102150D02*
D03*
X101150Y75731D02*
D03*
X102150D02*
D03*
X101150Y74731D02*
D03*
X102150D02*
D03*
X101150Y73731D02*
D03*
X102150D02*
D03*
X84300Y71081D02*
D03*
X83300D02*
D03*
X84300Y72081D02*
D03*
X83300D02*
D03*
X84300Y73081D02*
D03*
X83300D02*
D03*
X84300Y74081D02*
D03*
X83300D02*
D03*
X84300Y75081D02*
D03*
X83300D02*
D03*
X84300Y76081D02*
D03*
X83300D02*
D03*
X84300Y77081D02*
D03*
X83300D02*
D03*
X84300Y78081D02*
D03*
X83300D02*
D03*
X84300Y79081D02*
D03*
X83300D02*
D03*
X84300Y80081D02*
D03*
X83300D02*
D03*
X124800Y49231D02*
D03*
Y50231D02*
D03*
X125800Y49231D02*
D03*
Y50231D02*
D03*
X126800Y49231D02*
D03*
Y50231D02*
D03*
X127800Y49231D02*
D03*
Y50231D02*
D03*
X128800Y49231D02*
D03*
Y50231D02*
D03*
X129800Y49231D02*
D03*
Y50231D02*
D03*
X130800Y49231D02*
D03*
X132800D02*
D03*
X133800Y50231D02*
D03*
X78000Y74381D02*
D03*
Y75381D02*
D03*
X89550Y65481D02*
D03*
X111100Y50931D02*
D03*
X112100D02*
D03*
X101150Y77731D02*
D03*
Y96881D02*
D03*
X102150D02*
D03*
X101150Y95881D02*
D03*
X102150D02*
D03*
X101150Y94881D02*
D03*
X102150D02*
D03*
X101150Y93881D02*
D03*
X102150D02*
D03*
X101150Y89881D02*
D03*
X102150D02*
D03*
X101150Y88881D02*
D03*
X102150D02*
D03*
X101150Y87881D02*
D03*
X102150D02*
D03*
X101150Y86881D02*
D03*
X102150D02*
D03*
X131800Y49231D02*
D03*
X133800D02*
D03*
X130800Y50231D02*
D03*
X131800D02*
D03*
X132800D02*
D03*
X105550Y49931D02*
D03*
X93647Y106120D02*
D03*
X94631Y106908D02*
D03*
Y106120D02*
D03*
X93647Y106908D02*
D03*
X77000Y74381D02*
D03*
Y75381D02*
D03*
D126*
X81450Y43031D02*
D03*
X116450D02*
D03*
X81450Y109281D02*
D03*
X164450D02*
D03*
X68450D02*
D03*
X33450D02*
D03*
X129450Y43031D02*
D03*
X164450D02*
D03*
X66900Y43051D02*
D03*
X33450Y43031D02*
D03*
X63450Y108481D02*
D03*
X103450Y47181D02*
D03*
X109450D02*
D03*
X96800D02*
D03*
X108800D02*
D03*
X108150D02*
D03*
X112500D02*
D03*
X32700Y97781D02*
D03*
Y96281D02*
D03*
Y94781D02*
D03*
Y93281D02*
D03*
Y91781D02*
D03*
Y90281D02*
D03*
Y88781D02*
D03*
Y87281D02*
D03*
Y85781D02*
D03*
Y84281D02*
D03*
Y82781D02*
D03*
Y81281D02*
D03*
Y79781D02*
D03*
Y78281D02*
D03*
Y76781D02*
D03*
Y75281D02*
D03*
Y73781D02*
D03*
Y72281D02*
D03*
Y70781D02*
D03*
Y69281D02*
D03*
Y67781D02*
D03*
Y66281D02*
D03*
Y64781D02*
D03*
X165200Y97781D02*
D03*
Y96281D02*
D03*
Y94781D02*
D03*
Y93281D02*
D03*
Y91781D02*
D03*
Y90281D02*
D03*
Y88781D02*
D03*
Y87281D02*
D03*
Y85781D02*
D03*
Y84281D02*
D03*
Y82781D02*
D03*
Y81281D02*
D03*
Y79781D02*
D03*
Y78281D02*
D03*
Y76781D02*
D03*
Y75281D02*
D03*
Y73781D02*
D03*
Y72281D02*
D03*
Y70781D02*
D03*
Y69281D02*
D03*
Y67781D02*
D03*
Y66281D02*
D03*
Y64781D02*
D03*
X69200Y47381D02*
D03*
X89450Y47181D02*
D03*
X88800D02*
D03*
X88150D02*
D03*
X86150D02*
D03*
X90150D02*
D03*
X90800D02*
D03*
X91450D02*
D03*
X95450D02*
D03*
X94800D02*
D03*
X94150D02*
D03*
X93450D02*
D03*
X92800D02*
D03*
X92150D02*
D03*
X96150D02*
D03*
X97450D02*
D03*
X98800D02*
D03*
X99450D02*
D03*
X100150D02*
D03*
X100800D02*
D03*
X102150D02*
D03*
X102800D02*
D03*
X104150D02*
D03*
X104800D02*
D03*
X105450D02*
D03*
X86800D02*
D03*
X87450D02*
D03*
X90350Y78281D02*
D03*
D127*
X91450Y45031D02*
D03*
X93450D02*
D03*
X91450Y46031D02*
D03*
X93450D02*
D03*
X95450Y45031D02*
D03*
Y46031D02*
D03*
X97450D02*
D03*
X99450D02*
D03*
X101450D02*
D03*
X103450D02*
D03*
X99450Y45031D02*
D03*
X101450D02*
D03*
X103450D02*
D03*
X105450D02*
D03*
X107450D02*
D03*
X105450Y46031D02*
D03*
X107450D02*
D03*
X111450D02*
D03*
Y45031D02*
D03*
X113450Y46031D02*
D03*
Y45031D02*
D03*
X87450Y46031D02*
D03*
X89450D02*
D03*
Y45031D02*
D03*
X87450D02*
D03*
X85450Y46031D02*
D03*
Y45031D02*
D03*
X83450Y46031D02*
D03*
Y45031D02*
D03*
Y44031D02*
D03*
X85450D02*
D03*
X87450D02*
D03*
X89450D02*
D03*
X91450D02*
D03*
X93450D02*
D03*
X95450D02*
D03*
X97450D02*
D03*
X99450D02*
D03*
X101450D02*
D03*
X103450D02*
D03*
X105450D02*
D03*
X107450D02*
D03*
X111450D02*
D03*
X113450D02*
D03*
X109450D02*
D03*
Y45031D02*
D03*
X97450D02*
D03*
X109450Y46031D02*
D03*
D128*
X60247Y110431D02*
D03*
X66050Y85331D02*
D03*
X69050D02*
D03*
X71050D02*
D03*
X74050Y93331D02*
D03*
X66050D02*
D03*
X70050D02*
D03*
X66050Y66731D02*
D03*
X69050D02*
D03*
X71050D02*
D03*
X74050Y74731D02*
D03*
X66050D02*
D03*
X70050D02*
D03*
D129*
X61853Y110431D02*
D03*
D130*
X86050Y66781D02*
D03*
X80700Y51681D02*
D03*
X79450Y78531D02*
D03*
D131*
X106120Y110011D02*
D03*
X162180D02*
D03*
Y53951D02*
D03*
X106120D02*
D03*
D132*
X68131Y50028D02*
D03*
X72069D02*
D03*
X68131Y55933D02*
D03*
X72069D02*
D03*
D133*
X85350Y110331D02*
D03*
X88350D02*
D03*
D134*
X99914Y108732D02*
D03*
X101686D02*
D03*
D135*
X102178Y107748D02*
D03*
X99422D02*
D03*
D136*
X88550Y65481D02*
D03*
X110100Y50931D02*
D03*
D137*
X91769Y107975D02*
D03*
X96509D02*
D03*
D138*
X105350Y110781D02*
D03*
X106890Y109241D02*
D03*
Y110781D02*
D03*
X105020Y110011D02*
D03*
X106120Y111111D02*
D03*
X107220Y110011D02*
D03*
X106120Y108911D02*
D03*
X105350Y109241D02*
D03*
X161410Y110781D02*
D03*
X162950Y109241D02*
D03*
Y110781D02*
D03*
X161080Y110011D02*
D03*
X162180Y111111D02*
D03*
X163280Y110011D02*
D03*
X162180Y108911D02*
D03*
X161410Y109241D02*
D03*
Y54721D02*
D03*
X162950Y53181D02*
D03*
Y54721D02*
D03*
X161080Y53951D02*
D03*
X162180Y55051D02*
D03*
X163280Y53951D02*
D03*
X162180Y52851D02*
D03*
X161410Y53181D02*
D03*
X105350Y54721D02*
D03*
X106890Y53181D02*
D03*
Y54721D02*
D03*
X105020Y53951D02*
D03*
X106120Y55051D02*
D03*
X107220Y53951D02*
D03*
X106120Y52851D02*
D03*
X105350Y53181D02*
D03*
D139*
X86300Y82081D02*
D03*
X86900D02*
D03*
X87500D02*
D03*
X88100D02*
D03*
M02*
