M72
M48
T1F00S00C0.0197
T2F00S00C0.0276
T3F00S00C0.0350
T4F00S00C0.0370
T5F00S00C0.0394
T6F00S00C0.0472
T7F00S00C0.0512
T8F00S00C0.0591
T9F00S00C0.0906
T10F00S00C0.1100
T11F00S00C0.1378
T12F00S00C0.0591
%
T01
X5750Y3550
X9750
X3520Y6400
X13750Y3550
X17750
X21750
X25750
X29750
X33750
X37750
X41750
X40250Y6150
Y6600
X46240Y3900
X48750Y4400
X48600Y6240
X50720Y6550
X52050Y6600
X53520Y6250
X51000Y4320
X48450Y2480
X46640Y1050
X75200Y6150
X80080Y6400
X82080Y6450
X86200
X90200Y5350
X88410Y2850
X87520Y1150
X92410Y2850
X96410
X100410
X100000Y5750
X104410Y2850
X108410
X112410
X116410
X120410
X124410
X128410
X129950Y4320
X131440Y5750
X131600Y11200
X131930Y11970
X131600Y12740
X130830Y13070
X130060Y12740
X129730Y11970
X130060Y11200
X130830Y10870
X130950Y15360
X128400Y15520
X124400
X131440Y17750
Y21750
X120400Y15520
X116400
X112400
X108400
X104400
X100400
X98550Y14160
X97950Y12880
X96950Y12400
X95440Y12450
X94650Y11950
X94050Y11450
X93450Y10950
X92850Y10450
X92080Y9700
X92400Y15520
X96400
X100950Y11920
X99950Y8880
X102950Y8900
X103400Y7250
X89950Y9000
X86550
X83400
X77900Y8500
X77800Y9600
X76000Y8450
X77350Y6900
X75540Y11200
X75870Y11970
X75540Y12740
X76700Y14200
X78100Y14550
X78800Y14950
X79550Y15300
X80300Y15650
X81100Y16000
X78650Y16800
X78100Y17150
X78000Y17850
X77550Y16800
X76600Y17600
X76050Y18750
X75100Y19100
X75200Y16800
X78150Y13400
X79300Y13350
Y12250
X78700
X79760Y19900
X84400Y15520
X88400
X74770Y13070
X74000Y12740
X73670Y11970
X74000Y11200
X74770Y10870
X71900Y11350
X71360Y10700
X70000Y10100
X70050Y9150
X72400Y9750
X72550Y8400
X73050Y7450
X72950Y14400
X72050Y14300
X70150Y13950
X69550Y14700
X69535Y16185
X68300Y16100
X68400Y17750
X69450Y17850
X71000Y17750
Y18350
Y19350
Y20900
X71500Y21400
Y22050
X72200Y21950
X72550Y19350
Y18350
Y17750
X72600Y16400
X70950
X73600Y17200
X74650Y19750
X74150Y20400
X69450Y19500
X68700Y20560
X69129Y21729
X67357Y21707
X65550Y21700
X64250Y21650
X63500Y21500
X63850Y21100
X62500Y21700
X62210Y20080
X60800Y19900
Y19100
Y18350
Y16950
X62224Y16776
X62240Y16000
X62750Y17100
X64150Y16850
X64011Y14389
X62950Y14500
X65389Y14411
X67160Y14390
X65800Y12500
X65250
Y10900
X65800
X65550Y9450
X65840Y8350
X60500Y8800
X61360Y9700
X60320Y11970
X59800Y13400
X59700Y14100
X60650Y14250
X60950Y13400
X61760Y13150
X60900Y15300
X62250Y18380
X63100Y18400
X64650Y19450
X65800
X65850Y20350
X67600Y19440
X60750Y21150
X60100Y21100
X69950Y12450
X70700Y12250
X56280Y13080
X56270Y10880
X54250Y12600
X52350Y12900
Y11100
Y9300
X49750
Y10100
X48950
Y9300
X45490Y9330
X45450Y7090
X46270Y10900
Y11400
Y11900
X45450Y13250
Y15150
X45500Y16950
Y17650
Y18350
Y19050
Y19750
Y20450
Y21150
Y21850
X46200
Y21150
Y20450
Y19750
Y19050
Y18350
Y17650
X46900
X47600
X48300
X49000
X49700
X50400
X51100
Y16950
X50400
X49700
X49000
X48300
X47600
X46900
X46200
X46900Y18350
X47600
X48300
X47600Y19050
Y19750
Y20450
Y21150
X48300
X49000
X49700
X50400
X48300Y20450
X46900
Y19750
Y19050
Y21150
Y21850
X53350Y20050
X54600Y20850
X56700Y20400
X56250Y19750
X59200Y19900
Y19100
Y18350
Y16950
X57870Y15640
X57300Y15200
X56040Y15470
X54150Y16050
X53550Y17150
X52500Y16950
X51800
Y17650
X52500
X54500Y18050
X54150Y7950
X40250Y7050
X40650Y11280
X36650
X32650
X32630Y13950
X28630
X28650Y11280
X29680Y16650
Y20650
X32450Y22480
X32480Y18750
X40950Y17350
X41650
Y16650
X40950
X24630Y13950
X24650Y11280
X20650
X20630Y13950
X16630
X16650Y11280
X12650
X12630Y13950
X8630
X8650Y11280
X4650
X4630Y13950
X3840Y14900
X2950Y12480
X3520Y9700
X3680Y18700
X3520Y22400
Y26400
Y30400
Y34400
X29680Y32650
Y36650
X33000Y34900
X35050
X37500Y34750
X41350Y34250
Y35650
Y37600
X42050
X41120Y29000
X36850Y29200
X33350Y30100
X33390Y27320
X32750Y25800
X29680Y24650
Y28650
X33350Y33050
X46100Y34850
X47700Y36150
Y36950
X48500
Y36150
X50250Y35200
X54450Y36400
X55920Y35150
X57300Y35850
X57350Y37050
X58960Y37750
X58950Y35650
X58600Y34500
X59300Y33700
X59100Y33050
Y32450
Y31850
X57550
Y32450
Y33050
X57350Y34100
X55900Y32600
X57950Y30000
X58850Y30450
Y29500
X58950Y28100
X57500Y28700
X57440Y26650
X55850Y27120
X54550Y28350
X54300Y25200
X55100
Y24400
X54300
X53100Y24350
X53000Y22550
X50400Y24650
Y25350
X49700
X49000
X48300
X47600
Y24650
X48300
X49000
X49700
Y26050
Y26750
X50400
Y26050
X49000
Y26750
X48300
X47600
Y26050
X48300
X46900
X46200
X45500
Y26750
X46200
X46900
Y25350
X46200
X45500
Y24650
Y23950
Y23250
Y22550
X46200
Y23250
Y23950
Y24650
X46900
Y23950
Y23250
Y22550
X45500Y28250
X46810Y29900
X49000Y28850
X49400Y28450
X49800Y28850
Y28050
X49000
X56600Y25200
X56560Y24100
X57800Y22640
X58350Y25250
X46000Y37820
X60850Y38080
X61800Y37100
X62600Y37600
X63450Y36650
X64000Y36300
X65150Y36500
X65200Y35400
X64650
X65440Y34500
X65450Y32850
X66000Y31400
X67350Y31600
X68900Y31360
X69200Y30350
X70960Y30600
X71760Y29000
X70000Y29100
X70050Y27600
X70100Y25700
X70750Y25840
X71250Y25250
X72350Y24100
X73100Y23350
X73900Y23200
X70850Y23350
X70080Y23000
X69350Y23350
X68120Y23020
X67990Y24080
X66200Y24750
X65600
X65650Y25400
X66150Y25900
X65300Y27300
X64400Y28200
X64100Y29450
X65000
X64950Y30650
X63950Y31600
X62650Y31650
X61550Y31450
X61050
Y31950
X61000Y33000
X60650Y33550
X61400Y34150
X62200Y34000
X63300Y33950
X62750Y35500
X61800
X66300Y36000
X66750Y37100
Y38100
X65150Y37950
X69150Y37280
X68900Y35650
X68400Y34250
X68100Y33120
X66950Y34750
X67400Y29840
X66300Y29750
X66550Y28350
X68100Y29100
X68350Y26650
X69050Y26250
X72800Y27150
X66350Y23150
X65600
X62250Y23250
X61760Y22700
X60900Y23750
X59840Y24100
X59760Y25250
X60950Y25950
X61030Y27940
X62350Y27900
X62200Y29600
X61000Y29650
X59700Y28650
Y22500
X62250Y24850
X77850Y23770
Y27770
Y31770
Y35770
X131440Y37750
Y33750
Y29750
Y25750
Y41750
Y45750
Y49750
X77850Y47770
Y51770
Y43770
Y39770
X70640Y41700
X69100
X67450Y42500
X67650Y44010
X64450Y44730
X62800
Y48730
X64450
X67600Y48240
Y51400
X70300Y49770
X73450Y47400
X71700Y42960
X69100Y38240
X66800Y39150
X65750Y39200
X64450Y39250
X63900Y38700
X63300Y39000
X62300Y38960
X61450Y39920
X59920Y39950
X60650Y38700
X62800Y40730
X64250Y40700
X64450Y52730
X62800
X58100Y50010
X54450Y50000
X52640
Y46000
Y42000
X54450
X54950Y40100
X55550
X56150
X56750
X57400Y39750
X58240Y38600
X58100Y42010
Y46010
X53850Y39600
X51650Y40000
X50200Y38550
X46000Y41820
Y45820
Y49820
X40850Y47680
X36000Y47600
X32700Y44250
X29680Y44650
Y48650
Y52650
X38050Y52800
X37400Y53450
X40650Y53550
X41900
X41400Y52800
X41350Y38300
X42050
X29680Y40650
X3520Y42400
Y38400
Y46400
Y50400
Y54400
Y58400
X5120Y60050
X7600Y61850
X11600
X10600Y65920
X6600
X2600
X1280Y62300
X15600Y61850
X19600
X23600
X26200
X27640Y63350
X27600Y66050
X22600Y65920
X18600
X14600
X28550Y61920
X29500
X31750Y62000
X32560Y64100
X32480Y65550
X34600Y65920
X34550Y68720
X36850Y64240
X38600Y65920
X41850Y63520
X43280Y62100
X40450Y61840
X41800Y58640
X41900Y55150
X40650
X38050Y54100
X35600Y61850
X29680Y56650
X46000Y57820
Y60600
X47600Y61850
X50450Y61840
X53050
X54450
X57600Y61760
X57900Y63840
X58100Y58010
X54450Y58000
X52640
Y54000
X58100Y54010
X46000Y53820
X48700Y66000
X51600Y63650
Y68950
X61550Y67250
X64000
X64400Y61840
Y60720
X62800Y60730
Y61800
X61300Y61840
X59400
X66023Y60979
X67623Y60989
X67650Y60010
X68900Y61840
X70160Y61850
X70400Y63200
X73600Y63650
X73000Y61840
X74000Y67260
X73670Y68030
X74000Y68800
X74770Y69130
Y66930
X73520Y54650
X69650Y57280
X67650Y56010
X64450Y56730
X62800
X77850Y55770
Y59770
X76160Y61900
Y63550
X77500Y65920
X75540Y67260
X75870Y68030
X75540Y68800
X81500Y65920
X85500
X89500
X87600Y61850
X83600
X79600
X91600
X95600
X99600
X103600
X102150Y66050
X105500Y65920
X97500
X93500
X109500
X113500
X117500
X121500
X119600Y61850
X115600
X111600
X107600
X123600
X127600
X129920Y60050
X131440Y57750
Y53750
X132150Y61760
X133900Y64960
X131600Y67260
X131930Y68030
X131600Y68800
X130830Y69130
X130060Y68800
X129730Y68030
X130060Y67260
X130830Y66930
X129500Y65920
X125500
T02
X37300Y5400
X37850
X38400
X54800Y5200
X55450
X56100
X56800
X57450
X58100
X58800
X59450
X60100
X60800
X61450
X62100
X62800
X63450
X64100
X64800
X65450
X66100
X67450
X68100
X68800
X69450
X70800
X71450
X72100
X72800
X73450
X74100
X76800
X77450
X78100
X81150
X75650Y18000
X73200
X70900Y13400
X71100Y12650
X60850Y10650
X59800
X57900Y19650
Y21000
X55650Y20150
X54500Y19500
X52200Y18950
Y20200
X49545Y20214
X49545Y18786
X48500Y19500
X1350Y22800
Y24300
Y25800
Y27300
Y28800
Y30300
Y31800
Y33300
Y34800
Y36300
Y37800
X48400Y32400
X49400Y33400
X50400Y32400
X51500Y26500
Y25600
X52900
Y26500
X59000Y36300
X71550Y22750
X133850Y22800
Y24300
Y25800
Y27300
Y28800
Y30300
Y31800
Y33300
Y34800
Y36300
Y37800
Y39300
Y40800
Y42300
Y43800
Y45300
Y46800
Y48300
Y49800
Y51300
Y52800
X1350
Y51300
Y49800
Y48300
Y46800
Y45300
Y43800
Y42300
Y40800
Y39300
Y54300
Y55800
X32100Y66500
X133850Y55800
Y54300
T03
X93450Y7250
Y8250
X94450
Y7250
X95450
Y8250
X96450
Y7250
X97450
Y8250
X98450
Y7250
X99450
X100450
X101450
X102450
Y8250
X101450
X100450
X99450
X80750Y8950
X79750
X78750
X75200
X74200
Y7950
X49350Y9700
X54700Y24800
X57200Y23500
X58200
X52950Y29100
X51950
Y30100
X52950
Y31100
X51950
Y32100
X52950
Y33100
X51950
Y34100
X52950
Y35100
X51950
Y36100
X52950
Y37100
X51950
Y38100
X52950
X48100Y36550
X46650Y33400
X45650
Y32400
X46650
X67450Y32800
Y33800
X69800Y33750
Y34750
X70800
Y35750
Y36750
Y37750
X69800
Y36750
Y35750
X70800Y33750
Y32750
X69800
Y31750
X70800
X67850Y31100
X66850
X69800Y38750
Y39750
Y40750
X70800
Y39750
Y38750
Y44900
Y45900
Y46900
Y47900
X69800
Y46900
Y45900
Y44900
Y51900
Y52900
X70800
Y51900
Y53900
Y54900
X69800
Y53900
X63281Y64140
Y64927
X62297
Y64140
T04
X52100Y2050
Y3050
Y4050
X54100
Y3050
Y2050
X56100
Y3050
Y4050
X58100
Y3050
Y2050
X60100
Y3050
Y4050
X62100
Y3050
Y2050
X64100
Y3050
Y4050
X66100
Y3050
Y2050
X68100
Y3050
Y4050
X70100
Y3050
Y2050
X72100
Y3050
Y4050
X74100
Y3050
Y2050
X76100
Y3050
Y4050
X78100
Y3050
Y2050
X80100
Y3050
Y4050
X82100
Y3050
Y2050
T05
X68564Y66751
X70336
T06
X36781Y8047
X40718
Y13953
X36781
X37700Y24750
X39700
X34700
Y32750
X38700
X42700
X39700Y43350
X37700
X34700
Y51350
X38700
X42700
T07
X68072Y65767
X70828
T08
X28897Y68450
X30503
T09
X60419Y65994
X65159
T10
X2100Y1050
X35550Y1070
X50100Y1050
X85100
X98100
X133100
X2100Y67300
X37100
X50100
X133100
T11
X130830Y11970
X74770
Y68030
X130830
T12
X54000Y68350
X57000
M30
