%FSLAX24Y24*%
%MOIN*%
G70*
G01*
G75*
%ADD10C,0.0110*%
%ADD11C,0.0380*%
%ADD12C,0.0100*%
%ADD13R,0.0380X0.0380*%
%ADD14R,0.0600X0.0500*%
%ADD15R,0.0600X0.0600*%
%ADD16O,0.0630X0.0110*%
%ADD17O,0.0110X0.0630*%
%ADD18O,0.0630X0.0110*%
%ADD19R,0.0630X0.0110*%
%ADD20R,0.0500X0.0600*%
%ADD21R,0.0500X0.0650*%
%ADD22R,0.1614X0.0827*%
%ADD23R,0.0600X0.1000*%
%ADD24R,0.1250X0.0600*%
%ADD25R,0.0380X0.0425*%
%ADD26R,0.0709X0.1575*%
%ADD27C,0.0400*%
%ADD28R,0.1378X0.0709*%
%ADD29R,0.0709X0.1378*%
%ADD30R,0.0800X0.0800*%
%ADD31O,0.0846X0.0138*%
%ADD32R,0.0846X0.0138*%
%ADD33R,0.1181X0.1575*%
%ADD34R,0.0600X0.1250*%
%ADD35R,0.0900X0.1200*%
%ADD36R,0.0236X0.0433*%
%ADD37R,0.0906X0.0945*%
%ADD38C,0.0600*%
%ADD39C,0.0400*%
%ADD40C,0.0110*%
%ADD41C,0.0250*%
%ADD42C,0.0500*%
%ADD43C,0.0200*%
%ADD44C,0.0150*%
%ADD45C,0.0300*%
%ADD46C,0.0120*%
%ADD47C,0.1000*%
%ADD48C,0.0370*%
%ADD49C,0.0130*%
%ADD50C,0.0390*%
%ADD51C,0.0290*%
%ADD52C,0.0140*%
%ADD53C,0.0180*%
%ADD54C,0.0800*%
%ADD55R,0.5050X0.4500*%
%ADD56R,0.5050X0.4550*%
%ADD57R,0.5200X0.4550*%
%ADD58R,0.5050X0.9550*%
%ADD59C,0.0620*%
%ADD60C,0.0500*%
%ADD61C,0.0600*%
%ADD62C,0.1181*%
%ADD63P,0.1181X8X0*%
%ADD64C,0.0650*%
%ADD65C,0.2600*%
%ADD66C,0.0945*%
%ADD67C,0.0787*%
%ADD68C,0.0906*%
%ADD69P,0.0620X8X0*%
%ADD70C,0.1575*%
%ADD71C,0.0450*%
%ADD72C,0.0080*%
%ADD73C,0.0098*%
%ADD74C,0.0060*%
%ADD75C,0.0079*%
%ADD76C,0.0090*%
%ADD77C,0.0160*%
%ADD78R,0.0300X0.0500*%
%ADD79R,0.1500X0.0500*%
%ADD80R,0.0430X0.3100*%
%ADD81R,0.0130X0.0360*%
D12*
X165550Y41981D02*
X165648Y41986D01*
X165745Y42000D01*
X165840Y42024D01*
X165933Y42057D01*
X166021Y42099D01*
X166106Y42149D01*
X166184Y42208D01*
X166257Y42274D01*
X166323Y42346D01*
X166381Y42425D01*
X166432Y42509D01*
X166474Y42598D01*
X166507Y42690D01*
X166531Y42786D01*
X166545Y42883D01*
X166550Y42981D01*
X31350D02*
X31355Y42883D01*
X31369Y42786D01*
X31393Y42690D01*
X31426Y42598D01*
X31468Y42509D01*
X31519Y42425D01*
X31577Y42346D01*
X31643Y42274D01*
X31716Y42208D01*
X31794Y42149D01*
X31879Y42099D01*
X31967Y42057D01*
X32060Y42024D01*
X32155Y42000D01*
X32252Y41986D01*
X32350Y41981D01*
X165550D01*
X31350Y112031D02*
X166550D01*
X31350Y42981D02*
Y112031D01*
X166550Y42981D02*
Y112031D01*
M02*
