%FSLAX24Y24*%
%MOIN*%
G70*
G01*
G75*
%ADD10C,0.0110*%
%ADD11C,0.0380*%
%ADD12C,0.0100*%
%ADD13R,0.0380X0.0380*%
%ADD14R,0.0600X0.0500*%
%ADD15R,0.0600X0.0600*%
%ADD16O,0.0630X0.0110*%
%ADD17O,0.0110X0.0630*%
%ADD18O,0.0630X0.0110*%
%ADD19R,0.0630X0.0110*%
%ADD20R,0.0500X0.0600*%
%ADD21R,0.0500X0.0650*%
%ADD22R,0.1614X0.0827*%
%ADD23R,0.0600X0.1000*%
%ADD24R,0.1250X0.0600*%
%ADD25R,0.0380X0.0425*%
%ADD26R,0.0709X0.1575*%
%ADD27C,0.0400*%
%ADD28R,0.1378X0.0709*%
%ADD29R,0.0709X0.1378*%
%ADD30R,0.0800X0.0800*%
%ADD31O,0.0846X0.0138*%
%ADD32R,0.0846X0.0138*%
%ADD33R,0.1181X0.1575*%
%ADD34R,0.0600X0.1250*%
%ADD35R,0.0900X0.1200*%
%ADD36R,0.0236X0.0433*%
%ADD37R,0.0906X0.0945*%
%ADD38C,0.0600*%
%ADD39C,0.0400*%
%ADD40C,0.0110*%
%ADD41C,0.0250*%
%ADD42C,0.0500*%
%ADD43C,0.0200*%
%ADD44C,0.0150*%
%ADD45C,0.0300*%
%ADD46C,0.0120*%
%ADD47C,0.1000*%
%ADD48C,0.0370*%
%ADD49C,0.0130*%
%ADD50C,0.0390*%
%ADD51C,0.0290*%
%ADD52C,0.0140*%
%ADD53C,0.0180*%
%ADD54C,0.0800*%
%ADD55R,0.5050X0.4500*%
%ADD56R,0.5050X0.4550*%
%ADD57R,0.5200X0.4550*%
%ADD58R,0.5050X0.9550*%
%ADD59C,0.0620*%
%ADD60C,0.0500*%
%ADD61C,0.0600*%
%ADD62C,0.1181*%
%ADD63P,0.1181X8X0*%
%ADD64C,0.0650*%
%ADD65C,0.2600*%
%ADD66C,0.0945*%
%ADD67C,0.0787*%
%ADD68C,0.0906*%
%ADD69P,0.0620X8X0*%
%ADD70C,0.1575*%
%ADD71C,0.0450*%
%ADD72C,0.0080*%
%ADD73C,0.0098*%
%ADD74C,0.0060*%
%ADD75C,0.0079*%
%ADD76C,0.0090*%
%ADD77C,0.0160*%
%ADD78R,0.0300X0.0500*%
%ADD79R,0.1500X0.0500*%
%ADD80R,0.0430X0.3100*%
%ADD81R,0.0130X0.0360*%
D12*
X92384Y75834D02*
X92309Y75877D01*
Y75791D01*
X92384Y75834D01*
X152580Y78036D02*
X152573Y78135D01*
X152555Y78232D01*
X152524Y78326D01*
X152482Y78415D01*
X152429Y78499D01*
X152366Y78575D01*
X152294Y78643D01*
X152214Y78701D01*
X152127Y78749D01*
X152036Y78785D01*
X151940Y78810D01*
X151842Y78822D01*
X151743D01*
X151645Y78810D01*
X151549Y78785D01*
X151457Y78749D01*
X151370Y78701D01*
X151290Y78643D01*
X151218Y78575D01*
X151155Y78499D01*
X151102Y78415D01*
X151060Y78326D01*
X151030Y78232D01*
X151011Y78135D01*
X151005Y78036D01*
X145198Y98922D02*
X145299Y98940D01*
X145388Y98991D01*
X145453Y99070D01*
X145489Y99166D01*
Y99269D01*
X145453Y99365D01*
X145388Y99443D01*
X145299Y99495D01*
X145198Y99513D01*
X151005Y101501D02*
X151011Y101402D01*
X151030Y101305D01*
X151060Y101211D01*
X151102Y101121D01*
X151155Y101038D01*
X151218Y100962D01*
X151290Y100894D01*
X151370Y100836D01*
X151457Y100788D01*
X151549Y100752D01*
X151645Y100727D01*
X151743Y100715D01*
X151842D01*
X151940Y100727D01*
X152036Y100752D01*
X152128Y100788D01*
X152214Y100836D01*
X152294Y100894D01*
X152366Y100962D01*
X152429Y101038D01*
X152482Y101121D01*
X152524Y101211D01*
X152555Y101305D01*
X152573Y101402D01*
X152580Y101501D01*
X130081Y78036D02*
X130075Y78135D01*
X130057Y78232D01*
X130026Y78326D01*
X129984Y78415D01*
X129931Y78499D01*
X129868Y78575D01*
X129796Y78643D01*
X129716Y78701D01*
X129629Y78749D01*
X129537Y78785D01*
X129442Y78810D01*
X129343Y78822D01*
X129245D01*
X129146Y78810D01*
X129051Y78785D01*
X128959Y78749D01*
X128872Y78701D01*
X128792Y78643D01*
X128720Y78575D01*
X128657Y78499D01*
X128604Y78415D01*
X128562Y78326D01*
X128531Y78232D01*
X128513Y78135D01*
X128507Y78036D01*
X122700Y98922D02*
X122801Y98940D01*
X122889Y98991D01*
X122955Y99070D01*
X122990Y99166D01*
Y99269D01*
X122955Y99365D01*
X122889Y99443D01*
X122801Y99495D01*
X122700Y99513D01*
X128507Y101501D02*
X128513Y101402D01*
X128531Y101305D01*
X128562Y101211D01*
X128604Y101121D01*
X128657Y101038D01*
X128720Y100962D01*
X128792Y100894D01*
X128872Y100836D01*
X128959Y100788D01*
X129051Y100752D01*
X129146Y100727D01*
X129245Y100715D01*
X129343D01*
X129442Y100727D01*
X129537Y100752D01*
X129629Y100788D01*
X129716Y100836D01*
X129796Y100894D01*
X129868Y100962D01*
X129931Y101038D01*
X129984Y101121D01*
X130026Y101211D01*
X130057Y101305D01*
X130075Y101402D01*
X130081Y101501D01*
X66794Y53711D02*
X66774Y53615D01*
X66757Y53518D01*
X66743Y53421D01*
X66732Y53324D01*
X66723Y53226D01*
X66717Y53128D01*
X66715Y53030D01*
Y52932D01*
X66717Y52833D01*
X66723Y52736D01*
X66732Y52638D01*
X66743Y52540D01*
X66757Y52443D01*
X66774Y52346D01*
X66794Y52250D01*
X73055Y52981D02*
X73053Y53081D01*
X73048Y53180D01*
X73040Y53280D01*
X73028Y53379D01*
X73013Y53477D01*
X72995Y53576D01*
X72973Y53673D01*
X72948Y53770D01*
X72920Y53865D01*
X72888Y53960D01*
X72853Y54054D01*
X72816Y54146D01*
X72775Y54237D01*
X72731Y54327D01*
X72684Y54415D01*
X72634Y54501D01*
X72581Y54586D01*
X72525Y54669D01*
X72467Y54750D01*
X72406Y54829D01*
X72342Y54906D01*
X72276Y54980D01*
X72207Y55053D01*
X72136Y55123D01*
X72062Y55190D01*
X71987Y55255D01*
X71909Y55318D01*
X71829Y55377D01*
X71747Y55434D01*
X71663Y55489D01*
X71578Y55540D01*
X71490Y55588D01*
X71401Y55634D01*
X71311Y55676D01*
X71219Y55716D01*
X71126Y55752D01*
X71032Y55785D01*
X70937Y55815D01*
X70841Y55841D01*
X70744Y55865D01*
X70646Y55885D01*
X70547Y55902D01*
X70449Y55915D01*
X70349Y55925D01*
X70250Y55932D01*
X70150Y55935D01*
X70050D01*
X69950Y55932D01*
X69851Y55925D01*
X69751Y55915D01*
X69653Y55902D01*
X69554Y55885D01*
X69456Y55865D01*
X69359Y55841D01*
X69263Y55815D01*
X69168Y55785D01*
X69074Y55752D01*
X68981Y55716D01*
X68889Y55676D01*
X68799Y55634D01*
X68710Y55588D01*
X68622Y55540D01*
X68537Y55489D01*
X68453Y55434D01*
X68371Y55377D01*
X68291Y55318D01*
X68213Y55255D01*
X68138Y55190D01*
X68064Y55123D01*
X67993Y55053D01*
X67924Y54980D01*
X67858Y54906D01*
X67794Y54829D01*
X67733Y54750D01*
X67675Y54669D01*
X67619Y54586D01*
X67566Y54501D01*
X67516Y54415D01*
X67469Y54327D01*
X67425Y54237D01*
X67384Y54146D01*
X67347Y54054D01*
X67312Y53960D01*
X67280Y53865D01*
X67252Y53770D01*
X67227Y53673D01*
X67205Y53576D01*
X67187Y53477D01*
X67172Y53379D01*
X67160Y53280D01*
X67152Y53180D01*
X67147Y53081D01*
X67145Y52981D01*
X67147Y52881D01*
X67152Y52781D01*
X67160Y52682D01*
X67172Y52583D01*
X67187Y52484D01*
X67205Y52386D01*
X67227Y52288D01*
X67252Y52192D01*
X67280Y52096D01*
X67312Y52001D01*
X67347Y51908D01*
X67384Y51815D01*
X67425Y51724D01*
X67469Y51635D01*
X67516Y51547D01*
X67566Y51460D01*
X67619Y51375D01*
X67675Y51293D01*
X67733Y51212D01*
X67794Y51133D01*
X67858Y51056D01*
X67924Y50981D01*
X67993Y50909D01*
X68064Y50839D01*
X68138Y50771D01*
X68213Y50706D01*
X68291Y50644D01*
X68371Y50584D01*
X68453Y50527D01*
X68537Y50473D01*
X68622Y50421D01*
X68710Y50373D01*
X68799Y50328D01*
X68889Y50285D01*
X68981Y50246D01*
X69074Y50210D01*
X69168Y50176D01*
X69263Y50147D01*
X69359Y50120D01*
X69456Y50097D01*
X69554Y50076D01*
X69653Y50060D01*
X69751Y50046D01*
X69851Y50036D01*
X69950Y50029D01*
X70050Y50026D01*
X70150Y50026D01*
X70250Y50029D01*
X70349Y50036D01*
X70449Y50046D01*
X70547Y50060D01*
X70646Y50076D01*
X70744Y50097D01*
X70841Y50120D01*
X70937Y50147D01*
X71032Y50176D01*
X71126Y50210D01*
X71219Y50246D01*
X71311Y50285D01*
X71401Y50328D01*
X71490Y50373D01*
X71578Y50422D01*
X71663Y50473D01*
X71747Y50527D01*
X71829Y50584D01*
X71909Y50644D01*
X71987Y50706D01*
X72062Y50771D01*
X72136Y50839D01*
X72207Y50909D01*
X72276Y50981D01*
X72342Y51056D01*
X72406Y51133D01*
X72467Y51212D01*
X72525Y51293D01*
X72581Y51375D01*
X72634Y51460D01*
X72684Y51547D01*
X72731Y51635D01*
X72775Y51724D01*
X72816Y51815D01*
X72853Y51908D01*
X72888Y52001D01*
X72920Y52096D01*
X72948Y52192D01*
X72973Y52288D01*
X72995Y52386D01*
X73013Y52484D01*
X73028Y52583D01*
X73040Y52682D01*
X73048Y52781D01*
X73053Y52881D01*
X73055Y52981D01*
X73406Y52250D02*
X73426Y52346D01*
X73443Y52443D01*
X73457Y52540D01*
X73468Y52638D01*
X73477Y52736D01*
X73483Y52834D01*
X73485Y52932D01*
Y53030D01*
X73483Y53128D01*
X73477Y53226D01*
X73468Y53324D01*
X73457Y53421D01*
X73443Y53518D01*
X73426Y53615D01*
X73406Y53711D01*
X47400Y88931D02*
X47460Y88991D01*
X47120Y89031D02*
X47050Y88961D01*
X47678Y88921D02*
X47622D01*
X47678D01*
X40564Y80542D02*
X40555Y80643D01*
X40530Y80742D01*
X40489Y80835D01*
X40432Y80920D01*
X40363Y80994D01*
X40281Y81055D01*
X40191Y81103D01*
X40094Y81134D01*
X39994Y81149D01*
X39892Y81147D01*
X39792Y81128D01*
X39697Y81092D01*
X98100Y76481D02*
Y77181D01*
X97200Y76481D02*
Y77181D01*
Y74931D02*
Y75631D01*
X98100Y74931D02*
Y75631D01*
X97200Y77181D02*
X98100D01*
X97200Y74931D02*
X98100D01*
X86950Y59930D02*
X87485Y60465D01*
X157863Y98744D02*
X158163Y98444D01*
X157863Y98144D02*
Y98744D01*
Y98144D02*
X158163Y98444D01*
X157963Y98244D02*
Y98444D01*
Y98644D01*
X158063Y98444D02*
Y98544D01*
Y98344D02*
Y98444D01*
X135365Y98744D02*
X135665Y98444D01*
X135365Y98144D02*
Y98744D01*
Y98144D02*
X135665Y98444D01*
X135465Y98244D02*
Y98444D01*
Y98644D01*
X135565Y98444D02*
Y98544D01*
Y98344D02*
Y98444D01*
X140400Y55521D02*
X140700Y55221D01*
Y55821D01*
X140400Y55521D02*
X140700Y55821D01*
X140600Y55521D02*
Y55721D01*
Y55321D02*
Y55521D01*
X140500Y55421D02*
Y55521D01*
Y55621D01*
X160191Y108745D02*
Y112219D01*
X148089D02*
X160191D01*
X148089Y108745D02*
Y112219D01*
X108359Y113079D02*
X111948D01*
X152580Y78036D02*
X163918D01*
X152580Y101501D02*
X163918Y101501D01*
X143918Y98922D02*
X145198D01*
X143918Y99513D02*
X145198D01*
X143918Y78036D02*
X151005D01*
X143918Y99513D02*
Y101501D01*
X151005D01*
X143918Y78036D02*
Y98922D01*
X163918Y78036D02*
Y101501D01*
X160418Y94951D02*
Y98951D01*
X158418Y94951D02*
X160418D01*
X158418D02*
Y98951D01*
X160418D01*
X130081Y78036D02*
X141420D01*
X130081Y101501D02*
X141420Y101501D01*
X121420Y98922D02*
X122700D01*
X121420Y99513D02*
X122700D01*
X121420Y78036D02*
X128507D01*
X121420Y99513D02*
Y101501D01*
X128507D01*
X121420Y78036D02*
Y98922D01*
X141420Y78036D02*
Y101501D01*
X137920Y94951D02*
Y98951D01*
X135920Y94951D02*
X137920D01*
X135920D02*
Y98951D01*
X137920D01*
X104150Y111981D02*
X164150D01*
Y51981D02*
Y111981D01*
X104150Y51981D02*
Y111981D01*
X138154Y55014D02*
X140145D01*
X140145Y55014D02*
Y65001D01*
X138154Y65001D02*
X140145D01*
X138154Y55014D02*
Y65001D01*
X148089Y108745D02*
X160191D01*
X139845Y103250D02*
X146444D01*
X139845D02*
Y113079D01*
X146444D01*
Y103250D02*
Y113079D01*
X129847Y103250D02*
X136447D01*
X129847D02*
Y113079D01*
X136447D01*
Y103250D02*
Y113079D01*
X119601Y103250D02*
X126201D01*
X119601D02*
Y113079D01*
X126201D01*
Y103250D02*
Y113079D01*
X113022Y105037D02*
X118814D01*
X113022D02*
Y113079D01*
X118814D01*
Y105037D02*
Y113079D01*
X108359Y106586D02*
X111948D01*
X108359D02*
Y113079D01*
X111948Y106586D02*
Y113079D01*
X119194Y77082D02*
X141425D01*
X119194D02*
Y102390D01*
X141425D01*
Y77082D02*
Y102390D01*
X141692Y77082D02*
X163923D01*
X141692D02*
Y102390D01*
X163923D01*
Y77082D02*
Y102390D01*
X142400Y56981D02*
Y69981D01*
X160900D01*
Y56981D02*
Y69981D01*
X156165Y56708D02*
X160892Y51981D01*
X142402D02*
X147129Y56708D01*
X156165D01*
X160892Y51981D02*
X164150D01*
X104150D02*
X142402D01*
X80450Y44031D02*
X82950D01*
X80450Y41031D02*
X81450D01*
Y39031D02*
X116450D01*
Y41031D02*
X117450D01*
X114950Y44031D02*
X117450D01*
X82950Y43531D02*
X114950D01*
X80450Y41031D02*
Y44031D01*
X81450Y39031D02*
Y41031D01*
X116450Y39031D02*
Y41031D01*
X117450D02*
Y44031D01*
X82950Y43531D02*
Y44031D01*
X114950Y43531D02*
Y44031D01*
X61050Y111317D02*
X61207Y111513D01*
X60893D02*
X61050Y111317D01*
X59050Y112025D02*
X63050D01*
Y108836D02*
Y112025D01*
X59050Y108836D02*
Y112025D01*
Y108836D02*
X63050D01*
X61050Y111317D02*
Y111750D01*
X62280Y108531D02*
X62780Y108031D01*
X62280Y105131D02*
X62780Y105631D01*
X59380Y105131D02*
X62280D01*
X62780Y105631D02*
Y106231D01*
X59380Y105131D02*
Y106231D01*
Y108531D02*
X62280D01*
X62780Y107431D02*
Y108031D01*
X59380Y107431D02*
Y108531D01*
X61962Y105788D02*
X62362D01*
X62162Y105588D02*
Y105988D01*
X72250Y96131D02*
Y97431D01*
X74500Y96131D02*
Y97431D01*
X72250Y96131D02*
X72950D01*
X72250Y97431D02*
X72950D01*
X73800D02*
X74500D01*
X73800Y96131D02*
X74500D01*
X63750Y77781D02*
Y97781D01*
X71750Y59881D02*
X76350D01*
X63750Y59931D02*
X65700D01*
X63750Y97781D02*
X76350D01*
Y77781D02*
Y97781D01*
X36650Y90131D02*
Y90831D01*
X37350Y90131D02*
Y90831D01*
X36650Y90131D02*
X37350D01*
X36650Y90831D02*
X37350D01*
X37650Y90131D02*
Y90831D01*
X65500Y77981D02*
Y78631D01*
X67000Y77981D02*
Y78631D01*
Y79981D02*
Y80631D01*
X65500Y79981D02*
Y80631D01*
Y77981D02*
X67000D01*
X65500Y80631D02*
X67000D01*
X70812Y78438D02*
Y78838D01*
X70612Y78638D02*
X71012D01*
X68030Y80281D02*
Y81381D01*
X71430Y80281D02*
Y80881D01*
X68030Y81381D02*
X70930D01*
X68030Y77981D02*
Y79081D01*
X71430Y78481D02*
Y79081D01*
X68030Y77981D02*
X70930D01*
X71430Y78481D01*
X70930Y81381D02*
X71430Y80881D01*
X72250Y95081D02*
Y95981D01*
X74500Y95081D02*
Y95981D01*
X72250Y95081D02*
X72950D01*
X72250Y95981D02*
X72950D01*
X73800D02*
X74500D01*
X73800Y95081D02*
X74500D01*
X70200Y81781D02*
X70900D01*
X70200Y83081D02*
X70900D01*
X68650D02*
X69350D01*
X68650Y81781D02*
X69350D01*
X70900D02*
Y83081D01*
X68650Y81781D02*
Y83081D01*
X66794Y52250D02*
X67580Y50146D01*
X68289Y49477D02*
X71911D01*
X72620Y50146D02*
X73406Y52250D01*
X66794Y53711D02*
X67580Y55815D01*
X68289Y56485D02*
X71911D01*
X72620Y55815D02*
X73406Y53711D01*
X103400Y55131D02*
Y55831D01*
X102500Y55131D02*
Y55831D01*
Y53581D02*
Y54281D01*
X103400Y53581D02*
Y54281D01*
X102500Y55831D02*
X103400D01*
X102500Y53581D02*
X103400D01*
X92650Y54431D02*
Y55131D01*
X91750Y54431D02*
Y55131D01*
Y52881D02*
Y53581D01*
X92650Y52881D02*
Y53581D01*
X91750Y55131D02*
X92650D01*
X91750Y52881D02*
X92650D01*
X91600Y54431D02*
Y55131D01*
X90700Y54431D02*
Y55131D01*
Y52881D02*
Y53581D01*
X91600Y52881D02*
Y53581D01*
X90700Y55131D02*
X91600D01*
X90700Y52881D02*
X91600D01*
X103100Y62931D02*
Y63631D01*
X104000Y62931D02*
Y63631D01*
Y64481D02*
Y65181D01*
X103100Y64481D02*
Y65181D01*
Y62931D02*
X104000D01*
X103100Y65181D02*
X104000D01*
X38050Y66181D02*
Y75581D01*
X46750Y85231D02*
Y90981D01*
X47460Y88991D02*
Y89041D01*
X47120Y89031D02*
X47400Y88931D01*
X47050Y88891D02*
Y88961D01*
X70450Y63731D02*
X71150D01*
X70450Y65031D02*
X71150D01*
X68900D02*
X69600D01*
X68900Y63731D02*
X69600D01*
X71150D02*
Y65031D01*
X68900Y63731D02*
Y65031D01*
X72250Y76481D02*
Y77381D01*
X74500Y76481D02*
Y77381D01*
X72250Y76481D02*
X72950D01*
X72250Y77381D02*
X72950D01*
X73800D02*
X74500D01*
X73800Y76481D02*
X74500D01*
X65100Y57081D02*
X66600D01*
X65100Y54431D02*
X66600D01*
X65100Y56431D02*
Y57081D01*
X66600Y56431D02*
Y57081D01*
Y54431D02*
Y55081D01*
X65100Y54431D02*
Y55081D01*
X73600Y54431D02*
X75100D01*
X73600Y57081D02*
X75100D01*
Y54431D02*
Y55081D01*
X73600Y54431D02*
Y55081D01*
Y56431D02*
Y57081D01*
X75100Y56431D02*
Y57081D01*
X77550Y52631D02*
Y54131D01*
X74900Y52631D02*
Y54131D01*
X76900D02*
X77550D01*
X76900Y52631D02*
X77550D01*
X74900D02*
X75550D01*
X74900Y54131D02*
X75550D01*
X82903Y62780D02*
X83297Y62386D01*
X80698Y61914D02*
Y62780D01*
X83297Y61914D02*
Y62386D01*
X80698Y62780D02*
X82903D01*
Y60181D02*
X83297Y60575D01*
X82851Y60454D02*
Y60854D01*
X80698Y60181D02*
Y61048D01*
X83297Y60575D02*
Y61048D01*
X80698Y60181D02*
X82903D01*
X82651Y60654D02*
X83051D01*
X82723Y65779D02*
Y66179D01*
X82251Y65928D02*
Y68132D01*
X82644Y65534D02*
X83117D01*
X82251Y68132D02*
X83117D01*
X82523Y65979D02*
X82923D01*
X82251Y65928D02*
X82644Y65534D01*
X84849Y65928D02*
Y68132D01*
X83983Y65534D02*
X84456D01*
X83983Y68132D02*
X84849D01*
X84456Y65534D02*
X84849Y65928D01*
X85950Y63181D02*
Y63581D01*
X85900Y63181D02*
Y63581D01*
X84900D02*
X86900D01*
X84900Y60381D02*
X86900D01*
X85800Y63181D02*
Y63581D01*
Y63181D02*
X86050D01*
Y63581D01*
X88150Y61181D02*
X89050D01*
X88150Y63431D02*
X89050D01*
Y61181D02*
Y61881D01*
X88150Y61181D02*
Y61881D01*
Y62731D02*
Y63431D01*
X89050Y62731D02*
Y63431D01*
X46350Y90131D02*
Y90831D01*
X45650Y90131D02*
X46350D01*
X45650D02*
Y90831D01*
X46350D01*
X45350Y90131D02*
Y90831D01*
X44650Y90131D02*
X45350D01*
X44650D02*
Y90831D01*
X45350D01*
X44350Y90131D02*
Y90831D01*
X43650Y90131D02*
X44350D01*
X43650D02*
Y90831D01*
X44350D01*
X43350Y90131D02*
Y90831D01*
X42650Y90131D02*
X43350D01*
X42650D02*
Y90831D01*
X43350D01*
X42350Y90131D02*
Y90831D01*
X41650Y90131D02*
X42350D01*
X41650D02*
Y90831D01*
X42350D01*
X41350Y90131D02*
Y90831D01*
X40650Y90131D02*
X41350D01*
X40650D02*
Y90831D01*
X41350D01*
X40350Y90131D02*
Y90831D01*
X39650Y90131D02*
X40350D01*
X39650D02*
Y90831D01*
X40350D01*
X39350Y90131D02*
Y90831D01*
X38650Y90131D02*
X39350D01*
X38650D02*
Y90831D01*
X39350D01*
X38350Y90131D02*
Y90831D01*
X37650Y90131D02*
X38350D01*
X37650Y90831D02*
X38350D01*
X100111Y110838D02*
X100268D01*
X101332D02*
X101489D01*
X99422Y107118D02*
X102178D01*
X100111Y112019D02*
X101489D01*
X100111Y109755D02*
Y112019D01*
X101489Y109755D02*
Y112019D01*
X99422Y109086D02*
Y109755D01*
X102178D01*
Y109086D02*
Y109755D01*
Y108299D02*
Y109086D01*
X99422Y108299D02*
Y109086D01*
X102178Y107118D02*
Y107196D01*
X99422Y107118D02*
Y107196D01*
X100013Y108181D02*
X101587D01*
X100800Y107885D02*
Y108456D01*
X66200Y61281D02*
X67700D01*
X66200Y58631D02*
X67700D01*
X66200Y60631D02*
Y61281D01*
X67700Y60631D02*
Y61281D01*
Y58631D02*
Y59281D01*
X66200Y58631D02*
Y59281D01*
X68800Y58281D02*
Y59781D01*
X71450Y58281D02*
Y59781D01*
X68800Y58281D02*
X69450D01*
X68800Y59781D02*
X69450D01*
X70800D02*
X71450D01*
X70800Y58281D02*
X71450D01*
Y47781D02*
Y49281D01*
X68800Y47781D02*
Y49281D01*
X70800D02*
X71450D01*
X70800Y47781D02*
X71450D01*
X68800D02*
X69450D01*
X68800Y49281D02*
X69450D01*
X71450Y56631D02*
Y58131D01*
X68800Y56631D02*
Y58131D01*
X70800D02*
X71450D01*
X70800Y56631D02*
X71450D01*
X68800D02*
X69450D01*
X68800Y58131D02*
X69450D01*
X71230Y63431D02*
X71730Y62931D01*
X71230Y60031D02*
X71730Y60531D01*
X68330Y60031D02*
X71230D01*
X71730Y60531D02*
Y61131D01*
X68330Y60031D02*
Y61131D01*
Y63431D02*
X71230D01*
X71730Y62331D02*
Y62931D01*
X68330Y62331D02*
Y63431D01*
X70912Y60688D02*
X71312D01*
X71112Y60488D02*
Y60888D01*
X63750Y77781D02*
X76350D01*
Y46831D02*
Y77781D01*
X63750Y46831D02*
X76350D01*
X63750D02*
Y77781D01*
X58400Y110981D02*
X58600D01*
X58250Y110731D02*
Y111231D01*
X58100Y110831D02*
Y111131D01*
X57850Y110981D02*
X57950Y111031D01*
Y110931D02*
Y111031D01*
X57850Y110981D02*
X57950Y110931D01*
X100100Y90191D02*
X100400Y89891D01*
X100100Y89591D02*
Y90191D01*
Y89591D02*
X100400Y89891D01*
X100200Y89691D02*
Y89891D01*
Y90091D01*
X100300Y89891D02*
Y89991D01*
Y89791D02*
Y89891D01*
X100100Y97191D02*
X100400Y96891D01*
X100100Y96591D02*
Y97191D01*
Y96591D02*
X100400Y96891D01*
X100200Y96691D02*
Y96891D01*
Y97091D01*
X100300Y96891D02*
Y96991D01*
Y96791D02*
Y96891D01*
X99450Y84191D02*
X99750Y83891D01*
X99450Y83591D02*
Y84191D01*
Y83591D02*
X99750Y83891D01*
X99550Y83691D02*
Y83891D01*
Y84091D01*
X99650Y83891D02*
Y83991D01*
Y83791D02*
Y83891D01*
X85950Y69921D02*
X86250Y69621D01*
Y70221D01*
X85950Y69921D02*
X86250Y70221D01*
X86150Y69921D02*
Y70121D01*
Y69721D02*
Y69921D01*
X86050Y69821D02*
Y69921D01*
Y70021D01*
X134050Y51251D02*
Y55281D01*
X124550D02*
X134050Y64781D01*
X138150D01*
X123390Y47431D02*
X123690Y47731D01*
X123390Y47431D02*
X123990D01*
X123690Y47731D02*
X123990Y47431D01*
X123690Y47531D02*
X123890D01*
X123490D02*
X123690D01*
X123590Y47631D02*
X123690D01*
X123790D01*
X124550Y55281D02*
X124750D01*
X124550Y55231D02*
Y55281D01*
X133550Y63781D02*
X134800D01*
X133050Y63281D02*
X134300D01*
X132550Y62781D02*
X133800D01*
X132050Y62281D02*
X133300D01*
X131550Y61781D02*
X132800D01*
X131050Y61281D02*
X132300D01*
X130550Y60781D02*
X131800D01*
X130050Y60281D02*
X131300D01*
X129550Y59781D02*
X130800D01*
X129050Y59281D02*
X130300D01*
X128550Y58781D02*
X129800D01*
X128050Y58281D02*
X129300D01*
X127550Y57781D02*
X128800D01*
X127050Y57281D02*
X128300D01*
X126550Y56781D02*
X127800D01*
X126050Y56281D02*
X127300D01*
X125550Y55781D02*
X126800D01*
X134050Y64281D02*
X135300D01*
X97373Y103570D02*
Y104220D01*
X98873Y103570D02*
Y104220D01*
Y105570D02*
Y106220D01*
X97373Y105570D02*
Y106220D01*
Y103570D02*
X98873D01*
X97373Y106220D02*
X98873D01*
X91769Y112026D02*
X96501D01*
Y108876D02*
Y112026D01*
X91769Y105451D02*
X96501D01*
X96189Y110845D02*
X96509D01*
X91777Y110845D02*
X92089Y110845D01*
X96501Y105451D02*
Y107065D01*
X91769Y108876D02*
Y112026D01*
Y105451D02*
Y107065D01*
X66800Y107631D02*
X83000D01*
X66800D02*
Y111981D01*
X83000Y107631D02*
Y111981D01*
X151600Y114969D02*
X156700D01*
X151150Y112219D02*
Y114519D01*
X151600Y114969D01*
X157150Y112219D02*
Y114519D01*
X156700Y114969D02*
X157150Y114519D01*
X90904Y79431D02*
X93267D01*
X90904Y80730D02*
X93267D01*
X69850Y73031D02*
X69950Y72931D01*
Y72731D01*
X69850Y72631D01*
X69750D01*
X69650Y72731D01*
Y72831D01*
Y72731D01*
X69550Y72631D01*
X69450D01*
X69350Y72731D01*
Y72931D01*
X69450Y73031D01*
X69350Y72431D02*
X69450D01*
Y72331D01*
X69350D01*
Y72431D01*
X69850Y71931D02*
X69950Y71831D01*
Y71631D01*
X69850Y71531D01*
X69750D01*
X69650Y71631D01*
Y71731D01*
Y71631D01*
X69550Y71531D01*
X69450D01*
X69350Y71631D01*
Y71831D01*
X69450Y71931D01*
X69950Y71331D02*
X69550D01*
X69350Y71131D01*
X69550Y70931D01*
X69950D01*
X69350Y70731D02*
X69750Y70332D01*
X69350Y70132D02*
Y69932D01*
Y70032D01*
X69950D01*
X69850Y70132D01*
X69950Y69232D02*
Y69632D01*
X69650D01*
X69750Y69432D01*
Y69332D01*
X69650Y69232D01*
X69450D01*
X69350Y69332D01*
Y69532D01*
X69450Y69632D01*
X69950Y69032D02*
X69350D01*
X69550Y68832D01*
X69350Y68632D01*
X69950D01*
X70850Y72281D02*
X70250D01*
Y71981D01*
X70350Y71881D01*
X70750D01*
X70850Y71981D01*
Y72281D01*
X70750Y71281D02*
X70850Y71381D01*
Y71581D01*
X70750Y71681D01*
X70350D01*
X70250Y71581D01*
Y71381D01*
X70350Y71281D01*
X70250Y71081D02*
X70650Y70681D01*
X70850Y70481D02*
X70250D01*
Y70181D01*
X70350Y70081D01*
X70750D01*
X70850Y70181D01*
Y70481D01*
X70750Y69482D02*
X70850Y69582D01*
Y69782D01*
X70750Y69881D01*
X70350D01*
X70250Y69782D01*
Y69582D01*
X70350Y69482D01*
X70950Y90931D02*
X70350D01*
Y90631D01*
X70450Y90531D01*
X70850D01*
X70950Y90631D01*
Y90931D01*
X70850Y89931D02*
X70950Y90031D01*
Y90231D01*
X70850Y90331D01*
X70450D01*
X70350Y90231D01*
Y90031D01*
X70450Y89931D01*
X70350Y89731D02*
X70750Y89331D01*
X70950Y89131D02*
X70350D01*
Y88831D01*
X70450Y88731D01*
X70850D01*
X70950Y88831D01*
Y89131D01*
X70850Y88132D02*
X70950Y88232D01*
Y88432D01*
X70850Y88531D01*
X70450D01*
X70350Y88432D01*
Y88232D01*
X70450Y88132D01*
X69400Y91481D02*
Y91281D01*
Y91381D01*
X70000D01*
X69900Y91481D01*
X69400Y90581D02*
Y90981D01*
X69800Y90581D01*
X69900D01*
X70000Y90681D01*
Y90881D01*
X69900Y90981D01*
X70000Y90381D02*
X69600D01*
X69400Y90181D01*
X69600Y89981D01*
X70000D01*
X69400Y89781D02*
X69800Y89381D01*
X69400Y89181D02*
Y88982D01*
Y89081D01*
X70000D01*
X69900Y89181D01*
X70000Y88282D02*
Y88682D01*
X69700D01*
X69800Y88482D01*
Y88382D01*
X69700Y88282D01*
X69500D01*
X69400Y88382D01*
Y88582D01*
X69500Y88682D01*
X70000Y88082D02*
X69400D01*
X69600Y87882D01*
X69400Y87682D01*
X70000D01*
X86150Y59731D02*
X86750D01*
X86550Y59531D01*
X86750Y59331D01*
X86150D01*
X86650Y58731D02*
X86750Y58831D01*
Y59031D01*
X86650Y59131D01*
X86250D01*
X86150Y59031D01*
Y58831D01*
X86250Y58731D01*
X86750Y58531D02*
X86150D01*
Y58131D01*
X86750Y57931D02*
X86150D01*
X86350D01*
X86750Y57531D01*
X86450Y57831D01*
X86150Y57531D01*
X93100Y75631D02*
X93500D01*
X93700Y75431D01*
X93500Y75231D01*
X93100D01*
X93400D01*
Y75631D01*
X93100Y75031D02*
X93700D01*
Y74731D01*
X93600Y74631D01*
X93400D01*
X93300Y74731D01*
Y75031D01*
Y74831D02*
X93100Y74631D01*
Y74431D02*
X93700D01*
X93500Y74231D01*
X93700Y74031D01*
X93100D01*
X93700Y73831D02*
Y73431D01*
X93600D01*
X93200Y73831D01*
X93100D01*
X97400Y60581D02*
Y60981D01*
X97100D01*
Y60781D01*
Y60981D01*
X96800D01*
Y60381D02*
X97400D01*
Y60081D01*
X97300Y59981D01*
X97100D01*
X97000Y60081D01*
Y60381D01*
X97300Y59381D02*
X97400Y59481D01*
Y59681D01*
X97300Y59781D01*
X96900D01*
X96800Y59681D01*
Y59481D01*
X96900Y59381D01*
X97100D01*
Y59581D01*
X96800Y59181D02*
X97200D01*
X97400Y58981D01*
X97200Y58781D01*
X96800D01*
X97100D01*
Y59181D01*
X158498Y99581D02*
Y99381D01*
Y99481D01*
X159098D01*
X158998Y99581D01*
X159748Y99281D02*
Y99681D01*
X160148Y99281D01*
X160248D01*
X160348Y99381D01*
Y99581D01*
X160248Y99681D01*
X136000Y99581D02*
Y99381D01*
Y99481D01*
X136600D01*
X136500Y99581D01*
X137250Y99281D02*
Y99681D01*
X137650Y99281D01*
X137750D01*
X137850Y99381D01*
Y99581D01*
X137750Y99681D01*
X138300Y54231D02*
Y54631D01*
X138700Y54231D01*
X138800D01*
X138900Y54331D01*
Y54531D01*
X138800Y54631D01*
X139500Y54531D02*
Y54331D01*
Y54431D01*
X140100D01*
X140000Y54531D01*
X159700Y98031D02*
Y97631D01*
Y97831D01*
X159100D01*
X159700Y97431D02*
X159100D01*
Y97131D01*
X159200Y97031D01*
X159600D01*
X159700Y97131D01*
Y97431D01*
X159100Y96831D02*
X159700D01*
X159500Y96631D01*
X159700Y96431D01*
X159100D01*
Y96231D02*
X159500D01*
X159700Y96031D01*
X159500Y95831D01*
X159100D01*
X159400D01*
Y96231D01*
X137200Y98081D02*
Y97681D01*
Y97881D01*
X136600D01*
X137200Y97481D02*
X136600D01*
Y97181D01*
X136700Y97081D01*
X137100D01*
X137200Y97181D01*
Y97481D01*
X136600Y96881D02*
X137200D01*
X137000Y96681D01*
X137200Y96481D01*
X136600D01*
Y96281D02*
X137000D01*
X137200Y96081D01*
X137000Y95881D01*
X136600D01*
X136900D01*
Y96281D01*
X83065Y47129D02*
X83326D01*
X83184Y46939D01*
X83255D01*
X83303Y46915D01*
X83326Y46891D01*
X83350Y46820D01*
Y46772D01*
X83326Y46701D01*
X83279Y46653D01*
X83207Y46629D01*
X83136D01*
X83065Y46653D01*
X83041Y46677D01*
X83017Y46724D01*
X83486Y47010D02*
Y47034D01*
X83510Y47081D01*
X83533Y47105D01*
X83581Y47129D01*
X83676D01*
X83724Y47105D01*
X83748Y47081D01*
X83772Y47034D01*
Y46986D01*
X83748Y46939D01*
X83700Y46867D01*
X83462Y46629D01*
X83795D01*
X113238Y47010D02*
Y47034D01*
X113261Y47081D01*
X113285Y47105D01*
X113333Y47129D01*
X113428D01*
X113476Y47105D01*
X113499Y47081D01*
X113523Y47034D01*
Y46986D01*
X113499Y46939D01*
X113452Y46867D01*
X113214Y46629D01*
X113547D01*
X114446Y45994D02*
X114146D01*
X114046Y45894D01*
Y45694D01*
X114146Y45594D01*
X114446D01*
X114096Y45294D02*
Y44694D01*
X114396D01*
X114496Y44794D01*
Y44894D01*
Y44994D01*
X114396Y45094D01*
X114096D01*
X114146Y44344D02*
X114346D01*
X114446Y44244D01*
Y43944D01*
X114146D01*
X114046Y44044D01*
X114146Y44144D01*
X114446D01*
X57950Y108581D02*
X58550D01*
Y108281D01*
X58450Y108181D01*
X58250D01*
X58150Y108281D01*
Y108581D01*
X58450Y107581D02*
X58550Y107681D01*
Y107881D01*
X58450Y107981D01*
X58350D01*
X58250Y107881D01*
Y107681D01*
X58150Y107581D01*
X58050D01*
X57950Y107681D01*
Y107881D01*
X58050Y107981D01*
X100900Y83951D02*
Y83751D01*
Y83851D01*
X101500D01*
X101400Y83951D01*
X101920Y83681D02*
Y84081D01*
X102320Y83681D01*
X102420D01*
X102520Y83781D01*
Y83981D01*
X102420Y84081D01*
X84550Y69861D02*
Y70061D01*
Y69961D01*
X83950D01*
X84050Y69861D01*
X83530Y70131D02*
Y69731D01*
X83130Y70131D01*
X83030D01*
X82930Y70031D01*
Y69831D01*
X83030Y69731D01*
X123580Y48981D02*
X123780D01*
X123680D01*
Y49581D01*
X123580Y49481D01*
X123850Y50001D02*
X123450D01*
X123850Y50401D01*
Y50501D01*
X123750Y50601D01*
X123550D01*
X123450Y50501D01*
X37300Y89281D02*
X36900D01*
X36700Y89081D01*
X36900Y88881D01*
X37300D01*
X37000Y88681D02*
Y88281D01*
X36700Y88081D02*
X37300D01*
Y87781D01*
X37200Y87681D01*
X37000D01*
X36900Y87781D01*
Y88081D01*
Y87881D02*
X36700Y87681D01*
X37300Y87081D02*
Y87481D01*
X36700D01*
Y87081D01*
X37000Y87481D02*
Y87281D01*
X37200Y86482D02*
X37300Y86582D01*
Y86782D01*
X37200Y86881D01*
X36800D01*
X36700Y86782D01*
Y86582D01*
X36800Y86482D01*
X84700Y111031D02*
Y110831D01*
Y110931D01*
X84100D01*
Y111031D01*
Y110831D01*
Y110531D02*
X84700D01*
X84100Y110131D01*
X84700D01*
Y109531D02*
Y109931D01*
X84400D01*
Y109731D01*
Y109931D01*
X84100D01*
X84700Y109031D02*
Y109231D01*
X84600Y109331D01*
X84200D01*
X84100Y109231D01*
Y109031D01*
X84200Y108931D01*
X84600D01*
X84700Y109031D01*
X35430Y46881D02*
X35030D01*
X35430Y47281D01*
Y47381D01*
X35330Y47481D01*
X35130D01*
X35030Y47381D01*
X35630D02*
X35730Y47481D01*
X35930D01*
X36030Y47381D01*
Y46981D01*
X35930Y46881D01*
X35730D01*
X35630Y46981D01*
Y47381D01*
X36230D02*
X36330Y47481D01*
X36530D01*
X36629Y47381D01*
Y46981D01*
X36530Y46881D01*
X36330D01*
X36230Y46981D01*
Y47381D01*
X36829Y47481D02*
X37229D01*
Y47381D01*
X36829Y46981D01*
Y46881D01*
X37429D02*
X37629D01*
X37529D01*
Y47481D01*
X37429Y47381D01*
X38329Y46881D02*
X37929D01*
X38329Y47281D01*
Y47381D01*
X38229Y47481D01*
X38029D01*
X37929Y47381D01*
X38529Y46881D02*
X38729D01*
X38629D01*
Y47481D01*
X38529Y47381D01*
X39029D02*
X39129Y47481D01*
X39329D01*
X39429Y47381D01*
Y46981D01*
X39329Y46881D01*
X39129D01*
X39029Y46981D01*
Y47381D01*
X46200Y88931D02*
X46300Y89031D01*
Y89231D01*
X46200Y89331D01*
X45800D01*
X45700Y89231D01*
Y89031D01*
X45800Y88931D01*
X45700Y88731D02*
X46300D01*
Y88431D01*
X46200Y88331D01*
X46000D01*
X45900Y88431D01*
Y88731D01*
X46300Y88131D02*
X45800D01*
X45700Y88031D01*
Y87831D01*
X45800Y87731D01*
X46300D01*
X46000Y87531D02*
Y87131D01*
X46300Y86931D02*
X45700D01*
Y86632D01*
X45800Y86532D01*
X46200D01*
X46300Y86632D01*
Y86931D01*
X45300Y88931D02*
Y89331D01*
X44700D01*
Y88931D01*
X45000Y89331D02*
Y89131D01*
X45300Y88731D02*
X44700D01*
Y88331D01*
X45300Y88131D02*
X44800D01*
X44700Y88031D01*
Y87831D01*
X44800Y87731D01*
X45300D01*
X45000Y87531D02*
Y87131D01*
X44700Y86931D02*
X45100D01*
X45300Y86732D01*
X45100Y86532D01*
X44700D01*
X45000D01*
Y86931D01*
X44300Y88931D02*
Y89331D01*
X43700D01*
Y88931D01*
X44000Y89331D02*
Y89131D01*
X44300Y88731D02*
X43700D01*
Y88331D01*
X44300Y88131D02*
X43800D01*
X43700Y88031D01*
Y87831D01*
X43800Y87731D01*
X44300D01*
X44000Y87531D02*
Y87131D01*
X44300Y86931D02*
X43700D01*
Y86632D01*
X43800Y86532D01*
X44200D01*
X44300Y86632D01*
Y86931D01*
X43300Y89331D02*
X42700D01*
Y89031D01*
X42800Y88931D01*
X42900D01*
X43000Y89031D01*
Y89331D01*
Y89031D01*
X43100Y88931D01*
X43200D01*
X43300Y89031D01*
Y89331D01*
Y88731D02*
Y88331D01*
Y88531D01*
X42700D01*
X43300Y88131D02*
X42800D01*
X42700Y88031D01*
Y87831D01*
X42800Y87731D01*
X43300D01*
X43000Y87531D02*
Y87131D01*
X42700Y86931D02*
X43100D01*
X43300Y86732D01*
X43100Y86532D01*
X42700D01*
X43000D01*
Y86931D01*
X42300Y89331D02*
X41700D01*
Y89031D01*
X41800Y88931D01*
X41900D01*
X42000Y89031D01*
Y89331D01*
Y89031D01*
X42100Y88931D01*
X42200D01*
X42300Y89031D01*
Y89331D01*
Y88731D02*
Y88331D01*
Y88531D01*
X41700D01*
X42300Y88131D02*
X41800D01*
X41700Y88031D01*
Y87831D01*
X41800Y87731D01*
X42300D01*
X42000Y87531D02*
Y87131D01*
X42300Y86931D02*
X41700D01*
Y86632D01*
X41800Y86532D01*
X41900D01*
X42000Y86632D01*
Y86931D01*
Y86632D01*
X42100Y86532D01*
X42200D01*
X42300Y86632D01*
Y86931D01*
X41300Y89331D02*
X40700D01*
Y89031D01*
X40800Y88931D01*
X40900D01*
X41000Y89031D01*
Y89331D01*
Y89031D01*
X41100Y88931D01*
X41200D01*
X41300Y89031D01*
Y89331D01*
Y88731D02*
Y88331D01*
Y88531D01*
X40700D01*
X41300Y88131D02*
X40800D01*
X40700Y88031D01*
Y87831D01*
X40800Y87731D01*
X41300D01*
X41000Y87531D02*
Y87131D01*
X41200Y86532D02*
X41300Y86632D01*
Y86832D01*
X41200Y86931D01*
X40800D01*
X40700Y86832D01*
Y86632D01*
X40800Y86532D01*
X40300Y89331D02*
X39700D01*
Y89031D01*
X39800Y88931D01*
X39900D01*
X40000Y89031D01*
Y89331D01*
Y89031D01*
X40100Y88931D01*
X40200D01*
X40300Y89031D01*
Y89331D01*
Y88731D02*
Y88331D01*
Y88531D01*
X39700D01*
X40300Y88131D02*
X39800D01*
X39700Y88031D01*
Y87831D01*
X39800Y87731D01*
X40300D01*
X40000Y87531D02*
Y87131D01*
X40300Y86931D02*
X39700D01*
Y86632D01*
X39800Y86532D01*
X40200D01*
X40300Y86632D01*
Y86931D01*
X47650Y90931D02*
X47050Y90531D01*
X47650D02*
X47050Y90931D01*
Y90331D02*
X47650D01*
Y90031D01*
X47550Y89931D01*
X47350D01*
X47250Y90031D01*
Y90331D01*
X47650Y89731D02*
X47150D01*
X47050Y89631D01*
Y89431D01*
X47150Y89331D01*
X47650D01*
X47050Y87932D02*
X47450D01*
X47650Y87732D01*
X47450Y87532D01*
X47050D01*
X47350D01*
Y87932D01*
X47050Y87332D02*
Y87132D01*
Y87232D01*
X47650D01*
Y87332D01*
X47050Y86832D02*
Y86632D01*
Y86732D01*
X47450D01*
Y86832D01*
Y86232D02*
Y86032D01*
X47350Y85932D01*
X47050D01*
Y86232D01*
X47150Y86332D01*
X47250Y86232D01*
Y85932D01*
X47050Y85732D02*
Y85432D01*
X47150Y85333D01*
X47250Y85432D01*
Y85632D01*
X47350Y85732D01*
X47450Y85632D01*
Y85333D01*
X39470Y76211D02*
Y76011D01*
Y76111D01*
X38870D01*
Y76211D01*
Y76011D01*
Y75711D02*
X39470D01*
Y75411D01*
X39370Y75311D01*
X39170D01*
X39070Y75411D01*
Y75711D01*
X39470Y75111D02*
Y74711D01*
Y74911D01*
X38870D01*
X39370Y74111D02*
X39470Y74211D01*
Y74411D01*
X39370Y74511D01*
X38970D01*
X38870Y74411D01*
Y74211D01*
X38970Y74111D01*
X38870Y73312D02*
X39270D01*
X39470Y73112D01*
X39270Y72912D01*
X38870D01*
X39170D01*
Y73312D01*
X39470Y72712D02*
X38870D01*
Y72412D01*
X38970Y72312D01*
X39070D01*
X39170Y72412D01*
Y72712D01*
Y72412D01*
X39270Y72312D01*
X39370D01*
X39470Y72412D01*
Y72712D01*
X38300Y89281D02*
Y89081D01*
Y89181D01*
X37700D01*
Y89281D01*
Y89081D01*
Y88781D02*
X38300D01*
Y88481D01*
X38200Y88381D01*
X38000D01*
X37900Y88481D01*
Y88781D01*
X38300Y88181D02*
X37800D01*
X37700Y88081D01*
Y87881D01*
X37800Y87781D01*
X38300D01*
X39300Y89281D02*
Y89081D01*
Y89181D01*
X38700D01*
Y89281D01*
Y89081D01*
X39200Y88381D02*
X39300Y88481D01*
Y88681D01*
X39200Y88781D01*
X38800D01*
X38700Y88681D01*
Y88481D01*
X38800Y88381D01*
X39000Y88181D02*
Y87781D01*
X39200Y87181D02*
X39300Y87281D01*
Y87481D01*
X39200Y87581D01*
X38800D01*
X38700Y87481D01*
Y87281D01*
X38800Y87181D01*
X39300Y86981D02*
X38800D01*
X38700Y86881D01*
Y86682D01*
X38800Y86582D01*
X39300D01*
X38700Y85982D02*
Y86382D01*
X39100Y85982D01*
X39200D01*
X39300Y86082D01*
Y86282D01*
X39200Y86382D01*
X98500Y111381D02*
X99100D01*
Y111081D01*
X99000Y110981D01*
X98800D01*
X98700Y111081D01*
Y111381D01*
Y111181D02*
X98500Y110981D01*
X99100Y110381D02*
Y110781D01*
X98500D01*
Y110381D01*
X98800Y110781D02*
Y110581D01*
X99000Y109781D02*
X99100Y109881D01*
Y110081D01*
X99000Y110181D01*
X98900D01*
X98800Y110081D01*
Y109881D01*
X98700Y109781D01*
X98600D01*
X98500Y109881D01*
Y110081D01*
X98600Y110181D01*
X99100Y109181D02*
Y109581D01*
X98500D01*
Y109181D01*
X98800Y109581D02*
Y109381D01*
X99100Y108981D02*
Y108582D01*
Y108782D01*
X98500D01*
X111462Y47081D02*
X111200Y46714D01*
X111593D01*
X111462Y47081D02*
Y46531D01*
X107381Y47081D02*
X107302Y47054D01*
X107276Y47002D01*
Y46950D01*
X107302Y46897D01*
X107355Y46871D01*
X107459Y46845D01*
X107538Y46819D01*
X107590Y46766D01*
X107617Y46714D01*
Y46635D01*
X107590Y46583D01*
X107564Y46557D01*
X107486Y46531D01*
X107381D01*
X107302Y46557D01*
X107276Y46583D01*
X107250Y46635D01*
Y46714D01*
X107276Y46766D01*
X107329Y46819D01*
X107407Y46845D01*
X107512Y46871D01*
X107564Y46897D01*
X107590Y46950D01*
Y47002D01*
X107564Y47054D01*
X107486Y47081D01*
X107381D01*
X85002Y47131D02*
X85290D01*
X85133Y46921D01*
X85212D01*
X85264Y46895D01*
X85290Y46869D01*
X85317Y46790D01*
Y46738D01*
X85290Y46659D01*
X85238Y46607D01*
X85159Y46581D01*
X85081D01*
X85002Y46607D01*
X84976Y46633D01*
X84950Y46685D01*
X85597Y47131D02*
X85518Y47104D01*
X85466Y47026D01*
X85440Y46895D01*
Y46816D01*
X85466Y46685D01*
X85518Y46607D01*
X85597Y46581D01*
X85649D01*
X85728Y46607D01*
X85780Y46685D01*
X85806Y46816D01*
Y46895D01*
X85780Y47026D01*
X85728Y47104D01*
X85649Y47131D01*
X85597D01*
X91350Y111081D02*
X90850D01*
X90750Y110981D01*
Y110781D01*
X90850Y110681D01*
X91350D01*
X91250Y110081D02*
X91350Y110181D01*
Y110381D01*
X91250Y110481D01*
X91150D01*
X91050Y110381D01*
Y110181D01*
X90950Y110081D01*
X90850D01*
X90750Y110181D01*
Y110381D01*
X90850Y110481D01*
X91350Y109881D02*
X90750D01*
Y109581D01*
X90850Y109481D01*
X90950D01*
X91050Y109581D01*
Y109881D01*
Y109581D01*
X91150Y109481D01*
X91250D01*
X91350Y109581D01*
Y109881D01*
X57000Y110131D02*
Y109931D01*
Y110031D01*
X57600D01*
X57500Y110131D01*
X57000Y109231D02*
Y109631D01*
X57400Y109231D01*
X57500D01*
X57600Y109331D01*
Y109531D01*
X57500Y109631D01*
X57600Y109031D02*
X57200D01*
X57000Y108831D01*
X57200Y108631D01*
X57600D01*
Y108431D02*
X57000D01*
Y108131D01*
X57100Y108031D01*
X57500D01*
X57600Y108131D01*
Y108431D01*
X57500Y107432D02*
X57600Y107532D01*
Y107731D01*
X57500Y107831D01*
X57100D01*
X57000Y107731D01*
Y107532D01*
X57100Y107432D01*
X57000Y107232D02*
X57400Y106832D01*
X57000Y106632D02*
Y106432D01*
Y106532D01*
X57600D01*
X57500Y106632D01*
X57000Y106132D02*
X57100D01*
Y106032D01*
X57000D01*
Y106132D01*
Y105232D02*
Y105632D01*
X57400Y105232D01*
X57500D01*
X57600Y105332D01*
Y105532D01*
X57500Y105632D01*
X57000Y105032D02*
X57400D01*
X57600Y104832D01*
X57400Y104632D01*
X57000D01*
X57300D01*
Y105032D01*
X165550Y41981D02*
X165648Y41986D01*
X165745Y42000D01*
X165840Y42024D01*
X165933Y42057D01*
X166021Y42099D01*
X166106Y42149D01*
X166184Y42208D01*
X166257Y42274D01*
X166323Y42346D01*
X166381Y42425D01*
X166432Y42509D01*
X166474Y42598D01*
X166507Y42690D01*
X166531Y42786D01*
X166545Y42883D01*
X166550Y42981D01*
X31350D02*
X31355Y42883D01*
X31369Y42786D01*
X31393Y42690D01*
X31426Y42598D01*
X31468Y42509D01*
X31519Y42425D01*
X31577Y42346D01*
X31643Y42274D01*
X31716Y42208D01*
X31794Y42149D01*
X31879Y42099D01*
X31967Y42057D01*
X32060Y42024D01*
X32155Y42000D01*
X32252Y41986D01*
X32350Y41981D01*
X165550D01*
X31350Y112031D02*
X166550D01*
X31350Y42981D02*
Y112031D01*
X166550Y42981D02*
Y112031D01*
D41*
X40392Y78642D02*
X40389Y78742D01*
X40380Y78843D01*
X40364Y78942D01*
X40342Y79041D01*
X40314Y79137D01*
X40280Y79232D01*
X40240Y79324D01*
X40194Y79414D01*
X40143Y79501D01*
X40086Y79584D01*
X40024Y79664D01*
X39958Y79739D01*
X39886Y79811D01*
X39811Y79877D01*
X39731Y79939D01*
X39648Y79996D01*
X39561Y80047D01*
X39472Y80093D01*
X39379Y80133D01*
X39284Y80167D01*
X39188Y80195D01*
X39089Y80217D01*
X38990Y80232D01*
X38890Y80242D01*
X38789Y80245D01*
X38688Y80242D01*
X38588Y80232D01*
X38488Y80217D01*
X38390Y80195D01*
X38293Y80167D01*
X38199Y80133D01*
X38106Y80093D01*
X38016Y80047D01*
X37930Y79996D01*
X37846Y79939D01*
X37767Y79877D01*
X37691Y79811D01*
X37620Y79739D01*
X37553Y79664D01*
X37492Y79584D01*
X37435Y79501D01*
X37384Y79414D01*
X37338Y79324D01*
X37298Y79232D01*
X37264Y79137D01*
X37236Y79041D01*
X37214Y78942D01*
X37198Y78843D01*
X37189Y78742D01*
X37186Y78642D01*
D43*
X40286Y80542D02*
X40276Y80639D01*
X40248Y80733D01*
X40202Y80819D01*
X40139Y80895D01*
X40064Y80957D01*
X39978Y81003D01*
X39884Y81032D01*
X39787Y81042D01*
X39689Y81032D01*
D44*
X40456Y80512D02*
X40446Y80616D01*
X40417Y80717D01*
X40371Y80811D01*
X40308Y80894D01*
X40231Y80965D01*
X40142Y81020D01*
X40044Y81058D01*
X39941Y81077D01*
X39837Y81077D01*
X39734Y81058D01*
X80879Y63681D02*
X80809Y63751D01*
X80739Y63681D01*
X80809Y63611D01*
X80879Y63681D01*
X133800Y55281D02*
X138100D01*
X124550Y51281D02*
Y55231D01*
X125250Y55281D02*
X133800D01*
X153248Y97431D02*
X152248Y96764D01*
X153248D02*
X152248Y97431D01*
Y96431D02*
X153248D01*
Y95931D01*
X153081Y95765D01*
X152748D01*
X152581Y95931D01*
Y96431D01*
X153248Y95431D02*
X152415D01*
X152248Y95265D01*
Y94932D01*
X152415Y94765D01*
X153248D01*
X152748Y94432D02*
Y93765D01*
X153081Y92766D02*
X153248Y92932D01*
Y93265D01*
X153081Y93432D01*
X152415D01*
X152248Y93265D01*
Y92932D01*
X152415Y92766D01*
X153248Y91766D02*
X153081Y92099D01*
X152748Y92432D01*
X152415D01*
X152248Y92266D01*
Y91932D01*
X152415Y91766D01*
X152581D01*
X152748Y91932D01*
Y92432D01*
X152248Y90933D02*
X153248D01*
X152748Y91433D01*
Y90766D01*
X153248Y90433D02*
X152248Y89767D01*
X153248D02*
X152248Y90433D01*
Y88434D02*
X153248D01*
X152915Y88100D01*
X153248Y87767D01*
X152248D01*
Y87267D02*
Y86934D01*
X152415Y86767D01*
X152748D01*
X152915Y86934D01*
Y87267D01*
X152748Y87434D01*
X152415D01*
X152248Y87267D01*
X153248Y85768D02*
X152248D01*
Y86268D01*
X152415Y86434D01*
X152748D01*
X152915Y86268D01*
Y85768D01*
Y85435D02*
X152415D01*
X152248Y85268D01*
Y84768D01*
X152915D01*
X152248Y84435D02*
Y84102D01*
Y84268D01*
X153248D01*
Y84435D01*
X152248Y83102D02*
Y83435D01*
X152415Y83602D01*
X152748D01*
X152915Y83435D01*
Y83102D01*
X152748Y82935D01*
X152581D01*
Y83602D01*
X130750Y97431D02*
X129750Y96764D01*
X130750D02*
X129750Y97431D01*
Y96431D02*
X130750D01*
Y95931D01*
X130583Y95765D01*
X130250D01*
X130083Y95931D01*
Y96431D01*
X130750Y95431D02*
X129917D01*
X129750Y95265D01*
Y94932D01*
X129917Y94765D01*
X130750D01*
X130250Y94432D02*
Y93765D01*
X130583Y92766D02*
X130750Y92932D01*
Y93265D01*
X130583Y93432D01*
X129917D01*
X129750Y93265D01*
Y92932D01*
X129917Y92766D01*
X130750Y91766D02*
X130583Y92099D01*
X130250Y92432D01*
X129917D01*
X129750Y92266D01*
Y91932D01*
X129917Y91766D01*
X130083D01*
X130250Y91932D01*
Y92432D01*
X129750Y90933D02*
X130750D01*
X130250Y91433D01*
Y90766D01*
X130750Y90433D02*
X129750Y89767D01*
X130750D02*
X129750Y90433D01*
Y88434D02*
X130750D01*
X130416Y88100D01*
X130750Y87767D01*
X129750D01*
Y87267D02*
Y86934D01*
X129917Y86767D01*
X130250D01*
X130416Y86934D01*
Y87267D01*
X130250Y87434D01*
X129917D01*
X129750Y87267D01*
X130750Y85768D02*
X129750D01*
Y86268D01*
X129917Y86434D01*
X130250D01*
X130416Y86268D01*
Y85768D01*
Y85435D02*
X129917D01*
X129750Y85268D01*
Y84768D01*
X130416D01*
X129750Y84435D02*
Y84102D01*
Y84268D01*
X130750D01*
Y84435D01*
X129750Y83102D02*
Y83435D01*
X129917Y83602D01*
X130250D01*
X130416Y83435D01*
Y83102D01*
X130250Y82935D01*
X130083D01*
Y83602D01*
X111950Y86631D02*
X112750D01*
X113150Y86231D01*
X112750Y85831D01*
X111950D01*
X112550D01*
Y86631D01*
X113150Y85431D02*
X111950D01*
Y84631D01*
X113150Y84231D02*
Y83832D01*
Y84032D01*
X111950D01*
Y84231D01*
Y83832D01*
X113150Y83232D02*
X111950Y82432D01*
X113150D02*
X111950Y83232D01*
Y82032D02*
X112150D01*
Y81832D01*
X111950D01*
Y82032D01*
Y80233D02*
Y81033D01*
X112750Y80233D01*
X112950D01*
X113150Y80433D01*
Y80833D01*
X112950Y81033D01*
X111950Y78633D02*
X113150D01*
X112750Y78233D01*
X113150Y77834D01*
X111950D01*
Y77234D02*
Y76834D01*
X112150Y76634D01*
X112550D01*
X112750Y76834D01*
Y77234D01*
X112550Y77434D01*
X112150D01*
X111950Y77234D01*
X113150Y75434D02*
X111950D01*
Y76034D01*
X112150Y76234D01*
X112550D01*
X112750Y76034D01*
Y75434D01*
Y75034D02*
X112150D01*
X111950Y74835D01*
Y74235D01*
X112750D01*
X111950Y73835D02*
Y73435D01*
Y73635D01*
X113150D01*
Y73835D01*
X111950Y72235D02*
Y72635D01*
X112150Y72835D01*
X112550D01*
X112750Y72635D01*
Y72235D01*
X112550Y72035D01*
X112350D01*
Y72835D01*
D45*
X94081Y63264D02*
X94006Y63308D01*
Y63221D01*
X94081Y63264D01*
X38736Y77642D02*
X38750Y77543D01*
X38791Y77453D01*
X38856Y77377D01*
X38940Y77323D01*
X39036Y77295D01*
X39135D01*
X39231Y77323D01*
X39315Y77377D01*
X39380Y77453D01*
X39421Y77543D01*
X39436Y77642D01*
X40208Y78195D02*
X40246Y78288D01*
X40277Y78383D01*
X40303Y78480D01*
X40323Y78578D01*
X40337Y78677D01*
X40344Y78777D01*
X40345Y78877D01*
X40340Y78977D01*
X40328Y79076D01*
X40311Y79175D01*
X40287Y79272D01*
X40257Y79368D01*
X40221Y79461D01*
X40180Y79552D01*
X40133Y79641D01*
X40080Y79726D01*
X40022Y79808D01*
X39960Y79886D01*
X39892Y79960D01*
X39820Y80029D01*
X39744Y80094D01*
X39664Y80154D01*
X39580Y80209D01*
X39493Y80259D01*
X39403Y80303D01*
X39310Y80341D01*
X39216Y80373D01*
X39119Y80400D01*
X39021Y80420D01*
X38922Y80434D01*
X38822Y80442D01*
X38722Y80444D01*
X38622Y80439D01*
X38522Y80428D01*
X38424Y80411D01*
X38326Y80388D01*
X38230Y80359D01*
X38137Y80324D01*
X38045Y80283D01*
X37957Y80236D01*
X37871Y80184D01*
X37789Y80127D01*
X37711Y80064D01*
X37636Y79997D01*
X37566Y79926D01*
X37501Y79850D01*
X37441Y79770D01*
X37385Y79687D01*
X37335Y79600D01*
X37291Y79510D01*
X37252Y79418D01*
X37219Y79323D01*
X37192Y79227D01*
X37171Y79129D01*
X37156Y79030D01*
X37148Y78930D01*
X37145Y78830D01*
X37149Y78730D01*
X37160Y78630D01*
X37176Y78532D01*
X37199Y78434D01*
X37227Y78338D01*
X37262Y78244D01*
X37303Y78152D01*
X37349Y78064D01*
X37400Y77978D01*
X37457Y77895D01*
X37519Y77817D01*
X37586Y77742D01*
X38736Y77792D02*
X38750Y77693D01*
X38791Y77603D01*
X38856Y77527D01*
X38940Y77473D01*
X39036Y77445D01*
X39135D01*
X39231Y77473D01*
X39315Y77527D01*
X39380Y77603D01*
X39421Y77693D01*
X39436Y77792D01*
D46*
X75550Y83831D02*
Y94831D01*
X64550Y83831D02*
Y94831D01*
X75550D01*
X64550Y83831D02*
X75550D01*
Y65231D02*
Y76231D01*
X64550Y65231D02*
Y76231D01*
X75550D01*
X64550Y65231D02*
X75550D01*
X81200Y71131D02*
X81400Y71331D01*
X80100D02*
X80300Y71131D01*
X81200D01*
X80100Y75181D02*
X81400D01*
X80100Y71331D02*
Y72531D01*
X81400Y71331D02*
Y72531D01*
X80100Y73831D02*
Y75181D01*
X81400Y73831D02*
Y75181D01*
X63500Y110931D02*
X64200D01*
X63850Y110581D02*
Y111281D01*
X58400Y110631D02*
Y111331D01*
X123950Y108164D02*
Y108397D01*
Y108281D01*
X123367D01*
X123250Y108397D01*
Y108514D01*
X123367Y108631D01*
X123833Y107931D02*
X123950Y107814D01*
Y107581D01*
X123833Y107464D01*
X123717D01*
X123600Y107581D01*
Y107698D01*
Y107581D01*
X123483Y107464D01*
X123367D01*
X123250Y107581D01*
Y107814D01*
X123367Y107931D01*
X149483Y111014D02*
X149600Y111131D01*
Y111364D01*
X149483Y111481D01*
X149017D01*
X148900Y111364D01*
Y111131D01*
X149017Y111014D01*
X149600Y110431D02*
Y110664D01*
X149483Y110781D01*
X149017D01*
X148900Y110664D01*
Y110431D01*
X149017Y110314D01*
X149483D01*
X149600Y110431D01*
X148900Y110081D02*
X149600D01*
X149367Y109848D01*
X149600Y109615D01*
X148900D01*
Y109381D02*
Y109148D01*
Y109265D01*
X149600D01*
X149483Y109381D01*
X151800Y64314D02*
Y64547D01*
Y64431D01*
X151217D01*
X151100Y64547D01*
Y64664D01*
X151217Y64781D01*
X151100Y64081D02*
Y63848D01*
Y63964D01*
X151800D01*
X151683Y64081D01*
Y63498D02*
X151800Y63381D01*
Y63148D01*
X151683Y63031D01*
X151217D01*
X151100Y63148D01*
Y63381D01*
X151217Y63498D01*
X151683D01*
X151100Y62798D02*
X151567Y62331D01*
X151683Y61632D02*
X151800Y61748D01*
Y61982D01*
X151683Y62098D01*
X151217D01*
X151100Y61982D01*
Y61748D01*
X151217Y61632D01*
X151800Y60932D02*
Y61398D01*
X151450D01*
Y61165D01*
Y61398D01*
X151100D01*
X150800Y110564D02*
Y110797D01*
Y110681D01*
X150217D01*
X150100Y110797D01*
Y110914D01*
X150217Y111031D01*
X150800Y109864D02*
Y110331D01*
X150450D01*
X150567Y110098D01*
Y109981D01*
X150450Y109864D01*
X150217D01*
X150100Y109981D01*
Y110214D01*
X150217Y110331D01*
X143750Y110014D02*
Y110247D01*
Y110131D01*
X143167D01*
X143050Y110247D01*
Y110364D01*
X143167Y110481D01*
X143050Y109781D02*
Y109548D01*
Y109664D01*
X143750D01*
X143633Y109781D01*
X143050Y109198D02*
X143517Y108731D01*
X143750Y108498D02*
X143050D01*
Y108031D01*
Y107798D02*
X143517D01*
X143750Y107565D01*
X143517Y107332D01*
X143050D01*
X143400D01*
Y107798D01*
X143050Y107098D02*
X143750D01*
X143050Y106632D01*
X143750D01*
X143633Y106399D02*
X143750Y106282D01*
Y106049D01*
X143633Y105932D01*
X143517D01*
X143400Y106049D01*
Y106165D01*
Y106049D01*
X143283Y105932D01*
X143167D01*
X143050Y106049D01*
Y106282D01*
X143167Y106399D01*
X133450Y110064D02*
Y110297D01*
Y110181D01*
X132867D01*
X132750Y110297D01*
Y110414D01*
X132867Y110531D01*
X132750Y109364D02*
Y109831D01*
X133217Y109364D01*
X133333D01*
X133450Y109481D01*
Y109714D01*
X133333Y109831D01*
X132750Y109131D02*
X133217Y108665D01*
X133450Y108431D02*
X132750D01*
Y107965D01*
Y107732D02*
X133217D01*
X133450Y107498D01*
X133217Y107265D01*
X132750D01*
X133100D01*
Y107732D01*
X132750Y107032D02*
X133450D01*
X132750Y106565D01*
X133450D01*
X132750Y105866D02*
Y106332D01*
X133217Y105866D01*
X133333D01*
X133450Y105982D01*
Y106215D01*
X133333Y106332D01*
X122650Y110481D02*
X121950D01*
Y110014D01*
Y109781D02*
X122417D01*
X122650Y109548D01*
X122417Y109314D01*
X121950D01*
X122300D01*
Y109781D01*
X121950Y109081D02*
X122650D01*
X121950Y108615D01*
X122650D01*
X121950Y108381D02*
Y108148D01*
Y108265D01*
X122650D01*
X122533Y108381D01*
X121950Y107798D02*
X122417Y107332D01*
X121950Y107098D02*
X122650D01*
Y106749D01*
X122533Y106632D01*
X122300D01*
X122183Y106749D01*
Y107098D01*
X121950Y106282D02*
Y106049D01*
X122067Y105932D01*
X122300D01*
X122417Y106049D01*
Y106282D01*
X122300Y106399D01*
X122067D01*
X121950Y106282D01*
X122650Y105232D02*
Y105699D01*
X121950D01*
Y105232D01*
X122300Y105699D02*
Y105466D01*
X116100Y110464D02*
Y110697D01*
Y110581D01*
X115517D01*
X115400Y110697D01*
Y110814D01*
X115517Y110931D01*
X116100Y109764D02*
X115983Y109998D01*
X115750Y110231D01*
X115517D01*
X115400Y110114D01*
Y109881D01*
X115517Y109764D01*
X115633D01*
X115750Y109881D01*
Y110231D01*
X115400Y109531D02*
X115867Y109065D01*
X116100Y108831D02*
X115517D01*
X115400Y108715D01*
Y108481D01*
X115517Y108365D01*
X116100D01*
X115983Y107665D02*
X116100Y107782D01*
Y108015D01*
X115983Y108132D01*
X115867D01*
X115750Y108015D01*
Y107782D01*
X115633Y107665D01*
X115517D01*
X115400Y107782D01*
Y108015D01*
X115517Y108132D01*
X116100Y107432D02*
X115400D01*
Y107082D01*
X115517Y106965D01*
X115633D01*
X115750Y107082D01*
Y107432D01*
Y107082D01*
X115867Y106965D01*
X115983D01*
X116100Y107082D01*
Y107432D01*
X110450Y110874D02*
Y111107D01*
Y110991D01*
X109867D01*
X109750Y111107D01*
Y111224D01*
X109867Y111341D01*
X109750Y110291D02*
X110450D01*
X110100Y110641D01*
Y110174D01*
X109750Y109941D02*
X110217Y109475D01*
X109750Y109241D02*
X110450D01*
Y108891D01*
X110333Y108775D01*
X110100D01*
X109983Y108891D01*
Y109241D01*
X110333Y108075D02*
X110450Y108192D01*
Y108425D01*
X110333Y108542D01*
X110217D01*
X110100Y108425D01*
Y108192D01*
X109983Y108075D01*
X109867D01*
X109750Y108192D01*
Y108425D01*
X109867Y108542D01*
X143148Y93014D02*
Y93247D01*
Y93131D01*
X142565D01*
X142448Y93247D01*
Y93364D01*
X142565Y93481D01*
X143148Y92781D02*
Y92314D01*
X143031D01*
X142565Y92781D01*
X142448D01*
Y92081D02*
X142915Y91615D01*
X142448Y90682D02*
X143148D01*
X142915Y90448D01*
X143148Y90215D01*
X142448D01*
Y89982D02*
Y89749D01*
Y89865D01*
X142915D01*
Y89982D01*
X142448Y89399D02*
X142915D01*
Y89049D01*
X142798Y88932D01*
X142448D01*
Y88699D02*
Y88466D01*
Y88582D01*
X142915D01*
Y88699D01*
X142448Y87416D02*
X143148D01*
Y87066D01*
X143031Y86949D01*
X142798D01*
X142681Y87066D01*
Y87416D01*
X143031Y86250D02*
X143148Y86366D01*
Y86600D01*
X143031Y86716D01*
X142565D01*
X142448Y86600D01*
Y86366D01*
X142565Y86250D01*
X143148Y86016D02*
Y85783D01*
Y85900D01*
X142448D01*
Y86016D01*
Y85783D01*
X139550Y62014D02*
Y62247D01*
Y62131D01*
X138967D01*
X138850Y62247D01*
Y62364D01*
X138967Y62481D01*
X138850Y61781D02*
Y61548D01*
Y61664D01*
X139550D01*
X139433Y61781D01*
X138850Y61198D02*
Y60965D01*
Y61081D01*
X139550D01*
X139433Y61198D01*
X138850Y60615D02*
X139317Y60148D01*
X139550Y59915D02*
X138850D01*
Y59448D01*
Y59215D02*
X139550D01*
Y58865D01*
X139433Y58749D01*
X139200D01*
X139083Y58865D01*
Y59215D01*
X139433Y58049D02*
X139550Y58165D01*
Y58399D01*
X139433Y58515D01*
X138967D01*
X138850Y58399D01*
Y58165D01*
X138967Y58049D01*
X120650Y93014D02*
Y93247D01*
Y93131D01*
X120067D01*
X119950Y93247D01*
Y93364D01*
X120067Y93481D01*
X120533Y92781D02*
X120650Y92664D01*
Y92431D01*
X120533Y92314D01*
X120417D01*
X120300Y92431D01*
X120183Y92314D01*
X120067D01*
X119950Y92431D01*
Y92664D01*
X120067Y92781D01*
X120183D01*
X120300Y92664D01*
X120417Y92781D01*
X120533D01*
X120300Y92664D02*
Y92431D01*
X119950Y92081D02*
X120417Y91615D01*
X119950Y90682D02*
X120650D01*
X120417Y90448D01*
X120650Y90215D01*
X119950D01*
Y89982D02*
Y89749D01*
Y89865D01*
X120417D01*
Y89982D01*
X119950Y89399D02*
X120417D01*
Y89049D01*
X120300Y88932D01*
X119950D01*
Y88699D02*
Y88466D01*
Y88582D01*
X120417D01*
Y88699D01*
X119950Y87416D02*
X120650D01*
Y87066D01*
X120533Y86949D01*
X120300D01*
X120183Y87066D01*
Y87416D01*
X120533Y86250D02*
X120650Y86366D01*
Y86600D01*
X120533Y86716D01*
X120067D01*
X119950Y86600D01*
Y86366D01*
X120067Y86250D01*
X120650Y86016D02*
Y85783D01*
Y85900D01*
X119950D01*
Y86016D01*
Y85783D01*
X98200Y83964D02*
Y84197D01*
Y84081D01*
X97617D01*
X97500Y84197D01*
Y84314D01*
X97617Y84431D01*
X98200Y83731D02*
Y83264D01*
Y83498D01*
X97500D01*
Y83031D02*
X97967D01*
X98200Y82798D01*
X97967Y82565D01*
X97500D01*
X97850D01*
Y83031D01*
X98083Y81865D02*
X98200Y81981D01*
Y82215D01*
X98083Y82331D01*
X97617D01*
X97500Y82215D01*
Y81981D01*
X97617Y81865D01*
X97850D01*
Y82098D01*
X97500Y81632D02*
Y81398D01*
Y81515D01*
X98200D01*
X98083Y81632D01*
X88250Y71914D02*
Y72147D01*
Y72031D01*
X87667D01*
X87550Y72147D01*
Y72264D01*
X87667Y72381D01*
X88250Y71681D02*
Y71214D01*
Y71448D01*
X87550D01*
Y70981D02*
X88017D01*
X88250Y70748D01*
X88017Y70515D01*
X87550D01*
X87900D01*
Y70981D01*
X88133Y69815D02*
X88250Y69931D01*
Y70165D01*
X88133Y70281D01*
X87667D01*
X87550Y70165D01*
Y69931D01*
X87667Y69815D01*
X87900D01*
Y70048D01*
X87550Y69115D02*
Y69582D01*
X88017Y69115D01*
X88133D01*
X88250Y69232D01*
Y69465D01*
X88133Y69582D01*
X37500Y74831D02*
X36700D01*
Y74431D01*
X36833Y74298D01*
X36967D01*
X37100Y74431D01*
Y74831D01*
Y74431D01*
X37233Y74298D01*
X37366D01*
X37500Y74431D01*
Y74831D01*
X36700Y74031D02*
X37500D01*
Y73631D01*
X37366Y73498D01*
X37100D01*
X36967Y73631D01*
Y74031D01*
X37500Y72431D02*
X36700D01*
X36967Y72165D01*
X36700Y71898D01*
X37500D01*
X36700Y71632D02*
Y71365D01*
Y71498D01*
X37233D01*
Y71632D01*
X36700Y70965D02*
Y70699D01*
Y70832D01*
X37500D01*
Y70965D01*
Y69766D02*
X36700D01*
Y70166D01*
X36833Y70299D01*
X37100D01*
X37233Y70166D01*
Y69766D01*
Y68966D02*
Y69366D01*
X37100Y69499D01*
X36833D01*
X36700Y69366D01*
Y68966D01*
X37233Y68566D02*
Y68299D01*
X37100Y68166D01*
X36700D01*
Y68566D01*
X36833Y68699D01*
X36967Y68566D01*
Y68166D01*
X37233Y67900D02*
X36700D01*
X36967D01*
X37100Y67766D01*
X37233Y67633D01*
Y67500D01*
X37500Y66567D02*
X36700D01*
Y66967D01*
X36833Y67100D01*
X37100D01*
X37233Y66967D01*
Y66567D01*
X41100Y75081D02*
X40300D01*
Y74681D01*
X40433Y74548D01*
X40966D01*
X41100Y74681D01*
Y75081D01*
Y73748D02*
Y74281D01*
X40300D01*
Y73748D01*
X40700Y74281D02*
Y74014D01*
X41100Y73481D02*
X40300Y72948D01*
X41100D02*
X40300Y73481D01*
Y72148D02*
Y72681D01*
X40833Y72148D01*
X40966D01*
X41100Y72282D01*
Y72548D01*
X40966Y72681D01*
Y71882D02*
X41100Y71748D01*
Y71482D01*
X40966Y71349D01*
X40833D01*
X40700Y71482D01*
X40567Y71349D01*
X40433D01*
X40300Y71482D01*
Y71748D01*
X40433Y71882D01*
X40567D01*
X40700Y71748D01*
X40833Y71882D01*
X40966D01*
X40700Y71748D02*
Y71482D01*
X41100Y70282D02*
X40300Y69749D01*
X41100D02*
X40300Y70282D01*
Y69483D02*
X41100D01*
Y69083D01*
X40966Y68949D01*
X40700D01*
X40567Y69083D01*
Y69483D01*
X41100Y68683D02*
X40433D01*
X40300Y68549D01*
Y68283D01*
X40433Y68150D01*
X41100D01*
X40700Y67883D02*
Y67350D01*
X41100Y67083D02*
X40300D01*
Y66683D01*
X40433Y66550D01*
X40966D01*
X41100Y66683D01*
Y67083D01*
X122450Y50531D02*
X121750D01*
Y50064D01*
Y49831D02*
X122450D01*
Y49481D01*
X122333Y49364D01*
X122100D01*
X121983Y49481D01*
Y49831D01*
X122333Y48665D02*
X122450Y48781D01*
Y49015D01*
X122333Y49131D01*
X121867D01*
X121750Y49015D01*
Y48781D01*
X121867Y48665D01*
X99600Y90081D02*
Y89614D01*
Y89847D01*
X98900D01*
X99600Y89381D02*
X98900D01*
Y89031D01*
X99017Y88914D01*
X99483D01*
X99600Y89031D01*
Y89381D01*
X98900Y88681D02*
X99600D01*
X99367Y88448D01*
X99600Y88215D01*
X98900D01*
Y87981D02*
X99367D01*
X99600Y87748D01*
X99367Y87515D01*
X98900D01*
X99250D01*
Y87981D01*
X98900Y87282D02*
Y87048D01*
Y87165D01*
X99600D01*
X99483Y87282D01*
X99600Y97081D02*
Y96614D01*
Y96847D01*
X98900D01*
X99600Y96381D02*
X98900D01*
Y96031D01*
X99017Y95914D01*
X99483D01*
X99600Y96031D01*
Y96381D01*
X98900Y95681D02*
X99600D01*
X99367Y95448D01*
X99600Y95215D01*
X98900D01*
Y94981D02*
X99367D01*
X99600Y94748D01*
X99367Y94515D01*
X98900D01*
X99250D01*
Y94981D01*
X98900Y93815D02*
Y94282D01*
X99367Y93815D01*
X99483D01*
X99600Y93932D01*
Y94165D01*
X99483Y94282D01*
D72*
X71750Y83831D02*
X71740Y83928D01*
X71712Y84022D01*
X71666Y84108D01*
X71604Y84184D01*
X71528Y84246D01*
X71441Y84293D01*
X71348Y84321D01*
X71250Y84331D01*
X71152Y84321D01*
X71059Y84293D01*
X70972Y84246D01*
X70896Y84184D01*
X70834Y84108D01*
X70788Y84022D01*
X70760Y83928D01*
X70750Y83831D01*
X71750Y65231D02*
X71740Y65328D01*
X71712Y65422D01*
X71666Y65508D01*
X71604Y65584D01*
X71528Y65646D01*
X71441Y65693D01*
X71348Y65721D01*
X71250Y65731D01*
X71152Y65721D01*
X71059Y65693D01*
X70972Y65646D01*
X70896Y65584D01*
X70834Y65508D01*
X70788Y65422D01*
X70760Y65328D01*
X70750Y65231D01*
X117250Y47131D02*
X117239Y47231D01*
X117205Y47326D01*
X117152Y47411D01*
X117081Y47483D01*
X116995Y47536D01*
X116900Y47569D01*
X116800Y47581D01*
X116700Y47569D01*
X116605Y47536D01*
X116519Y47483D01*
X116448Y47411D01*
X116395Y47326D01*
X116361Y47231D01*
X116350Y47131D01*
X116361Y47031D01*
X116395Y46935D01*
X116448Y46850D01*
X116519Y46779D01*
X116605Y46725D01*
X116700Y46692D01*
X116800Y46681D01*
X116900Y46692D01*
X116995Y46725D01*
X117081Y46779D01*
X117152Y46850D01*
X117205Y46935D01*
X117239Y47031D01*
X117250Y47131D01*
X158650Y106131D02*
X158639Y106231D01*
X158605Y106326D01*
X158552Y106411D01*
X158481Y106483D01*
X158395Y106536D01*
X158300Y106569D01*
X158200Y106581D01*
X158100Y106569D01*
X158005Y106536D01*
X157919Y106483D01*
X157848Y106411D01*
X157795Y106326D01*
X157761Y106231D01*
X157750Y106131D01*
X157761Y106031D01*
X157795Y105935D01*
X157848Y105850D01*
X157919Y105779D01*
X158005Y105725D01*
X158100Y105692D01*
X158200Y105681D01*
X158300Y105692D01*
X158395Y105725D01*
X158481Y105779D01*
X158552Y105850D01*
X158605Y105935D01*
X158639Y106031D01*
X158650Y106131D01*
X36450Y105081D02*
X36439Y105181D01*
X36405Y105276D01*
X36352Y105361D01*
X36281Y105433D01*
X36195Y105486D01*
X36100Y105519D01*
X36000Y105531D01*
X35900Y105519D01*
X35805Y105486D01*
X35719Y105433D01*
X35648Y105361D01*
X35595Y105276D01*
X35561Y105181D01*
X35550Y105081D01*
X35561Y104981D01*
X35595Y104885D01*
X35648Y104800D01*
X35719Y104729D01*
X35805Y104675D01*
X35900Y104642D01*
X36000Y104631D01*
X36100Y104642D01*
X36195Y104675D01*
X36281Y104729D01*
X36352Y104800D01*
X36405Y104885D01*
X36439Y104981D01*
X36450Y105081D01*
X64435Y110931D02*
X64427Y111030D01*
X64402Y111126D01*
X64361Y111216D01*
X64305Y111298D01*
X64237Y111370D01*
X64157Y111429D01*
X64068Y111474D01*
X63973Y111503D01*
X63875Y111515D01*
X63776Y111511D01*
X63679Y111490D01*
X63587Y111453D01*
X63502Y111401D01*
X63427Y111336D01*
X63365Y111258D01*
X63317Y111172D01*
X63284Y111078D01*
X63267Y110980D01*
Y110881D01*
X63284Y110783D01*
X63317Y110690D01*
X63365Y110603D01*
X63427Y110526D01*
X63502Y110460D01*
X63587Y110408D01*
X63679Y110371D01*
X63776Y110350D01*
X63875Y110346D01*
X63973Y110359D01*
X64068Y110388D01*
X64157Y110432D01*
X64237Y110491D01*
X64305Y110563D01*
X64361Y110645D01*
X64402Y110736D01*
X64427Y110832D01*
X64435Y110931D01*
X58835Y110981D02*
X58827Y111080D01*
X58802Y111176D01*
X58761Y111266D01*
X58705Y111348D01*
X58637Y111420D01*
X58557Y111479D01*
X58468Y111524D01*
X58373Y111553D01*
X58275Y111565D01*
X58176Y111561D01*
X58079Y111540D01*
X57987Y111503D01*
X57902Y111451D01*
X57827Y111386D01*
X57765Y111308D01*
X57717Y111222D01*
X57684Y111128D01*
X57667Y111030D01*
Y110931D01*
X57684Y110833D01*
X57717Y110740D01*
X57765Y110653D01*
X57827Y110576D01*
X57902Y110510D01*
X57987Y110458D01*
X58079Y110421D01*
X58176Y110400D01*
X58275Y110396D01*
X58373Y110409D01*
X58468Y110438D01*
X58557Y110482D01*
X58637Y110541D01*
X58705Y110613D01*
X58761Y110695D01*
X58802Y110786D01*
X58827Y110882D01*
X58835Y110981D01*
X98300Y74281D02*
X99300D01*
X98300D02*
Y76281D01*
X99300Y74281D02*
Y76281D01*
X98300D02*
X99300D01*
X97700Y72581D02*
Y73581D01*
X99700D01*
X97700Y72581D02*
X99700D01*
Y73581D01*
X80450Y41944D02*
X117450D01*
X107050Y50431D02*
Y51431D01*
X105050Y50431D02*
X107050D01*
X105050Y51431D02*
X107050D01*
X105050Y50431D02*
Y51431D01*
X99900Y71731D02*
Y84731D01*
Y71731D02*
X103400D01*
Y84731D01*
X99900D02*
X103400D01*
X99900Y78981D02*
X100150D01*
Y77481D02*
Y78981D01*
X99900Y77481D02*
X100150D01*
Y78981D02*
Y84481D01*
X103150D01*
Y71981D02*
Y84481D01*
X100150Y71981D02*
X103150D01*
X100150D02*
Y77481D01*
Y82981D02*
X100650Y82731D01*
X100150Y82481D02*
X100650Y82731D01*
X102150Y84481D02*
Y84731D01*
X101150Y84481D02*
Y84731D01*
Y84647D02*
X102150D01*
Y71731D02*
Y71981D01*
X101150Y71731D02*
Y71981D01*
Y71814D02*
X102150D01*
X85550Y69081D02*
Y82081D01*
X82050D02*
X85550D01*
X82050Y69081D02*
Y82081D01*
Y69081D02*
X85550D01*
X85300Y74831D02*
X85550D01*
X85300D02*
Y76331D01*
X85550D01*
X85300Y69331D02*
Y74831D01*
X82300Y69331D02*
X85300D01*
X82300D02*
Y81831D01*
X85300D01*
Y76331D02*
Y81831D01*
X84800Y71081D02*
X85300Y70831D01*
X84800Y71081D02*
X85300Y71331D01*
X83300Y69081D02*
Y69331D01*
X84300Y69081D02*
Y69331D01*
X83300Y69164D02*
X84300D01*
X83300Y81831D02*
Y82081D01*
X84300Y81831D02*
Y82081D01*
X83300Y81997D02*
X84300D01*
X64300Y108431D02*
X65100D01*
Y108831D01*
X64300Y108431D02*
Y108831D01*
Y109631D02*
Y110181D01*
X64450Y110331D01*
X64950D01*
X65100Y110181D01*
Y109631D02*
Y110181D01*
X122800Y47981D02*
X135800D01*
Y51481D01*
X122800D02*
X135800D01*
X122800Y47981D02*
Y51481D01*
X128550Y47981D02*
Y48231D01*
X130050D01*
Y47981D02*
Y48231D01*
X123050D02*
X128550D01*
X123050D02*
Y51231D01*
X135550D01*
Y48231D02*
Y51231D01*
X130050Y48231D02*
X135550D01*
X124550D02*
X124800Y48731D01*
X125050Y48231D01*
X122800Y50231D02*
X123050D01*
X122800Y49231D02*
X123050D01*
X122883D02*
Y50231D01*
X135550D02*
X135800D01*
X135550Y49231D02*
X135800D01*
X135717D02*
Y50231D01*
X87950Y109781D02*
X88750D01*
X87950Y109381D02*
Y109781D01*
X88750Y109381D02*
Y109781D01*
Y108031D02*
Y108581D01*
X88600Y107881D02*
X88750Y108031D01*
X88100Y107881D02*
X88600D01*
X87950Y108031D02*
X88100Y107881D01*
X87950Y108031D02*
Y108581D01*
X77500Y73881D02*
X78500D01*
X77500D02*
Y75881D01*
X78500Y73881D02*
Y75881D01*
X77500D02*
X78500D01*
X84850Y106981D02*
X88850D01*
X84850D02*
Y112031D01*
X88850Y106981D02*
Y112031D01*
X84850D02*
X88850D01*
X76969Y70760D02*
Y70996D01*
X79331Y70760D02*
Y70996D01*
X77166Y73201D02*
X79134D01*
X76969Y70760D02*
X79331D01*
X76969Y73004D02*
X77166Y73201D01*
X76969Y72876D02*
Y73004D01*
X79134Y73201D02*
X79331Y73004D01*
Y72876D02*
Y73004D01*
X97240Y71441D02*
X97900D01*
X97240Y70721D02*
X97900D01*
X98500Y71441D02*
X99080D01*
X98500Y70721D02*
X99080D01*
X97240D02*
Y71441D01*
X99170Y70811D02*
Y71351D01*
X99080Y70721D02*
X99170Y70811D01*
X99080Y71441D02*
X99170Y71351D01*
X83290Y109661D02*
X83380Y109751D01*
X83920D02*
X84010Y109661D01*
X83380Y109751D02*
X83920D01*
X83290Y107821D02*
X84010D01*
Y109081D02*
Y109661D01*
X83290Y109081D02*
Y109661D01*
X84010Y107821D02*
Y108481D01*
X83290Y107821D02*
Y108481D01*
X99070Y82311D02*
X99160Y82401D01*
X98440D02*
X98530Y82311D01*
X99070D01*
X98440Y84241D02*
X99160D01*
X98440Y82401D02*
Y82981D01*
X99160Y82401D02*
Y82981D01*
X98440Y83581D02*
Y84241D01*
X99160Y83581D02*
Y84241D01*
X106050Y59621D02*
X106710D01*
X106050Y60341D02*
X106710D01*
X104870Y59621D02*
X105450D01*
X104870Y60341D02*
X105450D01*
X106710Y59621D02*
Y60341D01*
X104780Y59711D02*
Y60251D01*
X104870Y60341D01*
X104780Y59711D02*
X104870Y59621D01*
X93210Y66581D02*
Y67241D01*
X92490Y66581D02*
Y67241D01*
X93210Y65401D02*
Y65981D01*
X92490Y65401D02*
Y65981D01*
Y67241D02*
X93210D01*
X92580Y65311D02*
X93120D01*
X92490Y65401D02*
X92580Y65311D01*
X93120D02*
X93210Y65401D01*
X86510Y71931D02*
Y72591D01*
X85790Y71931D02*
Y72591D01*
X86510Y70751D02*
Y71331D01*
X85790Y70751D02*
Y71331D01*
Y72591D02*
X86510D01*
X85880Y70661D02*
X86420D01*
X85790Y70751D02*
X85880Y70661D01*
X86420D02*
X86510Y70751D01*
X101580Y51811D02*
X101670Y51721D01*
X101580Y52351D02*
X101670Y52441D01*
X101580Y51811D02*
Y52351D01*
X103510Y51721D02*
Y52441D01*
X101670D02*
X102250D01*
X101670Y51721D02*
X102250D01*
X102850Y52441D02*
X103510D01*
X102850Y51721D02*
X103510D01*
X85950Y108031D02*
Y108581D01*
Y108031D02*
X86100Y107881D01*
X86600D01*
X86750Y108031D01*
Y108581D01*
Y109381D02*
Y109781D01*
X85950Y109381D02*
Y109781D01*
X86750D01*
X86950Y108031D02*
Y108581D01*
Y108031D02*
X87100Y107881D01*
X87600D01*
X87750Y108031D01*
Y108581D01*
Y109381D02*
Y109781D01*
X86950Y109381D02*
Y109781D01*
X87750D01*
X84950Y108031D02*
Y108581D01*
Y108031D02*
X85100Y107881D01*
X85600D01*
X85750Y108031D01*
Y108581D01*
Y109381D02*
Y109781D01*
X84950Y109381D02*
Y109781D01*
X85750D01*
X90050Y64981D02*
Y65981D01*
X88050Y64981D02*
X90050D01*
X88050Y65981D02*
X90050D01*
X88050Y64981D02*
Y65981D01*
X76500Y73881D02*
X77500D01*
X76500D02*
Y75881D01*
X77500D01*
X111600Y50431D02*
Y51431D01*
X109600Y50431D02*
X111600D01*
X109600Y51431D02*
X111600D01*
X109600Y50431D02*
Y51431D01*
X99929Y69880D02*
Y69980D01*
X99864Y69431D02*
Y70450D01*
X99879Y69880D02*
X99979D01*
Y69980D01*
X99879D02*
X99979D01*
X101084Y69435D02*
Y70454D01*
X100650Y93381D02*
X102650D01*
X100650Y97381D02*
X102650D01*
Y93381D02*
Y97381D01*
X100650Y93381D02*
Y97381D01*
Y86381D02*
X102650D01*
X100650Y90381D02*
X102650D01*
Y86381D02*
Y90381D01*
X100650Y86381D02*
Y90381D01*
X94139Y107778D02*
Y108172D01*
X93942Y107975D02*
X94336D01*
X112250Y48581D02*
X112583D01*
X112750Y48414D01*
X112583Y48247D01*
X112250D01*
X112500D01*
Y48581D01*
X112250Y47748D02*
Y48081D01*
X112583Y47748D01*
X112667D01*
X112750Y47831D01*
Y47998D01*
X112667Y48081D01*
X88267Y82781D02*
X88350Y82697D01*
Y82531D01*
X88267Y82447D01*
X87933D01*
X87850Y82531D01*
Y82697D01*
X87933Y82781D01*
X88267D01*
X86650Y82447D02*
Y82781D01*
X86983Y82447D01*
X87067D01*
X87150Y82531D01*
Y82697D01*
X87067Y82781D01*
X103050Y48981D02*
X102550D01*
Y48731D01*
X102633Y48647D01*
X102717D01*
X102800Y48731D01*
Y48981D01*
Y48731D01*
X102883Y48647D01*
X102967D01*
X103050Y48731D01*
Y48981D01*
X102550Y48481D02*
Y48314D01*
Y48398D01*
X103050D01*
X102967Y48481D01*
X102550Y47731D02*
Y48064D01*
X102883Y47731D01*
X102967D01*
X103050Y47814D01*
Y47981D01*
X102967Y48064D01*
X78950Y76031D02*
Y75697D01*
X79117Y75864D02*
X78783D01*
X79117Y75531D02*
X79200Y75448D01*
Y75281D01*
X79117Y75198D01*
X79033D01*
X78950Y75281D01*
Y75364D01*
Y75281D01*
X78867Y75198D01*
X78783D01*
X78700Y75281D01*
Y75448D01*
X78783Y75531D01*
X78700Y75031D02*
X78783D01*
Y74948D01*
X78700D01*
Y75031D01*
X79117Y74614D02*
X79200Y74531D01*
Y74365D01*
X79117Y74281D01*
X79033D01*
X78950Y74365D01*
Y74448D01*
Y74365D01*
X78867Y74281D01*
X78783D01*
X78700Y74365D01*
Y74531D01*
X78783Y74614D01*
X79200Y74115D02*
X78867D01*
X78700Y73948D01*
X78867Y73781D01*
X79200D01*
X87550Y66931D02*
Y66597D01*
X87717Y66764D02*
X87383D01*
X87300Y66098D02*
Y66431D01*
X87633Y66098D01*
X87717D01*
X87800Y66181D01*
Y66348D01*
X87717Y66431D01*
X87300Y65931D02*
X87383D01*
Y65848D01*
X87300D01*
Y65931D01*
X87800Y65181D02*
Y65514D01*
X87550D01*
X87633Y65348D01*
Y65265D01*
X87550Y65181D01*
X87383D01*
X87300Y65265D01*
Y65431D01*
X87383Y65514D01*
X87800Y65015D02*
X87467D01*
X87300Y64848D01*
X87467Y64681D01*
X87800D01*
X66600Y48331D02*
X66933D01*
X67350Y48081D02*
Y48581D01*
X67100Y48331D01*
X67433D01*
X67600Y48497D02*
X67683Y48581D01*
X67850D01*
X67933Y48497D01*
Y48414D01*
X67850Y48331D01*
X67933Y48247D01*
Y48164D01*
X67850Y48081D01*
X67683D01*
X67600Y48164D01*
Y48247D01*
X67683Y48331D01*
X67600Y48414D01*
Y48497D01*
X67683Y48331D02*
X67850D01*
X68100Y48581D02*
Y48247D01*
X68266Y48081D01*
X68433Y48247D01*
Y48581D01*
X85900Y49031D02*
X86233D01*
X86400Y48864D01*
X86233Y48697D01*
X85900D01*
X86150D01*
Y49031D01*
X85900Y48198D02*
Y48531D01*
X86233Y48198D01*
X86317D01*
X86400Y48281D01*
Y48448D01*
X86317Y48531D01*
Y48031D02*
X86400Y47948D01*
Y47781D01*
X86317Y47698D01*
X86233D01*
X86150Y47781D01*
X86067Y47698D01*
X85983D01*
X85900Y47781D01*
Y47948D01*
X85983Y48031D01*
X86067D01*
X86150Y47948D01*
X86233Y48031D01*
X86317D01*
X86150Y47948D02*
Y47781D01*
X87050Y49031D02*
X86550D01*
Y48781D01*
X86633Y48697D01*
X86717D01*
X86800Y48781D01*
Y49031D01*
Y48781D01*
X86883Y48697D01*
X86967D01*
X87050Y48781D01*
Y49031D01*
X86550Y48198D02*
Y48531D01*
X86883Y48198D01*
X86967D01*
X87050Y48281D01*
Y48448D01*
X86967Y48531D01*
Y48031D02*
X87050Y47948D01*
Y47781D01*
X86967Y47698D01*
X86883D01*
X86800Y47781D01*
X86717Y47698D01*
X86633D01*
X86550Y47781D01*
Y47948D01*
X86633Y48031D01*
X86717D01*
X86800Y47948D01*
X86883Y48031D01*
X86967D01*
X86800Y47948D02*
Y47781D01*
X87617Y48697D02*
X87700Y48781D01*
Y48947D01*
X87617Y49031D01*
X87283D01*
X87200Y48947D01*
Y48781D01*
X87283Y48697D01*
X87200Y48198D02*
Y48531D01*
X87533Y48198D01*
X87617D01*
X87700Y48281D01*
Y48448D01*
X87617Y48531D01*
Y48031D02*
X87700Y47948D01*
Y47781D01*
X87617Y47698D01*
X87533D01*
X87450Y47781D01*
X87367Y47698D01*
X87283D01*
X87200Y47781D01*
Y47948D01*
X87283Y48031D01*
X87367D01*
X87450Y47948D01*
X87533Y48031D01*
X87617D01*
X87450Y47948D02*
Y47781D01*
X87900Y49031D02*
X88233D01*
X88400Y48864D01*
X88233Y48697D01*
X87900D01*
X88150D01*
Y49031D01*
X87900Y48198D02*
Y48531D01*
X88233Y48198D01*
X88317D01*
X88400Y48281D01*
Y48448D01*
X88317Y48531D01*
X88400Y47698D02*
X88317Y47864D01*
X88150Y48031D01*
X87983D01*
X87900Y47948D01*
Y47781D01*
X87983Y47698D01*
X88067D01*
X88150Y47781D01*
Y48031D01*
X89050Y49031D02*
X88550D01*
Y48781D01*
X88633Y48697D01*
X88717D01*
X88800Y48781D01*
Y49031D01*
Y48781D01*
X88883Y48697D01*
X88967D01*
X89050Y48781D01*
Y49031D01*
X88550Y48198D02*
Y48531D01*
X88883Y48198D01*
X88967D01*
X89050Y48281D01*
Y48448D01*
X88967Y48531D01*
X89050Y47698D02*
X88967Y47864D01*
X88800Y48031D01*
X88633D01*
X88550Y47948D01*
Y47781D01*
X88633Y47698D01*
X88717D01*
X88800Y47781D01*
Y48031D01*
X89617Y48697D02*
X89700Y48781D01*
Y48947D01*
X89617Y49031D01*
X89283D01*
X89200Y48947D01*
Y48781D01*
X89283Y48697D01*
X89200Y48198D02*
Y48531D01*
X89533Y48198D01*
X89617D01*
X89700Y48281D01*
Y48448D01*
X89617Y48531D01*
X89700Y47698D02*
X89617Y47864D01*
X89450Y48031D01*
X89283D01*
X89200Y47948D01*
Y47781D01*
X89283Y47698D01*
X89367D01*
X89450Y47781D01*
Y48031D01*
X89900Y49031D02*
X90233D01*
X90400Y48864D01*
X90233Y48697D01*
X89900D01*
X90150D01*
Y49031D01*
X89900Y48198D02*
Y48531D01*
X90233Y48198D01*
X90317D01*
X90400Y48281D01*
Y48448D01*
X90317Y48531D01*
X89900Y47781D02*
X90400D01*
X90150Y48031D01*
Y47698D01*
X91050Y49031D02*
X90550D01*
Y48781D01*
X90633Y48697D01*
X90717D01*
X90800Y48781D01*
Y49031D01*
Y48781D01*
X90883Y48697D01*
X90967D01*
X91050Y48781D01*
Y49031D01*
X90550Y48198D02*
Y48531D01*
X90883Y48198D01*
X90967D01*
X91050Y48281D01*
Y48448D01*
X90967Y48531D01*
X90550Y47781D02*
X91050D01*
X90800Y48031D01*
Y47698D01*
X91617Y48697D02*
X91700Y48781D01*
Y48947D01*
X91617Y49031D01*
X91283D01*
X91200Y48947D01*
Y48781D01*
X91283Y48697D01*
X91200Y48198D02*
Y48531D01*
X91533Y48198D01*
X91617D01*
X91700Y48281D01*
Y48448D01*
X91617Y48531D01*
X91200Y47781D02*
X91700D01*
X91450Y48031D01*
Y47698D01*
X91900Y49031D02*
X92233D01*
X92400Y48864D01*
X92233Y48697D01*
X91900D01*
X92150D01*
Y49031D01*
X91900Y48198D02*
Y48531D01*
X92233Y48198D01*
X92317D01*
X92400Y48281D01*
Y48448D01*
X92317Y48531D01*
X91900Y47698D02*
Y48031D01*
X92233Y47698D01*
X92317D01*
X92400Y47781D01*
Y47948D01*
X92317Y48031D01*
X93050Y49031D02*
X92550D01*
Y48781D01*
X92633Y48697D01*
X92717D01*
X92800Y48781D01*
Y49031D01*
Y48781D01*
X92883Y48697D01*
X92967D01*
X93050Y48781D01*
Y49031D01*
X92550Y48198D02*
Y48531D01*
X92883Y48198D01*
X92967D01*
X93050Y48281D01*
Y48448D01*
X92967Y48531D01*
X92550Y47698D02*
Y48031D01*
X92883Y47698D01*
X92967D01*
X93050Y47781D01*
Y47948D01*
X92967Y48031D01*
X93617Y48697D02*
X93700Y48781D01*
Y48947D01*
X93617Y49031D01*
X93283D01*
X93200Y48947D01*
Y48781D01*
X93283Y48697D01*
X93200Y48198D02*
Y48531D01*
X93533Y48198D01*
X93617D01*
X93700Y48281D01*
Y48448D01*
X93617Y48531D01*
X93200Y47698D02*
Y48031D01*
X93533Y47698D01*
X93617D01*
X93700Y47781D01*
Y47948D01*
X93617Y48031D01*
X93900Y49031D02*
X94233D01*
X94400Y48864D01*
X94233Y48697D01*
X93900D01*
X94150D01*
Y49031D01*
X93900Y48198D02*
Y48531D01*
X94233Y48198D01*
X94317D01*
X94400Y48281D01*
Y48448D01*
X94317Y48531D01*
Y48031D02*
X94400Y47948D01*
Y47781D01*
X94317Y47698D01*
X93983D01*
X93900Y47781D01*
Y47948D01*
X93983Y48031D01*
X94317D01*
X95050Y49031D02*
X94550D01*
Y48781D01*
X94633Y48697D01*
X94717D01*
X94800Y48781D01*
Y49031D01*
Y48781D01*
X94883Y48697D01*
X94967D01*
X95050Y48781D01*
Y49031D01*
X94550Y48198D02*
Y48531D01*
X94883Y48198D01*
X94967D01*
X95050Y48281D01*
Y48448D01*
X94967Y48531D01*
Y48031D02*
X95050Y47948D01*
Y47781D01*
X94967Y47698D01*
X94633D01*
X94550Y47781D01*
Y47948D01*
X94633Y48031D01*
X94967D01*
X95617Y48697D02*
X95700Y48781D01*
Y48947D01*
X95617Y49031D01*
X95283D01*
X95200Y48947D01*
Y48781D01*
X95283Y48697D01*
X95200Y48198D02*
Y48531D01*
X95533Y48198D01*
X95617D01*
X95700Y48281D01*
Y48448D01*
X95617Y48531D01*
Y48031D02*
X95700Y47948D01*
Y47781D01*
X95617Y47698D01*
X95283D01*
X95200Y47781D01*
Y47948D01*
X95283Y48031D01*
X95617D01*
X95900Y48981D02*
X96233D01*
X96400Y48814D01*
X96233Y48647D01*
X95900D01*
X96150D01*
Y48981D01*
X95900Y48481D02*
Y48314D01*
Y48398D01*
X96400D01*
X96317Y48481D01*
Y48064D02*
X96400Y47981D01*
Y47814D01*
X96317Y47731D01*
X96233D01*
X96150Y47814D01*
X96067Y47731D01*
X95983D01*
X95900Y47814D01*
Y47981D01*
X95983Y48064D01*
X96067D01*
X96150Y47981D01*
X96233Y48064D01*
X96317D01*
X96150Y47981D02*
Y47814D01*
X97050Y48981D02*
X96550D01*
Y48731D01*
X96633Y48647D01*
X96717D01*
X96800Y48731D01*
Y48981D01*
Y48731D01*
X96883Y48647D01*
X96967D01*
X97050Y48731D01*
Y48981D01*
X96550Y48481D02*
Y48314D01*
Y48398D01*
X97050D01*
X96967Y48481D01*
Y48064D02*
X97050Y47981D01*
Y47814D01*
X96967Y47731D01*
X96883D01*
X96800Y47814D01*
X96717Y47731D01*
X96633D01*
X96550Y47814D01*
Y47981D01*
X96633Y48064D01*
X96717D01*
X96800Y47981D01*
X96883Y48064D01*
X96967D01*
X96800Y47981D02*
Y47814D01*
X97617Y48647D02*
X97700Y48731D01*
Y48897D01*
X97617Y48981D01*
X97283D01*
X97200Y48897D01*
Y48731D01*
X97283Y48647D01*
X97200Y48481D02*
Y48314D01*
Y48398D01*
X97700D01*
X97617Y48481D01*
Y48064D02*
X97700Y47981D01*
Y47814D01*
X97617Y47731D01*
X97533D01*
X97450Y47814D01*
X97367Y47731D01*
X97283D01*
X97200Y47814D01*
Y47981D01*
X97283Y48064D01*
X97367D01*
X97450Y47981D01*
X97533Y48064D01*
X97617D01*
X97450Y47981D02*
Y47814D01*
X99050Y48981D02*
X98550D01*
Y48731D01*
X98633Y48647D01*
X98717D01*
X98800Y48731D01*
Y48981D01*
Y48731D01*
X98883Y48647D01*
X98967D01*
X99050Y48731D01*
Y48981D01*
X98550Y48481D02*
Y48314D01*
Y48398D01*
X99050D01*
X98967Y48481D01*
X99050Y47731D02*
X98967Y47898D01*
X98800Y48064D01*
X98633D01*
X98550Y47981D01*
Y47814D01*
X98633Y47731D01*
X98717D01*
X98800Y47814D01*
Y48064D01*
X99617Y48647D02*
X99700Y48731D01*
Y48897D01*
X99617Y48981D01*
X99283D01*
X99200Y48897D01*
Y48731D01*
X99283Y48647D01*
X99200Y48481D02*
Y48314D01*
Y48398D01*
X99700D01*
X99617Y48481D01*
X99700Y47731D02*
X99617Y47898D01*
X99450Y48064D01*
X99283D01*
X99200Y47981D01*
Y47814D01*
X99283Y47731D01*
X99367D01*
X99450Y47814D01*
Y48064D01*
X99900Y48981D02*
X100233D01*
X100400Y48814D01*
X100233Y48647D01*
X99900D01*
X100150D01*
Y48981D01*
X99900Y48481D02*
Y48314D01*
Y48398D01*
X100400D01*
X100317Y48481D01*
X99900Y47814D02*
X100400D01*
X100150Y48064D01*
Y47731D01*
X101050Y48981D02*
X100550D01*
Y48731D01*
X100633Y48647D01*
X100717D01*
X100800Y48731D01*
Y48981D01*
Y48731D01*
X100883Y48647D01*
X100967D01*
X101050Y48731D01*
Y48981D01*
X100550Y48481D02*
Y48314D01*
Y48398D01*
X101050D01*
X100967Y48481D01*
X100550Y47814D02*
X101050D01*
X100800Y48064D01*
Y47731D01*
X101900Y48981D02*
X102233D01*
X102400Y48814D01*
X102233Y48647D01*
X101900D01*
X102150D01*
Y48981D01*
X101900Y48481D02*
Y48314D01*
Y48398D01*
X102400D01*
X102317Y48481D01*
X101900Y47731D02*
Y48064D01*
X102233Y47731D01*
X102317D01*
X102400Y47814D01*
Y47981D01*
X102317Y48064D01*
X103617Y48647D02*
X103700Y48731D01*
Y48897D01*
X103617Y48981D01*
X103283D01*
X103200Y48897D01*
Y48731D01*
X103283Y48647D01*
X103200Y48481D02*
Y48314D01*
Y48398D01*
X103700D01*
X103617Y48481D01*
X103200Y47731D02*
Y48064D01*
X103533Y47731D01*
X103617D01*
X103700Y47814D01*
Y47981D01*
X103617Y48064D01*
X103900Y48981D02*
X104233D01*
X104400Y48814D01*
X104233Y48647D01*
X103900D01*
X104150D01*
Y48981D01*
X103900Y48481D02*
Y48314D01*
Y48398D01*
X104400D01*
X104317Y48481D01*
Y48064D02*
X104400Y47981D01*
Y47814D01*
X104317Y47731D01*
X103983D01*
X103900Y47814D01*
Y47981D01*
X103983Y48064D01*
X104317D01*
X105050Y48981D02*
X104550D01*
Y48731D01*
X104633Y48647D01*
X104717D01*
X104800Y48731D01*
Y48981D01*
Y48731D01*
X104883Y48647D01*
X104967D01*
X105050Y48731D01*
Y48981D01*
X104550Y48481D02*
Y48314D01*
Y48398D01*
X105050D01*
X104967Y48481D01*
Y48064D02*
X105050Y47981D01*
Y47814D01*
X104967Y47731D01*
X104633D01*
X104550Y47814D01*
Y47981D01*
X104633Y48064D01*
X104967D01*
X105617Y48647D02*
X105700Y48731D01*
Y48897D01*
X105617Y48981D01*
X105283D01*
X105200Y48897D01*
Y48731D01*
X105283Y48647D01*
X105200Y48481D02*
Y48314D01*
Y48398D01*
X105700D01*
X105617Y48481D01*
Y48064D02*
X105700Y47981D01*
Y47814D01*
X105617Y47731D01*
X105283D01*
X105200Y47814D01*
Y47981D01*
X105283Y48064D01*
X105617D01*
X107900Y48531D02*
X108233D01*
X108400Y48364D01*
X108233Y48197D01*
X107900D01*
X108150D01*
Y48531D01*
X108400Y47698D02*
X108317Y47864D01*
X108150Y48031D01*
X107983D01*
X107900Y47948D01*
Y47781D01*
X107983Y47698D01*
X108067D01*
X108150Y47781D01*
Y48031D01*
X109050Y48531D02*
X108550D01*
Y48281D01*
X108633Y48197D01*
X108717D01*
X108800Y48281D01*
Y48531D01*
Y48281D01*
X108883Y48197D01*
X108967D01*
X109050Y48281D01*
Y48531D01*
Y47698D02*
X108967Y47864D01*
X108800Y48031D01*
X108633D01*
X108550Y47948D01*
Y47781D01*
X108633Y47698D01*
X108717D01*
X108800Y47781D01*
Y48031D01*
X109617Y48197D02*
X109700Y48281D01*
Y48447D01*
X109617Y48531D01*
X109283D01*
X109200Y48447D01*
Y48281D01*
X109283Y48197D01*
X109700Y47698D02*
X109617Y47864D01*
X109450Y48031D01*
X109283D01*
X109200Y47948D01*
Y47781D01*
X109283Y47698D01*
X109367D01*
X109450Y47781D01*
Y48031D01*
X86417Y82781D02*
X86500Y82697D01*
Y82531D01*
X86417Y82447D01*
X86333D01*
X86250Y82531D01*
Y82614D01*
Y82531D01*
X86167Y82447D01*
X86083D01*
X86000Y82531D01*
Y82697D01*
X86083Y82781D01*
X87250Y82681D02*
Y82514D01*
Y82597D01*
X87750D01*
X87667Y82681D01*
X87500Y84581D02*
X87000D01*
Y84247D01*
X87500Y83748D02*
Y84081D01*
X87000D01*
Y83748D01*
X87250Y84081D02*
Y83914D01*
X87500Y83581D02*
X87000D01*
Y83331D01*
X87083Y83248D01*
X87417D01*
X87500Y83331D01*
Y83581D01*
X108700Y50697D02*
Y50864D01*
Y50781D01*
X108283D01*
X108200Y50864D01*
Y50947D01*
X108283Y51031D01*
X108200Y50531D02*
X108700D01*
Y50281D01*
X108617Y50198D01*
X108450D01*
X108367Y50281D01*
Y50531D01*
X108617Y50031D02*
X108700Y49948D01*
Y49781D01*
X108617Y49698D01*
X108533D01*
X108450Y49781D01*
Y49864D01*
Y49781D01*
X108367Y49698D01*
X108283D01*
X108200Y49781D01*
Y49948D01*
X108283Y50031D01*
X96800Y83764D02*
X96967Y83931D01*
X97133D01*
X97300Y83764D01*
X96800Y83514D02*
X97133D01*
X97300Y83348D01*
X97133Y83181D01*
X96800D01*
X97050D01*
Y83514D01*
X96800Y83014D02*
X97300D01*
Y82764D01*
X97217Y82681D01*
X97050D01*
X96967Y82764D01*
Y83014D01*
Y82848D02*
X96800Y82681D01*
Y82514D02*
X97300D01*
X97133Y82348D01*
X97300Y82181D01*
X96800D01*
Y82015D02*
X96967Y81848D01*
X97133D01*
X97300Y82015D01*
X86800Y71814D02*
X86967Y71981D01*
X87133D01*
X87300Y71814D01*
Y71231D02*
Y71564D01*
X87050D01*
Y71398D01*
Y71564D01*
X86800D01*
Y71064D02*
X87300D01*
Y70814D01*
X87217Y70731D01*
X87050D01*
X86967Y70814D01*
Y71064D01*
X87217Y70231D02*
X87300Y70315D01*
Y70481D01*
X87217Y70564D01*
X86883D01*
X86800Y70481D01*
Y70315D01*
X86883Y70231D01*
X87050D01*
Y70398D01*
X86800Y70065D02*
X87133D01*
X87300Y69898D01*
X87133Y69731D01*
X86800D01*
X87050D01*
Y70065D01*
X86800Y69565D02*
X86967Y69398D01*
X87133D01*
X87300Y69565D01*
X97550Y72847D02*
Y73014D01*
Y72931D01*
X97133D01*
X97050Y73014D01*
Y73097D01*
X97133Y73181D01*
X97050Y72681D02*
X97550D01*
Y72431D01*
X97467Y72348D01*
X97300D01*
X97217Y72431D01*
Y72681D01*
X97050Y71931D02*
X97550D01*
X97300Y72181D01*
Y71848D01*
X99300Y77247D02*
Y77414D01*
Y77331D01*
X98883D01*
X98800Y77414D01*
Y77497D01*
X98883Y77581D01*
X98800Y77081D02*
X99300D01*
Y76831D01*
X99217Y76748D01*
X99050D01*
X98967Y76831D01*
Y77081D01*
X98800Y76581D02*
Y76414D01*
Y76498D01*
X99300D01*
X99217Y76581D01*
X102367Y93281D02*
X102450Y93197D01*
Y93031D01*
X102367Y92947D01*
X102283D01*
X102200Y93031D01*
X102117Y92947D01*
X102033D01*
X101950Y93031D01*
Y93197D01*
X102033Y93281D01*
X102117D01*
X102200Y93197D01*
X102283Y93281D01*
X102367D01*
X102200Y93197D02*
Y93031D01*
X101450Y93281D02*
Y92947D01*
X101367D01*
X101033Y93281D01*
X100950D01*
Y97681D02*
Y97514D01*
Y97597D01*
X101450D01*
X101367Y97681D01*
X101950Y97547D02*
Y97881D01*
X102283Y97547D01*
X102367D01*
X102450Y97631D01*
Y97797D01*
X102367Y97881D01*
Y86281D02*
X102450Y86197D01*
Y86031D01*
X102367Y85947D01*
X102283D01*
X102200Y86031D01*
X102117Y85947D01*
X102033D01*
X101950Y86031D01*
Y86197D01*
X102033Y86281D01*
X102117D01*
X102200Y86197D01*
X102283Y86281D01*
X102367D01*
X102200Y86197D02*
Y86031D01*
X101450Y86281D02*
Y85947D01*
X101367D01*
X101033Y86281D01*
X100950D01*
Y90681D02*
Y90514D01*
Y90597D01*
X101450D01*
X101367Y90681D01*
X101950Y90547D02*
Y90881D01*
X102283Y90547D01*
X102367D01*
X102450Y90631D01*
Y90797D01*
X102367Y90881D01*
X104800Y50947D02*
Y51114D01*
Y51031D01*
X104383D01*
X104300Y51114D01*
Y51197D01*
X104383Y51281D01*
X104300Y50781D02*
X104800D01*
Y50531D01*
X104717Y50448D01*
X104550D01*
X104467Y50531D01*
Y50781D01*
X104300Y49948D02*
Y50281D01*
X104633Y49948D01*
X104717D01*
X104800Y50031D01*
Y50198D01*
X104717Y50281D01*
D73*
X80547Y63356D02*
X80523Y63458D01*
X80458Y63541D01*
X80363Y63586D01*
X80258D01*
X80163Y63541D01*
X80098Y63458D01*
X80074Y63356D01*
X79602Y66309D02*
X81019D01*
X79602Y63356D02*
X80074D01*
X80547D02*
X81019D01*
D74*
X99185Y69416D02*
Y69858D01*
Y69416D02*
X99715D01*
Y69858D01*
Y70153D02*
Y70595D01*
X99185D02*
X99715D01*
X99185Y70153D02*
Y70595D01*
X89600Y72801D02*
X90280D01*
Y73461D01*
X89600D02*
X90280D01*
X88620Y72801D02*
X89300D01*
X88620D02*
Y73461D01*
X89300D01*
X90635Y78103D02*
Y78545D01*
X91165D01*
Y78103D02*
Y78545D01*
Y77366D02*
Y77808D01*
X90635Y77366D02*
X91165D01*
X90635D02*
Y77808D01*
X93835Y77616D02*
Y78058D01*
Y77616D02*
X94365D01*
Y78058D01*
Y78353D02*
Y78795D01*
X93835D02*
X94365D01*
X93835Y78353D02*
Y78795D01*
X93815Y70166D02*
Y70608D01*
X93285Y70166D02*
X93815D01*
X93285D02*
Y70608D01*
Y70903D02*
Y71345D01*
X93815D01*
Y70903D02*
Y71345D01*
X89085Y73565D02*
X89528D01*
X89085D02*
Y74096D01*
X89528D01*
X89822D02*
X90265D01*
Y73565D02*
Y74096D01*
X89822Y73565D02*
X90265D01*
X89085Y74165D02*
X89528D01*
X89085D02*
Y74696D01*
X89528D01*
X89822D02*
X90265D01*
Y74165D02*
Y74696D01*
X89822Y74165D02*
X90265D01*
X92885Y78353D02*
Y78795D01*
X93415D01*
Y78353D02*
Y78795D01*
Y77616D02*
Y78058D01*
X92885Y77616D02*
X93415D01*
X92885D02*
Y78058D01*
X95515Y80003D02*
Y80445D01*
X94985D02*
X95515D01*
X94985Y80003D02*
Y80445D01*
Y79266D02*
Y79708D01*
Y79266D02*
X95515D01*
Y79708D01*
X96115Y80003D02*
Y80445D01*
X95585D02*
X96115D01*
X95585Y80003D02*
Y80445D01*
Y79266D02*
Y79708D01*
Y79266D02*
X96115D01*
Y79708D01*
X91835Y77366D02*
Y77808D01*
Y77366D02*
X92365D01*
Y77808D01*
Y78103D02*
Y78545D01*
X91835D02*
X92365D01*
X91835Y78103D02*
Y78545D01*
X94385Y105096D02*
X94828D01*
X94385Y104565D02*
Y105096D01*
Y104565D02*
X94828D01*
X95122D02*
X95565D01*
Y105096D01*
X95122D02*
X95565D01*
X95585Y78016D02*
Y78458D01*
Y78016D02*
X96115D01*
Y78458D01*
Y78753D02*
Y79195D01*
X95585D02*
X96115D01*
X95585Y78753D02*
Y79195D01*
X94385Y79266D02*
Y79708D01*
Y79266D02*
X94915D01*
Y79708D01*
Y80003D02*
Y80445D01*
X94385D02*
X94915D01*
X94385Y80003D02*
Y80445D01*
X91922Y78615D02*
X92365D01*
Y79146D01*
X91922D02*
X92365D01*
X91185D02*
X91628D01*
X91185Y78615D02*
Y79146D01*
Y78615D02*
X91628D01*
X91235Y77366D02*
Y77808D01*
Y77366D02*
X91765D01*
Y77808D01*
Y78103D02*
Y78545D01*
X91235D02*
X91765D01*
X91235Y78103D02*
Y78545D01*
X91572Y81596D02*
X92015D01*
Y81065D02*
Y81596D01*
X91572Y81065D02*
X92015D01*
X90835D02*
X91278D01*
X90835D02*
Y81596D01*
X91278D01*
X92135Y81065D02*
X92578D01*
X92135D02*
Y81596D01*
X92578D01*
X92872D02*
X93315D01*
Y81065D02*
Y81596D01*
X92872Y81065D02*
X93315D01*
X96535Y75066D02*
Y75508D01*
Y75066D02*
X97065D01*
Y75508D01*
Y75803D02*
Y76245D01*
X96535D02*
X97065D01*
X96535Y75803D02*
Y76245D01*
X92615Y70903D02*
Y71345D01*
X92085D02*
X92615D01*
X92085Y70903D02*
Y71345D01*
Y70166D02*
Y70608D01*
Y70166D02*
X92615D01*
Y70608D01*
X89822Y74765D02*
X90265D01*
Y75296D01*
X89822D02*
X90265D01*
X89085D02*
X89528D01*
X89085Y74765D02*
Y75296D01*
Y74765D02*
X89528D01*
X93372Y104565D02*
X93815D01*
Y105096D01*
X93372D02*
X93815D01*
X92635D02*
X93078D01*
X92635Y104565D02*
Y105096D01*
Y104565D02*
X93078D01*
X96715Y80316D02*
Y80758D01*
X96185Y80316D02*
X96715D01*
X96185D02*
Y80758D01*
Y81053D02*
Y81495D01*
X96715D01*
Y81053D02*
Y81495D01*
X100622Y71346D02*
X101065D01*
Y70815D02*
Y71346D01*
X100622Y70815D02*
X101065D01*
X99885D02*
X100328D01*
X99885D02*
Y71346D01*
X100328D01*
X99272Y78996D02*
X99715D01*
Y78465D02*
Y78996D01*
X99272Y78465D02*
X99715D01*
X98535D02*
X98978D01*
X98535D02*
Y78996D01*
X98978D01*
X99272Y79996D02*
X99715D01*
Y79465D02*
Y79996D01*
X99272Y79465D02*
X99715D01*
X98535D02*
X98978D01*
X98535D02*
Y79996D01*
X98978D01*
X99272Y78296D02*
X99715D01*
Y77765D02*
Y78296D01*
X99272Y77765D02*
X99715D01*
X98535D02*
X98978D01*
X98535D02*
Y78296D01*
X98978D01*
X98535Y80996D02*
X98978D01*
X98535Y80465D02*
Y80996D01*
Y80465D02*
X98978D01*
X99272D02*
X99715D01*
Y80996D01*
X99272D02*
X99715D01*
X64370Y106451D02*
Y107131D01*
Y106451D02*
X65030D01*
Y107131D01*
X64370Y107431D02*
Y108111D01*
X65030D01*
Y107431D02*
Y108111D01*
X87835Y80616D02*
Y81058D01*
Y80616D02*
X88365D01*
Y81058D01*
Y81353D02*
Y81795D01*
X87835D02*
X88365D01*
X87835Y81353D02*
Y81795D01*
X63835Y85153D02*
Y85595D01*
X64365D01*
Y85153D02*
Y85595D01*
Y84416D02*
Y84858D01*
X63835Y84416D02*
X64365D01*
X63835D02*
Y84858D01*
X64365Y65816D02*
Y66258D01*
X63835Y65816D02*
X64365D01*
X63835D02*
Y66258D01*
Y66553D02*
Y66995D01*
X64365D01*
Y66553D02*
Y66995D01*
X69135Y95165D02*
X69578D01*
X69135D02*
Y95696D01*
X69578D01*
X69872D02*
X70315D01*
Y95165D02*
Y95696D01*
X69872Y95165D02*
X70315D01*
X101735Y53353D02*
Y53795D01*
X102265D01*
Y53353D02*
Y53795D01*
Y52616D02*
Y53058D01*
X101735Y52616D02*
X102265D01*
X101735D02*
Y53058D01*
X101135Y53353D02*
Y53795D01*
X101665D01*
Y53353D02*
Y53795D01*
Y52616D02*
Y53058D01*
X101135Y52616D02*
X101665D01*
X101135D02*
Y53058D01*
X102035Y56015D02*
X102478D01*
X102035D02*
Y56546D01*
X102478D01*
X102772D02*
X103215D01*
Y56015D02*
Y56546D01*
X102772Y56015D02*
X103215D01*
X98165Y52666D02*
Y53108D01*
X97635Y52666D02*
X98165D01*
X97635D02*
Y53108D01*
Y53403D02*
Y53845D01*
X98165D01*
Y53403D02*
Y53845D01*
X97815Y52153D02*
Y52595D01*
X97285D02*
X97815D01*
X97285Y52153D02*
Y52595D01*
Y51416D02*
Y51858D01*
Y51416D02*
X97815D01*
Y51858D01*
X102415Y66345D02*
Y67526D01*
X101885D02*
X101885Y66345D01*
X101885Y67526D02*
X102415D01*
Y65577D02*
Y65685D01*
X101885Y65577D02*
X101885Y65685D01*
X101885Y65577D02*
X102415D01*
X100485D02*
X101015D01*
X100485D02*
X100485Y65685D01*
X101015Y65577D02*
Y65685D01*
X100485Y67526D02*
X101015D01*
X100485D02*
X100485Y66345D01*
X101015D02*
Y67526D01*
X101715Y66345D02*
Y67526D01*
X101185D02*
X101185Y66345D01*
X101185Y67526D02*
X101715D01*
Y65577D02*
Y65685D01*
X101185Y65577D02*
X101185Y65685D01*
X101185Y65577D02*
X101715D01*
X95115Y51416D02*
Y51858D01*
X94585Y51416D02*
X95115D01*
X94585D02*
Y51858D01*
Y52153D02*
Y52595D01*
X95115D01*
Y52153D02*
Y52595D01*
X88522Y60046D02*
X88965D01*
Y59515D02*
Y60046D01*
X88522Y59515D02*
X88965D01*
X87785D02*
X88228D01*
X87785D02*
Y60046D01*
X88228D01*
X88335Y56053D02*
Y56495D01*
X88865D01*
Y56053D02*
Y56495D01*
Y55316D02*
Y55758D01*
X88335Y55316D02*
X88865D01*
X88335D02*
Y55758D01*
X87735Y56053D02*
Y56495D01*
X88265D01*
Y56053D02*
Y56495D01*
Y55316D02*
Y55758D01*
X87735Y55316D02*
X88265D01*
X87735D02*
Y55758D01*
X88522Y58246D02*
X88965D01*
Y57715D02*
Y58246D01*
X88522Y57715D02*
X88965D01*
X87785D02*
X88228D01*
X87785D02*
Y58246D01*
X88228D01*
X88522Y58846D02*
X88965D01*
Y58315D02*
Y58846D01*
X88522Y58315D02*
X88965D01*
X87785D02*
X88228D01*
X87785D02*
Y58846D01*
X88228D01*
X88522Y59446D02*
X88965D01*
Y58915D02*
Y59446D01*
X88522Y58915D02*
X88965D01*
X87785D02*
X88228D01*
X87785D02*
Y59446D01*
X88228D01*
X90665Y55316D02*
Y55758D01*
X90135Y55316D02*
X90665D01*
X90135D02*
Y55758D01*
Y56053D02*
Y56495D01*
X90665D01*
Y56053D02*
Y56495D01*
X90065Y55316D02*
Y55758D01*
X89535Y55316D02*
X90065D01*
X89535D02*
Y55758D01*
Y56053D02*
Y56495D01*
X90065D01*
Y56053D02*
Y56495D01*
X89465Y55316D02*
Y55758D01*
X88935Y55316D02*
X89465D01*
X88935D02*
Y55758D01*
Y56053D02*
Y56495D01*
X89465D01*
Y56053D02*
Y56495D01*
X94065Y52666D02*
Y53108D01*
X93535Y52666D02*
X94065D01*
X93535D02*
Y53108D01*
Y53403D02*
Y53845D01*
X94065D01*
Y53403D02*
Y53845D01*
X93715Y51416D02*
Y51858D01*
X93185Y51416D02*
X93715D01*
X93185D02*
Y51858D01*
Y52153D02*
Y52595D01*
X93715D01*
Y52153D02*
Y52595D01*
X93365Y52666D02*
Y53108D01*
X92835Y52666D02*
X93365D01*
X92835D02*
Y53108D01*
Y53403D02*
Y53845D01*
X93365D01*
Y53403D02*
Y53845D01*
X94765Y52666D02*
Y53108D01*
X94235Y52666D02*
X94765D01*
X94235D02*
Y53108D01*
Y53403D02*
Y53845D01*
X94765D01*
Y53403D02*
Y53845D01*
X94415Y51416D02*
Y51858D01*
X93885Y51416D02*
X94415D01*
X93885D02*
Y51858D01*
Y52153D02*
Y52595D01*
X94415D01*
Y52153D02*
Y52595D01*
X96165Y52666D02*
Y53108D01*
X95635Y52666D02*
X96165D01*
X95635D02*
Y53108D01*
Y53403D02*
Y53845D01*
X96165D01*
Y53403D02*
Y53845D01*
X95465Y52666D02*
Y53108D01*
X94935Y52666D02*
X95465D01*
X94935D02*
Y53108D01*
Y53403D02*
Y53845D01*
X95465D01*
Y53403D02*
Y53845D01*
X96515Y51416D02*
Y51858D01*
X95985Y51416D02*
X96515D01*
X95985D02*
Y51858D01*
Y52153D02*
Y52595D01*
X96515D01*
Y52153D02*
Y52595D01*
X98515Y51416D02*
Y51858D01*
X97985Y51416D02*
X98515D01*
X97985D02*
Y51858D01*
Y52153D02*
Y52595D01*
X98515D01*
Y52153D02*
Y52595D01*
X99565Y52666D02*
Y53108D01*
X99035Y52666D02*
X99565D01*
X99035D02*
Y53108D01*
Y53403D02*
Y53845D01*
X99565D01*
Y53403D02*
Y53845D01*
X99215Y51416D02*
Y51858D01*
X98685Y51416D02*
X99215D01*
X98685D02*
Y51858D01*
Y52153D02*
Y52595D01*
X99215D01*
Y52153D02*
Y52595D01*
X98865Y52666D02*
Y53108D01*
X98335Y52666D02*
X98865D01*
X98335D02*
Y53108D01*
Y53403D02*
Y53845D01*
X98865D01*
Y53403D02*
Y53845D01*
X100615Y51416D02*
Y51858D01*
X100085Y51416D02*
X100615D01*
X100085D02*
Y51858D01*
Y52153D02*
Y52595D01*
X100615D01*
Y52153D02*
Y52595D01*
X100265Y52666D02*
Y53108D01*
X99735Y52666D02*
X100265D01*
X99735D02*
Y53108D01*
Y53403D02*
Y53845D01*
X100265D01*
Y53403D02*
Y53845D01*
X99915Y51416D02*
Y51858D01*
X99385Y51416D02*
X99915D01*
X99385D02*
Y51858D01*
Y52153D02*
Y52595D01*
X99915D01*
Y52153D02*
Y52595D01*
X91522Y62146D02*
X91965D01*
Y61615D02*
Y62146D01*
X91522Y61615D02*
X91965D01*
X90785D02*
X91228D01*
X90785D02*
Y62146D01*
X91228D01*
X91522Y61346D02*
X91965D01*
Y60815D02*
Y61346D01*
X91522Y60815D02*
X91965D01*
X90785D02*
X91228D01*
X90785D02*
Y61346D01*
X91228D01*
X91522Y59196D02*
X91965D01*
Y58665D02*
Y59196D01*
X91522Y58665D02*
X91965D01*
X90785D02*
X91228D01*
X90785D02*
Y59196D01*
X91228D01*
X96935Y53853D02*
Y54295D01*
X97465D01*
Y53853D02*
Y54295D01*
Y53116D02*
Y53558D01*
X96935Y53116D02*
X97465D01*
X96935D02*
Y53558D01*
X102535Y58115D02*
X102978D01*
X102535D02*
Y58646D01*
X102978D01*
X103272D02*
X103715D01*
Y58115D02*
Y58646D01*
X103272Y58115D02*
X103715D01*
X102535Y60065D02*
X102978D01*
X102535D02*
Y60596D01*
X102978D01*
X103272D02*
X103715D01*
Y60065D02*
Y60596D01*
X103272Y60065D02*
X103715D01*
X102535Y61065D02*
X102978D01*
X102535D02*
Y61596D01*
X102978D01*
X103272D02*
X103715D01*
Y61065D02*
Y61596D01*
X103272Y61065D02*
X103715D01*
X97815Y65316D02*
Y65758D01*
X97285Y65316D02*
X97815D01*
X97285D02*
Y65758D01*
Y66053D02*
Y66495D01*
X97815D01*
Y66053D02*
Y66495D01*
X91922Y63846D02*
X92365D01*
Y63315D02*
Y63846D01*
X91922Y63315D02*
X92365D01*
X91185D02*
X91628D01*
X91185D02*
Y63846D01*
X91628D01*
X91522Y60596D02*
X91965D01*
Y60065D02*
Y60596D01*
X91522Y60065D02*
X91965D01*
X90785D02*
X91228D01*
X90785D02*
Y60596D01*
X91228D01*
X91822Y56946D02*
X92265D01*
Y56415D02*
Y56946D01*
X91822Y56415D02*
X92265D01*
X91085D02*
X91528D01*
X91085D02*
Y56946D01*
X91528D01*
X96335Y53853D02*
Y54295D01*
X96865D01*
Y53853D02*
Y54295D01*
Y53116D02*
Y53558D01*
X96335Y53116D02*
X96865D01*
X96335D02*
Y53558D01*
X100785Y54715D02*
X101228D01*
X100785D02*
Y55246D01*
X101228D01*
X101522D02*
X101965D01*
Y54715D02*
Y55246D01*
X101522Y54715D02*
X101965D01*
X102535Y59465D02*
X102978D01*
X102535D02*
Y59996D01*
X102978D01*
X103272D02*
X103715D01*
Y59465D02*
Y59996D01*
X103272Y59465D02*
X103715D01*
X102665Y63116D02*
Y63558D01*
X102135Y63116D02*
X102665D01*
X102135D02*
Y63558D01*
Y63853D02*
Y64295D01*
X102665D01*
Y63853D02*
Y64295D01*
X97215Y65316D02*
Y65758D01*
X96685Y65316D02*
X97215D01*
X96685D02*
Y65758D01*
Y66053D02*
Y66495D01*
X97215D01*
Y66053D02*
Y66495D01*
X93865Y65416D02*
Y65858D01*
X93335Y65416D02*
X93865D01*
X93335D02*
Y65858D01*
Y66153D02*
Y66595D01*
X93865D01*
Y66153D02*
Y66595D01*
X87235Y81353D02*
Y81795D01*
X87765D01*
Y81353D02*
Y81795D01*
Y80616D02*
Y81058D01*
X87235Y80616D02*
X87765D01*
X87235D02*
Y81058D01*
X86635Y81353D02*
Y81795D01*
X87165D01*
Y81353D02*
Y81795D01*
Y80616D02*
Y81058D01*
X86635Y80616D02*
X87165D01*
X86635D02*
Y81058D01*
X86035Y81353D02*
Y81795D01*
X86565D01*
Y81353D02*
Y81795D01*
Y80616D02*
Y81058D01*
X86035Y80616D02*
X86565D01*
X86035D02*
Y81058D01*
X97265Y68403D02*
Y68845D01*
X96735D02*
X97265D01*
X96735Y68403D02*
Y68845D01*
Y67666D02*
Y68108D01*
Y67666D02*
X97265D01*
Y68108D01*
X82780Y63931D02*
Y64611D01*
X82120D02*
X82780D01*
X82120Y63931D02*
Y64611D01*
X82780Y62951D02*
Y63631D01*
X82120Y62951D02*
X82780D01*
X82120D02*
Y63631D01*
X87270Y64211D02*
X87950D01*
X87270Y63551D02*
Y64211D01*
Y63551D02*
X87950D01*
X88250Y64211D02*
X88930D01*
Y63551D02*
Y64211D01*
X88250Y63551D02*
X88930D01*
X87285Y63003D02*
Y63445D01*
X87815D01*
Y63003D02*
Y63445D01*
Y62266D02*
Y62708D01*
X87285Y62266D02*
X87815D01*
X87285D02*
Y62708D01*
X85835Y73815D02*
X86278D01*
X85835D02*
Y74346D01*
X86278D01*
X86572D02*
X87015D01*
Y73815D02*
Y74346D01*
X86572Y73815D02*
X87015D01*
X86572Y74815D02*
X87015D01*
Y75346D01*
X86572D02*
X87015D01*
X85835D02*
X86278D01*
X85835Y74815D02*
Y75346D01*
Y74815D02*
X86278D01*
X85835Y76815D02*
X86278D01*
X85835D02*
Y77346D01*
X86278D01*
X86572D02*
X87015D01*
Y76815D02*
Y77346D01*
X86572Y76815D02*
X87015D01*
X88222Y60465D02*
X88665D01*
Y60996D01*
X88222D02*
X88665D01*
X87485D02*
X87928D01*
X87485Y60465D02*
Y60996D01*
Y60465D02*
X87928D01*
X83035Y63666D02*
Y64108D01*
Y63666D02*
X83565D01*
Y64108D01*
Y64403D02*
Y64845D01*
X83035D02*
X83565D01*
X83035Y64403D02*
Y64845D01*
X69135Y76465D02*
X69578D01*
X69135D02*
Y76996D01*
X69578D01*
X69872D02*
X70315D01*
Y76465D02*
Y76996D01*
X69872Y76465D02*
X70315D01*
X85835Y72815D02*
X86278D01*
X85835D02*
Y73346D01*
X86278D01*
X86572D02*
X87015D01*
Y72815D02*
Y73346D01*
X86572Y72815D02*
X87015D01*
X99815Y67103D02*
Y67545D01*
X99285D02*
X99815D01*
X99285Y67103D02*
Y67545D01*
Y66366D02*
Y66808D01*
Y66366D02*
X99815D01*
Y66808D01*
X100415Y67103D02*
Y67545D01*
X99885D02*
X100415D01*
X99885Y67103D02*
Y67545D01*
Y66366D02*
Y66808D01*
Y66366D02*
X100415D01*
Y66808D01*
X104815Y63853D02*
Y64295D01*
X104285D02*
X104815D01*
X104285Y63853D02*
Y64295D01*
Y63116D02*
Y63558D01*
Y63116D02*
X104815D01*
Y63558D01*
X105615Y63853D02*
Y64295D01*
X105085D02*
X105615D01*
X105085Y63853D02*
Y64295D01*
Y63116D02*
Y63558D01*
Y63116D02*
X105615D01*
Y63558D01*
X105072Y61465D02*
X105515D01*
Y61996D01*
X105072D02*
X105515D01*
X104335D02*
X104778D01*
X104335Y61465D02*
Y61996D01*
Y61465D02*
X104778D01*
X105072Y60865D02*
X105515D01*
Y61396D01*
X105072D02*
X105515D01*
X104335D02*
X104778D01*
X104335Y60865D02*
Y61396D01*
Y60865D02*
X104778D01*
X105722Y58165D02*
X106165D01*
Y58696D01*
X105722D02*
X106165D01*
X104985D02*
X105428D01*
X104985Y58165D02*
Y58696D01*
Y58165D02*
X105428D01*
X105722Y57465D02*
X106165D01*
Y57996D01*
X105722D02*
X106165D01*
X104985D02*
X105428D01*
X104985Y57465D02*
Y57996D01*
Y57465D02*
X105428D01*
X106972Y57115D02*
X107415D01*
Y57646D01*
X106972D02*
X107415D01*
X106235D02*
X106678D01*
X106235Y57115D02*
Y57646D01*
Y57115D02*
X106678D01*
X103535Y59396D02*
X103978D01*
X103535Y58865D02*
Y59396D01*
Y58865D02*
X103978D01*
X104272D02*
X104715D01*
Y59396D01*
X104272D02*
X104715D01*
X106972Y57815D02*
X107415D01*
Y58346D01*
X106972D02*
X107415D01*
X106235D02*
X106678D01*
X106235Y57815D02*
Y58346D01*
Y57815D02*
X106678D01*
X98535Y81996D02*
X98978D01*
X98535Y81465D02*
Y81996D01*
Y81465D02*
X98978D01*
X99272D02*
X99715D01*
Y81996D01*
X99272D02*
X99715D01*
X104985Y56765D02*
X105428D01*
X104985D02*
Y57296D01*
X105428D01*
X105722D02*
X106165D01*
Y56765D02*
Y57296D01*
X105722Y56765D02*
X106165D01*
X106972Y56415D02*
X107415D01*
Y56946D01*
X106972D02*
X107415D01*
X106235D02*
X106678D01*
X106235Y56415D02*
Y56946D01*
Y56415D02*
X106678D01*
X102285Y58865D02*
X102728D01*
X102285D02*
Y59396D01*
X102728D01*
X103022D02*
X103465D01*
Y58865D02*
Y59396D01*
X103022Y58865D02*
X103465D01*
D75*
X91876Y75787D02*
X92401Y76312D01*
X95391D01*
Y72796D02*
Y76312D01*
X91876Y72796D02*
X95391D01*
X91876D02*
Y75787D01*
X93307Y63552D02*
X93715Y63959D01*
X101154D01*
Y56113D02*
Y63959D01*
X93307Y56113D02*
X101154D01*
X93307D02*
Y63552D01*
X111600Y51431D02*
X112600D01*
Y50431D02*
Y51431D01*
X111600Y50431D02*
X112600D01*
X105050Y49431D02*
Y50431D01*
Y49431D02*
X106050D01*
Y50431D01*
D76*
X58350Y107081D02*
Y107214D01*
X58283Y107281D01*
X58017D01*
X57950Y107214D01*
Y107081D01*
X58017Y107014D01*
X58283D01*
X58350Y107081D01*
Y106881D02*
X58017D01*
X57950Y106814D01*
Y106681D01*
X58017Y106614D01*
X58350D01*
Y106481D02*
Y106214D01*
Y106348D01*
X57950D01*
X110150Y107731D02*
Y107597D01*
Y107664D01*
X109750D01*
Y107731D01*
Y107597D01*
Y107397D02*
X110150D01*
X109750Y107131D01*
X110150D01*
D77*
X38700Y67881D02*
X39700D01*
Y67381D01*
X39533Y67214D01*
X39200D01*
X39033Y67381D01*
Y67881D01*
Y67547D02*
X38700Y67214D01*
Y66215D02*
Y66881D01*
X39366Y66215D01*
X39533D01*
X39700Y66381D01*
Y66714D01*
X39533Y66881D01*
X38700Y65881D02*
X39366D01*
X39700Y65548D01*
X39366Y65215D01*
X38700D01*
X39200D01*
Y65881D01*
D78*
X38736Y77892D02*
D03*
X39436D02*
D03*
D79*
X38836Y78392D02*
D03*
Y79192D02*
D03*
D80*
X40401Y78992D02*
D03*
D81*
X40121Y78062D02*
D03*
M02*
